<?xml version="1.0" encoding="UTF-8" standalone="no"?>
<!DOCTYPE svg PUBLIC "-//W3C//DTD SVG 1.1//EN"
 "http://www.w3.org/Graphics/SVG/1.1/DTD/svg11.dtd">
<!-- Generated by graphviz version 2.36.0 (20140111.2315)
 -->
<!-- Title: IControl.h Pages: 1 -->
<svg width="3937pt" height="196pt"
 viewBox="0.00 0.00 3937.00 196.00" xmlns="http://www.w3.org/2000/svg" xmlns:xlink="http://www.w3.org/1999/xlink">
<g id="graph0" class="graph" transform="scale(1 1) rotate(0) translate(4 192)">
<title>IControl.h</title>
<polygon fill="white" stroke="none" points="-4,4 -4,-192 3933,-192 3933,4 -4,4"/>
<!-- Node1 -->
<g id="node1" class="node"><title>Node1</title>
<polygon fill="#bfbfbf" stroke="black" points="1590.5,-168.5 1590.5,-187.5 1649.5,-187.5 1649.5,-168.5 1590.5,-168.5"/>
<text text-anchor="middle" x="1620" y="-175.5" font-family="Helvetica,sans-Serif" font-size="10.00">IControl.h</text>
</g>
<!-- Node2 -->
<g id="node2" class="node"><title>Node2</title>
<g id="a_node2"><a xlink:href="_i_color_picker_control_8h.html" target="_top" xlink:title="A control for choosing a color. ">
<polygon fill="white" stroke="black" points="499,-112.5 499,-131.5 609,-131.5 609,-112.5 499,-112.5"/>
<text text-anchor="middle" x="554" y="-119.5" font-family="Helvetica,sans-Serif" font-size="10.00">IColorPickerControl.h</text>
</a>
</g>
</g>
<!-- Node1&#45;&gt;Node2 -->
<g id="edge1" class="edge"><title>Node1&#45;&gt;Node2</title>
<path fill="none" stroke="midnightblue" d="M1580.14,-176.566C1444.89,-174.806 991.094,-166.533 618,-132 615.095,-131.731 612.12,-131.424 609.119,-131.089"/>
<polygon fill="midnightblue" stroke="midnightblue" points="1580.38,-180.07 1590.42,-176.695 1580.47,-173.07 1580.38,-180.07"/>
</g>
<!-- Node3 -->
<g id="node3" class="node"><title>Node3</title>
<g id="a_node3"><a xlink:href="_i_controls_8h.html" target="_top" xlink:title="A collection of IControls for common UI widgets, such as knobs, sliders, switches. ">
<polygon fill="white" stroke="black" points="380.5,-56.5 380.5,-75.5 445.5,-75.5 445.5,-56.5 380.5,-56.5"/>
<text text-anchor="middle" x="413" y="-63.5" font-family="Helvetica,sans-Serif" font-size="10.00">IControls.h</text>
</a>
</g>
</g>
<!-- Node1&#45;&gt;Node3 -->
<g id="edge5" class="edge"><title>Node1&#45;&gt;Node3</title>
<path fill="none" stroke="midnightblue" d="M1580.37,-176.943C1392.14,-176.469 593.226,-172.091 490,-132 459.342,-120.093 432.186,-90.6195 419.923,-75.8018"/>
<polygon fill="midnightblue" stroke="midnightblue" points="1580.38,-180.443 1590.38,-176.966 1580.39,-173.443 1580.38,-180.443"/>
</g>
<!-- Node5 -->
<g id="node5" class="node"><title>Node5</title>
<g id="a_node5"><a xlink:href="_i_graphics_8cpp_source.html" target="_top" xlink:title="IGraphics.cpp">
<polygon fill="white" stroke="black" points="884.5,-0.5 884.5,-19.5 961.5,-19.5 961.5,-0.5 884.5,-0.5"/>
<text text-anchor="middle" x="923" y="-7.5" font-family="Helvetica,sans-Serif" font-size="10.00">IGraphics.cpp</text>
</a>
</g>
</g>
<!-- Node1&#45;&gt;Node5 -->
<g id="edge70" class="edge"><title>Node1&#45;&gt;Node5</title>
<path fill="none" stroke="midnightblue" d="M1579.99,-177.364C1433.92,-178.309 929.997,-178.078 777,-132 760.213,-126.944 759.517,-117.877 743,-112 693.226,-94.2884 542.413,-116.086 508,-76 457.885,-17.6227 772.306,-11.3199 884.393,-10.9078"/>
<polygon fill="midnightblue" stroke="midnightblue" points="1580.3,-180.862 1590.27,-177.292 1580.25,-173.863 1580.3,-180.862"/>
</g>
<!-- Node6 -->
<g id="node6" class="node"><title>Node6</title>
<g id="a_node6"><a xlink:href="_i_v_keyboard_control_8h.html" target="_top" xlink:title="Vectorial keyboard control. ">
<polygon fill="white" stroke="black" points="627.5,-112.5 627.5,-131.5 734.5,-131.5 734.5,-112.5 627.5,-112.5"/>
<text text-anchor="middle" x="681" y="-119.5" font-family="Helvetica,sans-Serif" font-size="10.00">IVKeyboardControl.h</text>
</a>
</g>
</g>
<!-- Node1&#45;&gt;Node6 -->
<g id="edge6" class="edge"><title>Node1&#45;&gt;Node6</title>
<path fill="none" stroke="midnightblue" d="M1580.1,-176.074C1456.46,-172.962 1068.76,-161.374 749,-132 744.375,-131.575 739.581,-131.071 734.777,-130.521"/>
<polygon fill="midnightblue" stroke="midnightblue" points="1580.15,-179.576 1590.23,-176.325 1580.32,-172.579 1580.15,-179.576"/>
</g>
<!-- Node7 -->
<g id="node7" class="node"><title>Node7</title>
<g id="a_node7"><a xlink:href="_i_v_meter_control_8h.html" target="_top" xlink:title="Vectorial multichannel capable meter control. ">
<polygon fill="white" stroke="black" points="-0.5,-112.5 -0.5,-131.5 90.5,-131.5 90.5,-112.5 -0.5,-112.5"/>
<text text-anchor="middle" x="45" y="-119.5" font-family="Helvetica,sans-Serif" font-size="10.00">IVMeterControl.h</text>
</a>
</g>
</g>
<!-- Node1&#45;&gt;Node7 -->
<g id="edge8" class="edge"><title>Node1&#45;&gt;Node7</title>
<path fill="none" stroke="midnightblue" d="M1580.28,-176.538C1371.52,-174.003 399.629,-160.822 100,-132 96.918,-131.704 93.7472,-131.341 90.5578,-130.932"/>
<polygon fill="midnightblue" stroke="midnightblue" points="1580.42,-180.04 1590.46,-176.661 1580.51,-173.041 1580.42,-180.04"/>
</g>
<!-- Node8 -->
<g id="node8" class="node"><title>Node8</title>
<g id="a_node8"><a xlink:href="_i_v_scope_control_8h.html" target="_top" xlink:title="Vectorial multichannel capable oscilloscope control. ">
<polygon fill="white" stroke="black" points="109,-112.5 109,-131.5 203,-131.5 203,-112.5 109,-112.5"/>
<text text-anchor="middle" x="156" y="-119.5" font-family="Helvetica,sans-Serif" font-size="10.00">IVScopeControl.h</text>
</a>
</g>
</g>
<!-- Node1&#45;&gt;Node8 -->
<g id="edge10" class="edge"><title>Node1&#45;&gt;Node8</title>
<path fill="none" stroke="midnightblue" d="M1580.37,-176.417C1381.19,-173.381 488.244,-158.504 212,-132 209.157,-131.727 206.24,-131.401 203.302,-131.036"/>
<polygon fill="midnightblue" stroke="midnightblue" points="1580.33,-179.916 1590.38,-176.568 1580.44,-172.917 1580.33,-179.916"/>
</g>
<!-- Node9 -->
<g id="node9" class="node"><title>Node9</title>
<g id="a_node9"><a xlink:href="_i_v_multi_slider_control_8h.html" target="_top" xlink:title="A vectorial multi&#45;slider control. ">
<polygon fill="white" stroke="black" points="221,-112.5 221,-131.5 333,-131.5 333,-112.5 221,-112.5"/>
<text text-anchor="middle" x="277" y="-119.5" font-family="Helvetica,sans-Serif" font-size="10.00">IVMultiSliderControl.h</text>
</a>
</g>
</g>
<!-- Node1&#45;&gt;Node9 -->
<g id="edge12" class="edge"><title>Node1&#45;&gt;Node9</title>
<path fill="none" stroke="midnightblue" d="M1580.04,-177.081C1422.4,-177.085 828.487,-174.133 342,-132 339.163,-131.754 336.259,-131.471 333.33,-131.159"/>
<polygon fill="midnightblue" stroke="midnightblue" points="1580.21,-180.581 1590.21,-177.076 1580.21,-173.581 1580.21,-180.581"/>
</g>
<!-- Node10 -->
<g id="node10" class="node"><title>Node10</title>
<g id="a_node10"><a xlink:href="_i_r_t_text_control_8h.html" target="_top" xlink:title="A control to display some text in the UI, driven by values in the RT audio thread. ">
<polygon fill="white" stroke="black" points="351,-112.5 351,-131.5 443,-131.5 443,-112.5 351,-112.5"/>
<text text-anchor="middle" x="397" y="-119.5" font-family="Helvetica,sans-Serif" font-size="10.00">IRTTextControl.h</text>
</a>
</g>
</g>
<!-- Node1&#45;&gt;Node10 -->
<g id="edge14" class="edge"><title>Node1&#45;&gt;Node10</title>
<path fill="none" stroke="midnightblue" d="M1580.26,-177.047C1431.84,-176.887 896.083,-173.299 457,-132 452.491,-131.576 447.803,-131.04 443.125,-130.443"/>
<polygon fill="midnightblue" stroke="midnightblue" points="1580.26,-180.547 1590.27,-177.053 1580.27,-173.547 1580.26,-180.547"/>
</g>
<!-- Node11 -->
<g id="node11" class="node"><title>Node11</title>
<g id="a_node11"><a xlink:href="_i_corner_resizer_control_8h.html" target="_top" xlink:title="A control for resizing the plug&#45;in window by clicking and dragging in the bottom right&#45;hand corner Th...">
<polygon fill="white" stroke="black" points="517,-56.5 517,-75.5 639,-75.5 639,-56.5 517,-56.5"/>
<text text-anchor="middle" x="578" y="-63.5" font-family="Helvetica,sans-Serif" font-size="10.00">ICornerResizerControl.h</text>
</a>
</g>
</g>
<!-- Node1&#45;&gt;Node11 -->
<g id="edge16" class="edge"><title>Node1&#45;&gt;Node11</title>
<path fill="none" stroke="midnightblue" d="M1580.02,-177.008C1438.42,-176.687 961.428,-172.55 815,-132 796.607,-126.906 794.906,-118.606 777,-112 729.977,-94.6522 674.139,-82.7336 633.597,-75.5425"/>
<polygon fill="midnightblue" stroke="midnightblue" points="1580.39,-180.508 1590.39,-177.025 1580.4,-173.508 1580.39,-180.508"/>
</g>
<!-- Node12 -->
<g id="node12" class="node"><title>Node12</title>
<g id="a_node12"><a xlink:href="_i_f_p_s_display_control_8h.html" target="_top" xlink:title="Performance display meter, based on code from NanoVG This is a special control that lives outside the...">
<polygon fill="white" stroke="black" points="1065,-56.5 1065,-75.5 1177,-75.5 1177,-56.5 1065,-56.5"/>
<text text-anchor="middle" x="1121" y="-63.5" font-family="Helvetica,sans-Serif" font-size="10.00">IFPSDisplayControl.h</text>
</a>
</g>
</g>
<!-- Node1&#45;&gt;Node12 -->
<g id="edge18" class="edge"><title>Node1&#45;&gt;Node12</title>
<path fill="none" stroke="midnightblue" d="M1579.85,-176.617C1462.56,-175.085 1126.68,-167.599 1094,-132 1078.79,-115.438 1099.39,-89.1046 1112.19,-75.6023"/>
<polygon fill="midnightblue" stroke="midnightblue" points="1580.13,-180.121 1590.18,-176.744 1580.22,-173.121 1580.13,-180.121"/>
</g>
<!-- Node13 -->
<g id="node13" class="node"><title>Node13</title>
<g id="a_node13"><a xlink:href="_i_popup_menu_control_8h.html" target="_top" xlink:title="A base control for a pop&#45;up menu/drop&#45;down list that stays within the bounds of the IGraphics context...">
<polygon fill="white" stroke="black" points="867.5,-112.5 867.5,-131.5 978.5,-131.5 978.5,-112.5 867.5,-112.5"/>
<text text-anchor="middle" x="923" y="-119.5" font-family="Helvetica,sans-Serif" font-size="10.00">IPopupMenuControl.h</text>
</a>
</g>
</g>
<!-- Node1&#45;&gt;Node13 -->
<g id="edge20" class="edge"><title>Node1&#45;&gt;Node13</title>
<path fill="none" stroke="midnightblue" d="M1580.06,-174.915C1480.68,-169.556 1214.33,-154.154 993,-132 988.367,-131.536 983.567,-131.012 978.752,-130.455"/>
<polygon fill="midnightblue" stroke="midnightblue" points="1580.08,-178.421 1590.25,-175.46 1580.45,-171.431 1580.08,-178.421"/>
</g>
<!-- Node15 -->
<g id="node15" class="node"><title>Node15</title>
<g id="a_node15"><a xlink:href="_i_graphics_web_8cpp_source.html" target="_top" xlink:title="IGraphicsWeb.cpp">
<polygon fill="white" stroke="black" points="657,-56.5 657,-75.5 755,-75.5 755,-56.5 657,-56.5"/>
<text text-anchor="middle" x="706" y="-63.5" font-family="Helvetica,sans-Serif" font-size="10.00">IGraphicsWeb.cpp</text>
</a>
</g>
</g>
<!-- Node1&#45;&gt;Node15 -->
<g id="edge74" class="edge"><title>Node1&#45;&gt;Node15</title>
<path fill="none" stroke="midnightblue" d="M1579.98,-176.61C1443.44,-174.972 996.712,-167.001 858,-132 837.563,-126.843 834.301,-120.468 815,-112 784.816,-98.7574 749.486,-84.3729 727.421,-75.5207"/>
<polygon fill="midnightblue" stroke="midnightblue" points="1580.34,-180.114 1590.38,-176.73 1580.42,-173.115 1580.34,-180.114"/>
</g>
<!-- Node16 -->
<g id="node16" class="node"><title>Node16</title>
<g id="a_node16"><a xlink:href="_i_graphics_win_8cpp_source.html" target="_top" xlink:title="IGraphicsWin.cpp">
<polygon fill="white" stroke="black" points="951.5,-56.5 951.5,-75.5 1046.5,-75.5 1046.5,-56.5 951.5,-56.5"/>
<text text-anchor="middle" x="999" y="-63.5" font-family="Helvetica,sans-Serif" font-size="10.00">IGraphicsWin.cpp</text>
</a>
</g>
</g>
<!-- Node1&#45;&gt;Node16 -->
<g id="edge75" class="edge"><title>Node1&#45;&gt;Node16</title>
<path fill="none" stroke="midnightblue" d="M1580.29,-176.504C1472.34,-174.707 1175.56,-166.665 1085,-132 1052.14,-119.422 1021.16,-90.2631 1007.02,-75.6598"/>
<polygon fill="midnightblue" stroke="midnightblue" points="1580.37,-180.006 1590.43,-176.663 1580.48,-173.006 1580.37,-180.006"/>
</g>
<!-- Node17 -->
<g id="node17" class="node"><title>Node17</title>
<g id="a_node17"><a xlink:href="_i_text_entry_control_8h.html" target="_top" xlink:title="A Text entry widget drawn by IGraphics to optionally override platform text entries. ">
<polygon fill="white" stroke="black" points="1111,-112.5 1111,-131.5 1213,-131.5 1213,-112.5 1111,-112.5"/>
<text text-anchor="middle" x="1162" y="-119.5" font-family="Helvetica,sans-Serif" font-size="10.00">ITextEntryControl.h</text>
</a>
</g>
</g>
<!-- Node1&#45;&gt;Node17 -->
<g id="edge25" class="edge"><title>Node1&#45;&gt;Node17</title>
<path fill="none" stroke="midnightblue" d="M1580.13,-172.976C1508.38,-165.627 1352.83,-149.202 1222,-132 1219.08,-131.616 1216.07,-131.207 1213.05,-130.786"/>
<polygon fill="midnightblue" stroke="midnightblue" points="1580.19,-176.501 1590.5,-174.035 1580.9,-169.537 1580.19,-176.501"/>
</g>
<!-- Node22 -->
<g id="node22" class="node"><title>Node22</title>
<g id="a_node22"><a xlink:href="_test_animation_control_8h.html" target="_top" xlink:title="Control to test animation. ">
<polygon fill="white" stroke="black" points="2083.5,-112.5 2083.5,-131.5 2202.5,-131.5 2202.5,-112.5 2083.5,-112.5"/>
<text text-anchor="middle" x="2143" y="-119.5" font-family="Helvetica,sans-Serif" font-size="10.00">TestAnimationControl.h</text>
</a>
</g>
</g>
<!-- Node1&#45;&gt;Node22 -->
<g id="edge31" class="edge"><title>Node1&#45;&gt;Node22</title>
<path fill="none" stroke="midnightblue" d="M1659.5,-173.499C1738.36,-166.417 1920.94,-149.564 2074,-132 2077,-131.656 2080.07,-131.293 2083.17,-130.918"/>
<polygon fill="midnightblue" stroke="midnightblue" points="1659.16,-170.015 1649.51,-174.393 1659.79,-176.987 1659.16,-170.015"/>
</g>
<!-- Node24 -->
<g id="node24" class="node"><title>Node24</title>
<g id="a_node24"><a xlink:href="_test_arc_control_8h.html" target="_top" xlink:title="Control to test drawing arcs. ">
<polygon fill="white" stroke="black" points="2220.5,-112.5 2220.5,-131.5 2311.5,-131.5 2311.5,-112.5 2220.5,-112.5"/>
<text text-anchor="middle" x="2266" y="-119.5" font-family="Helvetica,sans-Serif" font-size="10.00">TestArcControl.h</text>
</a>
</g>
</g>
<!-- Node1&#45;&gt;Node24 -->
<g id="edge33" class="edge"><title>Node1&#45;&gt;Node24</title>
<path fill="none" stroke="midnightblue" d="M1659.66,-175.163C1754.95,-170.493 2004.19,-156.747 2211,-132 2214.07,-131.632 2217.24,-131.216 2220.42,-130.768"/>
<polygon fill="midnightblue" stroke="midnightblue" points="1659.42,-171.671 1649.61,-175.65 1659.76,-178.662 1659.42,-171.671"/>
</g>
<!-- Node25 -->
<g id="node25" class="node"><title>Node25</title>
<g id="a_node25"><a xlink:href="_test_blend_control_8h.html" target="_top" xlink:title="Control to test blend methods. ">
<polygon fill="white" stroke="black" points="2329.5,-112.5 2329.5,-131.5 2430.5,-131.5 2430.5,-112.5 2329.5,-112.5"/>
<text text-anchor="middle" x="2380" y="-119.5" font-family="Helvetica,sans-Serif" font-size="10.00">TestBlendControl.h</text>
</a>
</g>
</g>
<!-- Node1&#45;&gt;Node25 -->
<g id="edge35" class="edge"><title>Node1&#45;&gt;Node25</title>
<path fill="none" stroke="midnightblue" d="M1659.78,-175.624C1766.78,-171.667 2069.52,-158.789 2320,-132 2323.04,-131.675 2326.16,-131.308 2329.3,-130.913"/>
<polygon fill="midnightblue" stroke="midnightblue" points="1659.62,-172.127 1649.76,-175.989 1659.88,-179.122 1659.62,-172.127"/>
</g>
<!-- Node26 -->
<g id="node26" class="node"><title>Node26</title>
<g id="a_node26"><a xlink:href="_test_color_control_8h.html" target="_top" xlink:title="Control to colors. ">
<polygon fill="white" stroke="black" points="2448.5,-112.5 2448.5,-131.5 2547.5,-131.5 2547.5,-112.5 2448.5,-112.5"/>
<text text-anchor="middle" x="2498" y="-119.5" font-family="Helvetica,sans-Serif" font-size="10.00">TestColorControl.h</text>
</a>
</g>
</g>
<!-- Node1&#45;&gt;Node26 -->
<g id="edge37" class="edge"><title>Node1&#45;&gt;Node26</title>
<path fill="none" stroke="midnightblue" d="M1659.92,-176.171C1778.78,-173.409 2140.63,-162.881 2439,-132 2442.09,-131.68 2445.27,-131.311 2448.47,-130.91"/>
<polygon fill="midnightblue" stroke="midnightblue" points="1659.75,-172.674 1649.83,-176.4 1659.91,-179.672 1659.75,-172.674"/>
</g>
<!-- Node27 -->
<g id="node27" class="node"><title>Node27</title>
<g id="a_node27"><a xlink:href="_test_dir_browse_control_8h.html" target="_top" xlink:title="Control to test IDirBrowseControlBase. ">
<polygon fill="white" stroke="black" points="2566,-112.5 2566,-131.5 2688,-131.5 2688,-112.5 2566,-112.5"/>
<text text-anchor="middle" x="2627" y="-119.5" font-family="Helvetica,sans-Serif" font-size="10.00">TestDirBrowseControl.h</text>
</a>
</g>
</g>
<!-- Node1&#45;&gt;Node27 -->
<g id="edge39" class="edge"><title>Node1&#45;&gt;Node27</title>
<path fill="none" stroke="midnightblue" d="M1659.78,-176.198C1789.14,-173.352 2209.59,-162.237 2556,-132 2559.22,-131.719 2562.52,-131.402 2565.84,-131.06"/>
<polygon fill="midnightblue" stroke="midnightblue" points="1659.49,-172.703 1649.56,-176.419 1659.64,-179.702 1659.49,-172.703"/>
</g>
<!-- Node28 -->
<g id="node28" class="node"><title>Node28</title>
<g id="a_node28"><a xlink:href="_test_gradient_control_8h.html" target="_top" xlink:title="Control to test drawing gradients with path based drawing backends. ">
<polygon fill="white" stroke="black" points="2706.5,-112.5 2706.5,-131.5 2819.5,-131.5 2819.5,-112.5 2706.5,-112.5"/>
<text text-anchor="middle" x="2763" y="-119.5" font-family="Helvetica,sans-Serif" font-size="10.00">TestGradientControl.h</text>
</a>
</g>
</g>
<!-- Node1&#45;&gt;Node28 -->
<g id="edge41" class="edge"><title>Node1&#45;&gt;Node28</title>
<path fill="none" stroke="midnightblue" d="M1659.98,-176.68C1801.69,-175.261 2293.23,-167.886 2697,-132 2699.99,-131.734 2703.06,-131.429 2706.16,-131.096"/>
<polygon fill="midnightblue" stroke="midnightblue" points="1659.59,-173.184 1649.62,-176.78 1659.65,-180.184 1659.59,-173.184"/>
</g>
<!-- Node29 -->
<g id="node29" class="node"><title>Node29</title>
<g id="a_node29"><a xlink:href="_test_layer_control_8h.html" target="_top" xlink:title="Control to test IGraphics layers. ">
<polygon fill="white" stroke="black" points="2838,-112.5 2838,-131.5 2938,-131.5 2938,-112.5 2838,-112.5"/>
<text text-anchor="middle" x="2888" y="-119.5" font-family="Helvetica,sans-Serif" font-size="10.00">TestLayerControl.h</text>
</a>
</g>
</g>
<!-- Node1&#45;&gt;Node29 -->
<g id="edge43" class="edge"><title>Node1&#45;&gt;Node29</title>
<path fill="none" stroke="midnightblue" d="M1659.74,-177.128C1811.7,-177.278 2370.39,-174.709 2828,-132 2831.25,-131.697 2834.59,-131.335 2837.96,-130.933"/>
<polygon fill="midnightblue" stroke="midnightblue" points="1659.52,-173.628 1649.51,-177.113 1659.51,-180.628 1659.52,-173.628"/>
</g>
<!-- Node30 -->
<g id="node30" class="node"><title>Node30</title>
<g id="a_node30"><a xlink:href="_test_multi_path_control_8h.html" target="_top" xlink:title="Control to test drawing paths in path&#45;based drawing backends. ">
<polygon fill="white" stroke="black" points="2956.5,-112.5 2956.5,-131.5 3073.5,-131.5 3073.5,-112.5 2956.5,-112.5"/>
<text text-anchor="middle" x="3015" y="-119.5" font-family="Helvetica,sans-Serif" font-size="10.00">TestMultiPathControl.h</text>
</a>
</g>
</g>
<!-- Node1&#45;&gt;Node30 -->
<g id="edge45" class="edge"><title>Node1&#45;&gt;Node30</title>
<path fill="none" stroke="midnightblue" d="M1660.4,-177.067C1822.39,-177.034 2440.6,-173.997 2947,-132 2950.09,-131.744 2953.25,-131.447 2956.43,-131.121"/>
<polygon fill="midnightblue" stroke="midnightblue" points="1659.96,-173.567 1649.96,-177.065 1659.96,-180.567 1659.96,-173.567"/>
</g>
<!-- Node31 -->
<g id="node31" class="node"><title>Node31</title>
<g id="a_node31"><a xlink:href="_test_poly_control_8h.html" target="_top" xlink:title="Control to test drawing polygons. ">
<polygon fill="white" stroke="black" points="3091.5,-112.5 3091.5,-131.5 3186.5,-131.5 3186.5,-112.5 3091.5,-112.5"/>
<text text-anchor="middle" x="3139" y="-119.5" font-family="Helvetica,sans-Serif" font-size="10.00">TestPolyControl.h</text>
</a>
</g>
</g>
<!-- Node1&#45;&gt;Node31 -->
<g id="edge47" class="edge"><title>Node1&#45;&gt;Node31</title>
<path fill="none" stroke="midnightblue" d="M1659.82,-176.453C1863.94,-173.546 2794.5,-159.014 3082,-132 3085.09,-131.709 3088.27,-131.357 3091.47,-130.963"/>
<polygon fill="midnightblue" stroke="midnightblue" points="1659.52,-172.957 1649.57,-176.598 1659.62,-179.956 1659.52,-172.957"/>
</g>
<!-- Node32 -->
<g id="node32" class="node"><title>Node32</title>
<g id="a_node32"><a xlink:href="_test_text_control_8h.html" target="_top" xlink:title="Control to test drawing text. ">
<polygon fill="white" stroke="black" points="3204.5,-112.5 3204.5,-131.5 3299.5,-131.5 3299.5,-112.5 3204.5,-112.5"/>
<text text-anchor="middle" x="3252" y="-119.5" font-family="Helvetica,sans-Serif" font-size="10.00">TestTextControl.h</text>
</a>
</g>
</g>
<!-- Node1&#45;&gt;Node32 -->
<g id="edge49" class="edge"><title>Node1&#45;&gt;Node32</title>
<path fill="none" stroke="midnightblue" d="M1659.8,-176.555C1873.19,-174.061 2883.79,-160.896 3195,-132 3198.09,-131.713 3201.27,-131.363 3204.47,-130.971"/>
<polygon fill="midnightblue" stroke="midnightblue" points="1659.64,-173.056 1649.68,-176.672 1659.72,-180.056 1659.64,-173.056"/>
</g>
<!-- Node33 -->
<g id="node33" class="node"><title>Node33</title>
<g id="a_node33"><a xlink:href="_test_draw_context_control_8h.html" target="_top" xlink:title="Control to test obtaining a drawing API (NanoVG, LICE, Cairo, AGG etc) context and using that API wit...">
<polygon fill="white" stroke="black" points="3318,-112.5 3318,-131.5 3452,-131.5 3452,-112.5 3318,-112.5"/>
<text text-anchor="middle" x="3385" y="-119.5" font-family="Helvetica,sans-Serif" font-size="10.00">TestDrawContextControl.h</text>
</a>
</g>
</g>
<!-- Node1&#45;&gt;Node33 -->
<g id="edge51" class="edge"><title>Node1&#45;&gt;Node33</title>
<path fill="none" stroke="midnightblue" d="M1659.91,-177.256C1846.42,-178.176 2650.77,-179.075 3308,-132 3311.22,-131.769 3314.52,-131.503 3317.84,-131.209"/>
<polygon fill="midnightblue" stroke="midnightblue" points="1659.77,-173.756 1649.75,-177.203 1659.73,-180.755 1659.77,-173.756"/>
</g>
<!-- Node34 -->
<g id="node34" class="node"><title>Node34</title>
<g id="a_node34"><a xlink:href="_test_size_control_8h.html" target="_top" xlink:title="Control to display the size of a region. ">
<polygon fill="white" stroke="black" points="3470.5,-112.5 3470.5,-131.5 3565.5,-131.5 3565.5,-112.5 3470.5,-112.5"/>
<text text-anchor="middle" x="3518" y="-119.5" font-family="Helvetica,sans-Serif" font-size="10.00">TestSizeControl.h</text>
</a>
</g>
</g>
<!-- Node1&#45;&gt;Node34 -->
<g id="edge53" class="edge"><title>Node1&#45;&gt;Node34</title>
<path fill="none" stroke="midnightblue" d="M1659.61,-176.745C1893.27,-175.135 3093.71,-165.338 3461,-132 3464.09,-131.719 3467.27,-131.375 3470.47,-130.985"/>
<polygon fill="midnightblue" stroke="midnightblue" points="1659.51,-173.246 1649.53,-176.814 1659.56,-180.246 1659.51,-173.246"/>
</g>
<!-- Node35 -->
<g id="node35" class="node"><title>Node35</title>
<g id="a_node35"><a xlink:href="_test_s_v_g_control_8h.html" target="_top" xlink:title="Control to test drawing SVGs. ">
<polygon fill="white" stroke="black" points="3583.5,-112.5 3583.5,-131.5 3680.5,-131.5 3680.5,-112.5 3583.5,-112.5"/>
<text text-anchor="middle" x="3632" y="-119.5" font-family="Helvetica,sans-Serif" font-size="10.00">TestSVGControl.h</text>
</a>
</g>
</g>
<!-- Node1&#45;&gt;Node35 -->
<g id="edge55" class="edge"><title>Node1&#45;&gt;Node35</title>
<path fill="none" stroke="midnightblue" d="M1659.72,-176.795C1901.95,-175.437 3182.88,-166.699 3574,-132 3577.05,-131.73 3580.17,-131.399 3583.32,-131.027"/>
<polygon fill="midnightblue" stroke="midnightblue" points="1659.59,-173.296 1649.61,-176.851 1659.63,-180.295 1659.59,-173.296"/>
</g>
<!-- Node36 -->
<g id="node36" class="node"><title>Node36</title>
<g id="a_node36"><a xlink:href="_test_image_control_8h.html" target="_top" xlink:title="Control to test drawing bitmaps. ">
<polygon fill="white" stroke="black" points="1231.5,-112.5 1231.5,-131.5 1334.5,-131.5 1334.5,-112.5 1231.5,-112.5"/>
<text text-anchor="middle" x="1283" y="-119.5" font-family="Helvetica,sans-Serif" font-size="10.00">TestImageControl.h</text>
</a>
</g>
</g>
<!-- Node1&#45;&gt;Node36 -->
<g id="edge57" class="edge"><title>Node1&#45;&gt;Node36</title>
<path fill="none" stroke="midnightblue" d="M1580.38,-170.651C1519.34,-160.871 1402.31,-142.119 1334.69,-131.283"/>
<polygon fill="midnightblue" stroke="midnightblue" points="1579.96,-174.129 1590.39,-172.255 1581.07,-167.217 1579.96,-174.129"/>
</g>
<!-- Node37 -->
<g id="node37" class="node"><title>Node37</title>
<g id="a_node37"><a xlink:href="_test_drop_shadow_control_8h.html" target="_top" xlink:title="Control to test layer drop shadows. ">
<polygon fill="white" stroke="black" points="1353,-112.5 1353,-131.5 1485,-131.5 1485,-112.5 1353,-112.5"/>
<text text-anchor="middle" x="1419" y="-119.5" font-family="Helvetica,sans-Serif" font-size="10.00">TestDropShadowControl.h</text>
</a>
</g>
</g>
<!-- Node1&#45;&gt;Node37 -->
<g id="edge59" class="edge"><title>Node1&#45;&gt;Node37</title>
<path fill="none" stroke="midnightblue" d="M1580.64,-166.427C1542.68,-156.228 1485.95,-140.986 1450.77,-131.536"/>
<polygon fill="midnightblue" stroke="midnightblue" points="1579.78,-169.818 1590.34,-169.032 1581.59,-163.057 1579.78,-169.818"/>
</g>
<!-- Node38 -->
<g id="node38" class="node"><title>Node38</title>
<g id="a_node38"><a xlink:href="_test_cursor_control_8h.html" target="_top" xlink:title="Control to test changing the platform cursor. ">
<polygon fill="white" stroke="black" points="1503.5,-112.5 1503.5,-131.5 1608.5,-131.5 1608.5,-112.5 1503.5,-112.5"/>
<text text-anchor="middle" x="1556" y="-119.5" font-family="Helvetica,sans-Serif" font-size="10.00">TestCursorControl.h</text>
</a>
</g>
</g>
<!-- Node1&#45;&gt;Node38 -->
<g id="edge61" class="edge"><title>Node1&#45;&gt;Node38</title>
<path fill="none" stroke="midnightblue" d="M1602.01,-161.82C1590.54,-152.145 1576.09,-139.948 1566.47,-131.834"/>
<polygon fill="midnightblue" stroke="midnightblue" points="1599.82,-164.55 1609.72,-168.324 1604.33,-159.2 1599.82,-164.55"/>
</g>
<!-- Node39 -->
<g id="node39" class="node"><title>Node39</title>
<g id="a_node39"><a xlink:href="_test_keyboard_control_8h.html" target="_top" xlink:title="Control to test keyboard input. ">
<polygon fill="white" stroke="black" points="1626.5,-112.5 1626.5,-131.5 1743.5,-131.5 1743.5,-112.5 1626.5,-112.5"/>
<text text-anchor="middle" x="1685" y="-119.5" font-family="Helvetica,sans-Serif" font-size="10.00">TestKeyboardControl.h</text>
</a>
</g>
</g>
<!-- Node1&#45;&gt;Node39 -->
<g id="edge63" class="edge"><title>Node1&#45;&gt;Node39</title>
<path fill="none" stroke="midnightblue" d="M1638.27,-161.82C1649.92,-152.145 1664.6,-139.948 1674.37,-131.834"/>
<polygon fill="midnightblue" stroke="midnightblue" points="1635.9,-159.242 1630.44,-168.324 1640.37,-164.626 1635.9,-159.242"/>
</g>
<!-- Node40 -->
<g id="node40" class="node"><title>Node40</title>
<g id="a_node40"><a xlink:href="_test_rotating_mask_control_8h_source.html" target="_top" xlink:title="TestRotatingMaskControl.h">
<polygon fill="white" stroke="black" points="1761.5,-112.5 1761.5,-131.5 1898.5,-131.5 1898.5,-112.5 1761.5,-112.5"/>
<text text-anchor="middle" x="1830" y="-119.5" font-family="Helvetica,sans-Serif" font-size="10.00">TestRotatingMaskControl.h</text>
</a>
</g>
</g>
<!-- Node1&#45;&gt;Node40 -->
<g id="edge65" class="edge"><title>Node1&#45;&gt;Node40</title>
<path fill="none" stroke="midnightblue" d="M1659.49,-166.846C1699.1,-156.66 1759.43,-141.146 1796.7,-131.564"/>
<polygon fill="midnightblue" stroke="midnightblue" points="1658.46,-163.497 1649.64,-169.378 1660.2,-170.277 1658.46,-163.497"/>
</g>
<!-- Node41 -->
<g id="node41" class="node"><title>Node41</title>
<g id="a_node41"><a xlink:href="_test_shadow_gradient_control_8h.html" target="_top" xlink:title="Control to test drawing shadows with gradients. ">
<polygon fill="white" stroke="black" points="1917,-112.5 1917,-131.5 2065,-131.5 2065,-112.5 1917,-112.5"/>
<text text-anchor="middle" x="1991" y="-119.5" font-family="Helvetica,sans-Serif" font-size="10.00">TestShadowGradientControl.h</text>
</a>
</g>
</g>
<!-- Node1&#45;&gt;Node41 -->
<g id="edge67" class="edge"><title>Node1&#45;&gt;Node41</title>
<path fill="none" stroke="midnightblue" d="M1659.66,-171.228C1725.12,-161.7 1856.1,-142.635 1932.31,-131.542"/>
<polygon fill="midnightblue" stroke="midnightblue" points="1659.12,-167.768 1649.73,-172.672 1660.13,-174.695 1659.12,-167.768"/>
</g>
<!-- Node42 -->
<g id="node42" class="node"><title>Node42</title>
<g id="a_node42"><a xlink:href="_i_control_8cpp_source.html" target="_top" xlink:title="IControl.cpp">
<polygon fill="white" stroke="black" points="3699,-112.5 3699,-131.5 3769,-131.5 3769,-112.5 3699,-112.5"/>
<text text-anchor="middle" x="3734" y="-119.5" font-family="Helvetica,sans-Serif" font-size="10.00">IControl.cpp</text>
</a>
</g>
</g>
<!-- Node1&#45;&gt;Node42 -->
<g id="edge69" class="edge"><title>Node1&#45;&gt;Node42</title>
<path fill="none" stroke="midnightblue" d="M1659.68,-177.088C1910.13,-177.503 3274.43,-177.607 3689,-132 3692.17,-131.652 3695.44,-131.192 3698.72,-130.665"/>
<polygon fill="midnightblue" stroke="midnightblue" points="1659.59,-173.588 1649.59,-177.07 1659.58,-180.588 1659.59,-173.588"/>
</g>
<!-- Node43 -->
<g id="node43" class="node"><title>Node43</title>
<g id="a_node43"><a xlink:href="_i_graphics_live_edit_8h.html" target="_top" xlink:title="A control to enable live modification of control layout in an IGraphics context in debug builds This ...">
<polygon fill="white" stroke="black" points="1195,-56.5 1195,-75.5 1297,-75.5 1297,-56.5 1195,-56.5"/>
<text text-anchor="middle" x="1246" y="-63.5" font-family="Helvetica,sans-Serif" font-size="10.00">IGraphicsLiveEdit.h</text>
</a>
</g>
</g>
<!-- Node1&#45;&gt;Node43 -->
<g id="edge71" class="edge"><title>Node1&#45;&gt;Node43</title>
<path fill="none" stroke="midnightblue" d="M1580.06,-176.563C1464.18,-174.885 1134.13,-167.043 1102,-132 1095.99,-125.448 1096.73,-119.162 1102,-112 1113.67,-96.1201 1161.39,-83.3588 1198.74,-75.5376"/>
<polygon fill="midnightblue" stroke="midnightblue" points="1580.22,-180.066 1590.27,-176.703 1580.31,-173.066 1580.22,-180.066"/>
</g>
<!-- Node44 -->
<g id="node44" class="node"><title>Node44</title>
<g id="a_node44"><a xlink:href="_i_graphics_editor_delegate_8cpp_source.html" target="_top" xlink:title="IGraphicsEditorDelegate.cpp">
<polygon fill="white" stroke="black" points="3787,-112.5 3787,-131.5 3929,-131.5 3929,-112.5 3787,-112.5"/>
<text text-anchor="middle" x="3858" y="-119.5" font-family="Helvetica,sans-Serif" font-size="10.00">IGraphicsEditorDelegate.cpp</text>
</a>
</g>
</g>
<!-- Node1&#45;&gt;Node44 -->
<g id="edge73" class="edge"><title>Node1&#45;&gt;Node44</title>
<path fill="none" stroke="midnightblue" d="M1660.11,-176.664C1917.78,-174.431 3343.27,-160.926 3778,-132 3780.93,-131.805 3783.92,-131.582 3786.93,-131.336"/>
<polygon fill="midnightblue" stroke="midnightblue" points="1659.71,-173.167 1649.74,-176.753 1659.77,-180.167 1659.71,-173.167"/>
</g>
<!-- Node2&#45;&gt;Node3 -->
<g id="edge2" class="edge"><title>Node2&#45;&gt;Node3</title>
<path fill="none" stroke="midnightblue" d="M522.071,-108.772C495.586,-98.6287 458.608,-84.4669 435.237,-75.5164"/>
<polygon fill="midnightblue" stroke="midnightblue" points="521.068,-112.136 531.658,-112.444 523.571,-105.599 521.068,-112.136"/>
</g>
<!-- Node4 -->
<g id="node4" class="node"><title>Node4</title>
<g id="a_node4"><a xlink:href="_i_controls_8cpp.html" target="_top" xlink:title="IControls implementation. ">
<polygon fill="white" stroke="black" points="375.5,-0.5 375.5,-19.5 450.5,-19.5 450.5,-0.5 375.5,-0.5"/>
<text text-anchor="middle" x="413" y="-7.5" font-family="Helvetica,sans-Serif" font-size="10.00">IControls.cpp</text>
</a>
</g>
</g>
<!-- Node3&#45;&gt;Node4 -->
<g id="edge3" class="edge"><title>Node3&#45;&gt;Node4</title>
<path fill="none" stroke="midnightblue" d="M413,-45.8045C413,-36.9102 413,-26.7798 413,-19.7511"/>
<polygon fill="midnightblue" stroke="midnightblue" points="409.5,-46.083 413,-56.083 416.5,-46.083 409.5,-46.083"/>
</g>
<!-- Node3&#45;&gt;Node5 -->
<g id="edge4" class="edge"><title>Node3&#45;&gt;Node5</title>
<path fill="none" stroke="midnightblue" d="M455.741,-58.5442C462.189,-57.6432 468.765,-56.7652 475,-56 626.1,-37.4534 806.574,-21.0824 884.284,-14.3103"/>
<polygon fill="midnightblue" stroke="midnightblue" points="455.189,-55.0874 445.784,-59.9659 456.178,-62.0172 455.189,-55.0874"/>
</g>
<!-- Node6&#45;&gt;Node3 -->
<g id="edge7" class="edge"><title>Node6&#45;&gt;Node3</title>
<path fill="none" stroke="midnightblue" d="M628.409,-110.403C574.097,-99.4599 491.053,-82.7271 445.572,-73.5631"/>
<polygon fill="midnightblue" stroke="midnightblue" points="628.04,-113.899 638.535,-112.444 629.423,-107.037 628.04,-113.899"/>
</g>
<!-- Node7&#45;&gt;Node3 -->
<g id="edge9" class="edge"><title>Node7&#45;&gt;Node3</title>
<path fill="none" stroke="midnightblue" d="M100.75,-111.911C209.279,-95.3057 324.725,-79.1636 380.073,-71.5198"/>
<polygon fill="midnightblue" stroke="midnightblue" points="99.9611,-108.491 90.6077,-113.467 101.023,-115.41 99.9611,-108.491"/>
</g>
<!-- Node8&#45;&gt;Node3 -->
<g id="edge11" class="edge"><title>Node8&#45;&gt;Node3</title>
<path fill="none" stroke="midnightblue" d="M206.643,-110.359C258.117,-99.5434 336.346,-83.1062 380.215,-73.8886"/>
<polygon fill="midnightblue" stroke="midnightblue" points="205.789,-106.962 196.722,-112.444 207.228,-113.812 205.789,-106.962"/>
</g>
<!-- Node9&#45;&gt;Node3 -->
<g id="edge13" class="edge"><title>Node9&#45;&gt;Node3</title>
<path fill="none" stroke="midnightblue" d="M308.135,-108.638C333.657,-98.504 369.109,-84.4274 391.551,-75.5164"/>
<polygon fill="midnightblue" stroke="midnightblue" points="306.552,-105.5 298.55,-112.444 309.135,-112.006 306.552,-105.5"/>
</g>
<!-- Node10&#45;&gt;Node3 -->
<g id="edge15" class="edge"><title>Node10&#45;&gt;Node3</title>
<path fill="none" stroke="midnightblue" d="M402.512,-102.396C405.189,-93.362 408.278,-82.936 410.407,-75.7511"/>
<polygon fill="midnightblue" stroke="midnightblue" points="399.127,-101.501 399.642,-112.083 405.839,-103.489 399.127,-101.501"/>
</g>
<!-- Node11&#45;&gt;Node5 -->
<g id="edge17" class="edge"><title>Node11&#45;&gt;Node5</title>
<path fill="none" stroke="midnightblue" d="M642.842,-54.8508C713.885,-43.731 825.515,-26.2586 884.114,-17.0865"/>
<polygon fill="midnightblue" stroke="midnightblue" points="642.005,-51.4392 632.666,-56.4435 643.087,-58.355 642.005,-51.4392"/>
</g>
<!-- Node12&#45;&gt;Node5 -->
<g id="edge19" class="edge"><title>Node12&#45;&gt;Node5</title>
<path fill="none" stroke="midnightblue" d="M1079.56,-53.6986C1042.19,-43.507 988.057,-28.7429 954.227,-19.5164"/>
<polygon fill="midnightblue" stroke="midnightblue" points="1079.06,-57.189 1089.63,-56.4435 1080.9,-50.4356 1079.06,-57.189"/>
</g>
<!-- Node13&#45;&gt;Node5 -->
<g id="edge22" class="edge"><title>Node13&#45;&gt;Node5</title>
<path fill="none" stroke="midnightblue" d="M923,-102.348C923,-78.2538 923,-37.3079 923,-19.5914"/>
<polygon fill="midnightblue" stroke="midnightblue" points="919.5,-102.368 923,-112.368 926.5,-102.369 919.5,-102.368"/>
</g>
<!-- Node14 -->
<g id="node14" class="node"><title>Node14</title>
<g id="a_node14"><a xlink:href="_i_popup_menu_control_8cpp.html" target="_top" xlink:title="IPopupMenuControl implementation. ">
<polygon fill="white" stroke="black" points="773,-56.5 773,-75.5 895,-75.5 895,-56.5 773,-56.5"/>
<text text-anchor="middle" x="834" y="-63.5" font-family="Helvetica,sans-Serif" font-size="10.00">IPopupMenuControl.cpp</text>
</a>
</g>
</g>
<!-- Node13&#45;&gt;Node14 -->
<g id="edge21" class="edge"><title>Node13&#45;&gt;Node14</title>
<path fill="none" stroke="midnightblue" d="M899.762,-106.901C883.442,-96.9986 862.135,-84.0705 848.264,-75.6545"/>
<polygon fill="midnightblue" stroke="midnightblue" points="898.336,-110.129 908.701,-112.324 901.967,-104.144 898.336,-110.129"/>
</g>
<!-- Node13&#45;&gt;Node15 -->
<g id="edge23" class="edge"><title>Node13&#45;&gt;Node15</title>
<path fill="none" stroke="midnightblue" d="M878.892,-110.024C837.9,-99.8232 777.696,-84.8414 740.223,-75.5164"/>
<polygon fill="midnightblue" stroke="midnightblue" points="878.066,-113.425 888.616,-112.444 879.757,-106.632 878.066,-113.425"/>
</g>
<!-- Node13&#45;&gt;Node16 -->
<g id="edge24" class="edge"><title>Node13&#45;&gt;Node16</title>
<path fill="none" stroke="midnightblue" d="M943.576,-106.38C957.312,-96.6204 974.925,-84.1057 986.567,-75.8339"/>
<polygon fill="midnightblue" stroke="midnightblue" points="941.335,-103.679 935.211,-112.324 945.39,-109.385 941.335,-103.679"/>
</g>
<!-- Node17&#45;&gt;Node5 -->
<g id="edge30" class="edge"><title>Node17&#45;&gt;Node5</title>
<path fill="none" stroke="midnightblue" d="M1218.35,-110.364C1253.64,-102.429 1294.38,-90.4819 1305,-76 1310.26,-68.8331 1310.91,-62.6429 1305,-56 1282.43,-30.6109 1054.36,-17.1509 961.76,-12.6981"/>
<polygon fill="midnightblue" stroke="midnightblue" points="1217.6,-106.947 1208.57,-112.495 1219.09,-113.786 1217.6,-106.947"/>
</g>
<!-- Node18 -->
<g id="node18" class="node"><title>Node18</title>
<g id="a_node18"><a xlink:href="_i_text_entry_control_8cpp.html" target="_top" xlink:title="ITextEntryControl implementation. ">
<polygon fill="white" stroke="black" points="1353.5,-56.5 1353.5,-75.5 1466.5,-75.5 1466.5,-56.5 1353.5,-56.5"/>
<text text-anchor="middle" x="1410" y="-63.5" font-family="Helvetica,sans-Serif" font-size="10.00">ITextEntryControl.cpp</text>
</a>
</g>
</g>
<!-- Node17&#45;&gt;Node18 -->
<g id="edge26" class="edge"><title>Node17&#45;&gt;Node18</title>
<path fill="none" stroke="midnightblue" d="M1211.23,-110.281C1258.09,-100.077 1327.7,-84.9203 1370.89,-75.5164"/>
<polygon fill="midnightblue" stroke="midnightblue" points="1210.32,-106.896 1201.3,-112.444 1211.81,-113.736 1210.32,-106.896"/>
</g>
<!-- Node19 -->
<g id="node19" class="node"><title>Node19</title>
<g id="a_node19"><a xlink:href="_i_graphics_cairo_8cpp_source.html" target="_top" xlink:title="IGraphicsCairo.cpp">
<polygon fill="white" stroke="black" points="1484.5,-56.5 1484.5,-75.5 1585.5,-75.5 1585.5,-56.5 1484.5,-56.5"/>
<text text-anchor="middle" x="1535" y="-63.5" font-family="Helvetica,sans-Serif" font-size="10.00">IGraphicsCairo.cpp</text>
</a>
</g>
</g>
<!-- Node17&#45;&gt;Node19 -->
<g id="edge27" class="edge"><title>Node17&#45;&gt;Node19</title>
<path fill="none" stroke="midnightblue" d="M1223.15,-111.842C1336.05,-95.3867 1365.8,-91.959 1475,-76 1478.02,-75.5583 1481.13,-75.1011 1484.26,-74.6377"/>
<polygon fill="midnightblue" stroke="midnightblue" points="1222.45,-108.406 1213.06,-113.314 1223.46,-115.333 1222.45,-108.406"/>
</g>
<!-- Node20 -->
<g id="node20" class="node"><title>Node20</title>
<g id="a_node20"><a xlink:href="_i_graphics_lice_8cpp_source.html" target="_top" xlink:title="IGraphicsLice.cpp">
<polygon fill="white" stroke="black" points="1603.5,-56.5 1603.5,-75.5 1698.5,-75.5 1698.5,-56.5 1603.5,-56.5"/>
<text text-anchor="middle" x="1651" y="-63.5" font-family="Helvetica,sans-Serif" font-size="10.00">IGraphicsLice.cpp</text>
</a>
</g>
</g>
<!-- Node17&#45;&gt;Node20 -->
<g id="edge28" class="edge"><title>Node17&#45;&gt;Node20</title>
<path fill="none" stroke="midnightblue" d="M1223.07,-111.93C1388.56,-91.8695 1432.44,-96.5532 1594,-76 1597.08,-75.6081 1600.25,-75.1791 1603.44,-74.7277"/>
<polygon fill="midnightblue" stroke="midnightblue" points="1222.54,-108.469 1213.04,-113.158 1223.39,-115.417 1222.54,-108.469"/>
</g>
<!-- Node21 -->
<g id="node21" class="node"><title>Node21</title>
<g id="a_node21"><a xlink:href="_i_graphics_nano_v_g_8cpp_source.html" target="_top" xlink:title="IGraphicsNanoVG.cpp">
<polygon fill="white" stroke="black" points="1716.5,-56.5 1716.5,-75.5 1831.5,-75.5 1831.5,-56.5 1716.5,-56.5"/>
<text text-anchor="middle" x="1774" y="-63.5" font-family="Helvetica,sans-Serif" font-size="10.00">IGraphicsNanoVG.cpp</text>
</a>
</g>
</g>
<!-- Node17&#45;&gt;Node21 -->
<g id="edge29" class="edge"><title>Node17&#45;&gt;Node21</title>
<path fill="none" stroke="midnightblue" d="M1223.08,-111.963C1438.51,-88.2601 1495.27,-98.0591 1707,-76 1710.04,-75.6838 1713.14,-75.339 1716.28,-74.9746"/>
<polygon fill="midnightblue" stroke="midnightblue" points="1222.58,-108.497 1213.03,-113.08 1223.35,-115.454 1222.58,-108.497"/>
</g>
<!-- Node23 -->
<g id="node23" class="node"><title>Node23</title>
<g id="a_node23"><a xlink:href="_test_controls_8h.html" target="_top" xlink:title="Include all the test controls. ">
<polygon fill="white" stroke="black" points="2457.5,-56.5 2457.5,-75.5 2538.5,-75.5 2538.5,-56.5 2457.5,-56.5"/>
<text text-anchor="middle" x="2498" y="-63.5" font-family="Helvetica,sans-Serif" font-size="10.00">TestControls.h</text>
</a>
</g>
</g>
<!-- Node22&#45;&gt;Node23 -->
<g id="edge32" class="edge"><title>Node22&#45;&gt;Node23</title>
<path fill="none" stroke="midnightblue" d="M2209.25,-110.923C2282.12,-99.8387 2396.9,-82.378 2457.47,-73.1649"/>
<polygon fill="midnightblue" stroke="midnightblue" points="2208.61,-107.479 2199.25,-112.444 2209.66,-114.4 2208.61,-107.479"/>
</g>
<!-- Node24&#45;&gt;Node23 -->
<g id="edge34" class="edge"><title>Node24&#45;&gt;Node23</title>
<path fill="none" stroke="midnightblue" d="M2312.6,-110.153C2356.44,-99.95 2421.18,-84.8809 2461.41,-75.5164"/>
<polygon fill="midnightblue" stroke="midnightblue" points="2311.71,-106.768 2302.76,-112.444 2313.29,-113.585 2311.71,-106.768"/>
</g>
<!-- Node25&#45;&gt;Node23 -->
<g id="edge36" class="edge"><title>Node25&#45;&gt;Node23</title>
<path fill="none" stroke="midnightblue" d="M2407.9,-108.232C2429.97,-98.1312 2460.18,-84.3091 2479.39,-75.5164"/>
<polygon fill="midnightblue" stroke="midnightblue" points="2406.33,-105.1 2398.7,-112.444 2409.25,-111.465 2406.33,-105.1"/>
</g>
<!-- Node26&#45;&gt;Node23 -->
<g id="edge38" class="edge"><title>Node26&#45;&gt;Node23</title>
<path fill="none" stroke="midnightblue" d="M2498,-101.805C2498,-92.9102 2498,-82.7798 2498,-75.7511"/>
<polygon fill="midnightblue" stroke="midnightblue" points="2494.5,-102.083 2498,-112.083 2501.5,-102.083 2494.5,-102.083"/>
</g>
<!-- Node27&#45;&gt;Node23 -->
<g id="edge40" class="edge"><title>Node27&#45;&gt;Node23</title>
<path fill="none" stroke="midnightblue" d="M2597.15,-108.503C2572.96,-98.3795 2539.54,-84.388 2518.34,-75.5164"/>
<polygon fill="midnightblue" stroke="midnightblue" points="2595.98,-111.811 2606.56,-112.444 2598.69,-105.354 2595.98,-111.811"/>
</g>
<!-- Node28&#45;&gt;Node23 -->
<g id="edge42" class="edge"><title>Node28&#45;&gt;Node23</title>
<path fill="none" stroke="midnightblue" d="M2710.97,-110.397C2660.57,-100.128 2585.18,-84.764 2538.92,-75.339"/>
<polygon fill="midnightblue" stroke="midnightblue" points="2710.51,-113.876 2721.01,-112.444 2711.91,-107.017 2710.51,-113.876"/>
</g>
<!-- Node29&#45;&gt;Node23 -->
<g id="edge44" class="edge"><title>Node29&#45;&gt;Node23</title>
<path fill="none" stroke="midnightblue" d="M2828.3,-112.043C2828.2,-112.029 2828.1,-112.014 2828,-112 2723.83,-97.0849 2600.98,-80.6328 2538.67,-72.3676"/>
<polygon fill="midnightblue" stroke="midnightblue" points="2827.52,-115.466 2837.92,-113.436 2828.52,-108.539 2827.52,-115.466"/>
</g>
<!-- Node30&#45;&gt;Node23 -->
<g id="edge46" class="edge"><title>Node30&#45;&gt;Node23</title>
<path fill="none" stroke="midnightblue" d="M2946.08,-111.929C2788.96,-93.8023 2615.72,-77.6323 2538.6,-70.6344"/>
<polygon fill="midnightblue" stroke="midnightblue" points="2946.07,-115.451 2956.41,-113.125 2946.88,-108.497 2946.07,-115.451"/>
</g>
<!-- Node31&#45;&gt;Node23 -->
<g id="edge48" class="edge"><title>Node31&#45;&gt;Node23</title>
<path fill="none" stroke="midnightblue" d="M3081.46,-112.036C2871.14,-87.7204 2632.66,-73.9153 2538.82,-69.0233"/>
<polygon fill="midnightblue" stroke="midnightblue" points="3081.12,-115.52 3091.45,-113.202 3081.93,-108.567 3081.12,-115.52"/>
</g>
<!-- Node32&#45;&gt;Node23 -->
<g id="edge50" class="edge"><title>Node32&#45;&gt;Node23</title>
<path fill="none" stroke="midnightblue" d="M3194.23,-112.029C2938.54,-84.0873 2644.55,-72.0183 2538.58,-68.3121"/>
<polygon fill="midnightblue" stroke="midnightblue" points="3194.13,-115.54 3204.46,-113.158 3194.9,-108.582 3194.13,-115.54"/>
</g>
<!-- Node33&#45;&gt;Node23 -->
<g id="edge52" class="edge"><title>Node33&#45;&gt;Node23</title>
<path fill="none" stroke="midnightblue" d="M3307.55,-112.024C3005.35,-86.3032 2655.71,-72.5495 2538.52,-68.378"/>
<polygon fill="midnightblue" stroke="midnightblue" points="3307.57,-115.539 3317.83,-112.905 3308.17,-108.564 3307.57,-115.539"/>
</g>
<!-- Node34&#45;&gt;Node23 -->
<g id="edge54" class="edge"><title>Node34&#45;&gt;Node23</title>
<path fill="none" stroke="midnightblue" d="M3460.28,-112.061C3097.09,-75.5672 2670.92,-68.6327 2538.95,-67.3061"/>
<polygon fill="midnightblue" stroke="midnightblue" points="3460.16,-115.567 3470.47,-113.094 3460.87,-108.603 3460.16,-115.567"/>
</g>
<!-- Node35&#45;&gt;Node23 -->
<g id="edge56" class="edge"><title>Node35&#45;&gt;Node23</title>
<path fill="none" stroke="midnightblue" d="M3573.35,-112.067C3163.74,-72.4137 2680.1,-67.6161 2538.67,-67.0603"/>
<polygon fill="midnightblue" stroke="midnightblue" points="3573.02,-115.552 3583.32,-113.04 3573.7,-108.585 3573.02,-115.552"/>
</g>
<!-- Node36&#45;&gt;Node23 -->
<g id="edge58" class="edge"><title>Node36&#45;&gt;Node23</title>
<path fill="none" stroke="midnightblue" d="M1344.63,-112.065C1786.46,-71.5328 2309.34,-67.3642 2457.27,-67.0067"/>
<polygon fill="midnightblue" stroke="midnightblue" points="1344.17,-108.592 1334.54,-112.998 1344.82,-115.562 1344.17,-108.592"/>
</g>
<!-- Node37&#45;&gt;Node23 -->
<g id="edge60" class="edge"><title>Node37&#45;&gt;Node23</title>
<path fill="none" stroke="midnightblue" d="M1495.32,-111.955C1875.38,-81.0784 2322.06,-70.4061 2457.29,-67.7348"/>
<polygon fill="midnightblue" stroke="midnightblue" points="1494.91,-108.477 1485.23,-112.781 1495.48,-115.454 1494.91,-108.477"/>
</g>
<!-- Node38&#45;&gt;Node23 -->
<g id="edge62" class="edge"><title>Node38&#45;&gt;Node23</title>
<path fill="none" stroke="midnightblue" d="M1618.74,-111.919C1947.72,-79.8232 2332.61,-70.133 2457.06,-67.7027"/>
<polygon fill="midnightblue" stroke="midnightblue" points="1618.14,-108.461 1608.53,-112.924 1618.83,-115.428 1618.14,-108.461"/>
</g>
<!-- Node39&#45;&gt;Node23 -->
<g id="edge64" class="edge"><title>Node39&#45;&gt;Node23</title>
<path fill="none" stroke="midnightblue" d="M1753.96,-111.873C2028.51,-85.5671 2346.58,-72.4526 2457.49,-68.3993"/>
<polygon fill="midnightblue" stroke="midnightblue" points="1753.41,-108.408 1743.8,-112.854 1754.09,-115.376 1753.41,-108.408"/>
</g>
<!-- Node40&#45;&gt;Node23 -->
<g id="edge66" class="edge"><title>Node40&#45;&gt;Node23</title>
<path fill="none" stroke="midnightblue" d="M1909,-111.94C2121.74,-91.7473 2362.76,-75.6204 2457.18,-69.5664"/>
<polygon fill="midnightblue" stroke="midnightblue" points="1908.51,-108.471 1898.89,-112.905 1909.18,-115.439 1908.51,-108.471"/>
</g>
<!-- Node41&#45;&gt;Node23 -->
<g id="edge68" class="edge"><title>Node41&#45;&gt;Node23</title>
<path fill="none" stroke="midnightblue" d="M2075.35,-111.963C2222.89,-96.2153 2383.82,-79.1203 2457.46,-71.3025"/>
<polygon fill="midnightblue" stroke="midnightblue" points="2074.78,-108.505 2065.2,-113.047 2075.52,-115.465 2074.78,-108.505"/>
</g>
<!-- Node43&#45;&gt;Node5 -->
<g id="edge72" class="edge"><title>Node43&#45;&gt;Node5</title>
<path fill="none" stroke="midnightblue" d="M1184.62,-54.7379C1119.02,-43.7718 1017.04,-26.7223 961.776,-17.4826"/>
<polygon fill="midnightblue" stroke="midnightblue" points="1184.38,-58.2466 1194.82,-56.4435 1185.53,-51.3424 1184.38,-58.2466"/>
</g>
</g>
</svg>
