<?xml version="1.0" encoding="UTF-8" standalone="no"?>
<!DOCTYPE svg PUBLIC "-//W3C//DTD SVG 1.1//EN"
 "http://www.w3.org/Graphics/SVG/1.1/DTD/svg11.dtd">
<!-- Generated by graphviz version 2.36.0 (20140111.2315)
 -->
<!-- Title: IGraphicsPathBase.h Pages: 1 -->
<svg width="487pt" height="140pt"
 viewBox="0.00 0.00 487.00 140.00" xmlns="http://www.w3.org/2000/svg" xmlns:xlink="http://www.w3.org/1999/xlink">
<g id="graph0" class="graph" transform="scale(1 1) rotate(0) translate(4 136)">
<title>IGraphicsPathBase.h</title>
<polygon fill="white" stroke="none" points="-4,4 -4,-136 483,-136 483,4 -4,4"/>
<!-- Node1 -->
<g id="node1" class="node"><title>Node1</title>
<polygon fill="#bfbfbf" stroke="black" points="173,-112.5 173,-131.5 283,-131.5 283,-112.5 173,-112.5"/>
<text text-anchor="middle" x="228" y="-119.5" font-family="Helvetica,sans-Serif" font-size="10.00">IGraphicsPathBase.h</text>
</g>
<!-- Node2 -->
<g id="node2" class="node"><title>Node2</title>
<g id="a_node2"><a xlink:href="_i_graphics_a_g_g_8h_source.html" target="_top" xlink:title="IGraphicsAGG.h">
<polygon fill="white" stroke="black" points="9.5,-56.5 9.5,-75.5 98.5,-75.5 98.5,-56.5 9.5,-56.5"/>
<text text-anchor="middle" x="54" y="-63.5" font-family="Helvetica,sans-Serif" font-size="10.00">IGraphicsAGG.h</text>
</a>
</g>
</g>
<!-- Node1&#45;&gt;Node2 -->
<g id="edge1" class="edge"><title>Node1&#45;&gt;Node2</title>
<path fill="none" stroke="midnightblue" d="M190.739,-109.436C157.933,-99.2551 110.917,-84.664 81.4418,-75.5164"/>
<polygon fill="midnightblue" stroke="midnightblue" points="189.841,-112.822 200.429,-112.444 191.916,-106.137 189.841,-112.822"/>
</g>
<!-- Node4 -->
<g id="node4" class="node"><title>Node4</title>
<g id="a_node4"><a xlink:href="_i_graphics_cairo_8h_source.html" target="_top" xlink:title="IGraphicsCairo.h">
<polygon fill="white" stroke="black" points="124,-56.5 124,-75.5 214,-75.5 214,-56.5 124,-56.5"/>
<text text-anchor="middle" x="169" y="-63.5" font-family="Helvetica,sans-Serif" font-size="10.00">IGraphicsCairo.h</text>
</a>
</g>
</g>
<!-- Node1&#45;&gt;Node4 -->
<g id="edge3" class="edge"><title>Node1&#45;&gt;Node4</title>
<path fill="none" stroke="midnightblue" d="M211.105,-105.537C200.585,-95.9087 187.431,-83.8694 178.652,-75.8339"/>
<polygon fill="midnightblue" stroke="midnightblue" points="208.781,-108.154 218.521,-112.324 213.507,-102.99 208.781,-108.154"/>
</g>
<!-- Node6 -->
<g id="node6" class="node"><title>Node6</title>
<g id="a_node6"><a xlink:href="_i_graphics_canvas_8h_source.html" target="_top" xlink:title="IGraphicsCanvas.h">
<polygon fill="white" stroke="black" points="237.5,-56.5 237.5,-75.5 338.5,-75.5 338.5,-56.5 237.5,-56.5"/>
<text text-anchor="middle" x="288" y="-63.5" font-family="Helvetica,sans-Serif" font-size="10.00">IGraphicsCanvas.h</text>
</a>
</g>
</g>
<!-- Node1&#45;&gt;Node6 -->
<g id="edge5" class="edge"><title>Node1&#45;&gt;Node6</title>
<path fill="none" stroke="midnightblue" d="M245.181,-105.537C255.879,-95.9087 269.256,-83.8694 278.185,-75.8339"/>
<polygon fill="midnightblue" stroke="midnightblue" points="242.732,-103.033 237.64,-112.324 247.414,-108.236 242.732,-103.033"/>
</g>
<!-- Node8 -->
<g id="node8" class="node"><title>Node8</title>
<g id="a_node8"><a xlink:href="_i_graphics_nano_v_g_8h_source.html" target="_top" xlink:title="IGraphicsNanoVG.h">
<polygon fill="white" stroke="black" points="367,-56.5 367,-75.5 471,-75.5 471,-56.5 367,-56.5"/>
<text text-anchor="middle" x="419" y="-63.5" font-family="Helvetica,sans-Serif" font-size="10.00">IGraphicsNanoVG.h</text>
</a>
</g>
</g>
<!-- Node1&#45;&gt;Node8 -->
<g id="edge7" class="edge"><title>Node1&#45;&gt;Node8</title>
<path fill="none" stroke="midnightblue" d="M267.973,-109.699C304.021,-99.507 356.243,-84.7429 388.877,-75.5164"/>
<polygon fill="midnightblue" stroke="midnightblue" points="266.935,-106.355 258.265,-112.444 268.84,-113.091 266.935,-106.355"/>
</g>
<!-- Node3 -->
<g id="node3" class="node"><title>Node3</title>
<g id="a_node3"><a xlink:href="_i_graphics_a_g_g_8cpp_source.html" target="_top" xlink:title="IGraphicsAGG.cpp">
<polygon fill="white" stroke="black" points="-0.5,-0.5 -0.5,-19.5 98.5,-19.5 98.5,-0.5 -0.5,-0.5"/>
<text text-anchor="middle" x="49" y="-7.5" font-family="Helvetica,sans-Serif" font-size="10.00">IGraphicsAGG.cpp</text>
</a>
</g>
</g>
<!-- Node2&#45;&gt;Node3 -->
<g id="edge2" class="edge"><title>Node2&#45;&gt;Node3</title>
<path fill="none" stroke="midnightblue" d="M52.25,-46.1005C51.42,-37.1357 50.4683,-26.8579 49.8103,-19.7511"/>
<polygon fill="midnightblue" stroke="midnightblue" points="48.7672,-46.4483 53.1744,-56.083 55.7374,-45.8029 48.7672,-46.4483"/>
</g>
<!-- Node5 -->
<g id="node5" class="node"><title>Node5</title>
<g id="a_node5"><a xlink:href="_i_graphics_cairo_8cpp_source.html" target="_top" xlink:title="IGraphicsCairo.cpp">
<polygon fill="white" stroke="black" points="116.5,-0.5 116.5,-19.5 217.5,-19.5 217.5,-0.5 116.5,-0.5"/>
<text text-anchor="middle" x="167" y="-7.5" font-family="Helvetica,sans-Serif" font-size="10.00">IGraphicsCairo.cpp</text>
</a>
</g>
</g>
<!-- Node4&#45;&gt;Node5 -->
<g id="edge4" class="edge"><title>Node4&#45;&gt;Node5</title>
<path fill="none" stroke="midnightblue" d="M168.289,-45.8045C167.96,-36.9102 167.584,-26.7798 167.324,-19.7511"/>
<polygon fill="midnightblue" stroke="midnightblue" points="164.802,-46.2194 168.67,-56.083 171.797,-45.9603 164.802,-46.2194"/>
</g>
<!-- Node7 -->
<g id="node7" class="node"><title>Node7</title>
<g id="a_node7"><a xlink:href="_i_graphics_canvas_8cpp_source.html" target="_top" xlink:title="IGraphicsCanvas.cpp">
<polygon fill="white" stroke="black" points="235.5,-0.5 235.5,-19.5 346.5,-19.5 346.5,-0.5 235.5,-0.5"/>
<text text-anchor="middle" x="291" y="-7.5" font-family="Helvetica,sans-Serif" font-size="10.00">IGraphicsCanvas.cpp</text>
</a>
</g>
</g>
<!-- Node6&#45;&gt;Node7 -->
<g id="edge6" class="edge"><title>Node6&#45;&gt;Node7</title>
<path fill="none" stroke="midnightblue" d="M289.066,-45.8045C289.561,-36.9102 290.123,-26.7798 290.514,-19.7511"/>
<polygon fill="midnightblue" stroke="midnightblue" points="285.556,-45.9042 288.495,-56.083 292.545,-46.2926 285.556,-45.9042"/>
</g>
<!-- Node9 -->
<g id="node9" class="node"><title>Node9</title>
<g id="a_node9"><a xlink:href="_i_graphics_nano_v_g_8cpp_source.html" target="_top" xlink:title="IGraphicsNanoVG.cpp">
<polygon fill="white" stroke="black" points="364.5,-0.5 364.5,-19.5 479.5,-19.5 479.5,-0.5 364.5,-0.5"/>
<text text-anchor="middle" x="422" y="-7.5" font-family="Helvetica,sans-Serif" font-size="10.00">IGraphicsNanoVG.cpp</text>
</a>
</g>
</g>
<!-- Node8&#45;&gt;Node9 -->
<g id="edge8" class="edge"><title>Node8&#45;&gt;Node9</title>
<path fill="none" stroke="midnightblue" d="M420.066,-45.8045C420.561,-36.9102 421.123,-26.7798 421.514,-19.7511"/>
<polygon fill="midnightblue" stroke="midnightblue" points="416.556,-45.9042 419.495,-56.083 423.545,-46.2926 416.556,-45.9042"/>
</g>
</g>
</svg>
