<?xml version="1.0" encoding="UTF-8" standalone="no"?>
<!DOCTYPE svg PUBLIC "-//W3C//DTD SVG 1.1//EN"
 "http://www.w3.org/Graphics/SVG/1.1/DTD/svg11.dtd">
<!-- Generated by graphviz version 2.36.0 (20140111.2315)
 -->
<!-- Title: IGraphics_include_in_plug_hdr.h Pages: 1 -->
<svg width="117pt" height="152pt"
 viewBox="0.00 0.00 117.00 152.00" xmlns="http://www.w3.org/2000/svg" xmlns:xlink="http://www.w3.org/1999/xlink">
<g id="graph0" class="graph" transform="scale(1 1) rotate(0) translate(4 148)">
<title>IGraphics_include_in_plug_hdr.h</title>
<polygon fill="white" stroke="none" points="-4,4 -4,-148 113,-148 113,4 -4,4"/>
<!-- Node1 -->
<g id="node1" class="node"><title>Node1</title>
<polygon fill="#bfbfbf" stroke="black" points="1.5,-113 1.5,-143 108.5,-143 108.5,-113 1.5,-113"/>
<text text-anchor="start" x="9.5" y="-131" font-family="Helvetica,sans-Serif" font-size="10.00">IGraphics_include_in</text>
<text text-anchor="middle" x="55" y="-120" font-family="Helvetica,sans-Serif" font-size="10.00">_plug_hdr.h</text>
</g>
<!-- Node2 -->
<g id="node2" class="node"><title>Node2</title>
<g id="a_node2"><a xlink:href="_i_plug_platform_8h.html" target="_top" xlink:title="Include to get consistently named preprocessor macros for different platforms and logging functionali...">
<polygon fill="white" stroke="black" points="13,-56.5 13,-75.5 97,-75.5 97,-56.5 13,-56.5"/>
<text text-anchor="middle" x="55" y="-63.5" font-family="Helvetica,sans-Serif" font-size="10.00">IPlugPlatform.h</text>
</a>
</g>
</g>
<!-- Node1&#45;&gt;Node2 -->
<g id="edge1" class="edge"><title>Node1&#45;&gt;Node2</title>
<path fill="none" stroke="midnightblue" d="M55,-112.781C55,-104.781 55,-94.6887 55,-86.0168"/>
<polygon fill="midnightblue" stroke="midnightblue" points="58.5001,-85.7305 55,-75.7305 51.5001,-85.7306 58.5001,-85.7305"/>
</g>
<!-- Node3 -->
<g id="node3" class="node"><title>Node3</title>
<polygon fill="white" stroke="#bfbfbf" points="0,-0.5 0,-19.5 46,-19.5 46,-0.5 0,-0.5"/>
<text text-anchor="middle" x="23" y="-7.5" font-family="Helvetica,sans-Serif" font-size="10.00">cstring</text>
</g>
<!-- Node2&#45;&gt;Node3 -->
<g id="edge2" class="edge"><title>Node2&#45;&gt;Node3</title>
<path fill="none" stroke="midnightblue" d="M49.7159,-56.083C45.289,-48.6127 38.8367,-37.7244 33.3821,-28.5199"/>
<polygon fill="midnightblue" stroke="midnightblue" points="36.2949,-26.5697 28.1858,-19.7511 30.2729,-30.1383 36.2949,-26.5697"/>
</g>
<!-- Node4 -->
<g id="node4" class="node"><title>Node4</title>
<polygon fill="white" stroke="#bfbfbf" points="64.5,-0.5 64.5,-19.5 109.5,-19.5 109.5,-0.5 64.5,-0.5"/>
<text text-anchor="middle" x="87" y="-7.5" font-family="Helvetica,sans-Serif" font-size="10.00">cstdlib</text>
</g>
<!-- Node2&#45;&gt;Node4 -->
<g id="edge3" class="edge"><title>Node2&#45;&gt;Node4</title>
<path fill="none" stroke="midnightblue" d="M60.2841,-56.083C64.711,-48.6127 71.1633,-37.7244 76.6179,-28.5199"/>
<polygon fill="midnightblue" stroke="midnightblue" points="79.7271,-30.1383 81.8142,-19.7511 73.7051,-26.5697 79.7271,-30.1383"/>
</g>
</g>
</svg>
