<?xml version="1.0" encoding="UTF-8" standalone="no"?>
<!DOCTYPE svg PUBLIC "-//W3C//DTD SVG 1.1//EN"
 "http://www.w3.org/Graphics/SVG/1.1/DTD/svg11.dtd">
<!-- Generated by graphviz version 2.36.0 (20140111.2315)
 -->
<!-- Title: IGraphics.h Pages: 1 -->
<!--zoomable 476 -->
<svg id="main" version="1.1" xmlns="http://www.w3.org/2000/svg" xmlns:xlink="http://www.w3.org/1999/xlink" xml:space="preserve" onload="init(evt)">
<style type="text/css"><![CDATA[
.edge:hover path { stroke: red; }
.edge:hover polygon { stroke: red; fill: red; }
]]></style>
<script type="text/javascript"><![CDATA[
var edges = document.getElementsByTagName('g');
if (edges && edges.length) {
  for (var i=0;i<edges.length;i++) {
    if (edges[i].id.substr(0,4)=='edge') {
      edges[i].setAttribute('class','edge');
    }
  }
}
]]></script>
        <defs>
                <circle id="rim" cx="0" cy="0" r="7"/>
                <circle id="rim2" cx="0" cy="0" r="3.5"/>
                <g id="zoomPlus">
                        <use xlink:href="#rim" fill="#404040">
                                <set attributeName="fill" to="#808080" begin="zoomplus.mouseover" end="zoomplus.mouseout"/>
                        </use>
                        <path d="M-4,0h8M0,-4v8" fill="none" stroke="white" stroke-width="1.5" pointer-events="none"/>
                </g>
                <g id="zoomMin">
                        <use xlink:href="#rim" fill="#404040">
                                <set attributeName="fill" to="#808080" begin="zoomminus.mouseover" end="zoomminus.mouseout"/>
                        </use>
                        <path d="M-4,0h8" fill="none" stroke="white" stroke-width="1.5" pointer-events="none"/>
                </g>
                <g id="dirArrow">
                        <path fill="none" stroke="white" stroke-width="1.5" d="M0,-3.0v7 M-2.5,-0.5L0,-3.0L2.5,-0.5"/>
                </g>
               <g id="resetDef">
                       <use xlink:href="#rim2" fill="#404040">
                               <set attributeName="fill" to="#808080" begin="reset.mouseover" end="reset.mouseout"/>
                       </use>
               </g>
        </defs>

<script type="text/javascript">
var viewWidth = 1584;
var viewHeight = 476;
var sectionId = 'dynsection-0';
</script>
<script xlink:href="svgpan.js"/>
<svg id="graph" class="graph">
<g id="viewport">
<title>IGraphics.h</title>
<polygon fill="white" stroke="none" points="-4,4 -4,-472 1579.86,-472 1579.86,4 -4,4"/>
<!-- Node1 -->
<g id="node1" class="node"><title>Node1</title>
<polygon fill="#bfbfbf" stroke="black" points="772.5,-448.5 772.5,-467.5 839.5,-467.5 839.5,-448.5 772.5,-448.5"/>
<text text-anchor="middle" x="806" y="-455.5" font-family="Helvetica,sans-Serif" font-size="10.00">IGraphics.h</text>
</g>
<!-- Node2 -->
<g id="node2" class="node"><title>Node2</title>
<g id="a_node2"><a xlink:href="_i_plug_constants_8h.html" target="_top" xlink:title="IPlug Constant definitions, Types, magic numbers. ">
<polygon fill="white" stroke="black" points="68,-56.5 68,-75.5 160,-75.5 160,-56.5 68,-56.5"/>
<text text-anchor="middle" x="114" y="-63.5" font-family="Helvetica,sans-Serif" font-size="10.00">IPlugConstants.h</text>
</a>
</g>
</g>
<!-- Node1&#45;&gt;Node2 -->
<g id="edge1" class="edge"><title>Node1&#45;&gt;Node2</title>
<path fill="none" stroke="midnightblue" d="M772.288,-456.513C653.246,-454.52 253.162,-445.432 130,-412 67.6584,-395.078 0,-411.598 0,-347 0,-347 0,-347 0,-177 0,-130.115 50.5515,-96.8944 84.3292,-79.9302"/>
<polygon fill="midnightblue" stroke="midnightblue" points="85.8676,-83.0742 93.3555,-75.5787 82.8277,-76.7687 85.8676,-83.0742"/>
</g>
<!-- Node3 -->
<g id="node3" class="node"><title>Node3</title>
<g id="a_node3"><a xlink:href="_i_plug_logger_8h.html" target="_top" xlink:title="IPlug logging a.k.a tracing functionality. ">
<polygon fill="white" stroke="black" points="698.5,-168.5 698.5,-187.5 775.5,-187.5 775.5,-168.5 698.5,-168.5"/>
<text text-anchor="middle" x="737" y="-175.5" font-family="Helvetica,sans-Serif" font-size="10.00">IPlugLogger.h</text>
</a>
</g>
</g>
<!-- Node1&#45;&gt;Node3 -->
<g id="edge2" class="edge"><title>Node1&#45;&gt;Node3</title>
<path fill="none" stroke="midnightblue" d="M779.805,-448.407C741.576,-434.025 675,-401.198 675,-347 675,-347 675,-347 675,-289 675,-251.622 702.504,-215.237 720.875,-195.104"/>
<polygon fill="midnightblue" stroke="midnightblue" points="723.51,-197.412 727.852,-187.747 718.431,-192.594 723.51,-197.412"/>
</g>
<!-- Node18 -->
<g id="node18" class="node"><title>Node18</title>
<g id="a_node18"><a xlink:href="_i_graphics_constants_8h_source.html" target="_top" xlink:title="IGraphicsConstants.h">
<polygon fill="white" stroke="black" points="66,-168.5 66,-187.5 178,-187.5 178,-168.5 66,-168.5"/>
<text text-anchor="middle" x="122" y="-175.5" font-family="Helvetica,sans-Serif" font-size="10.00">IGraphicsConstants.h</text>
</a>
</g>
</g>
<!-- Node1&#45;&gt;Node18 -->
<g id="edge25" class="edge"><title>Node1&#45;&gt;Node18</title>
<path fill="none" stroke="midnightblue" d="M772.009,-455.77C623.378,-449.952 38,-422.26 38,-347 38,-347 38,-347 38,-289 38,-247.731 75.8088,-212.325 100.695,-193.49"/>
<polygon fill="midnightblue" stroke="midnightblue" points="102.849,-196.251 108.875,-187.537 98.73,-190.592 102.849,-196.251"/>
</g>
<!-- Node19 -->
<g id="node19" class="node"><title>Node19</title>
<g id="a_node19"><a xlink:href="_i_graphics_structs_8h_source.html" target="_top" xlink:title="IGraphicsStructs.h">
<polygon fill="white" stroke="black" points="529,-224.5 529,-243.5 627,-243.5 627,-224.5 529,-224.5"/>
<text text-anchor="middle" x="578" y="-231.5" font-family="Helvetica,sans-Serif" font-size="10.00">IGraphicsStructs.h</text>
</a>
</g>
</g>
<!-- Node1&#45;&gt;Node19 -->
<g id="edge27" class="edge"><title>Node1&#45;&gt;Node19</title>
<path fill="none" stroke="midnightblue" d="M772.483,-455.221C739.855,-451.723 690.935,-441.519 661,-412 617.067,-368.677 648.7,-333.521 618,-280 611.915,-269.392 603.037,-259.08 595.19,-251.011"/>
<polygon fill="midnightblue" stroke="midnightblue" points="597.409,-248.284 587.828,-243.76 592.497,-253.271 597.409,-248.284"/>
</g>
<!-- Node26 -->
<g id="node26" class="node"><title>Node26</title>
<g id="a_node26"><a xlink:href="_i_graphics_utilities_8h_source.html" target="_top" xlink:title="IGraphicsUtilities.h">
<polygon fill="white" stroke="black" points="509,-280.5 509,-299.5 609,-299.5 609,-280.5 509,-280.5"/>
<text text-anchor="middle" x="559" y="-287.5" font-family="Helvetica,sans-Serif" font-size="10.00">IGraphicsUtilities.h</text>
</a>
</g>
</g>
<!-- Node1&#45;&gt;Node26 -->
<g id="edge43" class="edge"><title>Node1&#45;&gt;Node26</title>
<path fill="none" stroke="midnightblue" d="M772.414,-456.745C732.769,-454.784 666.718,-446.119 623,-412 589.231,-385.646 571.287,-336.417 563.625,-309.591"/>
<polygon fill="midnightblue" stroke="midnightblue" points="566.917,-308.355 560.954,-299.597 560.155,-310.162 566.917,-308.355"/>
</g>
<!-- Node27 -->
<g id="node27" class="node"><title>Node27</title>
<g id="a_node27"><a xlink:href="_i_graphics_popup_menu_8h.html" target="_top" xlink:title="A class for setting the contents of a pop up menu. ">
<polygon fill="white" stroke="black" points="1416.5,-168.5 1416.5,-187.5 1535.5,-187.5 1535.5,-168.5 1416.5,-168.5"/>
<text text-anchor="middle" x="1476" y="-175.5" font-family="Helvetica,sans-Serif" font-size="10.00">IGraphicsPopupMenu.h</text>
</a>
</g>
</g>
<!-- Node1&#45;&gt;Node27 -->
<g id="edge46" class="edge"><title>Node1&#45;&gt;Node27</title>
<path fill="none" stroke="midnightblue" d="M839.742,-451.447C884.769,-443.798 966.86,-429.019 1036,-412 1120.66,-391.161 1145.53,-393.994 1224,-356 1319.74,-309.646 1418.87,-228.437 1458.3,-194.545"/>
<polygon fill="midnightblue" stroke="midnightblue" points="1460.93,-196.898 1466.19,-187.703 1456.34,-191.608 1460.93,-196.898"/>
</g>
<!-- Node28 -->
<g id="node28" class="node"><title>Node28</title>
<g id="a_node28"><a xlink:href="_i_graphics_editor_delegate_8h.html" target="_top" xlink:title="An editor delgate base class for a SOMETHING that uses IGraphics for it&#39;s UI. ">
<polygon fill="white" stroke="black" points="896.5,-392.5 896.5,-411.5 1027.5,-411.5 1027.5,-392.5 896.5,-392.5"/>
<text text-anchor="middle" x="962" y="-399.5" font-family="Helvetica,sans-Serif" font-size="10.00">IGraphicsEditorDelegate.h</text>
</a>
</g>
</g>
<!-- Node1&#45;&gt;Node28 -->
<g id="edge53" class="edge"><title>Node1&#45;&gt;Node28</title>
<path fill="none" stroke="midnightblue" d="M830.719,-448.444C856.848,-439.399 898.259,-425.064 927.576,-414.916"/>
<polygon fill="midnightblue" stroke="midnightblue" points="929.092,-418.095 937.397,-411.516 926.802,-411.48 929.092,-418.095"/>
</g>
<!-- Node35 -->
<g id="node35" class="node"><title>Node35</title>
<polygon fill="white" stroke="#bfbfbf" points="1251.5,-392.5 1251.5,-411.5 1310.5,-411.5 1310.5,-392.5 1251.5,-392.5"/>
<text text-anchor="middle" x="1281" y="-399.5" font-family="Helvetica,sans-Serif" font-size="10.00">heapbuf.h</text>
</g>
<!-- Node1&#45;&gt;Node35 -->
<g id="edge79" class="edge"><title>Node1&#45;&gt;Node35</title>
<path fill="none" stroke="midnightblue" d="M839.674,-454.611C912.463,-449.199 1089.78,-434.687 1237,-412 1238.44,-411.777 1239.91,-411.539 1241.4,-411.289"/>
<polygon fill="midnightblue" stroke="midnightblue" points="1242.04,-414.73 1251.25,-409.496 1240.78,-407.843 1242.04,-414.73"/>
</g>
<!-- Node36 -->
<g id="node36" class="node"><title>Node36</title>
<polygon fill="white" stroke="#bfbfbf" points="1328.5,-392.5 1328.5,-411.5 1369.5,-411.5 1369.5,-392.5 1328.5,-392.5"/>
<text text-anchor="middle" x="1349" y="-399.5" font-family="Helvetica,sans-Serif" font-size="10.00">stack</text>
</g>
<!-- Node1&#45;&gt;Node36 -->
<g id="edge80" class="edge"><title>Node1&#45;&gt;Node36</title>
<path fill="none" stroke="midnightblue" d="M839.636,-456.415C920.636,-454.504 1132.9,-446.513 1318.54,-411.654"/>
<polygon fill="midnightblue" stroke="midnightblue" points="1319.31,-415.07 1328.48,-409.757 1318,-408.194 1319.31,-415.07"/>
</g>
<!-- Node37 -->
<g id="node37" class="node"><title>Node37</title>
<polygon fill="white" stroke="#bfbfbf" points="1388,-392.5 1388,-411.5 1440,-411.5 1440,-392.5 1388,-392.5"/>
<text text-anchor="middle" x="1414" y="-399.5" font-family="Helvetica,sans-Serif" font-size="10.00">memory</text>
</g>
<!-- Node1&#45;&gt;Node37 -->
<g id="edge81" class="edge"><title>Node1&#45;&gt;Node37</title>
<path fill="none" stroke="midnightblue" d="M839.76,-456.302C927.12,-454.082 1167.8,-445.325 1377.78,-411.716"/>
<polygon fill="midnightblue" stroke="midnightblue" points="1378.45,-415.154 1387.76,-410.096 1377.33,-408.244 1378.45,-415.154"/>
</g>
<!-- Node3&#45;&gt;Node2 -->
<g id="edge12" class="edge"><title>Node3&#45;&gt;Node2</title>
<path fill="none" stroke="midnightblue" d="M698.213,-174.09C641.807,-169.168 534.243,-157.171 446,-132 424.169,-125.773 420.821,-118.262 399,-112 321.329,-89.7107 228.38,-77.6438 170.247,-71.7667"/>
<polygon fill="midnightblue" stroke="midnightblue" points="170.459,-68.2706 160.164,-70.7742 169.773,-75.237 170.459,-68.2706"/>
</g>
<!-- Node4 -->
<g id="node4" class="node"><title>Node4</title>
<polygon fill="white" stroke="#bfbfbf" points="1147.5,-56.5 1147.5,-75.5 1190.5,-75.5 1190.5,-56.5 1147.5,-56.5"/>
<text text-anchor="middle" x="1169" y="-63.5" font-family="Helvetica,sans-Serif" font-size="10.00">cstdio</text>
</g>
<!-- Node3&#45;&gt;Node4 -->
<g id="edge3" class="edge"><title>Node3&#45;&gt;Node4</title>
<path fill="none" stroke="midnightblue" d="M770.539,-168.46C851.741,-147.784 1058.04,-95.2528 1137.31,-75.0693"/>
<polygon fill="midnightblue" stroke="midnightblue" points="1138.37,-78.4116 1147.2,-72.5522 1136.64,-71.628 1138.37,-78.4116"/>
</g>
<!-- Node5 -->
<g id="node5" class="node"><title>Node5</title>
<polygon fill="white" stroke="#bfbfbf" points="390,-56.5 390,-75.5 436,-75.5 436,-56.5 390,-56.5"/>
<text text-anchor="middle" x="413" y="-63.5" font-family="Helvetica,sans-Serif" font-size="10.00">cctype</text>
</g>
<!-- Node3&#45;&gt;Node5 -->
<g id="edge4" class="edge"><title>Node3&#45;&gt;Node5</title>
<path fill="none" stroke="midnightblue" d="M698.46,-173.377C635.329,-166.95 513.084,-152.292 475,-132 453.8,-120.704 435.666,-99.47 424.583,-84.3461"/>
<polygon fill="midnightblue" stroke="midnightblue" points="427.239,-82.0374 418.63,-75.8625 421.509,-86.0585 427.239,-82.0374"/>
</g>
<!-- Node6 -->
<g id="node6" class="node"><title>Node6</title>
<polygon fill="white" stroke="#bfbfbf" points="620.5,-112.5 620.5,-131.5 669.5,-131.5 669.5,-112.5 620.5,-112.5"/>
<text text-anchor="middle" x="645" y="-119.5" font-family="Helvetica,sans-Serif" font-size="10.00">cstdarg</text>
</g>
<!-- Node3&#45;&gt;Node6 -->
<g id="edge5" class="edge"><title>Node3&#45;&gt;Node6</title>
<path fill="none" stroke="midnightblue" d="M722.219,-168.324C707.733,-159.822 685.427,-146.729 668.507,-136.797"/>
<polygon fill="midnightblue" stroke="midnightblue" points="670.141,-133.698 659.745,-131.655 666.597,-139.735 670.141,-133.698"/>
</g>
<!-- Node7 -->
<g id="node7" class="node"><title>Node7</title>
<polygon fill="white" stroke="#bfbfbf" points="823,-112.5 823,-131.5 869,-131.5 869,-112.5 823,-112.5"/>
<text text-anchor="middle" x="846" y="-119.5" font-family="Helvetica,sans-Serif" font-size="10.00">cstdint</text>
</g>
<!-- Node3&#45;&gt;Node7 -->
<g id="edge6" class="edge"><title>Node3&#45;&gt;Node7</title>
<path fill="none" stroke="midnightblue" d="M754.513,-168.324C772.072,-159.625 799.331,-146.12 819.531,-136.113"/>
<polygon fill="midnightblue" stroke="midnightblue" points="821.124,-139.23 828.531,-131.655 818.016,-132.958 821.124,-139.23"/>
</g>
<!-- Node8 -->
<g id="node8" class="node"><title>Node8</title>
<polygon fill="white" stroke="#bfbfbf" points="911,-0.5 911,-19.5 957,-19.5 957,-0.5 911,-0.5"/>
<text text-anchor="middle" x="934" y="-7.5" font-family="Helvetica,sans-Serif" font-size="10.00">cstring</text>
</g>
<!-- Node3&#45;&gt;Node8 -->
<g id="edge7" class="edge"><title>Node3&#45;&gt;Node8</title>
<path fill="none" stroke="midnightblue" d="M698.8,-168.465C665.657,-160.194 621.403,-146.762 611,-132 605.88,-124.734 605.735,-119.162 611,-112 646.063,-64.2993 826.078,-29.1109 901.107,-16.2945"/>
<polygon fill="midnightblue" stroke="midnightblue" points="901.69,-19.7457 910.971,-14.6356 900.529,-12.8426 901.69,-19.7457"/>
</g>
<!-- Node9 -->
<g id="node9" class="node"><title>Node9</title>
<polygon fill="white" stroke="#bfbfbf" points="687.5,-112.5 687.5,-131.5 728.5,-131.5 728.5,-112.5 687.5,-112.5"/>
<text text-anchor="middle" x="708" y="-119.5" font-family="Helvetica,sans-Serif" font-size="10.00">ctime</text>
</g>
<!-- Node3&#45;&gt;Node9 -->
<g id="edge8" class="edge"><title>Node3&#45;&gt;Node9</title>
<path fill="none" stroke="midnightblue" d="M732.211,-168.083C728.242,-160.691 722.475,-149.953 717.565,-140.811"/>
<polygon fill="midnightblue" stroke="midnightblue" points="720.514,-138.905 712.7,-131.751 714.347,-142.217 720.514,-138.905"/>
</g>
<!-- Node10 -->
<g id="node10" class="node"><title>Node10</title>
<polygon fill="white" stroke="#bfbfbf" points="1295.5,-112.5 1295.5,-131.5 1344.5,-131.5 1344.5,-112.5 1295.5,-112.5"/>
<text text-anchor="middle" x="1320" y="-119.5" font-family="Helvetica,sans-Serif" font-size="10.00">cassert</text>
</g>
<!-- Node3&#45;&gt;Node10 -->
<g id="edge9" class="edge"><title>Node3&#45;&gt;Node10</title>
<path fill="none" stroke="midnightblue" d="M775.508,-174.092C860.744,-167.549 1071.77,-150.768 1248,-132 1260.21,-130.7 1273.55,-129.085 1285.4,-127.584"/>
<polygon fill="midnightblue" stroke="midnightblue" points="1285.89,-131.05 1295.37,-126.305 1285,-124.107 1285.89,-131.05"/>
</g>
<!-- Node11 -->
<g id="node11" class="node"><title>Node11</title>
<polygon fill="white" stroke="#bfbfbf" points="941,-56.5 941,-75.5 1005,-75.5 1005,-56.5 941,-56.5"/>
<text text-anchor="middle" x="973" y="-63.5" font-family="Helvetica,sans-Serif" font-size="10.00">wdlstring.h</text>
</g>
<!-- Node3&#45;&gt;Node11 -->
<g id="edge10" class="edge"><title>Node3&#45;&gt;Node11</title>
<path fill="none" stroke="midnightblue" d="M745.101,-168.052C758.232,-154.076 785.575,-127.105 814,-112 851.078,-92.2968 897.731,-80.4142 930.89,-73.85"/>
<polygon fill="midnightblue" stroke="midnightblue" points="931.552,-77.287 940.723,-71.9809 930.245,-70.4101 931.552,-77.287"/>
</g>
<!-- Node12 -->
<g id="node12" class="node"><title>Node12</title>
<polygon fill="white" stroke="#bfbfbf" points="338,-112.5 338,-131.5 390,-131.5 390,-112.5 338,-112.5"/>
<text text-anchor="middle" x="364" y="-119.5" font-family="Helvetica,sans-Serif" font-size="10.00">mutex.h</text>
</g>
<!-- Node3&#45;&gt;Node12 -->
<g id="edge11" class="edge"><title>Node3&#45;&gt;Node12</title>
<path fill="none" stroke="midnightblue" d="M698.373,-172.885C636.14,-166.008 509.936,-151.038 404,-132 402.739,-131.773 401.457,-131.534 400.165,-131.285"/>
<polygon fill="midnightblue" stroke="midnightblue" points="400.684,-127.819 390.184,-129.234 399.274,-134.675 400.684,-127.819"/>
</g>
<!-- Node13 -->
<g id="node13" class="node"><title>Node13</title>
<g id="a_node13"><a xlink:href="_i_plug_utilities_8h.html" target="_top" xlink:title="Utility functions and macros. ">
<polygon fill="white" stroke="black" points="484,-112.5 484,-131.5 564,-131.5 564,-112.5 484,-112.5"/>
<text text-anchor="middle" x="524" y="-119.5" font-family="Helvetica,sans-Serif" font-size="10.00">IPlugUtilities.h</text>
</a>
</g>
</g>
<!-- Node3&#45;&gt;Node13 -->
<g id="edge13" class="edge"><title>Node3&#45;&gt;Node13</title>
<path fill="none" stroke="midnightblue" d="M703.25,-168.444C666.482,-159.122 607.554,-144.183 567.378,-133.997"/>
<polygon fill="midnightblue" stroke="midnightblue" points="568.146,-130.581 557.593,-131.516 566.426,-137.367 568.146,-130.581"/>
</g>
<!-- Node13&#45;&gt;Node2 -->
<g id="edge21" class="edge"><title>Node13&#45;&gt;Node2</title>
<path fill="none" stroke="midnightblue" d="M483.941,-115.724C410.534,-106.056 254.297,-85.4781 170.266,-74.4107"/>
<polygon fill="midnightblue" stroke="midnightblue" points="170.511,-70.9128 160.14,-73.077 169.597,-77.8529 170.511,-70.9128"/>
</g>
<!-- Node13&#45;&gt;Node4 -->
<g id="edge16" class="edge"><title>Node13&#45;&gt;Node4</title>
<path fill="none" stroke="midnightblue" d="M564.264,-116.643C578.964,-115.103 595.728,-113.406 611,-112 811.24,-93.571 1052.29,-75.537 1137.39,-69.2973"/>
<polygon fill="midnightblue" stroke="midnightblue" points="1137.72,-72.7826 1147.44,-68.5623 1137.21,-65.8012 1137.72,-72.7826"/>
</g>
<!-- Node13&#45;&gt;Node5 -->
<g id="edge19" class="edge"><title>Node13&#45;&gt;Node5</title>
<path fill="none" stroke="midnightblue" d="M506.166,-112.324C488.284,-103.625 460.525,-90.1202 439.954,-80.113"/>
<polygon fill="midnightblue" stroke="midnightblue" points="441.313,-76.8819 430.79,-75.6545 438.251,-83.1765 441.313,-76.8819"/>
</g>
<!-- Node13&#45;&gt;Node8 -->
<g id="edge18" class="edge"><title>Node13&#45;&gt;Node8</title>
<path fill="none" stroke="midnightblue" d="M529.504,-112.483C539.32,-98.0944 561.338,-69.2508 588,-56 642.546,-28.8908 824.922,-16.6033 900.623,-12.5804"/>
<polygon fill="midnightblue" stroke="midnightblue" points="901.184,-16.0562 910.99,-12.046 900.823,-9.0655 901.184,-16.0562"/>
</g>
<!-- Node13&#45;&gt;Node11 -->
<g id="edge20" class="edge"><title>Node13&#45;&gt;Node11</title>
<path fill="none" stroke="midnightblue" d="M564.241,-116.16C648.839,-105.986 844.418,-82.4642 930.745,-72.0818"/>
<polygon fill="midnightblue" stroke="midnightblue" points="931.206,-75.5517 940.717,-70.8826 930.37,-68.6018 931.206,-75.5517"/>
</g>
<!-- Node14 -->
<g id="node14" class="node"><title>Node14</title>
<polygon fill="white" stroke="#bfbfbf" points="817,-56.5 817,-75.5 873,-75.5 873,-56.5 817,-56.5"/>
<text text-anchor="middle" x="845" y="-63.5" font-family="Helvetica,sans-Serif" font-size="10.00">algorithm</text>
</g>
<!-- Node13&#45;&gt;Node14 -->
<g id="edge14" class="edge"><title>Node13&#45;&gt;Node14</title>
<path fill="none" stroke="midnightblue" d="M564.006,-114.27C626.285,-103.793 745.605,-83.7207 806.776,-73.4303"/>
<polygon fill="midnightblue" stroke="midnightblue" points="807.505,-76.8568 816.786,-71.7463 806.344,-69.9538 807.505,-76.8568"/>
</g>
<!-- Node15 -->
<g id="node15" class="node"><title>Node15</title>
<polygon fill="white" stroke="#bfbfbf" points="492,-56.5 492,-75.5 536,-75.5 536,-56.5 492,-56.5"/>
<text text-anchor="middle" x="514" y="-63.5" font-family="Helvetica,sans-Serif" font-size="10.00">cmath</text>
</g>
<!-- Node13&#45;&gt;Node15 -->
<g id="edge15" class="edge"><title>Node13&#45;&gt;Node15</title>
<path fill="none" stroke="midnightblue" d="M522.349,-112.083C521.024,-104.927 519.118,-94.6353 517.461,-85.6911"/>
<polygon fill="midnightblue" stroke="midnightblue" points="520.883,-84.9466 515.621,-75.7511 514,-86.2212 520.883,-84.9466"/>
</g>
<!-- Node16 -->
<g id="node16" class="node"><title>Node16</title>
<polygon fill="white" stroke="#bfbfbf" points="357.5,-0.5 357.5,-19.5 402.5,-19.5 402.5,-0.5 357.5,-0.5"/>
<text text-anchor="middle" x="380" y="-7.5" font-family="Helvetica,sans-Serif" font-size="10.00">cstdlib</text>
</g>
<!-- Node13&#45;&gt;Node16 -->
<g id="edge17" class="edge"><title>Node13&#45;&gt;Node16</title>
<path fill="none" stroke="midnightblue" d="M513.991,-112.311C499.202,-99.5775 470.508,-75.2716 445,-56 430.9,-45.3477 414.542,-34.0279 401.763,-25.4064"/>
<polygon fill="midnightblue" stroke="midnightblue" points="403.431,-22.3107 393.174,-19.6536 399.535,-28.1266 403.431,-22.3107"/>
</g>
<!-- Node17 -->
<g id="node17" class="node"><title>Node17</title>
<g id="a_node17"><a xlink:href="_i_plug_platform_8h.html" target="_top" xlink:title="Include to get consistently named preprocessor macros for different platforms and logging functionali...">
<polygon fill="white" stroke="black" points="254,-56.5 254,-75.5 338,-75.5 338,-56.5 254,-56.5"/>
<text text-anchor="middle" x="296" y="-63.5" font-family="Helvetica,sans-Serif" font-size="10.00">IPlugPlatform.h</text>
</a>
</g>
</g>
<!-- Node13&#45;&gt;Node17 -->
<g id="edge22" class="edge"><title>Node13&#45;&gt;Node17</title>
<path fill="none" stroke="midnightblue" d="M487.873,-112.444C448.349,-103.083 384.903,-88.0561 341.887,-77.868"/>
<polygon fill="midnightblue" stroke="midnightblue" points="342.496,-74.4154 331.958,-75.5164 340.882,-81.2269 342.496,-74.4154"/>
</g>
<!-- Node17&#45;&gt;Node8 -->
<g id="edge23" class="edge"><title>Node17&#45;&gt;Node8</title>
<path fill="none" stroke="midnightblue" d="M338.351,-60.3111C351.962,-58.8589 367.112,-57.3001 381,-56 577.819,-37.5749 814.46,-19.7718 900.592,-13.4342"/>
<polygon fill="midnightblue" stroke="midnightblue" points="901.085,-16.9075 910.802,-12.6848 900.573,-9.92629 901.085,-16.9075"/>
</g>
<!-- Node17&#45;&gt;Node16 -->
<g id="edge24" class="edge"><title>Node17&#45;&gt;Node16</title>
<path fill="none" stroke="midnightblue" d="M309.496,-56.324C322.6,-47.9002 342.712,-34.9709 358.107,-25.0741"/>
<polygon fill="midnightblue" stroke="midnightblue" points="360.018,-28.0063 366.537,-19.6545 356.233,-22.118 360.018,-28.0063"/>
</g>
<!-- Node18&#45;&gt;Node17 -->
<g id="edge26" class="edge"><title>Node18&#45;&gt;Node17</title>
<path fill="none" stroke="midnightblue" d="M129.433,-168.426C141.465,-154.962 166.448,-128.681 192,-112 213.19,-98.1664 239.342,-86.8736 260.12,-79.0607"/>
<polygon fill="midnightblue" stroke="midnightblue" points="261.356,-82.3353 269.546,-75.6143 258.952,-75.7609 261.356,-82.3353"/>
</g>
<!-- Node19&#45;&gt;Node3 -->
<g id="edge41" class="edge"><title>Node19&#45;&gt;Node3</title>
<path fill="none" stroke="midnightblue" d="M603.194,-224.444C629.943,-215.359 672.403,-200.939 702.305,-190.783"/>
<polygon fill="midnightblue" stroke="midnightblue" points="703.581,-194.046 711.924,-187.516 701.329,-187.418 703.581,-194.046"/>
</g>
<!-- Node19&#45;&gt;Node10 -->
<g id="edge29" class="edge"><title>Node19&#45;&gt;Node10</title>
<path fill="none" stroke="midnightblue" d="M627.436,-232.255C752.121,-229.906 1076.73,-220.736 1179,-188 1195.33,-182.772 1196.71,-175.764 1212,-168 1236.66,-155.48 1265.64,-143.549 1287.36,-135.122"/>
<polygon fill="midnightblue" stroke="midnightblue" points="1288.71,-138.354 1296.8,-131.507 1286.2,-131.818 1288.71,-138.354"/>
</g>
<!-- Node19&#45;&gt;Node11 -->
<g id="edge36" class="edge"><title>Node19&#45;&gt;Node11</title>
<path fill="none" stroke="midnightblue" d="M627.414,-229.415C674.869,-224.568 747.744,-213.385 806,-188 867.54,-161.184 928.516,-108.744 956.744,-82.597"/>
<polygon fill="midnightblue" stroke="midnightblue" points="959.223,-85.0703 964.115,-75.6725 954.43,-79.9684 959.223,-85.0703"/>
</g>
<!-- Node19&#45;&gt;Node12 -->
<g id="edge35" class="edge"><title>Node19&#45;&gt;Node12</title>
<path fill="none" stroke="midnightblue" d="M563.554,-224.41C541.809,-211.594 499.242,-186.946 462,-168 439.16,-156.381 412.729,-144.322 393.075,-135.616"/>
<polygon fill="midnightblue" stroke="midnightblue" points="394.307,-132.334 383.744,-131.508 391.487,-138.741 394.307,-132.334"/>
</g>
<!-- Node19&#45;&gt;Node13 -->
<g id="edge40" class="edge"><title>Node19&#45;&gt;Node13</title>
<path fill="none" stroke="midnightblue" d="M569.67,-224.386C561.783,-215.801 550.12,-201.923 543,-188 535.472,-173.28 530.482,-155.118 527.512,-141.738"/>
<polygon fill="midnightblue" stroke="midnightblue" points="530.913,-140.9 525.482,-131.803 524.055,-142.301 530.913,-140.9"/>
</g>
<!-- Node19&#45;&gt;Node14 -->
<g id="edge31" class="edge"><title>Node19&#45;&gt;Node14</title>
<path fill="none" stroke="midnightblue" d="M627.42,-227.586C680.63,-220.844 760.789,-207.748 784,-188 811.658,-164.469 796.923,-144.048 814,-112 819.242,-102.162 826.203,-91.8755 832.2,-83.6241"/>
<polygon fill="midnightblue" stroke="midnightblue" points="835.023,-85.6934 838.203,-75.5869 829.415,-81.5046 835.023,-85.6934"/>
</g>
<!-- Node19&#45;&gt;Node15 -->
<g id="edge28" class="edge"><title>Node19&#45;&gt;Node15</title>
<path fill="none" stroke="midnightblue" d="M588.721,-224.206C603.672,-210.908 627.321,-185.393 612,-168 528.193,-72.8561 412.807,-227.144 329,-132 323.125,-125.33 323.507,-118.989 329,-112 338.463,-99.9595 431.171,-81.7698 481.643,-72.6434"/>
<polygon fill="midnightblue" stroke="midnightblue" points="482.5,-76.0457 491.727,-70.8389 481.267,-69.1552 482.5,-76.0457"/>
</g>
<!-- Node19&#45;&gt;Node17 -->
<g id="edge39" class="edge"><title>Node19&#45;&gt;Node17</title>
<path fill="none" stroke="midnightblue" d="M552.612,-224.487C528.771,-216.182 492.33,-202.684 462,-188 446.221,-180.36 443.949,-175.279 428,-168 382.354,-147.168 357.227,-166.715 321,-132 308.2,-119.734 301.862,-100.196 298.782,-85.7397"/>
<polygon fill="midnightblue" stroke="midnightblue" points="302.223,-85.1027 297.009,-75.8801 295.334,-86.3417 302.223,-85.1027"/>
</g>
<!-- Node19&#45;&gt;Node18 -->
<g id="edge42" class="edge"><title>Node19&#45;&gt;Node18</title>
<path fill="none" stroke="midnightblue" d="M528.767,-227.17C446.414,-217.417 280.675,-197.79 188.2,-186.839"/>
<polygon fill="midnightblue" stroke="midnightblue" points="188.459,-183.346 178.117,-185.645 187.636,-190.297 188.459,-183.346"/>
</g>
<!-- Node20 -->
<g id="node20" class="node"><title>Node20</title>
<polygon fill="white" stroke="#bfbfbf" points="1077.5,-112.5 1077.5,-131.5 1136.5,-131.5 1136.5,-112.5 1077.5,-112.5"/>
<text text-anchor="middle" x="1107" y="-119.5" font-family="Helvetica,sans-Serif" font-size="10.00">functional</text>
</g>
<!-- Node19&#45;&gt;Node20 -->
<g id="edge30" class="edge"><title>Node19&#45;&gt;Node20</title>
<path fill="none" stroke="midnightblue" d="M627.043,-229.244C692.446,-223.585 811.534,-211.003 911,-188 970.637,-174.208 1037.91,-149.899 1076.11,-135.237"/>
<polygon fill="midnightblue" stroke="midnightblue" points="1077.56,-138.427 1085.62,-131.552 1075.03,-131.899 1077.56,-138.427"/>
</g>
<!-- Node21 -->
<g id="node21" class="node"><title>Node21</title>
<polygon fill="white" stroke="#bfbfbf" points="552.5,-168.5 552.5,-187.5 603.5,-187.5 603.5,-168.5 552.5,-168.5"/>
<text text-anchor="middle" x="578" y="-175.5" font-family="Helvetica,sans-Serif" font-size="10.00">numeric</text>
</g>
<!-- Node19&#45;&gt;Node21 -->
<g id="edge32" class="edge"><title>Node19&#45;&gt;Node21</title>
<path fill="none" stroke="midnightblue" d="M578,-224.083C578,-217.006 578,-206.861 578,-197.986"/>
<polygon fill="midnightblue" stroke="midnightblue" points="581.5,-197.751 578,-187.751 574.5,-197.751 581.5,-197.751"/>
</g>
<!-- Node22 -->
<g id="node22" class="node"><title>Node22</title>
<polygon fill="white" stroke="#bfbfbf" points="234,-168.5 234,-187.5 280,-187.5 280,-168.5 234,-168.5"/>
<text text-anchor="middle" x="257" y="-175.5" font-family="Helvetica,sans-Serif" font-size="10.00">chrono</text>
</g>
<!-- Node19&#45;&gt;Node22 -->
<g id="edge33" class="edge"><title>Node19&#45;&gt;Node22</title>
<path fill="none" stroke="midnightblue" d="M528.836,-227.168C473.149,-220.157 379.551,-207.154 290.349,-188.082"/>
<polygon fill="midnightblue" stroke="midnightblue" points="290.852,-184.61 280.338,-185.912 289.369,-191.451 290.852,-184.61"/>
</g>
<!-- Node23 -->
<g id="node23" class="node"><title>Node23</title>
<polygon fill="white" stroke="#bfbfbf" points="298.5,-168.5 298.5,-187.5 339.5,-187.5 339.5,-168.5 298.5,-168.5"/>
<text text-anchor="middle" x="319" y="-175.5" font-family="Helvetica,sans-Serif" font-size="10.00">string</text>
</g>
<!-- Node19&#45;&gt;Node23 -->
<g id="edge34" class="edge"><title>Node19&#45;&gt;Node23</title>
<path fill="none" stroke="midnightblue" d="M528.557,-224.72C484.153,-216.961 417.013,-204.436 349.539,-187.927"/>
<polygon fill="midnightblue" stroke="midnightblue" points="350.132,-184.469 339.584,-185.463 348.45,-191.264 350.132,-184.469"/>
</g>
<!-- Node24 -->
<g id="node24" class="node"><title>Node24</title>
<polygon fill="white" stroke="#bfbfbf" points="1362.5,-112.5 1362.5,-131.5 1411.5,-131.5 1411.5,-112.5 1362.5,-112.5"/>
<text text-anchor="middle" x="1387" y="-119.5" font-family="Helvetica,sans-Serif" font-size="10.00">ptrlist.h</text>
</g>
<!-- Node19&#45;&gt;Node24 -->
<g id="edge37" class="edge"><title>Node19&#45;&gt;Node24</title>
<path fill="none" stroke="midnightblue" d="M627.294,-231.278C755.834,-226.501 1098.96,-211.844 1210,-188 1264.77,-176.241 1325.4,-151.162 1359.58,-135.823"/>
<polygon fill="midnightblue" stroke="midnightblue" points="1361.25,-138.911 1368.91,-131.587 1358.35,-132.538 1361.25,-138.911"/>
</g>
<!-- Node25 -->
<g id="node25" class="node"><title>Node25</title>
<polygon fill="white" stroke="#bfbfbf" points="358,-168.5 358,-187.5 420,-187.5 420,-168.5 358,-168.5"/>
<text text-anchor="middle" x="389" y="-175.5" font-family="Helvetica,sans-Serif" font-size="10.00">nanosvg.h</text>
</g>
<!-- Node19&#45;&gt;Node25 -->
<g id="edge38" class="edge"><title>Node19&#45;&gt;Node25</title>
<path fill="none" stroke="midnightblue" d="M548.052,-224.444C515.842,-215.241 464.466,-200.562 428.858,-190.388"/>
<polygon fill="midnightblue" stroke="midnightblue" points="429.384,-186.898 418.808,-187.516 427.461,-193.629 429.384,-186.898"/>
</g>
<!-- Node26&#45;&gt;Node18 -->
<g id="edge44" class="edge"><title>Node26&#45;&gt;Node18</title>
<path fill="none" stroke="midnightblue" d="M508.737,-286.659C421.75,-281.979 247.153,-269.642 192,-244 168.366,-233.012 147.369,-211.019 134.678,-195.673"/>
<polygon fill="midnightblue" stroke="midnightblue" points="137.173,-193.187 128.209,-187.54 131.695,-197.545 137.173,-193.187"/>
</g>
<!-- Node26&#45;&gt;Node19 -->
<g id="edge45" class="edge"><title>Node26&#45;&gt;Node19</title>
<path fill="none" stroke="midnightblue" d="M562.137,-280.083C564.683,-272.849 568.356,-262.409 571.527,-253.397"/>
<polygon fill="midnightblue" stroke="midnightblue" points="574.903,-254.346 574.921,-243.751 568.3,-252.023 574.903,-254.346"/>
</g>
<!-- Node27&#45;&gt;Node4 -->
<g id="edge49" class="edge"><title>Node27&#45;&gt;Node4</title>
<path fill="none" stroke="midnightblue" d="M1482.42,-168.295C1491.63,-154.652 1506.04,-128.13 1492,-112 1454.45,-68.8517 1274.94,-65.7827 1200.97,-66.4048"/>
<polygon fill="midnightblue" stroke="midnightblue" points="1200.81,-62.9063 1190.85,-66.5191 1200.89,-69.9059 1200.81,-62.9063"/>
</g>
<!-- Node27&#45;&gt;Node8 -->
<g id="edge48" class="edge"><title>Node27&#45;&gt;Node8</title>
<path fill="none" stroke="midnightblue" d="M1486.34,-168.31C1500.77,-155.148 1523.61,-129.808 1509,-112 1439.72,-27.5489 1079.47,-13.7081 967.346,-11.4426"/>
<polygon fill="midnightblue" stroke="midnightblue" points="967.351,-7.94223 957.288,-11.2576 967.222,-14.941 967.351,-7.94223"/>
</g>
<!-- Node27&#45;&gt;Node10 -->
<g id="edge50" class="edge"><title>Node27&#45;&gt;Node10</title>
<path fill="none" stroke="midnightblue" d="M1451.28,-168.444C1425.15,-159.399 1383.74,-145.064 1354.42,-134.916"/>
<polygon fill="midnightblue" stroke="midnightblue" points="1355.2,-131.48 1344.6,-131.516 1352.91,-138.095 1355.2,-131.48"/>
</g>
<!-- Node27&#45;&gt;Node11 -->
<g id="edge51" class="edge"><title>Node27&#45;&gt;Node11</title>
<path fill="none" stroke="midnightblue" d="M1475.86,-168.16C1475.12,-153.828 1471.38,-125.741 1454,-112 1436.87,-98.4617 1129.31,-77.1713 1015.17,-69.6998"/>
<polygon fill="midnightblue" stroke="midnightblue" points="1015.27,-66.1988 1005.07,-69.0411 1014.82,-73.184 1015.27,-66.1988"/>
</g>
<!-- Node27&#45;&gt;Node15 -->
<g id="edge47" class="edge"><title>Node27&#45;&gt;Node15</title>
<path fill="none" stroke="midnightblue" d="M1471.57,-168.281C1463.57,-153.588 1445.16,-124.297 1420,-112 1380.02,-92.4566 704.09,-72.3367 546.608,-67.8998"/>
<polygon fill="midnightblue" stroke="midnightblue" points="546.275,-64.3892 536.181,-67.6077 546.079,-71.3865 546.275,-64.3892"/>
</g>
<!-- Node27&#45;&gt;Node24 -->
<g id="edge52" class="edge"><title>Node27&#45;&gt;Node24</title>
<path fill="none" stroke="midnightblue" d="M1461.7,-168.324C1447.82,-159.9 1426.51,-146.971 1410.2,-137.074"/>
<polygon fill="midnightblue" stroke="midnightblue" points="1411.63,-133.85 1401.26,-131.655 1408,-139.834 1411.63,-133.85"/>
</g>
<!-- Node29 -->
<g id="node29" class="node"><title>Node29</title>
<g id="a_node29"><a xlink:href="_i_plug_editor_delegate_8h.html" target="_top" xlink:title="This pure virtual interface delegates communication in both directions between a UI editor and someth...">
<polygon fill="white" stroke="black" points="1104,-336.5 1104,-355.5 1216,-355.5 1216,-336.5 1104,-336.5"/>
<text text-anchor="middle" x="1160" y="-343.5" font-family="Helvetica,sans-Serif" font-size="10.00">IPlugEditorDelegate.h</text>
</a>
</g>
</g>
<!-- Node28&#45;&gt;Node29 -->
<g id="edge54" class="edge"><title>Node28&#45;&gt;Node29</title>
<path fill="none" stroke="midnightblue" d="M993.374,-392.444C1027.26,-383.201 1081.4,-368.436 1118.72,-358.257"/>
<polygon fill="midnightblue" stroke="midnightblue" points="1120.05,-361.524 1128.77,-355.516 1118.2,-354.771 1120.05,-361.524"/>
</g>
<!-- Node29&#45;&gt;Node8 -->
<g id="edge56" class="edge"><title>Node29&#45;&gt;Node8</title>
<path fill="none" stroke="midnightblue" d="M1214.77,-336.469C1344.43,-313.901 1652.42,-245.037 1558,-112 1488.94,-14.6917 1086.94,-9.82254 967.472,-10.5618"/>
<polygon fill="midnightblue" stroke="midnightblue" points="967.099,-7.0646 957.128,-10.6448 967.155,-14.0644 967.099,-7.0646"/>
</g>
<!-- Node29&#45;&gt;Node10 -->
<g id="edge55" class="edge"><title>Node29&#45;&gt;Node10</title>
<path fill="none" stroke="midnightblue" d="M1174.68,-336.436C1187.74,-328.289 1206.77,-315.065 1220,-300 1264.77,-249.036 1298.68,-174.828 1312.8,-141.005"/>
<polygon fill="midnightblue" stroke="midnightblue" points="1316.14,-142.104 1316.68,-131.523 1309.66,-139.454 1316.14,-142.104"/>
</g>
<!-- Node29&#45;&gt;Node24 -->
<g id="edge58" class="edge"><title>Node29&#45;&gt;Node24</title>
<path fill="none" stroke="midnightblue" d="M1180.55,-336.407C1198,-328.509 1223.14,-315.668 1242,-300 1301.24,-250.792 1353.91,-174.608 1375.99,-140.524"/>
<polygon fill="midnightblue" stroke="midnightblue" points="1379.17,-142.039 1381.61,-131.728 1373.28,-138.269 1379.17,-142.039"/>
</g>
<!-- Node30 -->
<g id="node30" class="node"><title>Node30</title>
<polygon fill="white" stroke="#bfbfbf" points="1162.5,-280.5 1162.5,-299.5 1211.5,-299.5 1211.5,-280.5 1162.5,-280.5"/>
<text text-anchor="middle" x="1187" y="-287.5" font-family="Helvetica,sans-Serif" font-size="10.00">stdint.h</text>
</g>
<!-- Node29&#45;&gt;Node30 -->
<g id="edge57" class="edge"><title>Node29&#45;&gt;Node30</title>
<path fill="none" stroke="midnightblue" d="M1164.46,-336.083C1168.15,-328.691 1173.52,-317.953 1178.09,-308.811"/>
<polygon fill="midnightblue" stroke="midnightblue" points="1181.28,-310.261 1182.62,-299.751 1175.02,-307.13 1181.28,-310.261"/>
</g>
<!-- Node31 -->
<g id="node31" class="node"><title>Node31</title>
<g id="a_node31"><a xlink:href="_i_plug_parameter_8h.html" target="_top" xlink:title="IPlug&#39;s parameter class. ">
<polygon fill="white" stroke="black" points="1078,-168.5 1078,-187.5 1170,-187.5 1170,-168.5 1078,-168.5"/>
<text text-anchor="middle" x="1124" y="-175.5" font-family="Helvetica,sans-Serif" font-size="10.00">IPlugParameter.h</text>
</a>
</g>
</g>
<!-- Node29&#45;&gt;Node31 -->
<g id="edge59" class="edge"><title>Node29&#45;&gt;Node31</title>
<path fill="none" stroke="midnightblue" d="M1158.06,-336.075C1152.4,-309.945 1135.76,-233.211 1128.03,-197.577"/>
<polygon fill="midnightblue" stroke="midnightblue" points="1131.4,-196.599 1125.86,-187.568 1124.56,-198.083 1131.4,-196.599"/>
</g>
<!-- Node33 -->
<g id="node33" class="node"><title>Node33</title>
<g id="a_node33"><a xlink:href="_i_plug_midi_8h.html" target="_top" xlink:title="MIDI and sysex structs/utilites. ">
<polygon fill="white" stroke="black" points="1040.5,-224.5 1040.5,-243.5 1105.5,-243.5 1105.5,-224.5 1040.5,-224.5"/>
<text text-anchor="middle" x="1073" y="-231.5" font-family="Helvetica,sans-Serif" font-size="10.00">IPlugMidi.h</text>
</a>
</g>
</g>
<!-- Node29&#45;&gt;Node33 -->
<g id="edge65" class="edge"><title>Node29&#45;&gt;Node33</title>
<path fill="none" stroke="midnightblue" d="M1151.76,-336.264C1143.48,-327.36 1130.47,-313.043 1120,-300 1107.37,-284.27 1093.99,-265.532 1084.75,-252.225"/>
<polygon fill="midnightblue" stroke="midnightblue" points="1087.37,-249.867 1078.82,-243.616 1081.61,-253.837 1087.37,-249.867"/>
</g>
<!-- Node34 -->
<g id="node34" class="node"><title>Node34</title>
<g id="a_node34"><a xlink:href="_i_plug_structs_8h_source.html" target="_top" xlink:title="IPlugStructs.h">
<polygon fill="white" stroke="black" points="965.5,-280.5 965.5,-299.5 1044.5,-299.5 1044.5,-280.5 965.5,-280.5"/>
<text text-anchor="middle" x="1005" y="-287.5" font-family="Helvetica,sans-Serif" font-size="10.00">IPlugStructs.h</text>
</a>
</g>
</g>
<!-- Node29&#45;&gt;Node34 -->
<g id="edge71" class="edge"><title>Node29&#45;&gt;Node34</title>
<path fill="none" stroke="midnightblue" d="M1135.44,-336.444C1109.48,-327.399 1068.33,-313.064 1039.2,-302.916"/>
<polygon fill="midnightblue" stroke="midnightblue" points="1040.04,-299.501 1029.45,-299.516 1037.74,-306.112 1040.04,-299.501"/>
</g>
<!-- Node31&#45;&gt;Node8 -->
<g id="edge61" class="edge"><title>Node31&#45;&gt;Node8</title>
<path fill="none" stroke="midnightblue" d="M1161.29,-168.461C1193.94,-160.138 1237.75,-146.628 1248,-132 1253.1,-124.721 1251.13,-120.321 1248,-112 1236.37,-81.0416 1227.86,-72.1473 1199,-56 1159.73,-34.0307 1029.25,-19.6247 967.258,-13.8538"/>
<polygon fill="midnightblue" stroke="midnightblue" points="967.494,-10.3609 957.218,-12.9391 966.859,-17.332 967.494,-10.3609"/>
</g>
<!-- Node31&#45;&gt;Node11 -->
<g id="edge63" class="edge"><title>Node31&#45;&gt;Node11</title>
<path fill="none" stroke="midnightblue" d="M1131.56,-168.129C1142.01,-154.73 1158.19,-129.084 1145,-112 1129.26,-91.6139 1060.95,-78.6839 1015.3,-72.152"/>
<polygon fill="midnightblue" stroke="midnightblue" points="1015.75,-68.6807 1005.36,-70.7793 1014.79,-75.6149 1015.75,-68.6807"/>
</g>
<!-- Node31&#45;&gt;Node13 -->
<g id="edge64" class="edge"><title>Node31&#45;&gt;Node13</title>
<path fill="none" stroke="midnightblue" d="M1077.99,-173.206C988.177,-165.747 783.213,-148.46 611,-132 599.192,-130.871 586.489,-129.594 574.538,-128.363"/>
<polygon fill="midnightblue" stroke="midnightblue" points="574.577,-124.848 564.269,-127.298 573.855,-131.811 574.577,-124.848"/>
</g>
<!-- Node31&#45;&gt;Node20 -->
<g id="edge62" class="edge"><title>Node31&#45;&gt;Node20</title>
<path fill="none" stroke="midnightblue" d="M1121.19,-168.083C1118.92,-160.849 1115.63,-150.409 1112.79,-141.397"/>
<polygon fill="midnightblue" stroke="midnightblue" points="1116.1,-140.239 1109.75,-131.751 1109.42,-142.341 1116.1,-140.239"/>
</g>
<!-- Node32 -->
<g id="node32" class="node"><title>Node32</title>
<polygon fill="white" stroke="#bfbfbf" points="1193,-112.5 1193,-131.5 1239,-131.5 1239,-112.5 1193,-112.5"/>
<text text-anchor="middle" x="1216" y="-119.5" font-family="Helvetica,sans-Serif" font-size="10.00">atomic</text>
</g>
<!-- Node31&#45;&gt;Node32 -->
<g id="edge60" class="edge"><title>Node31&#45;&gt;Node32</title>
<path fill="none" stroke="midnightblue" d="M1138.78,-168.324C1153.27,-159.822 1175.57,-146.729 1192.49,-136.797"/>
<polygon fill="midnightblue" stroke="midnightblue" points="1194.4,-139.735 1201.26,-131.655 1190.86,-133.698 1194.4,-139.735"/>
</g>
<!-- Node33&#45;&gt;Node3 -->
<g id="edge70" class="edge"><title>Node33&#45;&gt;Node3</title>
<path fill="none" stroke="midnightblue" d="M1040.48,-227.773C981.263,-218.257 855.559,-198.054 785.949,-186.867"/>
<polygon fill="midnightblue" stroke="midnightblue" points="786.117,-183.349 775.688,-185.218 785.006,-190.26 786.117,-183.349"/>
</g>
<!-- Node33&#45;&gt;Node4 -->
<g id="edge68" class="edge"><title>Node33&#45;&gt;Node4</title>
<path fill="none" stroke="midnightblue" d="M1105.55,-232.365C1207.33,-230.048 1514.54,-220.405 1544,-188 1643.43,-78.619 1307.85,-67.6813 1200.77,-66.9299"/>
<polygon fill="midnightblue" stroke="midnightblue" points="1200.59,-63.4292 1190.57,-66.885 1200.55,-70.4291 1200.59,-63.4292"/>
</g>
<!-- Node33&#45;&gt;Node7 -->
<g id="edge67" class="edge"><title>Node33&#45;&gt;Node7</title>
<path fill="none" stroke="midnightblue" d="M1048.09,-224.36C1024.69,-215.966 988.904,-202.408 959,-188 926.53,-172.356 890.73,-151.022 868.307,-137.131"/>
<polygon fill="midnightblue" stroke="midnightblue" points="869.901,-134 859.565,-131.672 866.193,-139.938 869.901,-134"/>
</g>
<!-- Node33&#45;&gt;Node10 -->
<g id="edge66" class="edge"><title>Node33&#45;&gt;Node10</title>
<path fill="none" stroke="midnightblue" d="M1105.53,-224.744C1134.21,-216.935 1176.8,-204.035 1212,-188 1243.92,-173.46 1278.21,-151.647 1299.38,-137.368"/>
<polygon fill="midnightblue" stroke="midnightblue" points="1301.59,-140.101 1307.87,-131.572 1297.64,-134.319 1301.59,-140.101"/>
</g>
<!-- Node33&#45;&gt;Node14 -->
<g id="edge69" class="edge"><title>Node33&#45;&gt;Node14</title>
<path fill="none" stroke="midnightblue" d="M1066.04,-224.281C1048.44,-202.721 999.961,-146.178 949,-112 928.124,-97.9996 902.181,-86.7651 881.429,-79.023"/>
<polygon fill="midnightblue" stroke="midnightblue" points="882.594,-75.7228 872,-75.6103 880.212,-82.3049 882.594,-75.7228"/>
</g>
<!-- Node34&#45;&gt;Node2 -->
<g id="edge75" class="edge"><title>Node34&#45;&gt;Node2</title>
<path fill="none" stroke="midnightblue" d="M965.284,-287.985C792.86,-283.16 115.232,-259.713 57,-188 30.187,-154.98 70.9281,-107.264 96.2771,-82.7879"/>
<polygon fill="midnightblue" stroke="midnightblue" points="98.9411,-85.0891 103.861,-75.706 94.1636,-79.9728 98.9411,-85.0891"/>
</g>
<!-- Node34&#45;&gt;Node11 -->
<g id="edge73" class="edge"><title>Node34&#45;&gt;Node11</title>
<path fill="none" stroke="midnightblue" d="M1003.75,-280.297C999.037,-247.633 982.35,-131.866 975.733,-85.9573"/>
<polygon fill="midnightblue" stroke="midnightblue" points="979.172,-85.2821 974.281,-75.8837 972.243,-86.2808 979.172,-85.2821"/>
</g>
<!-- Node34&#45;&gt;Node13 -->
<g id="edge78" class="edge"><title>Node34&#45;&gt;Node13</title>
<path fill="none" stroke="midnightblue" d="M976.031,-280.439C920.143,-263.771 793.709,-225.312 689,-188 641.296,-171.001 586.777,-149.012 553.893,-135.464"/>
<polygon fill="midnightblue" stroke="midnightblue" points="554.993,-132.131 544.414,-131.545 552.318,-138.6 554.993,-132.131"/>
</g>
<!-- Node34&#45;&gt;Node14 -->
<g id="edge72" class="edge"><title>Node34&#45;&gt;Node14</title>
<path fill="none" stroke="midnightblue" d="M998.689,-280.136C980.22,-254.21 924.636,-176.29 878,-112 871.232,-102.67 863.628,-92.2936 857.426,-83.8579"/>
<polygon fill="midnightblue" stroke="midnightblue" points="860.1,-81.586 851.353,-75.6074 854.462,-85.7357 860.1,-81.586"/>
</g>
<!-- Node34&#45;&gt;Node17 -->
<g id="edge76" class="edge"><title>Node34&#45;&gt;Node17</title>
<path fill="none" stroke="midnightblue" d="M965.388,-286.974C813.291,-278.785 272.843,-245.779 225,-188 196.3,-153.339 246.01,-105.682 275.898,-81.8426"/>
<polygon fill="midnightblue" stroke="midnightblue" points="278.309,-84.4027 284.076,-75.5145 274.025,-78.8667 278.309,-84.4027"/>
</g>
<!-- Node34&#45;&gt;Node24 -->
<g id="edge74" class="edge"><title>Node34&#45;&gt;Node24</title>
<path fill="none" stroke="midnightblue" d="M1028.2,-280.436C1072.93,-263.761 1174.03,-225.294 1257,-188 1293.94,-171.397 1335.66,-150.064 1361.64,-136.457"/>
<polygon fill="midnightblue" stroke="midnightblue" points="1363.57,-139.399 1370.79,-131.647 1360.31,-133.204 1363.57,-139.399"/>
</g>
<!-- Node34&#45;&gt;Node33 -->
<g id="edge77" class="edge"><title>Node34&#45;&gt;Node33</title>
<path fill="none" stroke="midnightblue" d="M1015.93,-280.324C1026.17,-272.185 1041.72,-259.839 1054,-250.087"/>
<polygon fill="midnightblue" stroke="midnightblue" points="1056.22,-252.794 1061.88,-243.834 1051.87,-247.312 1056.22,-252.794"/>
</g>
</g>
</svg>
        <g id="navigator" transform="translate(0 0)" fill="#404254">
                <rect fill="#f2f5e9" fill-opacity="0.5" stroke="#606060" stroke-width=".5" x="0" y="0" width="60" height="60"/>
                <use id="zoomplus" xlink:href="#zoomPlus" x="17" y="9" onmousedown="handleZoom(evt,'in')"/>
                <use id="zoomminus" xlink:href="#zoomMin" x="42" y="9" onmousedown="handleZoom(evt,'out')"/>
                <use id="reset" xlink:href="#resetDef" x="30" y="36" onmousedown="handleReset()"/>
                <g id="arrowUp" xlink:href="#dirArrow" transform="translate(30 24)" onmousedown="handlePan(0,-1)">
                  <use xlink:href="#rim" fill="#404040">
                        <set attributeName="fill" to="#808080" begin="arrowUp.mouseover" end="arrowUp.mouseout"/>
                  </use>
                  <path fill="none" stroke="white" stroke-width="1.5" d="M0,-3.0v7 M-2.5,-0.5L0,-3.0L2.5,-0.5"/>
                </g>
                <g id="arrowRight" xlink:href="#dirArrow" transform="rotate(90) translate(36 -43)" onmousedown="handlePan(1,0)">
                  <use xlink:href="#rim" fill="#404040">
                        <set attributeName="fill" to="#808080" begin="arrowRight.mouseover" end="arrowRight.mouseout"/>
                  </use>
                  <path fill="none" stroke="white" stroke-width="1.5" d="M0,-3.0v7 M-2.5,-0.5L0,-3.0L2.5,-0.5"/>
                </g>
                <g id="arrowDown" xlink:href="#dirArrow" transform="rotate(180) translate(-30 -48)" onmousedown="handlePan(0,1)">
                  <use xlink:href="#rim" fill="#404040">
                        <set attributeName="fill" to="#808080" begin="arrowDown.mouseover" end="arrowDown.mouseout"/>
                  </use>
                  <path fill="none" stroke="white" stroke-width="1.5" d="M0,-3.0v7 M-2.5,-0.5L0,-3.0L2.5,-0.5"/>
                </g>
                <g id="arrowLeft" xlink:href="#dirArrow" transform="rotate(270) translate(-36 17)" onmousedown="handlePan(-1,0)">
                  <use xlink:href="#rim" fill="#404040">
                        <set attributeName="fill" to="#808080" begin="arrowLeft.mouseover" end="arrowLeft.mouseout"/>
                  </use>
                  <path fill="none" stroke="white" stroke-width="1.5" d="M0,-3.0v7 M-2.5,-0.5L0,-3.0L2.5,-0.5"/>
                </g>
        </g>
        <svg viewBox="0 0 15 15" width="100%" height="30px" preserveAspectRatio="xMaxYMin meet">
         <g id="arrow_out" transform="scale(0.3 0.3)">
          <a xlink:href="_i_graphics_8h__incl_org.svg" target="_base">
           <rect id="button" ry="5" rx="5" y="6" x="6" height="38" width="38"
                fill="#f2f5e9" fill-opacity="0.5" stroke="#606060" stroke-width="1.0"/>
           <path id="arrow"
             d="M 11.500037,31.436501 C 11.940474,20.09759 22.043105,11.32322 32.158766,21.979434 L 37.068811,17.246167 C 37.068811,17.246167 37.088388,32 37.088388,32 L 22.160133,31.978069 C 22.160133,31.978069 26.997745,27.140456 26.997745,27.140456 C 18.528582,18.264221 13.291696,25.230495 11.500037,31.436501 z"
             style="fill:#404040;"/>
          </a>
         </g>
        </svg>
</svg>
