<?xml version="1.0" encoding="UTF-8" standalone="no"?>
<!DOCTYPE svg PUBLIC "-//W3C//DTD SVG 1.1//EN"
 "http://www.w3.org/Graphics/SVG/1.1/DTD/svg11.dtd">
<!-- Generated by graphviz version 2.36.0 (20140111.2315)
 -->
<!-- Title: IGraphicsPopupMenu.h Pages: 1 -->
<svg width="394pt" height="84pt"
 viewBox="0.00 0.00 394.00 84.00" xmlns="http://www.w3.org/2000/svg" xmlns:xlink="http://www.w3.org/1999/xlink">
<g id="graph0" class="graph" transform="scale(1 1) rotate(0) translate(4 80)">
<title>IGraphicsPopupMenu.h</title>
<polygon fill="white" stroke="none" points="-4,4 -4,-80 390,-80 390,4 -4,4"/>
<!-- Node1 -->
<g id="node1" class="node"><title>Node1</title>
<polygon fill="#bfbfbf" stroke="black" points="120.5,-56.5 120.5,-75.5 239.5,-75.5 239.5,-56.5 120.5,-56.5"/>
<text text-anchor="middle" x="180" y="-63.5" font-family="Helvetica,sans-Serif" font-size="10.00">IGraphicsPopupMenu.h</text>
</g>
<!-- Node2 -->
<g id="node2" class="node"><title>Node2</title>
<polygon fill="white" stroke="#bfbfbf" points="0,-0.5 0,-19.5 44,-19.5 44,-0.5 0,-0.5"/>
<text text-anchor="middle" x="22" y="-7.5" font-family="Helvetica,sans-Serif" font-size="10.00">cmath</text>
</g>
<!-- Node1&#45;&gt;Node2 -->
<g id="edge1" class="edge"><title>Node1&#45;&gt;Node2</title>
<path fill="none" stroke="midnightblue" d="M154.964,-56.4435C127.524,-47.0652 83.4447,-32.0001 53.6327,-21.8112"/>
<polygon fill="midnightblue" stroke="midnightblue" points="54.7087,-18.4802 44.1141,-18.558 52.4448,-25.104 54.7087,-18.4802"/>
</g>
<!-- Node3 -->
<g id="node3" class="node"><title>Node3</title>
<polygon fill="white" stroke="#bfbfbf" points="62,-0.5 62,-19.5 108,-19.5 108,-0.5 62,-0.5"/>
<text text-anchor="middle" x="85" y="-7.5" font-family="Helvetica,sans-Serif" font-size="10.00">cstring</text>
</g>
<!-- Node1&#45;&gt;Node3 -->
<g id="edge2" class="edge"><title>Node1&#45;&gt;Node3</title>
<path fill="none" stroke="midnightblue" d="M164.737,-56.324C149.779,-47.8215 126.745,-34.7288 109.273,-24.7975"/>
<polygon fill="midnightblue" stroke="midnightblue" points="110.649,-21.5534 100.226,-19.6545 107.19,-27.639 110.649,-21.5534"/>
</g>
<!-- Node4 -->
<g id="node4" class="node"><title>Node4</title>
<polygon fill="white" stroke="#bfbfbf" points="126.5,-0.5 126.5,-19.5 169.5,-19.5 169.5,-0.5 126.5,-0.5"/>
<text text-anchor="middle" x="148" y="-7.5" font-family="Helvetica,sans-Serif" font-size="10.00">cstdio</text>
</g>
<!-- Node1&#45;&gt;Node4 -->
<g id="edge3" class="edge"><title>Node1&#45;&gt;Node4</title>
<path fill="none" stroke="midnightblue" d="M174.716,-56.083C170.289,-48.6127 163.837,-37.7244 158.382,-28.5199"/>
<polygon fill="midnightblue" stroke="midnightblue" points="161.295,-26.5697 153.186,-19.7511 155.273,-30.1383 161.295,-26.5697"/>
</g>
<!-- Node5 -->
<g id="node5" class="node"><title>Node5</title>
<polygon fill="white" stroke="#bfbfbf" points="187.5,-0.5 187.5,-19.5 236.5,-19.5 236.5,-0.5 187.5,-0.5"/>
<text text-anchor="middle" x="212" y="-7.5" font-family="Helvetica,sans-Serif" font-size="10.00">cassert</text>
</g>
<!-- Node1&#45;&gt;Node5 -->
<g id="edge4" class="edge"><title>Node1&#45;&gt;Node5</title>
<path fill="none" stroke="midnightblue" d="M185.284,-56.083C189.711,-48.6127 196.163,-37.7244 201.618,-28.5199"/>
<polygon fill="midnightblue" stroke="midnightblue" points="204.727,-30.1383 206.814,-19.7511 198.705,-26.5697 204.727,-30.1383"/>
</g>
<!-- Node6 -->
<g id="node6" class="node"><title>Node6</title>
<polygon fill="white" stroke="#bfbfbf" points="255,-0.5 255,-19.5 319,-19.5 319,-0.5 255,-0.5"/>
<text text-anchor="middle" x="287" y="-7.5" font-family="Helvetica,sans-Serif" font-size="10.00">wdlstring.h</text>
</g>
<!-- Node1&#45;&gt;Node6 -->
<g id="edge5" class="edge"><title>Node1&#45;&gt;Node6</title>
<path fill="none" stroke="midnightblue" d="M197.191,-56.324C214.351,-47.6641 240.946,-34.2424 260.747,-24.249"/>
<polygon fill="midnightblue" stroke="midnightblue" points="262.501,-27.2847 269.851,-19.6545 259.347,-21.0354 262.501,-27.2847"/>
</g>
<!-- Node7 -->
<g id="node7" class="node"><title>Node7</title>
<polygon fill="white" stroke="#bfbfbf" points="337.5,-0.5 337.5,-19.5 386.5,-19.5 386.5,-0.5 337.5,-0.5"/>
<text text-anchor="middle" x="362" y="-7.5" font-family="Helvetica,sans-Serif" font-size="10.00">ptrlist.h</text>
</g>
<!-- Node1&#45;&gt;Node7 -->
<g id="edge6" class="edge"><title>Node1&#45;&gt;Node7</title>
<path fill="none" stroke="midnightblue" d="M208.838,-56.4435C241.133,-46.8617 293.435,-31.3435 327.775,-21.1548"/>
<polygon fill="midnightblue" stroke="midnightblue" points="328.791,-24.5041 337.382,-18.3042 326.8,-17.7933 328.791,-24.5041"/>
</g>
</g>
</svg>
