<?xml version="1.0" encoding="UTF-8" standalone="no"?>
<!DOCTYPE svg PUBLIC "-//W3C//DTD SVG 1.1//EN"
 "http://www.w3.org/Graphics/SVG/1.1/DTD/svg11.dtd">
<!-- Generated by graphviz version 2.36.0 (20140111.2315)
 -->
<!-- Title: IGraphics.h Pages: 1 -->
<svg width="4445pt" height="252pt"
 viewBox="0.00 0.00 4444.87 252.00" xmlns="http://www.w3.org/2000/svg" xmlns:xlink="http://www.w3.org/1999/xlink">
<g id="graph0" class="graph" transform="scale(1 1) rotate(0) translate(4 248)">
<title>IGraphics.h</title>
<polygon fill="white" stroke="none" points="-4,4 -4,-248 4440.87,-248 4440.87,4 -4,4"/>
<!-- Node1 -->
<g id="node1" class="node"><title>Node1</title>
<polygon fill="#bfbfbf" stroke="black" points="3921.5,-224.5 3921.5,-243.5 3988.5,-243.5 3988.5,-224.5 3921.5,-224.5"/>
<text text-anchor="middle" x="3955" y="-231.5" font-family="Helvetica,sans-Serif" font-size="10.00">IGraphics.h</text>
</g>
<!-- Node2 -->
<g id="node2" class="node"><title>Node2</title>
<g id="a_node2"><a xlink:href="_i_graphics_lice_8h_source.html" target="_top" xlink:title="IGraphicsLice.h">
<polygon fill="white" stroke="black" points="3912.5,-168.5 3912.5,-187.5 3997.5,-187.5 3997.5,-168.5 3912.5,-168.5"/>
<text text-anchor="middle" x="3955" y="-175.5" font-family="Helvetica,sans-Serif" font-size="10.00">IGraphicsLice.h</text>
</a>
</g>
</g>
<!-- Node1&#45;&gt;Node2 -->
<g id="edge1" class="edge"><title>Node1&#45;&gt;Node2</title>
<path fill="none" stroke="midnightblue" d="M3955,-213.805C3955,-204.91 3955,-194.78 3955,-187.751"/>
<polygon fill="midnightblue" stroke="midnightblue" points="3951.5,-214.083 3955,-224.083 3958.5,-214.083 3951.5,-214.083"/>
</g>
<!-- Node4 -->
<g id="node4" class="node"><title>Node4</title>
<g id="a_node4"><a xlink:href="_i_control_8h.html" target="_top" xlink:title="This file contains the base IControl implementation, along with some base classes for specific types ...">
<polygon fill="white" stroke="black" points="2231.5,-168.5 2231.5,-187.5 2290.5,-187.5 2290.5,-168.5 2231.5,-168.5"/>
<text text-anchor="middle" x="2261" y="-175.5" font-family="Helvetica,sans-Serif" font-size="10.00">IControl.h</text>
</a>
</g>
</g>
<!-- Node1&#45;&gt;Node4 -->
<g id="edge3" class="edge"><title>Node1&#45;&gt;Node4</title>
<path fill="none" stroke="midnightblue" d="M3910.94,-231.595C3667.65,-223.84 2492.28,-186.373 2290.51,-179.941"/>
<polygon fill="midnightblue" stroke="midnightblue" points="3911.06,-235.101 3921.16,-231.921 3911.28,-228.104 3911.06,-235.101"/>
</g>
<!-- Node8 -->
<g id="node8" class="node"><title>Node8</title>
<g id="a_node8"><a xlink:href="_i_graphics_8cpp_source.html" target="_top" xlink:title="IGraphics.cpp">
<polygon fill="white" stroke="black" points="2635.5,-0.5 2635.5,-19.5 2712.5,-19.5 2712.5,-0.5 2635.5,-0.5"/>
<text text-anchor="middle" x="2674" y="-7.5" font-family="Helvetica,sans-Serif" font-size="10.00">IGraphics.cpp</text>
</a>
</g>
</g>
<!-- Node1&#45;&gt;Node8 -->
<g id="edge60" class="edge"><title>Node1&#45;&gt;Node8</title>
<path fill="none" stroke="midnightblue" d="M3998.88,-229.742C4126.57,-219.383 4485.52,-183.591 4431,-112 4374.3,-37.5389 4320.55,-69.8991 4228,-56 3922.72,-10.1553 2922.23,-10.3103 2712.7,-10.8627"/>
<polygon fill="midnightblue" stroke="midnightblue" points="3998.37,-226.272 3988.68,-230.556 3998.92,-233.25 3998.37,-226.272"/>
</g>
<!-- Node45 -->
<g id="node45" class="node"><title>Node45</title>
<g id="a_node45"><a xlink:href="_i_graphics_editor_delegate_8cpp_source.html" target="_top" xlink:title="IGraphicsEditorDelegate.cpp">
<polygon fill="white" stroke="black" points="3785,-112.5 3785,-131.5 3927,-131.5 3927,-112.5 3785,-112.5"/>
<text text-anchor="middle" x="3856" y="-119.5" font-family="Helvetica,sans-Serif" font-size="10.00">IGraphicsEditorDelegate.cpp</text>
</a>
</g>
</g>
<!-- Node1&#45;&gt;Node45 -->
<g id="edge61" class="edge"><title>Node1&#45;&gt;Node45</title>
<path fill="none" stroke="midnightblue" d="M3936.06,-217.941C3926.06,-209.59 3913.85,-198.744 3904,-188 3886.94,-169.386 3870.14,-144.813 3861.67,-131.863"/>
<polygon fill="midnightblue" stroke="midnightblue" points="3933.89,-220.686 3943.84,-224.312 3938.32,-215.269 3933.89,-220.686"/>
</g>
<!-- Node46 -->
<g id="node46" class="node"><title>Node46</title>
<g id="a_node46"><a xlink:href="_i_graphics_path_base_8h.html" target="_top" xlink:title="A base class to share implementations of IGraphics.h functionality across different path based graphi...">
<polygon fill="white" stroke="black" points="4081,-168.5 4081,-187.5 4191,-187.5 4191,-168.5 4081,-168.5"/>
<text text-anchor="middle" x="4136" y="-175.5" font-family="Helvetica,sans-Serif" font-size="10.00">IGraphicsPathBase.h</text>
</a>
</g>
</g>
<!-- Node1&#45;&gt;Node46 -->
<g id="edge62" class="edge"><title>Node1&#45;&gt;Node46</title>
<path fill="none" stroke="midnightblue" d="M3993.32,-221.568C4027.46,-211.381 4076.66,-196.703 4107.45,-187.516"/>
<polygon fill="midnightblue" stroke="midnightblue" points="3992.26,-218.231 3983.68,-224.444 3994.26,-224.938 3992.26,-218.231"/>
</g>
<!-- Node3 -->
<g id="node3" class="node"><title>Node3</title>
<g id="a_node3"><a xlink:href="_i_graphics_lice_8cpp_source.html" target="_top" xlink:title="IGraphicsLice.cpp">
<polygon fill="white" stroke="black" points="3339.5,-56.5 3339.5,-75.5 3434.5,-75.5 3434.5,-56.5 3339.5,-56.5"/>
<text text-anchor="middle" x="3387" y="-63.5" font-family="Helvetica,sans-Serif" font-size="10.00">IGraphicsLice.cpp</text>
</a>
</g>
</g>
<!-- Node2&#45;&gt;Node3 -->
<g id="edge2" class="edge"><title>Node2&#45;&gt;Node3</title>
<path fill="none" stroke="midnightblue" d="M3954.91,-157.993C3953.74,-143.062 3949.5,-123.013 3936,-112 3916.68,-96.2486 3564.66,-76.3047 3434.69,-69.446"/>
<polygon fill="midnightblue" stroke="midnightblue" points="3951.42,-158.324 3955.32,-168.178 3958.42,-158.047 3951.42,-158.324"/>
</g>
<!-- Node5 -->
<g id="node5" class="node"><title>Node5</title>
<g id="a_node5"><a xlink:href="_i_color_picker_control_8h.html" target="_top" xlink:title="A control for choosing a color. ">
<polygon fill="white" stroke="black" points="2079,-112.5 2079,-131.5 2189,-131.5 2189,-112.5 2079,-112.5"/>
<text text-anchor="middle" x="2134" y="-119.5" font-family="Helvetica,sans-Serif" font-size="10.00">IColorPickerControl.h</text>
</a>
</g>
</g>
<!-- Node4&#45;&gt;Node5 -->
<g id="edge4" class="edge"><title>Node4&#45;&gt;Node5</title>
<path fill="none" stroke="midnightblue" d="M2231.61,-164.503C2207.8,-154.38 2174.89,-140.388 2154.03,-131.516"/>
<polygon fill="midnightblue" stroke="midnightblue" points="2230.3,-167.751 2240.88,-168.444 2233.04,-161.31 2230.3,-167.751"/>
</g>
<!-- Node6 -->
<g id="node6" class="node"><title>Node6</title>
<g id="a_node6"><a xlink:href="_i_controls_8h.html" target="_top" xlink:title="A collection of IControls for common UI widgets, such as knobs, sliders, switches. ">
<polygon fill="white" stroke="black" points="2160.5,-56.5 2160.5,-75.5 2225.5,-75.5 2225.5,-56.5 2160.5,-56.5"/>
<text text-anchor="middle" x="2193" y="-63.5" font-family="Helvetica,sans-Serif" font-size="10.00">IControls.h</text>
</a>
</g>
</g>
<!-- Node4&#45;&gt;Node6 -->
<g id="edge8" class="edge"><title>Node4&#45;&gt;Node6</title>
<path fill="none" stroke="midnightblue" d="M2220.93,-173.315C2170.57,-167.758 2088.46,-155.315 2070,-132 2042.94,-97.8211 2115.19,-79.526 2160.15,-71.7076"/>
<polygon fill="midnightblue" stroke="midnightblue" points="2220.85,-176.826 2231.16,-174.398 2221.59,-169.865 2220.85,-176.826"/>
</g>
<!-- Node4&#45;&gt;Node8 -->
<g id="edge54" class="edge"><title>Node4&#45;&gt;Node8</title>
<path fill="none" stroke="midnightblue" d="M2300.83,-177.378C2429.89,-178.144 2835.3,-176.835 2957,-132 2996.04,-117.62 3013.36,-113.188 3032,-76 3035.98,-68.0538 3037.88,-62.6658 3032,-56 3011.1,-32.3067 2800.79,-18.0096 2712.6,-13.014"/>
<polygon fill="midnightblue" stroke="midnightblue" points="2300.63,-173.877 2290.61,-177.309 2300.58,-180.876 2300.63,-173.877"/>
</g>
<!-- Node9 -->
<g id="node9" class="node"><title>Node9</title>
<g id="a_node9"><a xlink:href="_i_v_keyboard_control_8h.html" target="_top" xlink:title="Vectorial keyboard control. ">
<polygon fill="white" stroke="black" points="2207.5,-112.5 2207.5,-131.5 2314.5,-131.5 2314.5,-112.5 2207.5,-112.5"/>
<text text-anchor="middle" x="2261" y="-119.5" font-family="Helvetica,sans-Serif" font-size="10.00">IVKeyboardControl.h</text>
</a>
</g>
</g>
<!-- Node4&#45;&gt;Node9 -->
<g id="edge9" class="edge"><title>Node4&#45;&gt;Node9</title>
<path fill="none" stroke="midnightblue" d="M2261,-157.805C2261,-148.91 2261,-138.78 2261,-131.751"/>
<polygon fill="midnightblue" stroke="midnightblue" points="2257.5,-158.083 2261,-168.083 2264.5,-158.083 2257.5,-158.083"/>
</g>
<!-- Node10 -->
<g id="node10" class="node"><title>Node10</title>
<g id="a_node10"><a xlink:href="_i_v_meter_control_8h.html" target="_top" xlink:title="Vectorial multichannel capable meter control. ">
<polygon fill="white" stroke="black" points="2332.5,-112.5 2332.5,-131.5 2423.5,-131.5 2423.5,-112.5 2332.5,-112.5"/>
<text text-anchor="middle" x="2378" y="-119.5" font-family="Helvetica,sans-Serif" font-size="10.00">IVMeterControl.h</text>
</a>
</g>
</g>
<!-- Node4&#45;&gt;Node10 -->
<g id="edge11" class="edge"><title>Node4&#45;&gt;Node10</title>
<path fill="none" stroke="midnightblue" d="M2288.66,-164.232C2310.55,-154.131 2340.5,-140.309 2359.55,-131.516"/>
<polygon fill="midnightblue" stroke="midnightblue" points="2287.15,-161.075 2279.54,-168.444 2290.09,-167.431 2287.15,-161.075"/>
</g>
<!-- Node11 -->
<g id="node11" class="node"><title>Node11</title>
<g id="a_node11"><a xlink:href="_i_v_scope_control_8h.html" target="_top" xlink:title="Vectorial multichannel capable oscilloscope control. ">
<polygon fill="white" stroke="black" points="2442,-112.5 2442,-131.5 2536,-131.5 2536,-112.5 2442,-112.5"/>
<text text-anchor="middle" x="2489" y="-119.5" font-family="Helvetica,sans-Serif" font-size="10.00">IVScopeControl.h</text>
</a>
</g>
</g>
<!-- Node4&#45;&gt;Node11 -->
<g id="edge13" class="edge"><title>Node4&#45;&gt;Node11</title>
<path fill="none" stroke="midnightblue" d="M2300.61,-167.618C2343.49,-157.463 2411.29,-141.405 2452.79,-131.576"/>
<polygon fill="midnightblue" stroke="midnightblue" points="2299.73,-164.23 2290.81,-169.94 2301.34,-171.041 2299.73,-164.23"/>
</g>
<!-- Node12 -->
<g id="node12" class="node"><title>Node12</title>
<g id="a_node12"><a xlink:href="_i_v_multi_slider_control_8h.html" target="_top" xlink:title="A vectorial multi&#45;slider control. ">
<polygon fill="white" stroke="black" points="2554,-112.5 2554,-131.5 2666,-131.5 2666,-112.5 2554,-112.5"/>
<text text-anchor="middle" x="2610" y="-119.5" font-family="Helvetica,sans-Serif" font-size="10.00">IVMultiSliderControl.h</text>
</a>
</g>
</g>
<!-- Node4&#45;&gt;Node12 -->
<g id="edge15" class="edge"><title>Node4&#45;&gt;Node12</title>
<path fill="none" stroke="midnightblue" d="M2300.98,-170.813C2363.42,-161.153 2484.21,-142.464 2554.86,-131.531"/>
<polygon fill="midnightblue" stroke="midnightblue" points="2300.1,-167.408 2290.76,-172.396 2301.17,-174.326 2300.1,-167.408"/>
</g>
<!-- Node13 -->
<g id="node13" class="node"><title>Node13</title>
<g id="a_node13"><a xlink:href="_i_r_t_text_control_8h.html" target="_top" xlink:title="A control to display some text in the UI, driven by values in the RT audio thread. ">
<polygon fill="white" stroke="black" points="1931,-112.5 1931,-131.5 2023,-131.5 2023,-112.5 1931,-112.5"/>
<text text-anchor="middle" x="1977" y="-119.5" font-family="Helvetica,sans-Serif" font-size="10.00">IRTTextControl.h</text>
</a>
</g>
</g>
<!-- Node4&#45;&gt;Node13 -->
<g id="edge17" class="edge"><title>Node4&#45;&gt;Node13</title>
<path fill="none" stroke="midnightblue" d="M2221.48,-169.486C2169.08,-159.522 2076.82,-141.98 2021.86,-131.529"/>
<polygon fill="midnightblue" stroke="midnightblue" points="2220.93,-172.944 2231.41,-171.374 2222.24,-166.067 2220.93,-172.944"/>
</g>
<!-- Node14 -->
<g id="node14" class="node"><title>Node14</title>
<g id="a_node14"><a xlink:href="_i_corner_resizer_control_8h.html" target="_top" xlink:title="A control for resizing the plug&#45;in window by clicking and dragging in the bottom right&#45;hand corner Th...">
<polygon fill="white" stroke="black" points="2244,-56.5 2244,-75.5 2366,-75.5 2366,-56.5 2244,-56.5"/>
<text text-anchor="middle" x="2305" y="-63.5" font-family="Helvetica,sans-Serif" font-size="10.00">ICornerResizerControl.h</text>
</a>
</g>
</g>
<!-- Node4&#45;&gt;Node14 -->
<g id="edge19" class="edge"><title>Node4&#45;&gt;Node14</title>
<path fill="none" stroke="midnightblue" d="M2300.66,-175.632C2399.26,-171.824 2649.31,-159.521 2674,-132 2706.4,-95.877 2761.02,-124.053 2375,-76 2372.08,-75.6367 2369.1,-75.2625 2366.08,-74.8825"/>
<polygon fill="midnightblue" stroke="midnightblue" points="2300.37,-172.14 2290.51,-176.014 2300.63,-179.135 2300.37,-172.14"/>
</g>
<!-- Node15 -->
<g id="node15" class="node"><title>Node15</title>
<g id="a_node15"><a xlink:href="_i_f_p_s_display_control_8h.html" target="_top" xlink:title="Performance display meter, based on code from NanoVG This is a special control that lives outside the...">
<polygon fill="white" stroke="black" points="2384,-56.5 2384,-75.5 2496,-75.5 2496,-56.5 2384,-56.5"/>
<text text-anchor="middle" x="2440" y="-63.5" font-family="Helvetica,sans-Serif" font-size="10.00">IFPSDisplayControl.h</text>
</a>
</g>
</g>
<!-- Node4&#45;&gt;Node15 -->
<g id="edge21" class="edge"><title>Node4&#45;&gt;Node15</title>
<path fill="none" stroke="midnightblue" d="M2300.91,-175.887C2403.93,-172.603 2672.57,-161.288 2699,-132 2704.96,-125.401 2704.72,-118.802 2699,-112 2692.48,-104.251 2570.49,-85.6141 2496.29,-74.913"/>
<polygon fill="midnightblue" stroke="midnightblue" points="2300.5,-172.397 2290.62,-176.205 2300.72,-179.394 2300.5,-172.397"/>
</g>
<!-- Node16 -->
<g id="node16" class="node"><title>Node16</title>
<g id="a_node16"><a xlink:href="_i_popup_menu_control_8h.html" target="_top" xlink:title="A base control for a pop&#45;up menu/drop&#45;down list that stays within the bounds of the IGraphics context...">
<polygon fill="white" stroke="black" points="2798.5,-112.5 2798.5,-131.5 2909.5,-131.5 2909.5,-112.5 2798.5,-112.5"/>
<text text-anchor="middle" x="2854" y="-119.5" font-family="Helvetica,sans-Serif" font-size="10.00">IPopupMenuControl.h</text>
</a>
</g>
</g>
<!-- Node4&#45;&gt;Node16 -->
<g id="edge23" class="edge"><title>Node4&#45;&gt;Node16</title>
<path fill="none" stroke="midnightblue" d="M2300.53,-174.169C2387.86,-167.79 2603.76,-151.333 2784,-132 2788.63,-131.503 2793.43,-130.956 2798.24,-130.384"/>
<polygon fill="midnightblue" stroke="midnightblue" points="2300.25,-170.68 2290.53,-174.896 2300.76,-177.662 2300.25,-170.68"/>
</g>
<!-- Node18 -->
<g id="node18" class="node"><title>Node18</title>
<g id="a_node18"><a xlink:href="_i_graphics_web_8cpp_source.html" target="_top" xlink:title="IGraphicsWeb.cpp">
<polygon fill="white" stroke="black" points="2812,-56.5 2812,-75.5 2910,-75.5 2910,-56.5 2812,-56.5"/>
<text text-anchor="middle" x="2861" y="-63.5" font-family="Helvetica,sans-Serif" font-size="10.00">IGraphicsWeb.cpp</text>
</a>
</g>
</g>
<!-- Node4&#45;&gt;Node18 -->
<g id="edge58" class="edge"><title>Node4&#45;&gt;Node18</title>
<path fill="none" stroke="midnightblue" d="M2301.2,-177.353C2437.5,-178.136 2875.88,-177.102 2918,-132 2936.44,-112.255 2900.77,-88.1412 2877.96,-75.5641"/>
<polygon fill="midnightblue" stroke="midnightblue" points="2300.83,-173.851 2290.81,-177.287 2300.79,-180.851 2300.83,-173.851"/>
</g>
<!-- Node19 -->
<g id="node19" class="node"><title>Node19</title>
<g id="a_node19"><a xlink:href="_i_graphics_win_8cpp_source.html" target="_top" xlink:title="IGraphicsWin.cpp">
<polygon fill="white" stroke="black" points="2928.5,-56.5 2928.5,-75.5 3023.5,-75.5 3023.5,-56.5 2928.5,-56.5"/>
<text text-anchor="middle" x="2976" y="-63.5" font-family="Helvetica,sans-Serif" font-size="10.00">IGraphicsWin.cpp</text>
</a>
</g>
</g>
<!-- Node4&#45;&gt;Node19 -->
<g id="edge59" class="edge"><title>Node4&#45;&gt;Node19</title>
<path fill="none" stroke="midnightblue" d="M2300.94,-176.4C2437.36,-174.07 2879.47,-164.091 2934,-132 2955.77,-119.188 2968.22,-90.1389 2973.29,-75.6103"/>
<polygon fill="midnightblue" stroke="midnightblue" points="2300.85,-172.901 2290.91,-176.567 2300.97,-179.9 2300.85,-172.901"/>
</g>
<!-- Node20 -->
<g id="node20" class="node"><title>Node20</title>
<g id="a_node20"><a xlink:href="_i_text_entry_control_8h.html" target="_top" xlink:title="A Text entry widget drawn by IGraphics to optionally override platform text entries. ">
<polygon fill="white" stroke="black" points="3042,-112.5 3042,-131.5 3144,-131.5 3144,-112.5 3042,-112.5"/>
<text text-anchor="middle" x="3093" y="-119.5" font-family="Helvetica,sans-Serif" font-size="10.00">ITextEntryControl.h</text>
</a>
</g>
</g>
<!-- Node4&#45;&gt;Node20 -->
<g id="edge28" class="edge"><title>Node4&#45;&gt;Node20</title>
<path fill="none" stroke="midnightblue" d="M2301,-175.768C2414.88,-172.02 2750.55,-159.304 3028,-132 3032.54,-131.554 3037.24,-131.027 3041.95,-130.456"/>
<polygon fill="midnightblue" stroke="midnightblue" points="2300.56,-172.28 2290.68,-176.103 2300.79,-179.276 2300.56,-172.28"/>
</g>
<!-- Node24 -->
<g id="node24" class="node"><title>Node24</title>
<g id="a_node24"><a xlink:href="_test_animation_control_8h.html" target="_top" xlink:title="Control to test animation. ">
<polygon fill="white" stroke="red" points="3162.5,-112.5 3162.5,-131.5 3281.5,-131.5 3281.5,-112.5 3162.5,-112.5"/>
<text text-anchor="middle" x="3222" y="-119.5" font-family="Helvetica,sans-Serif" font-size="10.00">TestAnimationControl.h</text>
</a>
</g>
</g>
<!-- Node4&#45;&gt;Node24 -->
<g id="edge34" class="edge"><title>Node4&#45;&gt;Node24</title>
<path fill="none" stroke="midnightblue" d="M2300.94,-176.085C2426.46,-172.973 2824.09,-161.316 3152,-132 3155.42,-131.694 3158.92,-131.348 3162.46,-130.974"/>
<polygon fill="midnightblue" stroke="midnightblue" points="2300.58,-172.592 2290.67,-176.335 2300.75,-179.59 2300.58,-172.592"/>
</g>
<!-- Node25 -->
<g id="node25" class="node"><title>Node25</title>
<g id="a_node25"><a xlink:href="_test_arc_control_8h.html" target="_top" xlink:title="Control to test drawing arcs. ">
<polygon fill="white" stroke="red" points="3299.5,-112.5 3299.5,-131.5 3390.5,-131.5 3390.5,-112.5 3299.5,-112.5"/>
<text text-anchor="middle" x="3345" y="-119.5" font-family="Helvetica,sans-Serif" font-size="10.00">TestArcControl.h</text>
</a>
</g>
</g>
<!-- Node4&#45;&gt;Node25 -->
<g id="edge35" class="edge"><title>Node4&#45;&gt;Node25</title>
<path fill="none" stroke="midnightblue" d="M2300.61,-176.954C2437.92,-176.435 2906.02,-171.671 3290,-132 3293.08,-131.682 3296.25,-131.303 3299.44,-130.882"/>
<polygon fill="midnightblue" stroke="midnightblue" points="2300.55,-173.454 2290.56,-176.986 2300.57,-180.454 2300.55,-173.454"/>
</g>
<!-- Node26 -->
<g id="node26" class="node"><title>Node26</title>
<g id="a_node26"><a xlink:href="_test_blend_control_8h.html" target="_top" xlink:title="Control to test blend methods. ">
<polygon fill="white" stroke="red" points="3408.5,-112.5 3408.5,-131.5 3509.5,-131.5 3509.5,-112.5 3408.5,-112.5"/>
<text text-anchor="middle" x="3459" y="-119.5" font-family="Helvetica,sans-Serif" font-size="10.00">TestBlendControl.h</text>
</a>
</g>
</g>
<!-- Node4&#45;&gt;Node26 -->
<g id="edge36" class="edge"><title>Node4&#45;&gt;Node26</title>
<path fill="none" stroke="midnightblue" d="M2300.82,-176.999C2447.33,-176.662 2970.27,-172.509 3399,-132 3402.04,-131.713 3405.16,-131.375 3408.31,-131.002"/>
<polygon fill="midnightblue" stroke="midnightblue" points="2300.53,-173.499 2290.53,-177.018 2300.54,-180.499 2300.53,-173.499"/>
</g>
<!-- Node27 -->
<g id="node27" class="node"><title>Node27</title>
<g id="a_node27"><a xlink:href="_test_color_control_8h.html" target="_top" xlink:title="Control to colors. ">
<polygon fill="white" stroke="red" points="3527.5,-112.5 3527.5,-131.5 3626.5,-131.5 3626.5,-112.5 3527.5,-112.5"/>
<text text-anchor="middle" x="3577" y="-119.5" font-family="Helvetica,sans-Serif" font-size="10.00">TestColorControl.h</text>
</a>
</g>
</g>
<!-- Node4&#45;&gt;Node27 -->
<g id="edge37" class="edge"><title>Node4&#45;&gt;Node27</title>
<path fill="none" stroke="midnightblue" d="M2300.84,-177.246C2456.73,-177.857 3040.34,-176.83 3518,-132 3521.09,-131.71 3524.27,-131.364 3527.48,-130.979"/>
<polygon fill="midnightblue" stroke="midnightblue" points="2300.79,-173.746 2290.78,-177.202 2300.76,-180.746 2300.79,-173.746"/>
</g>
<!-- Node28 -->
<g id="node28" class="node"><title>Node28</title>
<g id="a_node28"><a xlink:href="_test_dir_browse_control_8h.html" target="_top" xlink:title="Control to test IDirBrowseControlBase. ">
<polygon fill="white" stroke="red" points="3645,-112.5 3645,-131.5 3767,-131.5 3767,-112.5 3645,-112.5"/>
<text text-anchor="middle" x="3706" y="-119.5" font-family="Helvetica,sans-Serif" font-size="10.00">TestDirBrowseControl.h</text>
</a>
</g>
</g>
<!-- Node4&#45;&gt;Node28 -->
<g id="edge38" class="edge"><title>Node4&#45;&gt;Node28</title>
<path fill="none" stroke="midnightblue" d="M2300.67,-177.053C2464.99,-176.989 3108.28,-173.917 3635,-132 3638.22,-131.744 3641.52,-131.447 3644.85,-131.12"/>
<polygon fill="midnightblue" stroke="midnightblue" points="2300.55,-173.553 2290.55,-177.054 2300.55,-180.553 2300.55,-173.553"/>
</g>
<!-- Node29 -->
<g id="node29" class="node"><title>Node29</title>
<g id="a_node29"><a xlink:href="_test_gradient_control_8h.html" target="_top" xlink:title="Control to test drawing gradients with path based drawing backends. ">
<polygon fill="white" stroke="red" points="-0.5,-112.5 -0.5,-131.5 112.5,-131.5 112.5,-112.5 -0.5,-112.5"/>
<text text-anchor="middle" x="56" y="-119.5" font-family="Helvetica,sans-Serif" font-size="10.00">TestGradientControl.h</text>
</a>
</g>
</g>
<!-- Node4&#45;&gt;Node29 -->
<g id="edge39" class="edge"><title>Node4&#45;&gt;Node29</title>
<path fill="none" stroke="midnightblue" d="M2220.83,-176.784C1964.28,-175.31 552.309,-165.754 122,-132 119.002,-131.765 115.933,-131.485 112.837,-131.171"/>
<polygon fill="midnightblue" stroke="midnightblue" points="2221.14,-180.286 2231.16,-176.843 2221.18,-173.286 2221.14,-180.286"/>
</g>
<!-- Node30 -->
<g id="node30" class="node"><title>Node30</title>
<g id="a_node30"><a xlink:href="_test_layer_control_8h.html" target="_top" xlink:title="Control to test IGraphics layers. ">
<polygon fill="white" stroke="red" points="131,-112.5 131,-131.5 231,-131.5 231,-112.5 131,-112.5"/>
<text text-anchor="middle" x="181" y="-119.5" font-family="Helvetica,sans-Serif" font-size="10.00">TestLayerControl.h</text>
</a>
</g>
</g>
<!-- Node4&#45;&gt;Node30 -->
<g id="edge40" class="edge"><title>Node4&#45;&gt;Node30</title>
<path fill="none" stroke="midnightblue" d="M2221.11,-176.815C1973.62,-175.563 645.232,-167.27 240,-132 237.11,-131.748 234.146,-131.444 231.159,-131.102"/>
<polygon fill="midnightblue" stroke="midnightblue" points="2221.41,-180.317 2231.43,-176.866 2221.44,-173.317 2221.41,-180.317"/>
</g>
<!-- Node31 -->
<g id="node31" class="node"><title>Node31</title>
<g id="a_node31"><a xlink:href="_test_multi_path_control_8h.html" target="_top" xlink:title="Control to test drawing paths in path&#45;based drawing backends. ">
<polygon fill="white" stroke="red" points="249.5,-112.5 249.5,-131.5 366.5,-131.5 366.5,-112.5 249.5,-112.5"/>
<text text-anchor="middle" x="308" y="-119.5" font-family="Helvetica,sans-Serif" font-size="10.00">TestMultiPathControl.h</text>
</a>
</g>
</g>
<!-- Node4&#45;&gt;Node31 -->
<g id="edge41" class="edge"><title>Node4&#45;&gt;Node31</title>
<path fill="none" stroke="midnightblue" d="M2221.19,-176.646C1983.75,-174.443 752.038,-161.731 375,-132 372.309,-131.788 369.561,-131.541 366.787,-131.268"/>
<polygon fill="midnightblue" stroke="midnightblue" points="2221.4,-180.148 2231.43,-176.74 2221.46,-173.148 2221.4,-180.148"/>
</g>
<!-- Node32 -->
<g id="node32" class="node"><title>Node32</title>
<g id="a_node32"><a xlink:href="_test_poly_control_8h.html" target="_top" xlink:title="Control to test drawing polygons. ">
<polygon fill="white" stroke="red" points="384.5,-112.5 384.5,-131.5 479.5,-131.5 479.5,-112.5 384.5,-112.5"/>
<text text-anchor="middle" x="432" y="-119.5" font-family="Helvetica,sans-Serif" font-size="10.00">TestPolyControl.h</text>
</a>
</g>
</g>
<!-- Node4&#45;&gt;Node32 -->
<g id="edge42" class="edge"><title>Node4&#45;&gt;Node32</title>
<path fill="none" stroke="midnightblue" d="M2221.05,-176.715C1991.74,-174.966 840.739,-164.673 488,-132 485.255,-131.746 482.44,-131.439 479.604,-131.095"/>
<polygon fill="midnightblue" stroke="midnightblue" points="2221.24,-180.216 2231.27,-176.791 2221.3,-173.216 2221.24,-180.216"/>
</g>
<!-- Node33 -->
<g id="node33" class="node"><title>Node33</title>
<g id="a_node33"><a xlink:href="_test_text_control_8h.html" target="_top" xlink:title="Control to test drawing text. ">
<polygon fill="white" stroke="red" points="497.5,-112.5 497.5,-131.5 592.5,-131.5 592.5,-112.5 497.5,-112.5"/>
<text text-anchor="middle" x="545" y="-119.5" font-family="Helvetica,sans-Serif" font-size="10.00">TestTextControl.h</text>
</a>
</g>
</g>
<!-- Node4&#45;&gt;Node33 -->
<g id="edge43" class="edge"><title>Node4&#45;&gt;Node33</title>
<path fill="none" stroke="midnightblue" d="M2221.2,-176.621C2001.1,-174.418 930.867,-162.295 602,-132 598.907,-131.715 595.728,-131.367 592.528,-130.976"/>
<polygon fill="midnightblue" stroke="midnightblue" points="2221.29,-180.122 2231.33,-176.721 2221.36,-173.122 2221.29,-180.122"/>
</g>
<!-- Node34 -->
<g id="node34" class="node"><title>Node34</title>
<g id="a_node34"><a xlink:href="_test_draw_context_control_8h.html" target="_top" xlink:title="Control to test obtaining a drawing API (NanoVG, LICE, Cairo, AGG etc) context and using that API wit...">
<polygon fill="white" stroke="red" points="611,-112.5 611,-131.5 745,-131.5 745,-112.5 611,-112.5"/>
<text text-anchor="middle" x="678" y="-119.5" font-family="Helvetica,sans-Serif" font-size="10.00">TestDrawContextControl.h</text>
</a>
</g>
</g>
<!-- Node4&#45;&gt;Node34 -->
<g id="edge44" class="edge"><title>Node4&#45;&gt;Node34</title>
<path fill="none" stroke="midnightblue" d="M2221.25,-177.097C2047.32,-177.25 1336,-175.066 754,-132 751.085,-131.784 748.11,-131.539 745.106,-131.271"/>
<polygon fill="midnightblue" stroke="midnightblue" points="2221.47,-180.597 2231.46,-177.084 2221.46,-173.597 2221.47,-180.597"/>
</g>
<!-- Node35 -->
<g id="node35" class="node"><title>Node35</title>
<g id="a_node35"><a xlink:href="_test_size_control_8h.html" target="_top" xlink:title="Control to display the size of a region. ">
<polygon fill="white" stroke="red" points="763.5,-112.5 763.5,-131.5 858.5,-131.5 858.5,-112.5 763.5,-112.5"/>
<text text-anchor="middle" x="811" y="-119.5" font-family="Helvetica,sans-Serif" font-size="10.00">TestSizeControl.h</text>
</a>
</g>
</g>
<!-- Node4&#45;&gt;Node35 -->
<g id="edge45" class="edge"><title>Node4&#45;&gt;Node35</title>
<path fill="none" stroke="midnightblue" d="M2221.14,-176.399C2022.73,-173.3 1140.21,-158.257 867,-132 864.255,-131.736 861.441,-131.423 858.606,-131.073"/>
<polygon fill="midnightblue" stroke="midnightblue" points="2221.34,-179.902 2231.39,-176.557 2221.45,-172.903 2221.34,-179.902"/>
</g>
<!-- Node36 -->
<g id="node36" class="node"><title>Node36</title>
<g id="a_node36"><a xlink:href="_test_s_v_g_control_8h.html" target="_top" xlink:title="Control to test drawing SVGs. ">
<polygon fill="white" stroke="red" points="876.5,-112.5 876.5,-131.5 973.5,-131.5 973.5,-112.5 876.5,-112.5"/>
<text text-anchor="middle" x="925" y="-119.5" font-family="Helvetica,sans-Serif" font-size="10.00">TestSVGControl.h</text>
</a>
</g>
</g>
<!-- Node4&#45;&gt;Node36 -->
<g id="edge46" class="edge"><title>Node4&#45;&gt;Node36</title>
<path fill="none" stroke="midnightblue" d="M2220.99,-177.358C2063.13,-178.396 1468.45,-178.787 982,-132 979.307,-131.741 976.549,-131.437 973.768,-131.099"/>
<polygon fill="midnightblue" stroke="midnightblue" points="2221.19,-180.856 2231.17,-177.286 2221.14,-173.857 2221.19,-180.856"/>
</g>
<!-- Node37 -->
<g id="node37" class="node"><title>Node37</title>
<g id="a_node37"><a xlink:href="_test_image_control_8h.html" target="_top" xlink:title="Control to test drawing bitmaps. ">
<polygon fill="white" stroke="red" points="991.5,-112.5 991.5,-131.5 1094.5,-131.5 1094.5,-112.5 991.5,-112.5"/>
<text text-anchor="middle" x="1043" y="-119.5" font-family="Helvetica,sans-Serif" font-size="10.00">TestImageControl.h</text>
</a>
</g>
</g>
<!-- Node4&#45;&gt;Node37 -->
<g id="edge47" class="edge"><title>Node4&#45;&gt;Node37</title>
<path fill="none" stroke="midnightblue" d="M2221.02,-177.001C2072.76,-176.674 1540.43,-172.564 1104,-132 1100.91,-131.713 1097.74,-131.375 1094.54,-131.002"/>
<polygon fill="midnightblue" stroke="midnightblue" points="2221.42,-180.501 2231.42,-177.019 2221.43,-173.501 2221.42,-180.501"/>
</g>
<!-- Node38 -->
<g id="node38" class="node"><title>Node38</title>
<g id="a_node38"><a xlink:href="_test_drop_shadow_control_8h.html" target="_top" xlink:title="Control to test layer drop shadows. ">
<polygon fill="white" stroke="red" points="1113,-112.5 1113,-131.5 1245,-131.5 1245,-112.5 1113,-112.5"/>
<text text-anchor="middle" x="1179" y="-119.5" font-family="Helvetica,sans-Serif" font-size="10.00">TestDropShadowControl.h</text>
</a>
</g>
</g>
<!-- Node4&#45;&gt;Node38 -->
<g id="edge48" class="edge"><title>Node4&#45;&gt;Node38</title>
<path fill="none" stroke="midnightblue" d="M2220.97,-176.286C2085.12,-173.634 1629.29,-162.859 1254,-132 1251.12,-131.764 1248.19,-131.501 1245.23,-131.219"/>
<polygon fill="midnightblue" stroke="midnightblue" points="2221.23,-179.792 2231.29,-176.484 2221.36,-172.793 2221.23,-179.792"/>
</g>
<!-- Node39 -->
<g id="node39" class="node"><title>Node39</title>
<g id="a_node39"><a xlink:href="_test_cursor_control_8h.html" target="_top" xlink:title="Control to test changing the platform cursor. ">
<polygon fill="white" stroke="red" points="1263.5,-112.5 1263.5,-131.5 1368.5,-131.5 1368.5,-112.5 1263.5,-112.5"/>
<text text-anchor="middle" x="1316" y="-119.5" font-family="Helvetica,sans-Serif" font-size="10.00">TestCursorControl.h</text>
</a>
</g>
</g>
<!-- Node4&#45;&gt;Node39 -->
<g id="edge49" class="edge"><title>Node4&#45;&gt;Node39</title>
<path fill="none" stroke="midnightblue" d="M2220.92,-176.324C2095.84,-173.922 1701.67,-164.141 1377,-132 1374.23,-131.726 1371.39,-131.414 1368.53,-131.076"/>
<polygon fill="midnightblue" stroke="midnightblue" points="2221.1,-179.828 2231.16,-176.515 2221.23,-172.829 2221.1,-179.828"/>
</g>
<!-- Node40 -->
<g id="node40" class="node"><title>Node40</title>
<g id="a_node40"><a xlink:href="_test_keyboard_control_8h.html" target="_top" xlink:title="Control to test keyboard input. ">
<polygon fill="white" stroke="red" points="1386.5,-112.5 1386.5,-131.5 1503.5,-131.5 1503.5,-112.5 1386.5,-112.5"/>
<text text-anchor="middle" x="1445" y="-119.5" font-family="Helvetica,sans-Serif" font-size="10.00">TestKeyboardControl.h</text>
</a>
</g>
</g>
<!-- Node4&#45;&gt;Node40 -->
<g id="edge50" class="edge"><title>Node4&#45;&gt;Node40</title>
<path fill="none" stroke="midnightblue" d="M2221.23,-175.609C2109.44,-171.485 1783.04,-157.959 1513,-132 1509.92,-131.704 1506.76,-131.375 1503.57,-131.023"/>
<polygon fill="midnightblue" stroke="midnightblue" points="2221.24,-179.112 2231.36,-175.979 2221.5,-172.117 2221.24,-179.112"/>
</g>
<!-- Node41 -->
<g id="node41" class="node"><title>Node41</title>
<g id="a_node41"><a xlink:href="_test_rotating_mask_control_8h_source.html" target="_top" xlink:title="TestRotatingMaskControl.h">
<polygon fill="white" stroke="red" points="1521.5,-112.5 1521.5,-131.5 1658.5,-131.5 1658.5,-112.5 1521.5,-112.5"/>
<text text-anchor="middle" x="1590" y="-119.5" font-family="Helvetica,sans-Serif" font-size="10.00">TestRotatingMaskControl.h</text>
</a>
</g>
</g>
<!-- Node4&#45;&gt;Node41 -->
<g id="edge51" class="edge"><title>Node4&#45;&gt;Node41</title>
<path fill="none" stroke="midnightblue" d="M2221.27,-174.524C2125.82,-168.458 1876.04,-151.888 1668,-132 1665.01,-131.715 1661.97,-131.412 1658.89,-131.097"/>
<polygon fill="midnightblue" stroke="midnightblue" points="2221.15,-178.023 2231.35,-175.162 2221.59,-171.037 2221.15,-178.023"/>
</g>
<!-- Node42 -->
<g id="node42" class="node"><title>Node42</title>
<g id="a_node42"><a xlink:href="_test_shadow_gradient_control_8h.html" target="_top" xlink:title="Control to test drawing shadows with gradients. ">
<polygon fill="white" stroke="red" points="1677,-112.5 1677,-131.5 1825,-131.5 1825,-112.5 1677,-112.5"/>
<text text-anchor="middle" x="1751" y="-119.5" font-family="Helvetica,sans-Serif" font-size="10.00">TestShadowGradientControl.h</text>
</a>
</g>
</g>
<!-- Node4&#45;&gt;Node42 -->
<g id="edge52" class="edge"><title>Node4&#45;&gt;Node42</title>
<path fill="none" stroke="midnightblue" d="M2221.49,-172.877C2146.13,-165.002 1976.64,-147.25 1834,-132 1831.12,-131.692 1828.18,-131.377 1825.21,-131.058"/>
<polygon fill="midnightblue" stroke="midnightblue" points="2221.18,-176.363 2231.49,-173.921 2221.91,-169.401 2221.18,-176.363"/>
</g>
<!-- Node43 -->
<g id="node43" class="node"><title>Node43</title>
<g id="a_node43"><a xlink:href="_i_control_8cpp_source.html" target="_top" xlink:title="IControl.cpp">
<polygon fill="white" stroke="black" points="1843,-112.5 1843,-131.5 1913,-131.5 1913,-112.5 1843,-112.5"/>
<text text-anchor="middle" x="1878" y="-119.5" font-family="Helvetica,sans-Serif" font-size="10.00">IControl.cpp</text>
</a>
</g>
</g>
<!-- Node4&#45;&gt;Node43 -->
<g id="edge53" class="edge"><title>Node4&#45;&gt;Node43</title>
<path fill="none" stroke="midnightblue" d="M2221.45,-172.658C2158.06,-165.494 2029.87,-150.168 1922,-132 1919.08,-131.508 1916.05,-130.964 1913.02,-130.393"/>
<polygon fill="midnightblue" stroke="midnightblue" points="2221.09,-176.139 2231.42,-173.777 2221.88,-169.183 2221.09,-176.139"/>
</g>
<!-- Node44 -->
<g id="node44" class="node"><title>Node44</title>
<g id="a_node44"><a xlink:href="_i_graphics_live_edit_8h.html" target="_top" xlink:title="A control to enable live modification of control layout in an IGraphics context in debug builds This ...">
<polygon fill="white" stroke="black" points="2514,-56.5 2514,-75.5 2616,-75.5 2616,-56.5 2514,-56.5"/>
<text text-anchor="middle" x="2565" y="-63.5" font-family="Helvetica,sans-Serif" font-size="10.00">IGraphicsLiveEdit.h</text>
</a>
</g>
</g>
<!-- Node4&#45;&gt;Node44 -->
<g id="edge55" class="edge"><title>Node4&#45;&gt;Node44</title>
<path fill="none" stroke="midnightblue" d="M2300.93,-176.04C2406.61,-173.091 2687.43,-162.435 2715,-132 2720.97,-125.412 2720.31,-119.131 2715,-112 2702.95,-95.8039 2654.41,-83.2557 2615.76,-75.5731"/>
<polygon fill="midnightblue" stroke="midnightblue" points="2300.58,-172.548 2290.68,-176.318 2300.77,-179.546 2300.58,-172.548"/>
</g>
<!-- Node4&#45;&gt;Node45 -->
<g id="edge57" class="edge"><title>Node4&#45;&gt;Node45</title>
<path fill="none" stroke="midnightblue" d="M2300.69,-177.021C2475.07,-176.859 3190.5,-173.559 3776,-132 3778.93,-131.792 3781.91,-131.558 3784.93,-131.303"/>
<polygon fill="midnightblue" stroke="midnightblue" points="2300.69,-173.521 2290.69,-177.027 2300.69,-180.521 2300.69,-173.521"/>
</g>
<!-- Node5&#45;&gt;Node6 -->
<g id="edge5" class="edge"><title>Node5&#45;&gt;Node6</title>
<path fill="none" stroke="midnightblue" d="M2150.89,-105.537C2161.41,-95.9087 2174.57,-83.8694 2183.35,-75.8339"/>
<polygon fill="midnightblue" stroke="midnightblue" points="2148.49,-102.99 2143.48,-112.324 2153.22,-108.154 2148.49,-102.99"/>
</g>
<!-- Node7 -->
<g id="node7" class="node"><title>Node7</title>
<g id="a_node7"><a xlink:href="_i_controls_8cpp.html" target="_top" xlink:title="IControls implementation. ">
<polygon fill="white" stroke="black" points="2155.5,-0.5 2155.5,-19.5 2230.5,-19.5 2230.5,-0.5 2155.5,-0.5"/>
<text text-anchor="middle" x="2193" y="-7.5" font-family="Helvetica,sans-Serif" font-size="10.00">IControls.cpp</text>
</a>
</g>
</g>
<!-- Node6&#45;&gt;Node7 -->
<g id="edge6" class="edge"><title>Node6&#45;&gt;Node7</title>
<path fill="none" stroke="midnightblue" d="M2193,-45.8045C2193,-36.9102 2193,-26.7798 2193,-19.7511"/>
<polygon fill="midnightblue" stroke="midnightblue" points="2189.5,-46.083 2193,-56.083 2196.5,-46.083 2189.5,-46.083"/>
</g>
<!-- Node6&#45;&gt;Node8 -->
<g id="edge7" class="edge"><title>Node6&#45;&gt;Node8</title>
<path fill="none" stroke="midnightblue" d="M2236.04,-56.001C2389.55,-32.1931 2560.32,-18.7769 2635.35,-13.5397"/>
<polygon fill="midnightblue" stroke="midnightblue" points="2235.29,-52.5756 2225.95,-57.5842 2236.37,-59.4909 2235.29,-52.5756"/>
</g>
<!-- Node9&#45;&gt;Node6 -->
<g id="edge10" class="edge"><title>Node9&#45;&gt;Node6</title>
<path fill="none" stroke="midnightblue" d="M2242.24,-106.101C2230,-96.3824 2214.44,-84.0269 2204.12,-75.8339"/>
<polygon fill="midnightblue" stroke="midnightblue" points="2240.07,-108.846 2250.07,-112.324 2244.42,-103.364 2240.07,-108.846"/>
</g>
<!-- Node10&#45;&gt;Node6 -->
<g id="edge12" class="edge"><title>Node10&#45;&gt;Node6</title>
<path fill="none" stroke="midnightblue" d="M2338.83,-109.568C2303.93,-99.381 2253.65,-84.7034 2222.18,-75.5164"/>
<polygon fill="midnightblue" stroke="midnightblue" points="2338.11,-113.001 2348.69,-112.444 2340.07,-106.282 2338.11,-113.001"/>
</g>
<!-- Node11&#45;&gt;Node6 -->
<g id="edge14" class="edge"><title>Node11&#45;&gt;Node6</title>
<path fill="none" stroke="midnightblue" d="M2431.67,-111.446C2380.12,-102.711 2302.37,-89.1813 2235,-76 2231.93,-75.3986 2228.73,-74.7523 2225.54,-74.092"/>
<polygon fill="midnightblue" stroke="midnightblue" points="2431.18,-114.912 2441.62,-113.127 2432.35,-108.01 2431.18,-114.912"/>
</g>
<!-- Node12&#45;&gt;Node6 -->
<g id="edge16" class="edge"><title>Node12&#45;&gt;Node6</title>
<path fill="none" stroke="midnightblue" d="M2543.86,-111.889C2405.68,-94.6633 2368.65,-98.0283 2235,-76 2231.91,-75.4906 2228.7,-74.9062 2225.5,-74.285"/>
<polygon fill="midnightblue" stroke="midnightblue" points="2543.63,-115.387 2553.99,-113.165 2544.51,-108.442 2543.63,-115.387"/>
</g>
<!-- Node13&#45;&gt;Node6 -->
<g id="edge18" class="edge"><title>Node13&#45;&gt;Node6</title>
<path fill="none" stroke="midnightblue" d="M2021.02,-109.994C2062.34,-99.6641 2123.2,-84.4502 2160.35,-75.1629"/>
<polygon fill="midnightblue" stroke="midnightblue" points="2020.08,-106.623 2011.23,-112.444 2021.78,-113.414 2020.08,-106.623"/>
</g>
<!-- Node14&#45;&gt;Node8 -->
<g id="edge20" class="edge"><title>Node14&#45;&gt;Node8</title>
<path fill="none" stroke="midnightblue" d="M2373.57,-54.9648C2450.7,-43.6777 2573.27,-25.7411 2635.31,-16.6623"/>
<polygon fill="midnightblue" stroke="midnightblue" points="2372.86,-51.5323 2363.47,-56.4435 2373.87,-58.4586 2372.86,-51.5323"/>
</g>
<!-- Node15&#45;&gt;Node8 -->
<g id="edge22" class="edge"><title>Node15&#45;&gt;Node8</title>
<path fill="none" stroke="midnightblue" d="M2487,-54.1529C2531.22,-43.95 2596.52,-28.8809 2637.1,-19.5164"/>
<polygon fill="midnightblue" stroke="midnightblue" points="2486.03,-50.7845 2477.08,-56.4435 2487.61,-57.6052 2486.03,-50.7845"/>
</g>
<!-- Node16&#45;&gt;Node8 -->
<g id="edge25" class="edge"><title>Node16&#45;&gt;Node8</title>
<path fill="none" stroke="midnightblue" d="M2835.21,-105.806C2817.63,-91.9563 2790.36,-71.3736 2765,-56 2741.34,-41.6545 2712.47,-27.9795 2693.69,-19.5482"/>
<polygon fill="midnightblue" stroke="midnightblue" points="2833.45,-108.881 2843.45,-112.372 2837.81,-103.405 2833.45,-108.881"/>
</g>
<!-- Node17 -->
<g id="node17" class="node"><title>Node17</title>
<g id="a_node17"><a xlink:href="_i_popup_menu_control_8cpp.html" target="_top" xlink:title="IPopupMenuControl implementation. ">
<polygon fill="white" stroke="black" points="2634,-56.5 2634,-75.5 2756,-75.5 2756,-56.5 2634,-56.5"/>
<text text-anchor="middle" x="2695" y="-63.5" font-family="Helvetica,sans-Serif" font-size="10.00">IPopupMenuControl.cpp</text>
</a>
</g>
</g>
<!-- Node16&#45;&gt;Node17 -->
<g id="edge24" class="edge"><title>Node16&#45;&gt;Node17</title>
<path fill="none" stroke="midnightblue" d="M2819.17,-109.172C2789.23,-99.0039 2746.78,-84.5852 2720.08,-75.5164"/>
<polygon fill="midnightblue" stroke="midnightblue" points="2818.21,-112.542 2828.81,-112.444 2820.46,-105.914 2818.21,-112.542"/>
</g>
<!-- Node16&#45;&gt;Node18 -->
<g id="edge26" class="edge"><title>Node16&#45;&gt;Node18</title>
<path fill="none" stroke="midnightblue" d="M2856.45,-102.101C2857.61,-93.1357 2858.94,-82.8579 2859.87,-75.7511"/>
<polygon fill="midnightblue" stroke="midnightblue" points="2852.97,-101.716 2855.16,-112.083 2859.91,-102.616 2852.97,-101.716"/>
</g>
<!-- Node16&#45;&gt;Node19 -->
<g id="edge27" class="edge"><title>Node16&#45;&gt;Node19</title>
<path fill="none" stroke="midnightblue" d="M2882.54,-108.368C2905.39,-98.2553 2936.81,-84.3486 2956.76,-75.5164"/>
<polygon fill="midnightblue" stroke="midnightblue" points="2881.06,-105.196 2873.33,-112.444 2883.89,-111.597 2881.06,-105.196"/>
</g>
<!-- Node20&#45;&gt;Node3 -->
<g id="edge31" class="edge"><title>Node20&#45;&gt;Node3</title>
<path fill="none" stroke="midnightblue" d="M3149.62,-110.601C3205.18,-100.395 3288.9,-85.0189 3340.63,-75.5164"/>
<polygon fill="midnightblue" stroke="midnightblue" points="3148.79,-107.195 3139.59,-112.444 3150.05,-114.079 3148.79,-107.195"/>
</g>
<!-- Node20&#45;&gt;Node8 -->
<g id="edge33" class="edge"><title>Node20&#45;&gt;Node8</title>
<path fill="none" stroke="midnightblue" d="M3143.63,-109.73C3182.02,-98.9378 3224.64,-80.6536 3202,-56 3169.02,-20.0877 2828.56,-12.7946 2712.51,-11.3484"/>
<polygon fill="midnightblue" stroke="midnightblue" points="3142.24,-106.478 3133.48,-112.443 3144.05,-113.24 3142.24,-106.478"/>
</g>
<!-- Node21 -->
<g id="node21" class="node"><title>Node21</title>
<g id="a_node21"><a xlink:href="_i_text_entry_control_8cpp.html" target="_top" xlink:title="ITextEntryControl implementation. ">
<polygon fill="white" stroke="black" points="3080.5,-56.5 3080.5,-75.5 3193.5,-75.5 3193.5,-56.5 3080.5,-56.5"/>
<text text-anchor="middle" x="3137" y="-63.5" font-family="Helvetica,sans-Serif" font-size="10.00">ITextEntryControl.cpp</text>
</a>
</g>
</g>
<!-- Node20&#45;&gt;Node21 -->
<g id="edge29" class="edge"><title>Node20&#45;&gt;Node21</title>
<path fill="none" stroke="midnightblue" d="M3106.73,-104.144C3114.4,-94.7357 3123.63,-83.4046 3129.87,-75.7511"/>
<polygon fill="midnightblue" stroke="midnightblue" points="3103.87,-102.12 3100.27,-112.083 3109.3,-106.541 3103.87,-102.12"/>
</g>
<!-- Node22 -->
<g id="node22" class="node"><title>Node22</title>
<g id="a_node22"><a xlink:href="_i_graphics_cairo_8cpp_source.html" target="_top" xlink:title="IGraphicsCairo.cpp">
<polygon fill="white" stroke="black" points="3630.5,-56.5 3630.5,-75.5 3731.5,-75.5 3731.5,-56.5 3630.5,-56.5"/>
<text text-anchor="middle" x="3681" y="-63.5" font-family="Helvetica,sans-Serif" font-size="10.00">IGraphicsCairo.cpp</text>
</a>
</g>
</g>
<!-- Node20&#45;&gt;Node22 -->
<g id="edge30" class="edge"><title>Node20&#45;&gt;Node22</title>
<path fill="none" stroke="midnightblue" d="M3154.23,-112.05C3335.92,-91.1609 3538.07,-76.5031 3630.39,-70.2848"/>
<polygon fill="midnightblue" stroke="midnightblue" points="3153.76,-108.582 3144.22,-113.21 3154.56,-115.535 3153.76,-108.582"/>
</g>
<!-- Node23 -->
<g id="node23" class="node"><title>Node23</title>
<g id="a_node23"><a xlink:href="_i_graphics_nano_v_g_8cpp_source.html" target="_top" xlink:title="IGraphicsNanoVG.cpp">
<polygon fill="white" stroke="black" points="4104.5,-56.5 4104.5,-75.5 4219.5,-75.5 4219.5,-56.5 4104.5,-56.5"/>
<text text-anchor="middle" x="4162" y="-63.5" font-family="Helvetica,sans-Serif" font-size="10.00">IGraphicsNanoVG.cpp</text>
</a>
</g>
</g>
<!-- Node20&#45;&gt;Node23 -->
<g id="edge32" class="edge"><title>Node20&#45;&gt;Node23</title>
<path fill="none" stroke="midnightblue" d="M3154.26,-112.1C3522.37,-77.3018 3951.57,-69.3378 4104.46,-67.5192"/>
<polygon fill="midnightblue" stroke="midnightblue" points="3153.83,-108.625 3144.21,-113.058 3154.5,-115.593 3153.83,-108.625"/>
</g>
<!-- Node44&#45;&gt;Node8 -->
<g id="edge56" class="edge"><title>Node44&#45;&gt;Node8</title>
<path fill="none" stroke="midnightblue" d="M2591.52,-51.8622C2611.73,-41.8492 2638.99,-28.3458 2656.53,-19.6545"/>
<polygon fill="midnightblue" stroke="midnightblue" points="2589.92,-48.7485 2582.51,-56.324 2593.03,-55.0209 2589.92,-48.7485"/>
</g>
<!-- Node47 -->
<g id="node47" class="node"><title>Node47</title>
<g id="a_node47"><a xlink:href="_i_graphics_a_g_g_8h_source.html" target="_top" xlink:title="IGraphicsAGG.h">
<polygon fill="white" stroke="red" points="3983.5,-112.5 3983.5,-131.5 4072.5,-131.5 4072.5,-112.5 3983.5,-112.5"/>
<text text-anchor="middle" x="4028" y="-119.5" font-family="Helvetica,sans-Serif" font-size="10.00">IGraphicsAGG.h</text>
</a>
</g>
</g>
<!-- Node46&#45;&gt;Node47 -->
<g id="edge63" class="edge"><title>Node46&#45;&gt;Node47</title>
<path fill="none" stroke="midnightblue" d="M4109.45,-163.726C4089.45,-153.727 4062.61,-140.307 4045.31,-131.655"/>
<polygon fill="midnightblue" stroke="midnightblue" points="4108.14,-166.982 4118.65,-168.324 4111.27,-160.721 4108.14,-166.982"/>
</g>
<!-- Node48 -->
<g id="node48" class="node"><title>Node48</title>
<g id="a_node48"><a xlink:href="_i_graphics_cairo_8h_source.html" target="_top" xlink:title="IGraphicsCairo.h">
<polygon fill="white" stroke="black" points="4091,-112.5 4091,-131.5 4181,-131.5 4181,-112.5 4091,-112.5"/>
<text text-anchor="middle" x="4136" y="-119.5" font-family="Helvetica,sans-Serif" font-size="10.00">IGraphicsCairo.h</text>
</a>
</g>
</g>
<!-- Node46&#45;&gt;Node48 -->
<g id="edge64" class="edge"><title>Node46&#45;&gt;Node48</title>
<path fill="none" stroke="midnightblue" d="M4136,-157.805C4136,-148.91 4136,-138.78 4136,-131.751"/>
<polygon fill="midnightblue" stroke="midnightblue" points="4132.5,-158.083 4136,-168.083 4139.5,-158.083 4132.5,-158.083"/>
</g>
<!-- Node49 -->
<g id="node49" class="node"><title>Node49</title>
<g id="a_node49"><a xlink:href="_i_graphics_canvas_8h_source.html" target="_top" xlink:title="IGraphicsCanvas.h">
<polygon fill="white" stroke="red" points="4321.5,-112.5 4321.5,-131.5 4422.5,-131.5 4422.5,-112.5 4321.5,-112.5"/>
<text text-anchor="middle" x="4372" y="-119.5" font-family="Helvetica,sans-Serif" font-size="10.00">IGraphicsCanvas.h</text>
</a>
</g>
</g>
<!-- Node46&#45;&gt;Node49 -->
<g id="edge66" class="edge"><title>Node46&#45;&gt;Node49</title>
<path fill="none" stroke="midnightblue" d="M4183.41,-166.153C4228,-155.95 4293.85,-140.881 4334.78,-131.516"/>
<polygon fill="midnightblue" stroke="midnightblue" points="4182.36,-162.801 4173.39,-168.444 4183.92,-169.625 4182.36,-162.801"/>
</g>
<!-- Node50 -->
<g id="node50" class="node"><title>Node50</title>
<g id="a_node50"><a xlink:href="_i_graphics_nano_v_g_8h_source.html" target="_top" xlink:title="IGraphicsNanoVG.h">
<polygon fill="white" stroke="black" points="4199,-112.5 4199,-131.5 4303,-131.5 4303,-112.5 4199,-112.5"/>
<text text-anchor="middle" x="4251" y="-119.5" font-family="Helvetica,sans-Serif" font-size="10.00">IGraphicsNanoVG.h</text>
</a>
</g>
</g>
<!-- Node46&#45;&gt;Node50 -->
<g id="edge67" class="edge"><title>Node46&#45;&gt;Node50</title>
<path fill="none" stroke="midnightblue" d="M4163.48,-164.096C4184.97,-154.007 4214.22,-140.27 4232.86,-131.516"/>
<polygon fill="midnightblue" stroke="midnightblue" points="4161.79,-161.025 4154.22,-168.444 4164.76,-167.361 4161.79,-161.025"/>
</g>
<!-- Node48&#45;&gt;Node22 -->
<g id="edge65" class="edge"><title>Node48&#45;&gt;Node22</title>
<path fill="none" stroke="midnightblue" d="M4080.8,-112.041C3948.51,-93.9669 3805.77,-79.1914 3731.62,-71.8723"/>
<polygon fill="midnightblue" stroke="midnightblue" points="4080.32,-115.508 4090.71,-113.404 4081.28,-108.574 4080.32,-115.508"/>
</g>
<!-- Node50&#45;&gt;Node23 -->
<g id="edge68" class="edge"><title>Node50&#45;&gt;Node23</title>
<path fill="none" stroke="midnightblue" d="M4227.76,-106.901C4211.44,-96.9986 4190.13,-84.0705 4176.26,-75.6545"/>
<polygon fill="midnightblue" stroke="midnightblue" points="4226.34,-110.129 4236.7,-112.324 4229.97,-104.144 4226.34,-110.129"/>
</g>
</g>
</svg>
