<?xml version="1.0" encoding="UTF-8" standalone="no"?>
<!DOCTYPE svg PUBLIC "-//W3C//DTD SVG 1.1//EN"
 "http://www.w3.org/Graphics/SVG/1.1/DTD/svg11.dtd">
<!-- Generated by graphviz version 2.36.0 (20140111.2315)
 -->
<!-- Title: IPlugMidi.h Pages: 1 -->
<svg width="669pt" height="252pt"
 viewBox="0.00 0.00 669.01 252.00" xmlns="http://www.w3.org/2000/svg" xmlns:xlink="http://www.w3.org/1999/xlink">
<g id="graph0" class="graph" transform="scale(1 1) rotate(0) translate(4 248)">
<title>IPlugMidi.h</title>
<polygon fill="white" stroke="none" points="-4,4 -4,-248 665.012,-248 665.012,4 -4,4"/>
<!-- Node1 -->
<g id="node1" class="node"><title>Node1</title>
<polygon fill="#bfbfbf" stroke="black" points="70.5118,-224.5 70.5118,-243.5 135.512,-243.5 135.512,-224.5 70.5118,-224.5"/>
<text text-anchor="middle" x="103.012" y="-231.5" font-family="Helvetica,sans-Serif" font-size="10.00">IPlugMidi.h</text>
</g>
<!-- Node2 -->
<g id="node2" class="node"><title>Node2</title>
<polygon fill="white" stroke="#bfbfbf" points="12.5118,-112.5 12.5118,-131.5 61.5118,-131.5 61.5118,-112.5 12.5118,-112.5"/>
<text text-anchor="middle" x="37.0118" y="-119.5" font-family="Helvetica,sans-Serif" font-size="10.00">cassert</text>
</g>
<!-- Node1&#45;&gt;Node2 -->
<g id="edge1" class="edge"><title>Node1&#45;&gt;Node2</title>
<path fill="none" stroke="midnightblue" d="M97.8329,-224.368C86.9892,-206.296 61.7177,-164.176 47.3962,-140.307"/>
<polygon fill="midnightblue" stroke="midnightblue" points="50.3129,-138.366 42.1667,-131.591 44.3105,-141.967 50.3129,-138.366"/>
</g>
<!-- Node3 -->
<g id="node3" class="node"><title>Node3</title>
<polygon fill="white" stroke="#bfbfbf" points="80.0118,-112.5 80.0118,-131.5 126.012,-131.5 126.012,-112.5 80.0118,-112.5"/>
<text text-anchor="middle" x="103.012" y="-119.5" font-family="Helvetica,sans-Serif" font-size="10.00">cstdint</text>
</g>
<!-- Node1&#45;&gt;Node3 -->
<g id="edge2" class="edge"><title>Node1&#45;&gt;Node3</title>
<path fill="none" stroke="midnightblue" d="M103.012,-224.368C103.012,-206.617 103.012,-165.666 103.012,-141.597"/>
<polygon fill="midnightblue" stroke="midnightblue" points="106.512,-141.591 103.012,-131.591 99.5119,-141.591 106.512,-141.591"/>
</g>
<!-- Node4 -->
<g id="node4" class="node"><title>Node4</title>
<polygon fill="white" stroke="#bfbfbf" points="618.512,-56.5 618.512,-75.5 661.512,-75.5 661.512,-56.5 618.512,-56.5"/>
<text text-anchor="middle" x="640.012" y="-63.5" font-family="Helvetica,sans-Serif" font-size="10.00">cstdio</text>
</g>
<!-- Node1&#45;&gt;Node4 -->
<g id="edge3" class="edge"><title>Node1&#45;&gt;Node4</title>
<path fill="none" stroke="midnightblue" d="M135.723,-230.275C235.541,-221.387 533.991,-190.392 609.012,-132 623.635,-120.618 631.717,-100.627 635.93,-85.8108"/>
<polygon fill="midnightblue" stroke="midnightblue" points="639.423,-86.2675 638.442,-75.7182 632.63,-84.5768 639.423,-86.2675"/>
</g>
<!-- Node5 -->
<g id="node5" class="node"><title>Node5</title>
<polygon fill="white" stroke="#bfbfbf" points="48.0118,-56.5 48.0118,-75.5 104.012,-75.5 104.012,-56.5 48.0118,-56.5"/>
<text text-anchor="middle" x="76.0118" y="-63.5" font-family="Helvetica,sans-Serif" font-size="10.00">algorithm</text>
</g>
<!-- Node1&#45;&gt;Node5 -->
<g id="edge4" class="edge"><title>Node1&#45;&gt;Node5</title>
<path fill="none" stroke="midnightblue" d="M89.3283,-224.488C66.3169,-209.262 20.6577,-174.903 3.01183,-132 -0.369365,-123.779 -1.32123,-119.761 3.01183,-112 11.168,-97.3909 26.2315,-86.9362 40.5658,-79.8038"/>
<polygon fill="midnightblue" stroke="midnightblue" points="42.1582,-82.9244 49.8004,-75.5863 39.2501,-76.557 42.1582,-82.9244"/>
</g>
<!-- Node6 -->
<g id="node6" class="node"><title>Node6</title>
<g id="a_node6"><a xlink:href="_i_plug_logger_8h.html" target="_top" xlink:title="IPlug logging a.k.a tracing functionality. ">
<polygon fill="white" stroke="black" points="234.512,-168.5 234.512,-187.5 311.512,-187.5 311.512,-168.5 234.512,-168.5"/>
<text text-anchor="middle" x="273.012" y="-175.5" font-family="Helvetica,sans-Serif" font-size="10.00">IPlugLogger.h</text>
</a>
</g>
</g>
<!-- Node1&#45;&gt;Node6 -->
<g id="edge5" class="edge"><title>Node1&#45;&gt;Node6</title>
<path fill="none" stroke="midnightblue" d="M129.949,-224.444C158.672,-215.32 204.34,-200.813 236.333,-190.651"/>
<polygon fill="midnightblue" stroke="midnightblue" points="237.73,-193.88 246.201,-187.516 235.61,-187.208 237.73,-193.88"/>
</g>
<!-- Node6&#45;&gt;Node2 -->
<g id="edge12" class="edge"><title>Node6&#45;&gt;Node2</title>
<path fill="none" stroke="midnightblue" d="M234.181,-168.827C195.502,-160.58 134.188,-147.222 71.8719,-132.136"/>
<polygon fill="midnightblue" stroke="midnightblue" points="72.4094,-128.664 61.8653,-129.7 70.7539,-135.466 72.4094,-128.664"/>
</g>
<!-- Node6&#45;&gt;Node3 -->
<g id="edge9" class="edge"><title>Node6&#45;&gt;Node3</title>
<path fill="none" stroke="midnightblue" d="M246.075,-168.444C216.253,-158.971 168.166,-143.696 136.083,-133.505"/>
<polygon fill="midnightblue" stroke="midnightblue" points="136.862,-130.08 126.272,-130.388 134.743,-136.752 136.862,-130.08"/>
</g>
<!-- Node6&#45;&gt;Node4 -->
<g id="edge6" class="edge"><title>Node6&#45;&gt;Node4</title>
<path fill="none" stroke="midnightblue" d="M311.571,-174.667C383.707,-169.773 535.938,-156.779 582.012,-132 602.529,-120.966 619.354,-99.6783 629.502,-84.4706"/>
<polygon fill="midnightblue" stroke="midnightblue" points="632.518,-86.2498 634.931,-75.9333 626.611,-82.4934 632.518,-86.2498"/>
</g>
<!-- Node7 -->
<g id="node7" class="node"><title>Node7</title>
<polygon fill="white" stroke="#bfbfbf" points="472.012,-56.5 472.012,-75.5 518.012,-75.5 518.012,-56.5 472.012,-56.5"/>
<text text-anchor="middle" x="495.012" y="-63.5" font-family="Helvetica,sans-Serif" font-size="10.00">cctype</text>
</g>
<!-- Node6&#45;&gt;Node7 -->
<g id="edge7" class="edge"><title>Node6&#45;&gt;Node7</title>
<path fill="none" stroke="midnightblue" d="M311.854,-173.034C347.258,-167.963 399.853,-156.67 439.012,-132 458.241,-119.886 474.441,-99.1223 484.392,-84.3228"/>
<polygon fill="midnightblue" stroke="midnightblue" points="487.531,-85.9131 489.998,-75.6095 481.644,-82.1255 487.531,-85.9131"/>
</g>
<!-- Node8 -->
<g id="node8" class="node"><title>Node8</title>
<polygon fill="white" stroke="#bfbfbf" points="524.512,-112.5 524.512,-131.5 573.512,-131.5 573.512,-112.5 524.512,-112.5"/>
<text text-anchor="middle" x="549.012" y="-119.5" font-family="Helvetica,sans-Serif" font-size="10.00">cstdarg</text>
</g>
<!-- Node6&#45;&gt;Node8 -->
<g id="edge8" class="edge"><title>Node6&#45;&gt;Node8</title>
<path fill="none" stroke="midnightblue" d="M311.692,-170.136C358.687,-161.686 440.337,-146.648 510.012,-132 511.457,-131.696 512.931,-131.381 514.419,-131.058"/>
<polygon fill="midnightblue" stroke="midnightblue" points="515.287,-134.45 524.287,-128.859 513.765,-127.618 515.287,-134.45"/>
</g>
<!-- Node9 -->
<g id="node9" class="node"><title>Node9</title>
<polygon fill="white" stroke="#bfbfbf" points="219.012,-0.5 219.012,-19.5 265.012,-19.5 265.012,-0.5 219.012,-0.5"/>
<text text-anchor="middle" x="242.012" y="-7.5" font-family="Helvetica,sans-Serif" font-size="10.00">cstring</text>
</g>
<!-- Node6&#45;&gt;Node9 -->
<g id="edge10" class="edge"><title>Node6&#45;&gt;Node9</title>
<path fill="none" stroke="midnightblue" d="M255.789,-168.333C229.872,-155.417 179.172,-130.644 135.012,-112 93.0317,-94.2768 64.9671,-113.454 39.0118,-76 -2.60449,-15.9476 140.718,-9.86212 208.469,-10.2205"/>
<polygon fill="midnightblue" stroke="midnightblue" points="208.618,-13.7221 218.654,-10.326 208.691,-6.7225 208.618,-13.7221"/>
</g>
<!-- Node10 -->
<g id="node10" class="node"><title>Node10</title>
<polygon fill="white" stroke="#bfbfbf" points="220.512,-112.5 220.512,-131.5 261.512,-131.5 261.512,-112.5 220.512,-112.5"/>
<text text-anchor="middle" x="241.012" y="-119.5" font-family="Helvetica,sans-Serif" font-size="10.00">ctime</text>
</g>
<!-- Node6&#45;&gt;Node10 -->
<g id="edge11" class="edge"><title>Node6&#45;&gt;Node10</title>
<path fill="none" stroke="midnightblue" d="M267.728,-168.083C263.301,-160.613 256.849,-149.724 251.394,-140.52"/>
<polygon fill="midnightblue" stroke="midnightblue" points="254.307,-138.57 246.198,-131.751 248.285,-142.138 254.307,-138.57"/>
</g>
<!-- Node11 -->
<g id="node11" class="node"><title>Node11</title>
<polygon fill="white" stroke="#bfbfbf" points="536.012,-56.5 536.012,-75.5 600.012,-75.5 600.012,-56.5 536.012,-56.5"/>
<text text-anchor="middle" x="568.012" y="-63.5" font-family="Helvetica,sans-Serif" font-size="10.00">wdlstring.h</text>
</g>
<!-- Node6&#45;&gt;Node11 -->
<g id="edge13" class="edge"><title>Node6&#45;&gt;Node11</title>
<path fill="none" stroke="midnightblue" d="M311.705,-171.805C351.337,-165.601 414.169,-153.292 465.012,-132 496.471,-118.826 529.177,-96.4489 549.069,-81.6959"/>
<polygon fill="midnightblue" stroke="midnightblue" points="551.385,-84.3331 557.257,-75.5144 547.167,-78.7464 551.385,-84.3331"/>
</g>
<!-- Node12 -->
<g id="node12" class="node"><title>Node12</title>
<polygon fill="white" stroke="#bfbfbf" points="280.012,-112.5 280.012,-131.5 332.012,-131.5 332.012,-112.5 280.012,-112.5"/>
<text text-anchor="middle" x="306.012" y="-119.5" font-family="Helvetica,sans-Serif" font-size="10.00">mutex.h</text>
</g>
<!-- Node6&#45;&gt;Node12 -->
<g id="edge14" class="edge"><title>Node6&#45;&gt;Node12</title>
<path fill="none" stroke="midnightblue" d="M278.461,-168.083C283.026,-160.613 289.68,-149.724 295.305,-140.52"/>
<polygon fill="midnightblue" stroke="midnightblue" points="298.436,-142.109 300.664,-131.751 292.463,-138.459 298.436,-142.109"/>
</g>
<!-- Node13 -->
<g id="node13" class="node"><title>Node13</title>
<g id="a_node13"><a xlink:href="_i_plug_constants_8h.html" target="_top" xlink:title="IPlug Constant definitions, Types, magic numbers. ">
<polygon fill="white" stroke="black" points="122.012,-56.5 122.012,-75.5 214.012,-75.5 214.012,-56.5 122.012,-56.5"/>
<text text-anchor="middle" x="168.012" y="-63.5" font-family="Helvetica,sans-Serif" font-size="10.00">IPlugConstants.h</text>
</a>
</g>
</g>
<!-- Node6&#45;&gt;Node13 -->
<g id="edge15" class="edge"><title>Node6&#45;&gt;Node13</title>
<path fill="none" stroke="midnightblue" d="M258.333,-168.467C244.991,-160.246 225.269,-146.89 211.012,-132 197.307,-117.687 185.21,-98.4776 177.366,-84.6581"/>
<polygon fill="midnightblue" stroke="midnightblue" points="180.326,-82.7758 172.444,-75.6951 174.19,-86.1452 180.326,-82.7758"/>
</g>
<!-- Node14 -->
<g id="node14" class="node"><title>Node14</title>
<g id="a_node14"><a xlink:href="_i_plug_utilities_8h.html" target="_top" xlink:title="Utility functions and macros. ">
<polygon fill="white" stroke="black" points="350.012,-112.5 350.012,-131.5 430.012,-131.5 430.012,-112.5 350.012,-112.5"/>
<text text-anchor="middle" x="390.012" y="-119.5" font-family="Helvetica,sans-Serif" font-size="10.00">IPlugUtilities.h</text>
</a>
</g>
</g>
<!-- Node6&#45;&gt;Node14 -->
<g id="edge16" class="edge"><title>Node6&#45;&gt;Node14</title>
<path fill="none" stroke="midnightblue" d="M291.551,-168.444C310.635,-159.636 340.587,-145.812 362.448,-135.722"/>
<polygon fill="midnightblue" stroke="midnightblue" points="363.947,-138.885 371.56,-131.516 361.013,-132.529 363.947,-138.885"/>
</g>
<!-- Node14&#45;&gt;Node4 -->
<g id="edge19" class="edge"><title>Node14&#45;&gt;Node4</title>
<path fill="none" stroke="midnightblue" d="M430.19,-113.742C472.212,-105.93 540.273,-92.6578 608.35,-75.9982"/>
<polygon fill="midnightblue" stroke="midnightblue" points="609.523,-79.3136 618.391,-73.5159 607.843,-72.5182 609.523,-79.3136"/>
</g>
<!-- Node14&#45;&gt;Node5 -->
<g id="edge17" class="edge"><title>Node14&#45;&gt;Node5</title>
<path fill="none" stroke="midnightblue" d="M349.915,-113.551C346.904,-113.017 343.911,-112.495 341.012,-112 243.047,-95.2719 215.32,-96.0707 114.255,-76.1161"/>
<polygon fill="midnightblue" stroke="midnightblue" points="114.732,-72.6424 104.24,-74.1189 113.363,-79.5072 114.732,-72.6424"/>
</g>
<!-- Node14&#45;&gt;Node7 -->
<g id="edge22" class="edge"><title>Node14&#45;&gt;Node7</title>
<path fill="none" stroke="midnightblue" d="M406.882,-112.324C423.721,-103.664 449.818,-90.2424 469.25,-80.249"/>
<polygon fill="midnightblue" stroke="midnightblue" points="470.891,-83.3405 478.184,-75.6545 467.69,-77.1155 470.891,-83.3405"/>
</g>
<!-- Node14&#45;&gt;Node9 -->
<g id="edge21" class="edge"><title>Node14&#45;&gt;Node9</title>
<path fill="none" stroke="midnightblue" d="M354.395,-112.484C320.91,-103.808 274.04,-89.7141 261.012,-76 249.255,-63.6246 244.722,-44.3794 243.001,-30.037"/>
<polygon fill="midnightblue" stroke="midnightblue" points="246.467,-29.4816 242.139,-19.8109 239.492,-30.0695 246.467,-29.4816"/>
</g>
<!-- Node14&#45;&gt;Node11 -->
<g id="edge23" class="edge"><title>Node14&#45;&gt;Node11</title>
<path fill="none" stroke="midnightblue" d="M418.216,-112.444C448.422,-103.28 496.523,-88.6876 530.041,-78.5192"/>
<polygon fill="midnightblue" stroke="midnightblue" points="531.386,-81.7688 539.939,-75.5164 529.354,-75.0703 531.386,-81.7688"/>
</g>
<!-- Node14&#45;&gt;Node13 -->
<g id="edge24" class="edge"><title>Node14&#45;&gt;Node13</title>
<path fill="none" stroke="midnightblue" d="M354.835,-112.444C316.433,-103.102 254.836,-88.1194 212.957,-77.9326"/>
<polygon fill="midnightblue" stroke="midnightblue" points="213.568,-74.4792 203.024,-75.5164 211.913,-81.2809 213.568,-74.4792"/>
</g>
<!-- Node15 -->
<g id="node15" class="node"><title>Node15</title>
<polygon fill="white" stroke="#bfbfbf" points="372.012,-56.5 372.012,-75.5 416.012,-75.5 416.012,-56.5 372.012,-56.5"/>
<text text-anchor="middle" x="394.012" y="-63.5" font-family="Helvetica,sans-Serif" font-size="10.00">cmath</text>
</g>
<!-- Node14&#45;&gt;Node15 -->
<g id="edge18" class="edge"><title>Node14&#45;&gt;Node15</title>
<path fill="none" stroke="midnightblue" d="M390.672,-112.083C391.197,-105.006 391.948,-94.8611 392.605,-85.9865"/>
<polygon fill="midnightblue" stroke="midnightblue" points="396.115,-85.9823 393.364,-75.7511 389.134,-85.4652 396.115,-85.9823"/>
</g>
<!-- Node16 -->
<g id="node16" class="node"><title>Node16</title>
<polygon fill="white" stroke="#bfbfbf" points="355.512,-0.5 355.512,-19.5 400.512,-19.5 400.512,-0.5 355.512,-0.5"/>
<text text-anchor="middle" x="378.012" y="-7.5" font-family="Helvetica,sans-Serif" font-size="10.00">cstdlib</text>
</g>
<!-- Node14&#45;&gt;Node16 -->
<g id="edge20" class="edge"><title>Node14&#45;&gt;Node16</title>
<path fill="none" stroke="midnightblue" d="M400.006,-112.394C412.931,-100.158 432.802,-76.8953 424.012,-56 418.986,-44.0528 409.068,-33.6922 399.724,-25.9339"/>
<polygon fill="midnightblue" stroke="midnightblue" points="401.852,-23.1547 391.798,-19.8113 397.573,-28.6944 401.852,-23.1547"/>
</g>
<!-- Node17 -->
<g id="node17" class="node"><title>Node17</title>
<g id="a_node17"><a xlink:href="_i_plug_platform_8h.html" target="_top" xlink:title="Include to get consistently named preprocessor macros for different platforms and logging functionali...">
<polygon fill="white" stroke="black" points="270.012,-56.5 270.012,-75.5 354.012,-75.5 354.012,-56.5 270.012,-56.5"/>
<text text-anchor="middle" x="312.012" y="-63.5" font-family="Helvetica,sans-Serif" font-size="10.00">IPlugPlatform.h</text>
</a>
</g>
</g>
<!-- Node14&#45;&gt;Node17 -->
<g id="edge25" class="edge"><title>Node14&#45;&gt;Node17</title>
<path fill="none" stroke="midnightblue" d="M377.48,-112.324C365.426,-103.979 346.985,-91.2122 332.743,-81.3524"/>
<polygon fill="midnightblue" stroke="midnightblue" points="334.727,-78.469 324.513,-75.6545 330.742,-84.2243 334.727,-78.469"/>
</g>
<!-- Node17&#45;&gt;Node9 -->
<g id="edge26" class="edge"><title>Node17&#45;&gt;Node9</title>
<path fill="none" stroke="midnightblue" d="M300.765,-56.324C290.214,-48.1849 274.211,-35.8395 261.57,-26.0874"/>
<polygon fill="midnightblue" stroke="midnightblue" points="263.519,-23.1707 253.463,-19.8339 259.243,-28.7132 263.519,-23.1707"/>
</g>
<!-- Node17&#45;&gt;Node16 -->
<g id="edge27" class="edge"><title>Node17&#45;&gt;Node16</title>
<path fill="none" stroke="midnightblue" d="M322.616,-56.324C332.468,-48.2631 347.363,-36.0765 359.227,-26.3695"/>
<polygon fill="midnightblue" stroke="midnightblue" points="361.692,-28.8752 367.215,-19.8339 357.259,-23.4575 361.692,-28.8752"/>
</g>
</g>
</svg>
