<?xml version="1.0" encoding="UTF-8" standalone="no"?>
<!DOCTYPE svg PUBLIC "-//W3C//DTD SVG 1.1//EN"
 "http://www.w3.org/Graphics/SVG/1.1/DTD/svg11.dtd">
<!-- Generated by graphviz version 2.36.0 (20140111.2315)
 -->
<!-- Title: IPlugAPIBase.h Pages: 1 -->
<svg width="1145pt" height="196pt"
 viewBox="0.00 0.00 1145.00 196.00" xmlns="http://www.w3.org/2000/svg" xmlns:xlink="http://www.w3.org/1999/xlink">
<g id="graph0" class="graph" transform="scale(1 1) rotate(0) translate(4 192)">
<title>IPlugAPIBase.h</title>
<polygon fill="white" stroke="none" points="-4,4 -4,-192 1141,-192 1141,4 -4,4"/>
<!-- Node1 -->
<g id="node1" class="node"><title>Node1</title>
<polygon fill="#bfbfbf" stroke="black" points="502,-168.5 502,-187.5 588,-187.5 588,-168.5 502,-168.5"/>
<text text-anchor="middle" x="545" y="-175.5" font-family="Helvetica,sans-Serif" font-size="10.00">IPlugAPIBase.h</text>
</g>
<!-- Node2 -->
<g id="node2" class="node"><title>Node2</title>
<g id="a_node2"><a xlink:href="_i_plug_a_a_x_8h.html" target="_top" xlink:title="AAX API base class for an IPlug plug&#45;in. ">
<polygon fill="white" stroke="black" points="32,-112.5 32,-131.5 100,-131.5 100,-112.5 32,-112.5"/>
<text text-anchor="middle" x="66" y="-119.5" font-family="Helvetica,sans-Serif" font-size="10.00">IPlugAAX.h</text>
</a>
</g>
</g>
<!-- Node1&#45;&gt;Node2 -->
<g id="edge1" class="edge"><title>Node1&#45;&gt;Node2</title>
<path fill="none" stroke="midnightblue" d="M491.742,-171.405C413.813,-163.154 264.157,-147.071 137,-132 125.031,-130.581 111.939,-128.946 100.294,-127.461"/>
<polygon fill="midnightblue" stroke="midnightblue" points="491.483,-174.897 501.796,-172.468 492.219,-167.936 491.483,-174.897"/>
</g>
<!-- Node4 -->
<g id="node4" class="node"><title>Node4</title>
<g id="a_node4"><a xlink:href="_i_plug_a_p_p_8h.html" target="_top" xlink:title="Standalone application base class for an IPlug plug&#45;in. ">
<polygon fill="white" stroke="black" points="146,-112.5 146,-131.5 214,-131.5 214,-112.5 146,-112.5"/>
<text text-anchor="middle" x="180" y="-119.5" font-family="Helvetica,sans-Serif" font-size="10.00">IPlugAPP.h</text>
</a>
</g>
</g>
<!-- Node1&#45;&gt;Node4 -->
<g id="edge3" class="edge"><title>Node1&#45;&gt;Node4</title>
<path fill="none" stroke="midnightblue" d="M491.362,-169.065C415.147,-157.789 277.711,-137.456 214.059,-128.039"/>
<polygon fill="midnightblue" stroke="midnightblue" points="491.292,-172.592 501.696,-170.593 492.316,-165.668 491.292,-172.592"/>
</g>
<!-- Node10 -->
<g id="node10" class="node"><title>Node10</title>
<g id="a_node10"><a xlink:href="_i_plug_a_u_8h.html" target="_top" xlink:title="AudioUnit v2 API base class for an IPlug plug&#45;in. ">
<polygon fill="white" stroke="black" points="258,-112.5 258,-131.5 320,-131.5 320,-112.5 258,-112.5"/>
<text text-anchor="middle" x="289" y="-119.5" font-family="Helvetica,sans-Serif" font-size="10.00">IPlugAU.h</text>
</a>
</g>
</g>
<!-- Node1&#45;&gt;Node10 -->
<g id="edge10" class="edge"><title>Node1&#45;&gt;Node10</title>
<path fill="none" stroke="midnightblue" d="M494.44,-166.335C442.554,-155.39 363.468,-138.708 320.114,-129.563"/>
<polygon fill="midnightblue" stroke="midnightblue" points="493.929,-169.804 504.436,-168.444 495.374,-162.955 493.929,-169.804"/>
</g>
<!-- Node12 -->
<g id="node12" class="node"><title>Node12</title>
<g id="a_node12"><a xlink:href="_i_plug_a_p_i_base_8cpp.html" target="_top" xlink:title="IPlugAPIBase implementation. ">
<polygon fill="white" stroke="black" points="347.5,-112.5 347.5,-131.5 444.5,-131.5 444.5,-112.5 347.5,-112.5"/>
<text text-anchor="middle" x="396" y="-119.5" font-family="Helvetica,sans-Serif" font-size="10.00">IPlugAPIBase.cpp</text>
</a>
</g>
</g>
<!-- Node1&#45;&gt;Node12 -->
<g id="edge12" class="edge"><title>Node1&#45;&gt;Node12</title>
<path fill="none" stroke="midnightblue" d="M511.629,-164.906C483.616,-154.754 444.304,-140.506 419.499,-131.516"/>
<polygon fill="midnightblue" stroke="midnightblue" points="510.796,-168.327 521.391,-168.444 513.181,-161.746 510.796,-168.327"/>
</g>
<!-- Node13 -->
<g id="node13" class="node"><title>Node13</title>
<g id="a_node13"><a xlink:href="_i_plug_v_s_t2_8h.html" target="_top" xlink:title="IPlugVST2.h">
<polygon fill="white" stroke="black" points="463,-112.5 463,-131.5 535,-131.5 535,-112.5 463,-112.5"/>
<text text-anchor="middle" x="499" y="-119.5" font-family="Helvetica,sans-Serif" font-size="10.00">IPlugVST2.h</text>
</a>
</g>
</g>
<!-- Node1&#45;&gt;Node13 -->
<g id="edge13" class="edge"><title>Node1&#45;&gt;Node13</title>
<path fill="none" stroke="midnightblue" d="M530.886,-160.431C522.824,-150.967 513.041,-139.483 506.455,-131.751"/>
<polygon fill="midnightblue" stroke="midnightblue" points="528.255,-162.74 537.404,-168.083 533.584,-158.201 528.255,-162.74"/>
</g>
<!-- Node16 -->
<g id="node16" class="node"><title>Node16</title>
<g id="a_node16"><a xlink:href="_i_plug_v_s_t3_8h.html" target="_top" xlink:title="VST3 base class for a non&#45;distributed IPlug VST3 plug&#45;in. ">
<polygon fill="white" stroke="black" points="555,-112.5 555,-131.5 627,-131.5 627,-112.5 555,-112.5"/>
<text text-anchor="middle" x="591" y="-119.5" font-family="Helvetica,sans-Serif" font-size="10.00">IPlugVST3.h</text>
</a>
</g>
</g>
<!-- Node1&#45;&gt;Node16 -->
<g id="edge16" class="edge"><title>Node1&#45;&gt;Node16</title>
<path fill="none" stroke="midnightblue" d="M559.114,-160.431C567.176,-150.967 576.959,-139.483 583.545,-131.751"/>
<polygon fill="midnightblue" stroke="midnightblue" points="556.416,-158.201 552.596,-168.083 561.745,-162.74 556.416,-158.201"/>
</g>
<!-- Node18 -->
<g id="node18" class="node"><title>Node18</title>
<g id="a_node18"><a xlink:href="_i_plug_v_s_t3___controller_8h.html" target="_top" xlink:title="VST3 Controller base class for a distributed IPlug VST3 plug&#45;in. ">
<polygon fill="white" stroke="black" points="648.5,-112.5 648.5,-131.5 767.5,-131.5 767.5,-112.5 648.5,-112.5"/>
<text text-anchor="middle" x="708" y="-119.5" font-family="Helvetica,sans-Serif" font-size="10.00">IPlugVST3_Controller.h</text>
</a>
</g>
</g>
<!-- Node1&#45;&gt;Node18 -->
<g id="edge18" class="edge"><title>Node1&#45;&gt;Node18</title>
<path fill="none" stroke="midnightblue" d="M580.703,-165.172C611.396,-155.004 654.919,-140.585 682.293,-131.516"/>
<polygon fill="midnightblue" stroke="midnightblue" points="579.22,-161.976 570.828,-168.444 581.421,-168.621 579.22,-161.976"/>
</g>
<!-- Node20 -->
<g id="node20" class="node"><title>Node20</title>
<g id="a_node20"><a xlink:href="_i_plug_v_s_t3___processor_8h.html" target="_top" xlink:title="VST3 Processor base class for a distributed IPlug VST3 plug&#45;in. ">
<polygon fill="white" stroke="black" points="793,-112.5 793,-131.5 915,-131.5 915,-112.5 793,-112.5"/>
<text text-anchor="middle" x="854" y="-119.5" font-family="Helvetica,sans-Serif" font-size="10.00">IPlugVST3_Processor.h</text>
</a>
</g>
</g>
<!-- Node1&#45;&gt;Node20 -->
<g id="edge20" class="edge"><title>Node1&#45;&gt;Node20</title>
<path fill="none" stroke="midnightblue" d="M598.384,-167.671C656.554,-157.505 748.822,-141.381 805.145,-131.538"/>
<polygon fill="midnightblue" stroke="midnightblue" points="597.539,-164.265 588.29,-169.435 598.744,-171.161 597.539,-164.265"/>
</g>
<!-- Node22 -->
<g id="node22" class="node"><title>Node22</title>
<g id="a_node22"><a xlink:href="_i_plug_w_a_m_8h_source.html" target="_top" xlink:title="IPlugWAM.h">
<polygon fill="white" stroke="black" points="946,-112.5 946,-131.5 1018,-131.5 1018,-112.5 946,-112.5"/>
<text text-anchor="middle" x="982" y="-119.5" font-family="Helvetica,sans-Serif" font-size="10.00">IPlugWAM.h</text>
</a>
</g>
</g>
<!-- Node1&#45;&gt;Node22 -->
<g id="edge22" class="edge"><title>Node1&#45;&gt;Node22</title>
<path fill="none" stroke="midnightblue" d="M598.642,-171.242C672.144,-163.213 808.243,-147.848 924,-132 931.067,-131.032 938.606,-129.921 945.83,-128.817"/>
<polygon fill="midnightblue" stroke="midnightblue" points="597.824,-167.811 588.261,-172.373 598.582,-174.769 597.824,-167.811"/>
</g>
<!-- Node24 -->
<g id="node24" class="node"><title>Node24</title>
<g id="a_node24"><a xlink:href="_i_plug_web_8h_source.html" target="_top" xlink:title="IPlugWeb.h">
<polygon fill="white" stroke="black" points="1063,-112.5 1063,-131.5 1131,-131.5 1131,-112.5 1063,-112.5"/>
<text text-anchor="middle" x="1097" y="-119.5" font-family="Helvetica,sans-Serif" font-size="10.00">IPlugWeb.h</text>
</a>
</g>
</g>
<!-- Node1&#45;&gt;Node24 -->
<g id="edge24" class="edge"><title>Node1&#45;&gt;Node24</title>
<path fill="none" stroke="midnightblue" d="M598.369,-172.628C687.33,-165.203 871.521,-149.248 1027,-132 1038.69,-130.703 1051.46,-129.113 1062.85,-127.633"/>
<polygon fill="midnightblue" stroke="midnightblue" points="597.933,-169.152 588.258,-173.469 598.514,-176.128 597.933,-169.152"/>
</g>
<!-- Node3 -->
<g id="node3" class="node"><title>Node3</title>
<g id="a_node3"><a xlink:href="_i_plug_a_a_x_8cpp_source.html" target="_top" xlink:title="IPlugAAX.cpp">
<polygon fill="white" stroke="black" points="0,-56.5 0,-75.5 78,-75.5 78,-56.5 0,-56.5"/>
<text text-anchor="middle" x="39" y="-63.5" font-family="Helvetica,sans-Serif" font-size="10.00">IPlugAAX.cpp</text>
</a>
</g>
</g>
<!-- Node2&#45;&gt;Node3 -->
<g id="edge2" class="edge"><title>Node2&#45;&gt;Node3</title>
<path fill="none" stroke="midnightblue" d="M56.9914,-102.983C52.4084,-93.8168 47.0461,-83.0922 43.3755,-75.7511"/>
<polygon fill="midnightblue" stroke="midnightblue" points="53.9388,-104.704 61.5415,-112.083 60.1998,-101.573 53.9388,-104.704"/>
</g>
<!-- Node5 -->
<g id="node5" class="node"><title>Node5</title>
<g id="a_node5"><a xlink:href="_i_plug_a_p_p_8cpp_source.html" target="_top" xlink:title="IPlugAPP.cpp">
<polygon fill="white" stroke="black" points="29,-0.5 29,-19.5 107,-19.5 107,-0.5 29,-0.5"/>
<text text-anchor="middle" x="68" y="-7.5" font-family="Helvetica,sans-Serif" font-size="10.00">IPlugAPP.cpp</text>
</a>
</g>
</g>
<!-- Node4&#45;&gt;Node5 -->
<g id="edge4" class="edge"><title>Node4&#45;&gt;Node5</title>
<path fill="none" stroke="midnightblue" d="M160.16,-106.061C149.392,-97.6392 136.061,-86.6887 125,-76 105.573,-57.2259 85.2852,-32.7179 74.9516,-19.8209"/>
<polygon fill="midnightblue" stroke="midnightblue" points="158.096,-108.889 168.153,-112.221 162.368,-103.345 158.096,-108.889"/>
</g>
<!-- Node6 -->
<g id="node6" class="node"><title>Node6</title>
<g id="a_node6"><a xlink:href="_i_plug_a_p_p__host_8h_source.html" target="_top" xlink:title="IPlugAPP_host.h">
<polygon fill="white" stroke="black" points="134,-56.5 134,-75.5 226,-75.5 226,-56.5 134,-56.5"/>
<text text-anchor="middle" x="180" y="-63.5" font-family="Helvetica,sans-Serif" font-size="10.00">IPlugAPP_host.h</text>
</a>
</g>
</g>
<!-- Node4&#45;&gt;Node6 -->
<g id="edge5" class="edge"><title>Node4&#45;&gt;Node6</title>
<path fill="none" stroke="midnightblue" d="M180,-101.805C180,-92.9102 180,-82.7798 180,-75.7511"/>
<polygon fill="midnightblue" stroke="midnightblue" points="176.5,-102.083 180,-112.083 183.5,-102.083 176.5,-102.083"/>
</g>
<!-- Node6&#45;&gt;Node5 -->
<g id="edge6" class="edge"><title>Node6&#45;&gt;Node5</title>
<path fill="none" stroke="midnightblue" d="M152.751,-51.8622C131.984,-41.8492 103.977,-28.3458 85.9501,-19.6545"/>
<polygon fill="midnightblue" stroke="midnightblue" points="151.477,-55.1336 162.005,-56.324 154.518,-48.8282 151.477,-55.1336"/>
</g>
<!-- Node7 -->
<g id="node7" class="node"><title>Node7</title>
<g id="a_node7"><a xlink:href="_i_plug_a_p_p__dialog_8cpp_source.html" target="_top" xlink:title="IPlugAPP_dialog.cpp">
<polygon fill="white" stroke="black" points="125.5,-0.5 125.5,-19.5 234.5,-19.5 234.5,-0.5 125.5,-0.5"/>
<text text-anchor="middle" x="180" y="-7.5" font-family="Helvetica,sans-Serif" font-size="10.00">IPlugAPP_dialog.cpp</text>
</a>
</g>
</g>
<!-- Node6&#45;&gt;Node7 -->
<g id="edge7" class="edge"><title>Node6&#45;&gt;Node7</title>
<path fill="none" stroke="midnightblue" d="M180,-45.8045C180,-36.9102 180,-26.7798 180,-19.7511"/>
<polygon fill="midnightblue" stroke="midnightblue" points="176.5,-46.083 180,-56.083 183.5,-46.083 176.5,-46.083"/>
</g>
<!-- Node8 -->
<g id="node8" class="node"><title>Node8</title>
<g id="a_node8"><a xlink:href="_i_plug_a_p_p__host_8cpp_source.html" target="_top" xlink:title="IPlugAPP_host.cpp">
<polygon fill="white" stroke="black" points="253,-0.5 253,-19.5 355,-19.5 355,-0.5 253,-0.5"/>
<text text-anchor="middle" x="304" y="-7.5" font-family="Helvetica,sans-Serif" font-size="10.00">IPlugAPP_host.cpp</text>
</a>
</g>
</g>
<!-- Node6&#45;&gt;Node8 -->
<g id="edge8" class="edge"><title>Node6&#45;&gt;Node8</title>
<path fill="none" stroke="midnightblue" d="M209.007,-52.3678C232.229,-42.2553 264.163,-28.3486 284.444,-19.5164"/>
<polygon fill="midnightblue" stroke="midnightblue" points="207.419,-49.2419 199.648,-56.4435 210.214,-55.6597 207.419,-49.2419"/>
</g>
<!-- Node9 -->
<g id="node9" class="node"><title>Node9</title>
<g id="a_node9"><a xlink:href="_i_plug_a_p_p__main_8cpp_source.html" target="_top" xlink:title="IPlugAPP_main.cpp">
<polygon fill="white" stroke="black" points="373,-0.5 373,-19.5 477,-19.5 477,-0.5 373,-0.5"/>
<text text-anchor="middle" x="425" y="-7.5" font-family="Helvetica,sans-Serif" font-size="10.00">IPlugAPP_main.cpp</text>
</a>
</g>
</g>
<!-- Node6&#45;&gt;Node9 -->
<g id="edge9" class="edge"><title>Node6&#45;&gt;Node9</title>
<path fill="none" stroke="midnightblue" d="M228.63,-54.2815C274.929,-44.0769 343.695,-28.9203 386.361,-19.5164"/>
<polygon fill="midnightblue" stroke="midnightblue" points="227.833,-50.8731 218.821,-56.4435 229.34,-57.709 227.833,-50.8731"/>
</g>
<!-- Node11 -->
<g id="node11" class="node"><title>Node11</title>
<g id="a_node11"><a xlink:href="_i_plug_a_u_8cpp_source.html" target="_top" xlink:title="IPlugAU.cpp">
<polygon fill="white" stroke="black" points="244,-56.5 244,-75.5 316,-75.5 316,-56.5 244,-56.5"/>
<text text-anchor="middle" x="280" y="-63.5" font-family="Helvetica,sans-Serif" font-size="10.00">IPlugAU.cpp</text>
</a>
</g>
</g>
<!-- Node10&#45;&gt;Node11 -->
<g id="edge11" class="edge"><title>Node10&#45;&gt;Node11</title>
<path fill="none" stroke="midnightblue" d="M285.85,-102.101C284.356,-93.1357 282.643,-82.8579 281.459,-75.7511"/>
<polygon fill="midnightblue" stroke="midnightblue" points="282.417,-102.794 287.514,-112.083 289.322,-101.644 282.417,-102.794"/>
</g>
<!-- Node14 -->
<g id="node14" class="node"><title>Node14</title>
<g id="a_node14"><a xlink:href="_i_plug_reaper_v_s_t2_8h_source.html" target="_top" xlink:title="IPlugReaperVST2.h">
<polygon fill="white" stroke="black" points="334,-56.5 334,-75.5 438,-75.5 438,-56.5 334,-56.5"/>
<text text-anchor="middle" x="386" y="-63.5" font-family="Helvetica,sans-Serif" font-size="10.00">IPlugReaperVST2.h</text>
</a>
</g>
</g>
<!-- Node13&#45;&gt;Node14 -->
<g id="edge14" class="edge"><title>Node13&#45;&gt;Node14</title>
<path fill="none" stroke="midnightblue" d="M471.997,-108.096C450.886,-98.0073 422.138,-84.2697 403.821,-75.5164"/>
<polygon fill="midnightblue" stroke="midnightblue" points="470.563,-111.29 481.095,-112.444 473.581,-104.974 470.563,-111.29"/>
</g>
<!-- Node15 -->
<g id="node15" class="node"><title>Node15</title>
<g id="a_node15"><a xlink:href="_i_plug_v_s_t2_8cpp_source.html" target="_top" xlink:title="IPlugVST2.cpp">
<polygon fill="white" stroke="black" points="456.5,-56.5 456.5,-75.5 539.5,-75.5 539.5,-56.5 456.5,-56.5"/>
<text text-anchor="middle" x="498" y="-63.5" font-family="Helvetica,sans-Serif" font-size="10.00">IPlugVST2.cpp</text>
</a>
</g>
</g>
<!-- Node13&#45;&gt;Node15 -->
<g id="edge15" class="edge"><title>Node13&#45;&gt;Node15</title>
<path fill="none" stroke="midnightblue" d="M498.645,-101.805C498.48,-92.9102 498.292,-82.7798 498.162,-75.7511"/>
<polygon fill="midnightblue" stroke="midnightblue" points="495.15,-102.15 498.835,-112.083 502.149,-102.02 495.15,-102.15"/>
</g>
<!-- Node17 -->
<g id="node17" class="node"><title>Node17</title>
<g id="a_node17"><a xlink:href="_i_plug_v_s_t3_8cpp_source.html" target="_top" xlink:title="IPlugVST3.cpp">
<polygon fill="white" stroke="black" points="557.5,-56.5 557.5,-75.5 640.5,-75.5 640.5,-56.5 557.5,-56.5"/>
<text text-anchor="middle" x="599" y="-63.5" font-family="Helvetica,sans-Serif" font-size="10.00">IPlugVST3.cpp</text>
</a>
</g>
</g>
<!-- Node16&#45;&gt;Node17 -->
<g id="edge17" class="edge"><title>Node16&#45;&gt;Node17</title>
<path fill="none" stroke="midnightblue" d="M593.8,-102.101C595.128,-93.1357 596.651,-82.8579 597.704,-75.7511"/>
<polygon fill="midnightblue" stroke="midnightblue" points="590.324,-101.678 592.321,-112.083 597.249,-102.704 590.324,-101.678"/>
</g>
<!-- Node19 -->
<g id="node19" class="node"><title>Node19</title>
<g id="a_node19"><a xlink:href="_i_plug_v_s_t3___controller_8cpp_source.html" target="_top" xlink:title="IPlugVST3_Controller.cpp">
<polygon fill="white" stroke="black" points="659,-56.5 659,-75.5 789,-75.5 789,-56.5 659,-56.5"/>
<text text-anchor="middle" x="724" y="-63.5" font-family="Helvetica,sans-Serif" font-size="10.00">IPlugVST3_Controller.cpp</text>
</a>
</g>
</g>
<!-- Node18&#45;&gt;Node19 -->
<g id="edge19" class="edge"><title>Node18&#45;&gt;Node19</title>
<path fill="none" stroke="midnightblue" d="M713.512,-102.396C716.189,-93.362 719.278,-82.936 721.407,-75.7511"/>
<polygon fill="midnightblue" stroke="midnightblue" points="710.127,-101.501 710.642,-112.083 716.839,-103.489 710.127,-101.501"/>
</g>
<!-- Node21 -->
<g id="node21" class="node"><title>Node21</title>
<g id="a_node21"><a xlink:href="_i_plug_v_s_t3___processor_8cpp_source.html" target="_top" xlink:title="IPlugVST3_Processor.cpp">
<polygon fill="white" stroke="black" points="807,-56.5 807,-75.5 939,-75.5 939,-56.5 807,-56.5"/>
<text text-anchor="middle" x="873" y="-63.5" font-family="Helvetica,sans-Serif" font-size="10.00">IPlugVST3_Processor.cpp</text>
</a>
</g>
</g>
<!-- Node20&#45;&gt;Node21 -->
<g id="edge21" class="edge"><title>Node20&#45;&gt;Node21</title>
<path fill="none" stroke="midnightblue" d="M860.546,-102.396C863.724,-93.362 867.393,-82.936 869.921,-75.7511"/>
<polygon fill="midnightblue" stroke="midnightblue" points="857.155,-101.488 857.137,-112.083 863.758,-103.812 857.155,-101.488"/>
</g>
<!-- Node23 -->
<g id="node23" class="node"><title>Node23</title>
<g id="a_node23"><a xlink:href="_i_plug_w_a_m_8cpp_source.html" target="_top" xlink:title="IPlugWAM.cpp">
<polygon fill="white" stroke="black" points="957.5,-56.5 957.5,-75.5 1040.5,-75.5 1040.5,-56.5 957.5,-56.5"/>
<text text-anchor="middle" x="999" y="-63.5" font-family="Helvetica,sans-Serif" font-size="10.00">IPlugWAM.cpp</text>
</a>
</g>
</g>
<!-- Node22&#45;&gt;Node23 -->
<g id="edge23" class="edge"><title>Node22&#45;&gt;Node23</title>
<path fill="none" stroke="midnightblue" d="M987.857,-102.396C990.701,-93.362 993.983,-82.936 996.245,-75.7511"/>
<polygon fill="midnightblue" stroke="midnightblue" points="984.472,-101.493 984.807,-112.083 991.149,-103.596 984.472,-101.493"/>
</g>
<!-- Node25 -->
<g id="node25" class="node"><title>Node25</title>
<g id="a_node25"><a xlink:href="_i_plug_web_8cpp_source.html" target="_top" xlink:title="IPlugWeb.cpp">
<polygon fill="white" stroke="black" points="1059,-56.5 1059,-75.5 1137,-75.5 1137,-56.5 1059,-56.5"/>
<text text-anchor="middle" x="1098" y="-63.5" font-family="Helvetica,sans-Serif" font-size="10.00">IPlugWeb.cpp</text>
</a>
</g>
</g>
<!-- Node24&#45;&gt;Node25 -->
<g id="edge25" class="edge"><title>Node24&#45;&gt;Node25</title>
<path fill="none" stroke="midnightblue" d="M1097.36,-101.805C1097.52,-92.9102 1097.71,-82.7798 1097.84,-75.7511"/>
<polygon fill="midnightblue" stroke="midnightblue" points="1093.85,-102.02 1097.17,-112.083 1100.85,-102.15 1093.85,-102.02"/>
</g>
</g>
</svg>
