<?xml version="1.0" encoding="UTF-8" standalone="no"?>
<!DOCTYPE svg PUBLIC "-//W3C//DTD SVG 1.1//EN"
 "http://www.w3.org/Graphics/SVG/1.1/DTD/svg11.dtd">
<!-- Generated by graphviz version 2.36.0 (20140111.2315)
 -->
<!-- Title: IPlugDelegate_select.h Pages: 1 -->
<!--zoomable 420 -->
<svg id="main" version="1.1" xmlns="http://www.w3.org/2000/svg" xmlns:xlink="http://www.w3.org/1999/xlink" xml:space="preserve" onload="init(evt)">
<style type="text/css"><![CDATA[
.edge:hover path { stroke: red; }
.edge:hover polygon { stroke: red; fill: red; }
]]></style>
<script type="text/javascript"><![CDATA[
var edges = document.getElementsByTagName('g');
if (edges && edges.length) {
  for (var i=0;i<edges.length;i++) {
    if (edges[i].id.substr(0,4)=='edge') {
      edges[i].setAttribute('class','edge');
    }
  }
}
]]></script>
        <defs>
                <circle id="rim" cx="0" cy="0" r="7"/>
                <circle id="rim2" cx="0" cy="0" r="3.5"/>
                <g id="zoomPlus">
                        <use xlink:href="#rim" fill="#404040">
                                <set attributeName="fill" to="#808080" begin="zoomplus.mouseover" end="zoomplus.mouseout"/>
                        </use>
                        <path d="M-4,0h8M0,-4v8" fill="none" stroke="white" stroke-width="1.5" pointer-events="none"/>
                </g>
                <g id="zoomMin">
                        <use xlink:href="#rim" fill="#404040">
                                <set attributeName="fill" to="#808080" begin="zoomminus.mouseover" end="zoomminus.mouseout"/>
                        </use>
                        <path d="M-4,0h8" fill="none" stroke="white" stroke-width="1.5" pointer-events="none"/>
                </g>
                <g id="dirArrow">
                        <path fill="none" stroke="white" stroke-width="1.5" d="M0,-3.0v7 M-2.5,-0.5L0,-3.0L2.5,-0.5"/>
                </g>
               <g id="resetDef">
                       <use xlink:href="#rim2" fill="#404040">
                               <set attributeName="fill" to="#808080" begin="reset.mouseover" end="reset.mouseout"/>
                       </use>
               </g>
        </defs>

<script type="text/javascript">
var viewWidth = 1178;
var viewHeight = 420;
var sectionId = 'dynsection-0';
</script>
<script xlink:href="svgpan.js"/>
<svg id="graph" class="graph">
<g id="viewport">
<title>IPlugDelegate_select.h</title>
<polygon fill="white" stroke="none" points="-4,4 -4,-416 1174,-416 1174,4 -4,4"/>
<!-- Node1 -->
<g id="node1" class="node"><title>Node1</title>
<polygon fill="#bfbfbf" stroke="black" points="880,-392.5 880,-411.5 998,-411.5 998,-392.5 880,-392.5"/>
<text text-anchor="middle" x="939" y="-399.5" font-family="Helvetica,sans-Serif" font-size="10.00">IPlugDelegate_select.h</text>
</g>
<!-- Node2 -->
<g id="node2" class="node"><title>Node2</title>
<g id="a_node2"><a xlink:href="_i_plug_editor_delegate_8h.html" target="_top" xlink:title="This pure virtual interface delegates communication in both directions between a UI editor and someth...">
<polygon fill="white" stroke="black" points="883,-336.5 883,-355.5 995,-355.5 995,-336.5 883,-336.5"/>
<text text-anchor="middle" x="939" y="-343.5" font-family="Helvetica,sans-Serif" font-size="10.00">IPlugEditorDelegate.h</text>
</a>
</g>
</g>
<!-- Node1&#45;&gt;Node2 -->
<g id="edge1" class="edge"><title>Node1&#45;&gt;Node2</title>
<path fill="none" stroke="midnightblue" d="M939,-392.083C939,-385.006 939,-374.861 939,-365.986"/>
<polygon fill="midnightblue" stroke="midnightblue" points="942.5,-365.751 939,-355.751 935.5,-365.751 942.5,-365.751"/>
</g>
<!-- Node3 -->
<g id="node3" class="node"><title>Node3</title>
<polygon fill="white" stroke="#bfbfbf" points="1014.5,-112.5 1014.5,-131.5 1063.5,-131.5 1063.5,-112.5 1014.5,-112.5"/>
<text text-anchor="middle" x="1039" y="-119.5" font-family="Helvetica,sans-Serif" font-size="10.00">cassert</text>
</g>
<!-- Node2&#45;&gt;Node3 -->
<g id="edge2" class="edge"><title>Node2&#45;&gt;Node3</title>
<path fill="none" stroke="midnightblue" d="M943.706,-336.313C956.331,-312.827 991.642,-245.93 1016,-188 1022.52,-172.483 1028.82,-154.4 1033.17,-141.252"/>
<polygon fill="midnightblue" stroke="midnightblue" points="1036.57,-142.125 1036.33,-131.533 1029.91,-139.962 1036.57,-142.125"/>
</g>
<!-- Node4 -->
<g id="node4" class="node"><title>Node4</title>
<polygon fill="white" stroke="#bfbfbf" points="450,-0.5 450,-19.5 496,-19.5 496,-0.5 450,-0.5"/>
<text text-anchor="middle" x="473" y="-7.5" font-family="Helvetica,sans-Serif" font-size="10.00">cstring</text>
</g>
<!-- Node2&#45;&gt;Node4 -->
<g id="edge3" class="edge"><title>Node2&#45;&gt;Node4</title>
<path fill="none" stroke="midnightblue" d="M974.101,-336.47C1019.27,-323.151 1092,-292.742 1092,-235 1092,-235 1092,-235 1092,-121 1092,-60.9508 634.589,-22.8563 506.169,-13.3444"/>
<polygon fill="midnightblue" stroke="midnightblue" points="506.365,-9.84943 496.136,-12.6101 505.854,-16.8308 506.365,-9.84943"/>
</g>
<!-- Node5 -->
<g id="node5" class="node"><title>Node5</title>
<polygon fill="white" stroke="#bfbfbf" points="1120.5,-280.5 1120.5,-299.5 1169.5,-299.5 1169.5,-280.5 1120.5,-280.5"/>
<text text-anchor="middle" x="1145" y="-287.5" font-family="Helvetica,sans-Serif" font-size="10.00">stdint.h</text>
</g>
<!-- Node2&#45;&gt;Node5 -->
<g id="edge4" class="edge"><title>Node2&#45;&gt;Node5</title>
<path fill="none" stroke="midnightblue" d="M971.641,-336.444C1009.55,-326.506 1071.81,-310.185 1110.5,-300.044"/>
<polygon fill="midnightblue" stroke="midnightblue" points="1111.48,-303.404 1120.27,-297.483 1109.71,-296.633 1111.48,-303.404"/>
</g>
<!-- Node6 -->
<g id="node6" class="node"><title>Node6</title>
<polygon fill="white" stroke="#bfbfbf" points="914.5,-224.5 914.5,-243.5 963.5,-243.5 963.5,-224.5 914.5,-224.5"/>
<text text-anchor="middle" x="939" y="-231.5" font-family="Helvetica,sans-Serif" font-size="10.00">ptrlist.h</text>
</g>
<!-- Node2&#45;&gt;Node6 -->
<g id="edge5" class="edge"><title>Node2&#45;&gt;Node6</title>
<path fill="none" stroke="midnightblue" d="M939,-336.368C939,-318.617 939,-277.666 939,-253.597"/>
<polygon fill="midnightblue" stroke="midnightblue" points="942.5,-253.591 939,-243.591 935.5,-253.591 942.5,-253.591"/>
</g>
<!-- Node7 -->
<g id="node7" class="node"><title>Node7</title>
<g id="a_node7"><a xlink:href="_i_plug_parameter_8h.html" target="_top" xlink:title="IPlug&#39;s parameter class. ">
<polygon fill="white" stroke="black" points="107,-168.5 107,-187.5 199,-187.5 199,-168.5 107,-168.5"/>
<text text-anchor="middle" x="153" y="-175.5" font-family="Helvetica,sans-Serif" font-size="10.00">IPlugParameter.h</text>
</a>
</g>
</g>
<!-- Node2&#45;&gt;Node7 -->
<g id="edge6" class="edge"><title>Node2&#45;&gt;Node7</title>
<path fill="none" stroke="midnightblue" d="M882.76,-343.103C788.365,-339.236 592.343,-328.275 429,-300 331.703,-283.158 298.897,-294.426 214,-244 193.505,-231.827 175.59,-210.771 164.569,-195.928"/>
<polygon fill="midnightblue" stroke="midnightblue" points="167.298,-193.727 158.637,-187.625 161.602,-197.796 167.298,-193.727"/>
</g>
<!-- Node19 -->
<g id="node19" class="node"><title>Node19</title>
<g id="a_node19"><a xlink:href="_i_plug_midi_8h.html" target="_top" xlink:title="MIDI and sysex structs/utilites. ">
<polygon fill="white" stroke="black" points="831.5,-224.5 831.5,-243.5 896.5,-243.5 896.5,-224.5 831.5,-224.5"/>
<text text-anchor="middle" x="864" y="-231.5" font-family="Helvetica,sans-Serif" font-size="10.00">IPlugMidi.h</text>
</a>
</g>
</g>
<!-- Node2&#45;&gt;Node19 -->
<g id="edge23" class="edge"><title>Node2&#45;&gt;Node19</title>
<path fill="none" stroke="midnightblue" d="M933.115,-336.368C920.738,-318.215 891.819,-275.802 875.584,-251.99"/>
<polygon fill="midnightblue" stroke="midnightblue" points="878.383,-249.882 869.858,-243.591 872.599,-253.825 878.383,-249.882"/>
</g>
<!-- Node25 -->
<g id="node25" class="node"><title>Node25</title>
<g id="a_node25"><a xlink:href="_i_plug_structs_8h_source.html" target="_top" xlink:title="IPlugStructs.h">
<polygon fill="white" stroke="black" points="438.5,-280.5 438.5,-299.5 517.5,-299.5 517.5,-280.5 438.5,-280.5"/>
<text text-anchor="middle" x="478" y="-287.5" font-family="Helvetica,sans-Serif" font-size="10.00">IPlugStructs.h</text>
</a>
</g>
</g>
<!-- Node2&#45;&gt;Node25 -->
<g id="edge40" class="edge"><title>Node2&#45;&gt;Node25</title>
<path fill="none" stroke="midnightblue" d="M882.933,-338.433C792.084,-327.791 614.171,-306.951 527.634,-296.814"/>
<polygon fill="midnightblue" stroke="midnightblue" points="527.885,-293.32 517.546,-295.632 527.071,-300.272 527.885,-293.32"/>
</g>
<!-- Node7&#45;&gt;Node4 -->
<g id="edge8" class="edge"><title>Node7&#45;&gt;Node4</title>
<path fill="none" stroke="midnightblue" d="M151.108,-168.182C146.895,-145.891 139.371,-86.8706 170,-56 188.788,-37.0642 364.235,-20.1693 439.248,-13.7471"/>
<polygon fill="midnightblue" stroke="midnightblue" points="439.886,-17.2057 449.556,-12.8765 439.296,-10.2305 439.886,-17.2057"/>
</g>
<!-- Node8 -->
<g id="node8" class="node"><title>Node8</title>
<polygon fill="white" stroke="#bfbfbf" points="77,-112.5 77,-131.5 123,-131.5 123,-112.5 77,-112.5"/>
<text text-anchor="middle" x="100" y="-119.5" font-family="Helvetica,sans-Serif" font-size="10.00">atomic</text>
</g>
<!-- Node7&#45;&gt;Node8 -->
<g id="edge7" class="edge"><title>Node7&#45;&gt;Node8</title>
<path fill="none" stroke="midnightblue" d="M144.248,-168.083C136.53,-160.22 125.095,-148.569 115.783,-139.081"/>
<polygon fill="midnightblue" stroke="midnightblue" points="118.092,-136.436 108.589,-131.751 113.096,-141.34 118.092,-136.436"/>
</g>
<!-- Node9 -->
<g id="node9" class="node"><title>Node9</title>
<polygon fill="white" stroke="#bfbfbf" points="-0.5,-112.5 -0.5,-131.5 58.5,-131.5 58.5,-112.5 -0.5,-112.5"/>
<text text-anchor="middle" x="29" y="-119.5" font-family="Helvetica,sans-Serif" font-size="10.00">functional</text>
</g>
<!-- Node7&#45;&gt;Node9 -->
<g id="edge9" class="edge"><title>Node7&#45;&gt;Node9</title>
<path fill="none" stroke="midnightblue" d="M133.352,-168.444C113.035,-159.596 81.0972,-145.687 57.9023,-135.586"/>
<polygon fill="midnightblue" stroke="midnightblue" points="59.1221,-132.3 48.5562,-131.516 56.3271,-138.718 59.1221,-132.3"/>
</g>
<!-- Node10 -->
<g id="node10" class="node"><title>Node10</title>
<polygon fill="white" stroke="#bfbfbf" points="179,-56.5 179,-75.5 243,-75.5 243,-56.5 179,-56.5"/>
<text text-anchor="middle" x="211" y="-63.5" font-family="Helvetica,sans-Serif" font-size="10.00">wdlstring.h</text>
</g>
<!-- Node7&#45;&gt;Node10 -->
<g id="edge10" class="edge"><title>Node7&#45;&gt;Node10</title>
<path fill="none" stroke="midnightblue" d="M157.551,-168.368C167.038,-150.376 189.092,-108.55 201.706,-84.6267"/>
<polygon fill="midnightblue" stroke="midnightblue" points="204.902,-86.0696 206.47,-75.5914 198.71,-82.8047 204.902,-86.0696"/>
</g>
<!-- Node11 -->
<g id="node11" class="node"><title>Node11</title>
<g id="a_node11"><a xlink:href="_i_plug_utilities_8h.html" target="_top" xlink:title="Utility functions and macros. ">
<polygon fill="white" stroke="black" points="351,-112.5 351,-131.5 431,-131.5 431,-112.5 351,-112.5"/>
<text text-anchor="middle" x="391" y="-119.5" font-family="Helvetica,sans-Serif" font-size="10.00">IPlugUtilities.h</text>
</a>
</g>
</g>
<!-- Node7&#45;&gt;Node11 -->
<g id="edge11" class="edge"><title>Node7&#45;&gt;Node11</title>
<path fill="none" stroke="midnightblue" d="M190.712,-168.444C232.143,-159.043 298.757,-143.929 343.667,-133.739"/>
<polygon fill="midnightblue" stroke="midnightblue" points="344.487,-137.142 353.465,-131.516 342.938,-130.316 344.487,-137.142"/>
</g>
<!-- Node11&#45;&gt;Node4 -->
<g id="edge16" class="edge"><title>Node11&#45;&gt;Node4</title>
<path fill="none" stroke="midnightblue" d="M408.399,-112.436C422.362,-104.72 441.474,-92.1205 453,-76 462.764,-62.3439 467.852,-43.8056 470.446,-30.0212"/>
<polygon fill="midnightblue" stroke="midnightblue" points="473.961,-30.1995 472.086,-19.772 467.049,-29.0933 473.961,-30.1995"/>
</g>
<!-- Node11&#45;&gt;Node10 -->
<g id="edge18" class="edge"><title>Node11&#45;&gt;Node10</title>
<path fill="none" stroke="midnightblue" d="M362.478,-112.444C331.934,-103.28 283.292,-88.6876 249.397,-78.5192"/>
<polygon fill="midnightblue" stroke="midnightblue" points="249.972,-75.0376 239.388,-75.5164 247.961,-81.7424 249.972,-75.0376"/>
</g>
<!-- Node12 -->
<g id="node12" class="node"><title>Node12</title>
<polygon fill="white" stroke="#bfbfbf" points="501,-56.5 501,-75.5 557,-75.5 557,-56.5 501,-56.5"/>
<text text-anchor="middle" x="529" y="-63.5" font-family="Helvetica,sans-Serif" font-size="10.00">algorithm</text>
</g>
<!-- Node11&#45;&gt;Node12 -->
<g id="edge12" class="edge"><title>Node11&#45;&gt;Node12</title>
<path fill="none" stroke="midnightblue" d="M412.867,-112.444C435.779,-103.478 471.975,-89.314 497.866,-79.1827"/>
<polygon fill="midnightblue" stroke="midnightblue" points="499.199,-82.4198 507.236,-75.5164 496.648,-75.9011 499.199,-82.4198"/>
</g>
<!-- Node13 -->
<g id="node13" class="node"><title>Node13</title>
<polygon fill="white" stroke="#bfbfbf" points="401,-56.5 401,-75.5 445,-75.5 445,-56.5 401,-56.5"/>
<text text-anchor="middle" x="423" y="-63.5" font-family="Helvetica,sans-Serif" font-size="10.00">cmath</text>
</g>
<!-- Node11&#45;&gt;Node13 -->
<g id="edge13" class="edge"><title>Node11&#45;&gt;Node13</title>
<path fill="none" stroke="midnightblue" d="M396.284,-112.083C400.711,-104.613 407.163,-93.7244 412.618,-84.5199"/>
<polygon fill="midnightblue" stroke="midnightblue" points="415.727,-86.1383 417.814,-75.7511 409.705,-82.5697 415.727,-86.1383"/>
</g>
<!-- Node14 -->
<g id="node14" class="node"><title>Node14</title>
<polygon fill="white" stroke="#bfbfbf" points="812.5,-56.5 812.5,-75.5 855.5,-75.5 855.5,-56.5 812.5,-56.5"/>
<text text-anchor="middle" x="834" y="-63.5" font-family="Helvetica,sans-Serif" font-size="10.00">cstdio</text>
</g>
<!-- Node11&#45;&gt;Node14 -->
<g id="edge14" class="edge"><title>Node11&#45;&gt;Node14</title>
<path fill="none" stroke="midnightblue" d="M431.095,-116.113C518.157,-105.5 723.021,-80.528 802.088,-70.8899"/>
<polygon fill="midnightblue" stroke="midnightblue" points="802.882,-74.3192 812.385,-69.6348 802.035,-67.3706 802.882,-74.3192"/>
</g>
<!-- Node15 -->
<g id="node15" class="node"><title>Node15</title>
<polygon fill="white" stroke="#bfbfbf" points="315.5,-0.5 315.5,-19.5 360.5,-19.5 360.5,-0.5 315.5,-0.5"/>
<text text-anchor="middle" x="338" y="-7.5" font-family="Helvetica,sans-Serif" font-size="10.00">cstdlib</text>
</g>
<!-- Node11&#45;&gt;Node15 -->
<g id="edge15" class="edge"><title>Node11&#45;&gt;Node15</title>
<path fill="none" stroke="midnightblue" d="M386.841,-112.368C378.172,-94.376 358.02,-52.5503 346.493,-28.6267"/>
<polygon fill="midnightblue" stroke="midnightblue" points="349.633,-27.081 342.14,-19.5914 343.327,-30.1195 349.633,-27.081"/>
</g>
<!-- Node16 -->
<g id="node16" class="node"><title>Node16</title>
<polygon fill="white" stroke="#bfbfbf" points="575,-56.5 575,-75.5 621,-75.5 621,-56.5 575,-56.5"/>
<text text-anchor="middle" x="598" y="-63.5" font-family="Helvetica,sans-Serif" font-size="10.00">cctype</text>
</g>
<!-- Node11&#45;&gt;Node16 -->
<g id="edge17" class="edge"><title>Node11&#45;&gt;Node16</title>
<path fill="none" stroke="midnightblue" d="M424.716,-112.42C459.795,-103.461 516.298,-88.9383 565,-76 565.1,-75.9733 565.201,-75.9466 565.302,-75.9198"/>
<polygon fill="midnightblue" stroke="midnightblue" points="566.182,-79.3075 574.932,-73.333 564.366,-72.5472 566.182,-79.3075"/>
</g>
<!-- Node17 -->
<g id="node17" class="node"><title>Node17</title>
<g id="a_node17"><a xlink:href="_i_plug_constants_8h.html" target="_top" xlink:title="IPlug Constant definitions, Types, magic numbers. ">
<polygon fill="white" stroke="black" points="639,-56.5 639,-75.5 731,-75.5 731,-56.5 639,-56.5"/>
<text text-anchor="middle" x="685" y="-63.5" font-family="Helvetica,sans-Serif" font-size="10.00">IPlugConstants.h</text>
</a>
</g>
</g>
<!-- Node11&#45;&gt;Node17 -->
<g id="edge19" class="edge"><title>Node11&#45;&gt;Node17</title>
<path fill="none" stroke="midnightblue" d="M431.263,-113.605C482.446,-104.204 571.085,-87.9231 628.881,-77.3076"/>
<polygon fill="midnightblue" stroke="midnightblue" points="629.739,-80.7085 638.943,-75.4595 628.475,-73.8237 629.739,-80.7085"/>
</g>
<!-- Node18 -->
<g id="node18" class="node"><title>Node18</title>
<g id="a_node18"><a xlink:href="_i_plug_platform_8h.html" target="_top" xlink:title="Include to get consistently named preprocessor macros for different platforms and logging functionali...">
<polygon fill="white" stroke="black" points="261,-56.5 261,-75.5 345,-75.5 345,-56.5 261,-56.5"/>
<text text-anchor="middle" x="303" y="-63.5" font-family="Helvetica,sans-Serif" font-size="10.00">IPlugPlatform.h</text>
</a>
</g>
</g>
<!-- Node11&#45;&gt;Node18 -->
<g id="edge20" class="edge"><title>Node11&#45;&gt;Node18</title>
<path fill="none" stroke="midnightblue" d="M376.861,-112.324C363.134,-103.9 342.064,-90.9709 325.936,-81.0741"/>
<polygon fill="midnightblue" stroke="midnightblue" points="327.457,-77.9016 317.104,-75.6545 323.796,-83.8678 327.457,-77.9016"/>
</g>
<!-- Node18&#45;&gt;Node4 -->
<g id="edge21" class="edge"><title>Node18&#45;&gt;Node4</title>
<path fill="none" stroke="midnightblue" d="M329.937,-56.4435C359.759,-46.9707 407.846,-31.6961 439.929,-21.5048"/>
<polygon fill="midnightblue" stroke="midnightblue" points="441.269,-24.7516 449.74,-18.3884 439.15,-18.0801 441.269,-24.7516"/>
</g>
<!-- Node18&#45;&gt;Node15 -->
<g id="edge22" class="edge"><title>Node18&#45;&gt;Node15</title>
<path fill="none" stroke="midnightblue" d="M308.78,-56.083C313.672,-48.5341 320.827,-37.4948 326.833,-28.2298"/>
<polygon fill="midnightblue" stroke="midnightblue" points="329.826,-30.0463 332.328,-19.7511 323.952,-26.239 329.826,-30.0463"/>
</g>
<!-- Node19&#45;&gt;Node3 -->
<g id="edge24" class="edge"><title>Node19&#45;&gt;Node3</title>
<path fill="none" stroke="midnightblue" d="M894.824,-224.477C927.461,-215.053 976.382,-199.663 992,-188 1008.68,-175.544 1021.91,-155.468 1030.03,-140.921"/>
<polygon fill="midnightblue" stroke="midnightblue" points="1033.22,-142.369 1034.81,-131.895 1027.03,-139.091 1033.22,-142.369"/>
</g>
<!-- Node19&#45;&gt;Node12 -->
<g id="edge27" class="edge"><title>Node19&#45;&gt;Node12</title>
<path fill="none" stroke="midnightblue" d="M831.227,-227.417C775.617,-216.68 661.118,-188.991 582,-132 564.167,-119.155 548.939,-98.8608 539.443,-84.367"/>
<polygon fill="midnightblue" stroke="midnightblue" points="542.35,-82.415 534.06,-75.8167 536.425,-86.1441 542.35,-82.415"/>
</g>
<!-- Node19&#45;&gt;Node14 -->
<g id="edge26" class="edge"><title>Node19&#45;&gt;Node14</title>
<path fill="none" stroke="midnightblue" d="M881.525,-224.455C918.608,-205.224 999.08,-156.72 967,-112 944.086,-80.0573 897.261,-70.5016 865.744,-67.8036"/>
<polygon fill="midnightblue" stroke="midnightblue" points="865.911,-64.307 855.699,-67.129 865.442,-71.2913 865.911,-64.307"/>
</g>
<!-- Node20 -->
<g id="node20" class="node"><title>Node20</title>
<polygon fill="white" stroke="#bfbfbf" points="912,-112.5 912,-131.5 958,-131.5 958,-112.5 912,-112.5"/>
<text text-anchor="middle" x="935" y="-119.5" font-family="Helvetica,sans-Serif" font-size="10.00">cstdint</text>
</g>
<!-- Node19&#45;&gt;Node20 -->
<g id="edge25" class="edge"><title>Node19&#45;&gt;Node20</title>
<path fill="none" stroke="midnightblue" d="M869.571,-224.368C881.236,-206.296 908.423,-164.176 923.829,-140.307"/>
<polygon fill="midnightblue" stroke="midnightblue" points="926.972,-141.891 929.455,-131.591 921.091,-138.095 926.972,-141.891"/>
</g>
<!-- Node21 -->
<g id="node21" class="node"><title>Node21</title>
<g id="a_node21"><a xlink:href="_i_plug_logger_8h.html" target="_top" xlink:title="IPlug logging a.k.a tracing functionality. ">
<polygon fill="white" stroke="black" points="739.5,-168.5 739.5,-187.5 816.5,-187.5 816.5,-168.5 739.5,-168.5"/>
<text text-anchor="middle" x="778" y="-175.5" font-family="Helvetica,sans-Serif" font-size="10.00">IPlugLogger.h</text>
</a>
</g>
</g>
<!-- Node19&#45;&gt;Node21 -->
<g id="edge28" class="edge"><title>Node19&#45;&gt;Node21</title>
<path fill="none" stroke="midnightblue" d="M850.183,-224.324C836.767,-215.9 816.176,-202.971 800.414,-193.074"/>
<polygon fill="midnightblue" stroke="midnightblue" points="802.113,-190.008 791.783,-187.655 798.391,-195.936 802.113,-190.008"/>
</g>
<!-- Node21&#45;&gt;Node3 -->
<g id="edge35" class="edge"><title>Node21&#45;&gt;Node3</title>
<path fill="none" stroke="midnightblue" d="M816.511,-169.032C867.24,-158.536 955.702,-140.234 1004.4,-130.159"/>
<polygon fill="midnightblue" stroke="midnightblue" points="1005.36,-133.534 1014.45,-128.08 1003.94,-126.679 1005.36,-133.534"/>
</g>
<!-- Node21&#45;&gt;Node4 -->
<g id="edge33" class="edge"><title>Node21&#45;&gt;Node4</title>
<path fill="none" stroke="midnightblue" d="M792.49,-168.307C825.07,-147.731 898.644,-94.8596 864,-56 840.323,-29.4418 596.349,-16.3115 506.221,-12.3393"/>
<polygon fill="midnightblue" stroke="midnightblue" points="506.159,-8.8335 496.018,-11.9 505.858,-15.827 506.159,-8.8335"/>
</g>
<!-- Node21&#45;&gt;Node10 -->
<g id="edge36" class="edge"><title>Node21&#45;&gt;Node10</title>
<path fill="none" stroke="midnightblue" d="M739.217,-177.581C661.988,-177.746 484.173,-173.147 342,-132 301.345,-120.234 258.088,-96.2288 232.858,-80.9139"/>
<polygon fill="midnightblue" stroke="midnightblue" points="234.461,-77.7903 224.114,-75.5134 230.783,-83.746 234.461,-77.7903"/>
</g>
<!-- Node21&#45;&gt;Node11 -->
<g id="edge39" class="edge"><title>Node21&#45;&gt;Node11</title>
<path fill="none" stroke="midnightblue" d="M739.478,-171.625C669.034,-161.795 519.508,-140.931 441.202,-130.005"/>
<polygon fill="midnightblue" stroke="midnightblue" points="441.487,-126.511 431.1,-128.595 440.52,-133.444 441.487,-126.511"/>
</g>
<!-- Node21&#45;&gt;Node14 -->
<g id="edge29" class="edge"><title>Node21&#45;&gt;Node14</title>
<path fill="none" stroke="midnightblue" d="M789.7,-168.376C799.905,-160.188 814.254,-146.938 822,-132 829.511,-117.515 832.38,-99.0685 833.447,-85.5297"/>
<polygon fill="midnightblue" stroke="midnightblue" points="836.944,-85.6782 833.982,-75.506 829.954,-85.3055 836.944,-85.6782"/>
</g>
<!-- Node21&#45;&gt;Node16 -->
<g id="edge30" class="edge"><title>Node21&#45;&gt;Node16</title>
<path fill="none" stroke="midnightblue" d="M739.32,-173.197C690.294,-167.485 609.977,-154.845 592,-132 581.724,-118.942 585.188,-99.5187 590.023,-85.3056"/>
<polygon fill="midnightblue" stroke="midnightblue" points="593.418,-86.2325 593.783,-75.644 586.895,-83.6937 593.418,-86.2325"/>
</g>
<!-- Node21&#45;&gt;Node17 -->
<g id="edge38" class="edge"><title>Node21&#45;&gt;Node17</title>
<path fill="none" stroke="midnightblue" d="M783.093,-168.21C790.052,-154.918 800.437,-129.41 789,-112 778.008,-95.2675 759.322,-84.727 740.795,-78.0997"/>
<polygon fill="midnightblue" stroke="midnightblue" points="741.755,-74.7316 731.163,-74.9788 739.597,-81.3908 741.755,-74.7316"/>
</g>
<!-- Node21&#45;&gt;Node20 -->
<g id="edge32" class="edge"><title>Node21&#45;&gt;Node20</title>
<path fill="none" stroke="midnightblue" d="M802.877,-168.444C829.755,-159.199 872.7,-144.428 902.293,-134.25"/>
<polygon fill="midnightblue" stroke="midnightblue" points="903.457,-137.551 911.775,-130.988 901.18,-130.931 903.457,-137.551"/>
</g>
<!-- Node22 -->
<g id="node22" class="node"><title>Node22</title>
<polygon fill="white" stroke="#bfbfbf" points="601.5,-112.5 601.5,-131.5 650.5,-131.5 650.5,-112.5 601.5,-112.5"/>
<text text-anchor="middle" x="626" y="-119.5" font-family="Helvetica,sans-Serif" font-size="10.00">cstdarg</text>
</g>
<!-- Node21&#45;&gt;Node22 -->
<g id="edge31" class="edge"><title>Node21&#45;&gt;Node22</title>
<path fill="none" stroke="midnightblue" d="M753.915,-168.444C728.455,-159.399 688.106,-145.064 659.541,-134.916"/>
<polygon fill="midnightblue" stroke="midnightblue" points="660.567,-131.566 649.972,-131.516 658.223,-138.162 660.567,-131.566"/>
</g>
<!-- Node23 -->
<g id="node23" class="node"><title>Node23</title>
<polygon fill="white" stroke="#bfbfbf" points="668.5,-112.5 668.5,-131.5 709.5,-131.5 709.5,-112.5 668.5,-112.5"/>
<text text-anchor="middle" x="689" y="-119.5" font-family="Helvetica,sans-Serif" font-size="10.00">ctime</text>
</g>
<!-- Node21&#45;&gt;Node23 -->
<g id="edge34" class="edge"><title>Node21&#45;&gt;Node23</title>
<path fill="none" stroke="midnightblue" d="M763.701,-168.324C749.817,-159.9 728.508,-146.971 712.196,-137.074"/>
<polygon fill="midnightblue" stroke="midnightblue" points="713.629,-133.85 703.264,-131.655 709.998,-139.834 713.629,-133.85"/>
</g>
<!-- Node24 -->
<g id="node24" class="node"><title>Node24</title>
<polygon fill="white" stroke="#bfbfbf" points="728,-112.5 728,-131.5 780,-131.5 780,-112.5 728,-112.5"/>
<text text-anchor="middle" x="754" y="-119.5" font-family="Helvetica,sans-Serif" font-size="10.00">mutex.h</text>
</g>
<!-- Node21&#45;&gt;Node24 -->
<g id="edge37" class="edge"><title>Node21&#45;&gt;Node24</title>
<path fill="none" stroke="midnightblue" d="M774.037,-168.083C770.787,-160.77 766.081,-150.181 762.046,-141.103"/>
<polygon fill="midnightblue" stroke="midnightblue" points="765.149,-139.468 757.889,-131.751 758.752,-142.311 765.149,-139.468"/>
</g>
<!-- Node25&#45;&gt;Node6 -->
<g id="edge43" class="edge"><title>Node25&#45;&gt;Node6</title>
<path fill="none" stroke="midnightblue" d="M517.733,-286.858C591.845,-282.423 756.269,-270.507 904.058,-243.89"/>
<polygon fill="midnightblue" stroke="midnightblue" points="905.01,-247.273 914.217,-242.031 903.751,-240.388 905.01,-247.273"/>
</g>
<!-- Node25&#45;&gt;Node10 -->
<g id="edge42" class="edge"><title>Node25&#45;&gt;Node10</title>
<path fill="none" stroke="midnightblue" d="M464.025,-280.382C450.205,-271.683 428.628,-257.624 411,-244 339.298,-188.587 260.51,-114.622 227.245,-82.7273"/>
<polygon fill="midnightblue" stroke="midnightblue" points="229.433,-79.975 219.801,-75.5618 224.578,-85.0183 229.433,-79.975"/>
</g>
<!-- Node25&#45;&gt;Node11 -->
<g id="edge47" class="edge"><title>Node25&#45;&gt;Node11</title>
<path fill="none" stroke="midnightblue" d="M470.843,-280.416C463.73,-271.631 452.786,-257.404 445,-244 424.759,-209.156 406.935,-165.342 397.697,-141.149"/>
<polygon fill="midnightblue" stroke="midnightblue" points="400.872,-139.648 394.079,-131.517 394.319,-142.109 400.872,-139.648"/>
</g>
<!-- Node25&#45;&gt;Node12 -->
<g id="edge41" class="edge"><title>Node25&#45;&gt;Node12</title>
<path fill="none" stroke="midnightblue" d="M479.497,-280.45C483.015,-260.609 492.249,-209.928 502,-168 508.765,-138.913 517.987,-105.495 523.713,-85.3279"/>
<polygon fill="midnightblue" stroke="midnightblue" points="527.111,-86.1759 526.497,-75.5989 520.381,-84.2501 527.111,-86.1759"/>
</g>
<!-- Node25&#45;&gt;Node17 -->
<g id="edge44" class="edge"><title>Node25&#45;&gt;Node17</title>
<path fill="none" stroke="midnightblue" d="M482.818,-280.204C500.476,-248.193 562.169,-138.409 592,-112 608.279,-97.5882 629.992,-86.7353 648.344,-79.3022"/>
<polygon fill="midnightblue" stroke="midnightblue" points="649.795,-82.4938 657.862,-75.6251 647.273,-75.9641 649.795,-82.4938"/>
</g>
<!-- Node25&#45;&gt;Node18 -->
<g id="edge45" class="edge"><title>Node25&#45;&gt;Node18</title>
<path fill="none" stroke="midnightblue" d="M468.511,-280.348C458.975,-271.509 444.009,-257.241 432,-244 389.1,-196.699 378.512,-184.39 342,-132 331.207,-116.513 320.265,-97.9752 312.729,-84.6668"/>
<polygon fill="midnightblue" stroke="midnightblue" points="315.623,-82.6692 307.69,-75.6464 309.512,-86.0834 315.623,-82.6692"/>
</g>
<!-- Node25&#45;&gt;Node19 -->
<g id="edge46" class="edge"><title>Node25&#45;&gt;Node19</title>
<path fill="none" stroke="midnightblue" d="M517.855,-283.424C590.983,-273.194 745.977,-251.511 821.225,-240.984"/>
<polygon fill="midnightblue" stroke="midnightblue" points="821.878,-244.427 831.297,-239.575 820.908,-237.494 821.878,-244.427"/>
</g>
</g>
</svg>
        <g id="navigator" transform="translate(0 0)" fill="#404254">
                <rect fill="#f2f5e9" fill-opacity="0.5" stroke="#606060" stroke-width=".5" x="0" y="0" width="60" height="60"/>
                <use id="zoomplus" xlink:href="#zoomPlus" x="17" y="9" onmousedown="handleZoom(evt,'in')"/>
                <use id="zoomminus" xlink:href="#zoomMin" x="42" y="9" onmousedown="handleZoom(evt,'out')"/>
                <use id="reset" xlink:href="#resetDef" x="30" y="36" onmousedown="handleReset()"/>
                <g id="arrowUp" xlink:href="#dirArrow" transform="translate(30 24)" onmousedown="handlePan(0,-1)">
                  <use xlink:href="#rim" fill="#404040">
                        <set attributeName="fill" to="#808080" begin="arrowUp.mouseover" end="arrowUp.mouseout"/>
                  </use>
                  <path fill="none" stroke="white" stroke-width="1.5" d="M0,-3.0v7 M-2.5,-0.5L0,-3.0L2.5,-0.5"/>
                </g>
                <g id="arrowRight" xlink:href="#dirArrow" transform="rotate(90) translate(36 -43)" onmousedown="handlePan(1,0)">
                  <use xlink:href="#rim" fill="#404040">
                        <set attributeName="fill" to="#808080" begin="arrowRight.mouseover" end="arrowRight.mouseout"/>
                  </use>
                  <path fill="none" stroke="white" stroke-width="1.5" d="M0,-3.0v7 M-2.5,-0.5L0,-3.0L2.5,-0.5"/>
                </g>
                <g id="arrowDown" xlink:href="#dirArrow" transform="rotate(180) translate(-30 -48)" onmousedown="handlePan(0,1)">
                  <use xlink:href="#rim" fill="#404040">
                        <set attributeName="fill" to="#808080" begin="arrowDown.mouseover" end="arrowDown.mouseout"/>
                  </use>
                  <path fill="none" stroke="white" stroke-width="1.5" d="M0,-3.0v7 M-2.5,-0.5L0,-3.0L2.5,-0.5"/>
                </g>
                <g id="arrowLeft" xlink:href="#dirArrow" transform="rotate(270) translate(-36 17)" onmousedown="handlePan(-1,0)">
                  <use xlink:href="#rim" fill="#404040">
                        <set attributeName="fill" to="#808080" begin="arrowLeft.mouseover" end="arrowLeft.mouseout"/>
                  </use>
                  <path fill="none" stroke="white" stroke-width="1.5" d="M0,-3.0v7 M-2.5,-0.5L0,-3.0L2.5,-0.5"/>
                </g>
        </g>
        <svg viewBox="0 0 15 15" width="100%" height="30px" preserveAspectRatio="xMaxYMin meet">
         <g id="arrow_out" transform="scale(0.3 0.3)">
          <a xlink:href="_i_plug_delegate__select_8h__incl_org.svg" target="_base">
           <rect id="button" ry="5" rx="5" y="6" x="6" height="38" width="38"
                fill="#f2f5e9" fill-opacity="0.5" stroke="#606060" stroke-width="1.0"/>
           <path id="arrow"
             d="M 11.500037,31.436501 C 11.940474,20.09759 22.043105,11.32322 32.158766,21.979434 L 37.068811,17.246167 C 37.068811,17.246167 37.088388,32 37.088388,32 L 22.160133,31.978069 C 22.160133,31.978069 26.997745,27.140456 26.997745,27.140456 C 18.528582,18.264221 13.291696,25.230495 11.500037,31.436501 z"
             style="fill:#404040;"/>
          </a>
         </g>
        </svg>
</svg>
