<?xml version="1.0" encoding="UTF-8" standalone="no"?>
<!DOCTYPE svg PUBLIC "-//W3C//DTD SVG 1.1//EN"
 "http://www.w3.org/Graphics/SVG/1.1/DTD/svg11.dtd">
<!-- Generated by graphviz version 2.36.0 (20140111.2315)
 -->
<!-- Title: IPlugAPIBase.cpp Pages: 1 -->
<svg width="1380pt" height="588pt"
 viewBox="0.00 0.00 1380.00 588.00" xmlns="http://www.w3.org/2000/svg" xmlns:xlink="http://www.w3.org/1999/xlink">
<g id="graph0" class="graph" transform="scale(1 1) rotate(0) translate(4 584)">
<title>IPlugAPIBase.cpp</title>
<polygon fill="white" stroke="none" points="-4,4 -4,-584 1376,-584 1376,4 -4,4"/>
<!-- Node1 -->
<g id="node1" class="node"><title>Node1</title>
<polygon fill="#bfbfbf" stroke="black" points="38.5,-560.5 38.5,-579.5 135.5,-579.5 135.5,-560.5 38.5,-560.5"/>
<text text-anchor="middle" x="87" y="-567.5" font-family="Helvetica,sans-Serif" font-size="10.00">IPlugAPIBase.cpp</text>
</g>
<!-- Node2 -->
<g id="node2" class="node"><title>Node2</title>
<polygon fill="white" stroke="#bfbfbf" points="295,-56.5 295,-75.5 339,-75.5 339,-56.5 295,-56.5"/>
<text text-anchor="middle" x="317" y="-63.5" font-family="Helvetica,sans-Serif" font-size="10.00">cmath</text>
</g>
<!-- Node1&#45;&gt;Node2 -->
<g id="edge1" class="edge"><title>Node1&#45;&gt;Node2</title>
<path fill="none" stroke="midnightblue" d="M69.8345,-560.486C55.762,-552.72 36.2357,-540.024 24,-524 5.3111,-499.524 0,-489.795 0,-459 0,-459 0,-459 0,-177 0,-146.205 0.146588,-131.477 24,-112 63.4473,-79.7898 217.02,-70.4873 284.683,-67.9241"/>
<polygon fill="midnightblue" stroke="midnightblue" points="284.903,-71.4186 294.774,-67.5681 284.656,-64.4229 284.903,-71.4186"/>
</g>
<!-- Node3 -->
<g id="node3" class="node"><title>Node3</title>
<polygon fill="white" stroke="#bfbfbf" points="357.5,-56.5 357.5,-75.5 400.5,-75.5 400.5,-56.5 357.5,-56.5"/>
<text text-anchor="middle" x="379" y="-63.5" font-family="Helvetica,sans-Serif" font-size="10.00">cstdio</text>
</g>
<!-- Node1&#45;&gt;Node3 -->
<g id="edge2" class="edge"><title>Node1&#45;&gt;Node3</title>
<path fill="none" stroke="midnightblue" d="M80.1868,-560.458C66.7229,-542.688 38,-499.976 38,-459 38,-459 38,-459 38,-177 38,-146.902 34.0764,-131.503 57,-112 106.46,-69.9193 283.34,-88.8274 347,-76 347.212,-75.9573 347.425,-75.9138 347.638,-75.8697"/>
<polygon fill="midnightblue" stroke="midnightblue" points="348.499,-79.2628 357.419,-73.5458 346.88,-72.4524 348.499,-79.2628"/>
</g>
<!-- Node4 -->
<g id="node4" class="node"><title>Node4</title>
<polygon fill="white" stroke="#bfbfbf" points="66.5,-112.5 66.5,-131.5 107.5,-131.5 107.5,-112.5 66.5,-112.5"/>
<text text-anchor="middle" x="87" y="-119.5" font-family="Helvetica,sans-Serif" font-size="10.00">ctime</text>
</g>
<!-- Node1&#45;&gt;Node4 -->
<g id="edge3" class="edge"><title>Node1&#45;&gt;Node4</title>
<path fill="none" stroke="midnightblue" d="M87,-560.442C87,-541.936 87,-496.812 87,-459 87,-459 87,-459 87,-233 87,-200.948 87,-163.643 87,-141.749"/>
<polygon fill="midnightblue" stroke="midnightblue" points="90.5001,-141.558 87,-131.558 83.5001,-141.558 90.5001,-141.558"/>
</g>
<!-- Node5 -->
<g id="node5" class="node"><title>Node5</title>
<polygon fill="white" stroke="#bfbfbf" points="125.5,-112.5 125.5,-131.5 174.5,-131.5 174.5,-112.5 125.5,-112.5"/>
<text text-anchor="middle" x="150" y="-119.5" font-family="Helvetica,sans-Serif" font-size="10.00">cassert</text>
</g>
<!-- Node1&#45;&gt;Node5 -->
<g id="edge4" class="edge"><title>Node1&#45;&gt;Node5</title>
<path fill="none" stroke="midnightblue" d="M93.3961,-560.391C106.036,-542.498 133,-499.572 133,-459 133,-459 133,-459 133,-233 133,-200.583 140.3,-163.415 145.333,-141.644"/>
<polygon fill="midnightblue" stroke="midnightblue" points="148.772,-142.31 147.707,-131.769 141.966,-140.674 148.772,-142.31"/>
</g>
<!-- Node6 -->
<g id="node6" class="node"><title>Node6</title>
<g id="a_node6"><a xlink:href="_i_plug_a_p_i_base_8h.html" target="_top" xlink:title="The base class of an IPlug plug&#45;in, which interacts with the different plug&#45;in APIs. ">
<polygon fill="white" stroke="black" points="826,-504.5 826,-523.5 912,-523.5 912,-504.5 826,-504.5"/>
<text text-anchor="middle" x="869" y="-511.5" font-family="Helvetica,sans-Serif" font-size="10.00">IPlugAPIBase.h</text>
</a>
</g>
</g>
<!-- Node1&#45;&gt;Node6 -->
<g id="edge5" class="edge"><title>Node1&#45;&gt;Node6</title>
<path fill="none" stroke="midnightblue" d="M135.622,-565.642C274.302,-556.066 671.056,-528.669 815.544,-518.691"/>
<polygon fill="midnightblue" stroke="midnightblue" points="816.174,-522.156 825.909,-517.976 815.692,-515.173 816.174,-522.156"/>
</g>
<!-- Node7 -->
<g id="node7" class="node"><title>Node7</title>
<polygon fill="white" stroke="#bfbfbf" points="904,-0.5 904,-19.5 950,-19.5 950,-0.5 904,-0.5"/>
<text text-anchor="middle" x="927" y="-7.5" font-family="Helvetica,sans-Serif" font-size="10.00">cstring</text>
</g>
<!-- Node6&#45;&gt;Node7 -->
<g id="edge6" class="edge"><title>Node6&#45;&gt;Node7</title>
<path fill="none" stroke="midnightblue" d="M912.104,-506.928C997.284,-493.714 1179,-458.965 1179,-403 1179,-403 1179,-403 1179,-345 1179,-193.342 1011.39,-66.9014 949.556,-25.4182"/>
<polygon fill="midnightblue" stroke="midnightblue" points="951.182,-22.2971 940.908,-19.7093 947.325,-28.1392 951.182,-22.2971"/>
</g>
<!-- Node8 -->
<g id="node8" class="node"><title>Node8</title>
<polygon fill="white" stroke="#bfbfbf" points="193,-112.5 193,-131.5 239,-131.5 239,-112.5 193,-112.5"/>
<text text-anchor="middle" x="216" y="-119.5" font-family="Helvetica,sans-Serif" font-size="10.00">cstdint</text>
</g>
<!-- Node6&#45;&gt;Node8 -->
<g id="edge7" class="edge"><title>Node6&#45;&gt;Node8</title>
<path fill="none" stroke="midnightblue" d="M825.902,-510.313C680.342,-500.67 216,-465.045 216,-403 216,-403 216,-403 216,-233 216,-200.948 216,-163.643 216,-141.749"/>
<polygon fill="midnightblue" stroke="midnightblue" points="219.5,-141.558 216,-131.558 212.5,-141.558 219.5,-141.558"/>
</g>
<!-- Node9 -->
<g id="node9" class="node"><title>Node9</title>
<polygon fill="white" stroke="#bfbfbf" points="553.5,-224.5 553.5,-243.5 602.5,-243.5 602.5,-224.5 553.5,-224.5"/>
<text text-anchor="middle" x="578" y="-231.5" font-family="Helvetica,sans-Serif" font-size="10.00">ptrlist.h</text>
</g>
<!-- Node6&#45;&gt;Node9 -->
<g id="edge8" class="edge"><title>Node6&#45;&gt;Node9</title>
<path fill="none" stroke="midnightblue" d="M825.883,-505.791C745.541,-491.13 581,-454.783 581,-403 581,-403 581,-403 581,-345 581,-312.936 579.711,-275.634 578.822,-253.745"/>
<polygon fill="midnightblue" stroke="midnightblue" points="582.311,-253.399 578.392,-243.556 575.317,-253.694 582.311,-253.399"/>
</g>
<!-- Node10 -->
<g id="node10" class="node"><title>Node10</title>
<polygon fill="white" stroke="#bfbfbf" points="1243,-112.5 1243,-131.5 1295,-131.5 1295,-112.5 1243,-112.5"/>
<text text-anchor="middle" x="1269" y="-119.5" font-family="Helvetica,sans-Serif" font-size="10.00">mutex.h</text>
</g>
<!-- Node6&#45;&gt;Node10 -->
<g id="edge9" class="edge"><title>Node6&#45;&gt;Node10</title>
<path fill="none" stroke="midnightblue" d="M912.329,-511.934C1027.76,-507.925 1334,-489.172 1334,-403 1334,-403 1334,-403 1334,-289 1334,-231.162 1299.36,-169.309 1280.66,-140.122"/>
<polygon fill="midnightblue" stroke="midnightblue" points="1283.42,-137.956 1275,-131.53 1277.58,-141.806 1283.42,-137.956"/>
</g>
<!-- Node11 -->
<g id="node11" class="node"><title>Node11</title>
<g id="a_node11"><a xlink:href="_i_plug_platform_8h.html" target="_top" xlink:title="Include to get consistently named preprocessor macros for different platforms and logging functionali...">
<polygon fill="white" stroke="black" points="1205,-56.5 1205,-75.5 1289,-75.5 1289,-56.5 1205,-56.5"/>
<text text-anchor="middle" x="1247" y="-63.5" font-family="Helvetica,sans-Serif" font-size="10.00">IPlugPlatform.h</text>
</a>
</g>
</g>
<!-- Node6&#45;&gt;Node11 -->
<g id="edge10" class="edge"><title>Node6&#45;&gt;Node11</title>
<path fill="none" stroke="midnightblue" d="M912.321,-512.706C1034.33,-510.718 1372,-496.748 1372,-403 1372,-403 1372,-403 1372,-177 1372,-128.173 1317.58,-95.8917 1280.56,-79.5781"/>
<polygon fill="midnightblue" stroke="midnightblue" points="1281.68,-76.2502 1271.1,-75.5868 1278.95,-82.6995 1281.68,-76.2502"/>
</g>
<!-- Node13 -->
<g id="node13" class="node"><title>Node13</title>
<g id="a_node13"><a xlink:href="_i_plug_plugin_base_8h.html" target="_top" xlink:title="Base class that contains plug&#45;in info and state manipulation methods. ">
<polygon fill="white" stroke="black" points="705.5,-448.5 705.5,-467.5 802.5,-467.5 802.5,-448.5 705.5,-448.5"/>
<text text-anchor="middle" x="754" y="-455.5" font-family="Helvetica,sans-Serif" font-size="10.00">IPlugPluginBase.h</text>
</a>
</g>
</g>
<!-- Node6&#45;&gt;Node13 -->
<g id="edge13" class="edge"><title>Node6&#45;&gt;Node13</title>
<path fill="none" stroke="midnightblue" d="M850.778,-504.444C832.104,-495.675 802.844,-481.935 781.383,-471.858"/>
<polygon fill="midnightblue" stroke="midnightblue" points="782.676,-468.599 772.137,-467.516 779.701,-474.935 782.676,-468.599"/>
</g>
<!-- Node17 -->
<g id="node17" class="node"><title>Node17</title>
<g id="a_node17"><a xlink:href="_i_plug_parameter_8h.html" target="_top" xlink:title="IPlug&#39;s parameter class. ">
<polygon fill="white" stroke="black" points="810,-280.5 810,-299.5 902,-299.5 902,-280.5 810,-280.5"/>
<text text-anchor="middle" x="856" y="-287.5" font-family="Helvetica,sans-Serif" font-size="10.00">IPlugParameter.h</text>
</a>
</g>
</g>
<!-- Node6&#45;&gt;Node17 -->
<g id="edge66" class="edge"><title>Node6&#45;&gt;Node17</title>
<path fill="none" stroke="midnightblue" d="M868.49,-504.297C866.578,-471.633 859.798,-355.866 857.11,-309.957"/>
<polygon fill="midnightblue" stroke="midnightblue" points="860.599,-309.662 856.52,-299.884 853.611,-310.071 860.599,-309.662"/>
</g>
<!-- Node21 -->
<g id="node21" class="node"><title>Node21</title>
<g id="a_node21"><a xlink:href="_i_plug_utilities_8h.html" target="_top" xlink:title="Utility functions and macros. ">
<polygon fill="white" stroke="black" points="515,-112.5 515,-131.5 595,-131.5 595,-112.5 515,-112.5"/>
<text text-anchor="middle" x="555" y="-119.5" font-family="Helvetica,sans-Serif" font-size="10.00">IPlugUtilities.h</text>
</a>
</g>
</g>
<!-- Node6&#45;&gt;Node21 -->
<g id="edge65" class="edge"><title>Node6&#45;&gt;Node21</title>
<path fill="none" stroke="midnightblue" d="M825.815,-509.137C729.395,-499.32 505,-469.347 505,-403 505,-403 505,-403 505,-345 505,-267.691 534.215,-178.858 547.981,-141.289"/>
<polygon fill="midnightblue" stroke="midnightblue" points="551.334,-142.315 551.563,-131.723 544.779,-139.86 551.334,-142.315"/>
</g>
<!-- Node24 -->
<g id="node24" class="node"><title>Node24</title>
<g id="a_node24"><a xlink:href="_i_plug_constants_8h.html" target="_top" xlink:title="IPlug Constant definitions, Types, magic numbers. ">
<polygon fill="white" stroke="black" points="805,-56.5 805,-75.5 897,-75.5 897,-56.5 805,-56.5"/>
<text text-anchor="middle" x="851" y="-63.5" font-family="Helvetica,sans-Serif" font-size="10.00">IPlugConstants.h</text>
</a>
</g>
</g>
<!-- Node6&#45;&gt;Node24 -->
<g id="edge63" class="edge"><title>Node6&#45;&gt;Node24</title>
<path fill="none" stroke="midnightblue" d="M875.195,-504.447C890.018,-484.173 929.052,-431.908 966,-392 1035.64,-316.786 1175.33,-312.724 1124,-224 1075.14,-139.545 961.744,-96.5439 897.525,-78.2421"/>
<polygon fill="midnightblue" stroke="midnightblue" points="898.23,-74.8055 887.658,-75.5143 896.364,-81.5525 898.23,-74.8055"/>
</g>
<!-- Node28 -->
<g id="node28" class="node"><title>Node28</title>
<g id="a_node28"><a xlink:href="_i_plug_structs_8h_source.html" target="_top" xlink:title="IPlugStructs.h">
<polygon fill="white" stroke="black" points="699.5,-280.5 699.5,-299.5 778.5,-299.5 778.5,-280.5 699.5,-280.5"/>
<text text-anchor="middle" x="739" y="-287.5" font-family="Helvetica,sans-Serif" font-size="10.00">IPlugStructs.h</text>
</a>
</g>
</g>
<!-- Node6&#45;&gt;Node28 -->
<g id="edge64" class="edge"><title>Node6&#45;&gt;Node28</title>
<path fill="none" stroke="midnightblue" d="M863.904,-504.297C844.573,-471.286 775.543,-353.404 749.261,-308.522"/>
<polygon fill="midnightblue" stroke="midnightblue" points="752.276,-306.744 744.202,-299.884 746.235,-310.282 752.276,-306.744"/>
</g>
<!-- Node29 -->
<g id="node29" class="node"><title>Node29</title>
<g id="a_node29"><a xlink:href="_i_plug_queue_8h.html" target="_top" xlink:title="A lock&#45;free SPSC queue used to transfer data between threads based on MLQueue.h by Randy Jones based ...">
<polygon fill="white" stroke="black" points="975,-448.5 975,-467.5 1051,-467.5 1051,-448.5 975,-448.5"/>
<text text-anchor="middle" x="1013" y="-455.5" font-family="Helvetica,sans-Serif" font-size="10.00">IPlugQueue.h</text>
</a>
</g>
</g>
<!-- Node6&#45;&gt;Node29 -->
<g id="edge67" class="edge"><title>Node6&#45;&gt;Node29</title>
<path fill="none" stroke="midnightblue" d="M891.817,-504.444C915.832,-495.438 953.829,-481.189 980.869,-471.049"/>
<polygon fill="midnightblue" stroke="midnightblue" points="982.155,-474.305 990.29,-467.516 979.697,-467.751 982.155,-474.305"/>
</g>
<!-- Node31 -->
<g id="node31" class="node"><title>Node31</title>
<g id="a_node31"><a xlink:href="_i_plug_timer_8h.html" target="_top" xlink:title="This file includes classes for implementing timers &#45; in order to get a regular callback on the main t...">
<polygon fill="white" stroke="black" points="1207,-280.5 1207,-299.5 1279,-299.5 1279,-280.5 1207,-280.5"/>
<text text-anchor="middle" x="1243" y="-287.5" font-family="Helvetica,sans-Serif" font-size="10.00">IPlugTimer.h</text>
</a>
</g>
</g>
<!-- Node6&#45;&gt;Node31 -->
<g id="edge70" class="edge"><title>Node6&#45;&gt;Node31</title>
<path fill="none" stroke="midnightblue" d="M912.224,-512.678C990.619,-511.201 1151.95,-503.768 1193,-468 1239.71,-427.304 1244.34,-346.637 1243.84,-309.954"/>
<polygon fill="midnightblue" stroke="midnightblue" points="1247.33,-309.591 1243.55,-299.695 1240.33,-309.792 1247.33,-309.591"/>
</g>
<!-- Node11&#45;&gt;Node7 -->
<g id="edge11" class="edge"><title>Node11&#45;&gt;Node7</title>
<path fill="none" stroke="midnightblue" d="M1204.84,-57.8849C1140.45,-47.0195 1018.93,-26.5135 960.303,-16.6199"/>
<polygon fill="midnightblue" stroke="midnightblue" points="960.559,-13.1136 950.116,-14.9008 959.394,-20.016 960.559,-13.1136"/>
</g>
<!-- Node12 -->
<g id="node12" class="node"><title>Node12</title>
<polygon fill="white" stroke="#bfbfbf" points="1096.5,-0.5 1096.5,-19.5 1141.5,-19.5 1141.5,-0.5 1096.5,-0.5"/>
<text text-anchor="middle" x="1119" y="-7.5" font-family="Helvetica,sans-Serif" font-size="10.00">cstdlib</text>
</g>
<!-- Node11&#45;&gt;Node12 -->
<g id="edge12" class="edge"><title>Node11&#45;&gt;Node12</title>
<path fill="none" stroke="midnightblue" d="M1226.72,-56.4435C1205.65,-47.5566 1172.48,-33.5632 1148.51,-23.4514"/>
<polygon fill="midnightblue" stroke="midnightblue" points="1149.76,-20.1787 1139.19,-19.5164 1147.04,-26.6283 1149.76,-20.1787"/>
</g>
<!-- Node14 -->
<g id="node14" class="node"><title>Node14</title>
<g id="a_node14"><a xlink:href="_i_plug_delegate__select_8h.html" target="_top" xlink:title="Used for choosing an editor delegate. ">
<polygon fill="white" stroke="black" points="609,-392.5 609,-411.5 727,-411.5 727,-392.5 609,-392.5"/>
<text text-anchor="middle" x="668" y="-399.5" font-family="Helvetica,sans-Serif" font-size="10.00">IPlugDelegate_select.h</text>
</a>
</g>
</g>
<!-- Node13&#45;&gt;Node14 -->
<g id="edge14" class="edge"><title>Node13&#45;&gt;Node14</title>
<path fill="none" stroke="midnightblue" d="M740.183,-448.324C726.767,-439.9 706.176,-426.971 690.414,-417.074"/>
<polygon fill="midnightblue" stroke="midnightblue" points="692.113,-414.008 681.783,-411.655 688.391,-419.936 692.113,-414.008"/>
</g>
<!-- Node13&#45;&gt;Node17 -->
<g id="edge60" class="edge"><title>Node13&#45;&gt;Node17</title>
<path fill="none" stroke="midnightblue" d="M759.484,-448.075C775.748,-421.606 823.92,-343.209 845.425,-308.21"/>
<polygon fill="midnightblue" stroke="midnightblue" points="848.482,-309.921 850.735,-299.568 842.518,-306.256 848.482,-309.921"/>
</g>
<!-- Node26 -->
<g id="node26" class="node"><title>Node26</title>
<g id="a_node26"><a xlink:href="_i_plug_logger_8h.html" target="_top" xlink:title="IPlug logging a.k.a tracing functionality. ">
<polygon fill="white" stroke="black" points="320.5,-168.5 320.5,-187.5 397.5,-187.5 397.5,-168.5 320.5,-168.5"/>
<text text-anchor="middle" x="359" y="-175.5" font-family="Helvetica,sans-Serif" font-size="10.00">IPlugLogger.h</text>
</a>
</g>
</g>
<!-- Node13&#45;&gt;Node26 -->
<g id="edge62" class="edge"><title>Node13&#45;&gt;Node26</title>
<path fill="none" stroke="midnightblue" d="M705.148,-456.546C579.335,-454.063 254,-438.77 254,-347 254,-347 254,-347 254,-289 254,-244.02 300.507,-210.189 331.618,-192.59"/>
<polygon fill="midnightblue" stroke="midnightblue" points="333.591,-195.501 340.71,-187.655 330.252,-189.349 333.591,-195.501"/>
</g>
<!-- Node13&#45;&gt;Node28 -->
<g id="edge61" class="edge"><title>Node13&#45;&gt;Node28</title>
<path fill="none" stroke="midnightblue" d="M753.194,-448.075C750.832,-421.945 743.899,-345.211 740.679,-309.577"/>
<polygon fill="midnightblue" stroke="midnightblue" points="744.16,-309.213 739.774,-299.568 737.188,-309.843 744.16,-309.213"/>
</g>
<!-- Node15 -->
<g id="node15" class="node"><title>Node15</title>
<g id="a_node15"><a xlink:href="_i_plug_editor_delegate_8h.html" target="_top" xlink:title="This pure virtual interface delegates communication in both directions between a UI editor and someth...">
<polygon fill="white" stroke="black" points="611,-336.5 611,-355.5 723,-355.5 723,-336.5 611,-336.5"/>
<text text-anchor="middle" x="667" y="-343.5" font-family="Helvetica,sans-Serif" font-size="10.00">IPlugEditorDelegate.h</text>
</a>
</g>
</g>
<!-- Node14&#45;&gt;Node15 -->
<g id="edge15" class="edge"><title>Node14&#45;&gt;Node15</title>
<path fill="none" stroke="midnightblue" d="M667.835,-392.083C667.704,-385.006 667.516,-374.861 667.352,-365.986"/>
<polygon fill="midnightblue" stroke="midnightblue" points="670.847,-365.685 667.162,-355.751 663.848,-365.814 670.847,-365.685"/>
</g>
<!-- Node15&#45;&gt;Node5 -->
<g id="edge16" class="edge"><title>Node15&#45;&gt;Node5</title>
<path fill="none" stroke="midnightblue" d="M629.245,-336.445C550.819,-317.634 366.165,-267.883 229,-188 205.172,-174.123 181.191,-153.172 166.005,-138.83"/>
<polygon fill="midnightblue" stroke="midnightblue" points="168.161,-136.047 158.53,-131.63 163.304,-141.088 168.161,-136.047"/>
</g>
<!-- Node15&#45;&gt;Node7 -->
<g id="edge17" class="edge"><title>Node15&#45;&gt;Node7</title>
<path fill="none" stroke="midnightblue" d="M652.544,-336.38C605.449,-307.125 461.948,-208.098 506,-112 521.89,-77.3368 536.158,-71.4945 571,-56 628.491,-30.433 816.905,-17.1961 893.835,-12.7493"/>
<polygon fill="midnightblue" stroke="midnightblue" points="894.139,-16.2379 903.925,-12.1798 893.744,-9.24901 894.139,-16.2379"/>
</g>
<!-- Node15&#45;&gt;Node9 -->
<g id="edge19" class="edge"><title>Node15&#45;&gt;Node9</title>
<path fill="none" stroke="midnightblue" d="M663.789,-336.351C658.647,-323.243 647.637,-297.972 633,-280 623.532,-268.376 610.661,-257.648 599.75,-249.584"/>
<polygon fill="midnightblue" stroke="midnightblue" points="601.697,-246.675 591.522,-243.723 597.636,-252.376 601.697,-246.675"/>
</g>
<!-- Node16 -->
<g id="node16" class="node"><title>Node16</title>
<polygon fill="white" stroke="#bfbfbf" points="1066.5,-224.5 1066.5,-243.5 1115.5,-243.5 1115.5,-224.5 1066.5,-224.5"/>
<text text-anchor="middle" x="1091" y="-231.5" font-family="Helvetica,sans-Serif" font-size="10.00">stdint.h</text>
</g>
<!-- Node15&#45;&gt;Node16 -->
<g id="edge18" class="edge"><title>Node15&#45;&gt;Node16</title>
<path fill="none" stroke="midnightblue" d="M723.308,-337.301C773.144,-329.853 847.594,-317.17 911,-300 964.999,-285.377 1025.83,-261.87 1061.15,-247.492"/>
<polygon fill="midnightblue" stroke="midnightblue" points="1062.91,-250.553 1070.83,-243.519 1060.25,-244.078 1062.91,-250.553"/>
</g>
<!-- Node15&#45;&gt;Node17 -->
<g id="edge20" class="edge"><title>Node15&#45;&gt;Node17</title>
<path fill="none" stroke="midnightblue" d="M696.948,-336.444C729.158,-327.241 780.534,-312.562 816.142,-302.388"/>
<polygon fill="midnightblue" stroke="midnightblue" points="817.539,-305.629 826.192,-299.516 815.616,-298.898 817.539,-305.629"/>
</g>
<!-- Node25 -->
<g id="node25" class="node"><title>Node25</title>
<g id="a_node25"><a xlink:href="_i_plug_midi_8h.html" target="_top" xlink:title="MIDI and sysex structs/utilites. ">
<polygon fill="white" stroke="black" points="393.5,-224.5 393.5,-243.5 458.5,-243.5 458.5,-224.5 393.5,-224.5"/>
<text text-anchor="middle" x="426" y="-231.5" font-family="Helvetica,sans-Serif" font-size="10.00">IPlugMidi.h</text>
</a>
</g>
</g>
<!-- Node15&#45;&gt;Node25 -->
<g id="edge35" class="edge"><title>Node15&#45;&gt;Node25</title>
<path fill="none" stroke="midnightblue" d="M648.089,-336.368C605.854,-317.091 503.676,-270.454 454.02,-247.789"/>
<polygon fill="midnightblue" stroke="midnightblue" points="455.374,-244.56 444.823,-243.591 452.467,-250.928 455.374,-244.56"/>
</g>
<!-- Node15&#45;&gt;Node28 -->
<g id="edge52" class="edge"><title>Node15&#45;&gt;Node28</title>
<path fill="none" stroke="midnightblue" d="M678.568,-336.324C689.42,-328.185 705.881,-315.839 718.883,-306.087"/>
<polygon fill="midnightblue" stroke="midnightblue" points="721.321,-308.634 727.221,-299.834 717.121,-303.034 721.321,-308.634"/>
</g>
<!-- Node17&#45;&gt;Node7 -->
<g id="edge22" class="edge"><title>Node17&#45;&gt;Node7</title>
<path fill="none" stroke="midnightblue" d="M858.203,-280.375C868.08,-241.701 908.409,-83.7937 922.284,-29.4651"/>
<polygon fill="midnightblue" stroke="midnightblue" points="925.739,-30.0794 924.823,-19.5243 918.957,-28.3471 925.739,-30.0794"/>
</g>
<!-- Node18 -->
<g id="node18" class="node"><title>Node18</title>
<polygon fill="white" stroke="#bfbfbf" points="925,-224.5 925,-243.5 971,-243.5 971,-224.5 925,-224.5"/>
<text text-anchor="middle" x="948" y="-231.5" font-family="Helvetica,sans-Serif" font-size="10.00">atomic</text>
</g>
<!-- Node17&#45;&gt;Node18 -->
<g id="edge21" class="edge"><title>Node17&#45;&gt;Node18</title>
<path fill="none" stroke="midnightblue" d="M870.781,-280.324C885.267,-271.822 907.573,-258.729 924.493,-248.797"/>
<polygon fill="midnightblue" stroke="midnightblue" points="926.403,-251.735 933.255,-243.655 922.859,-245.698 926.403,-251.735"/>
</g>
<!-- Node19 -->
<g id="node19" class="node"><title>Node19</title>
<polygon fill="white" stroke="#bfbfbf" points="989.5,-224.5 989.5,-243.5 1048.5,-243.5 1048.5,-224.5 989.5,-224.5"/>
<text text-anchor="middle" x="1019" y="-231.5" font-family="Helvetica,sans-Serif" font-size="10.00">functional</text>
</g>
<!-- Node17&#45;&gt;Node19 -->
<g id="edge23" class="edge"><title>Node17&#45;&gt;Node19</title>
<path fill="none" stroke="midnightblue" d="M881.828,-280.444C909.249,-271.359 952.777,-256.939 983.432,-246.783"/>
<polygon fill="midnightblue" stroke="midnightblue" points="984.901,-249.984 993.293,-243.516 982.7,-243.339 984.901,-249.984"/>
</g>
<!-- Node20 -->
<g id="node20" class="node"><title>Node20</title>
<polygon fill="white" stroke="#bfbfbf" points="723,-56.5 723,-75.5 787,-75.5 787,-56.5 723,-56.5"/>
<text text-anchor="middle" x="755" y="-63.5" font-family="Helvetica,sans-Serif" font-size="10.00">wdlstring.h</text>
</g>
<!-- Node17&#45;&gt;Node20 -->
<g id="edge24" class="edge"><title>Node17&#45;&gt;Node20</title>
<path fill="none" stroke="midnightblue" d="M852.041,-280.297C837.085,-247.425 783.84,-130.391 763.23,-85.0904"/>
<polygon fill="midnightblue" stroke="midnightblue" points="766.369,-83.5366 759.042,-75.8837 759.997,-86.4354 766.369,-83.5366"/>
</g>
<!-- Node17&#45;&gt;Node21 -->
<g id="edge25" class="edge"><title>Node17&#45;&gt;Node21</title>
<path fill="none" stroke="midnightblue" d="M840.241,-280.309C790.97,-253.136 639.563,-169.636 579.714,-136.63"/>
<polygon fill="midnightblue" stroke="midnightblue" points="581.05,-133.37 570.603,-131.605 577.67,-139.499 581.05,-133.37"/>
</g>
<!-- Node21&#45;&gt;Node2 -->
<g id="edge27" class="edge"><title>Node21&#45;&gt;Node2</title>
<path fill="none" stroke="midnightblue" d="M514.74,-113.099C474.931,-105.097 412.086,-91.9594 349.013,-76.131"/>
<polygon fill="midnightblue" stroke="midnightblue" points="349.854,-72.7336 339.301,-73.6725 348.136,-79.5195 349.854,-72.7336"/>
</g>
<!-- Node21&#45;&gt;Node3 -->
<g id="edge28" class="edge"><title>Node21&#45;&gt;Node3</title>
<path fill="none" stroke="midnightblue" d="M527.112,-112.444C495.314,-102.687 443.456,-86.7764 410.301,-76.6036"/>
<polygon fill="midnightblue" stroke="midnightblue" points="411.241,-73.2311 400.654,-73.6439 409.188,-79.9232 411.241,-73.2311"/>
</g>
<!-- Node21&#45;&gt;Node7 -->
<g id="edge30" class="edge"><title>Node21&#45;&gt;Node7</title>
<path fill="none" stroke="midnightblue" d="M557.432,-112.102C561.876,-97.6868 572.768,-69.4834 593,-56 641.842,-23.4495 819.277,-14.2802 893.742,-11.8365"/>
<polygon fill="midnightblue" stroke="midnightblue" points="894.066,-15.3283 903.954,-11.5228 893.851,-8.3316 894.066,-15.3283"/>
</g>
<!-- Node21&#45;&gt;Node11 -->
<g id="edge34" class="edge"><title>Node21&#45;&gt;Node11</title>
<path fill="none" stroke="midnightblue" d="M595.196,-117.863C713.715,-108.615 1061.77,-81.4547 1194.63,-71.0865"/>
<polygon fill="midnightblue" stroke="midnightblue" points="1195.25,-74.5493 1204.94,-70.2818 1194.7,-67.5705 1195.25,-74.5493"/>
</g>
<!-- Node21&#45;&gt;Node12 -->
<g id="edge29" class="edge"><title>Node21&#45;&gt;Node12</title>
<path fill="none" stroke="midnightblue" d="M562.922,-112.374C576.883,-97.8207 607.48,-68.7355 640,-56 681.366,-39.8004 984.794,-19.4473 1086.14,-13.0323"/>
<polygon fill="midnightblue" stroke="midnightblue" points="1086.63,-16.5084 1096.39,-12.3874 1086.19,-9.52222 1086.63,-16.5084"/>
</g>
<!-- Node21&#45;&gt;Node20 -->
<g id="edge32" class="edge"><title>Node21&#45;&gt;Node20</title>
<path fill="none" stroke="midnightblue" d="M586.691,-112.444C621.068,-103.162 676.077,-88.3093 713.789,-78.127"/>
<polygon fill="midnightblue" stroke="midnightblue" points="714.716,-81.5022 723.458,-75.5164 712.891,-74.7442 714.716,-81.5022"/>
</g>
<!-- Node22 -->
<g id="node22" class="node"><title>Node22</title>
<polygon fill="white" stroke="#bfbfbf" points="649,-56.5 649,-75.5 705,-75.5 705,-56.5 649,-56.5"/>
<text text-anchor="middle" x="677" y="-63.5" font-family="Helvetica,sans-Serif" font-size="10.00">algorithm</text>
</g>
<!-- Node21&#45;&gt;Node22 -->
<g id="edge26" class="edge"><title>Node21&#45;&gt;Node22</title>
<path fill="none" stroke="midnightblue" d="M574.331,-112.444C594.32,-103.596 625.743,-89.6875 648.564,-79.5865"/>
<polygon fill="midnightblue" stroke="midnightblue" points="650.032,-82.7645 657.759,-75.5164 647.198,-76.3635 650.032,-82.7645"/>
</g>
<!-- Node23 -->
<g id="node23" class="node"><title>Node23</title>
<polygon fill="white" stroke="#bfbfbf" points="419,-56.5 419,-75.5 465,-75.5 465,-56.5 419,-56.5"/>
<text text-anchor="middle" x="442" y="-63.5" font-family="Helvetica,sans-Serif" font-size="10.00">cctype</text>
</g>
<!-- Node21&#45;&gt;Node23 -->
<g id="edge31" class="edge"><title>Node21&#45;&gt;Node23</title>
<path fill="none" stroke="midnightblue" d="M537.095,-112.444C518.746,-103.675 489.995,-89.9355 468.906,-79.8579"/>
<polygon fill="midnightblue" stroke="midnightblue" points="470.353,-76.6703 459.821,-75.5164 467.335,-82.9862 470.353,-76.6703"/>
</g>
<!-- Node21&#45;&gt;Node24 -->
<g id="edge33" class="edge"><title>Node21&#45;&gt;Node24</title>
<path fill="none" stroke="midnightblue" d="M595.228,-113.661C646.673,-104.276 736.064,-87.9681 794.372,-77.3309"/>
<polygon fill="midnightblue" stroke="midnightblue" points="795.314,-80.7169 804.523,-75.4789 794.057,-73.8305 795.314,-80.7169"/>
</g>
<!-- Node25&#45;&gt;Node3 -->
<g id="edge38" class="edge"><title>Node25&#45;&gt;Node3</title>
<path fill="none" stroke="midnightblue" d="M423.473,-224.075C416.075,-197.945 394.349,-121.211 384.26,-85.577"/>
<polygon fill="midnightblue" stroke="midnightblue" points="387.518,-84.2364 381.426,-75.5681 380.783,-86.1434 387.518,-84.2364"/>
</g>
<!-- Node25&#45;&gt;Node5 -->
<g id="edge36" class="edge"><title>Node25&#45;&gt;Node5</title>
<path fill="none" stroke="midnightblue" d="M393.283,-225.169C362.279,-217.302 314.683,-204.061 275,-188 238.17,-173.094 197.752,-150.934 173.127,-136.727"/>
<polygon fill="midnightblue" stroke="midnightblue" points="174.603,-133.537 164.201,-131.526 171.079,-139.585 174.603,-133.537"/>
</g>
<!-- Node25&#45;&gt;Node8 -->
<g id="edge37" class="edge"><title>Node25&#45;&gt;Node8</title>
<path fill="none" stroke="midnightblue" d="M399.213,-224.456C375.41,-216.415 339.996,-203.337 311,-188 283.092,-173.239 253.45,-151.943 234.843,-137.798"/>
<polygon fill="midnightblue" stroke="midnightblue" points="236.942,-134.997 226.883,-131.671 232.672,-140.544 236.942,-134.997"/>
</g>
<!-- Node25&#45;&gt;Node22 -->
<g id="edge39" class="edge"><title>Node25&#45;&gt;Node22</title>
<path fill="none" stroke="midnightblue" d="M443.93,-224.418C476.903,-208.297 548.838,-171.531 604,-132 624.985,-116.961 646.81,-96.84 661.065,-82.989"/>
<polygon fill="midnightblue" stroke="midnightblue" points="663.853,-85.1557 668.52,-75.6441 658.94,-80.1693 663.853,-85.1557"/>
</g>
<!-- Node25&#45;&gt;Node26 -->
<g id="edge40" class="edge"><title>Node25&#45;&gt;Node26</title>
<path fill="none" stroke="midnightblue" d="M415.235,-224.324C405.234,-216.263 390.113,-204.077 378.07,-194.369"/>
<polygon fill="midnightblue" stroke="midnightblue" points="379.943,-191.384 369.961,-187.834 375.55,-196.834 379.943,-191.384"/>
</g>
<!-- Node26&#45;&gt;Node3 -->
<g id="edge41" class="edge"><title>Node26&#45;&gt;Node3</title>
<path fill="none" stroke="midnightblue" d="M360.569,-168.368C363.797,-150.617 371.242,-109.666 375.619,-85.5974"/>
<polygon fill="midnightblue" stroke="midnightblue" points="379.093,-86.0562 377.438,-75.5914 372.205,-84.804 379.093,-86.0562"/>
</g>
<!-- Node26&#45;&gt;Node4 -->
<g id="edge46" class="edge"><title>Node26&#45;&gt;Node4</title>
<path fill="none" stroke="midnightblue" d="M320.402,-171.292C274.193,-164.143 194.33,-150.788 117.367,-132.118"/>
<polygon fill="midnightblue" stroke="midnightblue" points="118.058,-128.683 107.511,-129.693 116.385,-135.481 118.058,-128.683"/>
</g>
<!-- Node26&#45;&gt;Node5 -->
<g id="edge47" class="edge"><title>Node26&#45;&gt;Node5</title>
<path fill="none" stroke="midnightblue" d="M325.433,-168.444C292.187,-159.952 239.563,-146.468 184.458,-132.105"/>
<polygon fill="midnightblue" stroke="midnightblue" points="185.068,-128.648 174.509,-129.51 183.301,-135.421 185.068,-128.648"/>
</g>
<!-- Node26&#45;&gt;Node7 -->
<g id="edge45" class="edge"><title>Node26&#45;&gt;Node7</title>
<path fill="none" stroke="midnightblue" d="M332.789,-168.414C316.15,-161.445 295.943,-149.809 286,-132 269.534,-102.507 262.967,-80.7067 286,-56 327.671,-11.3012 767.597,-10.1526 893.507,-10.7495"/>
<polygon fill="midnightblue" stroke="midnightblue" points="893.679,-14.2504 903.698,-10.8051 893.718,-7.25053 893.679,-14.2504"/>
</g>
<!-- Node26&#45;&gt;Node8 -->
<g id="edge44" class="edge"><title>Node26&#45;&gt;Node8</title>
<path fill="none" stroke="midnightblue" d="M336.341,-168.444C312.598,-159.478 275.091,-145.314 248.262,-135.183"/>
<polygon fill="midnightblue" stroke="midnightblue" points="249.144,-131.775 238.553,-131.516 246.671,-138.324 249.144,-131.775"/>
</g>
<!-- Node26&#45;&gt;Node10 -->
<g id="edge49" class="edge"><title>Node26&#45;&gt;Node10</title>
<path fill="none" stroke="midnightblue" d="M397.52,-174.714C546.86,-165.852 1086.54,-133.827 1232.43,-125.17"/>
<polygon fill="midnightblue" stroke="midnightblue" points="1232.85,-128.651 1242.63,-124.565 1232.44,-121.663 1232.85,-128.651"/>
</g>
<!-- Node26&#45;&gt;Node20 -->
<g id="edge48" class="edge"><title>Node26&#45;&gt;Node20</title>
<path fill="none" stroke="midnightblue" d="M397.506,-172.99C446.392,-167.208 532.922,-154.651 604,-132 624.082,-125.6 627.713,-120.499 647,-112 672.952,-100.564 702.72,-88.217 724.422,-79.3544"/>
<polygon fill="midnightblue" stroke="midnightblue" points="725.841,-82.5556 733.784,-75.5433 723.202,-76.0723 725.841,-82.5556"/>
</g>
<!-- Node26&#45;&gt;Node21 -->
<g id="edge51" class="edge"><title>Node26&#45;&gt;Node21</title>
<path fill="none" stroke="midnightblue" d="M390.057,-168.444C423.603,-159.201 477.197,-144.436 514.141,-134.257"/>
<polygon fill="midnightblue" stroke="midnightblue" points="515.377,-137.547 524.089,-131.516 513.518,-130.798 515.377,-137.547"/>
</g>
<!-- Node26&#45;&gt;Node23 -->
<g id="edge42" class="edge"><title>Node26&#45;&gt;Node23</title>
<path fill="none" stroke="midnightblue" d="M365.513,-168.368C379.271,-150.135 411.497,-107.426 429.418,-83.6752"/>
<polygon fill="midnightblue" stroke="midnightblue" points="432.288,-85.6821 435.517,-75.5914 426.7,-81.4659 432.288,-85.6821"/>
</g>
<!-- Node26&#45;&gt;Node24 -->
<g id="edge50" class="edge"><title>Node26&#45;&gt;Node24</title>
<path fill="none" stroke="midnightblue" d="M397.509,-172.568C451.954,-165.911 554.349,-151.947 640,-132 703.803,-117.141 776.458,-93.1512 817.709,-78.8451"/>
<polygon fill="midnightblue" stroke="midnightblue" points="818.962,-82.1149 827.25,-75.5144 816.655,-75.506 818.962,-82.1149"/>
</g>
<!-- Node27 -->
<g id="node27" class="node"><title>Node27</title>
<polygon fill="white" stroke="#bfbfbf" points="295.5,-112.5 295.5,-131.5 344.5,-131.5 344.5,-112.5 295.5,-112.5"/>
<text text-anchor="middle" x="320" y="-119.5" font-family="Helvetica,sans-Serif" font-size="10.00">cstdarg</text>
</g>
<!-- Node26&#45;&gt;Node27 -->
<g id="edge43" class="edge"><title>Node26&#45;&gt;Node27</title>
<path fill="none" stroke="midnightblue" d="M352.56,-168.083C347.051,-160.455 338.969,-149.264 332.235,-139.941"/>
<polygon fill="midnightblue" stroke="midnightblue" points="335.013,-137.809 326.32,-131.751 329.338,-141.907 335.013,-137.809"/>
</g>
<!-- Node28&#45;&gt;Node9 -->
<g id="edge55" class="edge"><title>Node28&#45;&gt;Node9</title>
<path fill="none" stroke="midnightblue" d="M713.489,-280.444C686.165,-271.279 642.65,-256.684 612.333,-246.515"/>
<polygon fill="midnightblue" stroke="midnightblue" points="613.194,-243.112 602.6,-243.251 610.968,-249.749 613.194,-243.112"/>
</g>
<!-- Node28&#45;&gt;Node11 -->
<g id="edge57" class="edge"><title>Node28&#45;&gt;Node11</title>
<path fill="none" stroke="midnightblue" d="M758.603,-280.433C836.628,-246.336 1125.37,-120.151 1218.12,-79.6217"/>
<polygon fill="midnightblue" stroke="midnightblue" points="1219.69,-82.7527 1227.46,-75.5411 1216.89,-76.3384 1219.69,-82.7527"/>
</g>
<!-- Node28&#45;&gt;Node20 -->
<g id="edge54" class="edge"><title>Node28&#45;&gt;Node20</title>
<path fill="none" stroke="midnightblue" d="M739.695,-280.494C741.611,-256.916 747.087,-188.725 751,-132 752.071,-116.472 753.147,-98.8464 753.913,-85.8706"/>
<polygon fill="midnightblue" stroke="midnightblue" points="757.41,-86.0209 754.498,-75.8341 750.422,-85.6134 757.41,-86.0209"/>
</g>
<!-- Node28&#45;&gt;Node21 -->
<g id="edge59" class="edge"><title>Node28&#45;&gt;Node21</title>
<path fill="none" stroke="midnightblue" d="M717.954,-280.485C700.082,-272.637 674.331,-259.824 655,-244 616.854,-212.774 582.687,-165.263 565.922,-140.072"/>
<polygon fill="midnightblue" stroke="midnightblue" points="568.779,-138.045 560.377,-131.59 562.92,-141.875 568.779,-138.045"/>
</g>
<!-- Node28&#45;&gt;Node22 -->
<g id="edge53" class="edge"><title>Node28&#45;&gt;Node22</title>
<path fill="none" stroke="midnightblue" d="M736.57,-280.297C727.428,-247.563 694.979,-131.375 682.213,-85.6664"/>
<polygon fill="midnightblue" stroke="midnightblue" points="685.542,-84.5737 679.481,-75.8837 678.8,-86.4567 685.542,-84.5737"/>
</g>
<!-- Node28&#45;&gt;Node24 -->
<g id="edge56" class="edge"><title>Node28&#45;&gt;Node24</title>
<path fill="none" stroke="midnightblue" d="M743.391,-280.297C759.975,-247.425 819.019,-130.391 841.873,-85.0904"/>
<polygon fill="midnightblue" stroke="midnightblue" points="845.139,-86.3884 846.518,-75.8837 838.889,-83.2354 845.139,-86.3884"/>
</g>
<!-- Node28&#45;&gt;Node25 -->
<g id="edge58" class="edge"><title>Node28&#45;&gt;Node25</title>
<path fill="none" stroke="midnightblue" d="M699.358,-282.161C640.267,-271.966 529.534,-252.862 468.71,-242.369"/>
<polygon fill="midnightblue" stroke="midnightblue" points="469.124,-238.888 458.675,-240.637 467.934,-245.786 469.124,-238.888"/>
</g>
<!-- Node29&#45;&gt;Node18 -->
<g id="edge68" class="edge"><title>Node29&#45;&gt;Node18</title>
<path fill="none" stroke="midnightblue" d="M1018.88,-448.248C1026.48,-435.839 1038.16,-412.373 1033,-392 1018.91,-336.391 980.767,-279.129 960.713,-251.669"/>
<polygon fill="midnightblue" stroke="midnightblue" points="963.445,-249.477 954.666,-243.544 957.829,-253.656 963.445,-249.477"/>
</g>
<!-- Node30 -->
<g id="node30" class="node"><title>Node30</title>
<polygon fill="white" stroke="#bfbfbf" points="975.5,-392.5 975.5,-411.5 1024.5,-411.5 1024.5,-392.5 975.5,-392.5"/>
<text text-anchor="middle" x="1000" y="-399.5" font-family="Helvetica,sans-Serif" font-size="10.00">cstddef</text>
</g>
<!-- Node29&#45;&gt;Node30 -->
<g id="edge69" class="edge"><title>Node29&#45;&gt;Node30</title>
<path fill="none" stroke="midnightblue" d="M1010.85,-448.083C1009.13,-440.927 1006.65,-430.635 1004.5,-421.691"/>
<polygon fill="midnightblue" stroke="midnightblue" points="1007.85,-420.654 1002.11,-411.751 1001.04,-422.293 1007.85,-420.654"/>
</g>
<!-- Node31&#45;&gt;Node7 -->
<g id="edge71" class="edge"><title>Node31&#45;&gt;Node7</title>
<path fill="none" stroke="midnightblue" d="M1242.49,-280.116C1240,-245.349 1226.01,-117.413 1153,-56 1124.24,-31.8059 1015.95,-18.8857 960.372,-13.7233"/>
<polygon fill="midnightblue" stroke="midnightblue" points="960.59,-10.2289 950.317,-12.8209 959.964,-17.2009 960.59,-10.2289"/>
</g>
<!-- Node31&#45;&gt;Node9 -->
<g id="edge74" class="edge"><title>Node31&#45;&gt;Node9</title>
<path fill="none" stroke="midnightblue" d="M1206.77,-286.058C1090.46,-276.613 727.374,-247.13 612.922,-237.836"/>
<polygon fill="midnightblue" stroke="midnightblue" points="612.89,-234.322 602.639,-237.001 612.323,-241.299 612.89,-234.322"/>
</g>
<!-- Node31&#45;&gt;Node10 -->
<g id="edge75" class="edge"><title>Node31&#45;&gt;Node10</title>
<path fill="none" stroke="midnightblue" d="M1244.4,-280.075C1248.49,-253.945 1260.51,-177.211 1266.09,-141.577"/>
<polygon fill="midnightblue" stroke="midnightblue" points="1269.57,-141.989 1267.66,-131.568 1262.65,-140.906 1269.57,-141.989"/>
</g>
<!-- Node31&#45;&gt;Node11 -->
<g id="edge76" class="edge"><title>Node31&#45;&gt;Node11</title>
<path fill="none" stroke="midnightblue" d="M1247.92,-280.169C1260.58,-256.862 1293.95,-191.395 1304,-132 1305.48,-123.236 1307.88,-119.999 1304,-112 1297.6,-98.7996 1285.25,-88.3032 1273.67,-80.7794"/>
<polygon fill="midnightblue" stroke="midnightblue" points="1275.45,-77.7678 1265.08,-75.6099 1271.84,-83.7653 1275.45,-77.7678"/>
</g>
<!-- Node31&#45;&gt;Node16 -->
<g id="edge72" class="edge"><title>Node31&#45;&gt;Node16</title>
<path fill="none" stroke="midnightblue" d="M1218.92,-280.444C1193.46,-271.399 1153.11,-257.064 1124.54,-246.916"/>
<polygon fill="midnightblue" stroke="midnightblue" points="1125.57,-243.566 1114.97,-243.516 1123.22,-250.162 1125.57,-243.566"/>
</g>
<!-- Node31&#45;&gt;Node19 -->
<g id="edge73" class="edge"><title>Node31&#45;&gt;Node19</title>
<path fill="none" stroke="midnightblue" d="M1207.51,-280.444C1166.93,-270.663 1100.71,-254.697 1058.52,-244.527"/>
<polygon fill="midnightblue" stroke="midnightblue" points="1059.15,-241.078 1048.6,-242.137 1057.51,-247.883 1059.15,-241.078"/>
</g>
</g>
</svg>
