<?xml version="1.0" encoding="UTF-8" standalone="no"?>
<!DOCTYPE svg PUBLIC "-//W3C//DTD SVG 1.1//EN"
 "http://www.w3.org/Graphics/SVG/1.1/DTD/svg11.dtd">
<!-- Generated by graphviz version 2.36.0 (20140111.2315)
 -->
<!-- Title: IPlugVST2.h Pages: 1 -->
<svg width="1490pt" height="588pt"
 viewBox="0.00 0.00 1490.00 588.00" xmlns="http://www.w3.org/2000/svg" xmlns:xlink="http://www.w3.org/1999/xlink">
<g id="graph0" class="graph" transform="scale(1 1) rotate(0) translate(4 584)">
<title>IPlugVST2.h</title>
<polygon fill="white" stroke="none" points="-4,4 -4,-584 1486,-584 1486,4 -4,4"/>
<!-- Node1 -->
<g id="node1" class="node"><title>Node1</title>
<polygon fill="#bfbfbf" stroke="black" points="690,-560.5 690,-579.5 762,-579.5 762,-560.5 690,-560.5"/>
<text text-anchor="middle" x="726" y="-567.5" font-family="Helvetica,sans-Serif" font-size="10.00">IPlugVST2.h</text>
</g>
<!-- Node2 -->
<g id="node2" class="node"><title>Node2</title>
<polygon fill="white" stroke="#bfbfbf" points="605,-504.5 605,-523.5 665,-523.5 665,-504.5 605,-504.5"/>
<text text-anchor="middle" x="635" y="-511.5" font-family="Helvetica,sans-Serif" font-size="10.00">aeffectx.h</text>
</g>
<!-- Node1&#45;&gt;Node2 -->
<g id="edge1" class="edge"><title>Node1&#45;&gt;Node2</title>
<path fill="none" stroke="midnightblue" d="M711.379,-560.324C697.051,-551.822 674.987,-538.729 658.251,-528.797"/>
<polygon fill="midnightblue" stroke="midnightblue" points="659.97,-525.748 649.584,-523.655 656.398,-531.768 659.97,-525.748"/>
</g>
<!-- Node3 -->
<g id="node3" class="node"><title>Node3</title>
<g id="a_node3"><a xlink:href="_i_plug_a_p_i_base_8h.html" target="_top" xlink:title="The base class of an IPlug plug&#45;in, which interacts with the different plug&#45;in APIs. ">
<polygon fill="white" stroke="black" points="683,-504.5 683,-523.5 769,-523.5 769,-504.5 683,-504.5"/>
<text text-anchor="middle" x="726" y="-511.5" font-family="Helvetica,sans-Serif" font-size="10.00">IPlugAPIBase.h</text>
</a>
</g>
</g>
<!-- Node1&#45;&gt;Node3 -->
<g id="edge2" class="edge"><title>Node1&#45;&gt;Node3</title>
<path fill="none" stroke="midnightblue" d="M726,-560.083C726,-553.006 726,-542.861 726,-533.986"/>
<polygon fill="midnightblue" stroke="midnightblue" points="729.5,-533.751 726,-523.751 722.5,-533.751 729.5,-533.751"/>
</g>
<!-- Node33 -->
<g id="node33" class="node"><title>Node33</title>
<g id="a_node33"><a xlink:href="_i_plug_processor_8h.html" target="_top" xlink:title="The base class for IPlug Audio Processing. ">
<polygon fill="white" stroke="black" points="1114,-336.5 1114,-355.5 1206,-355.5 1206,-336.5 1114,-336.5"/>
<text text-anchor="middle" x="1160" y="-343.5" font-family="Helvetica,sans-Serif" font-size="10.00">IPlugProcessor.h</text>
</a>
</g>
</g>
<!-- Node1&#45;&gt;Node33 -->
<g id="edge74" class="edge"><title>Node1&#45;&gt;Node33</title>
<path fill="none" stroke="midnightblue" d="M762.043,-565.032C826.601,-556.501 964.16,-531.74 1060,-468 1101.25,-440.566 1134.34,-391.085 1150.06,-364.698"/>
<polygon fill="midnightblue" stroke="midnightblue" points="1153.22,-366.216 1155.21,-355.81 1147.17,-362.704 1153.22,-366.216"/>
</g>
<!-- Node4 -->
<g id="node4" class="node"><title>Node4</title>
<polygon fill="white" stroke="#bfbfbf" points="649,-0.5 649,-19.5 695,-19.5 695,-0.5 649,-0.5"/>
<text text-anchor="middle" x="672" y="-7.5" font-family="Helvetica,sans-Serif" font-size="10.00">cstring</text>
</g>
<!-- Node3&#45;&gt;Node4 -->
<g id="edge3" class="edge"><title>Node3&#45;&gt;Node4</title>
<path fill="none" stroke="midnightblue" d="M769.086,-511.31C929.37,-504.459 1482,-475.575 1482,-403 1482,-403 1482,-403 1482,-121 1482,-62.6761 1423.87,-72.7551 1368,-56 1241.62,-18.0976 826.053,-12.1158 705.225,-11.1749"/>
<polygon fill="midnightblue" stroke="midnightblue" points="705.131,-7.67425 695.107,-11.1028 705.081,-14.6741 705.131,-7.67425"/>
</g>
<!-- Node5 -->
<g id="node5" class="node"><title>Node5</title>
<polygon fill="white" stroke="#bfbfbf" points="981,-112.5 981,-131.5 1027,-131.5 1027,-112.5 981,-112.5"/>
<text text-anchor="middle" x="1004" y="-119.5" font-family="Helvetica,sans-Serif" font-size="10.00">cstdint</text>
</g>
<!-- Node3&#45;&gt;Node5 -->
<g id="edge4" class="edge"><title>Node3&#45;&gt;Node5</title>
<path fill="none" stroke="midnightblue" d="M769.164,-510.576C817.493,-506.549 897.256,-495.914 960,-468 1003.77,-448.525 1046,-450.911 1046,-403 1046,-403 1046,-403 1046,-289 1046,-233.93 1024.01,-171.636 1011.85,-141.41"/>
<polygon fill="midnightblue" stroke="midnightblue" points="1014.93,-139.702 1007.88,-131.798 1008.46,-142.376 1014.93,-139.702"/>
</g>
<!-- Node6 -->
<g id="node6" class="node"><title>Node6</title>
<polygon fill="white" stroke="#bfbfbf" points="968.5,-224.5 968.5,-243.5 1017.5,-243.5 1017.5,-224.5 968.5,-224.5"/>
<text text-anchor="middle" x="993" y="-231.5" font-family="Helvetica,sans-Serif" font-size="10.00">ptrlist.h</text>
</g>
<!-- Node3&#45;&gt;Node6 -->
<g id="edge5" class="edge"><title>Node3&#45;&gt;Node6</title>
<path fill="none" stroke="midnightblue" d="M769.061,-512.301C839.108,-508.634 970,-490.125 970,-403 970,-403 970,-403 970,-345 970,-312.12 979.968,-274.86 986.779,-253.235"/>
<polygon fill="midnightblue" stroke="midnightblue" points="990.112,-254.303 989.898,-243.711 983.46,-252.125 990.112,-254.303"/>
</g>
<!-- Node7 -->
<g id="node7" class="node"><title>Node7</title>
<polygon fill="white" stroke="#bfbfbf" points="373,-112.5 373,-131.5 425,-131.5 425,-112.5 373,-112.5"/>
<text text-anchor="middle" x="399" y="-119.5" font-family="Helvetica,sans-Serif" font-size="10.00">mutex.h</text>
</g>
<!-- Node3&#45;&gt;Node7 -->
<g id="edge6" class="edge"><title>Node3&#45;&gt;Node7</title>
<path fill="none" stroke="midnightblue" d="M682.971,-505.385C641.681,-497.303 583.143,-483.568 566,-468 499.645,-407.741 532.385,-360.517 493,-280 467.039,-226.926 429.188,-168.107 410.424,-139.901"/>
<polygon fill="midnightblue" stroke="midnightblue" points="413.311,-137.921 404.837,-131.561 407.495,-141.817 413.311,-137.921"/>
</g>
<!-- Node8 -->
<g id="node8" class="node"><title>Node8</title>
<g id="a_node8"><a xlink:href="_i_plug_platform_8h.html" target="_top" xlink:title="Include to get consistently named preprocessor macros for different platforms and logging functionali...">
<polygon fill="white" stroke="black" points="94,-56.5 94,-75.5 178,-75.5 178,-56.5 94,-56.5"/>
<text text-anchor="middle" x="136" y="-63.5" font-family="Helvetica,sans-Serif" font-size="10.00">IPlugPlatform.h</text>
</a>
</g>
</g>
<!-- Node3&#45;&gt;Node8 -->
<g id="edge7" class="edge"><title>Node3&#45;&gt;Node8</title>
<path fill="none" stroke="midnightblue" d="M682.941,-505.42C679.582,-504.91 676.238,-504.43 673,-504 523.084,-484.102 0,-554.23 0,-403 0,-403 0,-403 0,-177 0,-126.081 58.3438,-94.6742 98.6034,-79.0633"/>
<polygon fill="midnightblue" stroke="midnightblue" points="99.9917,-82.2814 108.15,-75.522 97.5572,-75.7184 99.9917,-82.2814"/>
</g>
<!-- Node10 -->
<g id="node10" class="node"><title>Node10</title>
<g id="a_node10"><a xlink:href="_i_plug_plugin_base_8h.html" target="_top" xlink:title="Base class that contains plug&#45;in info and state manipulation methods. ">
<polygon fill="white" stroke="black" points="677.5,-448.5 677.5,-467.5 774.5,-467.5 774.5,-448.5 677.5,-448.5"/>
<text text-anchor="middle" x="726" y="-455.5" font-family="Helvetica,sans-Serif" font-size="10.00">IPlugPluginBase.h</text>
</a>
</g>
</g>
<!-- Node3&#45;&gt;Node10 -->
<g id="edge10" class="edge"><title>Node3&#45;&gt;Node10</title>
<path fill="none" stroke="midnightblue" d="M726,-504.083C726,-497.006 726,-486.861 726,-477.986"/>
<polygon fill="midnightblue" stroke="midnightblue" points="729.5,-477.751 726,-467.751 722.5,-477.751 729.5,-477.751"/>
</g>
<!-- Node15 -->
<g id="node15" class="node"><title>Node15</title>
<g id="a_node15"><a xlink:href="_i_plug_parameter_8h.html" target="_top" xlink:title="IPlug&#39;s parameter class. ">
<polygon fill="white" stroke="black" points="392,-280.5 392,-299.5 484,-299.5 484,-280.5 392,-280.5"/>
<text text-anchor="middle" x="438" y="-287.5" font-family="Helvetica,sans-Serif" font-size="10.00">IPlugParameter.h</text>
</a>
</g>
</g>
<!-- Node3&#45;&gt;Node15 -->
<g id="edge63" class="edge"><title>Node3&#45;&gt;Node15</title>
<path fill="none" stroke="midnightblue" d="M682.725,-505.644C607.867,-492.917 462.12,-468.124 462,-468 420.385,-424.942 427.895,-346.134 434.098,-310.007"/>
<polygon fill="midnightblue" stroke="midnightblue" points="437.594,-310.351 436.002,-299.876 430.715,-309.058 437.594,-310.351"/>
</g>
<!-- Node19 -->
<g id="node19" class="node"><title>Node19</title>
<g id="a_node19"><a xlink:href="_i_plug_utilities_8h.html" target="_top" xlink:title="Utility functions and macros. ">
<polygon fill="white" stroke="black" points="519,-112.5 519,-131.5 599,-131.5 599,-112.5 519,-112.5"/>
<text text-anchor="middle" x="559" y="-119.5" font-family="Helvetica,sans-Serif" font-size="10.00">IPlugUtilities.h</text>
</a>
</g>
</g>
<!-- Node3&#45;&gt;Node19 -->
<g id="edge62" class="edge"><title>Node3&#45;&gt;Node19</title>
<path fill="none" stroke="midnightblue" d="M682.989,-505.307C631.462,-493.326 552,-464.828 552,-403 552,-403 552,-403 552,-233 552,-200.883 555.009,-163.598 557.081,-141.726"/>
<polygon fill="midnightblue" stroke="midnightblue" points="560.587,-141.841 558.085,-131.546 553.62,-141.154 560.587,-141.841"/>
</g>
<!-- Node24 -->
<g id="node24" class="node"><title>Node24</title>
<g id="a_node24"><a xlink:href="_i_plug_constants_8h.html" target="_top" xlink:title="IPlug Constant definitions, Types, magic numbers. ">
<polygon fill="white" stroke="black" points="1222,-56.5 1222,-75.5 1314,-75.5 1314,-56.5 1222,-56.5"/>
<text text-anchor="middle" x="1268" y="-63.5" font-family="Helvetica,sans-Serif" font-size="10.00">IPlugConstants.h</text>
</a>
</g>
</g>
<!-- Node3&#45;&gt;Node24 -->
<g id="edge60" class="edge"><title>Node3&#45;&gt;Node24</title>
<path fill="none" stroke="midnightblue" d="M769.328,-508.778C823.864,-502.807 920.08,-490.085 1000,-468 1195.77,-413.9 1310.79,-467.958 1425,-300 1481.25,-217.279 1346.62,-117.562 1290.84,-81.1681"/>
<polygon fill="midnightblue" stroke="midnightblue" points="1292.61,-78.1458 1282.3,-75.6926 1288.83,-84.0378 1292.61,-78.1458"/>
</g>
<!-- Node29 -->
<g id="node29" class="node"><title>Node29</title>
<g id="a_node29"><a xlink:href="_i_plug_structs_8h_source.html" target="_top" xlink:title="IPlugStructs.h">
<polygon fill="white" stroke="black" points="824.5,-280.5 824.5,-299.5 903.5,-299.5 903.5,-280.5 824.5,-280.5"/>
<text text-anchor="middle" x="864" y="-287.5" font-family="Helvetica,sans-Serif" font-size="10.00">IPlugStructs.h</text>
</a>
</g>
</g>
<!-- Node3&#45;&gt;Node29 -->
<g id="edge61" class="edge"><title>Node3&#45;&gt;Node29</title>
<path fill="none" stroke="midnightblue" d="M742.615,-504.465C770.267,-489.444 825.773,-455.69 857,-412 877.246,-383.674 880.524,-370.522 876,-336 874.844,-327.181 872.466,-317.633 870.13,-309.61"/>
<polygon fill="midnightblue" stroke="midnightblue" points="873.399,-308.337 867.088,-299.827 866.715,-310.415 873.399,-308.337"/>
</g>
<!-- Node30 -->
<g id="node30" class="node"><title>Node30</title>
<g id="a_node30"><a xlink:href="_i_plug_queue_8h.html" target="_top" xlink:title="A lock&#45;free SPSC queue used to transfer data between threads based on MLQueue.h by Randy Jones based ...">
<polygon fill="white" stroke="black" points="334,-448.5 334,-467.5 410,-467.5 410,-448.5 334,-448.5"/>
<text text-anchor="middle" x="372" y="-455.5" font-family="Helvetica,sans-Serif" font-size="10.00">IPlugQueue.h</text>
</a>
</g>
</g>
<!-- Node3&#45;&gt;Node30 -->
<g id="edge64" class="edge"><title>Node3&#45;&gt;Node30</title>
<path fill="none" stroke="midnightblue" d="M682.916,-505.593C679.562,-505.044 676.227,-504.507 673,-504 562.539,-486.639 534.434,-485.536 424,-468 422.728,-467.798 421.438,-467.591 420.137,-467.38"/>
<polygon fill="midnightblue" stroke="midnightblue" points="420.472,-463.888 410.035,-465.709 419.33,-470.794 420.472,-463.888"/>
</g>
<!-- Node32 -->
<g id="node32" class="node"><title>Node32</title>
<g id="a_node32"><a xlink:href="_i_plug_timer_8h.html" target="_top" xlink:title="This file includes classes for implementing timers &#45; in order to get a regular callback on the main t...">
<polygon fill="white" stroke="black" points="184,-280.5 184,-299.5 256,-299.5 256,-280.5 184,-280.5"/>
<text text-anchor="middle" x="220" y="-287.5" font-family="Helvetica,sans-Serif" font-size="10.00">IPlugTimer.h</text>
</a>
</g>
</g>
<!-- Node3&#45;&gt;Node32 -->
<g id="edge67" class="edge"><title>Node3&#45;&gt;Node32</title>
<path fill="none" stroke="midnightblue" d="M682.937,-505.446C679.579,-504.931 676.237,-504.442 673,-504 595.968,-493.487 390.487,-509.904 325,-468 266.088,-430.303 235.878,-346.766 224.921,-309.533"/>
<polygon fill="midnightblue" stroke="midnightblue" points="228.197,-308.252 222.128,-299.567 221.456,-310.14 228.197,-308.252"/>
</g>
<!-- Node8&#45;&gt;Node4 -->
<g id="edge8" class="edge"><title>Node8&#45;&gt;Node4</title>
<path fill="none" stroke="midnightblue" d="M178.154,-57.9202C182.82,-57.2275 187.507,-56.5711 192,-56 359.325,-34.7343 560.659,-19.0638 638.772,-13.3572"/>
<polygon fill="midnightblue" stroke="midnightblue" points="639.239,-16.8326 648.96,-12.6186 638.733,-9.85092 639.239,-16.8326"/>
</g>
<!-- Node9 -->
<g id="node9" class="node"><title>Node9</title>
<polygon fill="white" stroke="#bfbfbf" points="399.5,-0.5 399.5,-19.5 444.5,-19.5 444.5,-0.5 399.5,-0.5"/>
<text text-anchor="middle" x="422" y="-7.5" font-family="Helvetica,sans-Serif" font-size="10.00">cstdlib</text>
</g>
<!-- Node8&#45;&gt;Node9 -->
<g id="edge9" class="edge"><title>Node8&#45;&gt;Node9</title>
<path fill="none" stroke="midnightblue" d="M178.2,-57.0321C235.62,-46.1906 337.158,-27.0192 389.216,-17.19"/>
<polygon fill="midnightblue" stroke="midnightblue" points="390.063,-20.5919 399.24,-15.2973 388.765,-13.7135 390.063,-20.5919"/>
</g>
<!-- Node11 -->
<g id="node11" class="node"><title>Node11</title>
<g id="a_node11"><a xlink:href="_i_plug_delegate__select_8h.html" target="_top" xlink:title="Used for choosing an editor delegate. ">
<polygon fill="white" stroke="black" points="710,-392.5 710,-411.5 828,-411.5 828,-392.5 710,-392.5"/>
<text text-anchor="middle" x="769" y="-399.5" font-family="Helvetica,sans-Serif" font-size="10.00">IPlugDelegate_select.h</text>
</a>
</g>
</g>
<!-- Node10&#45;&gt;Node11 -->
<g id="edge11" class="edge"><title>Node10&#45;&gt;Node11</title>
<path fill="none" stroke="midnightblue" d="M733.101,-448.083C739.237,-440.377 748.27,-429.033 755.739,-419.653"/>
<polygon fill="midnightblue" stroke="midnightblue" points="758.54,-421.754 762.032,-411.751 753.064,-417.394 758.54,-421.754"/>
</g>
<!-- Node10&#45;&gt;Node15 -->
<g id="edge57" class="edge"><title>Node10&#45;&gt;Node15</title>
<path fill="none" stroke="midnightblue" d="M710.921,-448.309C663.778,-421.136 518.911,-337.636 461.647,-304.63"/>
<polygon fill="midnightblue" stroke="midnightblue" points="463.341,-301.567 452.929,-299.605 459.845,-307.631 463.341,-301.567"/>
</g>
<!-- Node26 -->
<g id="node26" class="node"><title>Node26</title>
<g id="a_node26"><a xlink:href="_i_plug_logger_8h.html" target="_top" xlink:title="IPlug logging a.k.a tracing functionality. ">
<polygon fill="white" stroke="black" points="732.5,-168.5 732.5,-187.5 809.5,-187.5 809.5,-168.5 732.5,-168.5"/>
<text text-anchor="middle" x="771" y="-175.5" font-family="Helvetica,sans-Serif" font-size="10.00">IPlugLogger.h</text>
</a>
</g>
</g>
<!-- Node10&#45;&gt;Node26 -->
<g id="edge59" class="edge"><title>Node10&#45;&gt;Node26</title>
<path fill="none" stroke="midnightblue" d="M719.371,-448.275C713.235,-439.607 704.542,-425.669 701,-412 697.176,-397.243 700.233,-355.944 705,-336 717.673,-282.983 746.322,-224.903 761.364,-196.548"/>
<polygon fill="midnightblue" stroke="midnightblue" points="764.571,-197.975 766.236,-187.511 758.41,-194.653 764.571,-197.975"/>
</g>
<!-- Node10&#45;&gt;Node29 -->
<g id="edge58" class="edge"><title>Node10&#45;&gt;Node29</title>
<path fill="none" stroke="midnightblue" d="M773.325,-448.437C795.689,-442.029 820.943,-430.964 837,-412 861.716,-382.81 865.128,-335.841 864.904,-309.841"/>
<polygon fill="midnightblue" stroke="midnightblue" points="868.401,-309.699 864.623,-299.801 861.404,-309.896 868.401,-309.699"/>
</g>
<!-- Node12 -->
<g id="node12" class="node"><title>Node12</title>
<g id="a_node12"><a xlink:href="_i_plug_editor_delegate_8h.html" target="_top" xlink:title="This pure virtual interface delegates communication in both directions between a UI editor and someth...">
<polygon fill="white" stroke="black" points="714,-336.5 714,-355.5 826,-355.5 826,-336.5 714,-336.5"/>
<text text-anchor="middle" x="770" y="-343.5" font-family="Helvetica,sans-Serif" font-size="10.00">IPlugEditorDelegate.h</text>
</a>
</g>
</g>
<!-- Node11&#45;&gt;Node12 -->
<g id="edge12" class="edge"><title>Node11&#45;&gt;Node12</title>
<path fill="none" stroke="midnightblue" d="M769.165,-392.083C769.296,-385.006 769.484,-374.861 769.648,-365.986"/>
<polygon fill="midnightblue" stroke="midnightblue" points="773.152,-365.814 769.838,-355.751 766.153,-365.685 773.152,-365.814"/>
</g>
<!-- Node12&#45;&gt;Node4 -->
<g id="edge14" class="edge"><title>Node12&#45;&gt;Node4</title>
<path fill="none" stroke="midnightblue" d="M826.079,-337.38C995.342,-312.322 1480.06,-224.291 1323,-56 1280.61,-10.5797 832.893,-9.95769 705.59,-10.7102"/>
<polygon fill="midnightblue" stroke="midnightblue" points="705.27,-7.21217 695.294,-10.7785 705.317,-14.212 705.27,-7.21217"/>
</g>
<!-- Node12&#45;&gt;Node6 -->
<g id="edge16" class="edge"><title>Node12&#45;&gt;Node6</title>
<path fill="none" stroke="midnightblue" d="M810.138,-336.489C839.476,-329.283 879.625,-317.333 912,-300 936.678,-286.787 961.214,-265.695 976.704,-251.139"/>
<polygon fill="midnightblue" stroke="midnightblue" points="979.539,-253.27 984.323,-243.817 974.688,-248.223 979.539,-253.27"/>
</g>
<!-- Node13 -->
<g id="node13" class="node"><title>Node13</title>
<polygon fill="white" stroke="#bfbfbf" points="875.5,-112.5 875.5,-131.5 924.5,-131.5 924.5,-112.5 875.5,-112.5"/>
<text text-anchor="middle" x="900" y="-119.5" font-family="Helvetica,sans-Serif" font-size="10.00">cassert</text>
</g>
<!-- Node12&#45;&gt;Node13 -->
<g id="edge13" class="edge"><title>Node12&#45;&gt;Node13</title>
<path fill="none" stroke="midnightblue" d="M770.584,-336.208C772.29,-315.418 778.592,-262.118 800,-224 820.357,-187.753 857.231,-155.471 880.065,-137.634"/>
<polygon fill="midnightblue" stroke="midnightblue" points="882.24,-140.377 888.065,-131.527 877.992,-134.813 882.24,-140.377"/>
</g>
<!-- Node14 -->
<g id="node14" class="node"><title>Node14</title>
<polygon fill="white" stroke="#bfbfbf" points="66.5,-224.5 66.5,-243.5 115.5,-243.5 115.5,-224.5 66.5,-224.5"/>
<text text-anchor="middle" x="91" y="-231.5" font-family="Helvetica,sans-Serif" font-size="10.00">stdint.h</text>
</g>
<!-- Node12&#45;&gt;Node14 -->
<g id="edge15" class="edge"><title>Node12&#45;&gt;Node14</title>
<path fill="none" stroke="midnightblue" d="M713.827,-344.842C585.106,-343.826 272.419,-337.452 175,-300 147.445,-289.407 121.503,-266.642 105.933,-251.073"/>
<polygon fill="midnightblue" stroke="midnightblue" points="108.254,-248.438 98.7826,-243.689 103.225,-253.307 108.254,-248.438"/>
</g>
<!-- Node12&#45;&gt;Node15 -->
<g id="edge17" class="edge"><title>Node12&#45;&gt;Node15</title>
<path fill="none" stroke="midnightblue" d="M717.394,-336.444C656.514,-326.541 556.657,-310.3 494.265,-300.151"/>
<polygon fill="midnightblue" stroke="midnightblue" points="494.638,-296.666 484.206,-298.515 493.515,-303.576 494.638,-296.666"/>
</g>
<!-- Node25 -->
<g id="node25" class="node"><title>Node25</title>
<g id="a_node25"><a xlink:href="_i_plug_midi_8h.html" target="_top" xlink:title="MIDI and sysex structs/utilites. ">
<polygon fill="white" stroke="black" points="808.5,-224.5 808.5,-243.5 873.5,-243.5 873.5,-224.5 808.5,-224.5"/>
<text text-anchor="middle" x="841" y="-231.5" font-family="Helvetica,sans-Serif" font-size="10.00">IPlugMidi.h</text>
</a>
</g>
</g>
<!-- Node12&#45;&gt;Node25 -->
<g id="edge32" class="edge"><title>Node12&#45;&gt;Node25</title>
<path fill="none" stroke="midnightblue" d="M775.571,-336.368C787.236,-318.296 814.423,-276.176 829.829,-252.307"/>
<polygon fill="midnightblue" stroke="midnightblue" points="832.972,-253.891 835.455,-243.591 827.091,-250.095 832.972,-253.891"/>
</g>
<!-- Node12&#45;&gt;Node29 -->
<g id="edge49" class="edge"><title>Node12&#45;&gt;Node29</title>
<path fill="none" stroke="midnightblue" d="M785.103,-336.324C799.903,-327.822 822.694,-314.729 839.982,-304.797"/>
<polygon fill="midnightblue" stroke="midnightblue" points="842.007,-307.671 848.935,-299.655 838.52,-301.601 842.007,-307.671"/>
</g>
<!-- Node15&#45;&gt;Node4 -->
<g id="edge19" class="edge"><title>Node15&#45;&gt;Node4</title>
<path fill="none" stroke="midnightblue" d="M430.511,-280.416C416.279,-263.706 385.132,-225.182 367,-188 351.829,-156.89 332.372,-141.787 350,-112 376.338,-67.4931 403.453,-73.8269 452,-56 515.898,-32.5359 594.974,-20.1456 638.8,-14.6386"/>
<polygon fill="midnightblue" stroke="midnightblue" points="639.387,-18.0931 648.893,-13.4144 638.544,-11.144 639.387,-18.0931"/>
</g>
<!-- Node16 -->
<g id="node16" class="node"><title>Node16</title>
<polygon fill="white" stroke="#bfbfbf" points="326,-224.5 326,-243.5 372,-243.5 372,-224.5 326,-224.5"/>
<text text-anchor="middle" x="349" y="-231.5" font-family="Helvetica,sans-Serif" font-size="10.00">atomic</text>
</g>
<!-- Node15&#45;&gt;Node16 -->
<g id="edge18" class="edge"><title>Node15&#45;&gt;Node16</title>
<path fill="none" stroke="midnightblue" d="M423.701,-280.324C409.817,-271.9 388.508,-258.971 372.196,-249.074"/>
<polygon fill="midnightblue" stroke="midnightblue" points="373.629,-245.85 363.264,-243.655 369.998,-251.834 373.629,-245.85"/>
</g>
<!-- Node17 -->
<g id="node17" class="node"><title>Node17</title>
<polygon fill="white" stroke="#bfbfbf" points="248.5,-224.5 248.5,-243.5 307.5,-243.5 307.5,-224.5 248.5,-224.5"/>
<text text-anchor="middle" x="278" y="-231.5" font-family="Helvetica,sans-Serif" font-size="10.00">functional</text>
</g>
<!-- Node15&#45;&gt;Node17 -->
<g id="edge20" class="edge"><title>Node15&#45;&gt;Node17</title>
<path fill="none" stroke="midnightblue" d="M412.648,-280.444C385.731,-271.359 343.004,-256.939 312.913,-246.783"/>
<polygon fill="midnightblue" stroke="midnightblue" points="313.828,-243.398 303.234,-243.516 311.59,-250.031 313.828,-243.398"/>
</g>
<!-- Node18 -->
<g id="node18" class="node"><title>Node18</title>
<polygon fill="white" stroke="#bfbfbf" points="601,-56.5 601,-75.5 665,-75.5 665,-56.5 601,-56.5"/>
<text text-anchor="middle" x="633" y="-63.5" font-family="Helvetica,sans-Serif" font-size="10.00">wdlstring.h</text>
</g>
<!-- Node15&#45;&gt;Node18 -->
<g id="edge21" class="edge"><title>Node15&#45;&gt;Node18</title>
<path fill="none" stroke="midnightblue" d="M435.275,-280.429C431.175,-267.844 422.943,-243.72 414,-224 391.485,-174.354 328.777,-153.605 364,-112 378.489,-94.8854 518.83,-78.4592 590.834,-71.0739"/>
<polygon fill="midnightblue" stroke="midnightblue" points="591.342,-74.5405 600.939,-70.0509 590.637,-67.5761 591.342,-74.5405"/>
</g>
<!-- Node15&#45;&gt;Node19 -->
<g id="edge22" class="edge"><title>Node15&#45;&gt;Node19</title>
<path fill="none" stroke="midnightblue" d="M444.505,-280.075C463.882,-253.493 521.433,-174.538 546.781,-139.763"/>
<polygon fill="midnightblue" stroke="midnightblue" points="549.693,-141.711 552.755,-131.568 544.036,-137.588 549.693,-141.711"/>
</g>
<!-- Node19&#45;&gt;Node4 -->
<g id="edge27" class="edge"><title>Node19&#45;&gt;Node4</title>
<path fill="none" stroke="midnightblue" d="M561.539,-112.457C565.889,-99.0365 575.888,-72.8131 592,-56 605.239,-42.1844 623.66,-31.4288 639.488,-23.9022"/>
<polygon fill="midnightblue" stroke="midnightblue" points="641.265,-26.9399 648.939,-19.6346 638.384,-20.5602 641.265,-26.9399"/>
</g>
<!-- Node19&#45;&gt;Node8 -->
<g id="edge31" class="edge"><title>Node19&#45;&gt;Node8</title>
<path fill="none" stroke="midnightblue" d="M518.824,-115.871C441.835,-106.043 273.587,-84.5643 188.095,-73.6504"/>
<polygon fill="midnightblue" stroke="midnightblue" points="188.454,-70.1679 178.091,-72.3734 187.567,-77.1116 188.454,-70.1679"/>
</g>
<!-- Node19&#45;&gt;Node9 -->
<g id="edge26" class="edge"><title>Node19&#45;&gt;Node9</title>
<path fill="none" stroke="midnightblue" d="M555.165,-112.347C548.775,-98.7754 534.776,-72.349 516,-56 498.106,-40.4185 473.877,-28.992 454.5,-21.5524"/>
<polygon fill="midnightblue" stroke="midnightblue" points="455.463,-18.1775 444.869,-18.0245 453.055,-24.7504 455.463,-18.1775"/>
</g>
<!-- Node19&#45;&gt;Node18 -->
<g id="edge29" class="edge"><title>Node19&#45;&gt;Node18</title>
<path fill="none" stroke="midnightblue" d="M570.889,-112.324C582.15,-104.107 599.287,-91.6017 612.709,-81.8069"/>
<polygon fill="midnightblue" stroke="midnightblue" points="614.88,-84.5559 620.894,-75.8339 610.753,-78.9014 614.88,-84.5559"/>
</g>
<!-- Node20 -->
<g id="node20" class="node"><title>Node20</title>
<polygon fill="white" stroke="#bfbfbf" points="1148,-56.5 1148,-75.5 1204,-75.5 1204,-56.5 1148,-56.5"/>
<text text-anchor="middle" x="1176" y="-63.5" font-family="Helvetica,sans-Serif" font-size="10.00">algorithm</text>
</g>
<!-- Node19&#45;&gt;Node20 -->
<g id="edge23" class="edge"><title>Node19&#45;&gt;Node20</title>
<path fill="none" stroke="midnightblue" d="M599.29,-116.734C614.265,-115.186 631.404,-113.461 647,-112 830.68,-94.7961 1050.51,-76.9861 1137.68,-70.0342"/>
<polygon fill="midnightblue" stroke="midnightblue" points="1138.19,-73.5046 1147.88,-69.2218 1137.64,-66.5267 1138.19,-73.5046"/>
</g>
<!-- Node21 -->
<g id="node21" class="node"><title>Node21</title>
<polygon fill="white" stroke="#bfbfbf" points="1007,-56.5 1007,-75.5 1051,-75.5 1051,-56.5 1007,-56.5"/>
<text text-anchor="middle" x="1029" y="-63.5" font-family="Helvetica,sans-Serif" font-size="10.00">cmath</text>
</g>
<!-- Node19&#45;&gt;Node21 -->
<g id="edge24" class="edge"><title>Node19&#45;&gt;Node21</title>
<path fill="none" stroke="midnightblue" d="M599.072,-116.396C690.519,-105.889 913.125,-80.3133 996.637,-70.7183"/>
<polygon fill="midnightblue" stroke="midnightblue" points="997.26,-74.1699 1006.79,-69.5513 996.46,-67.2156 997.26,-74.1699"/>
</g>
<!-- Node22 -->
<g id="node22" class="node"><title>Node22</title>
<polygon fill="white" stroke="#bfbfbf" points="865.5,-56.5 865.5,-75.5 908.5,-75.5 908.5,-56.5 865.5,-56.5"/>
<text text-anchor="middle" x="887" y="-63.5" font-family="Helvetica,sans-Serif" font-size="10.00">cstdio</text>
</g>
<!-- Node19&#45;&gt;Node22 -->
<g id="edge25" class="edge"><title>Node19&#45;&gt;Node22</title>
<path fill="none" stroke="midnightblue" d="M599.219,-114.379C665.222,-103.512 795.174,-82.1176 855.212,-72.2334"/>
<polygon fill="midnightblue" stroke="midnightblue" points="855.942,-75.6604 865.241,-70.5823 854.805,-68.7533 855.942,-75.6604"/>
</g>
<!-- Node23 -->
<g id="node23" class="node"><title>Node23</title>
<polygon fill="white" stroke="#bfbfbf" points="461,-56.5 461,-75.5 507,-75.5 507,-56.5 461,-56.5"/>
<text text-anchor="middle" x="484" y="-63.5" font-family="Helvetica,sans-Serif" font-size="10.00">cctype</text>
</g>
<!-- Node19&#45;&gt;Node23 -->
<g id="edge28" class="edge"><title>Node19&#45;&gt;Node23</title>
<path fill="none" stroke="midnightblue" d="M546.95,-112.324C535.537,-104.107 518.169,-91.6017 504.565,-81.8069"/>
<polygon fill="midnightblue" stroke="midnightblue" points="506.43,-78.8366 496.269,-75.8339 502.34,-84.5174 506.43,-78.8366"/>
</g>
<!-- Node19&#45;&gt;Node24 -->
<g id="edge30" class="edge"><title>Node19&#45;&gt;Node24</title>
<path fill="none" stroke="midnightblue" d="M599.274,-116.554C614.248,-114.987 631.389,-113.295 647,-112 894.453,-91.4703 960.217,-103.664 1211.72,-75.9012"/>
<polygon fill="midnightblue" stroke="midnightblue" points="1212.35,-79.3528 1221.9,-74.7669 1211.58,-72.3958 1212.35,-79.3528"/>
</g>
<!-- Node25&#45;&gt;Node5 -->
<g id="edge34" class="edge"><title>Node25&#45;&gt;Node5</title>
<path fill="none" stroke="midnightblue" d="M862.777,-224.447C882.048,-216.4 910.518,-203.318 933,-188 954.012,-173.683 975.125,-153.426 988.799,-139.346"/>
<polygon fill="midnightblue" stroke="midnightblue" points="991.567,-141.514 995.933,-131.861 986.5,-136.685 991.567,-141.514"/>
</g>
<!-- Node25&#45;&gt;Node13 -->
<g id="edge33" class="edge"><title>Node25&#45;&gt;Node13</title>
<path fill="none" stroke="midnightblue" d="M845.63,-224.368C855.28,-206.376 877.714,-164.55 890.546,-140.627"/>
<polygon fill="midnightblue" stroke="midnightblue" points="893.75,-142.058 895.392,-131.591 887.581,-138.749 893.75,-142.058"/>
</g>
<!-- Node25&#45;&gt;Node20 -->
<g id="edge36" class="edge"><title>Node25&#45;&gt;Node20</title>
<path fill="none" stroke="midnightblue" d="M873.57,-226.489C878.399,-225.604 883.323,-224.744 888,-224 950.607,-214.034 1128.12,-234.697 1171,-188 1196.51,-160.221 1188.72,-111.965 1181.78,-85.5656"/>
<polygon fill="midnightblue" stroke="midnightblue" points="1185.08,-84.3611 1178.95,-75.7134 1178.35,-86.2908 1185.08,-84.3611"/>
</g>
<!-- Node25&#45;&gt;Node22 -->
<g id="edge35" class="edge"><title>Node25&#45;&gt;Node22</title>
<path fill="none" stroke="midnightblue" d="M853.367,-224.49C874.601,-209.017 917.233,-173.964 933,-132 936.126,-123.679 936.447,-120.193 933,-112 927.974,-100.053 918.056,-89.6922 908.713,-81.9339"/>
<polygon fill="midnightblue" stroke="midnightblue" points="910.84,-79.1547 900.787,-75.8113 906.561,-84.6944 910.84,-79.1547"/>
</g>
<!-- Node25&#45;&gt;Node26 -->
<g id="edge37" class="edge"><title>Node25&#45;&gt;Node26</title>
<path fill="none" stroke="midnightblue" d="M829.753,-224.324C819.203,-216.185 803.199,-203.839 790.558,-194.087"/>
<polygon fill="midnightblue" stroke="midnightblue" points="792.507,-191.171 782.451,-187.834 788.231,-196.713 792.507,-191.171"/>
</g>
<!-- Node26&#45;&gt;Node4 -->
<g id="edge42" class="edge"><title>Node26&#45;&gt;Node4</title>
<path fill="none" stroke="midnightblue" d="M766.837,-168.454C760.653,-155.9 748.527,-131.815 737,-112 719.439,-81.8139 697.036,-47.8972 683.642,-28.0502"/>
<polygon fill="midnightblue" stroke="midnightblue" points="686.522,-26.0606 678.012,-19.75 680.729,-29.9904 686.522,-26.0606"/>
</g>
<!-- Node26&#45;&gt;Node5 -->
<g id="edge41" class="edge"><title>Node26&#45;&gt;Node5</title>
<path fill="none" stroke="midnightblue" d="M807.92,-168.444C852.73,-158.058 927.629,-140.7 970.727,-130.711"/>
<polygon fill="midnightblue" stroke="midnightblue" points="971.753,-134.066 980.705,-128.399 970.173,-127.247 971.753,-134.066"/>
</g>
<!-- Node26&#45;&gt;Node7 -->
<g id="edge46" class="edge"><title>Node26&#45;&gt;Node7</title>
<path fill="none" stroke="midnightblue" d="M732.242,-171.374C660.024,-160.891 505.832,-138.508 435.423,-128.287"/>
<polygon fill="midnightblue" stroke="midnightblue" points="435.664,-124.786 425.265,-126.813 434.658,-131.713 435.664,-124.786"/>
</g>
<!-- Node26&#45;&gt;Node13 -->
<g id="edge44" class="edge"><title>Node26&#45;&gt;Node13</title>
<path fill="none" stroke="midnightblue" d="M791.44,-168.444C812.67,-159.557 846.099,-145.563 870.255,-135.451"/>
<polygon fill="midnightblue" stroke="midnightblue" points="871.782,-138.606 879.655,-131.516 869.079,-132.149 871.782,-138.606"/>
</g>
<!-- Node26&#45;&gt;Node18 -->
<g id="edge45" class="edge"><title>Node26&#45;&gt;Node18</title>
<path fill="none" stroke="midnightblue" d="M764.64,-168.171C754.716,-154.826 734.45,-129.251 713,-112 697.266,-99.3464 677.51,-88.195 661.567,-80.1585"/>
<polygon fill="midnightblue" stroke="midnightblue" points="662.724,-76.8276 652.203,-75.5715 659.644,-83.1138 662.724,-76.8276"/>
</g>
<!-- Node26&#45;&gt;Node19 -->
<g id="edge48" class="edge"><title>Node26&#45;&gt;Node19</title>
<path fill="none" stroke="midnightblue" d="M737.408,-168.444C700.813,-159.122 642.162,-144.183 602.174,-133.997"/>
<polygon fill="midnightblue" stroke="midnightblue" points="602.989,-130.593 592.435,-131.516 601.261,-137.377 602.989,-130.593"/>
</g>
<!-- Node26&#45;&gt;Node22 -->
<g id="edge38" class="edge"><title>Node26&#45;&gt;Node22</title>
<path fill="none" stroke="midnightblue" d="M778.727,-168.285C790.174,-155.519 812.497,-131.173 833,-112 844.142,-101.581 857.278,-90.6081 867.804,-82.1061"/>
<polygon fill="midnightblue" stroke="midnightblue" points="870.303,-84.5889 875.931,-75.6121 865.934,-79.1203 870.303,-84.5889"/>
</g>
<!-- Node26&#45;&gt;Node23 -->
<g id="edge39" class="edge"><title>Node26&#45;&gt;Node23</title>
<path fill="none" stroke="midnightblue" d="M732.392,-174.901C668.274,-170.685 543.55,-159.159 510,-132 495.998,-120.665 489.494,-100.667 486.5,-85.8361"/>
<polygon fill="midnightblue" stroke="midnightblue" points="489.913,-85.026 484.828,-75.7315 483.007,-86.1688 489.913,-85.026"/>
</g>
<!-- Node26&#45;&gt;Node24 -->
<g id="edge47" class="edge"><title>Node26&#45;&gt;Node24</title>
<path fill="none" stroke="midnightblue" d="M783.184,-168.26C806.906,-151.316 857.781,-115.361 867,-112 1008.73,-60.3328 1057.09,-94.689 1211.55,-75.9325"/>
<polygon fill="midnightblue" stroke="midnightblue" points="1212.41,-79.3525 1221.88,-74.6188 1211.52,-72.4085 1212.41,-79.3525"/>
</g>
<!-- Node27 -->
<g id="node27" class="node"><title>Node27</title>
<polygon fill="white" stroke="#bfbfbf" points="655.5,-112.5 655.5,-131.5 704.5,-131.5 704.5,-112.5 655.5,-112.5"/>
<text text-anchor="middle" x="680" y="-119.5" font-family="Helvetica,sans-Serif" font-size="10.00">cstdarg</text>
</g>
<!-- Node26&#45;&gt;Node27 -->
<g id="edge40" class="edge"><title>Node26&#45;&gt;Node27</title>
<path fill="none" stroke="midnightblue" d="M756.379,-168.324C742.051,-159.822 719.987,-146.729 703.251,-136.797"/>
<polygon fill="midnightblue" stroke="midnightblue" points="704.97,-133.748 694.584,-131.655 701.398,-139.768 704.97,-133.748"/>
</g>
<!-- Node28 -->
<g id="node28" class="node"><title>Node28</title>
<polygon fill="white" stroke="#bfbfbf" points="1045.5,-112.5 1045.5,-131.5 1086.5,-131.5 1086.5,-112.5 1045.5,-112.5"/>
<text text-anchor="middle" x="1066" y="-119.5" font-family="Helvetica,sans-Serif" font-size="10.00">ctime</text>
</g>
<!-- Node26&#45;&gt;Node28 -->
<g id="edge43" class="edge"><title>Node26&#45;&gt;Node28</title>
<path fill="none" stroke="midnightblue" d="M809.919,-171.923C859.919,-165.066 949.518,-151.648 1035.51,-131.851"/>
<polygon fill="midnightblue" stroke="midnightblue" points="1036.49,-135.216 1045.43,-129.534 1034.9,-128.4 1036.49,-135.216"/>
</g>
<!-- Node29&#45;&gt;Node6 -->
<g id="edge52" class="edge"><title>Node29&#45;&gt;Node6</title>
<path fill="none" stroke="midnightblue" d="M884.44,-280.444C905.67,-271.557 939.099,-257.563 963.255,-247.451"/>
<polygon fill="midnightblue" stroke="midnightblue" points="964.782,-250.606 972.655,-243.516 962.079,-244.149 964.782,-250.606"/>
</g>
<!-- Node29&#45;&gt;Node8 -->
<g id="edge54" class="edge"><title>Node29&#45;&gt;Node8</title>
<path fill="none" stroke="midnightblue" d="M824.486,-280.727C790.191,-272.989 739.508,-260.204 697,-244 574.793,-197.415 558.65,-151.588 434,-112 350.561,-85.5 248.891,-74.4171 188.465,-69.9187"/>
<polygon fill="midnightblue" stroke="midnightblue" points="188.627,-66.4215 178.404,-69.2024 188.13,-73.4038 188.627,-66.4215"/>
</g>
<!-- Node29&#45;&gt;Node18 -->
<g id="edge51" class="edge"><title>Node29&#45;&gt;Node18</title>
<path fill="none" stroke="midnightblue" d="M843.348,-280.369C799.517,-260.917 697.111,-209.238 647,-132 638.067,-118.231 634.738,-99.7049 633.544,-85.9541"/>
<polygon fill="midnightblue" stroke="midnightblue" points="637.025,-85.5224 632.967,-75.7357 630.036,-85.9172 637.025,-85.5224"/>
</g>
<!-- Node29&#45;&gt;Node19 -->
<g id="edge56" class="edge"><title>Node29&#45;&gt;Node19</title>
<path fill="none" stroke="midnightblue" d="M824.729,-280.495C796.572,-273.351 758.403,-261.474 728,-244 683.776,-218.582 683.801,-197.233 642,-168 624.483,-155.75 603.275,-144.303 586.682,-136.02"/>
<polygon fill="midnightblue" stroke="midnightblue" points="588.028,-132.782 577.508,-131.527 584.949,-139.069 588.028,-132.782"/>
</g>
<!-- Node29&#45;&gt;Node20 -->
<g id="edge50" class="edge"><title>Node29&#45;&gt;Node20</title>
<path fill="none" stroke="midnightblue" d="M869.578,-280.038C879.144,-265.529 900.168,-237.196 926,-224 1031.46,-170.13 1103.85,-269.253 1190,-188 1214.83,-164.582 1209.56,-145.039 1201,-112 1198.45,-102.175 1193.25,-92.2118 1188.24,-84.166"/>
<polygon fill="midnightblue" stroke="midnightblue" points="1191.08,-82.1143 1182.63,-75.7252 1185.25,-85.9903 1191.08,-82.1143"/>
</g>
<!-- Node29&#45;&gt;Node24 -->
<g id="edge53" class="edge"><title>Node29&#45;&gt;Node24</title>
<path fill="none" stroke="midnightblue" d="M876.195,-280.29C899.938,-263.4 950.848,-227.537 960,-224 1065.12,-183.371 1120.37,-254.986 1211,-188 1244.66,-163.121 1259.18,-113.29 1264.82,-85.9783"/>
<polygon fill="midnightblue" stroke="midnightblue" points="1268.33,-86.2635 1266.73,-75.7904 1261.45,-84.9763 1268.33,-86.2635"/>
</g>
<!-- Node29&#45;&gt;Node25 -->
<g id="edge55" class="edge"><title>Node29&#45;&gt;Node25</title>
<path fill="none" stroke="midnightblue" d="M860.202,-280.083C857.087,-272.77 852.577,-262.181 848.711,-253.103"/>
<polygon fill="midnightblue" stroke="midnightblue" points="851.866,-251.58 844.727,-243.751 845.426,-254.323 851.866,-251.58"/>
</g>
<!-- Node30&#45;&gt;Node16 -->
<g id="edge65" class="edge"><title>Node30&#45;&gt;Node16</title>
<path fill="none" stroke="midnightblue" d="M366.648,-448.436C361.501,-439.665 354.064,-425.45 351,-412 338.174,-355.692 343.101,-286.674 346.628,-253.948"/>
<polygon fill="midnightblue" stroke="midnightblue" points="350.15,-253.961 347.829,-243.624 343.197,-253.153 350.15,-253.961"/>
</g>
<!-- Node31 -->
<g id="node31" class="node"><title>Node31</title>
<polygon fill="white" stroke="#bfbfbf" points="360.5,-392.5 360.5,-411.5 409.5,-411.5 409.5,-392.5 360.5,-392.5"/>
<text text-anchor="middle" x="385" y="-399.5" font-family="Helvetica,sans-Serif" font-size="10.00">cstddef</text>
</g>
<!-- Node30&#45;&gt;Node31 -->
<g id="edge66" class="edge"><title>Node30&#45;&gt;Node31</title>
<path fill="none" stroke="midnightblue" d="M374.147,-448.083C375.869,-440.927 378.347,-430.635 380.5,-421.691"/>
<polygon fill="midnightblue" stroke="midnightblue" points="383.955,-422.293 382.893,-411.751 377.15,-420.654 383.955,-422.293"/>
</g>
<!-- Node32&#45;&gt;Node4 -->
<g id="edge68" class="edge"><title>Node32&#45;&gt;Node4</title>
<path fill="none" stroke="midnightblue" d="M219.025,-280.202C217.957,-267.334 217.302,-242.862 225,-224 243.202,-179.403 363.055,-67.0988 385,-56 428.912,-33.7912 572.635,-19.2935 638.493,-13.6553"/>
<polygon fill="midnightblue" stroke="midnightblue" points="639.065,-17.1197 648.737,-12.7962 638.48,-10.1442 639.065,-17.1197"/>
</g>
<!-- Node32&#45;&gt;Node6 -->
<g id="edge71" class="edge"><title>Node32&#45;&gt;Node6</title>
<path fill="none" stroke="midnightblue" d="M256.251,-286.702C356.064,-280.34 643.343,-261.786 882,-244 907.517,-242.098 936.316,-239.758 958.185,-237.94"/>
<polygon fill="midnightblue" stroke="midnightblue" points="958.645,-241.414 968.319,-237.094 958.062,-234.438 958.645,-241.414"/>
</g>
<!-- Node32&#45;&gt;Node7 -->
<g id="edge72" class="edge"><title>Node32&#45;&gt;Node7</title>
<path fill="none" stroke="midnightblue" d="M220.616,-280.129C221.949,-266.731 226.118,-241.085 239,-224 271.81,-180.485 329.291,-150.953 365.687,-135.555"/>
<polygon fill="midnightblue" stroke="midnightblue" points="367.433,-138.622 375.355,-131.587 364.775,-132.146 367.433,-138.622"/>
</g>
<!-- Node32&#45;&gt;Node8 -->
<g id="edge73" class="edge"><title>Node32&#45;&gt;Node8</title>
<path fill="none" stroke="midnightblue" d="M205.199,-280.246C193.198,-272.333 176.869,-259.558 168,-244 138.67,-192.554 135.234,-120.198 135.424,-86.1432"/>
<polygon fill="midnightblue" stroke="midnightblue" points="138.929,-85.8519 135.605,-75.792 131.93,-85.729 138.929,-85.8519"/>
</g>
<!-- Node32&#45;&gt;Node14 -->
<g id="edge69" class="edge"><title>Node32&#45;&gt;Node14</title>
<path fill="none" stroke="midnightblue" d="M199.56,-280.444C178.33,-271.557 144.901,-257.563 120.745,-247.451"/>
<polygon fill="midnightblue" stroke="midnightblue" points="121.921,-244.149 111.345,-243.516 119.218,-250.606 121.921,-244.149"/>
</g>
<!-- Node32&#45;&gt;Node17 -->
<g id="edge70" class="edge"><title>Node32&#45;&gt;Node17</title>
<path fill="none" stroke="midnightblue" d="M229.319,-280.324C237.893,-272.341 250.812,-260.313 261.188,-250.653"/>
<polygon fill="midnightblue" stroke="midnightblue" points="263.578,-253.21 268.512,-243.834 258.808,-248.086 263.578,-253.21"/>
</g>
<!-- Node33&#45;&gt;Node4 -->
<g id="edge75" class="edge"><title>Node33&#45;&gt;Node4</title>
<path fill="none" stroke="midnightblue" d="M1206.14,-343.143C1240.72,-339.325 1286.9,-328.699 1316,-300 1393.72,-223.353 1432.59,-119.776 1344,-56 1291.85,-18.4563 833.781,-12.2087 705.348,-11.1927"/>
<polygon fill="midnightblue" stroke="midnightblue" points="705.339,-7.69267 695.314,-11.1189 705.288,-14.6925 705.339,-7.69267"/>
</g>
<!-- Node33&#45;&gt;Node5 -->
<g id="edge76" class="edge"><title>Node33&#45;&gt;Node5</title>
<path fill="none" stroke="midnightblue" d="M1153.88,-336.297C1130.64,-303.217 1047.5,-184.909 1016.12,-140.241"/>
<polygon fill="midnightblue" stroke="midnightblue" points="1018.86,-138.053 1010.24,-131.884 1013.13,-142.078 1018.86,-138.053"/>
</g>
<!-- Node33&#45;&gt;Node6 -->
<g id="edge78" class="edge"><title>Node33&#45;&gt;Node6</title>
<path fill="none" stroke="midnightblue" d="M1146.9,-336.368C1118.24,-317.492 1049.76,-272.385 1014.61,-249.237"/>
<polygon fill="midnightblue" stroke="midnightblue" points="1016.32,-246.169 1006.04,-243.591 1012.47,-252.015 1016.32,-246.169"/>
</g>
<!-- Node33&#45;&gt;Node8 -->
<g id="edge79" class="edge"><title>Node33&#45;&gt;Node8</title>
<path fill="none" stroke="midnightblue" d="M1113.98,-343.404C925.591,-336.808 221.015,-311.474 175,-300 118.674,-285.954 88.0247,-293.065 57,-244 21.8515,-188.414 86.4126,-114.54 118.926,-82.6983"/>
<polygon fill="midnightblue" stroke="midnightblue" points="121.604,-84.9811 126.422,-75.5452 116.771,-79.917 121.604,-84.9811"/>
</g>
<!-- Node33&#45;&gt;Node19 -->
<g id="edge82" class="edge"><title>Node33&#45;&gt;Node19</title>
<path fill="none" stroke="midnightblue" d="M1114,-343.488C1047.13,-340.288 919.755,-330.393 816,-300 759.905,-283.568 745.898,-276.026 697,-244 648.146,-212.003 598.51,-163.8 574.253,-138.998"/>
<polygon fill="midnightblue" stroke="midnightblue" points="576.507,-136.294 567.038,-131.541 571.476,-141.161 576.507,-136.294"/>
</g>
<!-- Node33&#45;&gt;Node24 -->
<g id="edge80" class="edge"><title>Node33&#45;&gt;Node24</title>
<path fill="none" stroke="midnightblue" d="M1166.38,-336.26C1186.34,-308.309 1247.47,-217.892 1268,-132 1271.65,-116.72 1271.33,-98.8359 1270.28,-85.699"/>
<polygon fill="midnightblue" stroke="midnightblue" points="1273.74,-85.1556 1269.25,-75.5613 1266.78,-85.8643 1273.74,-85.1556"/>
</g>
<!-- Node33&#45;&gt;Node29 -->
<g id="edge81" class="edge"><title>Node33&#45;&gt;Node29</title>
<path fill="none" stroke="midnightblue" d="M1113.75,-336.562C1059.41,-326.649 969.6,-310.265 913.778,-300.081"/>
<polygon fill="midnightblue" stroke="midnightblue" points="914.232,-296.606 903.766,-298.255 912.976,-303.493 914.232,-296.606"/>
</g>
<!-- Node34 -->
<g id="node34" class="node"><title>Node34</title>
<polygon fill="white" stroke="#bfbfbf" points="1364,-280.5 1364,-299.5 1416,-299.5 1416,-280.5 1364,-280.5"/>
<text text-anchor="middle" x="1390" y="-287.5" font-family="Helvetica,sans-Serif" font-size="10.00">memory</text>
</g>
<!-- Node33&#45;&gt;Node34 -->
<g id="edge77" class="edge"><title>Node33&#45;&gt;Node34</title>
<path fill="none" stroke="midnightblue" d="M1196.44,-336.444C1239.6,-326.312 1311.02,-309.543 1353.99,-299.455"/>
<polygon fill="midnightblue" stroke="midnightblue" points="1354.81,-302.858 1363.74,-297.165 1353.21,-296.043 1354.81,-302.858"/>
</g>
<!-- Node35 -->
<g id="node35" class="node"><title>Node35</title>
<polygon fill="white" stroke="#bfbfbf" points="1226.5,-280.5 1226.5,-299.5 1307.5,-299.5 1307.5,-280.5 1226.5,-280.5"/>
<text text-anchor="middle" x="1267" y="-287.5" font-family="Helvetica,sans-Serif" font-size="10.00">NChanDelay.h</text>
</g>
<!-- Node33&#45;&gt;Node35 -->
<g id="edge83" class="edge"><title>Node33&#45;&gt;Node35</title>
<path fill="none" stroke="midnightblue" d="M1177.19,-336.324C1194.35,-327.664 1220.95,-314.242 1240.75,-304.249"/>
<polygon fill="midnightblue" stroke="midnightblue" points="1242.5,-307.285 1249.85,-299.655 1239.35,-301.035 1242.5,-307.285"/>
</g>
<!-- Node36 -->
<g id="node36" class="node"><title>Node36</title>
<g id="a_node36"><a xlink:href="_i_plug_processor_8cpp.html" target="_top" xlink:title="IPlugProcessor implementation. ">
<polygon fill="white" stroke="black" points="1061,-168.5 1061,-187.5 1163,-187.5 1163,-168.5 1061,-168.5"/>
<text text-anchor="middle" x="1112" y="-175.5" font-family="Helvetica,sans-Serif" font-size="10.00">IPlugProcessor.cpp</text>
</a>
</g>
</g>
<!-- Node33&#45;&gt;Node36 -->
<g id="edge84" class="edge"><title>Node33&#45;&gt;Node36</title>
<path fill="none" stroke="midnightblue" d="M1159.16,-336.258C1157.01,-316.013 1150.47,-264.541 1136,-224 1132.61,-214.515 1127.5,-204.574 1122.86,-196.456"/>
<polygon fill="midnightblue" stroke="midnightblue" points="1125.71,-194.406 1117.58,-187.61 1119.7,-197.991 1125.71,-194.406"/>
</g>
<!-- Node36&#45;&gt;Node13 -->
<g id="edge88" class="edge"><title>Node36&#45;&gt;Node13</title>
<path fill="none" stroke="midnightblue" d="M1078.41,-168.444C1038.99,-158.403 973.984,-141.845 934.274,-131.73"/>
<polygon fill="midnightblue" stroke="midnightblue" points="935.067,-128.32 924.512,-129.244 933.339,-135.104 935.067,-128.32"/>
</g>
<!-- Node36&#45;&gt;Node21 -->
<g id="edge85" class="edge"><title>Node36&#45;&gt;Node21</title>
<path fill="none" stroke="midnightblue" d="M1118.33,-168.315C1127.07,-155.159 1140.53,-129.827 1129,-112 1114.05,-88.8823 1084.09,-77.5232 1060.84,-72.0148"/>
<polygon fill="midnightblue" stroke="midnightblue" points="1061.53,-68.5852 1051.03,-69.9346 1060.08,-75.4329 1061.53,-68.5852"/>
</g>
<!-- Node36&#45;&gt;Node22 -->
<g id="edge86" class="edge"><title>Node36&#45;&gt;Node22</title>
<path fill="none" stroke="midnightblue" d="M1112.4,-168.445C1112.54,-154.521 1110.67,-127.01 1095,-112 1070.04,-88.0866 970.452,-75.0902 918.659,-69.8272"/>
<polygon fill="midnightblue" stroke="midnightblue" points="918.969,-66.3409 908.675,-68.8485 918.286,-73.3075 918.969,-66.3409"/>
</g>
<!-- Node36&#45;&gt;Node28 -->
<g id="edge87" class="edge"><title>Node36&#45;&gt;Node28</title>
<path fill="none" stroke="midnightblue" d="M1104.4,-168.083C1097.77,-160.298 1087.98,-148.801 1079.94,-139.367"/>
<polygon fill="midnightblue" stroke="midnightblue" points="1082.6,-137.094 1073.45,-131.751 1077.27,-141.633 1082.6,-137.094"/>
</g>
</g>
</svg>
