<?xml version="1.0" encoding="UTF-8" standalone="no"?>
<!DOCTYPE svg PUBLIC "-//W3C//DTD SVG 1.1//EN"
 "http://www.w3.org/Graphics/SVG/1.1/DTD/svg11.dtd">
<!-- Generated by graphviz version 2.36.0 (20140111.2315)
 -->
<!-- Title: IPlugVST3_Controller.h Pages: 1 -->
<!--zoomable 600 -->
<svg id="main" version="1.1" xmlns="http://www.w3.org/2000/svg" xmlns:xlink="http://www.w3.org/1999/xlink" xml:space="preserve" onload="init(evt)">
<style type="text/css"><![CDATA[
.edge:hover path { stroke: red; }
.edge:hover polygon { stroke: red; fill: red; }
]]></style>
<script type="text/javascript"><![CDATA[
var edges = document.getElementsByTagName('g');
if (edges && edges.length) {
  for (var i=0;i<edges.length;i++) {
    if (edges[i].id.substr(0,4)=='edge') {
      edges[i].setAttribute('class','edge');
    }
  }
}
]]></script>
        <defs>
                <circle id="rim" cx="0" cy="0" r="7"/>
                <circle id="rim2" cx="0" cy="0" r="3.5"/>
                <g id="zoomPlus">
                        <use xlink:href="#rim" fill="#404040">
                                <set attributeName="fill" to="#808080" begin="zoomplus.mouseover" end="zoomplus.mouseout"/>
                        </use>
                        <path d="M-4,0h8M0,-4v8" fill="none" stroke="white" stroke-width="1.5" pointer-events="none"/>
                </g>
                <g id="zoomMin">
                        <use xlink:href="#rim" fill="#404040">
                                <set attributeName="fill" to="#808080" begin="zoomminus.mouseover" end="zoomminus.mouseout"/>
                        </use>
                        <path d="M-4,0h8" fill="none" stroke="white" stroke-width="1.5" pointer-events="none"/>
                </g>
                <g id="dirArrow">
                        <path fill="none" stroke="white" stroke-width="1.5" d="M0,-3.0v7 M-2.5,-0.5L0,-3.0L2.5,-0.5"/>
                </g>
               <g id="resetDef">
                       <use xlink:href="#rim2" fill="#404040">
                               <set attributeName="fill" to="#808080" begin="reset.mouseover" end="reset.mouseout"/>
                       </use>
               </g>
        </defs>

<script type="text/javascript">
var viewWidth = 1233;
var viewHeight = 600;
var sectionId = 'dynsection-0';
</script>
<script xlink:href="svgpan.js"/>
<svg id="graph" class="graph">
<g id="viewport">
<title>IPlugVST3_Controller.h</title>
<polygon fill="white" stroke="none" points="-4,4 -4,-596 1229,-596 1229,4 -4,4"/>
<!-- Node1 -->
<g id="node1" class="node"><title>Node1</title>
<polygon fill="#bfbfbf" stroke="black" points="642.5,-572.5 642.5,-591.5 761.5,-591.5 761.5,-572.5 642.5,-572.5"/>
<text text-anchor="middle" x="702" y="-579.5" font-family="Helvetica,sans-Serif" font-size="10.00">IPlugVST3_Controller.h</text>
</g>
<!-- Node2 -->
<g id="node2" class="node"><title>Node2</title>
<polygon fill="white" stroke="#bfbfbf" points="589,-505 589,-535 699,-535 699,-505 589,-505"/>
<text text-anchor="start" x="597" y="-523" font-family="Helvetica,sans-Serif" font-size="10.00">public.sdk/source/vst</text>
<text text-anchor="middle" x="644" y="-512" font-family="Helvetica,sans-Serif" font-size="10.00">/vsteditcontroller.h</text>
</g>
<!-- Node1&#45;&gt;Node2 -->
<g id="edge1" class="edge"><title>Node1&#45;&gt;Node2</title>
<path fill="none" stroke="midnightblue" d="M693.69,-572.403C686.128,-564.581 674.651,-552.708 664.631,-542.342"/>
<polygon fill="midnightblue" stroke="midnightblue" points="667.136,-539.898 657.669,-535.141 662.103,-544.763 667.136,-539.898"/>
</g>
<!-- Node3 -->
<g id="node3" class="node"><title>Node3</title>
<g id="a_node3"><a xlink:href="_i_plug_a_p_i_base_8h.html" target="_top" xlink:title="The base class of an IPlug plug&#45;in, which interacts with the different plug&#45;in APIs. ">
<polygon fill="white" stroke="black" points="717,-510.5 717,-529.5 803,-529.5 803,-510.5 717,-510.5"/>
<text text-anchor="middle" x="760" y="-517.5" font-family="Helvetica,sans-Serif" font-size="10.00">IPlugAPIBase.h</text>
</a>
</g>
</g>
<!-- Node1&#45;&gt;Node3 -->
<g id="edge2" class="edge"><title>Node1&#45;&gt;Node3</title>
<path fill="none" stroke="midnightblue" d="M710.31,-572.403C719.268,-563.136 733.723,-548.183 744.739,-536.788"/>
<polygon fill="midnightblue" stroke="midnightblue" points="747.272,-539.203 751.705,-529.581 742.239,-534.338 747.272,-539.203"/>
</g>
<!-- Node4 -->
<g id="node4" class="node"><title>Node4</title>
<polygon fill="white" stroke="#bfbfbf" points="760,-0.5 760,-19.5 806,-19.5 806,-0.5 760,-0.5"/>
<text text-anchor="middle" x="783" y="-7.5" font-family="Helvetica,sans-Serif" font-size="10.00">cstring</text>
</g>
<!-- Node3&#45;&gt;Node4 -->
<g id="edge3" class="edge"><title>Node3&#45;&gt;Node4</title>
<path fill="none" stroke="midnightblue" d="M734.607,-510.455C726.227,-507.964 716.798,-505.509 708,-504 574.164,-481.041 226.8,-511.011 98,-468 48.4259,-451.445 0,-455.265 0,-403 0,-403 0,-403 0,-121 0,-55.6062 68.8598,-73.0194 132,-56 250.406,-24.0837 634.115,-13.9666 749.73,-11.6041"/>
<polygon fill="midnightblue" stroke="midnightblue" points="749.83,-15.1029 759.758,-11.405 749.691,-8.10425 749.83,-15.1029"/>
</g>
<!-- Node5 -->
<g id="node5" class="node"><title>Node5</title>
<polygon fill="white" stroke="#bfbfbf" points="104,-112.5 104,-131.5 150,-131.5 150,-112.5 104,-112.5"/>
<text text-anchor="middle" x="127" y="-119.5" font-family="Helvetica,sans-Serif" font-size="10.00">cstdint</text>
</g>
<!-- Node3&#45;&gt;Node5 -->
<g id="edge4" class="edge"><title>Node3&#45;&gt;Node5</title>
<path fill="none" stroke="midnightblue" d="M733.489,-510.429C725.378,-508.058 716.384,-505.678 708,-504 578.426,-478.072 122,-535.142 122,-403 122,-403 122,-403 122,-233 122,-200.915 124.149,-163.62 125.629,-141.737"/>
<polygon fill="midnightblue" stroke="midnightblue" points="129.135,-141.773 126.346,-131.552 122.153,-141.281 129.135,-141.773"/>
</g>
<!-- Node6 -->
<g id="node6" class="node"><title>Node6</title>
<polygon fill="white" stroke="#bfbfbf" points="443.5,-224.5 443.5,-243.5 492.5,-243.5 492.5,-224.5 443.5,-224.5"/>
<text text-anchor="middle" x="468" y="-231.5" font-family="Helvetica,sans-Serif" font-size="10.00">ptrlist.h</text>
</g>
<!-- Node3&#45;&gt;Node6 -->
<g id="edge5" class="edge"><title>Node3&#45;&gt;Node6</title>
<path fill="none" stroke="midnightblue" d="M731.757,-510.479C724.078,-508.264 715.744,-505.954 708,-504 563.395,-467.508 388,-552.138 388,-403 388,-403 388,-403 388,-345 388,-304.621 423.695,-269.106 447.398,-249.973"/>
<polygon fill="midnightblue" stroke="midnightblue" points="449.745,-252.582 455.5,-243.687 445.454,-247.052 449.745,-252.582"/>
</g>
<!-- Node7 -->
<g id="node7" class="node"><title>Node7</title>
<polygon fill="white" stroke="#bfbfbf" points="1085,-112.5 1085,-131.5 1137,-131.5 1137,-112.5 1085,-112.5"/>
<text text-anchor="middle" x="1111" y="-119.5" font-family="Helvetica,sans-Serif" font-size="10.00">mutex.h</text>
</g>
<!-- Node3&#45;&gt;Node7 -->
<g id="edge6" class="edge"><title>Node3&#45;&gt;Node7</title>
<path fill="none" stroke="midnightblue" d="M803.216,-519.765C866.647,-519.236 987.256,-511.853 1078,-468 1116.52,-449.385 1149,-445.782 1149,-403 1149,-403 1149,-403 1149,-233 1149,-198.813 1132.4,-161.764 1121.14,-140.571"/>
<polygon fill="midnightblue" stroke="midnightblue" points="1124.18,-138.832 1116.28,-131.769 1118.05,-142.215 1124.18,-138.832"/>
</g>
<!-- Node8 -->
<g id="node8" class="node"><title>Node8</title>
<g id="a_node8"><a xlink:href="_i_plug_platform_8h.html" target="_top" xlink:title="Include to get consistently named preprocessor macros for different platforms and logging functionali...">
<polygon fill="white" stroke="black" points="997,-56.5 997,-75.5 1081,-75.5 1081,-56.5 997,-56.5"/>
<text text-anchor="middle" x="1039" y="-63.5" font-family="Helvetica,sans-Serif" font-size="10.00">IPlugPlatform.h</text>
</a>
</g>
</g>
<!-- Node3&#45;&gt;Node8 -->
<g id="edge7" class="edge"><title>Node3&#45;&gt;Node8</title>
<path fill="none" stroke="midnightblue" d="M803.329,-517.402C918.765,-511.973 1225,-489.427 1225,-403 1225,-403 1225,-403 1225,-177 1225,-114.487 1146.2,-86.75 1091.18,-75.0022"/>
<polygon fill="midnightblue" stroke="midnightblue" points="1091.7,-71.5371 1081.21,-72.9899 1090.32,-78.3988 1091.7,-71.5371"/>
</g>
<!-- Node10 -->
<g id="node10" class="node"><title>Node10</title>
<g id="a_node10"><a xlink:href="_i_plug_plugin_base_8h.html" target="_top" xlink:title="Base class that contains plug&#45;in info and state manipulation methods. ">
<polygon fill="white" stroke="black" points="551.5,-448.5 551.5,-467.5 648.5,-467.5 648.5,-448.5 551.5,-448.5"/>
<text text-anchor="middle" x="600" y="-455.5" font-family="Helvetica,sans-Serif" font-size="10.00">IPlugPluginBase.h</text>
</a>
</g>
</g>
<!-- Node3&#45;&gt;Node10 -->
<g id="edge10" class="edge"><title>Node3&#45;&gt;Node10</title>
<path fill="none" stroke="midnightblue" d="M737.076,-510.403C709.63,-500.111 663.484,-482.806 632.401,-471.15"/>
<polygon fill="midnightblue" stroke="midnightblue" points="633.474,-467.815 622.882,-467.581 631.016,-474.369 633.474,-467.815"/>
</g>
<!-- Node15 -->
<g id="node15" class="node"><title>Node15</title>
<g id="a_node15"><a xlink:href="_i_plug_parameter_8h.html" target="_top" xlink:title="IPlug&#39;s parameter class. ">
<polygon fill="white" stroke="black" points="809,-280.5 809,-299.5 901,-299.5 901,-280.5 809,-280.5"/>
<text text-anchor="middle" x="855" y="-287.5" font-family="Helvetica,sans-Serif" font-size="10.00">IPlugParameter.h</text>
</a>
</g>
</g>
<!-- Node3&#45;&gt;Node15 -->
<g id="edge63" class="edge"><title>Node3&#45;&gt;Node15</title>
<path fill="none" stroke="midnightblue" d="M766.512,-510.351C773.708,-500.498 785.297,-483.721 793,-468 820.041,-412.814 840.911,-342.787 850.01,-309.803"/>
<polygon fill="midnightblue" stroke="midnightblue" points="853.493,-310.333 852.728,-299.766 846.736,-308.503 853.493,-310.333"/>
</g>
<!-- Node19 -->
<g id="node19" class="node"><title>Node19</title>
<g id="a_node19"><a xlink:href="_i_plug_utilities_8h.html" target="_top" xlink:title="Utility functions and macros. ">
<polygon fill="white" stroke="black" points="743,-112.5 743,-131.5 823,-131.5 823,-112.5 743,-112.5"/>
<text text-anchor="middle" x="783" y="-119.5" font-family="Helvetica,sans-Serif" font-size="10.00">IPlugUtilities.h</text>
</a>
</g>
</g>
<!-- Node3&#45;&gt;Node19 -->
<g id="edge62" class="edge"><title>Node3&#45;&gt;Node19</title>
<path fill="none" stroke="midnightblue" d="M762.406,-510.348C767.519,-491.179 779,-443.61 779,-403 779,-403 779,-403 779,-233 779,-200.927 780.719,-163.628 781.904,-141.741"/>
<polygon fill="midnightblue" stroke="midnightblue" points="785.409,-141.735 782.477,-131.554 778.42,-141.341 785.409,-141.735"/>
</g>
<!-- Node24 -->
<g id="node24" class="node"><title>Node24</title>
<g id="a_node24"><a xlink:href="_i_plug_constants_8h.html" target="_top" xlink:title="IPlug Constant definitions, Types, magic numbers. ">
<polygon fill="white" stroke="black" points="408,-56.5 408,-75.5 500,-75.5 500,-56.5 408,-56.5"/>
<text text-anchor="middle" x="454" y="-63.5" font-family="Helvetica,sans-Serif" font-size="10.00">IPlugConstants.h</text>
</a>
</g>
</g>
<!-- Node3&#45;&gt;Node24 -->
<g id="edge60" class="edge"><title>Node3&#45;&gt;Node24</title>
<path fill="none" stroke="midnightblue" d="M734.603,-510.479C726.222,-507.99 716.794,-505.53 708,-504 584.051,-482.438 258.032,-518.949 143,-468 105.066,-451.199 76,-444.488 76,-403 76,-403 76,-403 76,-177 76,-146.902 72.088,-131.517 95,-112 100.715,-107.132 298.218,-84.4261 397.788,-73.2488"/>
<polygon fill="midnightblue" stroke="midnightblue" points="398.43,-76.6988 407.978,-72.1068 397.651,-69.7424 398.43,-76.6988"/>
</g>
<!-- Node29 -->
<g id="node29" class="node"><title>Node29</title>
<g id="a_node29"><a xlink:href="_i_plug_structs_8h_source.html" target="_top" xlink:title="IPlugStructs.h">
<polygon fill="white" stroke="black" points="538.5,-280.5 538.5,-299.5 617.5,-299.5 617.5,-280.5 538.5,-280.5"/>
<text text-anchor="middle" x="578" y="-287.5" font-family="Helvetica,sans-Serif" font-size="10.00">IPlugStructs.h</text>
</a>
</g>
</g>
<!-- Node3&#45;&gt;Node29 -->
<g id="edge61" class="edge"><title>Node3&#45;&gt;Node29</title>
<path fill="none" stroke="midnightblue" d="M753.088,-510.341C726.06,-476.482 627.255,-352.704 591.244,-307.592"/>
<polygon fill="midnightblue" stroke="midnightblue" points="593.893,-305.3 584.919,-299.668 588.423,-309.667 593.893,-305.3"/>
</g>
<!-- Node30 -->
<g id="node30" class="node"><title>Node30</title>
<g id="a_node30"><a xlink:href="_i_plug_queue_8h.html" target="_top" xlink:title="A lock&#45;free SPSC queue used to transfer data between threads based on MLQueue.h by Randy Jones based ...">
<polygon fill="white" stroke="black" points="993,-448.5 993,-467.5 1069,-467.5 1069,-448.5 993,-448.5"/>
<text text-anchor="middle" x="1031" y="-455.5" font-family="Helvetica,sans-Serif" font-size="10.00">IPlugQueue.h</text>
</a>
</g>
</g>
<!-- Node3&#45;&gt;Node30 -->
<g id="edge64" class="edge"><title>Node3&#45;&gt;Node30</title>
<path fill="none" stroke="midnightblue" d="M798.54,-510.467C847,-499.738 930.208,-481.316 982.819,-469.667"/>
<polygon fill="midnightblue" stroke="midnightblue" points="983.586,-473.082 992.593,-467.503 982.073,-466.248 983.586,-473.082"/>
</g>
<!-- Node32 -->
<g id="node32" class="node"><title>Node32</title>
<g id="a_node32"><a xlink:href="_i_plug_timer_8h.html" target="_top" xlink:title="This file includes classes for implementing timers &#45; in order to get a regular callback on the main t...">
<polygon fill="white" stroke="black" points="919,-280.5 919,-299.5 991,-299.5 991,-280.5 919,-280.5"/>
<text text-anchor="middle" x="955" y="-287.5" font-family="Helvetica,sans-Serif" font-size="10.00">IPlugTimer.h</text>
</a>
</g>
</g>
<!-- Node3&#45;&gt;Node32 -->
<g id="edge67" class="edge"><title>Node3&#45;&gt;Node32</title>
<path fill="none" stroke="midnightblue" d="M769.529,-510.283C780.213,-500.37 797.888,-483.539 812,-468 863.006,-411.839 917.959,-340.331 942.234,-308.107"/>
<polygon fill="midnightblue" stroke="midnightblue" points="945.291,-309.864 948.493,-299.765 939.692,-305.663 945.291,-309.864"/>
</g>
<!-- Node8&#45;&gt;Node4 -->
<g id="edge8" class="edge"><title>Node8&#45;&gt;Node4</title>
<path fill="none" stroke="midnightblue" d="M998.436,-56.4435C947.973,-45.799 862.779,-27.8283 816.075,-17.9768"/>
<polygon fill="midnightblue" stroke="midnightblue" points="816.678,-14.527 806.171,-15.8876 815.233,-21.3762 816.678,-14.527"/>
</g>
<!-- Node9 -->
<g id="node9" class="node"><title>Node9</title>
<polygon fill="white" stroke="#bfbfbf" points="962.5,-0.5 962.5,-19.5 1007.5,-19.5 1007.5,-0.5 962.5,-0.5"/>
<text text-anchor="middle" x="985" y="-7.5" font-family="Helvetica,sans-Serif" font-size="10.00">cstdlib</text>
</g>
<!-- Node8&#45;&gt;Node9 -->
<g id="edge9" class="edge"><title>Node8&#45;&gt;Node9</title>
<path fill="none" stroke="midnightblue" d="M1030.08,-56.083C1022.22,-48.2195 1010.57,-36.5688 1001.08,-27.0813"/>
<polygon fill="midnightblue" stroke="midnightblue" points="1003.3,-24.3473 993.751,-19.7511 998.347,-29.2971 1003.3,-24.3473"/>
</g>
<!-- Node11 -->
<g id="node11" class="node"><title>Node11</title>
<g id="a_node11"><a xlink:href="_i_plug_delegate__select_8h.html" target="_top" xlink:title="Used for choosing an editor delegate. ">
<polygon fill="white" stroke="black" points="454,-392.5 454,-411.5 572,-411.5 572,-392.5 454,-392.5"/>
<text text-anchor="middle" x="513" y="-399.5" font-family="Helvetica,sans-Serif" font-size="10.00">IPlugDelegate_select.h</text>
</a>
</g>
</g>
<!-- Node10&#45;&gt;Node11 -->
<g id="edge11" class="edge"><title>Node10&#45;&gt;Node11</title>
<path fill="none" stroke="midnightblue" d="M586.022,-448.324C572.45,-439.9 551.62,-426.971 535.675,-417.074"/>
<polygon fill="midnightblue" stroke="midnightblue" points="537.286,-413.954 526.943,-411.655 533.594,-419.902 537.286,-413.954"/>
</g>
<!-- Node10&#45;&gt;Node15 -->
<g id="edge57" class="edge"><title>Node10&#45;&gt;Node15</title>
<path fill="none" stroke="midnightblue" d="M613.351,-448.309C654.834,-421.304 781.777,-338.667 833.113,-305.248"/>
<polygon fill="midnightblue" stroke="midnightblue" points="835.31,-307.994 841.781,-299.605 831.491,-302.128 835.31,-307.994"/>
</g>
<!-- Node26 -->
<g id="node26" class="node"><title>Node26</title>
<g id="a_node26"><a xlink:href="_i_plug_logger_8h.html" target="_top" xlink:title="IPlug logging a.k.a tracing functionality. ">
<polygon fill="white" stroke="black" points="321.5,-168.5 321.5,-187.5 398.5,-187.5 398.5,-168.5 321.5,-168.5"/>
<text text-anchor="middle" x="360" y="-175.5" font-family="Helvetica,sans-Serif" font-size="10.00">IPlugLogger.h</text>
</a>
</g>
</g>
<!-- Node10&#45;&gt;Node26 -->
<g id="edge59" class="edge"><title>Node10&#45;&gt;Node26</title>
<path fill="none" stroke="midnightblue" d="M551.412,-450.603C519.153,-444.584 477.013,-433.186 445,-412 364.655,-358.828 340.317,-334.765 308,-244 305.018,-235.626 304.305,-232.084 308,-224 313.777,-211.36 325.052,-200.911 335.631,-193.274"/>
<polygon fill="midnightblue" stroke="midnightblue" points="337.849,-196.001 344.217,-187.533 333.958,-190.182 337.849,-196.001"/>
</g>
<!-- Node10&#45;&gt;Node29 -->
<g id="edge58" class="edge"><title>Node10&#45;&gt;Node29</title>
<path fill="none" stroke="midnightblue" d="M598.817,-448.075C595.354,-421.945 585.185,-345.211 580.462,-309.577"/>
<polygon fill="midnightblue" stroke="midnightblue" points="583.919,-309.022 579.136,-299.568 576.98,-309.941 583.919,-309.022"/>
</g>
<!-- Node12 -->
<g id="node12" class="node"><title>Node12</title>
<g id="a_node12"><a xlink:href="_i_plug_editor_delegate_8h.html" target="_top" xlink:title="This pure virtual interface delegates communication in both directions between a UI editor and someth...">
<polygon fill="white" stroke="black" points="433,-336.5 433,-355.5 545,-355.5 545,-336.5 433,-336.5"/>
<text text-anchor="middle" x="489" y="-343.5" font-family="Helvetica,sans-Serif" font-size="10.00">IPlugEditorDelegate.h</text>
</a>
</g>
</g>
<!-- Node11&#45;&gt;Node12 -->
<g id="edge12" class="edge"><title>Node11&#45;&gt;Node12</title>
<path fill="none" stroke="midnightblue" d="M509.037,-392.083C505.787,-384.77 501.081,-374.181 497.046,-365.103"/>
<polygon fill="midnightblue" stroke="midnightblue" points="500.149,-363.468 492.889,-355.751 493.752,-366.311 500.149,-363.468"/>
</g>
<!-- Node12&#45;&gt;Node4 -->
<g id="edge14" class="edge"><title>Node12&#45;&gt;Node4</title>
<path fill="none" stroke="midnightblue" d="M436.649,-336.436C308.6,-313.258 -3.01594,-242.126 95,-112 149.251,-39.9764 201.375,-72.6165 290,-56 460.839,-23.9692 669.43,-14.4626 749.507,-11.8824"/>
<polygon fill="midnightblue" stroke="midnightblue" points="750.048,-15.3675 759.936,-11.5626 749.833,-8.37081 750.048,-15.3675"/>
</g>
<!-- Node12&#45;&gt;Node6 -->
<g id="edge16" class="edge"><title>Node12&#45;&gt;Node6</title>
<path fill="none" stroke="midnightblue" d="M487.352,-336.368C483.963,-318.617 476.145,-277.666 471.55,-253.597"/>
<polygon fill="midnightblue" stroke="midnightblue" points="474.953,-252.758 469.64,-243.591 468.078,-254.07 474.953,-252.758"/>
</g>
<!-- Node13 -->
<g id="node13" class="node"><title>Node13</title>
<polygon fill="white" stroke="#bfbfbf" points="168.5,-112.5 168.5,-131.5 217.5,-131.5 217.5,-112.5 168.5,-112.5"/>
<text text-anchor="middle" x="193" y="-119.5" font-family="Helvetica,sans-Serif" font-size="10.00">cassert</text>
</g>
<!-- Node12&#45;&gt;Node13 -->
<g id="edge13" class="edge"><title>Node12&#45;&gt;Node13</title>
<path fill="none" stroke="midnightblue" d="M466.624,-336.357C418.282,-316.708 302.825,-264.387 233,-188 219.907,-173.677 208.704,-154.469 201.513,-140.652"/>
<polygon fill="midnightblue" stroke="midnightblue" points="204.63,-139.06 197.016,-131.692 198.373,-142.199 204.63,-139.06"/>
</g>
<!-- Node14 -->
<g id="node14" class="node"><title>Node14</title>
<polygon fill="white" stroke="#bfbfbf" points="701.5,-224.5 701.5,-243.5 750.5,-243.5 750.5,-224.5 701.5,-224.5"/>
<text text-anchor="middle" x="726" y="-231.5" font-family="Helvetica,sans-Serif" font-size="10.00">stdint.h</text>
</g>
<!-- Node12&#45;&gt;Node14 -->
<g id="edge15" class="edge"><title>Node12&#45;&gt;Node14</title>
<path fill="none" stroke="midnightblue" d="M523.164,-336.436C551.47,-328.719 592.361,-316.12 626,-300 655.795,-285.722 687.297,-263.991 706.804,-249.644"/>
<polygon fill="midnightblue" stroke="midnightblue" points="708.949,-252.41 714.872,-243.626 704.764,-246.799 708.949,-252.41"/>
</g>
<!-- Node12&#45;&gt;Node15 -->
<g id="edge17" class="edge"><title>Node12&#45;&gt;Node15</title>
<path fill="none" stroke="midnightblue" d="M545.385,-336.681C614.238,-326.522 729.995,-309.443 798.775,-299.296"/>
<polygon fill="midnightblue" stroke="midnightblue" points="799.601,-302.712 808.983,-297.789 798.579,-295.787 799.601,-302.712"/>
</g>
<!-- Node25 -->
<g id="node25" class="node"><title>Node25</title>
<g id="a_node25"><a xlink:href="_i_plug_midi_8h.html" target="_top" xlink:title="MIDI and sysex structs/utilites. ">
<polygon fill="white" stroke="black" points="317.5,-224.5 317.5,-243.5 382.5,-243.5 382.5,-224.5 317.5,-224.5"/>
<text text-anchor="middle" x="350" y="-231.5" font-family="Helvetica,sans-Serif" font-size="10.00">IPlugMidi.h</text>
</a>
</g>
</g>
<!-- Node12&#45;&gt;Node25 -->
<g id="edge32" class="edge"><title>Node12&#45;&gt;Node25</title>
<path fill="none" stroke="midnightblue" d="M478.093,-336.368C454.443,-317.653 398.209,-273.151 368.743,-249.832"/>
<polygon fill="midnightblue" stroke="midnightblue" points="370.87,-247.052 360.856,-243.591 366.526,-252.542 370.87,-247.052"/>
</g>
<!-- Node12&#45;&gt;Node29 -->
<g id="edge49" class="edge"><title>Node12&#45;&gt;Node29</title>
<path fill="none" stroke="midnightblue" d="M503.299,-336.324C517.183,-327.9 538.492,-314.971 554.804,-305.074"/>
<polygon fill="midnightblue" stroke="midnightblue" points="557.002,-307.834 563.736,-299.655 553.371,-301.85 557.002,-307.834"/>
</g>
<!-- Node15&#45;&gt;Node4 -->
<g id="edge19" class="edge"><title>Node15&#45;&gt;Node4</title>
<path fill="none" stroke="midnightblue" d="M860.284,-280.231C870.725,-262.043 893,-218.601 893,-179 893,-179 893,-179 893,-121 893,-89.1826 884.581,-79.3798 863,-56 850.021,-41.9394 831.617,-31.1687 815.732,-23.695"/>
<polygon fill="midnightblue" stroke="midnightblue" points="816.798,-20.3381 806.239,-19.4677 813.95,-26.7328 816.798,-20.3381"/>
</g>
<!-- Node16 -->
<g id="node16" class="node"><title>Node16</title>
<polygon fill="white" stroke="#bfbfbf" points="1037,-224.5 1037,-243.5 1083,-243.5 1083,-224.5 1037,-224.5"/>
<text text-anchor="middle" x="1060" y="-231.5" font-family="Helvetica,sans-Serif" font-size="10.00">atomic</text>
</g>
<!-- Node15&#45;&gt;Node16 -->
<g id="edge18" class="edge"><title>Node15&#45;&gt;Node16</title>
<path fill="none" stroke="midnightblue" d="M887.483,-280.444C925.563,-270.413 988.339,-253.877 1026.75,-243.759"/>
<polygon fill="midnightblue" stroke="midnightblue" points="1028.12,-247.018 1036.89,-241.086 1026.33,-240.249 1028.12,-247.018"/>
</g>
<!-- Node17 -->
<g id="node17" class="node"><title>Node17</title>
<polygon fill="white" stroke="#bfbfbf" points="921.5,-224.5 921.5,-243.5 980.5,-243.5 980.5,-224.5 921.5,-224.5"/>
<text text-anchor="middle" x="951" y="-231.5" font-family="Helvetica,sans-Serif" font-size="10.00">functional</text>
</g>
<!-- Node15&#45;&gt;Node17 -->
<g id="edge20" class="edge"><title>Node15&#45;&gt;Node17</title>
<path fill="none" stroke="midnightblue" d="M870.424,-280.324C885.54,-271.822 908.815,-258.729 926.471,-248.797"/>
<polygon fill="midnightblue" stroke="midnightblue" points="928.614,-251.608 935.614,-243.655 925.183,-245.507 928.614,-251.608"/>
</g>
<!-- Node18 -->
<g id="node18" class="node"><title>Node18</title>
<polygon fill="white" stroke="#bfbfbf" points="691,-56.5 691,-75.5 755,-75.5 755,-56.5 691,-56.5"/>
<text text-anchor="middle" x="723" y="-63.5" font-family="Helvetica,sans-Serif" font-size="10.00">wdlstring.h</text>
</g>
<!-- Node15&#45;&gt;Node18 -->
<g id="edge21" class="edge"><title>Node15&#45;&gt;Node18</title>
<path fill="none" stroke="midnightblue" d="M856.671,-280.129C861.416,-252.127 872.167,-164.374 832,-112 815.992,-91.1269 788.595,-79.8705 765.274,-73.8357"/>
<polygon fill="midnightblue" stroke="midnightblue" points="765.774,-70.358 755.239,-71.4853 764.177,-77.1735 765.774,-70.358"/>
</g>
<!-- Node15&#45;&gt;Node19 -->
<g id="edge22" class="edge"><title>Node15&#45;&gt;Node19</title>
<path fill="none" stroke="midnightblue" d="M851.129,-280.075C839.746,-253.832 806.224,-176.545 790.858,-141.117"/>
<polygon fill="midnightblue" stroke="midnightblue" points="793.906,-139.35 786.716,-131.568 787.485,-142.135 793.906,-139.35"/>
</g>
<!-- Node19&#45;&gt;Node4 -->
<g id="edge27" class="edge"><title>Node19&#45;&gt;Node4</title>
<path fill="none" stroke="midnightblue" d="M783,-112.368C783,-94.617 783,-53.6664 783,-29.5974"/>
<polygon fill="midnightblue" stroke="midnightblue" points="786.5,-29.5914 783,-19.5914 779.5,-29.5915 786.5,-29.5914"/>
</g>
<!-- Node19&#45;&gt;Node8 -->
<g id="edge31" class="edge"><title>Node19&#45;&gt;Node8</title>
<path fill="none" stroke="midnightblue" d="M823.282,-112.503C867.977,-103.075 940.166,-87.8478 988.579,-77.6356"/>
<polygon fill="midnightblue" stroke="midnightblue" points="989.469,-81.0251 998.531,-75.5364 988.024,-74.1758 989.469,-81.0251"/>
</g>
<!-- Node19&#45;&gt;Node9 -->
<g id="edge26" class="edge"><title>Node19&#45;&gt;Node9</title>
<path fill="none" stroke="midnightblue" d="M798.851,-112.368C833.883,-93.2916 918.115,-47.4223 960.199,-24.5054"/>
<polygon fill="midnightblue" stroke="midnightblue" points="962.115,-27.4477 969.223,-19.5914 958.767,-21.3001 962.115,-27.4477"/>
</g>
<!-- Node19&#45;&gt;Node18 -->
<g id="edge29" class="edge"><title>Node19&#45;&gt;Node18</title>
<path fill="none" stroke="midnightblue" d="M773.36,-112.324C764.49,-104.341 751.125,-92.3128 740.392,-82.6529"/>
<polygon fill="midnightblue" stroke="midnightblue" points="742.59,-79.922 732.815,-75.8339 737.907,-85.1251 742.59,-79.922"/>
</g>
<!-- Node20 -->
<g id="node20" class="node"><title>Node20</title>
<polygon fill="white" stroke="#bfbfbf" points="617,-56.5 617,-75.5 673,-75.5 673,-56.5 617,-56.5"/>
<text text-anchor="middle" x="645" y="-63.5" font-family="Helvetica,sans-Serif" font-size="10.00">algorithm</text>
</g>
<!-- Node19&#45;&gt;Node20 -->
<g id="edge23" class="edge"><title>Node19&#45;&gt;Node20</title>
<path fill="none" stroke="midnightblue" d="M761.133,-112.444C738.221,-103.478 702.025,-89.314 676.134,-79.1827"/>
<polygon fill="midnightblue" stroke="midnightblue" points="677.352,-75.9011 666.764,-75.5164 674.801,-82.4198 677.352,-75.9011"/>
</g>
<!-- Node21 -->
<g id="node21" class="node"><title>Node21</title>
<polygon fill="white" stroke="#bfbfbf" points="811,-56.5 811,-75.5 855,-75.5 855,-56.5 811,-56.5"/>
<text text-anchor="middle" x="833" y="-63.5" font-family="Helvetica,sans-Serif" font-size="10.00">cmath</text>
</g>
<!-- Node19&#45;&gt;Node21 -->
<g id="edge24" class="edge"><title>Node19&#45;&gt;Node21</title>
<path fill="none" stroke="midnightblue" d="M791.256,-112.083C798.465,-104.298 809.11,-92.8015 817.846,-83.3665"/>
<polygon fill="midnightblue" stroke="midnightblue" points="820.671,-85.4666 824.897,-75.7511 815.535,-80.7108 820.671,-85.4666"/>
</g>
<!-- Node22 -->
<g id="node22" class="node"><title>Node22</title>
<polygon fill="white" stroke="#bfbfbf" points="312.5,-56.5 312.5,-75.5 355.5,-75.5 355.5,-56.5 312.5,-56.5"/>
<text text-anchor="middle" x="334" y="-63.5" font-family="Helvetica,sans-Serif" font-size="10.00">cstdio</text>
</g>
<!-- Node19&#45;&gt;Node22 -->
<g id="edge25" class="edge"><title>Node19&#45;&gt;Node22</title>
<path fill="none" stroke="midnightblue" d="M742.887,-116.579C672.987,-108.813 524.339,-92.0196 399,-76 388.152,-74.6135 376.299,-73.0012 365.721,-71.5275"/>
<polygon fill="midnightblue" stroke="midnightblue" points="366.041,-68.0382 355.652,-70.1135 365.068,-74.9702 366.041,-68.0382"/>
</g>
<!-- Node23 -->
<g id="node23" class="node"><title>Node23</title>
<polygon fill="white" stroke="#bfbfbf" points="535,-56.5 535,-75.5 581,-75.5 581,-56.5 535,-56.5"/>
<text text-anchor="middle" x="558" y="-63.5" font-family="Helvetica,sans-Serif" font-size="10.00">cctype</text>
</g>
<!-- Node19&#45;&gt;Node23 -->
<g id="edge28" class="edge"><title>Node19&#45;&gt;Node23</title>
<path fill="none" stroke="midnightblue" d="M747.348,-112.444C704.396,-102.135 632.817,-84.9561 591.058,-74.934"/>
<polygon fill="midnightblue" stroke="midnightblue" points="591.661,-71.4792 581.12,-72.5488 590.027,-78.2859 591.661,-71.4792"/>
</g>
<!-- Node19&#45;&gt;Node24 -->
<g id="edge30" class="edge"><title>Node19&#45;&gt;Node24</title>
<path fill="none" stroke="midnightblue" d="M742.987,-114.433C684.793,-104.881 576.545,-87.1137 510.32,-76.2441"/>
<polygon fill="midnightblue" stroke="midnightblue" points="510.502,-72.7271 500.067,-74.5611 509.368,-79.6346 510.502,-72.7271"/>
</g>
<!-- Node25&#45;&gt;Node5 -->
<g id="edge34" class="edge"><title>Node25&#45;&gt;Node5</title>
<path fill="none" stroke="midnightblue" d="M323.859,-224.487C299.758,-216.281 263.247,-202.934 233,-188 202.144,-172.765 168.614,-151.3 147.705,-137.271"/>
<polygon fill="midnightblue" stroke="midnightblue" points="149.543,-134.288 139.301,-131.576 145.616,-140.083 149.543,-134.288"/>
</g>
<!-- Node25&#45;&gt;Node13 -->
<g id="edge33" class="edge"><title>Node25&#45;&gt;Node13</title>
<path fill="none" stroke="midnightblue" d="M328.231,-224.36C309.326,-216.346 281.658,-203.362 260,-188 239.889,-173.735 220.018,-153.468 207.205,-139.371"/>
<polygon fill="midnightblue" stroke="midnightblue" points="209.793,-137.015 200.528,-131.876 204.566,-141.671 209.793,-137.015"/>
</g>
<!-- Node25&#45;&gt;Node20 -->
<g id="edge36" class="edge"><title>Node25&#45;&gt;Node20</title>
<path fill="none" stroke="midnightblue" d="M378.424,-224.477C423.853,-210.031 514.471,-177.776 581,-132 600.88,-118.321 619.768,-97.898 631.802,-83.605"/>
<polygon fill="midnightblue" stroke="midnightblue" points="634.722,-85.5646 638.357,-75.613 629.309,-81.1256 634.722,-85.5646"/>
</g>
<!-- Node25&#45;&gt;Node22 -->
<g id="edge35" class="edge"><title>Node25&#45;&gt;Node22</title>
<path fill="none" stroke="midnightblue" d="M339.286,-224.305C330.062,-216.069 317.409,-202.789 312,-188 299.159,-152.891 314.174,-109.206 324.948,-85.0989"/>
<polygon fill="midnightblue" stroke="midnightblue" points="328.246,-86.3116 329.349,-75.7743 321.916,-83.3241 328.246,-86.3116"/>
</g>
<!-- Node25&#45;&gt;Node26 -->
<g id="edge37" class="edge"><title>Node25&#45;&gt;Node26</title>
<path fill="none" stroke="midnightblue" d="M351.651,-224.083C352.976,-216.927 354.882,-206.635 356.539,-197.691"/>
<polygon fill="midnightblue" stroke="midnightblue" points="360,-198.221 358.379,-187.751 353.117,-196.947 360,-198.221"/>
</g>
<!-- Node26&#45;&gt;Node4 -->
<g id="edge42" class="edge"><title>Node26&#45;&gt;Node4</title>
<path fill="none" stroke="midnightblue" d="M349.952,-168.386C326.238,-147.065 271.105,-91.0248 303,-56 333.037,-23.0148 645.975,-13.7595 749.762,-11.5868"/>
<polygon fill="midnightblue" stroke="midnightblue" points="750.045,-15.0819 759.973,-11.382 749.905,-8.08336 750.045,-15.0819"/>
</g>
<!-- Node26&#45;&gt;Node5 -->
<g id="edge41" class="edge"><title>Node26&#45;&gt;Node5</title>
<path fill="none" stroke="midnightblue" d="M321.321,-168.988C282.801,-160.865 221.765,-147.609 159.956,-132.139"/>
<polygon fill="midnightblue" stroke="midnightblue" points="160.584,-128.688 150.032,-129.638 158.874,-135.476 160.584,-128.688"/>
</g>
<!-- Node26&#45;&gt;Node7 -->
<g id="edge46" class="edge"><title>Node26&#45;&gt;Node7</title>
<path fill="none" stroke="midnightblue" d="M398.535,-174.229C528.241,-164.903 947.911,-134.727 1074.51,-125.624"/>
<polygon fill="midnightblue" stroke="midnightblue" points="1075.1,-129.091 1084.82,-124.882 1074.6,-122.109 1075.1,-129.091"/>
</g>
<!-- Node26&#45;&gt;Node13 -->
<g id="edge44" class="edge"><title>Node26&#45;&gt;Node13</title>
<path fill="none" stroke="midnightblue" d="M333.538,-168.444C304.824,-159.159 258.871,-144.3 227.38,-134.117"/>
<polygon fill="midnightblue" stroke="midnightblue" points="228.296,-130.735 217.705,-130.988 226.143,-137.395 228.296,-130.735"/>
</g>
<!-- Node26&#45;&gt;Node18 -->
<g id="edge45" class="edge"><title>Node26&#45;&gt;Node18</title>
<path fill="none" stroke="midnightblue" d="M372.07,-168.301C395.566,-151.432 445.949,-115.605 455,-112 549.493,-74.3671 581.016,-94.6623 681,-76 681.101,-75.9812 681.202,-75.9623 681.303,-75.9434"/>
<polygon fill="midnightblue" stroke="midnightblue" points="681.792,-79.4142 690.932,-74.0552 680.445,-72.545 681.792,-79.4142"/>
</g>
<!-- Node26&#45;&gt;Node19 -->
<g id="edge48" class="edge"><title>Node26&#45;&gt;Node19</title>
<path fill="none" stroke="midnightblue" d="M398.66,-172.065C475.485,-162.257 647.303,-140.323 732.754,-129.414"/>
<polygon fill="midnightblue" stroke="midnightblue" points="733.258,-132.879 742.734,-128.14 732.371,-125.935 733.258,-132.879"/>
</g>
<!-- Node26&#45;&gt;Node22 -->
<g id="edge38" class="edge"><title>Node26&#45;&gt;Node22</title>
<path fill="none" stroke="midnightblue" d="M357.009,-168.459C353.94,-159.47 349.178,-144.868 346,-132 342.213,-116.662 339.028,-99.0227 336.894,-85.9928"/>
<polygon fill="midnightblue" stroke="midnightblue" points="340.317,-85.2339 335.299,-75.9027 333.403,-86.3265 340.317,-85.2339"/>
</g>
<!-- Node26&#45;&gt;Node23 -->
<g id="edge39" class="edge"><title>Node26&#45;&gt;Node23</title>
<path fill="none" stroke="midnightblue" d="M366.2,-168.109C376.332,-154.211 397.754,-127.346 422,-112 454.005,-91.7435 496.062,-79.6623 524.885,-73.1984"/>
<polygon fill="midnightblue" stroke="midnightblue" points="525.814,-76.5789 534.862,-71.0663 524.351,-69.7335 525.814,-76.5789"/>
</g>
<!-- Node26&#45;&gt;Node24 -->
<g id="edge47" class="edge"><title>Node26&#45;&gt;Node24</title>
<path fill="none" stroke="midnightblue" d="M361.421,-168.125C363.945,-154.722 370.292,-129.071 384,-112 394.804,-98.5456 410.764,-87.8503 424.717,-80.2683"/>
<polygon fill="midnightblue" stroke="midnightblue" points="426.669,-83.2005 433.968,-75.5209 423.473,-76.9727 426.669,-83.2005"/>
</g>
<!-- Node27 -->
<g id="node27" class="node"><title>Node27</title>
<polygon fill="white" stroke="#bfbfbf" points="464.5,-112.5 464.5,-131.5 513.5,-131.5 513.5,-112.5 464.5,-112.5"/>
<text text-anchor="middle" x="489" y="-119.5" font-family="Helvetica,sans-Serif" font-size="10.00">cstdarg</text>
</g>
<!-- Node26&#45;&gt;Node27 -->
<g id="edge40" class="edge"><title>Node26&#45;&gt;Node27</title>
<path fill="none" stroke="midnightblue" d="M380.44,-168.444C401.67,-159.557 435.099,-145.563 459.255,-135.451"/>
<polygon fill="midnightblue" stroke="midnightblue" points="460.782,-138.606 468.655,-131.516 458.079,-132.149 460.782,-138.606"/>
</g>
<!-- Node28 -->
<g id="node28" class="node"><title>Node28</title>
<polygon fill="white" stroke="#bfbfbf" points="531.5,-112.5 531.5,-131.5 572.5,-131.5 572.5,-112.5 531.5,-112.5"/>
<text text-anchor="middle" x="552" y="-119.5" font-family="Helvetica,sans-Serif" font-size="10.00">ctime</text>
</g>
<!-- Node26&#45;&gt;Node28 -->
<g id="edge43" class="edge"><title>Node26&#45;&gt;Node28</title>
<path fill="none" stroke="midnightblue" d="M391.413,-168.479C422.111,-160.107 470.411,-146.816 521.459,-132.112"/>
<polygon fill="midnightblue" stroke="midnightblue" points="522.724,-135.39 531.36,-129.253 520.781,-128.665 522.724,-135.39"/>
</g>
<!-- Node29&#45;&gt;Node6 -->
<g id="edge52" class="edge"><title>Node29&#45;&gt;Node6</title>
<path fill="none" stroke="midnightblue" d="M560.327,-280.324C542.606,-271.625 515.097,-258.12 494.712,-248.113"/>
<polygon fill="midnightblue" stroke="midnightblue" points="496.149,-244.919 485.63,-243.655 493.064,-251.203 496.149,-244.919"/>
</g>
<!-- Node29&#45;&gt;Node8 -->
<g id="edge54" class="edge"><title>Node29&#45;&gt;Node8</title>
<path fill="none" stroke="midnightblue" d="M593.931,-280.38C610.338,-271.449 636.601,-257.003 659,-244 673.832,-235.39 676.827,-231.994 692,-224 805.879,-164.006 947.21,-104.472 1008.4,-79.3875"/>
<polygon fill="midnightblue" stroke="midnightblue" points="1009.92,-82.5466 1017.85,-75.5243 1007.27,-76.0666 1009.92,-82.5466"/>
</g>
<!-- Node29&#45;&gt;Node18 -->
<g id="edge51" class="edge"><title>Node29&#45;&gt;Node18</title>
<path fill="none" stroke="midnightblue" d="M583.684,-280.297C605.245,-247.286 682.241,-129.404 711.555,-84.522"/>
<polygon fill="midnightblue" stroke="midnightblue" points="714.659,-86.1701 717.198,-75.8837 708.799,-82.3421 714.659,-86.1701"/>
</g>
<!-- Node29&#45;&gt;Node19 -->
<g id="edge56" class="edge"><title>Node29&#45;&gt;Node19</title>
<path fill="none" stroke="midnightblue" d="M588.733,-280.309C621.805,-253.528 722.445,-172.035 764.365,-138.09"/>
<polygon fill="midnightblue" stroke="midnightblue" points="766.804,-140.618 772.373,-131.605 762.399,-135.178 766.804,-140.618"/>
</g>
<!-- Node29&#45;&gt;Node20 -->
<g id="edge50" class="edge"><title>Node29&#45;&gt;Node20</title>
<path fill="none" stroke="midnightblue" d="M577.145,-280.25C576.226,-267.44 575.755,-243.041 583,-224 601.272,-175.98 636.584,-180.686 653,-132 658.109,-116.849 655.191,-98.7299 651.523,-85.4751"/>
<polygon fill="midnightblue" stroke="midnightblue" points="654.772,-84.1408 648.426,-75.6572 648.097,-86.247 654.772,-84.1408"/>
</g>
<!-- Node29&#45;&gt;Node24 -->
<g id="edge53" class="edge"><title>Node29&#45;&gt;Node24</title>
<path fill="none" stroke="midnightblue" d="M577.254,-280.382C576.511,-271.33 575.422,-256.677 575,-244 573.341,-194.178 579.377,-181.823 581,-132 581.289,-123.116 586.129,-119.26 581,-112 564.841,-89.1312 536.025,-77.8101 509.922,-72.2375"/>
<polygon fill="midnightblue" stroke="midnightblue" points="510.56,-68.7961 500.083,-70.3711 509.255,-75.6735 510.56,-68.7961"/>
</g>
<!-- Node29&#45;&gt;Node25 -->
<g id="edge55" class="edge"><title>Node29&#45;&gt;Node25</title>
<path fill="none" stroke="midnightblue" d="M541.873,-280.444C501.303,-270.835 435.528,-255.257 392.515,-245.069"/>
<polygon fill="midnightblue" stroke="midnightblue" points="393.171,-241.628 382.634,-242.729 391.558,-248.44 393.171,-241.628"/>
</g>
<!-- Node30&#45;&gt;Node16 -->
<g id="edge65" class="edge"><title>Node30&#45;&gt;Node16</title>
<path fill="none" stroke="midnightblue" d="M1032.14,-448.297C1036.4,-415.633 1051.53,-299.866 1057.52,-253.957"/>
<polygon fill="midnightblue" stroke="midnightblue" points="1061.01,-254.253 1058.84,-243.884 1054.07,-253.346 1061.01,-254.253"/>
</g>
<!-- Node31 -->
<g id="node31" class="node"><title>Node31</title>
<polygon fill="white" stroke="#bfbfbf" points="1059.5,-392.5 1059.5,-411.5 1108.5,-411.5 1108.5,-392.5 1059.5,-392.5"/>
<text text-anchor="middle" x="1084" y="-399.5" font-family="Helvetica,sans-Serif" font-size="10.00">cstddef</text>
</g>
<!-- Node30&#45;&gt;Node31 -->
<g id="edge66" class="edge"><title>Node30&#45;&gt;Node31</title>
<path fill="none" stroke="midnightblue" d="M1039.75,-448.083C1047.47,-440.22 1058.9,-428.569 1068.22,-419.081"/>
<polygon fill="midnightblue" stroke="midnightblue" points="1070.9,-421.34 1075.41,-411.751 1065.91,-416.436 1070.9,-421.34"/>
</g>
<!-- Node32&#45;&gt;Node4 -->
<g id="edge68" class="edge"><title>Node32&#45;&gt;Node4</title>
<path fill="none" stroke="midnightblue" d="M964.288,-280.395C972.581,-272.025 984.144,-258.483 989,-244 991.826,-235.572 991.414,-232.555 989,-224 965.218,-139.708 952.055,-113.51 886,-56 865.798,-38.4117 837.649,-26.7474 815.882,-19.7109"/>
<polygon fill="midnightblue" stroke="midnightblue" points="816.664,-16.2901 806.078,-16.7108 814.616,-22.9837 816.664,-16.2901"/>
</g>
<!-- Node32&#45;&gt;Node6 -->
<g id="edge71" class="edge"><title>Node32&#45;&gt;Node6</title>
<path fill="none" stroke="midnightblue" d="M918.703,-281.43C915.765,-280.912 912.836,-280.427 910,-280 759.152,-257.29 577.578,-242.812 502.784,-237.4"/>
<polygon fill="midnightblue" stroke="midnightblue" points="502.765,-233.89 492.541,-236.668 502.265,-240.872 502.765,-233.89"/>
</g>
<!-- Node32&#45;&gt;Node7 -->
<g id="edge72" class="edge"><title>Node32&#45;&gt;Node7</title>
<path fill="none" stroke="midnightblue" d="M991.023,-287.25C1022.52,-283.691 1067.03,-273.373 1092,-244 1116.6,-215.07 1116.12,-167.624 1113.59,-141.571"/>
<polygon fill="midnightblue" stroke="midnightblue" points="1117.05,-141.059 1112.4,-131.539 1110.1,-141.881 1117.05,-141.059"/>
</g>
<!-- Node32&#45;&gt;Node8 -->
<g id="edge73" class="edge"><title>Node32&#45;&gt;Node8</title>
<path fill="none" stroke="midnightblue" d="M991.317,-288.313C1026.97,-285.669 1080.59,-276.122 1113,-244 1155.95,-201.434 1179.46,-162.371 1146,-112 1133.58,-93.3063 1111.72,-82.3609 1090.98,-75.9602"/>
<polygon fill="midnightblue" stroke="midnightblue" points="1091.83,-72.5625 1081.25,-73.2484 1089.95,-79.3053 1091.83,-72.5625"/>
</g>
<!-- Node32&#45;&gt;Node14 -->
<g id="edge69" class="edge"><title>Node32&#45;&gt;Node14</title>
<path fill="none" stroke="midnightblue" d="M918.967,-280.503C875.564,-270.268 803.177,-253.199 760.48,-243.131"/>
<polygon fill="midnightblue" stroke="midnightblue" points="761.093,-239.679 750.557,-240.791 759.486,-246.492 761.093,-239.679"/>
</g>
<!-- Node32&#45;&gt;Node17 -->
<g id="edge70" class="edge"><title>Node32&#45;&gt;Node17</title>
<path fill="none" stroke="midnightblue" d="M954.339,-280.083C953.815,-273.006 953.064,-262.861 952.406,-253.986"/>
<polygon fill="midnightblue" stroke="midnightblue" points="955.877,-253.465 951.648,-243.751 948.897,-253.982 955.877,-253.465"/>
</g>
</g>
</svg>
        <g id="navigator" transform="translate(0 0)" fill="#404254">
                <rect fill="#f2f5e9" fill-opacity="0.5" stroke="#606060" stroke-width=".5" x="0" y="0" width="60" height="60"/>
                <use id="zoomplus" xlink:href="#zoomPlus" x="17" y="9" onmousedown="handleZoom(evt,'in')"/>
                <use id="zoomminus" xlink:href="#zoomMin" x="42" y="9" onmousedown="handleZoom(evt,'out')"/>
                <use id="reset" xlink:href="#resetDef" x="30" y="36" onmousedown="handleReset()"/>
                <g id="arrowUp" xlink:href="#dirArrow" transform="translate(30 24)" onmousedown="handlePan(0,-1)">
                  <use xlink:href="#rim" fill="#404040">
                        <set attributeName="fill" to="#808080" begin="arrowUp.mouseover" end="arrowUp.mouseout"/>
                  </use>
                  <path fill="none" stroke="white" stroke-width="1.5" d="M0,-3.0v7 M-2.5,-0.5L0,-3.0L2.5,-0.5"/>
                </g>
                <g id="arrowRight" xlink:href="#dirArrow" transform="rotate(90) translate(36 -43)" onmousedown="handlePan(1,0)">
                  <use xlink:href="#rim" fill="#404040">
                        <set attributeName="fill" to="#808080" begin="arrowRight.mouseover" end="arrowRight.mouseout"/>
                  </use>
                  <path fill="none" stroke="white" stroke-width="1.5" d="M0,-3.0v7 M-2.5,-0.5L0,-3.0L2.5,-0.5"/>
                </g>
                <g id="arrowDown" xlink:href="#dirArrow" transform="rotate(180) translate(-30 -48)" onmousedown="handlePan(0,1)">
                  <use xlink:href="#rim" fill="#404040">
                        <set attributeName="fill" to="#808080" begin="arrowDown.mouseover" end="arrowDown.mouseout"/>
                  </use>
                  <path fill="none" stroke="white" stroke-width="1.5" d="M0,-3.0v7 M-2.5,-0.5L0,-3.0L2.5,-0.5"/>
                </g>
                <g id="arrowLeft" xlink:href="#dirArrow" transform="rotate(270) translate(-36 17)" onmousedown="handlePan(-1,0)">
                  <use xlink:href="#rim" fill="#404040">
                        <set attributeName="fill" to="#808080" begin="arrowLeft.mouseover" end="arrowLeft.mouseout"/>
                  </use>
                  <path fill="none" stroke="white" stroke-width="1.5" d="M0,-3.0v7 M-2.5,-0.5L0,-3.0L2.5,-0.5"/>
                </g>
        </g>
        <svg viewBox="0 0 15 15" width="100%" height="30px" preserveAspectRatio="xMaxYMin meet">
         <g id="arrow_out" transform="scale(0.3 0.3)">
          <a xlink:href="_i_plug_v_s_t3___controller_8h__incl_org.svg" target="_base">
           <rect id="button" ry="5" rx="5" y="6" x="6" height="38" width="38"
                fill="#f2f5e9" fill-opacity="0.5" stroke="#606060" stroke-width="1.0"/>
           <path id="arrow"
             d="M 11.500037,31.436501 C 11.940474,20.09759 22.043105,11.32322 32.158766,21.979434 L 37.068811,17.246167 C 37.068811,17.246167 37.088388,32 37.088388,32 L 22.160133,31.978069 C 22.160133,31.978069 26.997745,27.140456 26.997745,27.140456 C 18.528582,18.264221 13.291696,25.230495 11.500037,31.436501 z"
             style="fill:#404040;"/>
          </a>
         </g>
        </svg>
</svg>
