<?xml version="1.0" encoding="UTF-8" standalone="no"?>
<!DOCTYPE svg PUBLIC "-//W3C//DTD SVG 1.1//EN"
 "http://www.w3.org/Graphics/SVG/1.1/DTD/svg11.dtd">
<!-- Generated by graphviz version 2.36.0 (20140111.2315)
 -->
<!-- Title: IPlugAAX.h Pages: 1 -->
<svg width="1799pt" height="588pt"
 viewBox="0.00 0.00 1799.00 588.00" xmlns="http://www.w3.org/2000/svg" xmlns:xlink="http://www.w3.org/1999/xlink">
<g id="graph0" class="graph" transform="scale(1 1) rotate(0) translate(4 584)">
<title>IPlugAAX.h</title>
<polygon fill="white" stroke="none" points="-4,4 -4,-584 1795,-584 1795,4 -4,4"/>
<!-- Node1 -->
<g id="node1" class="node"><title>Node1</title>
<polygon fill="#bfbfbf" stroke="black" points="1188,-560.5 1188,-579.5 1256,-579.5 1256,-560.5 1188,-560.5"/>
<text text-anchor="middle" x="1222" y="-567.5" font-family="Helvetica,sans-Serif" font-size="10.00">IPlugAAX.h</text>
</g>
<!-- Node2 -->
<g id="node2" class="node"><title>Node2</title>
<g id="a_node2"><a xlink:href="_i_plug_platform_8h.html" target="_top" xlink:title="Include to get consistently named preprocessor macros for different platforms and logging functionali...">
<polygon fill="white" stroke="black" points="104,-56.5 104,-75.5 188,-75.5 188,-56.5 104,-56.5"/>
<text text-anchor="middle" x="146" y="-63.5" font-family="Helvetica,sans-Serif" font-size="10.00">IPlugPlatform.h</text>
</a>
</g>
</g>
<!-- Node1&#45;&gt;Node2 -->
<g id="edge1" class="edge"><title>Node1&#45;&gt;Node2</title>
<path fill="none" stroke="midnightblue" d="M1187.72,-567.758C989.605,-560.361 0,-520.34 0,-459 0,-459 0,-459 0,-177 0,-124.445 61.0937,-93.8535 104.241,-78.8021"/>
<polygon fill="midnightblue" stroke="midnightblue" points="105.578,-82.0457 113.96,-75.5646 103.366,-75.4045 105.578,-82.0457"/>
</g>
<!-- Node5 -->
<g id="node5" class="node"><title>Node5</title>
<g id="a_node5"><a xlink:href="_i_plug_a_p_i_base_8h.html" target="_top" xlink:title="The base class of an IPlug plug&#45;in, which interacts with the different plug&#45;in APIs. ">
<polygon fill="white" stroke="black" points="689,-504.5 689,-523.5 775,-523.5 775,-504.5 689,-504.5"/>
<text text-anchor="middle" x="732" y="-511.5" font-family="Helvetica,sans-Serif" font-size="10.00">IPlugAPIBase.h</text>
</a>
</g>
</g>
<!-- Node1&#45;&gt;Node5 -->
<g id="edge4" class="edge"><title>Node1&#45;&gt;Node5</title>
<path fill="none" stroke="midnightblue" d="M1187.93,-565.246C1103.9,-555.985 886.209,-531.994 785.08,-520.85"/>
<polygon fill="midnightblue" stroke="midnightblue" points="785.407,-517.365 775.084,-519.748 784.64,-524.322 785.407,-517.365"/>
</g>
<!-- Node24 -->
<g id="node24" class="node"><title>Node24</title>
<g id="a_node24"><a xlink:href="_i_plug_midi_8h.html" target="_top" xlink:title="MIDI and sysex structs/utilites. ">
<polygon fill="white" stroke="black" points="977.5,-224.5 977.5,-243.5 1042.5,-243.5 1042.5,-224.5 977.5,-224.5"/>
<text text-anchor="middle" x="1010" y="-231.5" font-family="Helvetica,sans-Serif" font-size="10.00">IPlugMidi.h</text>
</a>
</g>
</g>
<!-- Node1&#45;&gt;Node24 -->
<g id="edge89" class="edge"><title>Node1&#45;&gt;Node24</title>
<path fill="none" stroke="midnightblue" d="M1214.73,-560.256C1207.43,-551.345 1196.01,-537.022 1187,-524 1118.22,-424.592 1045.83,-298.594 1019.93,-252.72"/>
<polygon fill="midnightblue" stroke="midnightblue" points="1022.83,-250.731 1014.87,-243.733 1016.73,-254.164 1022.83,-250.731"/>
</g>
<!-- Node32 -->
<g id="node32" class="node"><title>Node32</title>
<g id="a_node32"><a xlink:href="_i_plug_processor_8h.html" target="_top" xlink:title="The base class for IPlug Audio Processing. ">
<polygon fill="white" stroke="black" points="1131,-336.5 1131,-355.5 1223,-355.5 1223,-336.5 1131,-336.5"/>
<text text-anchor="middle" x="1177" y="-343.5" font-family="Helvetica,sans-Serif" font-size="10.00">IPlugProcessor.h</text>
</a>
</g>
</g>
<!-- Node1&#45;&gt;Node32 -->
<g id="edge74" class="edge"><title>Node1&#45;&gt;Node32</title>
<path fill="none" stroke="midnightblue" d="M1215.43,-560.224C1209.29,-551.518 1200.42,-537.553 1196,-524 1177.9,-468.545 1176.16,-398.646 1176.5,-365.747"/>
<polygon fill="midnightblue" stroke="midnightblue" points="1180,-365.8 1176.68,-355.738 1173,-365.673 1180,-365.8"/>
</g>
<!-- Node36 -->
<g id="node36" class="node"><title>Node36</title>
<polygon fill="white" stroke="#bfbfbf" points="1205.5,-504.5 1205.5,-523.5 1328.5,-523.5 1328.5,-504.5 1205.5,-504.5"/>
<text text-anchor="middle" x="1267" y="-511.5" font-family="Helvetica,sans-Serif" font-size="10.00">IPlugAAX_Parameters.h</text>
</g>
<!-- Node1&#45;&gt;Node36 -->
<g id="edge90" class="edge"><title>Node1&#45;&gt;Node36</title>
<path fill="none" stroke="midnightblue" d="M1229.43,-560.083C1235.85,-552.377 1245.31,-541.033 1253.12,-531.653"/>
<polygon fill="midnightblue" stroke="midnightblue" points="1255.99,-533.674 1259.71,-523.751 1250.62,-529.193 1255.99,-533.674"/>
</g>
<!-- Node37 -->
<g id="node37" class="node"><title>Node37</title>
<polygon fill="white" stroke="#bfbfbf" points="1347,-504.5 1347,-523.5 1449,-523.5 1449,-504.5 1347,-504.5"/>
<text text-anchor="middle" x="1398" y="-511.5" font-family="Helvetica,sans-Serif" font-size="10.00">AAX_CEffectGUI.h</text>
</g>
<!-- Node1&#45;&gt;Node37 -->
<g id="edge91" class="edge"><title>Node1&#45;&gt;Node37</title>
<path fill="none" stroke="midnightblue" d="M1249.89,-560.444C1279.75,-551.28 1327.31,-536.688 1360.46,-526.519"/>
<polygon fill="midnightblue" stroke="midnightblue" points="1361.71,-529.796 1370.24,-523.516 1359.66,-523.104 1361.71,-529.796"/>
</g>
<!-- Node38 -->
<g id="node38" class="node"><title>Node38</title>
<polygon fill="white" stroke="#bfbfbf" points="1467,-504.5 1467,-523.5 1635,-523.5 1635,-504.5 1467,-504.5"/>
<text text-anchor="middle" x="1551" y="-511.5" font-family="Helvetica,sans-Serif" font-size="10.00">AAX_Push8ByteStructAlignment.h</text>
</g>
<!-- Node1&#45;&gt;Node38 -->
<g id="edge92" class="edge"><title>Node1&#45;&gt;Node38</title>
<path fill="none" stroke="midnightblue" d="M1256.28,-563.374C1311.22,-554.355 1419.83,-536.53 1488.75,-525.217"/>
<polygon fill="midnightblue" stroke="midnightblue" points="1489.74,-528.602 1499.04,-523.529 1488.6,-521.695 1489.74,-528.602"/>
</g>
<!-- Node39 -->
<g id="node39" class="node"><title>Node39</title>
<polygon fill="white" stroke="#bfbfbf" points="1653.5,-504.5 1653.5,-523.5 1790.5,-523.5 1790.5,-504.5 1653.5,-504.5"/>
<text text-anchor="middle" x="1722" y="-511.5" font-family="Helvetica,sans-Serif" font-size="10.00">AAX_PopStructAlignment.h</text>
</g>
<!-- Node1&#45;&gt;Node39 -->
<g id="edge93" class="edge"><title>Node1&#45;&gt;Node39</title>
<path fill="none" stroke="midnightblue" d="M1256.12,-565.435C1327.78,-557.927 1499.25,-539.871 1643,-524 1643.11,-523.988 1643.21,-523.976 1643.32,-523.964"/>
<polygon fill="midnightblue" stroke="midnightblue" points="1643.94,-527.417 1653.49,-522.834 1643.17,-520.46 1643.94,-527.417"/>
</g>
<!-- Node3 -->
<g id="node3" class="node"><title>Node3</title>
<polygon fill="white" stroke="#bfbfbf" points="665,-0.5 665,-19.5 711,-19.5 711,-0.5 665,-0.5"/>
<text text-anchor="middle" x="688" y="-7.5" font-family="Helvetica,sans-Serif" font-size="10.00">cstring</text>
</g>
<!-- Node2&#45;&gt;Node3 -->
<g id="edge2" class="edge"><title>Node2&#45;&gt;Node3</title>
<path fill="none" stroke="midnightblue" d="M188.154,-57.915C192.819,-57.2233 197.506,-56.5685 202,-56 371.411,-34.568 575.265,-18.993 654.356,-13.3346"/>
<polygon fill="midnightblue" stroke="midnightblue" points="654.944,-16.8017 664.671,-12.6024 654.448,-9.81929 654.944,-16.8017"/>
</g>
<!-- Node4 -->
<g id="node4" class="node"><title>Node4</title>
<polygon fill="white" stroke="#bfbfbf" points="406.5,-0.5 406.5,-19.5 451.5,-19.5 451.5,-0.5 406.5,-0.5"/>
<text text-anchor="middle" x="429" y="-7.5" font-family="Helvetica,sans-Serif" font-size="10.00">cstdlib</text>
</g>
<!-- Node2&#45;&gt;Node4 -->
<g id="edge3" class="edge"><title>Node2&#45;&gt;Node4</title>
<path fill="none" stroke="midnightblue" d="M188.062,-56.974C244.818,-46.1442 344.732,-27.0794 396.245,-17.25"/>
<polygon fill="midnightblue" stroke="midnightblue" points="397.006,-20.668 406.173,-15.3557 395.694,-13.7921 397.006,-20.668"/>
</g>
<!-- Node5&#45;&gt;Node2 -->
<g id="edge9" class="edge"><title>Node5&#45;&gt;Node2</title>
<path fill="none" stroke="midnightblue" d="M688.906,-511.751C555.008,-507.619 151.978,-493.204 99,-468 63.2243,-450.98 38,-442.618 38,-403 38,-403 38,-403 38,-177 38,-131.206 86.2493,-97.486 118.249,-80.1584"/>
<polygon fill="midnightblue" stroke="midnightblue" points="119.93,-83.229 127.188,-75.5104 116.701,-77.0184 119.93,-83.229"/>
</g>
<!-- Node5&#45;&gt;Node3 -->
<g id="edge5" class="edge"><title>Node5&#45;&gt;Node3</title>
<path fill="none" stroke="midnightblue" d="M775.097,-511.551C939.496,-505.461 1518,-478.654 1518,-403 1518,-403 1518,-403 1518,-121 1518,-86.6051 1505.73,-73.3013 1476,-56 1410.14,-17.6668 863.722,-11.9745 721.653,-11.1409"/>
<polygon fill="midnightblue" stroke="midnightblue" points="721.407,-7.63963 711.388,-11.0852 721.369,-14.6395 721.407,-7.63963"/>
</g>
<!-- Node6 -->
<g id="node6" class="node"><title>Node6</title>
<polygon fill="white" stroke="#bfbfbf" points="1112,-112.5 1112,-131.5 1158,-131.5 1158,-112.5 1112,-112.5"/>
<text text-anchor="middle" x="1135" y="-119.5" font-family="Helvetica,sans-Serif" font-size="10.00">cstdint</text>
</g>
<!-- Node5&#45;&gt;Node6 -->
<g id="edge6" class="edge"><title>Node5&#45;&gt;Node6</title>
<path fill="none" stroke="midnightblue" d="M775.006,-506.571C805.318,-500.448 845.737,-488.938 876,-468 1007.62,-376.937 1099.98,-197.5 1126.9,-140.687"/>
<polygon fill="midnightblue" stroke="midnightblue" points="1130.11,-142.097 1131.16,-131.555 1123.76,-139.137 1130.11,-142.097"/>
</g>
<!-- Node7 -->
<g id="node7" class="node"><title>Node7</title>
<polygon fill="white" stroke="#bfbfbf" points="579.5,-224.5 579.5,-243.5 628.5,-243.5 628.5,-224.5 579.5,-224.5"/>
<text text-anchor="middle" x="604" y="-231.5" font-family="Helvetica,sans-Serif" font-size="10.00">ptrlist.h</text>
</g>
<!-- Node5&#45;&gt;Node7 -->
<g id="edge7" class="edge"><title>Node5&#45;&gt;Node7</title>
<path fill="none" stroke="midnightblue" d="M718.463,-504.491C694.984,-489.019 646.758,-453.969 621,-412 590.099,-361.65 595.897,-287.669 600.795,-253.522"/>
<polygon fill="midnightblue" stroke="midnightblue" points="604.265,-253.984 602.367,-243.56 597.35,-252.893 604.265,-253.984"/>
</g>
<!-- Node8 -->
<g id="node8" class="node"><title>Node8</title>
<polygon fill="white" stroke="#bfbfbf" points="428,-112.5 428,-131.5 480,-131.5 480,-112.5 428,-112.5"/>
<text text-anchor="middle" x="454" y="-119.5" font-family="Helvetica,sans-Serif" font-size="10.00">mutex.h</text>
</g>
<!-- Node5&#45;&gt;Node8 -->
<g id="edge8" class="edge"><title>Node5&#45;&gt;Node8</title>
<path fill="none" stroke="midnightblue" d="M688.869,-513.207C571.082,-513.216 246.266,-509.383 149,-468 109.026,-450.992 76,-446.442 76,-403 76,-403 76,-403 76,-289 76,-140.791 322.622,-123.705 417.455,-122.613"/>
<polygon fill="midnightblue" stroke="midnightblue" points="417.741,-126.112 427.72,-122.552 417.699,-119.112 417.741,-126.112"/>
</g>
<!-- Node9 -->
<g id="node9" class="node"><title>Node9</title>
<g id="a_node9"><a xlink:href="_i_plug_plugin_base_8h.html" target="_top" xlink:title="Base class that contains plug&#45;in info and state manipulation methods. ">
<polygon fill="white" stroke="black" points="683.5,-448.5 683.5,-467.5 780.5,-467.5 780.5,-448.5 683.5,-448.5"/>
<text text-anchor="middle" x="732" y="-455.5" font-family="Helvetica,sans-Serif" font-size="10.00">IPlugPluginBase.h</text>
</a>
</g>
</g>
<!-- Node5&#45;&gt;Node9 -->
<g id="edge10" class="edge"><title>Node5&#45;&gt;Node9</title>
<path fill="none" stroke="midnightblue" d="M732,-504.083C732,-497.006 732,-486.861 732,-477.986"/>
<polygon fill="midnightblue" stroke="midnightblue" points="735.5,-477.751 732,-467.751 728.5,-477.751 735.5,-477.751"/>
</g>
<!-- Node14 -->
<g id="node14" class="node"><title>Node14</title>
<g id="a_node14"><a xlink:href="_i_plug_parameter_8h.html" target="_top" xlink:title="IPlug&#39;s parameter class. ">
<polygon fill="white" stroke="black" points="267,-280.5 267,-299.5 359,-299.5 359,-280.5 267,-280.5"/>
<text text-anchor="middle" x="313" y="-287.5" font-family="Helvetica,sans-Serif" font-size="10.00">IPlugParameter.h</text>
</a>
</g>
</g>
<!-- Node5&#45;&gt;Node14 -->
<g id="edge63" class="edge"><title>Node5&#45;&gt;Node14</title>
<path fill="none" stroke="midnightblue" d="M688.887,-509.318C646.431,-504.369 580.625,-493.085 529,-468 442.204,-425.824 359.8,-342.232 327.429,-307.123"/>
<polygon fill="midnightblue" stroke="midnightblue" points="329.953,-304.697 320.632,-299.66 324.778,-309.41 329.953,-304.697"/>
</g>
<!-- Node18 -->
<g id="node18" class="node"><title>Node18</title>
<g id="a_node18"><a xlink:href="_i_plug_utilities_8h.html" target="_top" xlink:title="Utility functions and macros. ">
<polygon fill="white" stroke="black" points="612,-112.5 612,-131.5 692,-131.5 692,-112.5 612,-112.5"/>
<text text-anchor="middle" x="652" y="-119.5" font-family="Helvetica,sans-Serif" font-size="10.00">IPlugUtilities.h</text>
</a>
</g>
</g>
<!-- Node5&#45;&gt;Node18 -->
<g id="edge62" class="edge"><title>Node5&#45;&gt;Node18</title>
<path fill="none" stroke="midnightblue" d="M769.444,-504.499C816.167,-491.417 890,-461.491 890,-403 890,-403 890,-403 890,-289 890,-263.118 736.628,-171.816 676.125,-136.806"/>
<polygon fill="midnightblue" stroke="midnightblue" points="677.661,-133.652 667.25,-131.689 674.165,-139.716 677.661,-133.652"/>
</g>
<!-- Node23 -->
<g id="node23" class="node"><title>Node23</title>
<g id="a_node23"><a xlink:href="_i_plug_constants_8h.html" target="_top" xlink:title="IPlug Constant definitions, Types, magic numbers. ">
<polygon fill="white" stroke="black" points="1350,-56.5 1350,-75.5 1442,-75.5 1442,-56.5 1350,-56.5"/>
<text text-anchor="middle" x="1396" y="-63.5" font-family="Helvetica,sans-Serif" font-size="10.00">IPlugConstants.h</text>
</a>
</g>
</g>
<!-- Node5&#45;&gt;Node23 -->
<g id="edge60" class="edge"><title>Node5&#45;&gt;Node23</title>
<path fill="none" stroke="midnightblue" d="M766.873,-504.429C801.541,-495.766 856.161,-481.732 903,-468 1153.44,-394.576 1442,-495.98 1442,-235 1442,-235 1442,-235 1442,-177 1442,-141.817 1421.72,-104.863 1408.09,-83.9988"/>
<polygon fill="midnightblue" stroke="midnightblue" points="1410.91,-81.9156 1402.4,-75.609 1405.12,-85.8481 1410.91,-81.9156"/>
</g>
<!-- Node28 -->
<g id="node28" class="node"><title>Node28</title>
<g id="a_node28"><a xlink:href="_i_plug_structs_8h_source.html" target="_top" xlink:title="IPlugStructs.h">
<polygon fill="white" stroke="black" points="706.5,-280.5 706.5,-299.5 785.5,-299.5 785.5,-280.5 706.5,-280.5"/>
<text text-anchor="middle" x="746" y="-287.5" font-family="Helvetica,sans-Serif" font-size="10.00">IPlugStructs.h</text>
</a>
</g>
</g>
<!-- Node5&#45;&gt;Node28 -->
<g id="edge61" class="edge"><title>Node5&#45;&gt;Node28</title>
<path fill="none" stroke="midnightblue" d="M750.082,-504.39C763.562,-496.872 780.972,-484.565 789,-468 815.495,-413.326 778.003,-341.024 757.644,-308.348"/>
<polygon fill="midnightblue" stroke="midnightblue" points="760.326,-306.049 751.965,-299.542 754.443,-309.843 760.326,-306.049"/>
</g>
<!-- Node29 -->
<g id="node29" class="node"><title>Node29</title>
<g id="a_node29"><a xlink:href="_i_plug_queue_8h.html" target="_top" xlink:title="A lock&#45;free SPSC queue used to transfer data between threads based on MLQueue.h by Randy Jones based ...">
<polygon fill="white" stroke="black" points="158,-448.5 158,-467.5 234,-467.5 234,-448.5 158,-448.5"/>
<text text-anchor="middle" x="196" y="-455.5" font-family="Helvetica,sans-Serif" font-size="10.00">IPlugQueue.h</text>
</a>
</g>
</g>
<!-- Node5&#45;&gt;Node29 -->
<g id="edge64" class="edge"><title>Node5&#45;&gt;Node29</title>
<path fill="none" stroke="midnightblue" d="M688.591,-508.627C589.681,-498.662 348.142,-474.328 244.516,-463.888"/>
<polygon fill="midnightblue" stroke="midnightblue" points="244.639,-460.383 234.339,-462.863 243.938,-467.347 244.639,-460.383"/>
</g>
<!-- Node31 -->
<g id="node31" class="node"><title>Node31</title>
<g id="a_node31"><a xlink:href="_i_plug_timer_8h.html" target="_top" xlink:title="This file includes classes for implementing timers &#45; in order to get a regular callback on the main t...">
<polygon fill="white" stroke="black" points="440,-280.5 440,-299.5 512,-299.5 512,-280.5 440,-280.5"/>
<text text-anchor="middle" x="476" y="-287.5" font-family="Helvetica,sans-Serif" font-size="10.00">IPlugTimer.h</text>
</a>
</g>
</g>
<!-- Node5&#45;&gt;Node31 -->
<g id="edge67" class="edge"><title>Node5&#45;&gt;Node31</title>
<path fill="none" stroke="midnightblue" d="M688.804,-512.936C648.462,-510.646 588.8,-501.255 550,-468 500.938,-425.95 483.739,-345.982 478.286,-309.716"/>
<polygon fill="midnightblue" stroke="midnightblue" points="481.723,-309.015 476.902,-299.58 474.787,-309.961 481.723,-309.015"/>
</g>
<!-- Node10 -->
<g id="node10" class="node"><title>Node10</title>
<g id="a_node10"><a xlink:href="_i_plug_delegate__select_8h.html" target="_top" xlink:title="Used for choosing an editor delegate. ">
<polygon fill="white" stroke="black" points="630,-392.5 630,-411.5 748,-411.5 748,-392.5 630,-392.5"/>
<text text-anchor="middle" x="689" y="-399.5" font-family="Helvetica,sans-Serif" font-size="10.00">IPlugDelegate_select.h</text>
</a>
</g>
</g>
<!-- Node9&#45;&gt;Node10 -->
<g id="edge11" class="edge"><title>Node9&#45;&gt;Node10</title>
<path fill="none" stroke="midnightblue" d="M724.899,-448.083C718.763,-440.377 709.73,-429.033 702.261,-419.653"/>
<polygon fill="midnightblue" stroke="midnightblue" points="704.936,-417.394 695.968,-411.751 699.46,-421.754 704.936,-417.394"/>
</g>
<!-- Node9&#45;&gt;Node14 -->
<g id="edge57" class="edge"><title>Node9&#45;&gt;Node14</title>
<path fill="none" stroke="midnightblue" d="M710.355,-448.425C641.172,-421.016 425.208,-335.455 344.153,-303.342"/>
<polygon fill="midnightblue" stroke="midnightblue" points="345.102,-299.953 334.516,-299.524 342.523,-306.461 345.102,-299.953"/>
</g>
<!-- Node25 -->
<g id="node25" class="node"><title>Node25</title>
<g id="a_node25"><a xlink:href="_i_plug_logger_8h.html" target="_top" xlink:title="IPlug logging a.k.a tracing functionality. ">
<polygon fill="white" stroke="black" points="830.5,-168.5 830.5,-187.5 907.5,-187.5 907.5,-168.5 830.5,-168.5"/>
<text text-anchor="middle" x="869" y="-175.5" font-family="Helvetica,sans-Serif" font-size="10.00">IPlugLogger.h</text>
</a>
</g>
</g>
<!-- Node9&#45;&gt;Node25 -->
<g id="edge59" class="edge"><title>Node9&#45;&gt;Node25</title>
<path fill="none" stroke="midnightblue" d="M744.812,-448.388C767.875,-431.742 814,-392.734 814,-347 814,-347 814,-347 814,-289 814,-252.569 838.433,-215.836 854.729,-195.387"/>
<polygon fill="midnightblue" stroke="midnightblue" points="857.438,-197.603 861.12,-187.668 852.046,-193.139 857.438,-197.603"/>
</g>
<!-- Node9&#45;&gt;Node28 -->
<g id="edge58" class="edge"><title>Node9&#45;&gt;Node28</title>
<path fill="none" stroke="midnightblue" d="M738.629,-448.275C744.765,-439.607 753.458,-425.669 757,-412 766.181,-376.569 757.862,-333.578 751.549,-309.554"/>
<polygon fill="midnightblue" stroke="midnightblue" points="754.848,-308.356 748.778,-299.672 748.108,-310.246 754.848,-308.356"/>
</g>
<!-- Node11 -->
<g id="node11" class="node"><title>Node11</title>
<g id="a_node11"><a xlink:href="_i_plug_editor_delegate_8h.html" target="_top" xlink:title="This pure virtual interface delegates communication in both directions between a UI editor and someth...">
<polygon fill="white" stroke="black" points="610,-336.5 610,-355.5 722,-355.5 722,-336.5 610,-336.5"/>
<text text-anchor="middle" x="666" y="-343.5" font-family="Helvetica,sans-Serif" font-size="10.00">IPlugEditorDelegate.h</text>
</a>
</g>
</g>
<!-- Node10&#45;&gt;Node11 -->
<g id="edge12" class="edge"><title>Node10&#45;&gt;Node11</title>
<path fill="none" stroke="midnightblue" d="M685.202,-392.083C682.087,-384.77 677.577,-374.181 673.711,-365.103"/>
<polygon fill="midnightblue" stroke="midnightblue" points="676.866,-363.58 669.727,-355.751 670.426,-366.323 676.866,-363.58"/>
</g>
<!-- Node11&#45;&gt;Node3 -->
<g id="edge14" class="edge"><title>Node11&#45;&gt;Node3</title>
<path fill="none" stroke="midnightblue" d="M609.725,-341.929C547.861,-337.279 454.143,-326.045 431,-300 375.388,-237.412 392.524,-191.429 419,-112 428.838,-82.4854 434.666,-72.5653 461,-56 521.576,-17.8951 607.754,-11.0308 654.579,-10.3807"/>
<polygon fill="midnightblue" stroke="midnightblue" points="654.792,-13.8798 664.774,-10.33 654.757,-6.87985 654.792,-13.8798"/>
</g>
<!-- Node11&#45;&gt;Node7 -->
<g id="edge16" class="edge"><title>Node11&#45;&gt;Node7</title>
<path fill="none" stroke="midnightblue" d="M661.135,-336.368C650.948,-318.296 627.209,-276.176 613.755,-252.307"/>
<polygon fill="midnightblue" stroke="midnightblue" points="616.802,-250.584 608.842,-243.591 610.704,-254.022 616.802,-250.584"/>
</g>
<!-- Node12 -->
<g id="node12" class="node"><title>Node12</title>
<polygon fill="white" stroke="#bfbfbf" points="968.5,-112.5 968.5,-131.5 1017.5,-131.5 1017.5,-112.5 968.5,-112.5"/>
<text text-anchor="middle" x="993" y="-119.5" font-family="Helvetica,sans-Serif" font-size="10.00">cassert</text>
</g>
<!-- Node11&#45;&gt;Node12 -->
<g id="edge13" class="edge"><title>Node11&#45;&gt;Node12</title>
<path fill="none" stroke="midnightblue" d="M701.839,-336.433C728.441,-329.139 764.98,-317.101 794,-300 872.587,-253.689 948.231,-173.64 978.798,-139.355"/>
<polygon fill="midnightblue" stroke="midnightblue" points="981.583,-141.488 985.572,-131.673 976.333,-136.858 981.583,-141.488"/>
</g>
<!-- Node13 -->
<g id="node13" class="node"><title>Node13</title>
<polygon fill="white" stroke="#bfbfbf" points="512.5,-224.5 512.5,-243.5 561.5,-243.5 561.5,-224.5 512.5,-224.5"/>
<text text-anchor="middle" x="537" y="-231.5" font-family="Helvetica,sans-Serif" font-size="10.00">stdint.h</text>
</g>
<!-- Node11&#45;&gt;Node13 -->
<g id="edge15" class="edge"><title>Node11&#45;&gt;Node13</title>
<path fill="none" stroke="midnightblue" d="M655.878,-336.368C634.024,-317.733 582.188,-273.532 554.748,-250.134"/>
<polygon fill="midnightblue" stroke="midnightblue" points="556.956,-247.417 547.075,-243.591 552.414,-252.743 556.956,-247.417"/>
</g>
<!-- Node11&#45;&gt;Node14 -->
<g id="edge17" class="edge"><title>Node11&#45;&gt;Node14</title>
<path fill="none" stroke="midnightblue" d="M610.066,-336.444C544.187,-326.366 435.382,-309.721 369.331,-299.617"/>
<polygon fill="midnightblue" stroke="midnightblue" points="369.525,-296.106 359.11,-298.054 368.466,-303.026 369.525,-296.106"/>
</g>
<!-- Node11&#45;&gt;Node24 -->
<g id="edge32" class="edge"><title>Node11&#45;&gt;Node24</title>
<path fill="none" stroke="midnightblue" d="M716.912,-336.495C757.802,-328.965 816.382,-316.59 866,-300 909.049,-285.607 956.616,-262.66 984.871,-248.233"/>
<polygon fill="midnightblue" stroke="midnightblue" points="986.737,-251.208 994.02,-243.513 983.528,-244.987 986.737,-251.208"/>
</g>
<!-- Node11&#45;&gt;Node28 -->
<g id="edge49" class="edge"><title>Node11&#45;&gt;Node28</title>
<path fill="none" stroke="midnightblue" d="M678.853,-336.324C691.216,-327.979 710.13,-315.212 724.737,-305.352"/>
<polygon fill="midnightblue" stroke="midnightblue" points="726.848,-308.15 733.179,-299.655 722.932,-302.348 726.848,-308.15"/>
</g>
<!-- Node14&#45;&gt;Node3 -->
<g id="edge19" class="edge"><title>Node14&#45;&gt;Node3</title>
<path fill="none" stroke="midnightblue" d="M296.982,-280.482C269.432,-264.537 216,-227.377 216,-179 216,-179 216,-179 216,-121 216,-30.8069 547.024,-14.5328 654.64,-11.6252"/>
<polygon fill="midnightblue" stroke="midnightblue" points="655.005,-15.1173 664.915,-11.3704 654.831,-8.11943 655.005,-15.1173"/>
</g>
<!-- Node15 -->
<g id="node15" class="node"><title>Node15</title>
<polygon fill="white" stroke="#bfbfbf" points="142,-224.5 142,-243.5 188,-243.5 188,-224.5 142,-224.5"/>
<text text-anchor="middle" x="165" y="-231.5" font-family="Helvetica,sans-Serif" font-size="10.00">atomic</text>
</g>
<!-- Node14&#45;&gt;Node15 -->
<g id="edge18" class="edge"><title>Node14&#45;&gt;Node15</title>
<path fill="none" stroke="midnightblue" d="M289.549,-280.444C264.867,-271.438 225.815,-257.189 198.023,-247.049"/>
<polygon fill="midnightblue" stroke="midnightblue" points="198.935,-243.656 188.341,-243.516 196.536,-250.232 198.935,-243.656"/>
</g>
<!-- Node16 -->
<g id="node16" class="node"><title>Node16</title>
<polygon fill="white" stroke="#bfbfbf" points="320.5,-224.5 320.5,-243.5 379.5,-243.5 379.5,-224.5 320.5,-224.5"/>
<text text-anchor="middle" x="350" y="-231.5" font-family="Helvetica,sans-Serif" font-size="10.00">functional</text>
</g>
<!-- Node14&#45;&gt;Node16 -->
<g id="edge20" class="edge"><title>Node14&#45;&gt;Node16</title>
<path fill="none" stroke="midnightblue" d="M319.11,-280.083C324.282,-272.534 331.846,-261.495 338.194,-252.23"/>
<polygon fill="midnightblue" stroke="midnightblue" points="341.239,-253.979 344.004,-243.751 335.464,-250.022 341.239,-253.979"/>
</g>
<!-- Node17 -->
<g id="node17" class="node"><title>Node17</title>
<polygon fill="white" stroke="#bfbfbf" points="470,-56.5 470,-75.5 534,-75.5 534,-56.5 470,-56.5"/>
<text text-anchor="middle" x="502" y="-63.5" font-family="Helvetica,sans-Serif" font-size="10.00">wdlstring.h</text>
</g>
<!-- Node14&#45;&gt;Node17 -->
<g id="edge21" class="edge"><title>Node14&#45;&gt;Node17</title>
<path fill="none" stroke="midnightblue" d="M308.299,-280.233C302.092,-267.404 292.847,-242.979 301,-224 333.129,-149.208 422.765,-100.872 470.747,-79.5641"/>
<polygon fill="midnightblue" stroke="midnightblue" points="472.25,-82.7275 480.039,-75.5452 469.471,-76.3027 472.25,-82.7275"/>
</g>
<!-- Node14&#45;&gt;Node18 -->
<g id="edge22" class="edge"><title>Node14&#45;&gt;Node18</title>
<path fill="none" stroke="midnightblue" d="M309.665,-280.417C305.042,-266.942 298.57,-240.645 311,-224 345.968,-177.174 515.685,-144.372 601.744,-130.459"/>
<polygon fill="midnightblue" stroke="midnightblue" points="602.485,-133.885 611.81,-128.856 601.384,-126.972 602.485,-133.885"/>
</g>
<!-- Node18&#45;&gt;Node2 -->
<g id="edge31" class="edge"><title>Node18&#45;&gt;Node2</title>
<path fill="none" stroke="midnightblue" d="M611.872,-116.718C521.025,-107.022 299.658,-83.3983 198.27,-72.5783"/>
<polygon fill="midnightblue" stroke="midnightblue" points="198.574,-69.0909 188.259,-71.5099 197.831,-76.0514 198.574,-69.0909"/>
</g>
<!-- Node18&#45;&gt;Node3 -->
<g id="edge27" class="edge"><title>Node18&#45;&gt;Node3</title>
<path fill="none" stroke="midnightblue" d="M641.688,-112.091C628.416,-99.4952 608.27,-75.8078 619,-56 626.859,-41.4915 641.649,-30.9202 655.527,-23.6843"/>
<polygon fill="midnightblue" stroke="midnightblue" points="657.384,-26.6756 664.892,-19.2002 654.361,-20.362 657.384,-26.6756"/>
</g>
<!-- Node18&#45;&gt;Node4 -->
<g id="edge26" class="edge"><title>Node18&#45;&gt;Node4</title>
<path fill="none" stroke="midnightblue" d="M639.292,-112.497C619.336,-99.3586 579.185,-73.7858 543,-56 516.219,-42.8366 484.567,-30.5904 461.419,-22.2071"/>
<polygon fill="midnightblue" stroke="midnightblue" points="462.339,-18.8191 451.744,-18.7486 459.982,-25.4106 462.339,-18.8191"/>
</g>
<!-- Node18&#45;&gt;Node17 -->
<g id="edge29" class="edge"><title>Node18&#45;&gt;Node17</title>
<path fill="none" stroke="midnightblue" d="M628.232,-112.444C603.107,-103.399 563.289,-89.064 535.1,-78.9158"/>
<polygon fill="midnightblue" stroke="midnightblue" points="536.251,-75.6106 525.657,-75.5164 533.88,-82.1968 536.251,-75.6106"/>
</g>
<!-- Node19 -->
<g id="node19" class="node"><title>Node19</title>
<polygon fill="white" stroke="#bfbfbf" points="692,-56.5 692,-75.5 748,-75.5 748,-56.5 692,-56.5"/>
<text text-anchor="middle" x="720" y="-63.5" font-family="Helvetica,sans-Serif" font-size="10.00">algorithm</text>
</g>
<!-- Node18&#45;&gt;Node19 -->
<g id="edge23" class="edge"><title>Node18&#45;&gt;Node19</title>
<path fill="none" stroke="midnightblue" d="M662.925,-112.324C673.175,-104.185 688.721,-91.8395 701.001,-82.0874"/>
<polygon fill="midnightblue" stroke="midnightblue" points="703.221,-84.7937 708.876,-75.8339 698.868,-79.3119 703.221,-84.7937"/>
</g>
<!-- Node20 -->
<g id="node20" class="node"><title>Node20</title>
<polygon fill="white" stroke="#bfbfbf" points="1096,-56.5 1096,-75.5 1140,-75.5 1140,-56.5 1096,-56.5"/>
<text text-anchor="middle" x="1118" y="-63.5" font-family="Helvetica,sans-Serif" font-size="10.00">cmath</text>
</g>
<!-- Node18&#45;&gt;Node20 -->
<g id="edge24" class="edge"><title>Node18&#45;&gt;Node20</title>
<path fill="none" stroke="midnightblue" d="M692.134,-116.349C782.974,-105.823 1002.85,-80.3436 1085.7,-70.7434"/>
<polygon fill="midnightblue" stroke="midnightblue" points="1086.25,-74.203 1095.78,-69.5751 1085.44,-67.2496 1086.25,-74.203"/>
</g>
<!-- Node21 -->
<g id="node21" class="node"><title>Node21</title>
<polygon fill="white" stroke="#bfbfbf" points="957.5,-56.5 957.5,-75.5 1000.5,-75.5 1000.5,-56.5 957.5,-56.5"/>
<text text-anchor="middle" x="979" y="-63.5" font-family="Helvetica,sans-Serif" font-size="10.00">cstdio</text>
</g>
<!-- Node18&#45;&gt;Node21 -->
<g id="edge25" class="edge"><title>Node18&#45;&gt;Node21</title>
<path fill="none" stroke="midnightblue" d="M692.097,-114.379C757.898,-103.512 887.454,-82.1176 947.309,-72.2334"/>
<polygon fill="midnightblue" stroke="midnightblue" points="948.011,-75.6649 957.307,-70.5823 946.871,-68.7585 948.011,-75.6649"/>
</g>
<!-- Node22 -->
<g id="node22" class="node"><title>Node22</title>
<polygon fill="white" stroke="#bfbfbf" points="628,-56.5 628,-75.5 674,-75.5 674,-56.5 628,-56.5"/>
<text text-anchor="middle" x="651" y="-63.5" font-family="Helvetica,sans-Serif" font-size="10.00">cctype</text>
</g>
<!-- Node18&#45;&gt;Node22 -->
<g id="edge28" class="edge"><title>Node18&#45;&gt;Node22</title>
<path fill="none" stroke="midnightblue" d="M651.835,-112.083C651.704,-105.006 651.516,-94.8611 651.352,-85.9865"/>
<polygon fill="midnightblue" stroke="midnightblue" points="654.847,-85.6845 651.162,-75.7511 647.848,-85.8142 654.847,-85.6845"/>
</g>
<!-- Node18&#45;&gt;Node23 -->
<g id="edge30" class="edge"><title>Node18&#45;&gt;Node23</title>
<path fill="none" stroke="midnightblue" d="M692.001,-118.097C816.116,-109.088 1194.97,-81.5906 1339.33,-71.1135"/>
<polygon fill="midnightblue" stroke="midnightblue" points="1339.99,-74.5743 1349.71,-70.3594 1339.49,-67.5926 1339.99,-74.5743"/>
</g>
<!-- Node24&#45;&gt;Node6 -->
<g id="edge34" class="edge"><title>Node24&#45;&gt;Node6</title>
<path fill="none" stroke="midnightblue" d="M1020.88,-224.181C1031.88,-215.213 1049.3,-200.846 1064,-188 1082.94,-171.456 1104.14,-151.905 1118.41,-138.596"/>
<polygon fill="midnightblue" stroke="midnightblue" points="1121.02,-140.941 1125.93,-131.552 1116.24,-135.83 1121.02,-140.941"/>
</g>
<!-- Node24&#45;&gt;Node12 -->
<g id="edge33" class="edge"><title>Node24&#45;&gt;Node12</title>
<path fill="none" stroke="midnightblue" d="M1007.22,-224.477C1004.42,-215.503 1000.2,-200.913 998,-188 995.384,-172.639 994.136,-155.002 993.54,-141.978"/>
<polygon fill="midnightblue" stroke="midnightblue" points="997.035,-141.758 993.168,-131.894 990.04,-142.017 997.035,-141.758"/>
</g>
<!-- Node24&#45;&gt;Node19 -->
<g id="edge36" class="edge"><title>Node24&#45;&gt;Node19</title>
<path fill="none" stroke="midnightblue" d="M1015.03,-224.421C1027.05,-202.69 1054.39,-144.875 1026,-112 991.836,-72.4444 832.676,-67.0261 758.384,-66.7001"/>
<polygon fill="midnightblue" stroke="midnightblue" points="758.068,-63.1998 748.063,-66.6855 758.058,-70.1997 758.068,-63.1998"/>
</g>
<!-- Node24&#45;&gt;Node21 -->
<g id="edge35" class="edge"><title>Node24&#45;&gt;Node21</title>
<path fill="none" stroke="midnightblue" d="M1018.84,-224.402C1038.69,-204.031 1083.28,-151.572 1060,-112 1049.26,-93.7504 1028.15,-82.371 1010.18,-75.6215"/>
<polygon fill="midnightblue" stroke="midnightblue" points="1011.19,-72.2697 1000.6,-72.3339 1008.92,-78.8907 1011.19,-72.2697"/>
</g>
<!-- Node24&#45;&gt;Node25 -->
<g id="edge37" class="edge"><title>Node24&#45;&gt;Node25</title>
<path fill="none" stroke="midnightblue" d="M987.658,-224.444C964.247,-215.478 927.264,-201.314 900.81,-191.183"/>
<polygon fill="midnightblue" stroke="midnightblue" points="901.828,-187.824 891.237,-187.516 899.324,-194.361 901.828,-187.824"/>
</g>
<!-- Node25&#45;&gt;Node3 -->
<g id="edge42" class="edge"><title>Node25&#45;&gt;Node3</title>
<path fill="none" stroke="midnightblue" d="M836.153,-168.42C816.345,-161.632 792.103,-150.197 777,-132 754.62,-105.034 776.586,-84.3596 756,-56 746.135,-42.4099 730.812,-31.7521 717.206,-24.2272"/>
<polygon fill="midnightblue" stroke="midnightblue" points="718.638,-21.0265 708.15,-19.5206 715.409,-27.2378 718.638,-21.0265"/>
</g>
<!-- Node25&#45;&gt;Node6 -->
<g id="edge41" class="edge"><title>Node25&#45;&gt;Node6</title>
<path fill="none" stroke="midnightblue" d="M907.679,-169.148C960.008,-158.525 1052.47,-139.754 1101.81,-129.738"/>
<polygon fill="midnightblue" stroke="midnightblue" points="1102.55,-133.16 1111.65,-127.74 1101.15,-126.3 1102.55,-133.16"/>
</g>
<!-- Node25&#45;&gt;Node8 -->
<g id="edge46" class="edge"><title>Node25&#45;&gt;Node8</title>
<path fill="none" stroke="midnightblue" d="M830.33,-171.968C750.48,-161.578 568.335,-137.877 490.435,-127.741"/>
<polygon fill="midnightblue" stroke="midnightblue" points="490.524,-124.223 480.156,-126.403 489.621,-131.165 490.524,-124.223"/>
</g>
<!-- Node25&#45;&gt;Node12 -->
<g id="edge44" class="edge"><title>Node25&#45;&gt;Node12</title>
<path fill="none" stroke="midnightblue" d="M888.648,-168.444C908.965,-159.596 940.903,-145.687 964.098,-135.586"/>
<polygon fill="midnightblue" stroke="midnightblue" points="965.673,-138.718 973.444,-131.516 962.878,-132.3 965.673,-138.718"/>
</g>
<!-- Node25&#45;&gt;Node17 -->
<g id="edge45" class="edge"><title>Node25&#45;&gt;Node17</title>
<path fill="none" stroke="midnightblue" d="M830.275,-175.318C777.317,-171.943 680.081,-161.871 603,-132 571.47,-119.781 539.358,-96.9604 520.053,-81.8722"/>
<polygon fill="midnightblue" stroke="midnightblue" points="522.132,-79.053 512.133,-75.5499 517.765,-84.5238 522.132,-79.053"/>
</g>
<!-- Node25&#45;&gt;Node18 -->
<g id="edge48" class="edge"><title>Node25&#45;&gt;Node18</title>
<path fill="none" stroke="midnightblue" d="M834.616,-168.444C797.078,-159.102 736.869,-144.119 695.933,-133.933"/>
<polygon fill="midnightblue" stroke="midnightblue" points="696.773,-130.535 686.223,-131.516 695.082,-137.328 696.773,-130.535"/>
</g>
<!-- Node25&#45;&gt;Node21 -->
<g id="edge38" class="edge"><title>Node25&#45;&gt;Node21</title>
<path fill="none" stroke="midnightblue" d="M875.997,-168.226C886.387,-155.387 906.745,-130.95 926,-112 936.754,-101.416 949.642,-90.4396 960.016,-81.9768"/>
<polygon fill="midnightblue" stroke="midnightblue" points="962.44,-84.5188 968.038,-75.5232 958.052,-79.0649 962.44,-84.5188"/>
</g>
<!-- Node25&#45;&gt;Node22 -->
<g id="edge39" class="edge"><title>Node25&#45;&gt;Node22</title>
<path fill="none" stroke="midnightblue" d="M868.234,-168.373C866.51,-154.346 861.028,-126.69 844,-112 790.867,-66.1637 757.09,-91.5127 684.105,-75.9872"/>
<polygon fill="midnightblue" stroke="midnightblue" points="684.566,-72.5008 674.032,-73.6387 682.976,-79.3179 684.566,-72.5008"/>
</g>
<!-- Node25&#45;&gt;Node23 -->
<g id="edge47" class="edge"><title>Node25&#45;&gt;Node23</title>
<path fill="none" stroke="midnightblue" d="M879.511,-168.331C899.292,-152.204 941.62,-118.623 959,-112 1027.22,-86.0077 1237.76,-73.7259 1339.63,-69.1837"/>
<polygon fill="midnightblue" stroke="midnightblue" points="1339.9,-72.6757 1349.74,-68.7429 1339.59,-65.6823 1339.9,-72.6757"/>
</g>
<!-- Node26 -->
<g id="node26" class="node"><title>Node26</title>
<polygon fill="white" stroke="#bfbfbf" points="786.5,-112.5 786.5,-131.5 835.5,-131.5 835.5,-112.5 786.5,-112.5"/>
<text text-anchor="middle" x="811" y="-119.5" font-family="Helvetica,sans-Serif" font-size="10.00">cstdarg</text>
</g>
<!-- Node25&#45;&gt;Node26 -->
<g id="edge40" class="edge"><title>Node25&#45;&gt;Node26</title>
<path fill="none" stroke="midnightblue" d="M859.681,-168.324C851.107,-160.341 838.188,-148.313 827.812,-138.653"/>
<polygon fill="midnightblue" stroke="midnightblue" points="830.192,-136.086 820.488,-131.834 825.422,-141.21 830.192,-136.086"/>
</g>
<!-- Node27 -->
<g id="node27" class="node"><title>Node27</title>
<polygon fill="white" stroke="#bfbfbf" points="1176.5,-112.5 1176.5,-131.5 1217.5,-131.5 1217.5,-112.5 1176.5,-112.5"/>
<text text-anchor="middle" x="1197" y="-119.5" font-family="Helvetica,sans-Serif" font-size="10.00">ctime</text>
</g>
<!-- Node25&#45;&gt;Node27 -->
<g id="edge43" class="edge"><title>Node25&#45;&gt;Node27</title>
<path fill="none" stroke="midnightblue" d="M907.9,-172.907C963.266,-166.694 1068.07,-153.501 1166.62,-131.783"/>
<polygon fill="midnightblue" stroke="midnightblue" points="1167.45,-135.184 1176.44,-129.585 1165.92,-128.353 1167.45,-135.184"/>
</g>
<!-- Node28&#45;&gt;Node2 -->
<g id="edge54" class="edge"><title>Node28&#45;&gt;Node2</title>
<path fill="none" stroke="midnightblue" d="M730.821,-280.413C715.499,-271.624 691.27,-257.395 671,-244 650.159,-230.227 512.208,-121.242 489,-112 437.297,-91.4109 280.699,-77.0488 198.172,-70.6879"/>
<polygon fill="midnightblue" stroke="midnightblue" points="198.24,-67.1831 188.004,-69.9158 197.71,-74.163 198.24,-67.1831"/>
</g>
<!-- Node28&#45;&gt;Node7 -->
<g id="edge52" class="edge"><title>Node28&#45;&gt;Node7</title>
<path fill="none" stroke="midnightblue" d="M723.5,-280.444C699.923,-271.478 662.678,-257.314 636.036,-247.183"/>
<polygon fill="midnightblue" stroke="midnightblue" points="636.986,-243.8 626.395,-243.516 634.498,-250.342 636.986,-243.8"/>
</g>
<!-- Node28&#45;&gt;Node17 -->
<g id="edge51" class="edge"><title>Node28&#45;&gt;Node17</title>
<path fill="none" stroke="midnightblue" d="M735.859,-280.112C721.49,-267.541 694.353,-243.882 671,-224 622.472,-182.683 606.971,-176.144 561,-132 544.769,-116.414 527.633,-97.183 516.036,-83.6973"/>
<polygon fill="midnightblue" stroke="midnightblue" points="518.428,-81.107 509.281,-75.761 513.098,-85.6444 518.428,-81.107"/>
</g>
<!-- Node28&#45;&gt;Node18 -->
<g id="edge56" class="edge"><title>Node28&#45;&gt;Node18</title>
<path fill="none" stroke="midnightblue" d="M740.946,-280.075C726.022,-253.719 681.943,-175.878 662.001,-140.661"/>
<polygon fill="midnightblue" stroke="midnightblue" points="664.825,-138.545 656.852,-131.568 658.734,-141.994 664.825,-138.545"/>
</g>
<!-- Node28&#45;&gt;Node19 -->
<g id="edge50" class="edge"><title>Node28&#45;&gt;Node19</title>
<path fill="none" stroke="midnightblue" d="M744.981,-280.297C741.155,-247.633 727.597,-131.866 722.22,-85.9573"/>
<polygon fill="midnightblue" stroke="midnightblue" points="725.68,-85.4087 721.04,-75.8837 718.728,-86.223 725.68,-85.4087"/>
</g>
<!-- Node28&#45;&gt;Node23 -->
<g id="edge53" class="edge"><title>Node28&#45;&gt;Node23</title>
<path fill="none" stroke="midnightblue" d="M785.63,-287.28C903.93,-281.387 1251.55,-258.323 1336,-188 1368.48,-160.954 1384.97,-112.008 1391.88,-85.4092"/>
<polygon fill="midnightblue" stroke="midnightblue" points="1395.33,-86.0497 1394.28,-75.507 1388.52,-84.4036 1395.33,-86.0497"/>
</g>
<!-- Node28&#45;&gt;Node24 -->
<g id="edge55" class="edge"><title>Node28&#45;&gt;Node24</title>
<path fill="none" stroke="midnightblue" d="M785.523,-280.916C834.373,-270.924 917.178,-253.986 967.403,-243.713"/>
<polygon fill="midnightblue" stroke="midnightblue" points="968.203,-247.122 977.298,-241.689 966.8,-240.264 968.203,-247.122"/>
</g>
<!-- Node29&#45;&gt;Node15 -->
<g id="edge65" class="edge"><title>Node29&#45;&gt;Node15</title>
<path fill="none" stroke="midnightblue" d="M186.712,-448.395C178.419,-440.025 166.856,-426.483 162,-412 143.559,-357.001 153.941,-286.886 160.669,-253.842"/>
<polygon fill="midnightblue" stroke="midnightblue" points="164.151,-254.299 162.843,-243.785 157.309,-252.82 164.151,-254.299"/>
</g>
<!-- Node30 -->
<g id="node30" class="node"><title>Node30</title>
<polygon fill="white" stroke="#bfbfbf" points="171.5,-392.5 171.5,-411.5 220.5,-411.5 220.5,-392.5 171.5,-392.5"/>
<text text-anchor="middle" x="196" y="-399.5" font-family="Helvetica,sans-Serif" font-size="10.00">cstddef</text>
</g>
<!-- Node29&#45;&gt;Node30 -->
<g id="edge66" class="edge"><title>Node29&#45;&gt;Node30</title>
<path fill="none" stroke="midnightblue" d="M196,-448.083C196,-441.006 196,-430.861 196,-421.986"/>
<polygon fill="midnightblue" stroke="midnightblue" points="199.5,-421.751 196,-411.751 192.5,-421.751 199.5,-421.751"/>
</g>
<!-- Node31&#45;&gt;Node2 -->
<g id="edge73" class="edge"><title>Node31&#45;&gt;Node2</title>
<path fill="none" stroke="midnightblue" d="M464.768,-280.363C448.192,-267.695 416.104,-243.469 388,-224 308.608,-169.001 211.499,-107.77 168.42,-80.9074"/>
<polygon fill="midnightblue" stroke="midnightblue" points="170.177,-77.8787 159.838,-75.5654 166.478,-83.8214 170.177,-77.8787"/>
</g>
<!-- Node31&#45;&gt;Node3 -->
<g id="edge68" class="edge"><title>Node31&#45;&gt;Node3</title>
<path fill="none" stroke="midnightblue" d="M512.195,-287.944C603.201,-284.904 848.741,-274.322 1051,-244 1079.26,-239.764 1284.13,-210.297 1302,-188 1379.87,-90.8403 1175.66,-63.1665 1148,-56 992.206,-15.6316 798.175,-10.8958 721.45,-10.7377"/>
<polygon fill="midnightblue" stroke="midnightblue" points="721.417,-7.23764 711.419,-10.7426 721.421,-14.2376 721.417,-7.23764"/>
</g>
<!-- Node31&#45;&gt;Node7 -->
<g id="edge71" class="edge"><title>Node31&#45;&gt;Node7</title>
<path fill="none" stroke="midnightblue" d="M496.282,-280.444C517.347,-271.557 550.517,-257.563 574.486,-247.451"/>
<polygon fill="midnightblue" stroke="midnightblue" points="575.96,-250.628 583.813,-243.516 573.239,-244.179 575.96,-250.628"/>
</g>
<!-- Node31&#45;&gt;Node8 -->
<g id="edge72" class="edge"><title>Node31&#45;&gt;Node8</title>
<path fill="none" stroke="midnightblue" d="M474.817,-280.075C471.354,-253.945 461.185,-177.211 456.462,-141.577"/>
<polygon fill="midnightblue" stroke="midnightblue" points="459.919,-141.022 455.136,-131.568 452.98,-141.941 459.919,-141.022"/>
</g>
<!-- Node31&#45;&gt;Node13 -->
<g id="edge69" class="edge"><title>Node31&#45;&gt;Node13</title>
<path fill="none" stroke="midnightblue" d="M485.801,-280.324C494.818,-272.341 508.406,-260.313 519.318,-250.653"/>
<polygon fill="midnightblue" stroke="midnightblue" points="521.853,-253.083 527.021,-243.834 517.213,-247.842 521.853,-253.083"/>
</g>
<!-- Node31&#45;&gt;Node16 -->
<g id="edge70" class="edge"><title>Node31&#45;&gt;Node16</title>
<path fill="none" stroke="midnightblue" d="M456.035,-280.444C435.391,-271.596 402.937,-257.687 379.368,-247.586"/>
<polygon fill="midnightblue" stroke="midnightblue" points="380.442,-244.239 369.872,-243.516 377.684,-250.673 380.442,-244.239"/>
</g>
<!-- Node32&#45;&gt;Node2 -->
<g id="edge79" class="edge"><title>Node32&#45;&gt;Node2</title>
<path fill="none" stroke="midnightblue" d="M1130.89,-343.745C956.532,-338.862 343.15,-320.392 258,-300 198.798,-285.822 166.096,-295.093 133,-244 100.804,-194.296 124.28,-119.456 137.981,-85.24"/>
<polygon fill="midnightblue" stroke="midnightblue" points="141.366,-86.2172 142.003,-75.6415 134.91,-83.5119 141.366,-86.2172"/>
</g>
<!-- Node32&#45;&gt;Node3 -->
<g id="edge75" class="edge"><title>Node32&#45;&gt;Node3</title>
<path fill="none" stroke="midnightblue" d="M1223.35,-345.265C1274.98,-343.648 1359.42,-335.168 1422,-300 1455.75,-281.033 1480,-273.718 1480,-235 1480,-235 1480,-235 1480,-121 1480,-89.3663 1477.02,-73.9928 1451,-56 1390.37,-14.0715 860.117,-11.0269 721.199,-10.9536"/>
<polygon fill="midnightblue" stroke="midnightblue" points="721.154,-7.45368 711.154,-10.9533 721.154,-14.4537 721.154,-7.45368"/>
</g>
<!-- Node32&#45;&gt;Node6 -->
<g id="edge76" class="edge"><title>Node32&#45;&gt;Node6</title>
<path fill="none" stroke="midnightblue" d="M1175.35,-336.297C1169.17,-303.633 1147.27,-187.866 1138.59,-141.957"/>
<polygon fill="midnightblue" stroke="midnightblue" points="1141.98,-141.059 1136.68,-131.884 1135.1,-142.36 1141.98,-141.059"/>
</g>
<!-- Node32&#45;&gt;Node7 -->
<g id="edge78" class="edge"><title>Node32&#45;&gt;Node7</title>
<path fill="none" stroke="midnightblue" d="M1130.99,-343.674C1026.84,-340.194 775.967,-328.981 697,-300 667.123,-289.035 637.916,-266.021 620.433,-250.534"/>
<polygon fill="midnightblue" stroke="midnightblue" points="622.591,-247.766 612.84,-243.621 617.879,-252.942 622.591,-247.766"/>
</g>
<!-- Node32&#45;&gt;Node18 -->
<g id="edge82" class="edge"><title>Node32&#45;&gt;Node18</title>
<path fill="none" stroke="midnightblue" d="M1158.24,-336.404C1114.12,-316.252 1000.25,-264.603 904,-224 825.143,-190.734 731.367,-153.845 683.512,-135.209"/>
<polygon fill="midnightblue" stroke="midnightblue" points="684.607,-131.88 674.019,-131.517 682.07,-138.404 684.607,-131.88"/>
</g>
<!-- Node32&#45;&gt;Node23 -->
<g id="edge80" class="edge"><title>Node32&#45;&gt;Node23</title>
<path fill="none" stroke="midnightblue" d="M1187.05,-336.406C1225.22,-303.752 1359.15,-189.157 1360,-188 1382.83,-156.9 1391.29,-111.355 1394.34,-85.9376"/>
<polygon fill="midnightblue" stroke="midnightblue" points="1397.84,-86.1085 1395.4,-75.7999 1390.88,-85.3838 1397.84,-86.1085"/>
</g>
<!-- Node32&#45;&gt;Node28 -->
<g id="edge81" class="edge"><title>Node32&#45;&gt;Node28</title>
<path fill="none" stroke="midnightblue" d="M1130.88,-339.221C1049.26,-328.996 880.09,-307.8 795.875,-297.249"/>
<polygon fill="midnightblue" stroke="midnightblue" points="796.151,-293.756 785.793,-295.986 795.28,-300.702 796.151,-293.756"/>
</g>
<!-- Node33 -->
<g id="node33" class="node"><title>Node33</title>
<polygon fill="white" stroke="#bfbfbf" points="1262,-280.5 1262,-299.5 1314,-299.5 1314,-280.5 1262,-280.5"/>
<text text-anchor="middle" x="1288" y="-287.5" font-family="Helvetica,sans-Serif" font-size="10.00">memory</text>
</g>
<!-- Node32&#45;&gt;Node33 -->
<g id="edge77" class="edge"><title>Node32&#45;&gt;Node33</title>
<path fill="none" stroke="midnightblue" d="M1194.83,-336.324C1212.72,-327.625 1240.48,-314.12 1261.05,-304.113"/>
<polygon fill="midnightblue" stroke="midnightblue" points="1262.75,-307.177 1270.21,-299.655 1259.69,-300.882 1262.75,-307.177"/>
</g>
<!-- Node34 -->
<g id="node34" class="node"><title>Node34</title>
<polygon fill="white" stroke="#bfbfbf" points="1332.5,-280.5 1332.5,-299.5 1413.5,-299.5 1413.5,-280.5 1332.5,-280.5"/>
<text text-anchor="middle" x="1373" y="-287.5" font-family="Helvetica,sans-Serif" font-size="10.00">NChanDelay.h</text>
</g>
<!-- Node32&#45;&gt;Node34 -->
<g id="edge83" class="edge"><title>Node32&#45;&gt;Node34</title>
<path fill="none" stroke="midnightblue" d="M1208.06,-336.444C1241.6,-327.201 1295.2,-312.436 1332.14,-302.257"/>
<polygon fill="midnightblue" stroke="midnightblue" points="1333.38,-305.547 1342.09,-299.516 1331.52,-298.798 1333.38,-305.547"/>
</g>
<!-- Node35 -->
<g id="node35" class="node"><title>Node35</title>
<g id="a_node35"><a xlink:href="_i_plug_processor_8cpp.html" target="_top" xlink:title="IPlugProcessor implementation. ">
<polygon fill="white" stroke="black" points="1192,-168.5 1192,-187.5 1294,-187.5 1294,-168.5 1192,-168.5"/>
<text text-anchor="middle" x="1243" y="-175.5" font-family="Helvetica,sans-Serif" font-size="10.00">IPlugProcessor.cpp</text>
</a>
</g>
</g>
<!-- Node32&#45;&gt;Node35 -->
<g id="edge84" class="edge"><title>Node32&#45;&gt;Node35</title>
<path fill="none" stroke="midnightblue" d="M1180.55,-336.075C1190.98,-309.832 1221.71,-232.545 1235.8,-197.117"/>
<polygon fill="midnightblue" stroke="midnightblue" points="1239.15,-198.154 1239.59,-187.568 1232.65,-195.567 1239.15,-198.154"/>
</g>
<!-- Node35&#45;&gt;Node12 -->
<g id="edge88" class="edge"><title>Node35&#45;&gt;Node12</title>
<path fill="none" stroke="midnightblue" d="M1203.39,-168.444C1154.87,-157.965 1073.49,-140.387 1027.46,-130.443"/>
<polygon fill="midnightblue" stroke="midnightblue" points="1028.16,-127.015 1017.65,-128.325 1026.69,-133.857 1028.16,-127.015"/>
</g>
<!-- Node35&#45;&gt;Node20 -->
<g id="edge85" class="edge"><title>Node35&#45;&gt;Node20</title>
<path fill="none" stroke="midnightblue" d="M1249.58,-168.14C1258.66,-154.756 1272.54,-129.129 1260,-112 1234.98,-77.8256 1183.86,-68.9597 1150.27,-67.007"/>
<polygon fill="midnightblue" stroke="midnightblue" points="1150.17,-63.5002 1140.03,-66.5926 1149.88,-70.4944 1150.17,-63.5002"/>
</g>
<!-- Node35&#45;&gt;Node21 -->
<g id="edge86" class="edge"><title>Node35&#45;&gt;Node21</title>
<path fill="none" stroke="midnightblue" d="M1243.45,-168.387C1243.67,-154.38 1241.91,-126.75 1226,-112 1210.36,-97.5028 1074.32,-78.8762 1011.07,-70.9032"/>
<polygon fill="midnightblue" stroke="midnightblue" points="1011.22,-67.3946 1000.87,-69.6292 1010.35,-74.3408 1011.22,-67.3946"/>
</g>
<!-- Node35&#45;&gt;Node27 -->
<g id="edge87" class="edge"><title>Node35&#45;&gt;Node27</title>
<path fill="none" stroke="midnightblue" d="M1235.4,-168.083C1228.77,-160.298 1218.98,-148.801 1210.94,-139.367"/>
<polygon fill="midnightblue" stroke="midnightblue" points="1213.6,-137.094 1204.45,-131.751 1208.27,-141.633 1213.6,-137.094"/>
</g>
</g>
</svg>
