<?xml version="1.0" encoding="UTF-8" standalone="no"?>
<!DOCTYPE svg PUBLIC "-//W3C//DTD SVG 1.1//EN"
 "http://www.w3.org/Graphics/SVG/1.1/DTD/svg11.dtd">
<!-- Generated by graphviz version 2.36.0 (20140111.2315)
 -->
<!-- Title: IPlugPaths.cpp Pages: 1 -->
<svg width="339pt" height="140pt"
 viewBox="0.00 0.00 339.00 140.00" xmlns="http://www.w3.org/2000/svg" xmlns:xlink="http://www.w3.org/1999/xlink">
<g id="graph0" class="graph" transform="scale(1 1) rotate(0) translate(4 136)">
<title>IPlugPaths.cpp</title>
<polygon fill="white" stroke="none" points="-4,4 -4,-136 335,-136 335,4 -4,4"/>
<!-- Node1 -->
<g id="node1" class="node"><title>Node1</title>
<polygon fill="#bfbfbf" stroke="black" points="119.5,-112.5 119.5,-131.5 202.5,-131.5 202.5,-112.5 119.5,-112.5"/>
<text text-anchor="middle" x="161" y="-119.5" font-family="Helvetica,sans-Serif" font-size="10.00">IPlugPaths.cpp</text>
</g>
<!-- Node2 -->
<g id="node2" class="node"><title>Node2</title>
<g id="a_node2"><a xlink:href="_i_plug_platform_8h.html" target="_top" xlink:title="Include to get consistently named preprocessor macros for different platforms and logging functionali...">
<polygon fill="white" stroke="black" points="13,-56.5 13,-75.5 97,-75.5 97,-56.5 13,-56.5"/>
<text text-anchor="middle" x="55" y="-63.5" font-family="Helvetica,sans-Serif" font-size="10.00">IPlugPlatform.h</text>
</a>
</g>
</g>
<!-- Node1&#45;&gt;Node2 -->
<g id="edge1" class="edge"><title>Node1&#45;&gt;Node2</title>
<path fill="none" stroke="midnightblue" d="M143.969,-112.324C126.97,-103.664 100.624,-90.2424 81.0074,-80.249"/>
<polygon fill="midnightblue" stroke="midnightblue" points="82.4876,-77.0752 71.9885,-75.6545 79.3101,-83.3125 82.4876,-77.0752"/>
</g>
<!-- Node5 -->
<g id="node5" class="node"><title>Node5</title>
<g id="a_node5"><a xlink:href="_i_plug_constants_8h.html" target="_top" xlink:title="IPlug Constant definitions, Types, magic numbers. ">
<polygon fill="white" stroke="black" points="115,-56.5 115,-75.5 207,-75.5 207,-56.5 115,-56.5"/>
<text text-anchor="middle" x="161" y="-63.5" font-family="Helvetica,sans-Serif" font-size="10.00">IPlugConstants.h</text>
</a>
</g>
</g>
<!-- Node1&#45;&gt;Node5 -->
<g id="edge4" class="edge"><title>Node1&#45;&gt;Node5</title>
<path fill="none" stroke="midnightblue" d="M161,-112.083C161,-105.006 161,-94.8611 161,-85.9865"/>
<polygon fill="midnightblue" stroke="midnightblue" points="164.5,-85.751 161,-75.7511 157.5,-85.7511 164.5,-85.751"/>
</g>
<!-- Node6 -->
<g id="node6" class="node"><title>Node6</title>
<g id="a_node6"><a xlink:href="_i_plug_paths_8h.html" target="_top" xlink:title="Common paths useful for plug&#45;ins. ">
<polygon fill="white" stroke="black" points="225.5,-56.5 225.5,-75.5 298.5,-75.5 298.5,-56.5 225.5,-56.5"/>
<text text-anchor="middle" x="262" y="-63.5" font-family="Helvetica,sans-Serif" font-size="10.00">IPlugPaths.h</text>
</a>
</g>
</g>
<!-- Node1&#45;&gt;Node6 -->
<g id="edge5" class="edge"><title>Node1&#45;&gt;Node6</title>
<path fill="none" stroke="midnightblue" d="M177.227,-112.324C193.351,-103.703 218.3,-90.3643 236.964,-80.3855"/>
<polygon fill="midnightblue" stroke="midnightblue" points="238.644,-83.456 245.813,-75.6545 235.344,-77.283 238.644,-83.456"/>
</g>
<!-- Node3 -->
<g id="node3" class="node"><title>Node3</title>
<polygon fill="white" stroke="#bfbfbf" points="0,-0.5 0,-19.5 46,-19.5 46,-0.5 0,-0.5"/>
<text text-anchor="middle" x="23" y="-7.5" font-family="Helvetica,sans-Serif" font-size="10.00">cstring</text>
</g>
<!-- Node2&#45;&gt;Node3 -->
<g id="edge2" class="edge"><title>Node2&#45;&gt;Node3</title>
<path fill="none" stroke="midnightblue" d="M49.7159,-56.083C45.289,-48.6127 38.8367,-37.7244 33.3821,-28.5199"/>
<polygon fill="midnightblue" stroke="midnightblue" points="36.2949,-26.5697 28.1858,-19.7511 30.2729,-30.1383 36.2949,-26.5697"/>
</g>
<!-- Node4 -->
<g id="node4" class="node"><title>Node4</title>
<polygon fill="white" stroke="#bfbfbf" points="64.5,-0.5 64.5,-19.5 109.5,-19.5 109.5,-0.5 64.5,-0.5"/>
<text text-anchor="middle" x="87" y="-7.5" font-family="Helvetica,sans-Serif" font-size="10.00">cstdlib</text>
</g>
<!-- Node2&#45;&gt;Node4 -->
<g id="edge3" class="edge"><title>Node2&#45;&gt;Node4</title>
<path fill="none" stroke="midnightblue" d="M60.2841,-56.083C64.711,-48.6127 71.1633,-37.7244 76.6179,-28.5199"/>
<polygon fill="midnightblue" stroke="midnightblue" points="79.7271,-30.1383 81.8142,-19.7511 73.7051,-26.5697 79.7271,-30.1383"/>
</g>
<!-- Node7 -->
<g id="node7" class="node"><title>Node7</title>
<polygon fill="white" stroke="#bfbfbf" points="199.5,-0.5 199.5,-19.5 248.5,-19.5 248.5,-0.5 199.5,-0.5"/>
<text text-anchor="middle" x="224" y="-7.5" font-family="Helvetica,sans-Serif" font-size="10.00">string.h</text>
</g>
<!-- Node6&#45;&gt;Node7 -->
<g id="edge6" class="edge"><title>Node6&#45;&gt;Node7</title>
<path fill="none" stroke="midnightblue" d="M255.725,-56.083C250.358,-48.4554 242.482,-37.2645 235.921,-27.9408"/>
<polygon fill="midnightblue" stroke="midnightblue" points="238.775,-25.9149 230.158,-19.7511 233.051,-29.9434 238.775,-25.9149"/>
</g>
<!-- Node8 -->
<g id="node8" class="node"><title>Node8</title>
<polygon fill="white" stroke="#bfbfbf" points="267,-0.5 267,-19.5 331,-19.5 331,-0.5 267,-0.5"/>
<text text-anchor="middle" x="299" y="-7.5" font-family="Helvetica,sans-Serif" font-size="10.00">wdlstring.h</text>
</g>
<!-- Node6&#45;&gt;Node8 -->
<g id="edge7" class="edge"><title>Node6&#45;&gt;Node8</title>
<path fill="none" stroke="midnightblue" d="M268.11,-56.083C273.282,-48.5341 280.846,-37.4948 287.194,-28.2298"/>
<polygon fill="midnightblue" stroke="midnightblue" points="290.239,-29.9787 293.004,-19.7511 284.464,-26.0221 290.239,-29.9787"/>
</g>
</g>
</svg>
