<?xml version="1.0" encoding="UTF-8" standalone="no"?>
<!DOCTYPE svg PUBLIC "-//W3C//DTD SVG 1.1//EN"
 "http://www.w3.org/Graphics/SVG/1.1/DTD/svg11.dtd">
<!-- Generated by graphviz version 2.36.0 (20140111.2315)
 -->
<!-- Title: IPlugLogger.h Pages: 1 -->
<!--zoomable 196 -->
<svg id="main" version="1.1" xmlns="http://www.w3.org/2000/svg" xmlns:xlink="http://www.w3.org/1999/xlink" xml:space="preserve" onload="init(evt)">
<style type="text/css"><![CDATA[
.edge:hover path { stroke: red; }
.edge:hover polygon { stroke: red; fill: red; }
]]></style>
<script type="text/javascript"><![CDATA[
var edges = document.getElementsByTagName('g');
if (edges && edges.length) {
  for (var i=0;i<edges.length;i++) {
    if (edges[i].id.substr(0,4)=='edge') {
      edges[i].setAttribute('class','edge');
    }
  }
}
]]></script>
        <defs>
                <circle id="rim" cx="0" cy="0" r="7"/>
                <circle id="rim2" cx="0" cy="0" r="3.5"/>
                <g id="zoomPlus">
                        <use xlink:href="#rim" fill="#404040">
                                <set attributeName="fill" to="#808080" begin="zoomplus.mouseover" end="zoomplus.mouseout"/>
                        </use>
                        <path d="M-4,0h8M0,-4v8" fill="none" stroke="white" stroke-width="1.5" pointer-events="none"/>
                </g>
                <g id="zoomMin">
                        <use xlink:href="#rim" fill="#404040">
                                <set attributeName="fill" to="#808080" begin="zoomminus.mouseover" end="zoomminus.mouseout"/>
                        </use>
                        <path d="M-4,0h8" fill="none" stroke="white" stroke-width="1.5" pointer-events="none"/>
                </g>
                <g id="dirArrow">
                        <path fill="none" stroke="white" stroke-width="1.5" d="M0,-3.0v7 M-2.5,-0.5L0,-3.0L2.5,-0.5"/>
                </g>
               <g id="resetDef">
                       <use xlink:href="#rim2" fill="#404040">
                               <set attributeName="fill" to="#808080" begin="reset.mouseover" end="reset.mouseout"/>
                       </use>
               </g>
        </defs>

<script type="text/javascript">
var viewWidth = 708;
var viewHeight = 196;
var sectionId = 'dynsection-0';
</script>
<script xlink:href="svgpan.js"/>
<svg id="graph" class="graph">
<g id="viewport">
<title>IPlugLogger.h</title>
<polygon fill="white" stroke="none" points="-4,4 -4,-192 704.087,-192 704.087,4 -4,4"/>
<!-- Node1 -->
<g id="node1" class="node"><title>Node1</title>
<polygon fill="#bfbfbf" stroke="black" points="322.587,-168.5 322.587,-187.5 399.587,-187.5 399.587,-168.5 322.587,-168.5"/>
<text text-anchor="middle" x="361.087" y="-175.5" font-family="Helvetica,sans-Serif" font-size="10.00">IPlugLogger.h</text>
</g>
<!-- Node2 -->
<g id="node2" class="node"><title>Node2</title>
<polygon fill="white" stroke="#bfbfbf" points="14.5875,-56.5 14.5875,-75.5 57.5875,-75.5 57.5875,-56.5 14.5875,-56.5"/>
<text text-anchor="middle" x="36.0875" y="-63.5" font-family="Helvetica,sans-Serif" font-size="10.00">cstdio</text>
</g>
<!-- Node1&#45;&gt;Node2 -->
<g id="edge1" class="edge"><title>Node1&#45;&gt;Node2</title>
<path fill="none" stroke="midnightblue" d="M322.575,-170.894C282.676,-163.928 218.888,-150.988 166.087,-132 127.136,-117.992 84.7242,-95.2465 59.2808,-80.7132"/>
<polygon fill="midnightblue" stroke="midnightblue" points="60.8119,-77.5556 50.4028,-75.5806 57.3084,-83.6158 60.8119,-77.5556"/>
</g>
<!-- Node3 -->
<g id="node3" class="node"><title>Node3</title>
<polygon fill="white" stroke="#bfbfbf" points="76.0875,-56.5 76.0875,-75.5 122.087,-75.5 122.087,-56.5 76.0875,-56.5"/>
<text text-anchor="middle" x="99.0875" y="-63.5" font-family="Helvetica,sans-Serif" font-size="10.00">cctype</text>
</g>
<!-- Node1&#45;&gt;Node3 -->
<g id="edge2" class="edge"><title>Node1&#45;&gt;Node3</title>
<path fill="none" stroke="midnightblue" d="M322.52,-168.794C290.545,-161.291 244.308,-148.804 206.087,-132 174.196,-117.978 140.295,-96.0347 119.402,-81.5853"/>
<polygon fill="midnightblue" stroke="midnightblue" points="121.227,-78.59 111.03,-75.7129 117.207,-84.3208 121.227,-78.59"/>
</g>
<!-- Node4 -->
<g id="node4" class="node"><title>Node4</title>
<polygon fill="white" stroke="#bfbfbf" points="389.587,-112.5 389.587,-131.5 438.587,-131.5 438.587,-112.5 389.587,-112.5"/>
<text text-anchor="middle" x="414.087" y="-119.5" font-family="Helvetica,sans-Serif" font-size="10.00">cstdarg</text>
</g>
<!-- Node1&#45;&gt;Node4 -->
<g id="edge3" class="edge"><title>Node1&#45;&gt;Node4</title>
<path fill="none" stroke="midnightblue" d="M369.839,-168.083C377.557,-160.22 388.992,-148.569 398.304,-139.081"/>
<polygon fill="midnightblue" stroke="midnightblue" points="400.992,-141.34 405.498,-131.751 395.996,-136.436 400.992,-141.34"/>
</g>
<!-- Node5 -->
<g id="node5" class="node"><title>Node5</title>
<polygon fill="white" stroke="#bfbfbf" points="457.087,-112.5 457.087,-131.5 503.087,-131.5 503.087,-112.5 457.087,-112.5"/>
<text text-anchor="middle" x="480.087" y="-119.5" font-family="Helvetica,sans-Serif" font-size="10.00">cstdint</text>
</g>
<!-- Node1&#45;&gt;Node5 -->
<g id="edge4" class="edge"><title>Node1&#45;&gt;Node5</title>
<path fill="none" stroke="midnightblue" d="M379.943,-168.444C399.353,-159.636 429.818,-145.812 452.052,-135.722"/>
<polygon fill="midnightblue" stroke="midnightblue" points="453.66,-138.836 461.32,-131.516 450.767,-132.462 453.66,-138.836"/>
</g>
<!-- Node6 -->
<g id="node6" class="node"><title>Node6</title>
<polygon fill="white" stroke="#bfbfbf" points="127.087,-0.5 127.087,-19.5 173.087,-19.5 173.087,-0.5 127.087,-0.5"/>
<text text-anchor="middle" x="150.087" y="-7.5" font-family="Helvetica,sans-Serif" font-size="10.00">cstring</text>
</g>
<!-- Node1&#45;&gt;Node6 -->
<g id="edge5" class="edge"><title>Node1&#45;&gt;Node6</title>
<path fill="none" stroke="midnightblue" d="M322.297,-172.452C237.192,-161.529 38.9598,-130.59 5.08747,-76 -21.8672,-32.5589 66.1876,-17.9498 116.866,-13.1942"/>
<polygon fill="midnightblue" stroke="midnightblue" points="117.393,-16.662 127.058,-12.3222 116.796,-9.68749 117.393,-16.662"/>
</g>
<!-- Node7 -->
<g id="node7" class="node"><title>Node7</title>
<polygon fill="white" stroke="#bfbfbf" points="521.587,-112.5 521.587,-131.5 562.587,-131.5 562.587,-112.5 521.587,-112.5"/>
<text text-anchor="middle" x="542.087" y="-119.5" font-family="Helvetica,sans-Serif" font-size="10.00">ctime</text>
</g>
<!-- Node1&#45;&gt;Node7 -->
<g id="edge6" class="edge"><title>Node1&#45;&gt;Node7</title>
<path fill="none" stroke="midnightblue" d="M389.759,-168.472C418.237,-159.999 463.403,-146.549 511.729,-132.103"/>
<polygon fill="midnightblue" stroke="midnightblue" points="512.854,-135.42 521.432,-129.202 510.849,-128.713 512.854,-135.42"/>
</g>
<!-- Node8 -->
<g id="node8" class="node"><title>Node8</title>
<polygon fill="white" stroke="#bfbfbf" points="580.587,-112.5 580.587,-131.5 629.587,-131.5 629.587,-112.5 580.587,-112.5"/>
<text text-anchor="middle" x="605.087" y="-119.5" font-family="Helvetica,sans-Serif" font-size="10.00">cassert</text>
</g>
<!-- Node1&#45;&gt;Node8 -->
<g id="edge7" class="edge"><title>Node1&#45;&gt;Node8</title>
<path fill="none" stroke="midnightblue" d="M399.917,-169.257C440.097,-161.117 504.9,-147.633 570.185,-132.127"/>
<polygon fill="midnightblue" stroke="midnightblue" points="571.327,-135.453 580.24,-129.724 569.7,-128.644 571.327,-135.453"/>
</g>
<!-- Node9 -->
<g id="node9" class="node"><title>Node9</title>
<polygon fill="white" stroke="#bfbfbf" points="454.087,-56.5 454.087,-75.5 518.087,-75.5 518.087,-56.5 454.087,-56.5"/>
<text text-anchor="middle" x="486.087" y="-63.5" font-family="Helvetica,sans-Serif" font-size="10.00">wdlstring.h</text>
</g>
<!-- Node1&#45;&gt;Node9 -->
<g id="edge8" class="edge"><title>Node1&#45;&gt;Node9</title>
<path fill="none" stroke="midnightblue" d="M355.157,-168.105C347.019,-154.676 334.73,-128.99 347.087,-112 353.011,-103.856 405.077,-88.4989 443.757,-78.0119"/>
<polygon fill="midnightblue" stroke="midnightblue" points="445.012,-81.2988 453.763,-75.3258 443.197,-74.5382 445.012,-81.2988"/>
</g>
<!-- Node10 -->
<g id="node10" class="node"><title>Node10</title>
<polygon fill="white" stroke="#bfbfbf" points="648.087,-112.5 648.087,-131.5 700.087,-131.5 700.087,-112.5 648.087,-112.5"/>
<text text-anchor="middle" x="674.087" y="-119.5" font-family="Helvetica,sans-Serif" font-size="10.00">mutex.h</text>
</g>
<!-- Node1&#45;&gt;Node10 -->
<g id="edge9" class="edge"><title>Node1&#45;&gt;Node10</title>
<path fill="none" stroke="midnightblue" d="M399.812,-171.756C451.65,-164.507 546.643,-150.422 637.847,-131.886"/>
<polygon fill="midnightblue" stroke="midnightblue" points="638.708,-135.283 647.8,-129.843 637.3,-128.426 638.708,-135.283"/>
</g>
<!-- Node11 -->
<g id="node11" class="node"><title>Node11</title>
<g id="a_node11"><a xlink:href="_i_plug_constants_8h.html" target="_top" xlink:title="IPlug Constant definitions, Types, magic numbers. ">
<polygon fill="white" stroke="black" points="536.087,-56.5 536.087,-75.5 628.087,-75.5 628.087,-56.5 536.087,-56.5"/>
<text text-anchor="middle" x="582.087" y="-63.5" font-family="Helvetica,sans-Serif" font-size="10.00">IPlugConstants.h</text>
</a>
</g>
</g>
<!-- Node1&#45;&gt;Node11 -->
<g id="edge10" class="edge"><title>Node1&#45;&gt;Node11</title>
<path fill="none" stroke="midnightblue" d="M361.139,-168.422C361.712,-154.467 364.963,-126.909 381.087,-112 391.778,-102.115 470.217,-86.5946 525.877,-76.6098"/>
<polygon fill="midnightblue" stroke="midnightblue" points="526.75,-80.0094 535.983,-74.8124 525.525,-73.1175 526.75,-80.0094"/>
</g>
<!-- Node12 -->
<g id="node12" class="node"><title>Node12</title>
<g id="a_node12"><a xlink:href="_i_plug_utilities_8h.html" target="_top" xlink:title="Utility functions and macros. ">
<polygon fill="white" stroke="black" points="215.087,-112.5 215.087,-131.5 295.087,-131.5 295.087,-112.5 215.087,-112.5"/>
<text text-anchor="middle" x="255.087" y="-119.5" font-family="Helvetica,sans-Serif" font-size="10.00">IPlugUtilities.h</text>
</a>
</g>
</g>
<!-- Node1&#45;&gt;Node12 -->
<g id="edge11" class="edge"><title>Node1&#45;&gt;Node12</title>
<path fill="none" stroke="midnightblue" d="M344.057,-168.324C327.058,-159.664 300.711,-146.242 281.095,-136.249"/>
<polygon fill="midnightblue" stroke="midnightblue" points="282.575,-133.075 272.076,-131.655 279.398,-139.312 282.575,-133.075"/>
</g>
<!-- Node12&#45;&gt;Node2 -->
<g id="edge14" class="edge"><title>Node12&#45;&gt;Node2</title>
<path fill="none" stroke="midnightblue" d="M217.145,-112.477C181.161,-104.269 125.358,-91.2224 67.7448,-76.0754"/>
<polygon fill="midnightblue" stroke="midnightblue" points="68.2937,-72.6003 57.7311,-73.4261 66.5032,-79.3675 68.2937,-72.6003"/>
</g>
<!-- Node12&#45;&gt;Node3 -->
<g id="edge17" class="edge"><title>Node12&#45;&gt;Node3</title>
<path fill="none" stroke="midnightblue" d="M230.369,-112.444C203.778,-103.239 161.362,-88.5565 131.97,-78.3826"/>
<polygon fill="midnightblue" stroke="midnightblue" points="132.76,-74.952 122.165,-74.9883 130.47,-81.5669 132.76,-74.952"/>
</g>
<!-- Node12&#45;&gt;Node6 -->
<g id="edge16" class="edge"><title>Node12&#45;&gt;Node6</title>
<path fill="none" stroke="midnightblue" d="M226.101,-112.444C207.322,-105.488 183.721,-93.8555 169.087,-76 158.267,-62.7977 153.609,-43.6635 151.604,-29.5722"/>
<polygon fill="midnightblue" stroke="midnightblue" points="155.075,-29.117 150.497,-19.5622 148.117,-29.8863 155.075,-29.117"/>
</g>
<!-- Node12&#45;&gt;Node9 -->
<g id="edge18" class="edge"><title>Node12&#45;&gt;Node9</title>
<path fill="none" stroke="midnightblue" d="M291.69,-112.444C333.03,-102.78 400.199,-87.0778 443.76,-76.8947"/>
<polygon fill="midnightblue" stroke="midnightblue" points="444.815,-80.2425 453.756,-74.558 443.222,-73.4262 444.815,-80.2425"/>
</g>
<!-- Node12&#45;&gt;Node11 -->
<g id="edge19" class="edge"><title>Node12&#45;&gt;Node11</title>
<path fill="none" stroke="midnightblue" d="M295.184,-114.379C352.976,-104.835 459.948,-87.1699 525.683,-76.3145"/>
<polygon fill="midnightblue" stroke="midnightblue" points="526.569,-79.7157 535.865,-74.6331 525.428,-72.8092 526.569,-79.7157"/>
</g>
<!-- Node13 -->
<g id="node13" class="node"><title>Node13</title>
<polygon fill="white" stroke="#bfbfbf" points="318.087,-56.5 318.087,-75.5 374.087,-75.5 374.087,-56.5 318.087,-56.5"/>
<text text-anchor="middle" x="346.087" y="-63.5" font-family="Helvetica,sans-Serif" font-size="10.00">algorithm</text>
</g>
<!-- Node12&#45;&gt;Node13 -->
<g id="edge12" class="edge"><title>Node12&#45;&gt;Node13</title>
<path fill="none" stroke="midnightblue" d="M269.708,-112.324C284.036,-103.822 306.1,-90.7288 322.836,-80.7975"/>
<polygon fill="midnightblue" stroke="midnightblue" points="324.689,-83.7677 331.503,-75.6545 321.117,-77.7478 324.689,-83.7677"/>
</g>
<!-- Node14 -->
<g id="node14" class="node"><title>Node14</title>
<polygon fill="white" stroke="#bfbfbf" points="392.087,-56.5 392.087,-75.5 436.087,-75.5 436.087,-56.5 392.087,-56.5"/>
<text text-anchor="middle" x="414.087" y="-63.5" font-family="Helvetica,sans-Serif" font-size="10.00">cmath</text>
</g>
<!-- Node12&#45;&gt;Node14 -->
<g id="edge13" class="edge"><title>Node12&#45;&gt;Node14</title>
<path fill="none" stroke="midnightblue" d="M280.281,-112.444C307.974,-103.038 352.507,-87.9142 382.511,-77.7242"/>
<polygon fill="midnightblue" stroke="midnightblue" points="383.74,-81.003 392.084,-74.473 381.489,-74.3748 383.74,-81.003"/>
</g>
<!-- Node15 -->
<g id="node15" class="node"><title>Node15</title>
<polygon fill="white" stroke="#bfbfbf" points="232.587,-0.5 232.587,-19.5 277.587,-19.5 277.587,-0.5 232.587,-0.5"/>
<text text-anchor="middle" x="255.087" y="-7.5" font-family="Helvetica,sans-Serif" font-size="10.00">cstdlib</text>
</g>
<!-- Node12&#45;&gt;Node15 -->
<g id="edge15" class="edge"><title>Node12&#45;&gt;Node15</title>
<path fill="none" stroke="midnightblue" d="M258.943,-112.249C262.645,-103.333 267.977,-89.006 270.087,-76 272.667,-60.1027 268.018,-42.2964 263.232,-29.3461"/>
<polygon fill="midnightblue" stroke="midnightblue" points="266.344,-27.7049 259.336,-19.7585 259.859,-30.3404 266.344,-27.7049"/>
</g>
<!-- Node16 -->
<g id="node16" class="node"><title>Node16</title>
<g id="a_node16"><a xlink:href="_i_plug_platform_8h.html" target="_top" xlink:title="Include to get consistently named preprocessor macros for different platforms and logging functionali...">
<polygon fill="white" stroke="black" points="178.087,-56.5 178.087,-75.5 262.087,-75.5 262.087,-56.5 178.087,-56.5"/>
<text text-anchor="middle" x="220.087" y="-63.5" font-family="Helvetica,sans-Serif" font-size="10.00">IPlugPlatform.h</text>
</a>
</g>
</g>
<!-- Node12&#45;&gt;Node16 -->
<g id="edge20" class="edge"><title>Node12&#45;&gt;Node16</title>
<path fill="none" stroke="midnightblue" d="M249.308,-112.083C244.415,-104.534 237.26,-93.4948 231.255,-84.2298"/>
<polygon fill="midnightblue" stroke="midnightblue" points="234.136,-82.239 225.759,-75.7511 228.261,-86.0463 234.136,-82.239"/>
</g>
<!-- Node16&#45;&gt;Node6 -->
<g id="edge21" class="edge"><title>Node16&#45;&gt;Node6</title>
<path fill="none" stroke="midnightblue" d="M208.841,-56.324C198.29,-48.1849 182.287,-35.8395 169.645,-26.0874"/>
<polygon fill="midnightblue" stroke="midnightblue" points="171.594,-23.1707 161.539,-19.8339 167.319,-28.7132 171.594,-23.1707"/>
</g>
<!-- Node16&#45;&gt;Node15 -->
<g id="edge22" class="edge"><title>Node16&#45;&gt;Node15</title>
<path fill="none" stroke="midnightblue" d="M225.867,-56.083C230.76,-48.5341 237.915,-37.4948 243.92,-28.2298"/>
<polygon fill="midnightblue" stroke="midnightblue" points="246.914,-30.0463 249.415,-19.7511 241.039,-26.239 246.914,-30.0463"/>
</g>
</g>
</svg>
        <g id="navigator" transform="translate(0 0)" fill="#404254">
                <rect fill="#f2f5e9" fill-opacity="0.5" stroke="#606060" stroke-width=".5" x="0" y="0" width="60" height="60"/>
                <use id="zoomplus" xlink:href="#zoomPlus" x="17" y="9" onmousedown="handleZoom(evt,'in')"/>
                <use id="zoomminus" xlink:href="#zoomMin" x="42" y="9" onmousedown="handleZoom(evt,'out')"/>
                <use id="reset" xlink:href="#resetDef" x="30" y="36" onmousedown="handleReset()"/>
                <g id="arrowUp" xlink:href="#dirArrow" transform="translate(30 24)" onmousedown="handlePan(0,-1)">
                  <use xlink:href="#rim" fill="#404040">
                        <set attributeName="fill" to="#808080" begin="arrowUp.mouseover" end="arrowUp.mouseout"/>
                  </use>
                  <path fill="none" stroke="white" stroke-width="1.5" d="M0,-3.0v7 M-2.5,-0.5L0,-3.0L2.5,-0.5"/>
                </g>
                <g id="arrowRight" xlink:href="#dirArrow" transform="rotate(90) translate(36 -43)" onmousedown="handlePan(1,0)">
                  <use xlink:href="#rim" fill="#404040">
                        <set attributeName="fill" to="#808080" begin="arrowRight.mouseover" end="arrowRight.mouseout"/>
                  </use>
                  <path fill="none" stroke="white" stroke-width="1.5" d="M0,-3.0v7 M-2.5,-0.5L0,-3.0L2.5,-0.5"/>
                </g>
                <g id="arrowDown" xlink:href="#dirArrow" transform="rotate(180) translate(-30 -48)" onmousedown="handlePan(0,1)">
                  <use xlink:href="#rim" fill="#404040">
                        <set attributeName="fill" to="#808080" begin="arrowDown.mouseover" end="arrowDown.mouseout"/>
                  </use>
                  <path fill="none" stroke="white" stroke-width="1.5" d="M0,-3.0v7 M-2.5,-0.5L0,-3.0L2.5,-0.5"/>
                </g>
                <g id="arrowLeft" xlink:href="#dirArrow" transform="rotate(270) translate(-36 17)" onmousedown="handlePan(-1,0)">
                  <use xlink:href="#rim" fill="#404040">
                        <set attributeName="fill" to="#808080" begin="arrowLeft.mouseover" end="arrowLeft.mouseout"/>
                  </use>
                  <path fill="none" stroke="white" stroke-width="1.5" d="M0,-3.0v7 M-2.5,-0.5L0,-3.0L2.5,-0.5"/>
                </g>
        </g>
        <svg viewBox="0 0 15 15" width="100%" height="30px" preserveAspectRatio="xMaxYMin meet">
         <g id="arrow_out" transform="scale(0.3 0.3)">
          <a xlink:href="_i_plug_logger_8h__incl_org.svg" target="_base">
           <rect id="button" ry="5" rx="5" y="6" x="6" height="38" width="38"
                fill="#f2f5e9" fill-opacity="0.5" stroke="#606060" stroke-width="1.0"/>
           <path id="arrow"
             d="M 11.500037,31.436501 C 11.940474,20.09759 22.043105,11.32322 32.158766,21.979434 L 37.068811,17.246167 C 37.068811,17.246167 37.088388,32 37.088388,32 L 22.160133,31.978069 C 22.160133,31.978069 26.997745,27.140456 26.997745,27.140456 C 18.528582,18.264221 13.291696,25.230495 11.500037,31.436501 z"
             style="fill:#404040;"/>
          </a>
         </g>
        </svg>
</svg>
