<?xml version="1.0" encoding="UTF-8" standalone="no"?>
<!DOCTYPE svg PUBLIC "-//W3C//DTD SVG 1.1//EN"
 "http://www.w3.org/Graphics/SVG/1.1/DTD/svg11.dtd">
<!-- Generated by graphviz version 2.36.0 (20140111.2315)
 -->
<!-- Title: IPlugTimer.h Pages: 1 -->
<svg width="388pt" height="140pt"
 viewBox="0.00 0.00 387.81 140.00" xmlns="http://www.w3.org/2000/svg" xmlns:xlink="http://www.w3.org/1999/xlink">
<g id="graph0" class="graph" transform="scale(1 1) rotate(0) translate(4 136)">
<title>IPlugTimer.h</title>
<polygon fill="white" stroke="none" points="-4,4 -4,-136 383.807,-136 383.807,4 -4,4"/>
<!-- Node1 -->
<g id="node1" class="node"><title>Node1</title>
<polygon fill="#bfbfbf" stroke="black" points="111.807,-112.5 111.807,-131.5 183.807,-131.5 183.807,-112.5 111.807,-112.5"/>
<text text-anchor="middle" x="147.807" y="-119.5" font-family="Helvetica,sans-Serif" font-size="10.00">IPlugTimer.h</text>
</g>
<!-- Node2 -->
<g id="node2" class="node"><title>Node2</title>
<polygon fill="white" stroke="#bfbfbf" points="107.807,-0.5 107.807,-19.5 153.807,-19.5 153.807,-0.5 107.807,-0.5"/>
<text text-anchor="middle" x="130.807" y="-7.5" font-family="Helvetica,sans-Serif" font-size="10.00">cstring</text>
</g>
<!-- Node1&#45;&gt;Node2 -->
<g id="edge1" class="edge"><title>Node1&#45;&gt;Node2</title>
<path fill="none" stroke="midnightblue" d="M111.603,-120.737C78.0712,-118.324 29.8675,-108.865 5.80675,-76 -20.2658,-40.3871 52.5202,-22.6846 97.7554,-15.3373"/>
<polygon fill="midnightblue" stroke="midnightblue" points="98.4096,-18.7781 107.765,-13.8053 97.3505,-11.8586 98.4096,-18.7781"/>
</g>
<!-- Node3 -->
<g id="node3" class="node"><title>Node3</title>
<polygon fill="white" stroke="#bfbfbf" points="15.3067,-56.5 15.3067,-75.5 64.3067,-75.5 64.3067,-56.5 15.3067,-56.5"/>
<text text-anchor="middle" x="39.8067" y="-63.5" font-family="Helvetica,sans-Serif" font-size="10.00">stdint.h</text>
</g>
<!-- Node1&#45;&gt;Node3 -->
<g id="edge2" class="edge"><title>Node1&#45;&gt;Node3</title>
<path fill="none" stroke="midnightblue" d="M130.455,-112.324C113.135,-103.664 86.2915,-90.2424 66.3048,-80.249"/>
<polygon fill="midnightblue" stroke="midnightblue" points="67.6253,-76.9962 57.1158,-75.6545 64.4948,-83.2572 67.6253,-76.9962"/>
</g>
<!-- Node4 -->
<g id="node4" class="node"><title>Node4</title>
<polygon fill="white" stroke="#bfbfbf" points="82.3067,-56.5 82.3067,-75.5 141.307,-75.5 141.307,-56.5 82.3067,-56.5"/>
<text text-anchor="middle" x="111.807" y="-63.5" font-family="Helvetica,sans-Serif" font-size="10.00">functional</text>
</g>
<!-- Node1&#45;&gt;Node4 -->
<g id="edge3" class="edge"><title>Node1&#45;&gt;Node4</title>
<path fill="none" stroke="midnightblue" d="M141.862,-112.083C136.829,-104.534 129.47,-93.4948 123.293,-84.2298"/>
<polygon fill="midnightblue" stroke="midnightblue" points="126.1,-82.1301 117.641,-75.7511 120.276,-86.0131 126.1,-82.1301"/>
</g>
<!-- Node5 -->
<g id="node5" class="node"><title>Node5</title>
<polygon fill="white" stroke="#bfbfbf" points="159.307,-56.5 159.307,-75.5 208.307,-75.5 208.307,-56.5 159.307,-56.5"/>
<text text-anchor="middle" x="183.807" y="-63.5" font-family="Helvetica,sans-Serif" font-size="10.00">ptrlist.h</text>
</g>
<!-- Node1&#45;&gt;Node5 -->
<g id="edge4" class="edge"><title>Node1&#45;&gt;Node5</title>
<path fill="none" stroke="midnightblue" d="M153.751,-112.083C158.784,-104.534 166.144,-93.4948 172.32,-84.2298"/>
<polygon fill="midnightblue" stroke="midnightblue" points="175.338,-86.0131 177.973,-75.7511 169.513,-82.1301 175.338,-86.0131"/>
</g>
<!-- Node6 -->
<g id="node6" class="node"><title>Node6</title>
<polygon fill="white" stroke="#bfbfbf" points="226.807,-56.5 226.807,-75.5 278.807,-75.5 278.807,-56.5 226.807,-56.5"/>
<text text-anchor="middle" x="252.807" y="-63.5" font-family="Helvetica,sans-Serif" font-size="10.00">mutex.h</text>
</g>
<!-- Node1&#45;&gt;Node6 -->
<g id="edge5" class="edge"><title>Node1&#45;&gt;Node6</title>
<path fill="none" stroke="midnightblue" d="M164.677,-112.324C181.516,-103.664 207.613,-90.2424 227.045,-80.249"/>
<polygon fill="midnightblue" stroke="midnightblue" points="228.686,-83.3405 235.979,-75.6545 225.485,-77.1155 228.686,-83.3405"/>
</g>
<!-- Node7 -->
<g id="node7" class="node"><title>Node7</title>
<g id="a_node7"><a xlink:href="_i_plug_platform_8h.html" target="_top" xlink:title="Include to get consistently named preprocessor macros for different platforms and logging functionali...">
<polygon fill="white" stroke="black" points="296.807,-56.5 296.807,-75.5 380.807,-75.5 380.807,-56.5 296.807,-56.5"/>
<text text-anchor="middle" x="338.807" y="-63.5" font-family="Helvetica,sans-Serif" font-size="10.00">IPlugPlatform.h</text>
</a>
</g>
</g>
<!-- Node1&#45;&gt;Node7 -->
<g id="edge6" class="edge"><title>Node1&#45;&gt;Node7</title>
<path fill="none" stroke="midnightblue" d="M178.071,-112.444C210.762,-103.201 262.988,-88.4356 298.99,-78.2572"/>
<polygon fill="midnightblue" stroke="midnightblue" points="300.013,-81.6051 308.684,-75.5164 298.109,-74.8691 300.013,-81.6051"/>
</g>
<!-- Node7&#45;&gt;Node2 -->
<g id="edge7" class="edge"><title>Node7&#45;&gt;Node2</title>
<path fill="none" stroke="midnightblue" d="M305.849,-56.4435C266.941,-46.3426 202.624,-29.6449 163.731,-19.5478"/>
<polygon fill="midnightblue" stroke="midnightblue" points="164.509,-16.1336 153.95,-17.0084 162.75,-22.909 164.509,-16.1336"/>
</g>
<!-- Node8 -->
<g id="node8" class="node"><title>Node8</title>
<polygon fill="white" stroke="#bfbfbf" points="316.307,-0.5 316.307,-19.5 361.307,-19.5 361.307,-0.5 316.307,-0.5"/>
<text text-anchor="middle" x="338.807" y="-7.5" font-family="Helvetica,sans-Serif" font-size="10.00">cstdlib</text>
</g>
<!-- Node7&#45;&gt;Node8 -->
<g id="edge8" class="edge"><title>Node7&#45;&gt;Node8</title>
<path fill="none" stroke="midnightblue" d="M338.807,-56.083C338.807,-49.0059 338.807,-38.8611 338.807,-29.9865"/>
<polygon fill="midnightblue" stroke="midnightblue" points="342.307,-29.751 338.807,-19.7511 335.307,-29.7511 342.307,-29.751"/>
</g>
</g>
</svg>
