<?xml version="1.0" encoding="UTF-8" standalone="no"?>
<!DOCTYPE svg PUBLIC "-//W3C//DTD SVG 1.1//EN"
 "http://www.w3.org/Graphics/SVG/1.1/DTD/svg11.dtd">
<!-- Generated by graphviz version 2.36.0 (20140111.2315)
 -->
<!-- Title: IPlugProcessor.h Pages: 1 -->
<!--zoomable 364 -->
<svg id="main" version="1.1" xmlns="http://www.w3.org/2000/svg" xmlns:xlink="http://www.w3.org/1999/xlink" xml:space="preserve" onload="init(evt)">
<style type="text/css"><![CDATA[
.edge:hover path { stroke: red; }
.edge:hover polygon { stroke: red; fill: red; }
]]></style>
<script type="text/javascript"><![CDATA[
var edges = document.getElementsByTagName('g');
if (edges && edges.length) {
  for (var i=0;i<edges.length;i++) {
    if (edges[i].id.substr(0,4)=='edge') {
      edges[i].setAttribute('class','edge');
    }
  }
}
]]></script>
        <defs>
                <circle id="rim" cx="0" cy="0" r="7"/>
                <circle id="rim2" cx="0" cy="0" r="3.5"/>
                <g id="zoomPlus">
                        <use xlink:href="#rim" fill="#404040">
                                <set attributeName="fill" to="#808080" begin="zoomplus.mouseover" end="zoomplus.mouseout"/>
                        </use>
                        <path d="M-4,0h8M0,-4v8" fill="none" stroke="white" stroke-width="1.5" pointer-events="none"/>
                </g>
                <g id="zoomMin">
                        <use xlink:href="#rim" fill="#404040">
                                <set attributeName="fill" to="#808080" begin="zoomminus.mouseover" end="zoomminus.mouseout"/>
                        </use>
                        <path d="M-4,0h8" fill="none" stroke="white" stroke-width="1.5" pointer-events="none"/>
                </g>
                <g id="dirArrow">
                        <path fill="none" stroke="white" stroke-width="1.5" d="M0,-3.0v7 M-2.5,-0.5L0,-3.0L2.5,-0.5"/>
                </g>
               <g id="resetDef">
                       <use xlink:href="#rim2" fill="#404040">
                               <set attributeName="fill" to="#808080" begin="reset.mouseover" end="reset.mouseout"/>
                       </use>
               </g>
        </defs>

<script type="text/javascript">
var viewWidth = 1253;
var viewHeight = 364;
var sectionId = 'dynsection-0';
</script>
<script xlink:href="svgpan.js"/>
<svg id="graph" class="graph">
<g id="viewport">
<title>IPlugProcessor.h</title>
<polygon fill="white" stroke="none" points="-4,4 -4,-360 1249,-360 1249,4 -4,4"/>
<!-- Node1 -->
<g id="node1" class="node"><title>Node1</title>
<polygon fill="#bfbfbf" stroke="black" points="731,-336.5 731,-355.5 823,-355.5 823,-336.5 731,-336.5"/>
<text text-anchor="middle" x="777" y="-343.5" font-family="Helvetica,sans-Serif" font-size="10.00">IPlugProcessor.h</text>
</g>
<!-- Node2 -->
<g id="node2" class="node"><title>Node2</title>
<polygon fill="white" stroke="#bfbfbf" points="518,-0.5 518,-19.5 564,-19.5 564,-0.5 518,-0.5"/>
<text text-anchor="middle" x="541" y="-7.5" font-family="Helvetica,sans-Serif" font-size="10.00">cstring</text>
</g>
<!-- Node1&#45;&gt;Node2 -->
<g id="edge1" class="edge"><title>Node1&#45;&gt;Node2</title>
<path fill="none" stroke="midnightblue" d="M730.722,-343.357C563.448,-336.811 0,-309.251 0,-235 0,-235 0,-235 0,-121 0,-16.9029 389.504,-10.2641 507.515,-10.6416"/>
<polygon fill="midnightblue" stroke="midnightblue" points="507.736,-14.1427 517.754,-10.6947 507.772,-7.14275 507.736,-14.1427"/>
</g>
<!-- Node3 -->
<g id="node3" class="node"><title>Node3</title>
<polygon fill="white" stroke="#bfbfbf" points="269,-112.5 269,-131.5 315,-131.5 315,-112.5 269,-112.5"/>
<text text-anchor="middle" x="292" y="-119.5" font-family="Helvetica,sans-Serif" font-size="10.00">cstdint</text>
</g>
<!-- Node1&#45;&gt;Node3 -->
<g id="edge2" class="edge"><title>Node1&#45;&gt;Node3</title>
<path fill="none" stroke="midnightblue" d="M730.857,-339.044C633.425,-325.684 410.836,-290.795 352,-244 318.922,-217.692 302.679,-168.444 295.963,-141.603"/>
<polygon fill="midnightblue" stroke="midnightblue" points="299.313,-140.556 293.646,-131.603 292.493,-142.135 299.313,-140.556"/>
</g>
<!-- Node4 -->
<g id="node4" class="node"><title>Node4</title>
<polygon fill="white" stroke="#bfbfbf" points="1093,-280.5 1093,-299.5 1145,-299.5 1145,-280.5 1093,-280.5"/>
<text text-anchor="middle" x="1119" y="-287.5" font-family="Helvetica,sans-Serif" font-size="10.00">memory</text>
</g>
<!-- Node1&#45;&gt;Node4 -->
<g id="edge3" class="edge"><title>Node1&#45;&gt;Node4</title>
<path fill="none" stroke="midnightblue" d="M823.223,-339.185C882.627,-331.467 988.852,-316.834 1079,-300 1080.26,-299.765 1081.54,-299.518 1082.83,-299.263"/>
<polygon fill="midnightblue" stroke="midnightblue" points="1083.73,-302.65 1092.81,-297.183 1082.3,-295.798 1083.73,-302.65"/>
</g>
<!-- Node5 -->
<g id="node5" class="node"><title>Node5</title>
<polygon fill="white" stroke="#bfbfbf" points="987.5,-224.5 987.5,-243.5 1036.5,-243.5 1036.5,-224.5 987.5,-224.5"/>
<text text-anchor="middle" x="1012" y="-231.5" font-family="Helvetica,sans-Serif" font-size="10.00">ptrlist.h</text>
</g>
<!-- Node1&#45;&gt;Node5 -->
<g id="edge4" class="edge"><title>Node1&#45;&gt;Node5</title>
<path fill="none" stroke="midnightblue" d="M800.24,-336.339C822.895,-327.719 858.191,-313.815 888,-300 923.238,-283.669 962.797,-262.401 987.553,-248.722"/>
<polygon fill="midnightblue" stroke="midnightblue" points="989.543,-251.62 996.585,-243.705 986.144,-245.501 989.543,-251.62"/>
</g>
<!-- Node6 -->
<g id="node6" class="node"><title>Node6</title>
<g id="a_node6"><a xlink:href="_i_plug_platform_8h.html" target="_top" xlink:title="Include to get consistently named preprocessor macros for different platforms and logging functionali...">
<polygon fill="white" stroke="black" points="923,-56.5 923,-75.5 1007,-75.5 1007,-56.5 923,-56.5"/>
<text text-anchor="middle" x="965" y="-63.5" font-family="Helvetica,sans-Serif" font-size="10.00">IPlugPlatform.h</text>
</a>
</g>
</g>
<!-- Node1&#45;&gt;Node6 -->
<g id="edge5" class="edge"><title>Node1&#45;&gt;Node6</title>
<path fill="none" stroke="midnightblue" d="M823.272,-337.212C904.683,-322.189 1065,-286.114 1065,-235 1065,-235 1065,-235 1065,-177 1065,-132.984 1020.62,-98.7956 990.99,-80.875"/>
<polygon fill="midnightblue" stroke="midnightblue" points="992.369,-77.6286 981.964,-75.6363 988.856,-83.683 992.369,-77.6286"/>
</g>
<!-- Node8 -->
<g id="node8" class="node"><title>Node8</title>
<g id="a_node8"><a xlink:href="_i_plug_constants_8h.html" target="_top" xlink:title="IPlug Constant definitions, Types, magic numbers. ">
<polygon fill="white" stroke="black" points="581,-56.5 581,-75.5 673,-75.5 673,-56.5 581,-56.5"/>
<text text-anchor="middle" x="627" y="-63.5" font-family="Helvetica,sans-Serif" font-size="10.00">IPlugConstants.h</text>
</a>
</g>
</g>
<!-- Node1&#45;&gt;Node8 -->
<g id="edge8" class="edge"><title>Node1&#45;&gt;Node8</title>
<path fill="none" stroke="midnightblue" d="M745.754,-336.415C703.403,-322.655 633,-291.313 633,-235 633,-235 633,-235 633,-177 633,-144.9 630.421,-107.61 628.645,-85.7319"/>
<polygon fill="midnightblue" stroke="midnightblue" points="632.114,-85.2189 627.784,-75.5491 625.139,-85.8083 632.114,-85.2189"/>
</g>
<!-- Node9 -->
<g id="node9" class="node"><title>Node9</title>
<g id="a_node9"><a xlink:href="_i_plug_structs_8h_source.html" target="_top" xlink:title="IPlugStructs.h">
<polygon fill="white" stroke="black" points="800.5,-280.5 800.5,-299.5 879.5,-299.5 879.5,-280.5 800.5,-280.5"/>
<text text-anchor="middle" x="840" y="-287.5" font-family="Helvetica,sans-Serif" font-size="10.00">IPlugStructs.h</text>
</a>
</g>
</g>
<!-- Node1&#45;&gt;Node9 -->
<g id="edge9" class="edge"><title>Node1&#45;&gt;Node9</title>
<path fill="none" stroke="midnightblue" d="M787.122,-336.324C796.526,-328.263 810.744,-316.077 822.069,-306.369"/>
<polygon fill="midnightblue" stroke="midnightblue" points="824.379,-308.999 829.694,-299.834 819.823,-303.684 824.379,-308.999"/>
</g>
<!-- Node20 -->
<g id="node20" class="node"><title>Node20</title>
<g id="a_node20"><a xlink:href="_i_plug_utilities_8h.html" target="_top" xlink:title="Utility functions and macros. ">
<polygon fill="white" stroke="black" points="699,-112.5 699,-131.5 779,-131.5 779,-112.5 699,-112.5"/>
<text text-anchor="middle" x="739" y="-119.5" font-family="Helvetica,sans-Serif" font-size="10.00">IPlugUtilities.h</text>
</a>
</g>
</g>
<!-- Node1&#45;&gt;Node20 -->
<g id="edge42" class="edge"><title>Node1&#45;&gt;Node20</title>
<path fill="none" stroke="midnightblue" d="M775.51,-336.297C769.919,-303.633 750.103,-187.866 742.245,-141.957"/>
<polygon fill="midnightblue" stroke="midnightblue" points="745.658,-141.15 740.521,-131.884 738.758,-142.331 745.658,-141.15"/>
</g>
<!-- Node22 -->
<g id="node22" class="node"><title>Node22</title>
<polygon fill="white" stroke="#bfbfbf" points="1163.5,-280.5 1163.5,-299.5 1244.5,-299.5 1244.5,-280.5 1163.5,-280.5"/>
<text text-anchor="middle" x="1204" y="-287.5" font-family="Helvetica,sans-Serif" font-size="10.00">NChanDelay.h</text>
</g>
<!-- Node1&#45;&gt;Node22 -->
<g id="edge43" class="edge"><title>Node1&#45;&gt;Node22</title>
<path fill="none" stroke="midnightblue" d="M823.257,-340.372C892.595,-333.237 1027.82,-318.568 1153.21,-300.035"/>
<polygon fill="midnightblue" stroke="midnightblue" points="1154,-303.456 1163.37,-298.521 1152.97,-296.532 1154,-303.456"/>
</g>
<!-- Node23 -->
<g id="node23" class="node"><title>Node23</title>
<g id="a_node23"><a xlink:href="_i_plug_processor_8cpp.html" target="_top" xlink:title="IPlugProcessor implementation. ">
<polygon fill="white" stroke="black" points="112,-168.5 112,-187.5 214,-187.5 214,-168.5 112,-168.5"/>
<text text-anchor="middle" x="163" y="-175.5" font-family="Helvetica,sans-Serif" font-size="10.00">IPlugProcessor.cpp</text>
</a>
</g>
</g>
<!-- Node1&#45;&gt;Node23 -->
<g id="edge44" class="edge"><title>Node1&#45;&gt;Node23</title>
<path fill="none" stroke="midnightblue" d="M730.696,-345.21C621.283,-345.025 349.965,-340.381 270,-300 223.852,-276.696 188.679,-224.204 172.607,-196.649"/>
<polygon fill="midnightblue" stroke="midnightblue" points="175.531,-194.711 167.565,-187.726 169.437,-198.154 175.531,-194.711"/>
</g>
<!-- Node6&#45;&gt;Node2 -->
<g id="edge6" class="edge"><title>Node6&#45;&gt;Node2</title>
<path fill="none" stroke="midnightblue" d="M922.743,-57.5009C919.45,-56.973 916.173,-56.4661 913,-56 788.318,-37.6812 639.324,-21.3192 574.204,-14.4419"/>
<polygon fill="midnightblue" stroke="midnightblue" points="574.438,-10.9473 564.127,-13.3828 573.706,-17.909 574.438,-10.9473"/>
</g>
<!-- Node7 -->
<g id="node7" class="node"><title>Node7</title>
<polygon fill="white" stroke="#bfbfbf" points="829.5,-0.5 829.5,-19.5 874.5,-19.5 874.5,-0.5 829.5,-0.5"/>
<text text-anchor="middle" x="852" y="-7.5" font-family="Helvetica,sans-Serif" font-size="10.00">cstdlib</text>
</g>
<!-- Node6&#45;&gt;Node7 -->
<g id="edge7" class="edge"><title>Node6&#45;&gt;Node7</title>
<path fill="none" stroke="midnightblue" d="M947.095,-56.4435C928.746,-47.6751 899.995,-33.9355 878.906,-23.8579"/>
<polygon fill="midnightblue" stroke="midnightblue" points="880.353,-20.6703 869.821,-19.5164 877.335,-26.9862 880.353,-20.6703"/>
</g>
<!-- Node9&#45;&gt;Node5 -->
<g id="edge12" class="edge"><title>Node9&#45;&gt;Node5</title>
<path fill="none" stroke="midnightblue" d="M867.254,-280.444C897.085,-271.078 944.979,-256.042 977.43,-245.853"/>
<polygon fill="midnightblue" stroke="midnightblue" points="978.889,-249.064 987.382,-242.729 976.792,-242.385 978.889,-249.064"/>
</g>
<!-- Node9&#45;&gt;Node6 -->
<g id="edge14" class="edge"><title>Node9&#45;&gt;Node6</title>
<path fill="none" stroke="midnightblue" d="M863.919,-280.464C880.832,-273.247 902.768,-261.293 916,-244 953.079,-195.541 962.104,-120.624 964.298,-85.8835"/>
<polygon fill="midnightblue" stroke="midnightblue" points="967.801,-85.9025 964.81,-75.7385 960.81,-85.5491 967.801,-85.9025"/>
</g>
<!-- Node9&#45;&gt;Node8 -->
<g id="edge13" class="edge"><title>Node9&#45;&gt;Node8</title>
<path fill="none" stroke="midnightblue" d="M831.65,-280.297C799.646,-246.94 684.494,-126.923 642.481,-83.1349"/>
<polygon fill="midnightblue" stroke="midnightblue" points="644.972,-80.6764 635.524,-75.8837 639.921,-85.5228 644.972,-80.6764"/>
</g>
<!-- Node10 -->
<g id="node10" class="node"><title>Node10</title>
<polygon fill="white" stroke="#bfbfbf" points="849,-56.5 849,-75.5 905,-75.5 905,-56.5 849,-56.5"/>
<text text-anchor="middle" x="877" y="-63.5" font-family="Helvetica,sans-Serif" font-size="10.00">algorithm</text>
</g>
<!-- Node9&#45;&gt;Node10 -->
<g id="edge10" class="edge"><title>Node9&#45;&gt;Node10</title>
<path fill="none" stroke="midnightblue" d="M858.082,-280.39C871.562,-272.872 888.972,-260.565 897,-244 922.584,-191.206 909.179,-169.389 897,-112 895.003,-102.591 890.899,-92.7618 886.925,-84.6981"/>
<polygon fill="midnightblue" stroke="midnightblue" points="889.887,-82.8101 882.13,-75.5932 883.693,-86.0721 889.887,-82.8101"/>
</g>
<!-- Node11 -->
<g id="node11" class="node"><title>Node11</title>
<polygon fill="white" stroke="#bfbfbf" points="767,-56.5 767,-75.5 831,-75.5 831,-56.5 767,-56.5"/>
<text text-anchor="middle" x="799" y="-63.5" font-family="Helvetica,sans-Serif" font-size="10.00">wdlstring.h</text>
</g>
<!-- Node9&#45;&gt;Node11 -->
<g id="edge11" class="edge"><title>Node9&#45;&gt;Node11</title>
<path fill="none" stroke="midnightblue" d="M838.46,-280.149C833.941,-254.257 820.264,-176.42 808,-112 806.34,-103.283 804.421,-93.6335 802.783,-85.5126"/>
<polygon fill="midnightblue" stroke="midnightblue" points="806.194,-84.7206 800.773,-75.6175 799.334,-86.1141 806.194,-84.7206"/>
</g>
<!-- Node12 -->
<g id="node12" class="node"><title>Node12</title>
<g id="a_node12"><a xlink:href="_i_plug_midi_8h.html" target="_top" xlink:title="MIDI and sysex structs/utilites. ">
<polygon fill="white" stroke="black" points="361.5,-224.5 361.5,-243.5 426.5,-243.5 426.5,-224.5 361.5,-224.5"/>
<text text-anchor="middle" x="394" y="-231.5" font-family="Helvetica,sans-Serif" font-size="10.00">IPlugMidi.h</text>
</a>
</g>
</g>
<!-- Node9&#45;&gt;Node12 -->
<g id="edge15" class="edge"><title>Node9&#45;&gt;Node12</title>
<path fill="none" stroke="midnightblue" d="M800.42,-284.208C716.837,-274.088 522.949,-250.613 436.698,-240.17"/>
<polygon fill="midnightblue" stroke="midnightblue" points="437.076,-236.69 426.728,-238.963 436.234,-243.639 437.076,-236.69"/>
</g>
<!-- Node9&#45;&gt;Node20 -->
<g id="edge41" class="edge"><title>Node9&#45;&gt;Node20</title>
<path fill="none" stroke="midnightblue" d="M834.57,-280.075C818.465,-253.606 770.766,-175.209 749.471,-140.21"/>
<polygon fill="midnightblue" stroke="midnightblue" points="752.401,-138.292 744.213,-131.568 746.421,-141.93 752.401,-138.292"/>
</g>
<!-- Node12&#45;&gt;Node3 -->
<g id="edge17" class="edge"><title>Node12&#45;&gt;Node3</title>
<path fill="none" stroke="midnightblue" d="M386.613,-224.475C375.708,-211.947 354.584,-187.894 336,-168 326.749,-158.097 316.134,-147.226 307.648,-138.651"/>
<polygon fill="midnightblue" stroke="midnightblue" points="310.085,-136.139 300.553,-131.514 305.121,-141.074 310.085,-136.139"/>
</g>
<!-- Node12&#45;&gt;Node10 -->
<g id="edge19" class="edge"><title>Node12&#45;&gt;Node10</title>
<path fill="none" stroke="midnightblue" d="M426.642,-230.704C499.322,-224.425 678.29,-202.427 808,-132 830.488,-119.79 851.112,-98.4341 863.842,-83.5461"/>
<polygon fill="midnightblue" stroke="midnightblue" points="866.7,-85.5816 870.378,-75.6458 861.307,-81.1192 866.7,-85.5816"/>
</g>
<!-- Node13 -->
<g id="node13" class="node"><title>Node13</title>
<polygon fill="white" stroke="#bfbfbf" points="201.5,-112.5 201.5,-131.5 250.5,-131.5 250.5,-112.5 201.5,-112.5"/>
<text text-anchor="middle" x="226" y="-119.5" font-family="Helvetica,sans-Serif" font-size="10.00">cassert</text>
</g>
<!-- Node12&#45;&gt;Node13 -->
<g id="edge16" class="edge"><title>Node12&#45;&gt;Node13</title>
<path fill="none" stroke="midnightblue" d="M380.817,-224.368C351.988,-205.492 283.097,-160.385 247.743,-137.237"/>
<polygon fill="midnightblue" stroke="midnightblue" points="249.405,-134.141 239.121,-131.591 245.57,-139.997 249.405,-134.141"/>
</g>
<!-- Node14 -->
<g id="node14" class="node"><title>Node14</title>
<polygon fill="white" stroke="#bfbfbf" points="103.5,-56.5 103.5,-75.5 146.5,-75.5 146.5,-56.5 103.5,-56.5"/>
<text text-anchor="middle" x="125" y="-63.5" font-family="Helvetica,sans-Serif" font-size="10.00">cstdio</text>
</g>
<!-- Node12&#45;&gt;Node14 -->
<g id="edge18" class="edge"><title>Node12&#45;&gt;Node14</title>
<path fill="none" stroke="midnightblue" d="M361.273,-232.557C293.092,-230.926 139.155,-223.323 103,-188 78.6308,-164.192 82.6371,-144.455 93,-112 96.3406,-101.538 103.1,-91.4277 109.549,-83.4496"/>
<polygon fill="midnightblue" stroke="midnightblue" points="112.348,-85.5641 116.249,-75.7136 107.056,-80.9815 112.348,-85.5641"/>
</g>
<!-- Node15 -->
<g id="node15" class="node"><title>Node15</title>
<g id="a_node15"><a xlink:href="_i_plug_logger_8h.html" target="_top" xlink:title="IPlug logging a.k.a tracing functionality. ">
<polygon fill="white" stroke="black" points="388.5,-168.5 388.5,-187.5 465.5,-187.5 465.5,-168.5 388.5,-168.5"/>
<text text-anchor="middle" x="427" y="-175.5" font-family="Helvetica,sans-Serif" font-size="10.00">IPlugLogger.h</text>
</a>
</g>
</g>
<!-- Node12&#45;&gt;Node15 -->
<g id="edge20" class="edge"><title>Node12&#45;&gt;Node15</title>
<path fill="none" stroke="midnightblue" d="M399.449,-224.083C404.014,-216.613 410.668,-205.724 416.293,-196.52"/>
<polygon fill="midnightblue" stroke="midnightblue" points="419.424,-198.109 421.652,-187.751 413.451,-194.459 419.424,-198.109"/>
</g>
<!-- Node15&#45;&gt;Node2 -->
<g id="edge25" class="edge"><title>Node15&#45;&gt;Node2</title>
<path fill="none" stroke="midnightblue" d="M426.269,-168.408C424.912,-146.646 424.448,-88.7648 454,-56 468.511,-39.9118 490.127,-28.6913 508.182,-21.4782"/>
<polygon fill="midnightblue" stroke="midnightblue" points="509.645,-24.6676 517.778,-17.8777 507.186,-18.1137 509.645,-24.6676"/>
</g>
<!-- Node15&#45;&gt;Node3 -->
<g id="edge24" class="edge"><title>Node15&#45;&gt;Node3</title>
<path fill="none" stroke="midnightblue" d="M405.609,-168.444C383.293,-159.517 348.097,-145.439 322.792,-135.317"/>
<polygon fill="midnightblue" stroke="midnightblue" points="323.876,-131.981 313.291,-131.516 321.276,-138.48 323.876,-131.981"/>
</g>
<!-- Node15&#45;&gt;Node8 -->
<g id="edge30" class="edge"><title>Node15&#45;&gt;Node8</title>
<path fill="none" stroke="midnightblue" d="M431.145,-168.442C438.328,-154.515 454.414,-126.998 476,-112 504.054,-92.5076 540.671,-81.3242 570.82,-74.9817"/>
<polygon fill="midnightblue" stroke="midnightblue" points="571.645,-78.3865 580.775,-73.0114 570.286,-71.5197 571.645,-78.3865"/>
</g>
<!-- Node15&#45;&gt;Node11 -->
<g id="edge28" class="edge"><title>Node15&#45;&gt;Node11</title>
<path fill="none" stroke="midnightblue" d="M465.664,-174.762C554.037,-169.285 764.989,-154.029 788,-132 800.254,-120.269 802.006,-100.333 801.309,-85.6254"/>
<polygon fill="midnightblue" stroke="midnightblue" points="804.792,-85.2762 800.432,-75.62 797.818,-85.8875 804.792,-85.2762"/>
</g>
<!-- Node15&#45;&gt;Node13 -->
<g id="edge27" class="edge"><title>Node15&#45;&gt;Node13</title>
<path fill="none" stroke="midnightblue" d="M395.151,-168.444C358.523,-158.603 298.589,-142.502 260.772,-132.342"/>
<polygon fill="midnightblue" stroke="midnightblue" points="261.296,-128.858 250.73,-129.644 259.479,-135.619 261.296,-128.858"/>
</g>
<!-- Node15&#45;&gt;Node14 -->
<g id="edge21" class="edge"><title>Node15&#45;&gt;Node14</title>
<path fill="none" stroke="midnightblue" d="M416.259,-168.454C398.244,-154.543 360.336,-127.05 324,-112 267.524,-88.6086 196.756,-76.3046 156.631,-70.7695"/>
<polygon fill="midnightblue" stroke="midnightblue" points="157.014,-67.2897 146.641,-69.4447 156.094,-74.2289 157.014,-67.2897"/>
</g>
<!-- Node16 -->
<g id="node16" class="node"><title>Node16</title>
<polygon fill="white" stroke="#bfbfbf" points="463,-56.5 463,-75.5 509,-75.5 509,-56.5 463,-56.5"/>
<text text-anchor="middle" x="486" y="-63.5" font-family="Helvetica,sans-Serif" font-size="10.00">cctype</text>
</g>
<!-- Node15&#45;&gt;Node16 -->
<g id="edge22" class="edge"><title>Node15&#45;&gt;Node16</title>
<path fill="none" stroke="midnightblue" d="M427.687,-168.494C429.029,-155.572 432.822,-130.542 443,-112 449.068,-100.945 458.54,-90.6178 467.051,-82.6518"/>
<polygon fill="midnightblue" stroke="midnightblue" points="469.622,-85.0492 474.774,-75.7913 464.974,-79.8158 469.622,-85.0492"/>
</g>
<!-- Node17 -->
<g id="node17" class="node"><title>Node17</title>
<polygon fill="white" stroke="#bfbfbf" points="485.5,-112.5 485.5,-131.5 534.5,-131.5 534.5,-112.5 485.5,-112.5"/>
<text text-anchor="middle" x="510" y="-119.5" font-family="Helvetica,sans-Serif" font-size="10.00">cstdarg</text>
</g>
<!-- Node15&#45;&gt;Node17 -->
<g id="edge23" class="edge"><title>Node15&#45;&gt;Node17</title>
<path fill="none" stroke="midnightblue" d="M440.335,-168.324C453.162,-159.979 472.785,-147.212 487.94,-137.352"/>
<polygon fill="midnightblue" stroke="midnightblue" points="490.224,-140.042 496.698,-131.655 486.407,-134.174 490.224,-140.042"/>
</g>
<!-- Node18 -->
<g id="node18" class="node"><title>Node18</title>
<polygon fill="white" stroke="#bfbfbf" points="142.5,-112.5 142.5,-131.5 183.5,-131.5 183.5,-112.5 142.5,-112.5"/>
<text text-anchor="middle" x="163" y="-119.5" font-family="Helvetica,sans-Serif" font-size="10.00">ctime</text>
</g>
<!-- Node15&#45;&gt;Node18 -->
<g id="edge26" class="edge"><title>Node15&#45;&gt;Node18</title>
<path fill="none" stroke="midnightblue" d="M388.451,-170.977C343.669,-163.683 267.418,-150.343 193.46,-132.156"/>
<polygon fill="midnightblue" stroke="midnightblue" points="194.065,-128.7 183.515,-129.678 192.372,-135.492 194.065,-128.7"/>
</g>
<!-- Node19 -->
<g id="node19" class="node"><title>Node19</title>
<polygon fill="white" stroke="#bfbfbf" points="553,-112.5 553,-131.5 605,-131.5 605,-112.5 553,-112.5"/>
<text text-anchor="middle" x="579" y="-119.5" font-family="Helvetica,sans-Serif" font-size="10.00">mutex.h</text>
</g>
<!-- Node15&#45;&gt;Node19 -->
<g id="edge29" class="edge"><title>Node15&#45;&gt;Node19</title>
<path fill="none" stroke="midnightblue" d="M451.085,-168.444C476.545,-159.399 516.894,-145.064 545.459,-134.916"/>
<polygon fill="midnightblue" stroke="midnightblue" points="546.777,-138.162 555.028,-131.516 544.433,-131.566 546.777,-138.162"/>
</g>
<!-- Node15&#45;&gt;Node20 -->
<g id="edge31" class="edge"><title>Node15&#45;&gt;Node20</title>
<path fill="none" stroke="midnightblue" d="M465.57,-170.324C521.787,-160.595 626.294,-142.507 688.554,-131.731"/>
<polygon fill="midnightblue" stroke="midnightblue" points="689.287,-135.156 698.544,-130.002 688.093,-128.259 689.287,-135.156"/>
</g>
<!-- Node20&#45;&gt;Node2 -->
<g id="edge36" class="edge"><title>Node20&#45;&gt;Node2</title>
<path fill="none" stroke="midnightblue" d="M733.492,-112.058C724.441,-98.0911 705.102,-71.1324 682,-56 648.736,-34.211 604.163,-22.3209 574.11,-16.3241"/>
<polygon fill="midnightblue" stroke="midnightblue" points="574.603,-12.8555 564.127,-14.4422 573.306,-19.7343 574.603,-12.8555"/>
</g>
<!-- Node20&#45;&gt;Node6 -->
<g id="edge40" class="edge"><title>Node20&#45;&gt;Node6</title>
<path fill="none" stroke="midnightblue" d="M774.81,-112.444C813.988,-103.083 876.877,-88.0561 919.515,-77.868"/>
<polygon fill="midnightblue" stroke="midnightblue" points="920.444,-81.2446 929.357,-75.5164 918.818,-74.4363 920.444,-81.2446"/>
</g>
<!-- Node20&#45;&gt;Node7 -->
<g id="edge35" class="edge"><title>Node20&#45;&gt;Node7</title>
<path fill="none" stroke="midnightblue" d="M739.339,-112.379C740.305,-98.8519 743.992,-72.4849 758,-56 773.836,-37.3642 799.154,-25.8627 819.526,-19.1569"/>
<polygon fill="midnightblue" stroke="midnightblue" points="820.815,-22.423 829.359,-16.1575 818.773,-15.7276 820.815,-22.423"/>
</g>
<!-- Node20&#45;&gt;Node8 -->
<g id="edge39" class="edge"><title>Node20&#45;&gt;Node8</title>
<path fill="none" stroke="midnightblue" d="M721.005,-112.324C702.962,-103.625 674.953,-90.1202 654.197,-80.113"/>
<polygon fill="midnightblue" stroke="midnightblue" points="655.478,-76.8449 644.95,-75.6545 652.438,-83.1502 655.478,-76.8449"/>
</g>
<!-- Node20&#45;&gt;Node10 -->
<g id="edge32" class="edge"><title>Node20&#45;&gt;Node10</title>
<path fill="none" stroke="midnightblue" d="M760.867,-112.444C783.779,-103.478 819.975,-89.314 845.866,-79.1827"/>
<polygon fill="midnightblue" stroke="midnightblue" points="847.199,-82.4198 855.236,-75.5164 844.648,-75.9011 847.199,-82.4198"/>
</g>
<!-- Node20&#45;&gt;Node11 -->
<g id="edge38" class="edge"><title>Node20&#45;&gt;Node11</title>
<path fill="none" stroke="midnightblue" d="M748.64,-112.324C757.51,-104.341 770.875,-92.3128 781.608,-82.6529"/>
<polygon fill="midnightblue" stroke="midnightblue" points="784.093,-85.1251 789.185,-75.8339 779.41,-79.922 784.093,-85.1251"/>
</g>
<!-- Node20&#45;&gt;Node14 -->
<g id="edge34" class="edge"><title>Node20&#45;&gt;Node14</title>
<path fill="none" stroke="midnightblue" d="M698.714,-117.457C584.435,-107.406 259.822,-78.8573 156.793,-69.7961"/>
<polygon fill="midnightblue" stroke="midnightblue" points="156.974,-66.2986 146.706,-68.909 156.361,-73.2717 156.974,-66.2986"/>
</g>
<!-- Node20&#45;&gt;Node16 -->
<g id="edge37" class="edge"><title>Node20&#45;&gt;Node16</title>
<path fill="none" stroke="midnightblue" d="M698.911,-112.444C649.169,-101.827 565.281,-83.9216 519.048,-74.0537"/>
<polygon fill="midnightblue" stroke="midnightblue" points="519.746,-70.6239 509.235,-71.9593 518.284,-77.4697 519.746,-70.6239"/>
</g>
<!-- Node21 -->
<g id="node21" class="node"><title>Node21</title>
<polygon fill="white" stroke="#bfbfbf" points="261,-56.5 261,-75.5 305,-75.5 305,-56.5 261,-56.5"/>
<text text-anchor="middle" x="283" y="-63.5" font-family="Helvetica,sans-Serif" font-size="10.00">cmath</text>
</g>
<!-- Node20&#45;&gt;Node21 -->
<g id="edge33" class="edge"><title>Node20&#45;&gt;Node21</title>
<path fill="none" stroke="midnightblue" d="M698.933,-116.255C609.913,-105.713 397.119,-80.5141 315.569,-70.8569"/>
<polygon fill="midnightblue" stroke="midnightblue" points="315.744,-67.3532 305.402,-69.6528 314.921,-74.3046 315.744,-67.3532"/>
</g>
<!-- Node23&#45;&gt;Node13 -->
<g id="edge48" class="edge"><title>Node23&#45;&gt;Node13</title>
<path fill="none" stroke="midnightblue" d="M173.122,-168.324C182.526,-160.263 196.744,-148.077 208.069,-138.369"/>
<polygon fill="midnightblue" stroke="midnightblue" points="210.379,-140.999 215.694,-131.834 205.823,-135.684 210.379,-140.999"/>
</g>
<!-- Node23&#45;&gt;Node14 -->
<g id="edge46" class="edge"><title>Node23&#45;&gt;Node14</title>
<path fill="none" stroke="midnightblue" d="M142.153,-168.427C127.422,-161.129 108.795,-149.091 100,-132 91.9088,-116.277 101.222,-97.3049 110.694,-83.9272"/>
<polygon fill="midnightblue" stroke="midnightblue" points="113.728,-85.724 117.065,-75.6683 108.186,-81.4483 113.728,-85.724"/>
</g>
<!-- Node23&#45;&gt;Node18 -->
<g id="edge47" class="edge"><title>Node23&#45;&gt;Node18</title>
<path fill="none" stroke="midnightblue" d="M163,-168.083C163,-161.006 163,-150.861 163,-141.986"/>
<polygon fill="midnightblue" stroke="midnightblue" points="166.5,-141.751 163,-131.751 159.5,-141.751 166.5,-141.751"/>
</g>
<!-- Node23&#45;&gt;Node21 -->
<g id="edge45" class="edge"><title>Node23&#45;&gt;Node21</title>
<path fill="none" stroke="midnightblue" d="M153.544,-168.395C140.357,-155.345 119.497,-130.148 133,-112 159.989,-75.7257 215.211,-67.5898 250.596,-66.342"/>
<polygon fill="midnightblue" stroke="midnightblue" points="250.954,-69.8361 260.888,-66.1523 250.825,-62.8373 250.954,-69.8361"/>
</g>
</g>
</svg>
        <g id="navigator" transform="translate(0 0)" fill="#404254">
                <rect fill="#f2f5e9" fill-opacity="0.5" stroke="#606060" stroke-width=".5" x="0" y="0" width="60" height="60"/>
                <use id="zoomplus" xlink:href="#zoomPlus" x="17" y="9" onmousedown="handleZoom(evt,'in')"/>
                <use id="zoomminus" xlink:href="#zoomMin" x="42" y="9" onmousedown="handleZoom(evt,'out')"/>
                <use id="reset" xlink:href="#resetDef" x="30" y="36" onmousedown="handleReset()"/>
                <g id="arrowUp" xlink:href="#dirArrow" transform="translate(30 24)" onmousedown="handlePan(0,-1)">
                  <use xlink:href="#rim" fill="#404040">
                        <set attributeName="fill" to="#808080" begin="arrowUp.mouseover" end="arrowUp.mouseout"/>
                  </use>
                  <path fill="none" stroke="white" stroke-width="1.5" d="M0,-3.0v7 M-2.5,-0.5L0,-3.0L2.5,-0.5"/>
                </g>
                <g id="arrowRight" xlink:href="#dirArrow" transform="rotate(90) translate(36 -43)" onmousedown="handlePan(1,0)">
                  <use xlink:href="#rim" fill="#404040">
                        <set attributeName="fill" to="#808080" begin="arrowRight.mouseover" end="arrowRight.mouseout"/>
                  </use>
                  <path fill="none" stroke="white" stroke-width="1.5" d="M0,-3.0v7 M-2.5,-0.5L0,-3.0L2.5,-0.5"/>
                </g>
                <g id="arrowDown" xlink:href="#dirArrow" transform="rotate(180) translate(-30 -48)" onmousedown="handlePan(0,1)">
                  <use xlink:href="#rim" fill="#404040">
                        <set attributeName="fill" to="#808080" begin="arrowDown.mouseover" end="arrowDown.mouseout"/>
                  </use>
                  <path fill="none" stroke="white" stroke-width="1.5" d="M0,-3.0v7 M-2.5,-0.5L0,-3.0L2.5,-0.5"/>
                </g>
                <g id="arrowLeft" xlink:href="#dirArrow" transform="rotate(270) translate(-36 17)" onmousedown="handlePan(-1,0)">
                  <use xlink:href="#rim" fill="#404040">
                        <set attributeName="fill" to="#808080" begin="arrowLeft.mouseover" end="arrowLeft.mouseout"/>
                  </use>
                  <path fill="none" stroke="white" stroke-width="1.5" d="M0,-3.0v7 M-2.5,-0.5L0,-3.0L2.5,-0.5"/>
                </g>
        </g>
        <svg viewBox="0 0 15 15" width="100%" height="30px" preserveAspectRatio="xMaxYMin meet">
         <g id="arrow_out" transform="scale(0.3 0.3)">
          <a xlink:href="_i_plug_processor_8h__incl_org.svg" target="_base">
           <rect id="button" ry="5" rx="5" y="6" x="6" height="38" width="38"
                fill="#f2f5e9" fill-opacity="0.5" stroke="#606060" stroke-width="1.0"/>
           <path id="arrow"
             d="M 11.500037,31.436501 C 11.940474,20.09759 22.043105,11.32322 32.158766,21.979434 L 37.068811,17.246167 C 37.068811,17.246167 37.088388,32 37.088388,32 L 22.160133,31.978069 C 22.160133,31.978069 26.997745,27.140456 26.997745,27.140456 C 18.528582,18.264221 13.291696,25.230495 11.500037,31.436501 z"
             style="fill:#404040;"/>
          </a>
         </g>
        </svg>
</svg>
