<?xml version="1.0" encoding="UTF-8" standalone="no"?>
<!DOCTYPE svg PUBLIC "-//W3C//DTD SVG 1.1//EN"
 "http://www.w3.org/Graphics/SVG/1.1/DTD/svg11.dtd">
<!-- Generated by graphviz version 2.36.0 (20140111.2315)
 -->
<!-- Title: IPlugParameter.h Pages: 1 -->
<svg width="635pt" height="196pt"
 viewBox="0.00 0.00 635.30 196.00" xmlns="http://www.w3.org/2000/svg" xmlns:xlink="http://www.w3.org/1999/xlink">
<g id="graph0" class="graph" transform="scale(1 1) rotate(0) translate(4 192)">
<title>IPlugParameter.h</title>
<polygon fill="white" stroke="none" points="-4,4 -4,-192 631.302,-192 631.302,4 -4,4"/>
<!-- Node1 -->
<g id="node1" class="node"><title>Node1</title>
<polygon fill="#bfbfbf" stroke="black" points="152,-168.5 152,-187.5 244,-187.5 244,-168.5 152,-168.5"/>
<text text-anchor="middle" x="198" y="-175.5" font-family="Helvetica,sans-Serif" font-size="10.00">IPlugParameter.h</text>
</g>
<!-- Node2 -->
<g id="node2" class="node"><title>Node2</title>
<polygon fill="white" stroke="#bfbfbf" points="66,-112.5 66,-131.5 112,-131.5 112,-112.5 66,-112.5"/>
<text text-anchor="middle" x="89" y="-119.5" font-family="Helvetica,sans-Serif" font-size="10.00">atomic</text>
</g>
<!-- Node1&#45;&gt;Node2 -->
<g id="edge1" class="edge"><title>Node1&#45;&gt;Node2</title>
<path fill="none" stroke="midnightblue" d="M180.487,-168.324C162.928,-159.625 135.669,-146.12 115.469,-136.113"/>
<polygon fill="midnightblue" stroke="midnightblue" points="116.984,-132.958 106.469,-131.655 113.876,-139.23 116.984,-132.958"/>
</g>
<!-- Node3 -->
<g id="node3" class="node"><title>Node3</title>
<polygon fill="white" stroke="#bfbfbf" points="507,-0.5 507,-19.5 553,-19.5 553,-0.5 507,-0.5"/>
<text text-anchor="middle" x="530" y="-7.5" font-family="Helvetica,sans-Serif" font-size="10.00">cstring</text>
</g>
<!-- Node1&#45;&gt;Node3 -->
<g id="edge2" class="edge"><title>Node1&#45;&gt;Node3</title>
<path fill="none" stroke="midnightblue" d="M244.006,-173.069C343.853,-163.485 575.217,-135.236 622,-76 642.299,-50.298 596.669,-30.4068 562.681,-19.7229"/>
<polygon fill="midnightblue" stroke="midnightblue" points="563.615,-16.349 553.031,-16.8314 561.606,-23.0545 563.615,-16.349"/>
</g>
<!-- Node4 -->
<g id="node4" class="node"><title>Node4</title>
<polygon fill="white" stroke="#bfbfbf" points="168.5,-112.5 168.5,-131.5 227.5,-131.5 227.5,-112.5 168.5,-112.5"/>
<text text-anchor="middle" x="198" y="-119.5" font-family="Helvetica,sans-Serif" font-size="10.00">functional</text>
</g>
<!-- Node1&#45;&gt;Node4 -->
<g id="edge3" class="edge"><title>Node1&#45;&gt;Node4</title>
<path fill="none" stroke="midnightblue" d="M198,-168.083C198,-161.006 198,-150.861 198,-141.986"/>
<polygon fill="midnightblue" stroke="midnightblue" points="201.5,-141.751 198,-131.751 194.5,-141.751 201.5,-141.751"/>
</g>
<!-- Node5 -->
<g id="node5" class="node"><title>Node5</title>
<polygon fill="white" stroke="#bfbfbf" points="0,-56.5 0,-75.5 64,-75.5 64,-56.5 0,-56.5"/>
<text text-anchor="middle" x="32" y="-63.5" font-family="Helvetica,sans-Serif" font-size="10.00">wdlstring.h</text>
</g>
<!-- Node1&#45;&gt;Node5 -->
<g id="edge4" class="edge"><title>Node1&#45;&gt;Node5</title>
<path fill="none" stroke="midnightblue" d="M189.074,-168.251C175.269,-155.012 147.552,-129.571 121,-112 102.117,-99.5035 79.2997,-88.0308 61.4962,-79.7973"/>
<polygon fill="midnightblue" stroke="midnightblue" points="62.7308,-76.5141 52.1781,-75.5704 59.839,-82.8889 62.7308,-76.5141"/>
</g>
<!-- Node6 -->
<g id="node6" class="node"><title>Node6</title>
<g id="a_node6"><a xlink:href="_i_plug_utilities_8h.html" target="_top" xlink:title="Utility functions and macros. ">
<polygon fill="white" stroke="black" points="246,-112.5 246,-131.5 326,-131.5 326,-112.5 246,-112.5"/>
<text text-anchor="middle" x="286" y="-119.5" font-family="Helvetica,sans-Serif" font-size="10.00">IPlugUtilities.h</text>
</a>
</g>
</g>
<!-- Node1&#45;&gt;Node6 -->
<g id="edge5" class="edge"><title>Node1&#45;&gt;Node6</title>
<path fill="none" stroke="midnightblue" d="M212.139,-168.324C225.866,-159.9 246.936,-146.971 263.064,-137.074"/>
<polygon fill="midnightblue" stroke="midnightblue" points="265.204,-139.868 271.896,-131.655 261.543,-133.902 265.204,-139.868"/>
</g>
<!-- Node6&#45;&gt;Node3 -->
<g id="edge10" class="edge"><title>Node6&#45;&gt;Node3</title>
<path fill="none" stroke="midnightblue" d="M326.252,-117.905C383.512,-112.7 484.497,-100.293 511,-76 523.846,-64.2254 528.186,-44.2962 529.563,-29.6021"/>
<polygon fill="midnightblue" stroke="midnightblue" points="533.058,-29.7901 530.131,-19.6077 526.07,-29.3931 533.058,-29.7901"/>
</g>
<!-- Node6&#45;&gt;Node5 -->
<g id="edge12" class="edge"><title>Node6&#45;&gt;Node5</title>
<path fill="none" stroke="midnightblue" d="M245.753,-112.444C198.837,-102.469 121.664,-86.0625 74.0068,-75.9306"/>
<polygon fill="midnightblue" stroke="midnightblue" points="74.5257,-72.4627 64.0165,-73.8067 73.07,-79.3097 74.5257,-72.4627"/>
</g>
<!-- Node7 -->
<g id="node7" class="node"><title>Node7</title>
<polygon fill="white" stroke="#bfbfbf" points="558,-56.5 558,-75.5 614,-75.5 614,-56.5 558,-56.5"/>
<text text-anchor="middle" x="586" y="-63.5" font-family="Helvetica,sans-Serif" font-size="10.00">algorithm</text>
</g>
<!-- Node6&#45;&gt;Node7 -->
<g id="edge6" class="edge"><title>Node6&#45;&gt;Node7</title>
<path fill="none" stroke="midnightblue" d="M326.308,-114.462C377.155,-106.101 467.231,-90.9146 544,-76 545.235,-75.76 546.49,-75.5125 547.757,-75.2596"/>
<polygon fill="midnightblue" stroke="midnightblue" points="548.471,-78.6861 557.564,-73.248 547.064,-71.8289 548.471,-78.6861"/>
</g>
<!-- Node8 -->
<g id="node8" class="node"><title>Node8</title>
<polygon fill="white" stroke="#bfbfbf" points="120,-56.5 120,-75.5 164,-75.5 164,-56.5 120,-56.5"/>
<text text-anchor="middle" x="142" y="-63.5" font-family="Helvetica,sans-Serif" font-size="10.00">cmath</text>
</g>
<!-- Node6&#45;&gt;Node8 -->
<g id="edge7" class="edge"><title>Node6&#45;&gt;Node8</title>
<path fill="none" stroke="midnightblue" d="M263.183,-112.444C239.027,-103.385 200.724,-89.0213 173.655,-78.8705"/>
<polygon fill="midnightblue" stroke="midnightblue" points="174.83,-75.5731 164.237,-75.339 172.372,-82.1274 174.83,-75.5731"/>
</g>
<!-- Node9 -->
<g id="node9" class="node"><title>Node9</title>
<polygon fill="white" stroke="#bfbfbf" points="182.5,-56.5 182.5,-75.5 225.5,-75.5 225.5,-56.5 182.5,-56.5"/>
<text text-anchor="middle" x="204" y="-63.5" font-family="Helvetica,sans-Serif" font-size="10.00">cstdio</text>
</g>
<!-- Node6&#45;&gt;Node9 -->
<g id="edge8" class="edge"><title>Node6&#45;&gt;Node9</title>
<path fill="none" stroke="midnightblue" d="M272.825,-112.324C260.153,-103.979 240.767,-91.2122 225.794,-81.3524"/>
<polygon fill="midnightblue" stroke="midnightblue" points="227.419,-78.2313 217.142,-75.6545 223.569,-84.0776 227.419,-78.2313"/>
</g>
<!-- Node10 -->
<g id="node10" class="node"><title>Node10</title>
<polygon fill="white" stroke="#bfbfbf" points="166.5,-0.5 166.5,-19.5 211.5,-19.5 211.5,-0.5 166.5,-0.5"/>
<text text-anchor="middle" x="189" y="-7.5" font-family="Helvetica,sans-Serif" font-size="10.00">cstdlib</text>
</g>
<!-- Node6&#45;&gt;Node10 -->
<g id="edge9" class="edge"><title>Node6&#45;&gt;Node10</title>
<path fill="none" stroke="midnightblue" d="M245.788,-113.342C196.756,-103.6 119.338,-86.7531 111,-76 93.7262,-53.7225 128.473,-33.9124 156.988,-22.1807"/>
<polygon fill="midnightblue" stroke="midnightblue" points="158.3,-25.4257 166.335,-18.5199 155.747,-18.9078 158.3,-25.4257"/>
</g>
<!-- Node11 -->
<g id="node11" class="node"><title>Node11</title>
<polygon fill="white" stroke="#bfbfbf" points="346,-56.5 346,-75.5 392,-75.5 392,-56.5 346,-56.5"/>
<text text-anchor="middle" x="369" y="-63.5" font-family="Helvetica,sans-Serif" font-size="10.00">cctype</text>
</g>
<!-- Node6&#45;&gt;Node11 -->
<g id="edge11" class="edge"><title>Node6&#45;&gt;Node11</title>
<path fill="none" stroke="midnightblue" d="M299.335,-112.324C312.162,-103.979 331.785,-91.2122 346.94,-81.3524"/>
<polygon fill="midnightblue" stroke="midnightblue" points="349.224,-84.0417 355.698,-75.6545 345.407,-78.1742 349.224,-84.0417"/>
</g>
<!-- Node12 -->
<g id="node12" class="node"><title>Node12</title>
<g id="a_node12"><a xlink:href="_i_plug_constants_8h.html" target="_top" xlink:title="IPlug Constant definitions, Types, magic numbers. ">
<polygon fill="white" stroke="black" points="410,-56.5 410,-75.5 502,-75.5 502,-56.5 410,-56.5"/>
<text text-anchor="middle" x="456" y="-63.5" font-family="Helvetica,sans-Serif" font-size="10.00">IPlugConstants.h</text>
</a>
</g>
</g>
<!-- Node6&#45;&gt;Node12 -->
<g id="edge13" class="edge"><title>Node6&#45;&gt;Node12</title>
<path fill="none" stroke="midnightblue" d="M312.937,-112.444C341.66,-103.32 387.329,-88.8133 419.321,-78.6509"/>
<polygon fill="midnightblue" stroke="midnightblue" points="420.718,-81.8797 429.189,-75.5164 418.599,-75.2081 420.718,-81.8797"/>
</g>
<!-- Node13 -->
<g id="node13" class="node"><title>Node13</title>
<g id="a_node13"><a xlink:href="_i_plug_platform_8h.html" target="_top" xlink:title="Include to get consistently named preprocessor macros for different platforms and logging functionali...">
<polygon fill="white" stroke="black" points="244,-56.5 244,-75.5 328,-75.5 328,-56.5 244,-56.5"/>
<text text-anchor="middle" x="286" y="-63.5" font-family="Helvetica,sans-Serif" font-size="10.00">IPlugPlatform.h</text>
</a>
</g>
</g>
<!-- Node6&#45;&gt;Node13 -->
<g id="edge14" class="edge"><title>Node6&#45;&gt;Node13</title>
<path fill="none" stroke="midnightblue" d="M286,-112.083C286,-105.006 286,-94.8611 286,-85.9865"/>
<polygon fill="midnightblue" stroke="midnightblue" points="289.5,-85.751 286,-75.7511 282.5,-85.7511 289.5,-85.751"/>
</g>
<!-- Node13&#45;&gt;Node3 -->
<g id="edge15" class="edge"><title>Node13&#45;&gt;Node3</title>
<path fill="none" stroke="midnightblue" d="M324.663,-56.4435C372.285,-45.9041 452.36,-28.1826 497.146,-18.271"/>
<polygon fill="midnightblue" stroke="midnightblue" points="497.929,-21.6823 506.937,-16.1041 496.417,-14.8477 497.929,-21.6823"/>
</g>
<!-- Node13&#45;&gt;Node10 -->
<g id="edge16" class="edge"><title>Node13&#45;&gt;Node10</title>
<path fill="none" stroke="midnightblue" d="M270.415,-56.324C255.001,-47.7428 231.188,-34.486 213.29,-24.5224"/>
<polygon fill="midnightblue" stroke="midnightblue" points="214.986,-21.4606 204.546,-19.6545 211.581,-27.5767 214.986,-21.4606"/>
</g>
</g>
</svg>
