<?xml version="1.0" encoding="UTF-8" standalone="no"?>
<!DOCTYPE svg PUBLIC "-//W3C//DTD SVG 1.1//EN"
 "http://www.w3.org/Graphics/SVG/1.1/DTD/svg11.dtd">
<!-- Generated by graphviz version 2.36.0 (20140111.2315)
 -->
<!-- Title: IPlugPaths.h Pages: 1 -->
<svg width="306pt" height="84pt"
 viewBox="0.00 0.00 306.00 84.00" xmlns="http://www.w3.org/2000/svg" xmlns:xlink="http://www.w3.org/1999/xlink">
<g id="graph0" class="graph" transform="scale(1 1) rotate(0) translate(4 80)">
<title>IPlugPaths.h</title>
<polygon fill="white" stroke="none" points="-4,4 -4,-80 302,-80 302,4 -4,4"/>
<!-- Node1 -->
<g id="node1" class="node"><title>Node1</title>
<polygon fill="#bfbfbf" stroke="black" points="106.5,-56.5 106.5,-75.5 179.5,-75.5 179.5,-56.5 106.5,-56.5"/>
<text text-anchor="middle" x="143" y="-63.5" font-family="Helvetica,sans-Serif" font-size="10.00">IPlugPaths.h</text>
</g>
<!-- Node2 -->
<g id="node2" class="node"><title>Node2</title>
<g id="a_node2"><a xlink:href="_i_plug_paths_8cpp.html" target="_top" xlink:title="IPlugPaths implementation for Windows and Linux. ">
<polygon fill="white" stroke="black" points="-0.5,-0.5 -0.5,-19.5 82.5,-19.5 82.5,-0.5 -0.5,-0.5"/>
<text text-anchor="middle" x="41" y="-7.5" font-family="Helvetica,sans-Serif" font-size="10.00">IPlugPaths.cpp</text>
</a>
</g>
</g>
<!-- Node1&#45;&gt;Node2 -->
<g id="edge1" class="edge"><title>Node1&#45;&gt;Node2</title>
<path fill="none" stroke="midnightblue" d="M117.669,-51.5895C98.8098,-41.6052 73.6158,-28.2672 57.3474,-19.6545"/>
<polygon fill="midnightblue" stroke="midnightblue" points="116.136,-54.7383 126.612,-56.324 119.412,-48.5518 116.136,-54.7383"/>
</g>
<!-- Node3 -->
<g id="node3" class="node"><title>Node3</title>
<g id="a_node3"><a xlink:href="_i_plug_paths_8mm.html" target="_top" xlink:title="IPlugPaths implementation for macOS and iOS. ">
<polygon fill="white" stroke="black" points="101,-0.5 101,-19.5 185,-19.5 185,-0.5 101,-0.5"/>
<text text-anchor="middle" x="143" y="-7.5" font-family="Helvetica,sans-Serif" font-size="10.00">IPlugPaths.mm</text>
</a>
</g>
</g>
<!-- Node1&#45;&gt;Node3 -->
<g id="edge2" class="edge"><title>Node1&#45;&gt;Node3</title>
<path fill="none" stroke="midnightblue" d="M143,-45.8045C143,-36.9102 143,-26.7798 143,-19.7511"/>
<polygon fill="midnightblue" stroke="midnightblue" points="139.5,-46.083 143,-56.083 146.5,-46.083 139.5,-46.083"/>
</g>
<!-- Node4 -->
<g id="node4" class="node"><title>Node4</title>
<g id="a_node4"><a xlink:href="_i_graphics_win_8cpp_source.html" target="_top" xlink:title="IGraphicsWin.cpp">
<polygon fill="white" stroke="black" points="203.5,-0.5 203.5,-19.5 298.5,-19.5 298.5,-0.5 203.5,-0.5"/>
<text text-anchor="middle" x="251" y="-7.5" font-family="Helvetica,sans-Serif" font-size="10.00">IGraphicsWin.cpp</text>
</a>
</g>
</g>
<!-- Node1&#45;&gt;Node4 -->
<g id="edge3" class="edge"><title>Node1&#45;&gt;Node4</title>
<path fill="none" stroke="midnightblue" d="M169.548,-51.7261C189.546,-41.7271 216.387,-28.3065 233.691,-19.6545"/>
<polygon fill="midnightblue" stroke="midnightblue" points="167.731,-48.7213 160.352,-56.324 170.862,-54.9823 167.731,-48.7213"/>
</g>
</g>
</svg>
