<?xml version="1.0" encoding="UTF-8" standalone="no"?>
<!DOCTYPE svg PUBLIC "-//W3C//DTD SVG 1.1//EN"
 "http://www.w3.org/Graphics/SVG/1.1/DTD/svg11.dtd">
<!-- Generated by graphviz version 2.36.0 (20140111.2315)
 -->
<!-- Title: IPlugPaths.mm Pages: 1 -->
<svg width="331pt" height="140pt"
 viewBox="0.00 0.00 331.00 140.00" xmlns="http://www.w3.org/2000/svg" xmlns:xlink="http://www.w3.org/1999/xlink">
<g id="graph0" class="graph" transform="scale(1 1) rotate(0) translate(4 136)">
<title>IPlugPaths.mm</title>
<polygon fill="white" stroke="none" points="-4,4 -4,-136 327,-136 327,4 -4,4"/>
<!-- Node1 -->
<g id="node1" class="node"><title>Node1</title>
<polygon fill="#bfbfbf" stroke="black" points="134,-112.5 134,-131.5 218,-131.5 218,-112.5 134,-112.5"/>
<text text-anchor="middle" x="176" y="-119.5" font-family="Helvetica,sans-Serif" font-size="10.00">IPlugPaths.mm</text>
</g>
<!-- Node2 -->
<g id="node2" class="node"><title>Node2</title>
<g id="a_node2"><a xlink:href="_i_plug_platform_8h.html" target="_top" xlink:title="Include to get consistently named preprocessor macros for different platforms and logging functionali...">
<polygon fill="white" stroke="black" points="37,-56.5 37,-75.5 121,-75.5 121,-56.5 37,-56.5"/>
<text text-anchor="middle" x="79" y="-63.5" font-family="Helvetica,sans-Serif" font-size="10.00">IPlugPlatform.h</text>
</a>
</g>
</g>
<!-- Node1&#45;&gt;Node2 -->
<g id="edge1" class="edge"><title>Node1&#45;&gt;Node2</title>
<path fill="none" stroke="midnightblue" d="M160.415,-112.324C145.001,-103.743 121.188,-90.486 103.29,-80.5224"/>
<polygon fill="midnightblue" stroke="midnightblue" points="104.986,-77.4606 94.5461,-75.6545 101.581,-83.5767 104.986,-77.4606"/>
</g>
<!-- Node5 -->
<g id="node5" class="node"><title>Node5</title>
<g id="a_node5"><a xlink:href="_i_plug_paths_8h.html" target="_top" xlink:title="Common paths useful for plug&#45;ins. ">
<polygon fill="white" stroke="black" points="139.5,-56.5 139.5,-75.5 212.5,-75.5 212.5,-56.5 139.5,-56.5"/>
<text text-anchor="middle" x="176" y="-63.5" font-family="Helvetica,sans-Serif" font-size="10.00">IPlugPaths.h</text>
</a>
</g>
</g>
<!-- Node1&#45;&gt;Node5 -->
<g id="edge4" class="edge"><title>Node1&#45;&gt;Node5</title>
<path fill="none" stroke="midnightblue" d="M176,-112.083C176,-105.006 176,-94.8611 176,-85.9865"/>
<polygon fill="midnightblue" stroke="midnightblue" points="179.5,-85.751 176,-75.7511 172.5,-85.7511 179.5,-85.751"/>
</g>
<!-- Node8 -->
<g id="node8" class="node"><title>Node8</title>
<g id="a_node8"><a xlink:href="_i_plug_constants_8h.html" target="_top" xlink:title="IPlug Constant definitions, Types, magic numbers. ">
<polygon fill="white" stroke="black" points="231,-56.5 231,-75.5 323,-75.5 323,-56.5 231,-56.5"/>
<text text-anchor="middle" x="277" y="-63.5" font-family="Helvetica,sans-Serif" font-size="10.00">IPlugConstants.h</text>
</a>
</g>
</g>
<!-- Node1&#45;&gt;Node8 -->
<g id="edge7" class="edge"><title>Node1&#45;&gt;Node8</title>
<path fill="none" stroke="midnightblue" d="M192.227,-112.324C208.351,-103.703 233.3,-90.3643 251.964,-80.3855"/>
<polygon fill="midnightblue" stroke="midnightblue" points="253.644,-83.456 260.813,-75.6545 250.344,-77.283 253.644,-83.456"/>
</g>
<!-- Node3 -->
<g id="node3" class="node"><title>Node3</title>
<polygon fill="white" stroke="#bfbfbf" points="0,-0.5 0,-19.5 46,-19.5 46,-0.5 0,-0.5"/>
<text text-anchor="middle" x="23" y="-7.5" font-family="Helvetica,sans-Serif" font-size="10.00">cstring</text>
</g>
<!-- Node2&#45;&gt;Node3 -->
<g id="edge2" class="edge"><title>Node2&#45;&gt;Node3</title>
<path fill="none" stroke="midnightblue" d="M70.0026,-56.324C61.8056,-48.4196 49.4945,-36.5482 39.528,-26.9377"/>
<polygon fill="midnightblue" stroke="midnightblue" points="41.789,-24.2558 32.1611,-19.8339 36.9301,-29.2947 41.789,-24.2558"/>
</g>
<!-- Node4 -->
<g id="node4" class="node"><title>Node4</title>
<polygon fill="white" stroke="#bfbfbf" points="64.5,-0.5 64.5,-19.5 109.5,-19.5 109.5,-0.5 64.5,-0.5"/>
<text text-anchor="middle" x="87" y="-7.5" font-family="Helvetica,sans-Serif" font-size="10.00">cstdlib</text>
</g>
<!-- Node2&#45;&gt;Node4 -->
<g id="edge3" class="edge"><title>Node2&#45;&gt;Node4</title>
<path fill="none" stroke="midnightblue" d="M80.321,-56.083C81.3811,-48.9272 82.9059,-38.6353 84.2309,-29.6911"/>
<polygon fill="midnightblue" stroke="midnightblue" points="87.7002,-30.1561 85.7035,-19.7511 80.7758,-29.1302 87.7002,-30.1561"/>
</g>
<!-- Node6 -->
<g id="node6" class="node"><title>Node6</title>
<polygon fill="white" stroke="#bfbfbf" points="143.5,-0.5 143.5,-19.5 192.5,-19.5 192.5,-0.5 143.5,-0.5"/>
<text text-anchor="middle" x="168" y="-7.5" font-family="Helvetica,sans-Serif" font-size="10.00">string.h</text>
</g>
<!-- Node5&#45;&gt;Node6 -->
<g id="edge5" class="edge"><title>Node5&#45;&gt;Node6</title>
<path fill="none" stroke="midnightblue" d="M174.679,-56.083C173.619,-48.9272 172.094,-38.6353 170.769,-29.6911"/>
<polygon fill="midnightblue" stroke="midnightblue" points="174.224,-29.1302 169.296,-19.7511 167.3,-30.1561 174.224,-29.1302"/>
</g>
<!-- Node7 -->
<g id="node7" class="node"><title>Node7</title>
<polygon fill="white" stroke="#bfbfbf" points="211,-0.5 211,-19.5 275,-19.5 275,-0.5 211,-0.5"/>
<text text-anchor="middle" x="243" y="-7.5" font-family="Helvetica,sans-Serif" font-size="10.00">wdlstring.h</text>
</g>
<!-- Node5&#45;&gt;Node7 -->
<g id="edge6" class="edge"><title>Node5&#45;&gt;Node7</title>
<path fill="none" stroke="midnightblue" d="M186.765,-56.324C196.766,-48.2631 211.887,-36.0765 223.93,-26.3695"/>
<polygon fill="midnightblue" stroke="midnightblue" points="226.45,-28.8343 232.039,-19.8339 222.057,-23.3841 226.45,-28.8343"/>
</g>
</g>
</svg>
