<?xml version="1.0" encoding="UTF-8" standalone="no"?>
<!DOCTYPE svg PUBLIC "-//W3C//DTD SVG 1.1//EN"
 "http://www.w3.org/Graphics/SVG/1.1/DTD/svg11.dtd">
<!-- Generated by graphviz version 2.36.0 (20140111.2315)
 -->
<!-- Title: IPlugParameter.cpp Pages: 1 -->
<!--zoomable 252 -->
<svg id="main" version="1.1" xmlns="http://www.w3.org/2000/svg" xmlns:xlink="http://www.w3.org/1999/xlink" xml:space="preserve" onload="init(evt)">
<style type="text/css"><![CDATA[
.edge:hover path { stroke: red; }
.edge:hover polygon { stroke: red; fill: red; }
]]></style>
<script type="text/javascript"><![CDATA[
var edges = document.getElementsByTagName('g');
if (edges && edges.length) {
  for (var i=0;i<edges.length;i++) {
    if (edges[i].id.substr(0,4)=='edge') {
      edges[i].setAttribute('class','edge');
    }
  }
}
]]></script>
        <defs>
                <circle id="rim" cx="0" cy="0" r="7"/>
                <circle id="rim2" cx="0" cy="0" r="3.5"/>
                <g id="zoomPlus">
                        <use xlink:href="#rim" fill="#404040">
                                <set attributeName="fill" to="#808080" begin="zoomplus.mouseover" end="zoomplus.mouseout"/>
                        </use>
                        <path d="M-4,0h8M0,-4v8" fill="none" stroke="white" stroke-width="1.5" pointer-events="none"/>
                </g>
                <g id="zoomMin">
                        <use xlink:href="#rim" fill="#404040">
                                <set attributeName="fill" to="#808080" begin="zoomminus.mouseover" end="zoomminus.mouseout"/>
                        </use>
                        <path d="M-4,0h8" fill="none" stroke="white" stroke-width="1.5" pointer-events="none"/>
                </g>
                <g id="dirArrow">
                        <path fill="none" stroke="white" stroke-width="1.5" d="M0,-3.0v7 M-2.5,-0.5L0,-3.0L2.5,-0.5"/>
                </g>
               <g id="resetDef">
                       <use xlink:href="#rim2" fill="#404040">
                               <set attributeName="fill" to="#808080" begin="reset.mouseover" end="reset.mouseout"/>
                       </use>
               </g>
        </defs>

<script type="text/javascript">
var viewWidth = 813;
var viewHeight = 252;
var sectionId = 'dynsection-0';
</script>
<script xlink:href="svgpan.js"/>
<svg id="graph" class="graph">
<g id="viewport">
<title>IPlugParameter.cpp</title>
<polygon fill="white" stroke="none" points="-4,4 -4,-248 809.361,-248 809.361,4 -4,4"/>
<!-- Node1 -->
<g id="node1" class="node"><title>Node1</title>
<polygon fill="#bfbfbf" stroke="black" points="257.861,-224.5 257.861,-243.5 360.861,-243.5 360.861,-224.5 257.861,-224.5"/>
<text text-anchor="middle" x="309.361" y="-231.5" font-family="Helvetica,sans-Serif" font-size="10.00">IPlugParameter.cpp</text>
</g>
<!-- Node2 -->
<g id="node2" class="node"><title>Node2</title>
<polygon fill="white" stroke="#bfbfbf" points="761.861,-56.5 761.861,-75.5 804.861,-75.5 804.861,-56.5 761.861,-56.5"/>
<text text-anchor="middle" x="783.361" y="-63.5" font-family="Helvetica,sans-Serif" font-size="10.00">cstdio</text>
</g>
<!-- Node1&#45;&gt;Node2 -->
<g id="edge1" class="edge"><title>Node1&#45;&gt;Node2</title>
<path fill="none" stroke="midnightblue" d="M360.947,-229.993C472.915,-222.276 732.418,-197.56 785.361,-132 795.761,-119.121 793.592,-99.6719 789.839,-85.4038"/>
<polygon fill="midnightblue" stroke="midnightblue" points="793.137,-84.2203 786.843,-75.6974 786.448,-86.2848 793.137,-84.2203"/>
</g>
<!-- Node3 -->
<g id="node3" class="node"><title>Node3</title>
<polygon fill="white" stroke="#bfbfbf" points="37.3606,-56.5 37.3606,-75.5 93.3606,-75.5 93.3606,-56.5 37.3606,-56.5"/>
<text text-anchor="middle" x="65.3606" y="-63.5" font-family="Helvetica,sans-Serif" font-size="10.00">algorithm</text>
</g>
<!-- Node1&#45;&gt;Node3 -->
<g id="edge2" class="edge"><title>Node1&#45;&gt;Node3</title>
<path fill="none" stroke="midnightblue" d="M257.761,-228.71C211.17,-223.441 141.517,-212.04 85.3606,-188 45.4618,-170.92 25.4036,-170.496 5.36055,-132 -5.32739,-111.472 17.3598,-92.588 37.8321,-80.5259"/>
<polygon fill="midnightblue" stroke="midnightblue" points="39.6082,-83.5432 46.6598,-75.6359 36.2163,-77.4199 39.6082,-83.5432"/>
</g>
<!-- Node4 -->
<g id="node4" class="node"><title>Node4</title>
<g id="a_node4"><a xlink:href="_i_plug_parameter_8h.html" target="_top" xlink:title="IPlug&#39;s parameter class. ">
<polygon fill="white" stroke="black" points="94.3606,-168.5 94.3606,-187.5 186.361,-187.5 186.361,-168.5 94.3606,-168.5"/>
<text text-anchor="middle" x="140.361" y="-175.5" font-family="Helvetica,sans-Serif" font-size="10.00">IPlugParameter.h</text>
</a>
</g>
</g>
<!-- Node1&#45;&gt;Node4 -->
<g id="edge3" class="edge"><title>Node1&#45;&gt;Node4</title>
<path fill="none" stroke="midnightblue" d="M282.582,-224.444C254.027,-215.32 208.628,-200.813 176.824,-190.651"/>
<polygon fill="midnightblue" stroke="midnightblue" points="177.605,-187.226 167.014,-187.516 175.474,-193.894 177.605,-187.226"/>
</g>
<!-- Node15 -->
<g id="node15" class="node"><title>Node15</title>
<g id="a_node15"><a xlink:href="_i_plug_logger_8h.html" target="_top" xlink:title="IPlug logging a.k.a tracing functionality. ">
<polygon fill="white" stroke="black" points="439.861,-168.5 439.861,-187.5 516.861,-187.5 516.861,-168.5 439.861,-168.5"/>
<text text-anchor="middle" x="478.361" y="-175.5" font-family="Helvetica,sans-Serif" font-size="10.00">IPlugLogger.h</text>
</a>
</g>
</g>
<!-- Node1&#45;&gt;Node15 -->
<g id="edge20" class="edge"><title>Node1&#45;&gt;Node15</title>
<path fill="none" stroke="midnightblue" d="M336.139,-224.444C364.694,-215.32 410.093,-200.813 441.897,-190.651"/>
<polygon fill="midnightblue" stroke="midnightblue" points="443.247,-193.894 451.707,-187.516 441.116,-187.226 443.247,-193.894"/>
</g>
<!-- Node5 -->
<g id="node5" class="node"><title>Node5</title>
<polygon fill="white" stroke="#bfbfbf" points="92.3606,-112.5 92.3606,-131.5 138.361,-131.5 138.361,-112.5 92.3606,-112.5"/>
<text text-anchor="middle" x="115.361" y="-119.5" font-family="Helvetica,sans-Serif" font-size="10.00">atomic</text>
</g>
<!-- Node4&#45;&gt;Node5 -->
<g id="edge4" class="edge"><title>Node4&#45;&gt;Node5</title>
<path fill="none" stroke="midnightblue" d="M136.232,-168.083C132.847,-160.77 127.945,-150.181 123.742,-141.103"/>
<polygon fill="midnightblue" stroke="midnightblue" points="126.789,-139.355 119.412,-131.751 120.437,-142.296 126.789,-139.355"/>
</g>
<!-- Node6 -->
<g id="node6" class="node"><title>Node6</title>
<polygon fill="white" stroke="#bfbfbf" points="246.361,-0.5 246.361,-19.5 292.361,-19.5 292.361,-0.5 246.361,-0.5"/>
<text text-anchor="middle" x="269.361" y="-7.5" font-family="Helvetica,sans-Serif" font-size="10.00">cstring</text>
</g>
<!-- Node4&#45;&gt;Node6 -->
<g id="edge5" class="edge"><title>Node4&#45;&gt;Node6</title>
<path fill="none" stroke="midnightblue" d="M94.1226,-174.85C63.5142,-170.731 25.4397,-159.858 5.36055,-132 -10.696,-109.723 13.8016,-67.8418 28.3606,-56 59.7566,-30.4633 177.491,-18.0346 235.971,-13.331"/>
<polygon fill="midnightblue" stroke="midnightblue" points="236.467,-16.8031 246.166,-12.5412 235.926,-9.82405 236.467,-16.8031"/>
</g>
<!-- Node7 -->
<g id="node7" class="node"><title>Node7</title>
<polygon fill="white" stroke="#bfbfbf" points="14.8606,-112.5 14.8606,-131.5 73.8606,-131.5 73.8606,-112.5 14.8606,-112.5"/>
<text text-anchor="middle" x="44.3606" y="-119.5" font-family="Helvetica,sans-Serif" font-size="10.00">functional</text>
</g>
<!-- Node4&#45;&gt;Node7 -->
<g id="edge6" class="edge"><title>Node4&#45;&gt;Node7</title>
<path fill="none" stroke="midnightblue" d="M124.936,-168.324C109.821,-159.822 86.5452,-146.729 68.8894,-136.797"/>
<polygon fill="midnightblue" stroke="midnightblue" points="70.178,-133.507 59.7463,-131.655 66.7462,-139.608 70.178,-133.507"/>
</g>
<!-- Node8 -->
<g id="node8" class="node"><title>Node8</title>
<polygon fill="white" stroke="#bfbfbf" points="127.361,-56.5 127.361,-75.5 191.361,-75.5 191.361,-56.5 127.361,-56.5"/>
<text text-anchor="middle" x="159.361" y="-63.5" font-family="Helvetica,sans-Serif" font-size="10.00">wdlstring.h</text>
</g>
<!-- Node4&#45;&gt;Node8 -->
<g id="edge7" class="edge"><title>Node4&#45;&gt;Node8</title>
<path fill="none" stroke="midnightblue" d="M141.851,-168.368C144.918,-150.617 151.991,-109.666 156.148,-85.5974"/>
<polygon fill="midnightblue" stroke="midnightblue" points="159.623,-86.0413 157.877,-75.5914 152.726,-84.8498 159.623,-86.0413"/>
</g>
<!-- Node9 -->
<g id="node9" class="node"><title>Node9</title>
<g id="a_node9"><a xlink:href="_i_plug_utilities_8h.html" target="_top" xlink:title="Utility functions and macros. ">
<polygon fill="white" stroke="black" points="270.361,-112.5 270.361,-131.5 350.361,-131.5 350.361,-112.5 270.361,-112.5"/>
<text text-anchor="middle" x="310.361" y="-119.5" font-family="Helvetica,sans-Serif" font-size="10.00">IPlugUtilities.h</text>
</a>
</g>
</g>
<!-- Node4&#45;&gt;Node9 -->
<g id="edge8" class="edge"><title>Node4&#45;&gt;Node9</title>
<path fill="none" stroke="midnightblue" d="M167.298,-168.444C196.021,-159.32 241.689,-144.813 273.682,-134.651"/>
<polygon fill="midnightblue" stroke="midnightblue" points="275.078,-137.88 283.55,-131.516 272.959,-131.208 275.078,-137.88"/>
</g>
<!-- Node9&#45;&gt;Node2 -->
<g id="edge11" class="edge"><title>Node9&#45;&gt;Node2</title>
<path fill="none" stroke="midnightblue" d="M350.431,-113.384C353.448,-112.889 356.45,-112.421 359.361,-112 505.349,-90.8769 680.967,-75.3724 751.632,-69.5382"/>
<polygon fill="midnightblue" stroke="midnightblue" points="751.986,-73.021 761.667,-68.7166 751.415,-66.0443 751.986,-73.021"/>
</g>
<!-- Node9&#45;&gt;Node3 -->
<g id="edge9" class="edge"><title>Node9&#45;&gt;Node3</title>
<path fill="none" stroke="midnightblue" d="M271.54,-112.444C225.503,-102.297 149.262,-85.4927 103.518,-75.4102"/>
<polygon fill="midnightblue" stroke="midnightblue" points="104.208,-71.9783 93.6886,-73.2437 102.701,-78.8142 104.208,-71.9783"/>
</g>
<!-- Node9&#45;&gt;Node6 -->
<g id="edge13" class="edge"><title>Node9&#45;&gt;Node6</title>
<path fill="none" stroke="midnightblue" d="M310.037,-112.278C309.311,-99.5043 306.96,-75.1483 299.361,-56 295.384,-45.9814 288.942,-35.8992 283.044,-27.825"/>
<polygon fill="midnightblue" stroke="midnightblue" points="285.647,-25.468 276.778,-19.6725 280.097,-29.734 285.647,-25.468"/>
</g>
<!-- Node9&#45;&gt;Node8 -->
<g id="edge15" class="edge"><title>Node9&#45;&gt;Node8</title>
<path fill="none" stroke="midnightblue" d="M286.434,-112.444C261.142,-103.399 221.058,-89.064 192.681,-78.9158"/>
<polygon fill="midnightblue" stroke="midnightblue" points="193.77,-75.5882 183.175,-75.5164 191.412,-82.1794 193.77,-75.5882"/>
</g>
<!-- Node10 -->
<g id="node10" class="node"><title>Node10</title>
<polygon fill="white" stroke="#bfbfbf" points="247.361,-56.5 247.361,-75.5 291.361,-75.5 291.361,-56.5 247.361,-56.5"/>
<text text-anchor="middle" x="269.361" y="-63.5" font-family="Helvetica,sans-Serif" font-size="10.00">cmath</text>
</g>
<!-- Node9&#45;&gt;Node10 -->
<g id="edge10" class="edge"><title>Node9&#45;&gt;Node10</title>
<path fill="none" stroke="midnightblue" d="M303.59,-112.083C297.799,-104.455 289.302,-93.2645 282.223,-83.9408"/>
<polygon fill="midnightblue" stroke="midnightblue" points="284.84,-81.5991 276.005,-75.7511 279.264,-85.8321 284.84,-81.5991"/>
</g>
<!-- Node11 -->
<g id="node11" class="node"><title>Node11</title>
<polygon fill="white" stroke="#bfbfbf" points="401.861,-0.5 401.861,-19.5 446.861,-19.5 446.861,-0.5 401.861,-0.5"/>
<text text-anchor="middle" x="424.361" y="-7.5" font-family="Helvetica,sans-Serif" font-size="10.00">cstdlib</text>
</g>
<!-- Node9&#45;&gt;Node11 -->
<g id="edge12" class="edge"><title>Node9&#45;&gt;Node11</title>
<path fill="none" stroke="midnightblue" d="M350.113,-112.433C383.961,-104.236 428.75,-90.9386 439.361,-76 449.278,-62.0376 442.733,-42.5174 435.435,-28.519"/>
<polygon fill="midnightblue" stroke="midnightblue" points="438.47,-26.7757 430.456,-19.8461 432.399,-30.2611 438.47,-26.7757"/>
</g>
<!-- Node12 -->
<g id="node12" class="node"><title>Node12</title>
<polygon fill="white" stroke="#bfbfbf" points="597.361,-56.5 597.361,-75.5 643.361,-75.5 643.361,-56.5 597.361,-56.5"/>
<text text-anchor="middle" x="620.361" y="-63.5" font-family="Helvetica,sans-Serif" font-size="10.00">cctype</text>
</g>
<!-- Node9&#45;&gt;Node12 -->
<g id="edge14" class="edge"><title>Node9&#45;&gt;Node12</title>
<path fill="none" stroke="midnightblue" d="M350.457,-113.549C353.468,-113.016 356.462,-112.494 359.361,-112 457.75,-95.2334 485.959,-97.7999 587.011,-76.0865"/>
<polygon fill="midnightblue" stroke="midnightblue" points="587.995,-79.4543 597.022,-73.908 586.507,-72.6144 587.995,-79.4543"/>
</g>
<!-- Node13 -->
<g id="node13" class="node"><title>Node13</title>
<g id="a_node13"><a xlink:href="_i_plug_constants_8h.html" target="_top" xlink:title="IPlug Constant definitions, Types, magic numbers. ">
<polygon fill="white" stroke="black" points="487.361,-56.5 487.361,-75.5 579.361,-75.5 579.361,-56.5 487.361,-56.5"/>
<text text-anchor="middle" x="533.361" y="-63.5" font-family="Helvetica,sans-Serif" font-size="10.00">IPlugConstants.h</text>
</a>
</g>
</g>
<!-- Node9&#45;&gt;Node13 -->
<g id="edge16" class="edge"><title>Node9&#45;&gt;Node13</title>
<path fill="none" stroke="midnightblue" d="M345.696,-112.444C384.271,-103.102 446.145,-88.1194 488.213,-77.9326"/>
<polygon fill="midnightblue" stroke="midnightblue" points="489.296,-81.2717 498.191,-75.5164 487.648,-74.4683 489.296,-81.2717"/>
</g>
<!-- Node14 -->
<g id="node14" class="node"><title>Node14</title>
<g id="a_node14"><a xlink:href="_i_plug_platform_8h.html" target="_top" xlink:title="Include to get consistently named preprocessor macros for different platforms and logging functionali...">
<polygon fill="white" stroke="black" points="347.361,-56.5 347.361,-75.5 431.361,-75.5 431.361,-56.5 347.361,-56.5"/>
<text text-anchor="middle" x="389.361" y="-63.5" font-family="Helvetica,sans-Serif" font-size="10.00">IPlugPlatform.h</text>
</a>
</g>
</g>
<!-- Node9&#45;&gt;Node14 -->
<g id="edge17" class="edge"><title>Node9&#45;&gt;Node14</title>
<path fill="none" stroke="midnightblue" d="M323.053,-112.324C335.262,-103.979 353.939,-91.2122 368.364,-81.3524"/>
<polygon fill="midnightblue" stroke="midnightblue" points="370.419,-84.1871 376.699,-75.6545 366.469,-78.4082 370.419,-84.1871"/>
</g>
<!-- Node14&#45;&gt;Node6 -->
<g id="edge18" class="edge"><title>Node14&#45;&gt;Node6</title>
<path fill="none" stroke="midnightblue" d="M370.346,-56.4435C350.773,-47.6356 320.053,-33.8116 297.632,-23.722"/>
<polygon fill="midnightblue" stroke="midnightblue" points="298.841,-20.4284 288.286,-19.5164 295.969,-26.8119 298.841,-20.4284"/>
</g>
<!-- Node14&#45;&gt;Node11 -->
<g id="edge19" class="edge"><title>Node14&#45;&gt;Node11</title>
<path fill="none" stroke="midnightblue" d="M395.14,-56.083C400.033,-48.5341 407.188,-37.4948 413.193,-28.2298"/>
<polygon fill="midnightblue" stroke="midnightblue" points="416.187,-30.0463 418.689,-19.7511 410.313,-26.239 416.187,-30.0463"/>
</g>
<!-- Node15&#45;&gt;Node2 -->
<g id="edge21" class="edge"><title>Node15&#45;&gt;Node2</title>
<path fill="none" stroke="midnightblue" d="M517.067,-175.911C586.48,-173.17 728.265,-163.738 764.361,-132 777.447,-120.493 781.749,-100.522 783.052,-85.7446"/>
<polygon fill="midnightblue" stroke="midnightblue" points="786.551,-85.8467 783.559,-75.6831 779.56,-85.4941 786.551,-85.8467"/>
</g>
<!-- Node15&#45;&gt;Node6 -->
<g id="edge25" class="edge"><title>Node15&#45;&gt;Node6</title>
<path fill="none" stroke="midnightblue" d="M439.842,-173.353C384.999,-167.452 288.08,-154.177 261.361,-132 234.205,-109.461 227.877,-89.6976 238.361,-56 241.589,-45.6222 248.136,-35.5209 254.385,-27.5268"/>
<polygon fill="midnightblue" stroke="midnightblue" points="257.146,-29.6818 260.878,-19.7661 251.777,-25.1902 257.146,-29.6818"/>
</g>
<!-- Node15&#45;&gt;Node8 -->
<g id="edge28" class="edge"><title>Node15&#45;&gt;Node8</title>
<path fill="none" stroke="midnightblue" d="M439.813,-176.767C388.798,-175.008 297.278,-166.733 228.361,-132 205.51,-120.484 184.963,-98.9789 172.351,-83.867"/>
<polygon fill="midnightblue" stroke="midnightblue" points="174.881,-81.4281 165.885,-75.8319 169.428,-85.8168 174.881,-81.4281"/>
</g>
<!-- Node15&#45;&gt;Node9 -->
<g id="edge31" class="edge"><title>Node15&#45;&gt;Node9</title>
<path fill="none" stroke="midnightblue" d="M451.74,-168.444C423.355,-159.32 378.224,-144.813 346.608,-134.651"/>
<polygon fill="midnightblue" stroke="midnightblue" points="347.447,-131.244 336.856,-131.516 345.305,-137.909 347.447,-131.244"/>
</g>
<!-- Node15&#45;&gt;Node12 -->
<g id="edge22" class="edge"><title>Node15&#45;&gt;Node12</title>
<path fill="none" stroke="midnightblue" d="M516.891,-170.296C541.815,-164.157 573.402,-152.74 594.361,-132 606.903,-119.588 613.582,-100.347 617.014,-86.0163"/>
<polygon fill="midnightblue" stroke="midnightblue" points="620.528,-86.3005 619.12,-75.7997 613.673,-84.8871 620.528,-86.3005"/>
</g>
<!-- Node15&#45;&gt;Node13 -->
<g id="edge30" class="edge"><title>Node15&#45;&gt;Node13</title>
<path fill="none" stroke="midnightblue" d="M482.676,-168.368C491.673,-150.376 512.585,-108.55 524.547,-84.6267"/>
<polygon fill="midnightblue" stroke="midnightblue" points="527.723,-86.101 529.065,-75.5914 521.462,-82.9704 527.723,-86.101"/>
</g>
<!-- Node16 -->
<g id="node16" class="node"><title>Node16</title>
<polygon fill="white" stroke="#bfbfbf" points="641.861,-112.5 641.861,-131.5 690.861,-131.5 690.861,-112.5 641.861,-112.5"/>
<text text-anchor="middle" x="666.361" y="-119.5" font-family="Helvetica,sans-Serif" font-size="10.00">cstdarg</text>
</g>
<!-- Node15&#45;&gt;Node16 -->
<g id="edge23" class="edge"><title>Node15&#45;&gt;Node16</title>
<path fill="none" stroke="midnightblue" d="M508.15,-168.444C541.792,-158.78 596.452,-143.08 631.905,-132.897"/>
<polygon fill="midnightblue" stroke="midnightblue" points="633.158,-136.178 641.803,-130.054 631.226,-129.451 633.158,-136.178"/>
</g>
<!-- Node17 -->
<g id="node17" class="node"><title>Node17</title>
<polygon fill="white" stroke="#bfbfbf" points="709.361,-112.5 709.361,-131.5 755.361,-131.5 755.361,-112.5 709.361,-112.5"/>
<text text-anchor="middle" x="732.361" y="-119.5" font-family="Helvetica,sans-Serif" font-size="10.00">cstdint</text>
</g>
<!-- Node15&#45;&gt;Node17 -->
<g id="edge24" class="edge"><title>Node15&#45;&gt;Node17</title>
<path fill="none" stroke="midnightblue" d="M517.253,-169.878C561.529,-161.586 635.937,-147.089 699.361,-132 699.462,-131.976 699.563,-131.952 699.664,-131.928"/>
<polygon fill="midnightblue" stroke="midnightblue" points="700.492,-135.329 709.331,-129.487 698.778,-128.542 700.492,-135.329"/>
</g>
<!-- Node18 -->
<g id="node18" class="node"><title>Node18</title>
<polygon fill="white" stroke="#bfbfbf" points="368.861,-112.5 368.861,-131.5 409.861,-131.5 409.861,-112.5 368.861,-112.5"/>
<text text-anchor="middle" x="389.361" y="-119.5" font-family="Helvetica,sans-Serif" font-size="10.00">ctime</text>
</g>
<!-- Node15&#45;&gt;Node18 -->
<g id="edge26" class="edge"><title>Node15&#45;&gt;Node18</title>
<path fill="none" stroke="midnightblue" d="M464.061,-168.324C450.178,-159.9 428.868,-146.971 412.557,-137.074"/>
<polygon fill="midnightblue" stroke="midnightblue" points="413.989,-133.85 403.624,-131.655 410.358,-139.834 413.989,-133.85"/>
</g>
<!-- Node19 -->
<g id="node19" class="node"><title>Node19</title>
<polygon fill="white" stroke="#bfbfbf" points="427.861,-112.5 427.861,-131.5 476.861,-131.5 476.861,-112.5 427.861,-112.5"/>
<text text-anchor="middle" x="452.361" y="-119.5" font-family="Helvetica,sans-Serif" font-size="10.00">cassert</text>
</g>
<!-- Node15&#45;&gt;Node19 -->
<g id="edge27" class="edge"><title>Node15&#45;&gt;Node19</title>
<path fill="none" stroke="midnightblue" d="M474.067,-168.083C470.508,-160.691 465.338,-149.953 460.936,-140.811"/>
<polygon fill="midnightblue" stroke="midnightblue" points="464.066,-139.243 456.574,-131.751 457.759,-142.279 464.066,-139.243"/>
</g>
<!-- Node20 -->
<g id="node20" class="node"><title>Node20</title>
<polygon fill="white" stroke="#bfbfbf" points="533.361,-112.5 533.361,-131.5 585.361,-131.5 585.361,-112.5 533.361,-112.5"/>
<text text-anchor="middle" x="559.361" y="-119.5" font-family="Helvetica,sans-Serif" font-size="10.00">mutex.h</text>
</g>
<!-- Node15&#45;&gt;Node20 -->
<g id="edge29" class="edge"><title>Node15&#45;&gt;Node20</title>
<path fill="none" stroke="midnightblue" d="M491.375,-168.324C503.892,-159.979 523.042,-147.212 537.832,-137.352"/>
<polygon fill="midnightblue" stroke="midnightblue" points="540,-140.114 546.379,-131.655 536.117,-134.289 540,-140.114"/>
</g>
</g>
</svg>
        <g id="navigator" transform="translate(0 0)" fill="#404254">
                <rect fill="#f2f5e9" fill-opacity="0.5" stroke="#606060" stroke-width=".5" x="0" y="0" width="60" height="60"/>
                <use id="zoomplus" xlink:href="#zoomPlus" x="17" y="9" onmousedown="handleZoom(evt,'in')"/>
                <use id="zoomminus" xlink:href="#zoomMin" x="42" y="9" onmousedown="handleZoom(evt,'out')"/>
                <use id="reset" xlink:href="#resetDef" x="30" y="36" onmousedown="handleReset()"/>
                <g id="arrowUp" xlink:href="#dirArrow" transform="translate(30 24)" onmousedown="handlePan(0,-1)">
                  <use xlink:href="#rim" fill="#404040">
                        <set attributeName="fill" to="#808080" begin="arrowUp.mouseover" end="arrowUp.mouseout"/>
                  </use>
                  <path fill="none" stroke="white" stroke-width="1.5" d="M0,-3.0v7 M-2.5,-0.5L0,-3.0L2.5,-0.5"/>
                </g>
                <g id="arrowRight" xlink:href="#dirArrow" transform="rotate(90) translate(36 -43)" onmousedown="handlePan(1,0)">
                  <use xlink:href="#rim" fill="#404040">
                        <set attributeName="fill" to="#808080" begin="arrowRight.mouseover" end="arrowRight.mouseout"/>
                  </use>
                  <path fill="none" stroke="white" stroke-width="1.5" d="M0,-3.0v7 M-2.5,-0.5L0,-3.0L2.5,-0.5"/>
                </g>
                <g id="arrowDown" xlink:href="#dirArrow" transform="rotate(180) translate(-30 -48)" onmousedown="handlePan(0,1)">
                  <use xlink:href="#rim" fill="#404040">
                        <set attributeName="fill" to="#808080" begin="arrowDown.mouseover" end="arrowDown.mouseout"/>
                  </use>
                  <path fill="none" stroke="white" stroke-width="1.5" d="M0,-3.0v7 M-2.5,-0.5L0,-3.0L2.5,-0.5"/>
                </g>
                <g id="arrowLeft" xlink:href="#dirArrow" transform="rotate(270) translate(-36 17)" onmousedown="handlePan(-1,0)">
                  <use xlink:href="#rim" fill="#404040">
                        <set attributeName="fill" to="#808080" begin="arrowLeft.mouseover" end="arrowLeft.mouseout"/>
                  </use>
                  <path fill="none" stroke="white" stroke-width="1.5" d="M0,-3.0v7 M-2.5,-0.5L0,-3.0L2.5,-0.5"/>
                </g>
        </g>
        <svg viewBox="0 0 15 15" width="100%" height="30px" preserveAspectRatio="xMaxYMin meet">
         <g id="arrow_out" transform="scale(0.3 0.3)">
          <a xlink:href="_i_plug_parameter_8cpp__incl_org.svg" target="_base">
           <rect id="button" ry="5" rx="5" y="6" x="6" height="38" width="38"
                fill="#f2f5e9" fill-opacity="0.5" stroke="#606060" stroke-width="1.0"/>
           <path id="arrow"
             d="M 11.500037,31.436501 C 11.940474,20.09759 22.043105,11.32322 32.158766,21.979434 L 37.068811,17.246167 C 37.068811,17.246167 37.088388,32 37.088388,32 L 22.160133,31.978069 C 22.160133,31.978069 26.997745,27.140456 26.997745,27.140456 C 18.528582,18.264221 13.291696,25.230495 11.500037,31.436501 z"
             style="fill:#404040;"/>
          </a>
         </g>
        </svg>
</svg>
