<?xml version="1.0" encoding="UTF-8" standalone="no"?>
<!DOCTYPE svg PUBLIC "-//W3C//DTD SVG 1.1//EN"
 "http://www.w3.org/Graphics/SVG/1.1/DTD/svg11.dtd">
<!-- Generated by graphviz version 2.36.0 (20140111.2315)
 -->
<!-- Title: IPlugPluginBase.cpp Pages: 1 -->
<svg width="1099pt" height="532pt"
 viewBox="0.00 0.00 1099.00 532.00" xmlns="http://www.w3.org/2000/svg" xmlns:xlink="http://www.w3.org/1999/xlink">
<g id="graph0" class="graph" transform="scale(1 1) rotate(0) translate(4 528)">
<title>IPlugPluginBase.cpp</title>
<polygon fill="white" stroke="none" points="-4,4 -4,-528 1095,-528 1095,4 -4,4"/>
<!-- Node1 -->
<g id="node1" class="node"><title>Node1</title>
<polygon fill="#bfbfbf" stroke="black" points="467.5,-504.5 467.5,-523.5 574.5,-523.5 574.5,-504.5 467.5,-504.5"/>
<text text-anchor="middle" x="521" y="-511.5" font-family="Helvetica,sans-Serif" font-size="10.00">IPlugPluginBase.cpp</text>
</g>
<!-- Node2 -->
<g id="node2" class="node"><title>Node2</title>
<g id="a_node2"><a xlink:href="_i_plug_plugin_base_8h.html" target="_top" xlink:title="Base class that contains plug&#45;in info and state manipulation methods. ">
<polygon fill="white" stroke="black" points="371.5,-448.5 371.5,-467.5 468.5,-467.5 468.5,-448.5 371.5,-448.5"/>
<text text-anchor="middle" x="420" y="-455.5" font-family="Helvetica,sans-Serif" font-size="10.00">IPlugPluginBase.h</text>
</a>
</g>
</g>
<!-- Node1&#45;&gt;Node2 -->
<g id="edge1" class="edge"><title>Node1&#45;&gt;Node2</title>
<path fill="none" stroke="midnightblue" d="M504.773,-504.324C488.649,-495.703 463.7,-482.364 445.036,-472.386"/>
<polygon fill="midnightblue" stroke="midnightblue" points="446.656,-469.283 436.187,-467.655 443.356,-475.456 446.656,-469.283"/>
</g>
<!-- Node28 -->
<g id="node28" class="node"><title>Node28</title>
<polygon fill="white" stroke="#bfbfbf" points="487,-448.5 487,-467.5 555,-467.5 555,-448.5 487,-448.5"/>
<text text-anchor="middle" x="521" y="-455.5" font-family="Helvetica,sans-Serif" font-size="10.00">wdlendian.h</text>
</g>
<!-- Node1&#45;&gt;Node28 -->
<g id="edge53" class="edge"><title>Node1&#45;&gt;Node28</title>
<path fill="none" stroke="midnightblue" d="M521,-504.083C521,-497.006 521,-486.861 521,-477.986"/>
<polygon fill="midnightblue" stroke="midnightblue" points="524.5,-477.751 521,-467.751 517.5,-477.751 524.5,-477.751"/>
</g>
<!-- Node29 -->
<g id="node29" class="node"><title>Node29</title>
<polygon fill="white" stroke="#bfbfbf" points="573.5,-448.5 573.5,-467.5 650.5,-467.5 650.5,-448.5 573.5,-448.5"/>
<text text-anchor="middle" x="612" y="-455.5" font-family="Helvetica,sans-Serif" font-size="10.00">wdl_base64.h</text>
</g>
<!-- Node1&#45;&gt;Node29 -->
<g id="edge54" class="edge"><title>Node1&#45;&gt;Node29</title>
<path fill="none" stroke="midnightblue" d="M535.621,-504.324C549.949,-495.822 572.013,-482.729 588.749,-472.797"/>
<polygon fill="midnightblue" stroke="midnightblue" points="590.602,-475.768 597.416,-467.655 587.03,-469.748 590.602,-475.768"/>
</g>
<!-- Node3 -->
<g id="node3" class="node"><title>Node3</title>
<g id="a_node3"><a xlink:href="_i_plug_delegate__select_8h.html" target="_top" xlink:title="Used for choosing an editor delegate. ">
<polygon fill="white" stroke="black" points="300,-392.5 300,-411.5 418,-411.5 418,-392.5 300,-392.5"/>
<text text-anchor="middle" x="359" y="-399.5" font-family="Helvetica,sans-Serif" font-size="10.00">IPlugDelegate_select.h</text>
</a>
</g>
</g>
<!-- Node2&#45;&gt;Node3 -->
<g id="edge2" class="edge"><title>Node2&#45;&gt;Node3</title>
<path fill="none" stroke="midnightblue" d="M410.199,-448.324C401.182,-440.341 387.594,-428.313 376.682,-418.653"/>
<polygon fill="midnightblue" stroke="midnightblue" points="378.787,-415.842 368.979,-411.834 374.147,-421.083 378.787,-415.842"/>
</g>
<!-- Node9 -->
<g id="node9" class="node"><title>Node9</title>
<g id="a_node9"><a xlink:href="_i_plug_parameter_8h.html" target="_top" xlink:title="IPlug&#39;s parameter class. ">
<polygon fill="white" stroke="black" points="134,-168.5 134,-187.5 226,-187.5 226,-168.5 134,-168.5"/>
<text text-anchor="middle" x="180" y="-175.5" font-family="Helvetica,sans-Serif" font-size="10.00">IPlugParameter.h</text>
</a>
</g>
</g>
<!-- Node2&#45;&gt;Node9 -->
<g id="edge50" class="edge"><title>Node2&#45;&gt;Node9</title>
<path fill="none" stroke="midnightblue" d="M373.155,-448.482C293.928,-432.728 142,-396.115 142,-347 142,-347 142,-347 142,-289 142,-254.813 158.6,-217.764 169.857,-196.571"/>
<polygon fill="midnightblue" stroke="midnightblue" points="172.947,-198.215 174.716,-187.769 166.819,-194.832 172.947,-198.215"/>
</g>
<!-- Node23 -->
<g id="node23" class="node"><title>Node23</title>
<g id="a_node23"><a xlink:href="_i_plug_logger_8h.html" target="_top" xlink:title="IPlug logging a.k.a tracing functionality. ">
<polygon fill="white" stroke="black" points="463.5,-168.5 463.5,-187.5 540.5,-187.5 540.5,-168.5 463.5,-168.5"/>
<text text-anchor="middle" x="502" y="-175.5" font-family="Helvetica,sans-Serif" font-size="10.00">IPlugLogger.h</text>
</a>
</g>
</g>
<!-- Node2&#45;&gt;Node23 -->
<g id="edge52" class="edge"><title>Node2&#45;&gt;Node23</title>
<path fill="none" stroke="midnightblue" d="M428.74,-448.493C445.607,-431.117 481,-389.582 481,-347 481,-347 481,-347 481,-289 481,-256.384 490.018,-219.278 496.235,-197.573"/>
<polygon fill="midnightblue" stroke="midnightblue" points="499.666,-198.315 499.168,-187.732 492.957,-196.316 499.666,-198.315"/>
</g>
<!-- Node27 -->
<g id="node27" class="node"><title>Node27</title>
<g id="a_node27"><a xlink:href="_i_plug_structs_8h_source.html" target="_top" xlink:title="IPlugStructs.h">
<polygon fill="white" stroke="black" points="697.5,-280.5 697.5,-299.5 776.5,-299.5 776.5,-280.5 697.5,-280.5"/>
<text text-anchor="middle" x="737" y="-287.5" font-family="Helvetica,sans-Serif" font-size="10.00">IPlugStructs.h</text>
</a>
</g>
</g>
<!-- Node2&#45;&gt;Node27 -->
<g id="edge51" class="edge"><title>Node2&#45;&gt;Node27</title>
<path fill="none" stroke="midnightblue" d="M436.597,-448.309C488.594,-421.08 648.6,-337.292 711.361,-304.426"/>
<polygon fill="midnightblue" stroke="midnightblue" points="713.332,-307.345 720.567,-299.605 710.085,-301.144 713.332,-307.345"/>
</g>
<!-- Node4 -->
<g id="node4" class="node"><title>Node4</title>
<g id="a_node4"><a xlink:href="_i_plug_editor_delegate_8h.html" target="_top" xlink:title="This pure virtual interface delegates communication in both directions between a UI editor and someth...">
<polygon fill="white" stroke="black" points="249,-336.5 249,-355.5 361,-355.5 361,-336.5 249,-336.5"/>
<text text-anchor="middle" x="305" y="-343.5" font-family="Helvetica,sans-Serif" font-size="10.00">IPlugEditorDelegate.h</text>
</a>
</g>
</g>
<!-- Node3&#45;&gt;Node4 -->
<g id="edge3" class="edge"><title>Node3&#45;&gt;Node4</title>
<path fill="none" stroke="midnightblue" d="M350.083,-392.083C342.22,-384.22 330.569,-372.569 321.081,-363.081"/>
<polygon fill="midnightblue" stroke="midnightblue" points="323.297,-360.347 313.751,-355.751 318.347,-365.297 323.297,-360.347"/>
</g>
<!-- Node5 -->
<g id="node5" class="node"><title>Node5</title>
<polygon fill="white" stroke="#bfbfbf" points="246.5,-112.5 246.5,-131.5 295.5,-131.5 295.5,-112.5 246.5,-112.5"/>
<text text-anchor="middle" x="271" y="-119.5" font-family="Helvetica,sans-Serif" font-size="10.00">cassert</text>
</g>
<!-- Node4&#45;&gt;Node5 -->
<g id="edge4" class="edge"><title>Node4&#45;&gt;Node5</title>
<path fill="none" stroke="midnightblue" d="M303.667,-336.297C298.664,-303.633 280.934,-187.866 273.903,-141.957"/>
<polygon fill="midnightblue" stroke="midnightblue" points="277.334,-141.239 272.361,-131.884 270.415,-142.298 277.334,-141.239"/>
</g>
<!-- Node6 -->
<g id="node6" class="node"><title>Node6</title>
<polygon fill="white" stroke="#bfbfbf" points="403,-0.5 403,-19.5 449,-19.5 449,-0.5 403,-0.5"/>
<text text-anchor="middle" x="426" y="-7.5" font-family="Helvetica,sans-Serif" font-size="10.00">cstring</text>
</g>
<!-- Node4&#45;&gt;Node6 -->
<g id="edge5" class="edge"><title>Node4&#45;&gt;Node6</title>
<path fill="none" stroke="midnightblue" d="M248.703,-336.506C160.575,-321.605 0,-287.279 0,-235 0,-235 0,-235 0,-121 0,-40.0235 292.214,-17.7254 392.607,-12.4541"/>
<polygon fill="midnightblue" stroke="midnightblue" points="392.982,-15.9399 402.794,-11.9437 392.631,-8.94863 392.982,-15.9399"/>
</g>
<!-- Node7 -->
<g id="node7" class="node"><title>Node7</title>
<polygon fill="white" stroke="#bfbfbf" points="208.5,-280.5 208.5,-299.5 257.5,-299.5 257.5,-280.5 208.5,-280.5"/>
<text text-anchor="middle" x="233" y="-287.5" font-family="Helvetica,sans-Serif" font-size="10.00">stdint.h</text>
</g>
<!-- Node4&#45;&gt;Node7 -->
<g id="edge6" class="edge"><title>Node4&#45;&gt;Node7</title>
<path fill="none" stroke="midnightblue" d="M293.432,-336.324C282.58,-328.185 266.119,-315.839 253.117,-306.087"/>
<polygon fill="midnightblue" stroke="midnightblue" points="254.879,-303.034 244.779,-299.834 250.679,-308.634 254.879,-303.034"/>
</g>
<!-- Node8 -->
<g id="node8" class="node"><title>Node8</title>
<polygon fill="white" stroke="#bfbfbf" points="299.5,-224.5 299.5,-243.5 348.5,-243.5 348.5,-224.5 299.5,-224.5"/>
<text text-anchor="middle" x="324" y="-231.5" font-family="Helvetica,sans-Serif" font-size="10.00">ptrlist.h</text>
</g>
<!-- Node4&#45;&gt;Node8 -->
<g id="edge7" class="edge"><title>Node4&#45;&gt;Node8</title>
<path fill="none" stroke="midnightblue" d="M306.491,-336.368C309.557,-318.617 316.63,-277.666 320.788,-253.597"/>
<polygon fill="midnightblue" stroke="midnightblue" points="324.263,-254.041 322.516,-243.591 317.365,-252.85 324.263,-254.041"/>
</g>
<!-- Node4&#45;&gt;Node9 -->
<g id="edge8" class="edge"><title>Node4&#45;&gt;Node9</title>
<path fill="none" stroke="midnightblue" d="M259.802,-336.489C238.173,-330.077 213.819,-318.994 199,-300 175.756,-270.207 175.627,-223.472 177.722,-197.672"/>
<polygon fill="midnightblue" stroke="midnightblue" points="181.205,-198.018 178.73,-187.716 174.24,-197.312 181.205,-198.018"/>
</g>
<!-- Node21 -->
<g id="node21" class="node"><title>Node21</title>
<g id="a_node21"><a xlink:href="_i_plug_midi_8h.html" target="_top" xlink:title="MIDI and sysex structs/utilites. ">
<polygon fill="white" stroke="black" points="366.5,-224.5 366.5,-243.5 431.5,-243.5 431.5,-224.5 366.5,-224.5"/>
<text text-anchor="middle" x="399" y="-231.5" font-family="Helvetica,sans-Serif" font-size="10.00">IPlugMidi.h</text>
</a>
</g>
</g>
<!-- Node4&#45;&gt;Node21 -->
<g id="edge25" class="edge"><title>Node4&#45;&gt;Node21</title>
<path fill="none" stroke="midnightblue" d="M312.376,-336.368C328.026,-318.055 364.776,-275.049 385.018,-251.362"/>
<polygon fill="midnightblue" stroke="midnightblue" points="387.823,-253.468 391.658,-243.591 382.501,-248.92 387.823,-253.468"/>
</g>
<!-- Node4&#45;&gt;Node27 -->
<g id="edge42" class="edge"><title>Node4&#45;&gt;Node27</title>
<path fill="none" stroke="midnightblue" d="M361.034,-337.996C446.09,-327.364 606.435,-307.321 687.461,-297.192"/>
<polygon fill="midnightblue" stroke="midnightblue" points="687.921,-300.662 697.41,-295.949 687.053,-293.716 687.921,-300.662"/>
</g>
<!-- Node9&#45;&gt;Node6 -->
<g id="edge10" class="edge"><title>Node9&#45;&gt;Node6</title>
<path fill="none" stroke="midnightblue" d="M181.807,-168.313C185.048,-154.694 193.052,-128.205 209,-112 261.164,-58.9959 346.446,-30.74 393.047,-18.5341"/>
<polygon fill="midnightblue" stroke="midnightblue" points="394.089,-21.8809 402.926,-16.0364 392.373,-15.0945 394.089,-21.8809"/>
</g>
<!-- Node10 -->
<g id="node10" class="node"><title>Node10</title>
<polygon fill="white" stroke="#bfbfbf" points="106,-112.5 106,-131.5 152,-131.5 152,-112.5 106,-112.5"/>
<text text-anchor="middle" x="129" y="-119.5" font-family="Helvetica,sans-Serif" font-size="10.00">atomic</text>
</g>
<!-- Node9&#45;&gt;Node10 -->
<g id="edge9" class="edge"><title>Node9&#45;&gt;Node10</title>
<path fill="none" stroke="midnightblue" d="M171.578,-168.083C164.152,-160.22 153.148,-148.569 144.188,-139.081"/>
<polygon fill="midnightblue" stroke="midnightblue" points="146.676,-136.618 137.265,-131.751 141.587,-141.424 146.676,-136.618"/>
</g>
<!-- Node11 -->
<g id="node11" class="node"><title>Node11</title>
<polygon fill="white" stroke="#bfbfbf" points="28.5,-112.5 28.5,-131.5 87.5,-131.5 87.5,-112.5 28.5,-112.5"/>
<text text-anchor="middle" x="58" y="-119.5" font-family="Helvetica,sans-Serif" font-size="10.00">functional</text>
</g>
<!-- Node9&#45;&gt;Node11 -->
<g id="edge11" class="edge"><title>Node9&#45;&gt;Node11</title>
<path fill="none" stroke="midnightblue" d="M160.669,-168.444C140.68,-159.596 109.257,-145.687 86.4361,-135.586"/>
<polygon fill="midnightblue" stroke="midnightblue" points="87.8018,-132.363 77.2408,-131.516 84.9685,-138.764 87.8018,-132.363"/>
</g>
<!-- Node12 -->
<g id="node12" class="node"><title>Node12</title>
<polygon fill="white" stroke="#bfbfbf" points="528,-56.5 528,-75.5 592,-75.5 592,-56.5 528,-56.5"/>
<text text-anchor="middle" x="560" y="-63.5" font-family="Helvetica,sans-Serif" font-size="10.00">wdlstring.h</text>
</g>
<!-- Node9&#45;&gt;Node12 -->
<g id="edge12" class="edge"><title>Node9&#45;&gt;Node12</title>
<path fill="none" stroke="midnightblue" d="M184.664,-168.499C193.047,-154.136 212.129,-125.328 237,-112 343.317,-55.0241 386.717,-93.9173 506,-76 509.855,-75.4209 513.861,-74.7964 517.87,-74.1558"/>
<polygon fill="midnightblue" stroke="midnightblue" points="518.452,-77.6073 527.76,-72.5473 517.328,-70.6981 518.452,-77.6073"/>
</g>
<!-- Node13 -->
<g id="node13" class="node"><title>Node13</title>
<g id="a_node13"><a xlink:href="_i_plug_utilities_8h.html" target="_top" xlink:title="Utility functions and macros. ">
<polygon fill="white" stroke="black" points="803,-112.5 803,-131.5 883,-131.5 883,-112.5 803,-112.5"/>
<text text-anchor="middle" x="843" y="-119.5" font-family="Helvetica,sans-Serif" font-size="10.00">IPlugUtilities.h</text>
</a>
</g>
</g>
<!-- Node9&#45;&gt;Node13 -->
<g id="edge13" class="edge"><title>Node9&#45;&gt;Node13</title>
<path fill="none" stroke="midnightblue" d="M226.094,-173.246C346.202,-163.463 668.085,-137.246 792.73,-127.094"/>
<polygon fill="midnightblue" stroke="midnightblue" points="793.083,-130.577 802.766,-126.277 792.515,-123.6 793.083,-130.577"/>
</g>
<!-- Node13&#45;&gt;Node6 -->
<g id="edge18" class="edge"><title>Node13&#45;&gt;Node6</title>
<path fill="none" stroke="midnightblue" d="M814.606,-112.438C788.155,-104.148 747.826,-90.7041 714,-76 696.497,-68.3914 694.047,-62.2076 676,-56 601.016,-30.2085 508.034,-18.4478 459.328,-13.7318"/>
<polygon fill="midnightblue" stroke="midnightblue" points="459.627,-10.2446 449.346,-12.8047 458.98,-17.2146 459.627,-10.2446"/>
</g>
<!-- Node13&#45;&gt;Node12 -->
<g id="edge20" class="edge"><title>Node13&#45;&gt;Node12</title>
<path fill="none" stroke="midnightblue" d="M802.754,-113.32C749.567,-103.172 656.3,-85.3752 602.168,-75.0461"/>
<polygon fill="midnightblue" stroke="midnightblue" points="602.689,-71.5825 592.21,-73.1461 601.377,-78.4585 602.689,-71.5825"/>
</g>
<!-- Node14 -->
<g id="node14" class="node"><title>Node14</title>
<polygon fill="white" stroke="#bfbfbf" points="1035,-56.5 1035,-75.5 1091,-75.5 1091,-56.5 1035,-56.5"/>
<text text-anchor="middle" x="1063" y="-63.5" font-family="Helvetica,sans-Serif" font-size="10.00">algorithm</text>
</g>
<!-- Node13&#45;&gt;Node14 -->
<g id="edge14" class="edge"><title>Node13&#45;&gt;Node14</title>
<path fill="none" stroke="midnightblue" d="M877.86,-112.444C917.958,-102.601 983.574,-86.4955 1024.96,-76.336"/>
<polygon fill="midnightblue" stroke="midnightblue" points="1026.06,-79.6716 1034.94,-73.8886 1024.39,-72.8734 1026.06,-79.6716"/>
</g>
<!-- Node15 -->
<g id="node15" class="node"><title>Node15</title>
<polygon fill="white" stroke="#bfbfbf" points="723,-56.5 723,-75.5 767,-75.5 767,-56.5 723,-56.5"/>
<text text-anchor="middle" x="745" y="-63.5" font-family="Helvetica,sans-Serif" font-size="10.00">cmath</text>
</g>
<!-- Node13&#45;&gt;Node15 -->
<g id="edge15" class="edge"><title>Node13&#45;&gt;Node15</title>
<path fill="none" stroke="midnightblue" d="M827.255,-112.324C811.681,-103.743 787.623,-90.486 769.541,-80.5224"/>
<polygon fill="midnightblue" stroke="midnightblue" points="771.154,-77.4152 760.706,-75.6545 767.776,-83.546 771.154,-77.4152"/>
</g>
<!-- Node16 -->
<g id="node16" class="node"><title>Node16</title>
<polygon fill="white" stroke="#bfbfbf" points="454.5,-56.5 454.5,-75.5 497.5,-75.5 497.5,-56.5 454.5,-56.5"/>
<text text-anchor="middle" x="476" y="-63.5" font-family="Helvetica,sans-Serif" font-size="10.00">cstdio</text>
</g>
<!-- Node13&#45;&gt;Node16 -->
<g id="edge16" class="edge"><title>Node13&#45;&gt;Node16</title>
<path fill="none" stroke="midnightblue" d="M802.96,-116.332C741.63,-108.981 620.83,-93.7068 519,-76 515.327,-75.3614 511.49,-74.6386 507.684,-73.887"/>
<polygon fill="midnightblue" stroke="midnightblue" points="508.318,-70.4443 497.82,-71.8684 506.915,-77.3022 508.318,-70.4443"/>
</g>
<!-- Node17 -->
<g id="node17" class="node"><title>Node17</title>
<polygon fill="white" stroke="#bfbfbf" points="839.5,-0.5 839.5,-19.5 884.5,-19.5 884.5,-0.5 839.5,-0.5"/>
<text text-anchor="middle" x="862" y="-7.5" font-family="Helvetica,sans-Serif" font-size="10.00">cstdlib</text>
</g>
<!-- Node13&#45;&gt;Node17 -->
<g id="edge17" class="edge"><title>Node13&#45;&gt;Node17</title>
<path fill="none" stroke="midnightblue" d="M852.288,-112.395C860.581,-104.025 872.144,-90.4826 877,-76 882.229,-60.4043 877.039,-42.106 871.381,-28.9045"/>
<polygon fill="midnightblue" stroke="midnightblue" points="874.391,-27.0845 866.933,-19.5589 868.07,-30.0926 874.391,-27.0845"/>
</g>
<!-- Node18 -->
<g id="node18" class="node"><title>Node18</title>
<polygon fill="white" stroke="#bfbfbf" points="621,-56.5 621,-75.5 667,-75.5 667,-56.5 621,-56.5"/>
<text text-anchor="middle" x="644" y="-63.5" font-family="Helvetica,sans-Serif" font-size="10.00">cctype</text>
</g>
<!-- Node13&#45;&gt;Node18 -->
<g id="edge19" class="edge"><title>Node13&#45;&gt;Node18</title>
<path fill="none" stroke="midnightblue" d="M811.468,-112.444C774.703,-102.467 714.223,-86.0556 676.887,-75.9242"/>
<polygon fill="midnightblue" stroke="midnightblue" points="677.577,-72.4848 667.009,-73.2437 675.744,-79.2405 677.577,-72.4848"/>
</g>
<!-- Node19 -->
<g id="node19" class="node"><title>Node19</title>
<g id="a_node19"><a xlink:href="_i_plug_constants_8h.html" target="_top" xlink:title="IPlug Constant definitions, Types, magic numbers. ">
<polygon fill="white" stroke="black" points="925,-56.5 925,-75.5 1017,-75.5 1017,-56.5 925,-56.5"/>
<text text-anchor="middle" x="971" y="-63.5" font-family="Helvetica,sans-Serif" font-size="10.00">IPlugConstants.h</text>
</a>
</g>
</g>
<!-- Node13&#45;&gt;Node19 -->
<g id="edge21" class="edge"><title>Node13&#45;&gt;Node19</title>
<path fill="none" stroke="midnightblue" d="M863.282,-112.444C884.347,-103.557 917.517,-89.5632 941.486,-79.4514"/>
<polygon fill="midnightblue" stroke="midnightblue" points="942.96,-82.6283 950.813,-75.5164 940.239,-76.1787 942.96,-82.6283"/>
</g>
<!-- Node20 -->
<g id="node20" class="node"><title>Node20</title>
<g id="a_node20"><a xlink:href="_i_plug_platform_8h.html" target="_top" xlink:title="Include to get consistently named preprocessor macros for different platforms and logging functionali...">
<polygon fill="white" stroke="black" points="785,-56.5 785,-75.5 869,-75.5 869,-56.5 785,-56.5"/>
<text text-anchor="middle" x="827" y="-63.5" font-family="Helvetica,sans-Serif" font-size="10.00">IPlugPlatform.h</text>
</a>
</g>
</g>
<!-- Node13&#45;&gt;Node20 -->
<g id="edge22" class="edge"><title>Node13&#45;&gt;Node20</title>
<path fill="none" stroke="midnightblue" d="M840.358,-112.083C838.214,-104.849 835.121,-94.4087 832.451,-85.3968"/>
<polygon fill="midnightblue" stroke="midnightblue" points="835.79,-84.3447 829.593,-75.7511 829.078,-86.3334 835.79,-84.3447"/>
</g>
<!-- Node20&#45;&gt;Node6 -->
<g id="edge23" class="edge"><title>Node20&#45;&gt;Node6</title>
<path fill="none" stroke="midnightblue" d="M784.739,-57.5287C781.447,-56.9945 778.171,-56.4786 775,-56 659.364,-38.5463 521.523,-22.0335 459.342,-14.8136"/>
<polygon fill="midnightblue" stroke="midnightblue" points="459.665,-11.3277 449.329,-13.6555 458.86,-18.2813 459.665,-11.3277"/>
</g>
<!-- Node20&#45;&gt;Node17 -->
<g id="edge24" class="edge"><title>Node20&#45;&gt;Node17</title>
<path fill="none" stroke="midnightblue" d="M832.78,-56.083C837.672,-48.5341 844.827,-37.4948 850.833,-28.2298"/>
<polygon fill="midnightblue" stroke="midnightblue" points="853.826,-30.0463 856.328,-19.7511 847.952,-26.239 853.826,-30.0463"/>
</g>
<!-- Node21&#45;&gt;Node5 -->
<g id="edge26" class="edge"><title>Node21&#45;&gt;Node5</title>
<path fill="none" stroke="midnightblue" d="M384.734,-224.499C370.932,-215.997 349.707,-202.178 333,-188 315.079,-172.791 296.769,-152.96 284.74,-139.221"/>
<polygon fill="midnightblue" stroke="midnightblue" points="287.304,-136.835 278.122,-131.55 282.004,-141.408 287.304,-136.835"/>
</g>
<!-- Node21&#45;&gt;Node14 -->
<g id="edge29" class="edge"><title>Node21&#45;&gt;Node14</title>
<path fill="none" stroke="midnightblue" d="M431.747,-229.414C515.023,-219.707 741.024,-189.691 921,-132 963.727,-118.304 1010.55,-95.1528 1038.32,-80.4942"/>
<polygon fill="midnightblue" stroke="midnightblue" points="1040.14,-83.4912 1047.31,-75.6929 1036.84,-77.3166 1040.14,-83.4912"/>
</g>
<!-- Node21&#45;&gt;Node16 -->
<g id="edge28" class="edge"><title>Node21&#45;&gt;Node16</title>
<path fill="none" stroke="midnightblue" d="M389.271,-224.498C366.872,-203.894 315.611,-150.182 343,-112 365.914,-80.0573 412.739,-70.5016 444.256,-67.8036"/>
<polygon fill="midnightblue" stroke="midnightblue" points="444.558,-71.2913 454.301,-67.129 444.089,-64.307 444.558,-71.2913"/>
</g>
<!-- Node22 -->
<g id="node22" class="node"><title>Node22</title>
<polygon fill="white" stroke="#bfbfbf" points="352,-112.5 352,-131.5 398,-131.5 398,-112.5 352,-112.5"/>
<text text-anchor="middle" x="375" y="-119.5" font-family="Helvetica,sans-Serif" font-size="10.00">cstdint</text>
</g>
<!-- Node21&#45;&gt;Node22 -->
<g id="edge27" class="edge"><title>Node21&#45;&gt;Node22</title>
<path fill="none" stroke="midnightblue" d="M397.117,-224.368C393.244,-206.617 384.309,-165.666 379.058,-141.597"/>
<polygon fill="midnightblue" stroke="midnightblue" points="382.426,-140.615 376.874,-131.591 375.587,-142.108 382.426,-140.615"/>
</g>
<!-- Node21&#45;&gt;Node23 -->
<g id="edge30" class="edge"><title>Node21&#45;&gt;Node23</title>
<path fill="none" stroke="midnightblue" d="M415.549,-224.324C431.992,-215.703 457.435,-202.364 476.468,-192.386"/>
<polygon fill="midnightblue" stroke="midnightblue" points="478.261,-195.398 485.492,-187.655 475.011,-189.198 478.261,-195.398"/>
</g>
<!-- Node23&#45;&gt;Node5 -->
<g id="edge37" class="edge"><title>Node23&#45;&gt;Node5</title>
<path fill="none" stroke="midnightblue" d="M465.397,-168.444C421.559,-158.196 348.675,-141.158 305.699,-131.111"/>
<polygon fill="midnightblue" stroke="midnightblue" points="306.246,-127.645 295.712,-128.777 304.652,-134.461 306.246,-127.645"/>
</g>
<!-- Node23&#45;&gt;Node6 -->
<g id="edge35" class="edge"><title>Node23&#45;&gt;Node6</title>
<path fill="none" stroke="midnightblue" d="M496.26,-168.43C485.086,-151.435 460.178,-111.991 445,-76 438.576,-60.7661 433.476,-42.655 430.184,-29.4245"/>
<polygon fill="midnightblue" stroke="midnightblue" points="433.574,-28.5482 427.855,-19.6291 426.763,-30.1675 433.574,-28.5482"/>
</g>
<!-- Node23&#45;&gt;Node12 -->
<g id="edge38" class="edge"><title>Node23&#45;&gt;Node12</title>
<path fill="none" stroke="midnightblue" d="M503.351,-168.128C505.591,-155.167 510.868,-130.58 521,-112 526.791,-101.381 535.435,-91.0685 543.114,-83.0009"/>
<polygon fill="midnightblue" stroke="midnightblue" points="545.755,-85.3092 550.331,-75.7534 540.795,-80.37 545.755,-85.3092"/>
</g>
<!-- Node23&#45;&gt;Node13 -->
<g id="edge41" class="edge"><title>Node23&#45;&gt;Node13</title>
<path fill="none" stroke="midnightblue" d="M540.549,-171.076C595.657,-162.58 700.128,-146.373 789,-132 790.267,-131.795 791.55,-131.587 792.844,-131.376"/>
<polygon fill="midnightblue" stroke="midnightblue" points="793.601,-134.799 802.903,-129.727 792.468,-127.891 793.601,-134.799"/>
</g>
<!-- Node23&#45;&gt;Node16 -->
<g id="edge31" class="edge"><title>Node23&#45;&gt;Node16</title>
<path fill="none" stroke="midnightblue" d="M499.009,-168.459C495.94,-159.47 491.178,-144.868 488,-132 484.213,-116.662 481.028,-99.0227 478.894,-85.9928"/>
<polygon fill="midnightblue" stroke="midnightblue" points="482.317,-85.2339 477.299,-75.9027 475.403,-86.3265 482.317,-85.2339"/>
</g>
<!-- Node23&#45;&gt;Node18 -->
<g id="edge32" class="edge"><title>Node23&#45;&gt;Node18</title>
<path fill="none" stroke="midnightblue" d="M540.66,-174.637C596.661,-170.317 696.069,-158.971 718,-132 734.888,-111.231 703.451,-91.5573 676.476,-79.4051"/>
<polygon fill="midnightblue" stroke="midnightblue" points="677.777,-76.1549 667.207,-75.431 675.019,-82.5885 677.777,-76.1549"/>
</g>
<!-- Node23&#45;&gt;Node19 -->
<g id="edge40" class="edge"><title>Node23&#45;&gt;Node19</title>
<path fill="none" stroke="midnightblue" d="M540.816,-175.307C626.517,-171.124 829.267,-158.647 892,-132 917.931,-120.985 942.058,-98.6645 956.661,-83.2778"/>
<polygon fill="midnightblue" stroke="midnightblue" points="959.562,-85.2931 963.745,-75.5589 954.404,-80.5601 959.562,-85.2931"/>
</g>
<!-- Node23&#45;&gt;Node22 -->
<g id="edge34" class="edge"><title>Node23&#45;&gt;Node22</title>
<path fill="none" stroke="midnightblue" d="M481.876,-168.444C460.976,-159.557 428.065,-145.563 404.284,-135.451"/>
<polygon fill="midnightblue" stroke="midnightblue" points="405.602,-132.208 395.029,-131.516 402.862,-138.65 405.602,-132.208"/>
</g>
<!-- Node24 -->
<g id="node24" class="node"><title>Node24</title>
<polygon fill="white" stroke="#bfbfbf" points="530.5,-112.5 530.5,-131.5 579.5,-131.5 579.5,-112.5 530.5,-112.5"/>
<text text-anchor="middle" x="555" y="-119.5" font-family="Helvetica,sans-Serif" font-size="10.00">cstdarg</text>
</g>
<!-- Node23&#45;&gt;Node24 -->
<g id="edge33" class="edge"><title>Node23&#45;&gt;Node24</title>
<path fill="none" stroke="midnightblue" d="M510.752,-168.083C518.47,-160.22 529.905,-148.569 539.217,-139.081"/>
<polygon fill="midnightblue" stroke="midnightblue" points="541.904,-141.34 546.411,-131.751 536.908,-136.436 541.904,-141.34"/>
</g>
<!-- Node25 -->
<g id="node25" class="node"><title>Node25</title>
<polygon fill="white" stroke="#bfbfbf" points="597.5,-112.5 597.5,-131.5 638.5,-131.5 638.5,-112.5 597.5,-112.5"/>
<text text-anchor="middle" x="618" y="-119.5" font-family="Helvetica,sans-Serif" font-size="10.00">ctime</text>
</g>
<!-- Node23&#45;&gt;Node25 -->
<g id="edge36" class="edge"><title>Node23&#45;&gt;Node25</title>
<path fill="none" stroke="midnightblue" d="M520.381,-168.444C539.216,-159.675 568.731,-145.935 590.379,-135.858"/>
<polygon fill="midnightblue" stroke="midnightblue" points="592.117,-138.91 599.705,-131.516 589.162,-132.564 592.117,-138.91"/>
</g>
<!-- Node26 -->
<g id="node26" class="node"><title>Node26</title>
<polygon fill="white" stroke="#bfbfbf" points="657,-112.5 657,-131.5 709,-131.5 709,-112.5 657,-112.5"/>
<text text-anchor="middle" x="683" y="-119.5" font-family="Helvetica,sans-Serif" font-size="10.00">mutex.h</text>
</g>
<!-- Node23&#45;&gt;Node26 -->
<g id="edge39" class="edge"><title>Node23&#45;&gt;Node26</title>
<path fill="none" stroke="midnightblue" d="M530.68,-168.444C562.253,-159.024 613.054,-143.868 647.211,-133.677"/>
<polygon fill="midnightblue" stroke="midnightblue" points="648.223,-137.028 656.805,-130.815 646.222,-130.32 648.223,-137.028"/>
</g>
<!-- Node27&#45;&gt;Node8 -->
<g id="edge45" class="edge"><title>Node27&#45;&gt;Node8</title>
<path fill="none" stroke="midnightblue" d="M697.314,-286.25C629.615,-281.137 487.385,-268.564 358.794,-244.115"/>
<polygon fill="midnightblue" stroke="midnightblue" points="359.256,-240.64 348.773,-242.18 357.928,-247.513 359.256,-240.64"/>
</g>
<!-- Node27&#45;&gt;Node12 -->
<g id="edge44" class="edge"><title>Node27&#45;&gt;Node12</title>
<path fill="none" stroke="midnightblue" d="M739.075,-280.355C745.26,-252.283 760.614,-162.58 718,-112 710.371,-102.945 646.153,-86.7015 601.975,-76.4065"/>
<polygon fill="midnightblue" stroke="midnightblue" points="602.583,-72.9549 592.052,-74.1152 601.008,-79.7754 602.583,-72.9549"/>
</g>
<!-- Node27&#45;&gt;Node13 -->
<g id="edge49" class="edge"><title>Node27&#45;&gt;Node13</title>
<path fill="none" stroke="midnightblue" d="M742.699,-280.075C759.601,-253.606 809.662,-175.209 832.011,-140.21"/>
<polygon fill="midnightblue" stroke="midnightblue" points="835.097,-141.88 837.529,-131.568 829.197,-138.113 835.097,-141.88"/>
</g>
<!-- Node27&#45;&gt;Node14 -->
<g id="edge43" class="edge"><title>Node27&#45;&gt;Node14</title>
<path fill="none" stroke="midnightblue" d="M766.834,-280.436C791.027,-272.798 825.501,-260.305 853,-244 933.913,-196.025 1014.83,-116.877 1047.69,-83.0925"/>
<polygon fill="midnightblue" stroke="midnightblue" points="1050.57,-85.1565 1054.98,-75.5272 1045.53,-80.2992 1050.57,-85.1565"/>
</g>
<!-- Node27&#45;&gt;Node19 -->
<g id="edge46" class="edge"><title>Node27&#45;&gt;Node19</title>
<path fill="none" stroke="midnightblue" d="M760.025,-280.426C779.272,-272.623 806.885,-259.908 828,-244 889.456,-197.7 940.174,-119.393 960.919,-84.5854"/>
<polygon fill="midnightblue" stroke="midnightblue" points="964.136,-86.0197 966.168,-75.6216 958.095,-82.4826 964.136,-86.0197"/>
</g>
<!-- Node27&#45;&gt;Node20 -->
<g id="edge47" class="edge"><title>Node27&#45;&gt;Node20</title>
<path fill="none" stroke="midnightblue" d="M751.445,-280.278C784.209,-259.52 863.519,-203.526 892,-132 895.288,-123.742 896.125,-119.874 892,-112 884.721,-98.1082 870.991,-87.6523 858.017,-80.3328"/>
<polygon fill="midnightblue" stroke="midnightblue" points="859.296,-77.0532 848.808,-75.553 856.072,-83.2662 859.296,-77.0532"/>
</g>
<!-- Node27&#45;&gt;Node21 -->
<g id="edge48" class="edge"><title>Node27&#45;&gt;Node21</title>
<path fill="none" stroke="midnightblue" d="M697.233,-282.647C633.128,-272.405 507.489,-252.333 441.613,-241.808"/>
<polygon fill="midnightblue" stroke="midnightblue" points="441.999,-238.325 431.572,-240.204 440.895,-245.238 441.999,-238.325"/>
</g>
</g>
</svg>
