<?xml version="1.0" encoding="UTF-8" standalone="no"?>
<!DOCTYPE svg PUBLIC "-//W3C//DTD SVG 1.1//EN"
 "http://www.w3.org/Graphics/SVG/1.1/DTD/svg11.dtd">
<!-- Generated by graphviz version 2.36.0 (20140111.2315)
 -->
<!-- Title: IPlugProcessor.h Pages: 1 -->
<svg width="900pt" height="196pt"
 viewBox="0.00 0.00 900.00 196.00" xmlns="http://www.w3.org/2000/svg" xmlns:xlink="http://www.w3.org/1999/xlink">
<g id="graph0" class="graph" transform="scale(1 1) rotate(0) translate(4 192)">
<title>IPlugProcessor.h</title>
<polygon fill="white" stroke="none" points="-4,4 -4,-192 896,-192 896,4 -4,4"/>
<!-- Node1 -->
<g id="node1" class="node"><title>Node1</title>
<polygon fill="#bfbfbf" stroke="black" points="349,-168.5 349,-187.5 441,-187.5 441,-168.5 349,-168.5"/>
<text text-anchor="middle" x="395" y="-175.5" font-family="Helvetica,sans-Serif" font-size="10.00">IPlugProcessor.h</text>
</g>
<!-- Node2 -->
<g id="node2" class="node"><title>Node2</title>
<g id="a_node2"><a xlink:href="_i_plug_a_a_x_8h.html" target="_top" xlink:title="AAX API base class for an IPlug plug&#45;in. ">
<polygon fill="white" stroke="black" points="32,-112.5 32,-131.5 100,-131.5 100,-112.5 32,-112.5"/>
<text text-anchor="middle" x="66" y="-119.5" font-family="Helvetica,sans-Serif" font-size="10.00">IPlugAAX.h</text>
</a>
</g>
</g>
<!-- Node1&#45;&gt;Node2 -->
<g id="edge1" class="edge"><title>Node1&#45;&gt;Node2</title>
<path fill="none" stroke="midnightblue" d="M338.732,-167.765C270.262,-156.526 156.812,-137.905 100.255,-128.622"/>
<polygon fill="midnightblue" stroke="midnightblue" points="338.473,-171.269 348.908,-169.435 339.606,-164.361 338.473,-171.269"/>
</g>
<!-- Node4 -->
<g id="node4" class="node"><title>Node4</title>
<g id="a_node4"><a xlink:href="_i_plug_a_p_p_8h.html" target="_top" xlink:title="Standalone application base class for an IPlug plug&#45;in. ">
<polygon fill="white" stroke="black" points="146,-112.5 146,-131.5 214,-131.5 214,-112.5 146,-112.5"/>
<text text-anchor="middle" x="180" y="-119.5" font-family="Helvetica,sans-Serif" font-size="10.00">IPlugAPP.h</text>
</a>
</g>
</g>
<!-- Node1&#45;&gt;Node4 -->
<g id="edge3" class="edge"><title>Node1&#45;&gt;Node4</title>
<path fill="none" stroke="midnightblue" d="M351.04,-165.959C310.433,-155.76 250.957,-140.822 213.908,-131.516"/>
<polygon fill="midnightblue" stroke="midnightblue" points="350.381,-169.402 360.933,-168.444 352.086,-162.613 350.381,-169.402"/>
</g>
<!-- Node10 -->
<g id="node10" class="node"><title>Node10</title>
<g id="a_node10"><a xlink:href="_i_plug_a_u_8h.html" target="_top" xlink:title="AudioUnit v2 API base class for an IPlug plug&#45;in. ">
<polygon fill="white" stroke="black" points="269,-112.5 269,-131.5 331,-131.5 331,-112.5 269,-112.5"/>
<text text-anchor="middle" x="300" y="-119.5" font-family="Helvetica,sans-Serif" font-size="10.00">IPlugAU.h</text>
</a>
</g>
</g>
<!-- Node1&#45;&gt;Node10 -->
<g id="edge10" class="edge"><title>Node1&#45;&gt;Node10</title>
<path fill="none" stroke="midnightblue" d="M370.682,-163.177C353.201,-153.241 330.17,-140.149 315.226,-131.655"/>
<polygon fill="midnightblue" stroke="midnightblue" points="369.313,-166.425 379.737,-168.324 372.773,-160.339 369.313,-166.425"/>
</g>
<!-- Node12 -->
<g id="node12" class="node"><title>Node12</title>
<g id="a_node12"><a xlink:href="_i_plug_v_s_t2_8h.html" target="_top" xlink:title="IPlugVST2.h">
<polygon fill="white" stroke="black" points="359,-112.5 359,-131.5 431,-131.5 431,-112.5 359,-112.5"/>
<text text-anchor="middle" x="395" y="-119.5" font-family="Helvetica,sans-Serif" font-size="10.00">IPlugVST2.h</text>
</a>
</g>
</g>
<!-- Node1&#45;&gt;Node12 -->
<g id="edge12" class="edge"><title>Node1&#45;&gt;Node12</title>
<path fill="none" stroke="midnightblue" d="M395,-157.805C395,-148.91 395,-138.78 395,-131.751"/>
<polygon fill="midnightblue" stroke="midnightblue" points="391.5,-158.083 395,-168.083 398.5,-158.083 391.5,-158.083"/>
</g>
<!-- Node15 -->
<g id="node15" class="node"><title>Node15</title>
<g id="a_node15"><a xlink:href="_i_plug_v_s_t3_8h.html" target="_top" xlink:title="VST3 base class for a non&#45;distributed IPlug VST3 plug&#45;in. ">
<polygon fill="white" stroke="black" points="467,-112.5 467,-131.5 539,-131.5 539,-112.5 467,-112.5"/>
<text text-anchor="middle" x="503" y="-119.5" font-family="Helvetica,sans-Serif" font-size="10.00">IPlugVST3.h</text>
</a>
</g>
</g>
<!-- Node1&#45;&gt;Node15 -->
<g id="edge15" class="edge"><title>Node1&#45;&gt;Node15</title>
<path fill="none" stroke="midnightblue" d="M421.548,-163.726C441.546,-153.727 468.387,-140.307 485.691,-131.655"/>
<polygon fill="midnightblue" stroke="midnightblue" points="419.731,-160.721 412.352,-168.324 422.862,-166.982 419.731,-160.721"/>
</g>
<!-- Node17 -->
<g id="node17" class="node"><title>Node17</title>
<g id="a_node17"><a xlink:href="_i_plug_v_s_t3___processor_8h.html" target="_top" xlink:title="VST3 Processor base class for a distributed IPlug VST3 plug&#45;in. ">
<polygon fill="white" stroke="black" points="593,-112.5 593,-131.5 715,-131.5 715,-112.5 593,-112.5"/>
<text text-anchor="middle" x="654" y="-119.5" font-family="Helvetica,sans-Serif" font-size="10.00">IPlugVST3_Processor.h</text>
</a>
</g>
</g>
<!-- Node1&#45;&gt;Node17 -->
<g id="edge17" class="edge"><title>Node1&#45;&gt;Node17</title>
<path fill="none" stroke="midnightblue" d="M446.102,-166.346C495.048,-156.141 567.954,-140.94 613.153,-131.516"/>
<polygon fill="midnightblue" stroke="midnightblue" points="445.114,-162.976 436.039,-168.444 446.543,-169.829 445.114,-162.976"/>
</g>
<!-- Node19 -->
<g id="node19" class="node"><title>Node19</title>
<g id="a_node19"><a xlink:href="_i_plug_w_a_m_8h_source.html" target="_top" xlink:title="IPlugWAM.h">
<polygon fill="white" stroke="black" points="805,-112.5 805,-131.5 877,-131.5 877,-112.5 805,-112.5"/>
<text text-anchor="middle" x="841" y="-119.5" font-family="Helvetica,sans-Serif" font-size="10.00">IPlugWAM.h</text>
</a>
</g>
</g>
<!-- Node1&#45;&gt;Node19 -->
<g id="edge19" class="edge"><title>Node1&#45;&gt;Node19</title>
<path fill="none" stroke="midnightblue" d="M451.101,-170.207C543.949,-158.966 727.022,-136.8 804.738,-127.39"/>
<polygon fill="midnightblue" stroke="midnightblue" points="450.557,-166.748 441.05,-171.424 451.398,-173.697 450.557,-166.748"/>
</g>
<!-- Node3 -->
<g id="node3" class="node"><title>Node3</title>
<g id="a_node3"><a xlink:href="_i_plug_a_a_x_8cpp_source.html" target="_top" xlink:title="IPlugAAX.cpp">
<polygon fill="white" stroke="black" points="0,-56.5 0,-75.5 78,-75.5 78,-56.5 0,-56.5"/>
<text text-anchor="middle" x="39" y="-63.5" font-family="Helvetica,sans-Serif" font-size="10.00">IPlugAAX.cpp</text>
</a>
</g>
</g>
<!-- Node2&#45;&gt;Node3 -->
<g id="edge2" class="edge"><title>Node2&#45;&gt;Node3</title>
<path fill="none" stroke="midnightblue" d="M56.9914,-102.983C52.4084,-93.8168 47.0461,-83.0922 43.3755,-75.7511"/>
<polygon fill="midnightblue" stroke="midnightblue" points="53.9388,-104.704 61.5415,-112.083 60.1998,-101.573 53.9388,-104.704"/>
</g>
<!-- Node5 -->
<g id="node5" class="node"><title>Node5</title>
<g id="a_node5"><a xlink:href="_i_plug_a_p_p_8cpp_source.html" target="_top" xlink:title="IPlugAPP.cpp">
<polygon fill="white" stroke="black" points="29,-0.5 29,-19.5 107,-19.5 107,-0.5 29,-0.5"/>
<text text-anchor="middle" x="68" y="-7.5" font-family="Helvetica,sans-Serif" font-size="10.00">IPlugAPP.cpp</text>
</a>
</g>
</g>
<!-- Node4&#45;&gt;Node5 -->
<g id="edge4" class="edge"><title>Node4&#45;&gt;Node5</title>
<path fill="none" stroke="midnightblue" d="M160.16,-106.061C149.392,-97.6392 136.061,-86.6887 125,-76 105.573,-57.2259 85.2852,-32.7179 74.9516,-19.8209"/>
<polygon fill="midnightblue" stroke="midnightblue" points="158.096,-108.889 168.153,-112.221 162.368,-103.345 158.096,-108.889"/>
</g>
<!-- Node6 -->
<g id="node6" class="node"><title>Node6</title>
<g id="a_node6"><a xlink:href="_i_plug_a_p_p__host_8h_source.html" target="_top" xlink:title="IPlugAPP_host.h">
<polygon fill="white" stroke="black" points="134,-56.5 134,-75.5 226,-75.5 226,-56.5 134,-56.5"/>
<text text-anchor="middle" x="180" y="-63.5" font-family="Helvetica,sans-Serif" font-size="10.00">IPlugAPP_host.h</text>
</a>
</g>
</g>
<!-- Node4&#45;&gt;Node6 -->
<g id="edge5" class="edge"><title>Node4&#45;&gt;Node6</title>
<path fill="none" stroke="midnightblue" d="M180,-101.805C180,-92.9102 180,-82.7798 180,-75.7511"/>
<polygon fill="midnightblue" stroke="midnightblue" points="176.5,-102.083 180,-112.083 183.5,-102.083 176.5,-102.083"/>
</g>
<!-- Node6&#45;&gt;Node5 -->
<g id="edge6" class="edge"><title>Node6&#45;&gt;Node5</title>
<path fill="none" stroke="midnightblue" d="M152.751,-51.8622C131.984,-41.8492 103.977,-28.3458 85.9501,-19.6545"/>
<polygon fill="midnightblue" stroke="midnightblue" points="151.477,-55.1336 162.005,-56.324 154.518,-48.8282 151.477,-55.1336"/>
</g>
<!-- Node7 -->
<g id="node7" class="node"><title>Node7</title>
<g id="a_node7"><a xlink:href="_i_plug_a_p_p__dialog_8cpp_source.html" target="_top" xlink:title="IPlugAPP_dialog.cpp">
<polygon fill="white" stroke="black" points="125.5,-0.5 125.5,-19.5 234.5,-19.5 234.5,-0.5 125.5,-0.5"/>
<text text-anchor="middle" x="180" y="-7.5" font-family="Helvetica,sans-Serif" font-size="10.00">IPlugAPP_dialog.cpp</text>
</a>
</g>
</g>
<!-- Node6&#45;&gt;Node7 -->
<g id="edge7" class="edge"><title>Node6&#45;&gt;Node7</title>
<path fill="none" stroke="midnightblue" d="M180,-45.8045C180,-36.9102 180,-26.7798 180,-19.7511"/>
<polygon fill="midnightblue" stroke="midnightblue" points="176.5,-46.083 180,-56.083 183.5,-46.083 176.5,-46.083"/>
</g>
<!-- Node8 -->
<g id="node8" class="node"><title>Node8</title>
<g id="a_node8"><a xlink:href="_i_plug_a_p_p__host_8cpp_source.html" target="_top" xlink:title="IPlugAPP_host.cpp">
<polygon fill="white" stroke="black" points="253,-0.5 253,-19.5 355,-19.5 355,-0.5 253,-0.5"/>
<text text-anchor="middle" x="304" y="-7.5" font-family="Helvetica,sans-Serif" font-size="10.00">IPlugAPP_host.cpp</text>
</a>
</g>
</g>
<!-- Node6&#45;&gt;Node8 -->
<g id="edge8" class="edge"><title>Node6&#45;&gt;Node8</title>
<path fill="none" stroke="midnightblue" d="M209.007,-52.3678C232.229,-42.2553 264.163,-28.3486 284.444,-19.5164"/>
<polygon fill="midnightblue" stroke="midnightblue" points="207.419,-49.2419 199.648,-56.4435 210.214,-55.6597 207.419,-49.2419"/>
</g>
<!-- Node9 -->
<g id="node9" class="node"><title>Node9</title>
<g id="a_node9"><a xlink:href="_i_plug_a_p_p__main_8cpp_source.html" target="_top" xlink:title="IPlugAPP_main.cpp">
<polygon fill="white" stroke="black" points="373,-0.5 373,-19.5 477,-19.5 477,-0.5 373,-0.5"/>
<text text-anchor="middle" x="425" y="-7.5" font-family="Helvetica,sans-Serif" font-size="10.00">IPlugAPP_main.cpp</text>
</a>
</g>
</g>
<!-- Node6&#45;&gt;Node9 -->
<g id="edge9" class="edge"><title>Node6&#45;&gt;Node9</title>
<path fill="none" stroke="midnightblue" d="M228.63,-54.2815C274.929,-44.0769 343.695,-28.9203 386.361,-19.5164"/>
<polygon fill="midnightblue" stroke="midnightblue" points="227.833,-50.8731 218.821,-56.4435 229.34,-57.709 227.833,-50.8731"/>
</g>
<!-- Node11 -->
<g id="node11" class="node"><title>Node11</title>
<g id="a_node11"><a xlink:href="_i_plug_a_u_8cpp_source.html" target="_top" xlink:title="IPlugAU.cpp">
<polygon fill="white" stroke="black" points="244,-56.5 244,-75.5 316,-75.5 316,-56.5 244,-56.5"/>
<text text-anchor="middle" x="280" y="-63.5" font-family="Helvetica,sans-Serif" font-size="10.00">IPlugAU.cpp</text>
</a>
</g>
</g>
<!-- Node10&#45;&gt;Node11 -->
<g id="edge11" class="edge"><title>Node10&#45;&gt;Node11</title>
<path fill="none" stroke="midnightblue" d="M293.218,-102.69C289.848,-93.589 285.931,-83.0141 283.241,-75.7511"/>
<polygon fill="midnightblue" stroke="midnightblue" points="289.942,-103.921 296.697,-112.083 296.506,-101.49 289.942,-103.921"/>
</g>
<!-- Node13 -->
<g id="node13" class="node"><title>Node13</title>
<g id="a_node13"><a xlink:href="_i_plug_reaper_v_s_t2_8h_source.html" target="_top" xlink:title="IPlugReaperVST2.h">
<polygon fill="white" stroke="black" points="334,-56.5 334,-75.5 438,-75.5 438,-56.5 334,-56.5"/>
<text text-anchor="middle" x="386" y="-63.5" font-family="Helvetica,sans-Serif" font-size="10.00">IPlugReaperVST2.h</text>
</a>
</g>
</g>
<!-- Node12&#45;&gt;Node13 -->
<g id="edge13" class="edge"><title>Node12&#45;&gt;Node13</title>
<path fill="none" stroke="midnightblue" d="M391.85,-102.101C390.356,-93.1357 388.643,-82.8579 387.459,-75.7511"/>
<polygon fill="midnightblue" stroke="midnightblue" points="388.417,-102.794 393.514,-112.083 395.322,-101.644 388.417,-102.794"/>
</g>
<!-- Node14 -->
<g id="node14" class="node"><title>Node14</title>
<g id="a_node14"><a xlink:href="_i_plug_v_s_t2_8cpp_source.html" target="_top" xlink:title="IPlugVST2.cpp">
<polygon fill="white" stroke="black" points="456.5,-56.5 456.5,-75.5 539.5,-75.5 539.5,-56.5 456.5,-56.5"/>
<text text-anchor="middle" x="498" y="-63.5" font-family="Helvetica,sans-Serif" font-size="10.00">IPlugVST2.cpp</text>
</a>
</g>
</g>
<!-- Node12&#45;&gt;Node14 -->
<g id="edge14" class="edge"><title>Node12&#45;&gt;Node14</title>
<path fill="none" stroke="midnightblue" d="M420.579,-107.59C439.623,-97.6052 465.064,-84.2672 481.492,-75.6545"/>
<polygon fill="midnightblue" stroke="midnightblue" points="418.78,-104.581 411.549,-112.324 422.031,-110.78 418.78,-104.581"/>
</g>
<!-- Node16 -->
<g id="node16" class="node"><title>Node16</title>
<g id="a_node16"><a xlink:href="_i_plug_v_s_t3_8cpp_source.html" target="_top" xlink:title="IPlugVST3.cpp">
<polygon fill="white" stroke="black" points="557.5,-56.5 557.5,-75.5 640.5,-75.5 640.5,-56.5 557.5,-56.5"/>
<text text-anchor="middle" x="599" y="-63.5" font-family="Helvetica,sans-Serif" font-size="10.00">IPlugVST3.cpp</text>
</a>
</g>
</g>
<!-- Node15&#45;&gt;Node16 -->
<g id="edge16" class="edge"><title>Node15&#45;&gt;Node16</title>
<path fill="none" stroke="midnightblue" d="M527.574,-107.177C545.239,-97.2407 568.513,-84.1492 583.614,-75.6545"/>
<polygon fill="midnightblue" stroke="midnightblue" points="525.424,-104.371 518.424,-112.324 528.856,-110.472 525.424,-104.371"/>
</g>
<!-- Node18 -->
<g id="node18" class="node"><title>Node18</title>
<g id="a_node18"><a xlink:href="_i_plug_v_s_t3___processor_8cpp_source.html" target="_top" xlink:title="IPlugVST3_Processor.cpp">
<polygon fill="white" stroke="black" points="659,-56.5 659,-75.5 791,-75.5 791,-56.5 659,-56.5"/>
<text text-anchor="middle" x="725" y="-63.5" font-family="Helvetica,sans-Serif" font-size="10.00">IPlugVST3_Processor.cpp</text>
</a>
</g>
</g>
<!-- Node17&#45;&gt;Node18 -->
<g id="edge18" class="edge"><title>Node17&#45;&gt;Node18</title>
<path fill="none" stroke="midnightblue" d="M673.59,-106.101C686.368,-96.3824 702.613,-84.0269 713.385,-75.8339"/>
<polygon fill="midnightblue" stroke="midnightblue" points="671.248,-103.484 665.407,-112.324 675.486,-109.056 671.248,-103.484"/>
</g>
<!-- Node20 -->
<g id="node20" class="node"><title>Node20</title>
<g id="a_node20"><a xlink:href="_i_plug_w_a_m_8cpp_source.html" target="_top" xlink:title="IPlugWAM.cpp">
<polygon fill="white" stroke="black" points="809.5,-56.5 809.5,-75.5 892.5,-75.5 892.5,-56.5 809.5,-56.5"/>
<text text-anchor="middle" x="851" y="-63.5" font-family="Helvetica,sans-Serif" font-size="10.00">IPlugWAM.cpp</text>
</a>
</g>
</g>
<!-- Node19&#45;&gt;Node20 -->
<g id="edge20" class="edge"><title>Node19&#45;&gt;Node20</title>
<path fill="none" stroke="midnightblue" d="M844.5,-102.101C846.16,-93.1357 848.063,-82.8579 849.379,-75.7511"/>
<polygon fill="midnightblue" stroke="midnightblue" points="841.031,-101.613 842.651,-112.083 847.914,-102.888 841.031,-101.613"/>
</g>
</g>
</svg>
