<?xml version="1.0" encoding="UTF-8" standalone="no"?>
<!DOCTYPE svg PUBLIC "-//W3C//DTD SVG 1.1//EN"
 "http://www.w3.org/Graphics/SVG/1.1/DTD/svg11.dtd">
<!-- Generated by graphviz version 2.36.0 (20140111.2315)
 -->
<!-- Title: IPlugAU.h Pages: 1 -->
<svg width="1605pt" height="588pt"
 viewBox="0.00 0.00 1605.00 588.00" xmlns="http://www.w3.org/2000/svg" xmlns:xlink="http://www.w3.org/1999/xlink">
<g id="graph0" class="graph" transform="scale(1 1) rotate(0) translate(4 584)">
<title>IPlugAU.h</title>
<polygon fill="white" stroke="none" points="-4,4 -4,-584 1601,-584 1601,4 -4,4"/>
<!-- Node1 -->
<g id="node1" class="node"><title>Node1</title>
<polygon fill="#bfbfbf" stroke="black" points="545,-560.5 545,-579.5 607,-579.5 607,-560.5 545,-560.5"/>
<text text-anchor="middle" x="576" y="-567.5" font-family="Helvetica,sans-Serif" font-size="10.00">IPlugAU.h</text>
</g>
<!-- Node2 -->
<g id="node2" class="node"><title>Node2</title>
<polygon fill="white" stroke="#bfbfbf" points="0,-504.5 0,-523.5 146,-523.5 146,-504.5 0,-504.5"/>
<text text-anchor="middle" x="73" y="-511.5" font-family="Helvetica,sans-Serif" font-size="10.00">CoreServices/CoreServices.h</text>
</g>
<!-- Node1&#45;&gt;Node2 -->
<g id="edge1" class="edge"><title>Node1&#45;&gt;Node2</title>
<path fill="none" stroke="midnightblue" d="M544.912,-565.683C476.77,-558.409 308.879,-540.472 156.344,-524.036"/>
<polygon fill="midnightblue" stroke="midnightblue" points="156.637,-520.547 146.32,-522.955 155.887,-527.507 156.637,-520.547"/>
</g>
<!-- Node3 -->
<g id="node3" class="node"><title>Node3</title>
<polygon fill="white" stroke="#bfbfbf" points="164.5,-504.5 164.5,-523.5 299.5,-523.5 299.5,-504.5 164.5,-504.5"/>
<text text-anchor="middle" x="232" y="-511.5" font-family="Helvetica,sans-Serif" font-size="10.00">AudioUnit/AUComponent.h</text>
</g>
<!-- Node1&#45;&gt;Node3 -->
<g id="edge2" class="edge"><title>Node1&#45;&gt;Node3</title>
<path fill="none" stroke="midnightblue" d="M544.866,-564.113C488.948,-555.335 370.453,-536.734 296.409,-525.111"/>
<polygon fill="midnightblue" stroke="midnightblue" points="296.689,-521.612 286.268,-523.519 295.604,-528.527 296.689,-521.612"/>
</g>
<!-- Node4 -->
<g id="node4" class="node"><title>Node4</title>
<polygon fill="white" stroke="#bfbfbf" points="318,-504.5 318,-523.5 476,-523.5 476,-504.5 318,-504.5"/>
<text text-anchor="middle" x="397" y="-511.5" font-family="Helvetica,sans-Serif" font-size="10.00">AudioUnit/AudioUnitProperties.h</text>
</g>
<!-- Node1&#45;&gt;Node4 -->
<g id="edge3" class="edge"><title>Node1&#45;&gt;Node4</title>
<path fill="none" stroke="midnightblue" d="M547.637,-560.444C517.262,-551.28 468.89,-536.688 435.184,-526.519"/>
<polygon fill="midnightblue" stroke="midnightblue" points="435.815,-523.054 425.23,-523.516 433.793,-529.756 435.815,-523.054"/>
</g>
<!-- Node5 -->
<g id="node5" class="node"><title>Node5</title>
<polygon fill="white" stroke="#bfbfbf" points="494.5,-504.5 494.5,-523.5 657.5,-523.5 657.5,-504.5 494.5,-504.5"/>
<text text-anchor="middle" x="576" y="-511.5" font-family="Helvetica,sans-Serif" font-size="10.00">AudioToolbox/AudioUnitUtilities.h</text>
</g>
<!-- Node1&#45;&gt;Node5 -->
<g id="edge4" class="edge"><title>Node1&#45;&gt;Node5</title>
<path fill="none" stroke="midnightblue" d="M576,-560.083C576,-553.006 576,-542.861 576,-533.986"/>
<polygon fill="midnightblue" stroke="midnightblue" points="579.5,-533.751 576,-523.751 572.5,-533.751 579.5,-533.751"/>
</g>
<!-- Node6 -->
<g id="node6" class="node"><title>Node6</title>
<polygon fill="white" stroke="#bfbfbf" points="676,-504.5 676,-523.5 780,-523.5 780,-504.5 676,-504.5"/>
<text text-anchor="middle" x="728" y="-511.5" font-family="Helvetica,sans-Serif" font-size="10.00">AvailabilityMacros.h</text>
</g>
<!-- Node1&#45;&gt;Node6 -->
<g id="edge5" class="edge"><title>Node1&#45;&gt;Node6</title>
<path fill="none" stroke="midnightblue" d="M600.085,-560.444C625.545,-551.399 665.894,-537.064 694.459,-526.916"/>
<polygon fill="midnightblue" stroke="midnightblue" points="695.777,-530.162 704.028,-523.516 693.433,-523.566 695.777,-530.162"/>
</g>
<!-- Node7 -->
<g id="node7" class="node"><title>Node7</title>
<g id="a_node7"><a xlink:href="_i_plug_a_p_i_base_8h.html" target="_top" xlink:title="The base class of an IPlug plug&#45;in, which interacts with the different plug&#45;in APIs. ">
<polygon fill="white" stroke="black" points="798,-504.5 798,-523.5 884,-523.5 884,-504.5 798,-504.5"/>
<text text-anchor="middle" x="841" y="-511.5" font-family="Helvetica,sans-Serif" font-size="10.00">IPlugAPIBase.h</text>
</a>
</g>
</g>
<!-- Node1&#45;&gt;Node7 -->
<g id="edge6" class="edge"><title>Node1&#45;&gt;Node7</title>
<path fill="none" stroke="midnightblue" d="M607.178,-562.647C651.908,-553.532 734.85,-536.631 788.967,-525.603"/>
<polygon fill="midnightblue" stroke="midnightblue" points="789.954,-528.974 799.053,-523.548 788.556,-522.115 789.954,-528.974"/>
</g>
<!-- Node37 -->
<g id="node37" class="node"><title>Node37</title>
<g id="a_node37"><a xlink:href="_i_plug_processor_8h.html" target="_top" xlink:title="The base class for IPlug Audio Processing. ">
<polygon fill="white" stroke="black" points="1229,-336.5 1229,-355.5 1321,-355.5 1321,-336.5 1229,-336.5"/>
<text text-anchor="middle" x="1275" y="-343.5" font-family="Helvetica,sans-Serif" font-size="10.00">IPlugProcessor.h</text>
</a>
</g>
</g>
<!-- Node1&#45;&gt;Node37 -->
<g id="edge78" class="edge"><title>Node1&#45;&gt;Node37</title>
<path fill="none" stroke="midnightblue" d="M607.003,-566.736C715.502,-558.365 1076.86,-526.574 1175,-468 1217.75,-442.488 1250.4,-391.779 1265.61,-364.819"/>
<polygon fill="midnightblue" stroke="midnightblue" points="1268.84,-366.205 1270.56,-355.752 1262.7,-362.848 1268.84,-366.205"/>
</g>
<!-- Node8 -->
<g id="node8" class="node"><title>Node8</title>
<polygon fill="white" stroke="#bfbfbf" points="764,-0.5 764,-19.5 810,-19.5 810,-0.5 764,-0.5"/>
<text text-anchor="middle" x="787" y="-7.5" font-family="Helvetica,sans-Serif" font-size="10.00">cstring</text>
</g>
<!-- Node7&#45;&gt;Node8 -->
<g id="edge7" class="edge"><title>Node7&#45;&gt;Node8</title>
<path fill="none" stroke="midnightblue" d="M884.086,-511.31C1044.37,-504.459 1597,-475.575 1597,-403 1597,-403 1597,-403 1597,-121 1597,-62.6761 1538.87,-72.7551 1483,-56 1356.62,-18.0976 941.053,-12.1158 820.225,-11.1749"/>
<polygon fill="midnightblue" stroke="midnightblue" points="820.131,-7.67425 810.107,-11.1028 820.081,-14.6741 820.131,-7.67425"/>
</g>
<!-- Node9 -->
<g id="node9" class="node"><title>Node9</title>
<polygon fill="white" stroke="#bfbfbf" points="1096,-112.5 1096,-131.5 1142,-131.5 1142,-112.5 1096,-112.5"/>
<text text-anchor="middle" x="1119" y="-119.5" font-family="Helvetica,sans-Serif" font-size="10.00">cstdint</text>
</g>
<!-- Node7&#45;&gt;Node9 -->
<g id="edge8" class="edge"><title>Node7&#45;&gt;Node9</title>
<path fill="none" stroke="midnightblue" d="M884.164,-510.576C932.493,-506.549 1012.26,-495.914 1075,-468 1118.77,-448.525 1161,-450.911 1161,-403 1161,-403 1161,-403 1161,-289 1161,-233.93 1139.01,-171.636 1126.85,-141.41"/>
<polygon fill="midnightblue" stroke="midnightblue" points="1129.93,-139.702 1122.88,-131.798 1123.46,-142.376 1129.93,-139.702"/>
</g>
<!-- Node10 -->
<g id="node10" class="node"><title>Node10</title>
<polygon fill="white" stroke="#bfbfbf" points="1083.5,-224.5 1083.5,-243.5 1132.5,-243.5 1132.5,-224.5 1083.5,-224.5"/>
<text text-anchor="middle" x="1108" y="-231.5" font-family="Helvetica,sans-Serif" font-size="10.00">ptrlist.h</text>
</g>
<!-- Node7&#45;&gt;Node10 -->
<g id="edge9" class="edge"><title>Node7&#45;&gt;Node10</title>
<path fill="none" stroke="midnightblue" d="M884.061,-512.301C954.108,-508.634 1085,-490.125 1085,-403 1085,-403 1085,-403 1085,-345 1085,-312.12 1094.97,-274.86 1101.78,-253.235"/>
<polygon fill="midnightblue" stroke="midnightblue" points="1105.11,-254.303 1104.9,-243.711 1098.46,-252.125 1105.11,-254.303"/>
</g>
<!-- Node11 -->
<g id="node11" class="node"><title>Node11</title>
<polygon fill="white" stroke="#bfbfbf" points="488,-112.5 488,-131.5 540,-131.5 540,-112.5 488,-112.5"/>
<text text-anchor="middle" x="514" y="-119.5" font-family="Helvetica,sans-Serif" font-size="10.00">mutex.h</text>
</g>
<!-- Node7&#45;&gt;Node11 -->
<g id="edge10" class="edge"><title>Node7&#45;&gt;Node11</title>
<path fill="none" stroke="midnightblue" d="M797.971,-505.385C756.681,-497.303 698.143,-483.568 681,-468 614.645,-407.741 647.385,-360.517 608,-280 582.039,-226.926 544.188,-168.107 525.424,-139.901"/>
<polygon fill="midnightblue" stroke="midnightblue" points="528.311,-137.921 519.837,-131.561 522.495,-141.817 528.311,-137.921"/>
</g>
<!-- Node12 -->
<g id="node12" class="node"><title>Node12</title>
<g id="a_node12"><a xlink:href="_i_plug_platform_8h.html" target="_top" xlink:title="Include to get consistently named preprocessor macros for different platforms and logging functionali...">
<polygon fill="white" stroke="black" points="209,-56.5 209,-75.5 293,-75.5 293,-56.5 209,-56.5"/>
<text text-anchor="middle" x="251" y="-63.5" font-family="Helvetica,sans-Serif" font-size="10.00">IPlugPlatform.h</text>
</a>
</g>
</g>
<!-- Node7&#45;&gt;Node12 -->
<g id="edge11" class="edge"><title>Node7&#45;&gt;Node12</title>
<path fill="none" stroke="midnightblue" d="M797.909,-505.282C794.898,-504.822 791.906,-504.39 789,-504 638.893,-483.873 115,-554.45 115,-403 115,-403 115,-403 115,-177 115,-126.081 173.344,-94.6742 213.603,-79.0633"/>
<polygon fill="midnightblue" stroke="midnightblue" points="214.992,-82.2814 223.15,-75.522 212.557,-75.7184 214.992,-82.2814"/>
</g>
<!-- Node14 -->
<g id="node14" class="node"><title>Node14</title>
<g id="a_node14"><a xlink:href="_i_plug_plugin_base_8h.html" target="_top" xlink:title="Base class that contains plug&#45;in info and state manipulation methods. ">
<polygon fill="white" stroke="black" points="792.5,-448.5 792.5,-467.5 889.5,-467.5 889.5,-448.5 792.5,-448.5"/>
<text text-anchor="middle" x="841" y="-455.5" font-family="Helvetica,sans-Serif" font-size="10.00">IPlugPluginBase.h</text>
</a>
</g>
</g>
<!-- Node7&#45;&gt;Node14 -->
<g id="edge14" class="edge"><title>Node7&#45;&gt;Node14</title>
<path fill="none" stroke="midnightblue" d="M841,-504.083C841,-497.006 841,-486.861 841,-477.986"/>
<polygon fill="midnightblue" stroke="midnightblue" points="844.5,-477.751 841,-467.751 837.5,-477.751 844.5,-477.751"/>
</g>
<!-- Node19 -->
<g id="node19" class="node"><title>Node19</title>
<g id="a_node19"><a xlink:href="_i_plug_parameter_8h.html" target="_top" xlink:title="IPlug&#39;s parameter class. ">
<polygon fill="white" stroke="black" points="507,-280.5 507,-299.5 599,-299.5 599,-280.5 507,-280.5"/>
<text text-anchor="middle" x="553" y="-287.5" font-family="Helvetica,sans-Serif" font-size="10.00">IPlugParameter.h</text>
</a>
</g>
</g>
<!-- Node7&#45;&gt;Node19 -->
<g id="edge67" class="edge"><title>Node7&#45;&gt;Node19</title>
<path fill="none" stroke="midnightblue" d="M797.872,-505.525C794.869,-505.008 791.89,-504.495 789,-504 741.902,-495.925 610.22,-502.35 577,-468 535.371,-424.955 542.888,-346.14 549.095,-310.009"/>
<polygon fill="midnightblue" stroke="midnightblue" points="552.592,-310.352 551.001,-299.877 545.713,-309.058 552.592,-310.352"/>
</g>
<!-- Node23 -->
<g id="node23" class="node"><title>Node23</title>
<g id="a_node23"><a xlink:href="_i_plug_utilities_8h.html" target="_top" xlink:title="Utility functions and macros. ">
<polygon fill="white" stroke="black" points="634,-112.5 634,-131.5 714,-131.5 714,-112.5 634,-112.5"/>
<text text-anchor="middle" x="674" y="-119.5" font-family="Helvetica,sans-Serif" font-size="10.00">IPlugUtilities.h</text>
</a>
</g>
</g>
<!-- Node7&#45;&gt;Node23 -->
<g id="edge66" class="edge"><title>Node7&#45;&gt;Node23</title>
<path fill="none" stroke="midnightblue" d="M797.989,-505.307C746.462,-493.326 667,-464.828 667,-403 667,-403 667,-403 667,-233 667,-200.883 670.009,-163.598 672.081,-141.726"/>
<polygon fill="midnightblue" stroke="midnightblue" points="675.587,-141.841 673.085,-131.546 668.62,-141.154 675.587,-141.841"/>
</g>
<!-- Node28 -->
<g id="node28" class="node"><title>Node28</title>
<g id="a_node28"><a xlink:href="_i_plug_constants_8h.html" target="_top" xlink:title="IPlug Constant definitions, Types, magic numbers. ">
<polygon fill="white" stroke="black" points="1337,-56.5 1337,-75.5 1429,-75.5 1429,-56.5 1337,-56.5"/>
<text text-anchor="middle" x="1383" y="-63.5" font-family="Helvetica,sans-Serif" font-size="10.00">IPlugConstants.h</text>
</a>
</g>
</g>
<!-- Node7&#45;&gt;Node28 -->
<g id="edge64" class="edge"><title>Node7&#45;&gt;Node28</title>
<path fill="none" stroke="midnightblue" d="M884.328,-508.778C938.864,-502.807 1035.08,-490.085 1115,-468 1310.77,-413.9 1425.79,-467.958 1540,-300 1596.25,-217.279 1461.62,-117.562 1405.84,-81.1681"/>
<polygon fill="midnightblue" stroke="midnightblue" points="1407.61,-78.1458 1397.3,-75.6926 1403.83,-84.0378 1407.61,-78.1458"/>
</g>
<!-- Node33 -->
<g id="node33" class="node"><title>Node33</title>
<g id="a_node33"><a xlink:href="_i_plug_structs_8h_source.html" target="_top" xlink:title="IPlugStructs.h">
<polygon fill="white" stroke="black" points="939.5,-280.5 939.5,-299.5 1018.5,-299.5 1018.5,-280.5 939.5,-280.5"/>
<text text-anchor="middle" x="979" y="-287.5" font-family="Helvetica,sans-Serif" font-size="10.00">IPlugStructs.h</text>
</a>
</g>
</g>
<!-- Node7&#45;&gt;Node33 -->
<g id="edge65" class="edge"><title>Node7&#45;&gt;Node33</title>
<path fill="none" stroke="midnightblue" d="M857.615,-504.465C885.267,-489.444 940.773,-455.69 972,-412 992.246,-383.674 995.524,-370.522 991,-336 989.844,-327.181 987.466,-317.633 985.13,-309.61"/>
<polygon fill="midnightblue" stroke="midnightblue" points="988.399,-308.337 982.088,-299.827 981.715,-310.415 988.399,-308.337"/>
</g>
<!-- Node34 -->
<g id="node34" class="node"><title>Node34</title>
<g id="a_node34"><a xlink:href="_i_plug_queue_8h.html" target="_top" xlink:title="A lock&#45;free SPSC queue used to transfer data between threads based on MLQueue.h by Randy Jones based ...">
<polygon fill="white" stroke="black" points="449,-448.5 449,-467.5 525,-467.5 525,-448.5 449,-448.5"/>
<text text-anchor="middle" x="487" y="-455.5" font-family="Helvetica,sans-Serif" font-size="10.00">IPlugQueue.h</text>
</a>
</g>
</g>
<!-- Node7&#45;&gt;Node34 -->
<g id="edge68" class="edge"><title>Node7&#45;&gt;Node34</title>
<path fill="none" stroke="midnightblue" d="M797.885,-505.441C794.88,-504.944 791.896,-504.459 789,-504 678.127,-486.426 649.873,-485.574 539,-468 537.727,-467.798 536.438,-467.592 535.137,-467.381"/>
<polygon fill="midnightblue" stroke="midnightblue" points="535.472,-463.889 525.035,-465.711 534.33,-470.795 535.472,-463.889"/>
</g>
<!-- Node36 -->
<g id="node36" class="node"><title>Node36</title>
<g id="a_node36"><a xlink:href="_i_plug_timer_8h.html" target="_top" xlink:title="This file includes classes for implementing timers &#45; in order to get a regular callback on the main t...">
<polygon fill="white" stroke="black" points="299,-280.5 299,-299.5 371,-299.5 371,-280.5 299,-280.5"/>
<text text-anchor="middle" x="335" y="-287.5" font-family="Helvetica,sans-Serif" font-size="10.00">IPlugTimer.h</text>
</a>
</g>
</g>
<!-- Node7&#45;&gt;Node36 -->
<g id="edge71" class="edge"><title>Node7&#45;&gt;Node36</title>
<path fill="none" stroke="midnightblue" d="M797.905,-505.307C794.895,-504.842 791.904,-504.401 789,-504 711.764,-493.345 505.679,-510.013 440,-468 381.083,-430.312 350.875,-346.771 339.92,-309.535"/>
<polygon fill="midnightblue" stroke="midnightblue" points="343.196,-308.253 337.128,-299.568 336.455,-310.141 343.196,-308.253"/>
</g>
<!-- Node12&#45;&gt;Node8 -->
<g id="edge12" class="edge"><title>Node12&#45;&gt;Node8</title>
<path fill="none" stroke="midnightblue" d="M293.154,-57.9202C297.82,-57.2275 302.507,-56.5711 307,-56 474.325,-34.7343 675.659,-19.0638 753.772,-13.3572"/>
<polygon fill="midnightblue" stroke="midnightblue" points="754.239,-16.8326 763.96,-12.6186 753.733,-9.85092 754.239,-16.8326"/>
</g>
<!-- Node13 -->
<g id="node13" class="node"><title>Node13</title>
<polygon fill="white" stroke="#bfbfbf" points="514.5,-0.5 514.5,-19.5 559.5,-19.5 559.5,-0.5 514.5,-0.5"/>
<text text-anchor="middle" x="537" y="-7.5" font-family="Helvetica,sans-Serif" font-size="10.00">cstdlib</text>
</g>
<!-- Node12&#45;&gt;Node13 -->
<g id="edge13" class="edge"><title>Node12&#45;&gt;Node13</title>
<path fill="none" stroke="midnightblue" d="M293.2,-57.0321C350.62,-46.1906 452.158,-27.0192 504.216,-17.19"/>
<polygon fill="midnightblue" stroke="midnightblue" points="505.063,-20.5919 514.24,-15.2973 503.765,-13.7135 505.063,-20.5919"/>
</g>
<!-- Node15 -->
<g id="node15" class="node"><title>Node15</title>
<g id="a_node15"><a xlink:href="_i_plug_delegate__select_8h.html" target="_top" xlink:title="Used for choosing an editor delegate. ">
<polygon fill="white" stroke="black" points="825,-392.5 825,-411.5 943,-411.5 943,-392.5 825,-392.5"/>
<text text-anchor="middle" x="884" y="-399.5" font-family="Helvetica,sans-Serif" font-size="10.00">IPlugDelegate_select.h</text>
</a>
</g>
</g>
<!-- Node14&#45;&gt;Node15 -->
<g id="edge15" class="edge"><title>Node14&#45;&gt;Node15</title>
<path fill="none" stroke="midnightblue" d="M848.101,-448.083C854.237,-440.377 863.27,-429.033 870.739,-419.653"/>
<polygon fill="midnightblue" stroke="midnightblue" points="873.54,-421.754 877.032,-411.751 868.064,-417.394 873.54,-421.754"/>
</g>
<!-- Node14&#45;&gt;Node19 -->
<g id="edge61" class="edge"><title>Node14&#45;&gt;Node19</title>
<path fill="none" stroke="midnightblue" d="M825.921,-448.309C778.778,-421.136 633.911,-337.636 576.647,-304.63"/>
<polygon fill="midnightblue" stroke="midnightblue" points="578.341,-301.567 567.929,-299.605 574.845,-307.631 578.341,-301.567"/>
</g>
<!-- Node30 -->
<g id="node30" class="node"><title>Node30</title>
<g id="a_node30"><a xlink:href="_i_plug_logger_8h.html" target="_top" xlink:title="IPlug logging a.k.a tracing functionality. ">
<polygon fill="white" stroke="black" points="847.5,-168.5 847.5,-187.5 924.5,-187.5 924.5,-168.5 847.5,-168.5"/>
<text text-anchor="middle" x="886" y="-175.5" font-family="Helvetica,sans-Serif" font-size="10.00">IPlugLogger.h</text>
</a>
</g>
</g>
<!-- Node14&#45;&gt;Node30 -->
<g id="edge63" class="edge"><title>Node14&#45;&gt;Node30</title>
<path fill="none" stroke="midnightblue" d="M834.371,-448.275C828.235,-439.607 819.542,-425.669 816,-412 812.176,-397.243 815.233,-355.944 820,-336 832.673,-282.983 861.322,-224.903 876.364,-196.548"/>
<polygon fill="midnightblue" stroke="midnightblue" points="879.571,-197.975 881.236,-187.511 873.41,-194.653 879.571,-197.975"/>
</g>
<!-- Node14&#45;&gt;Node33 -->
<g id="edge62" class="edge"><title>Node14&#45;&gt;Node33</title>
<path fill="none" stroke="midnightblue" d="M888.325,-448.437C910.689,-442.029 935.943,-430.964 952,-412 976.716,-382.81 980.128,-335.841 979.904,-309.841"/>
<polygon fill="midnightblue" stroke="midnightblue" points="983.401,-309.699 979.623,-299.801 976.404,-309.896 983.401,-309.699"/>
</g>
<!-- Node16 -->
<g id="node16" class="node"><title>Node16</title>
<g id="a_node16"><a xlink:href="_i_plug_editor_delegate_8h.html" target="_top" xlink:title="This pure virtual interface delegates communication in both directions between a UI editor and someth...">
<polygon fill="white" stroke="black" points="829,-336.5 829,-355.5 941,-355.5 941,-336.5 829,-336.5"/>
<text text-anchor="middle" x="885" y="-343.5" font-family="Helvetica,sans-Serif" font-size="10.00">IPlugEditorDelegate.h</text>
</a>
</g>
</g>
<!-- Node15&#45;&gt;Node16 -->
<g id="edge16" class="edge"><title>Node15&#45;&gt;Node16</title>
<path fill="none" stroke="midnightblue" d="M884.165,-392.083C884.296,-385.006 884.484,-374.861 884.648,-365.986"/>
<polygon fill="midnightblue" stroke="midnightblue" points="888.152,-365.814 884.838,-355.751 881.153,-365.685 888.152,-365.814"/>
</g>
<!-- Node16&#45;&gt;Node8 -->
<g id="edge18" class="edge"><title>Node16&#45;&gt;Node8</title>
<path fill="none" stroke="midnightblue" d="M941.079,-337.38C1110.34,-312.322 1595.06,-224.291 1438,-56 1395.61,-10.5797 947.893,-9.95769 820.59,-10.7102"/>
<polygon fill="midnightblue" stroke="midnightblue" points="820.27,-7.21217 810.294,-10.7785 820.317,-14.212 820.27,-7.21217"/>
</g>
<!-- Node16&#45;&gt;Node10 -->
<g id="edge20" class="edge"><title>Node16&#45;&gt;Node10</title>
<path fill="none" stroke="midnightblue" d="M925.138,-336.489C954.476,-329.283 994.625,-317.333 1027,-300 1051.68,-286.787 1076.21,-265.695 1091.7,-251.139"/>
<polygon fill="midnightblue" stroke="midnightblue" points="1094.54,-253.27 1099.32,-243.817 1089.69,-248.223 1094.54,-253.27"/>
</g>
<!-- Node17 -->
<g id="node17" class="node"><title>Node17</title>
<polygon fill="white" stroke="#bfbfbf" points="990.5,-112.5 990.5,-131.5 1039.5,-131.5 1039.5,-112.5 990.5,-112.5"/>
<text text-anchor="middle" x="1015" y="-119.5" font-family="Helvetica,sans-Serif" font-size="10.00">cassert</text>
</g>
<!-- Node16&#45;&gt;Node17 -->
<g id="edge17" class="edge"><title>Node16&#45;&gt;Node17</title>
<path fill="none" stroke="midnightblue" d="M885.584,-336.208C887.29,-315.418 893.592,-262.118 915,-224 935.357,-187.753 972.231,-155.471 995.065,-137.634"/>
<polygon fill="midnightblue" stroke="midnightblue" points="997.24,-140.377 1003.06,-131.527 992.992,-134.813 997.24,-140.377"/>
</g>
<!-- Node18 -->
<g id="node18" class="node"><title>Node18</title>
<polygon fill="white" stroke="#bfbfbf" points="181.5,-224.5 181.5,-243.5 230.5,-243.5 230.5,-224.5 181.5,-224.5"/>
<text text-anchor="middle" x="206" y="-231.5" font-family="Helvetica,sans-Serif" font-size="10.00">stdint.h</text>
</g>
<!-- Node16&#45;&gt;Node18 -->
<g id="edge19" class="edge"><title>Node16&#45;&gt;Node18</title>
<path fill="none" stroke="midnightblue" d="M828.827,-344.842C700.106,-343.826 387.419,-337.452 290,-300 262.445,-289.407 236.503,-266.642 220.933,-251.073"/>
<polygon fill="midnightblue" stroke="midnightblue" points="223.254,-248.438 213.783,-243.689 218.225,-253.307 223.254,-248.438"/>
</g>
<!-- Node16&#45;&gt;Node19 -->
<g id="edge21" class="edge"><title>Node16&#45;&gt;Node19</title>
<path fill="none" stroke="midnightblue" d="M832.394,-336.444C771.514,-326.541 671.657,-310.3 609.265,-300.151"/>
<polygon fill="midnightblue" stroke="midnightblue" points="609.638,-296.666 599.206,-298.515 608.515,-303.576 609.638,-296.666"/>
</g>
<!-- Node29 -->
<g id="node29" class="node"><title>Node29</title>
<g id="a_node29"><a xlink:href="_i_plug_midi_8h.html" target="_top" xlink:title="MIDI and sysex structs/utilites. ">
<polygon fill="white" stroke="black" points="923.5,-224.5 923.5,-243.5 988.5,-243.5 988.5,-224.5 923.5,-224.5"/>
<text text-anchor="middle" x="956" y="-231.5" font-family="Helvetica,sans-Serif" font-size="10.00">IPlugMidi.h</text>
</a>
</g>
</g>
<!-- Node16&#45;&gt;Node29 -->
<g id="edge36" class="edge"><title>Node16&#45;&gt;Node29</title>
<path fill="none" stroke="midnightblue" d="M890.571,-336.368C902.236,-318.296 929.423,-276.176 944.829,-252.307"/>
<polygon fill="midnightblue" stroke="midnightblue" points="947.972,-253.891 950.455,-243.591 942.091,-250.095 947.972,-253.891"/>
</g>
<!-- Node16&#45;&gt;Node33 -->
<g id="edge53" class="edge"><title>Node16&#45;&gt;Node33</title>
<path fill="none" stroke="midnightblue" d="M900.103,-336.324C914.903,-327.822 937.694,-314.729 954.982,-304.797"/>
<polygon fill="midnightblue" stroke="midnightblue" points="957.007,-307.671 963.935,-299.655 953.52,-301.601 957.007,-307.671"/>
</g>
<!-- Node19&#45;&gt;Node8 -->
<g id="edge23" class="edge"><title>Node19&#45;&gt;Node8</title>
<path fill="none" stroke="midnightblue" d="M545.397,-280.436C530.95,-263.762 499.34,-225.295 481,-188 465.726,-156.94 446.311,-141.751 464,-112 490.629,-67.212 518.051,-73.8609 567,-56 630.946,-32.6671 710.004,-20.2291 753.814,-14.6784"/>
<polygon fill="midnightblue" stroke="midnightblue" points="754.403,-18.1326 763.904,-13.4436 753.553,-11.1844 754.403,-18.1326"/>
</g>
<!-- Node20 -->
<g id="node20" class="node"><title>Node20</title>
<polygon fill="white" stroke="#bfbfbf" points="441,-224.5 441,-243.5 487,-243.5 487,-224.5 441,-224.5"/>
<text text-anchor="middle" x="464" y="-231.5" font-family="Helvetica,sans-Serif" font-size="10.00">atomic</text>
</g>
<!-- Node19&#45;&gt;Node20 -->
<g id="edge22" class="edge"><title>Node19&#45;&gt;Node20</title>
<path fill="none" stroke="midnightblue" d="M538.701,-280.324C524.817,-271.9 503.508,-258.971 487.196,-249.074"/>
<polygon fill="midnightblue" stroke="midnightblue" points="488.629,-245.85 478.264,-243.655 484.998,-251.834 488.629,-245.85"/>
</g>
<!-- Node21 -->
<g id="node21" class="node"><title>Node21</title>
<polygon fill="white" stroke="#bfbfbf" points="363.5,-224.5 363.5,-243.5 422.5,-243.5 422.5,-224.5 363.5,-224.5"/>
<text text-anchor="middle" x="393" y="-231.5" font-family="Helvetica,sans-Serif" font-size="10.00">functional</text>
</g>
<!-- Node19&#45;&gt;Node21 -->
<g id="edge24" class="edge"><title>Node19&#45;&gt;Node21</title>
<path fill="none" stroke="midnightblue" d="M527.648,-280.444C500.731,-271.359 458.004,-256.939 427.913,-246.783"/>
<polygon fill="midnightblue" stroke="midnightblue" points="428.828,-243.398 418.234,-243.516 426.59,-250.031 428.828,-243.398"/>
</g>
<!-- Node22 -->
<g id="node22" class="node"><title>Node22</title>
<polygon fill="white" stroke="#bfbfbf" points="716,-56.5 716,-75.5 780,-75.5 780,-56.5 716,-56.5"/>
<text text-anchor="middle" x="748" y="-63.5" font-family="Helvetica,sans-Serif" font-size="10.00">wdlstring.h</text>
</g>
<!-- Node19&#45;&gt;Node22 -->
<g id="edge25" class="edge"><title>Node19&#45;&gt;Node22</title>
<path fill="none" stroke="midnightblue" d="M550.275,-280.429C546.175,-267.844 537.943,-243.72 529,-224 506.485,-174.354 443.777,-153.605 479,-112 493.489,-94.8854 633.83,-78.4592 705.834,-71.0739"/>
<polygon fill="midnightblue" stroke="midnightblue" points="706.342,-74.5405 715.939,-70.0509 705.637,-67.5761 706.342,-74.5405"/>
</g>
<!-- Node19&#45;&gt;Node23 -->
<g id="edge26" class="edge"><title>Node19&#45;&gt;Node23</title>
<path fill="none" stroke="midnightblue" d="M559.505,-280.075C578.882,-253.493 636.433,-174.538 661.781,-139.763"/>
<polygon fill="midnightblue" stroke="midnightblue" points="664.693,-141.711 667.755,-131.568 659.036,-137.588 664.693,-141.711"/>
</g>
<!-- Node23&#45;&gt;Node8 -->
<g id="edge31" class="edge"><title>Node23&#45;&gt;Node8</title>
<path fill="none" stroke="midnightblue" d="M676.539,-112.457C680.889,-99.0365 690.888,-72.8131 707,-56 720.239,-42.1844 738.66,-31.4288 754.488,-23.9022"/>
<polygon fill="midnightblue" stroke="midnightblue" points="756.265,-26.9399 763.939,-19.6346 753.384,-20.5602 756.265,-26.9399"/>
</g>
<!-- Node23&#45;&gt;Node12 -->
<g id="edge35" class="edge"><title>Node23&#45;&gt;Node12</title>
<path fill="none" stroke="midnightblue" d="M633.824,-115.871C556.835,-106.043 388.587,-84.5643 303.095,-73.6504"/>
<polygon fill="midnightblue" stroke="midnightblue" points="303.454,-70.1679 293.091,-72.3734 302.567,-77.1116 303.454,-70.1679"/>
</g>
<!-- Node23&#45;&gt;Node13 -->
<g id="edge30" class="edge"><title>Node23&#45;&gt;Node13</title>
<path fill="none" stroke="midnightblue" d="M670.165,-112.347C663.775,-98.7754 649.776,-72.349 631,-56 613.106,-40.4185 588.877,-28.992 569.5,-21.5524"/>
<polygon fill="midnightblue" stroke="midnightblue" points="570.463,-18.1775 559.869,-18.0245 568.055,-24.7504 570.463,-18.1775"/>
</g>
<!-- Node23&#45;&gt;Node22 -->
<g id="edge33" class="edge"><title>Node23&#45;&gt;Node22</title>
<path fill="none" stroke="midnightblue" d="M685.889,-112.324C697.15,-104.107 714.287,-91.6017 727.709,-81.8069"/>
<polygon fill="midnightblue" stroke="midnightblue" points="729.88,-84.5559 735.894,-75.8339 725.753,-78.9014 729.88,-84.5559"/>
</g>
<!-- Node24 -->
<g id="node24" class="node"><title>Node24</title>
<polygon fill="white" stroke="#bfbfbf" points="1263,-56.5 1263,-75.5 1319,-75.5 1319,-56.5 1263,-56.5"/>
<text text-anchor="middle" x="1291" y="-63.5" font-family="Helvetica,sans-Serif" font-size="10.00">algorithm</text>
</g>
<!-- Node23&#45;&gt;Node24 -->
<g id="edge27" class="edge"><title>Node23&#45;&gt;Node24</title>
<path fill="none" stroke="midnightblue" d="M714.29,-116.734C729.265,-115.186 746.404,-113.461 762,-112 945.68,-94.7961 1165.51,-76.9861 1252.68,-70.0342"/>
<polygon fill="midnightblue" stroke="midnightblue" points="1253.19,-73.5046 1262.88,-69.2218 1252.64,-66.5267 1253.19,-73.5046"/>
</g>
<!-- Node25 -->
<g id="node25" class="node"><title>Node25</title>
<polygon fill="white" stroke="#bfbfbf" points="1122,-56.5 1122,-75.5 1166,-75.5 1166,-56.5 1122,-56.5"/>
<text text-anchor="middle" x="1144" y="-63.5" font-family="Helvetica,sans-Serif" font-size="10.00">cmath</text>
</g>
<!-- Node23&#45;&gt;Node25 -->
<g id="edge28" class="edge"><title>Node23&#45;&gt;Node25</title>
<path fill="none" stroke="midnightblue" d="M714.072,-116.396C805.519,-105.889 1028.13,-80.3133 1111.64,-70.7183"/>
<polygon fill="midnightblue" stroke="midnightblue" points="1112.26,-74.1699 1121.79,-69.5513 1111.46,-67.2156 1112.26,-74.1699"/>
</g>
<!-- Node26 -->
<g id="node26" class="node"><title>Node26</title>
<polygon fill="white" stroke="#bfbfbf" points="980.5,-56.5 980.5,-75.5 1023.5,-75.5 1023.5,-56.5 980.5,-56.5"/>
<text text-anchor="middle" x="1002" y="-63.5" font-family="Helvetica,sans-Serif" font-size="10.00">cstdio</text>
</g>
<!-- Node23&#45;&gt;Node26 -->
<g id="edge29" class="edge"><title>Node23&#45;&gt;Node26</title>
<path fill="none" stroke="midnightblue" d="M714.219,-114.379C780.222,-103.512 910.174,-82.1176 970.212,-72.2334"/>
<polygon fill="midnightblue" stroke="midnightblue" points="970.942,-75.6604 980.241,-70.5823 969.805,-68.7533 970.942,-75.6604"/>
</g>
<!-- Node27 -->
<g id="node27" class="node"><title>Node27</title>
<polygon fill="white" stroke="#bfbfbf" points="576,-56.5 576,-75.5 622,-75.5 622,-56.5 576,-56.5"/>
<text text-anchor="middle" x="599" y="-63.5" font-family="Helvetica,sans-Serif" font-size="10.00">cctype</text>
</g>
<!-- Node23&#45;&gt;Node27 -->
<g id="edge32" class="edge"><title>Node23&#45;&gt;Node27</title>
<path fill="none" stroke="midnightblue" d="M661.95,-112.324C650.537,-104.107 633.169,-91.6017 619.565,-81.8069"/>
<polygon fill="midnightblue" stroke="midnightblue" points="621.43,-78.8366 611.269,-75.8339 617.34,-84.5174 621.43,-78.8366"/>
</g>
<!-- Node23&#45;&gt;Node28 -->
<g id="edge34" class="edge"><title>Node23&#45;&gt;Node28</title>
<path fill="none" stroke="midnightblue" d="M714.274,-116.554C729.248,-114.987 746.389,-113.295 762,-112 1009.45,-91.4703 1075.22,-103.664 1326.72,-75.9012"/>
<polygon fill="midnightblue" stroke="midnightblue" points="1327.35,-79.3528 1336.9,-74.7669 1326.58,-72.3958 1327.35,-79.3528"/>
</g>
<!-- Node29&#45;&gt;Node9 -->
<g id="edge38" class="edge"><title>Node29&#45;&gt;Node9</title>
<path fill="none" stroke="midnightblue" d="M977.777,-224.447C997.048,-216.4 1025.52,-203.318 1048,-188 1069.01,-173.683 1090.13,-153.426 1103.8,-139.346"/>
<polygon fill="midnightblue" stroke="midnightblue" points="1106.57,-141.514 1110.93,-131.861 1101.5,-136.685 1106.57,-141.514"/>
</g>
<!-- Node29&#45;&gt;Node17 -->
<g id="edge37" class="edge"><title>Node29&#45;&gt;Node17</title>
<path fill="none" stroke="midnightblue" d="M960.63,-224.368C970.28,-206.376 992.714,-164.55 1005.55,-140.627"/>
<polygon fill="midnightblue" stroke="midnightblue" points="1008.75,-142.058 1010.39,-131.591 1002.58,-138.749 1008.75,-142.058"/>
</g>
<!-- Node29&#45;&gt;Node24 -->
<g id="edge40" class="edge"><title>Node29&#45;&gt;Node24</title>
<path fill="none" stroke="midnightblue" d="M988.57,-226.489C993.399,-225.604 998.323,-224.744 1003,-224 1065.61,-214.034 1243.12,-234.697 1286,-188 1311.51,-160.221 1303.72,-111.965 1296.78,-85.5656"/>
<polygon fill="midnightblue" stroke="midnightblue" points="1300.08,-84.3611 1293.95,-75.7134 1293.35,-86.2908 1300.08,-84.3611"/>
</g>
<!-- Node29&#45;&gt;Node26 -->
<g id="edge39" class="edge"><title>Node29&#45;&gt;Node26</title>
<path fill="none" stroke="midnightblue" d="M968.367,-224.49C989.601,-209.017 1032.23,-173.964 1048,-132 1051.13,-123.679 1051.45,-120.193 1048,-112 1042.97,-100.053 1033.06,-89.6922 1023.71,-81.9339"/>
<polygon fill="midnightblue" stroke="midnightblue" points="1025.84,-79.1547 1015.79,-75.8113 1021.56,-84.6944 1025.84,-79.1547"/>
</g>
<!-- Node29&#45;&gt;Node30 -->
<g id="edge41" class="edge"><title>Node29&#45;&gt;Node30</title>
<path fill="none" stroke="midnightblue" d="M944.753,-224.324C934.203,-216.185 918.199,-203.839 905.558,-194.087"/>
<polygon fill="midnightblue" stroke="midnightblue" points="907.507,-191.171 897.451,-187.834 903.231,-196.713 907.507,-191.171"/>
</g>
<!-- Node30&#45;&gt;Node8 -->
<g id="edge46" class="edge"><title>Node30&#45;&gt;Node8</title>
<path fill="none" stroke="midnightblue" d="M881.837,-168.454C875.653,-155.9 863.527,-131.815 852,-112 834.439,-81.8139 812.036,-47.8972 798.642,-28.0502"/>
<polygon fill="midnightblue" stroke="midnightblue" points="801.522,-26.0606 793.012,-19.75 795.729,-29.9904 801.522,-26.0606"/>
</g>
<!-- Node30&#45;&gt;Node9 -->
<g id="edge45" class="edge"><title>Node30&#45;&gt;Node9</title>
<path fill="none" stroke="midnightblue" d="M922.92,-168.444C967.73,-158.058 1042.63,-140.7 1085.73,-130.711"/>
<polygon fill="midnightblue" stroke="midnightblue" points="1086.75,-134.066 1095.7,-128.399 1085.17,-127.247 1086.75,-134.066"/>
</g>
<!-- Node30&#45;&gt;Node11 -->
<g id="edge50" class="edge"><title>Node30&#45;&gt;Node11</title>
<path fill="none" stroke="midnightblue" d="M847.242,-171.374C775.024,-160.891 620.832,-138.508 550.423,-128.287"/>
<polygon fill="midnightblue" stroke="midnightblue" points="550.664,-124.786 540.265,-126.813 549.658,-131.713 550.664,-124.786"/>
</g>
<!-- Node30&#45;&gt;Node17 -->
<g id="edge48" class="edge"><title>Node30&#45;&gt;Node17</title>
<path fill="none" stroke="midnightblue" d="M906.44,-168.444C927.67,-159.557 961.099,-145.563 985.255,-135.451"/>
<polygon fill="midnightblue" stroke="midnightblue" points="986.782,-138.606 994.655,-131.516 984.079,-132.149 986.782,-138.606"/>
</g>
<!-- Node30&#45;&gt;Node22 -->
<g id="edge49" class="edge"><title>Node30&#45;&gt;Node22</title>
<path fill="none" stroke="midnightblue" d="M879.64,-168.171C869.716,-154.826 849.45,-129.251 828,-112 812.266,-99.3464 792.51,-88.195 776.567,-80.1585"/>
<polygon fill="midnightblue" stroke="midnightblue" points="777.724,-76.8276 767.203,-75.5715 774.644,-83.1138 777.724,-76.8276"/>
</g>
<!-- Node30&#45;&gt;Node23 -->
<g id="edge52" class="edge"><title>Node30&#45;&gt;Node23</title>
<path fill="none" stroke="midnightblue" d="M852.408,-168.444C815.813,-159.122 757.162,-144.183 717.174,-133.997"/>
<polygon fill="midnightblue" stroke="midnightblue" points="717.989,-130.593 707.435,-131.516 716.261,-137.377 717.989,-130.593"/>
</g>
<!-- Node30&#45;&gt;Node26 -->
<g id="edge42" class="edge"><title>Node30&#45;&gt;Node26</title>
<path fill="none" stroke="midnightblue" d="M893.727,-168.285C905.174,-155.519 927.497,-131.173 948,-112 959.142,-101.581 972.278,-90.6081 982.804,-82.1061"/>
<polygon fill="midnightblue" stroke="midnightblue" points="985.303,-84.5889 990.931,-75.6121 980.934,-79.1203 985.303,-84.5889"/>
</g>
<!-- Node30&#45;&gt;Node27 -->
<g id="edge43" class="edge"><title>Node30&#45;&gt;Node27</title>
<path fill="none" stroke="midnightblue" d="M847.392,-174.901C783.274,-170.685 658.55,-159.159 625,-132 610.998,-120.665 604.494,-100.667 601.5,-85.8361"/>
<polygon fill="midnightblue" stroke="midnightblue" points="604.913,-85.026 599.828,-75.7315 598.007,-86.1688 604.913,-85.026"/>
</g>
<!-- Node30&#45;&gt;Node28 -->
<g id="edge51" class="edge"><title>Node30&#45;&gt;Node28</title>
<path fill="none" stroke="midnightblue" d="M898.184,-168.26C921.906,-151.316 972.781,-115.361 982,-112 1123.73,-60.3328 1172.09,-94.689 1326.55,-75.9325"/>
<polygon fill="midnightblue" stroke="midnightblue" points="1327.41,-79.3525 1336.88,-74.6188 1326.52,-72.4085 1327.41,-79.3525"/>
</g>
<!-- Node31 -->
<g id="node31" class="node"><title>Node31</title>
<polygon fill="white" stroke="#bfbfbf" points="770.5,-112.5 770.5,-131.5 819.5,-131.5 819.5,-112.5 770.5,-112.5"/>
<text text-anchor="middle" x="795" y="-119.5" font-family="Helvetica,sans-Serif" font-size="10.00">cstdarg</text>
</g>
<!-- Node30&#45;&gt;Node31 -->
<g id="edge44" class="edge"><title>Node30&#45;&gt;Node31</title>
<path fill="none" stroke="midnightblue" d="M871.379,-168.324C857.051,-159.822 834.987,-146.729 818.251,-136.797"/>
<polygon fill="midnightblue" stroke="midnightblue" points="819.97,-133.748 809.584,-131.655 816.398,-139.768 819.97,-133.748"/>
</g>
<!-- Node32 -->
<g id="node32" class="node"><title>Node32</title>
<polygon fill="white" stroke="#bfbfbf" points="1160.5,-112.5 1160.5,-131.5 1201.5,-131.5 1201.5,-112.5 1160.5,-112.5"/>
<text text-anchor="middle" x="1181" y="-119.5" font-family="Helvetica,sans-Serif" font-size="10.00">ctime</text>
</g>
<!-- Node30&#45;&gt;Node32 -->
<g id="edge47" class="edge"><title>Node30&#45;&gt;Node32</title>
<path fill="none" stroke="midnightblue" d="M924.919,-171.923C974.919,-165.066 1064.52,-151.648 1150.51,-131.851"/>
<polygon fill="midnightblue" stroke="midnightblue" points="1151.49,-135.216 1160.43,-129.534 1149.9,-128.4 1151.49,-135.216"/>
</g>
<!-- Node33&#45;&gt;Node10 -->
<g id="edge56" class="edge"><title>Node33&#45;&gt;Node10</title>
<path fill="none" stroke="midnightblue" d="M999.44,-280.444C1020.67,-271.557 1054.1,-257.563 1078.25,-247.451"/>
<polygon fill="midnightblue" stroke="midnightblue" points="1079.78,-250.606 1087.66,-243.516 1077.08,-244.149 1079.78,-250.606"/>
</g>
<!-- Node33&#45;&gt;Node12 -->
<g id="edge58" class="edge"><title>Node33&#45;&gt;Node12</title>
<path fill="none" stroke="midnightblue" d="M939.486,-280.727C905.191,-272.989 854.508,-260.204 812,-244 689.793,-197.415 673.65,-151.588 549,-112 465.561,-85.5 363.891,-74.4171 303.465,-69.9187"/>
<polygon fill="midnightblue" stroke="midnightblue" points="303.627,-66.4215 293.404,-69.2024 303.13,-73.4038 303.627,-66.4215"/>
</g>
<!-- Node33&#45;&gt;Node22 -->
<g id="edge55" class="edge"><title>Node33&#45;&gt;Node22</title>
<path fill="none" stroke="midnightblue" d="M958.348,-280.369C914.517,-260.917 812.111,-209.238 762,-132 753.067,-118.231 749.738,-99.7049 748.544,-85.9541"/>
<polygon fill="midnightblue" stroke="midnightblue" points="752.025,-85.5224 747.967,-75.7357 745.036,-85.9172 752.025,-85.5224"/>
</g>
<!-- Node33&#45;&gt;Node23 -->
<g id="edge60" class="edge"><title>Node33&#45;&gt;Node23</title>
<path fill="none" stroke="midnightblue" d="M939.729,-280.495C911.572,-273.351 873.403,-261.474 843,-244 798.776,-218.582 798.801,-197.233 757,-168 739.483,-155.75 718.275,-144.303 701.682,-136.02"/>
<polygon fill="midnightblue" stroke="midnightblue" points="703.028,-132.782 692.508,-131.527 699.949,-139.069 703.028,-132.782"/>
</g>
<!-- Node33&#45;&gt;Node24 -->
<g id="edge54" class="edge"><title>Node33&#45;&gt;Node24</title>
<path fill="none" stroke="midnightblue" d="M984.578,-280.038C994.144,-265.529 1015.17,-237.196 1041,-224 1146.46,-170.13 1218.85,-269.253 1305,-188 1329.83,-164.582 1324.56,-145.039 1316,-112 1313.45,-102.175 1308.25,-92.2118 1303.24,-84.166"/>
<polygon fill="midnightblue" stroke="midnightblue" points="1306.08,-82.1143 1297.63,-75.7252 1300.25,-85.9903 1306.08,-82.1143"/>
</g>
<!-- Node33&#45;&gt;Node28 -->
<g id="edge57" class="edge"><title>Node33&#45;&gt;Node28</title>
<path fill="none" stroke="midnightblue" d="M991.195,-280.29C1014.94,-263.4 1065.85,-227.537 1075,-224 1180.12,-183.371 1235.37,-254.986 1326,-188 1359.66,-163.121 1374.18,-113.29 1379.82,-85.9783"/>
<polygon fill="midnightblue" stroke="midnightblue" points="1383.33,-86.2635 1381.73,-75.7904 1376.45,-84.9763 1383.33,-86.2635"/>
</g>
<!-- Node33&#45;&gt;Node29 -->
<g id="edge59" class="edge"><title>Node33&#45;&gt;Node29</title>
<path fill="none" stroke="midnightblue" d="M975.202,-280.083C972.087,-272.77 967.577,-262.181 963.711,-253.103"/>
<polygon fill="midnightblue" stroke="midnightblue" points="966.866,-251.58 959.727,-243.751 960.426,-254.323 966.866,-251.58"/>
</g>
<!-- Node34&#45;&gt;Node20 -->
<g id="edge69" class="edge"><title>Node34&#45;&gt;Node20</title>
<path fill="none" stroke="midnightblue" d="M481.918,-448.396C477.027,-439.595 469.953,-425.356 467,-412 454.532,-355.607 458.752,-286.629 461.879,-253.93"/>
<polygon fill="midnightblue" stroke="midnightblue" points="465.398,-253.923 462.948,-243.615 458.435,-253.201 465.398,-253.923"/>
</g>
<!-- Node35 -->
<g id="node35" class="node"><title>Node35</title>
<polygon fill="white" stroke="#bfbfbf" points="475.5,-392.5 475.5,-411.5 524.5,-411.5 524.5,-392.5 475.5,-392.5"/>
<text text-anchor="middle" x="500" y="-399.5" font-family="Helvetica,sans-Serif" font-size="10.00">cstddef</text>
</g>
<!-- Node34&#45;&gt;Node35 -->
<g id="edge70" class="edge"><title>Node34&#45;&gt;Node35</title>
<path fill="none" stroke="midnightblue" d="M489.147,-448.083C490.869,-440.927 493.347,-430.635 495.5,-421.691"/>
<polygon fill="midnightblue" stroke="midnightblue" points="498.955,-422.293 497.893,-411.751 492.15,-420.654 498.955,-422.293"/>
</g>
<!-- Node36&#45;&gt;Node8 -->
<g id="edge72" class="edge"><title>Node36&#45;&gt;Node8</title>
<path fill="none" stroke="midnightblue" d="M334.025,-280.202C332.957,-267.334 332.302,-242.862 340,-224 357.458,-181.227 474.188,-68.1609 498,-56 542.122,-33.4664 686.897,-19.1391 753.243,-13.6002"/>
<polygon fill="midnightblue" stroke="midnightblue" points="753.882,-17.0598 763.564,-12.757 753.312,-10.083 753.882,-17.0598"/>
</g>
<!-- Node36&#45;&gt;Node10 -->
<g id="edge75" class="edge"><title>Node36&#45;&gt;Node10</title>
<path fill="none" stroke="midnightblue" d="M371.251,-286.702C471.064,-280.34 758.343,-261.786 997,-244 1022.52,-242.098 1051.32,-239.758 1073.18,-237.94"/>
<polygon fill="midnightblue" stroke="midnightblue" points="1073.64,-241.414 1083.32,-237.094 1073.06,-234.438 1073.64,-241.414"/>
</g>
<!-- Node36&#45;&gt;Node11 -->
<g id="edge76" class="edge"><title>Node36&#45;&gt;Node11</title>
<path fill="none" stroke="midnightblue" d="M335.78,-280.129C337.356,-266.73 341.967,-241.085 355,-224 387.998,-180.746 445.253,-151.057 481.305,-135.568"/>
<polygon fill="midnightblue" stroke="midnightblue" points="482.992,-138.657 490.873,-131.577 480.296,-132.197 482.992,-138.657"/>
</g>
<!-- Node36&#45;&gt;Node12 -->
<g id="edge77" class="edge"><title>Node36&#45;&gt;Node12</title>
<path fill="none" stroke="midnightblue" d="M320.199,-280.246C308.198,-272.333 291.869,-259.558 283,-244 253.67,-192.554 250.234,-120.198 250.424,-86.1432"/>
<polygon fill="midnightblue" stroke="midnightblue" points="253.929,-85.8519 250.605,-75.792 246.93,-85.729 253.929,-85.8519"/>
</g>
<!-- Node36&#45;&gt;Node18 -->
<g id="edge73" class="edge"><title>Node36&#45;&gt;Node18</title>
<path fill="none" stroke="midnightblue" d="M314.56,-280.444C293.33,-271.557 259.901,-257.563 235.745,-247.451"/>
<polygon fill="midnightblue" stroke="midnightblue" points="236.921,-244.149 226.345,-243.516 234.218,-250.606 236.921,-244.149"/>
</g>
<!-- Node36&#45;&gt;Node21 -->
<g id="edge74" class="edge"><title>Node36&#45;&gt;Node21</title>
<path fill="none" stroke="midnightblue" d="M344.319,-280.324C352.893,-272.341 365.812,-260.313 376.188,-250.653"/>
<polygon fill="midnightblue" stroke="midnightblue" points="378.578,-253.21 383.512,-243.834 373.808,-248.086 378.578,-253.21"/>
</g>
<!-- Node37&#45;&gt;Node8 -->
<g id="edge79" class="edge"><title>Node37&#45;&gt;Node8</title>
<path fill="none" stroke="midnightblue" d="M1321.14,-343.143C1355.72,-339.325 1401.9,-328.699 1431,-300 1508.72,-223.353 1547.59,-119.776 1459,-56 1406.85,-18.4563 948.781,-12.2087 820.348,-11.1927"/>
<polygon fill="midnightblue" stroke="midnightblue" points="820.339,-7.69267 810.314,-11.1189 820.288,-14.6925 820.339,-7.69267"/>
</g>
<!-- Node37&#45;&gt;Node9 -->
<g id="edge80" class="edge"><title>Node37&#45;&gt;Node9</title>
<path fill="none" stroke="midnightblue" d="M1268.88,-336.297C1245.64,-303.217 1162.5,-184.909 1131.12,-140.241"/>
<polygon fill="midnightblue" stroke="midnightblue" points="1133.86,-138.053 1125.24,-131.884 1128.13,-142.078 1133.86,-138.053"/>
</g>
<!-- Node37&#45;&gt;Node10 -->
<g id="edge82" class="edge"><title>Node37&#45;&gt;Node10</title>
<path fill="none" stroke="midnightblue" d="M1261.9,-336.368C1233.24,-317.492 1164.76,-272.385 1129.61,-249.237"/>
<polygon fill="midnightblue" stroke="midnightblue" points="1131.32,-246.169 1121.04,-243.591 1127.47,-252.015 1131.32,-246.169"/>
</g>
<!-- Node37&#45;&gt;Node12 -->
<g id="edge83" class="edge"><title>Node37&#45;&gt;Node12</title>
<path fill="none" stroke="midnightblue" d="M1228.98,-343.409C1040.59,-336.828 335.996,-311.55 290,-300 234.087,-285.959 203.73,-292.776 173,-244 138.017,-188.472 201.908,-114.568 234.096,-82.7081"/>
<polygon fill="midnightblue" stroke="midnightblue" points="236.748,-85.0122 241.516,-75.5508 231.889,-79.9738 236.748,-85.0122"/>
</g>
<!-- Node37&#45;&gt;Node23 -->
<g id="edge86" class="edge"><title>Node37&#45;&gt;Node23</title>
<path fill="none" stroke="midnightblue" d="M1229,-343.488C1162.13,-340.288 1034.75,-330.393 931,-300 874.905,-283.568 860.898,-276.026 812,-244 763.146,-212.003 713.51,-163.8 689.253,-138.998"/>
<polygon fill="midnightblue" stroke="midnightblue" points="691.507,-136.294 682.038,-131.541 686.476,-141.161 691.507,-136.294"/>
</g>
<!-- Node37&#45;&gt;Node28 -->
<g id="edge84" class="edge"><title>Node37&#45;&gt;Node28</title>
<path fill="none" stroke="midnightblue" d="M1281.38,-336.26C1301.34,-308.309 1362.47,-217.892 1383,-132 1386.65,-116.72 1386.33,-98.8359 1385.28,-85.699"/>
<polygon fill="midnightblue" stroke="midnightblue" points="1388.74,-85.1556 1384.25,-75.5613 1381.78,-85.8643 1388.74,-85.1556"/>
</g>
<!-- Node37&#45;&gt;Node33 -->
<g id="edge85" class="edge"><title>Node37&#45;&gt;Node33</title>
<path fill="none" stroke="midnightblue" d="M1228.75,-336.562C1174.41,-326.649 1084.6,-310.265 1028.78,-300.081"/>
<polygon fill="midnightblue" stroke="midnightblue" points="1029.23,-296.606 1018.77,-298.255 1027.98,-303.493 1029.23,-296.606"/>
</g>
<!-- Node38 -->
<g id="node38" class="node"><title>Node38</title>
<polygon fill="white" stroke="#bfbfbf" points="1479,-280.5 1479,-299.5 1531,-299.5 1531,-280.5 1479,-280.5"/>
<text text-anchor="middle" x="1505" y="-287.5" font-family="Helvetica,sans-Serif" font-size="10.00">memory</text>
</g>
<!-- Node37&#45;&gt;Node38 -->
<g id="edge81" class="edge"><title>Node37&#45;&gt;Node38</title>
<path fill="none" stroke="midnightblue" d="M1311.44,-336.444C1354.6,-326.312 1426.02,-309.543 1468.99,-299.455"/>
<polygon fill="midnightblue" stroke="midnightblue" points="1469.81,-302.858 1478.74,-297.165 1468.21,-296.043 1469.81,-302.858"/>
</g>
<!-- Node39 -->
<g id="node39" class="node"><title>Node39</title>
<polygon fill="white" stroke="#bfbfbf" points="1341.5,-280.5 1341.5,-299.5 1422.5,-299.5 1422.5,-280.5 1341.5,-280.5"/>
<text text-anchor="middle" x="1382" y="-287.5" font-family="Helvetica,sans-Serif" font-size="10.00">NChanDelay.h</text>
</g>
<!-- Node37&#45;&gt;Node39 -->
<g id="edge87" class="edge"><title>Node37&#45;&gt;Node39</title>
<path fill="none" stroke="midnightblue" d="M1292.19,-336.324C1309.35,-327.664 1335.95,-314.242 1355.75,-304.249"/>
<polygon fill="midnightblue" stroke="midnightblue" points="1357.5,-307.285 1364.85,-299.655 1354.35,-301.035 1357.5,-307.285"/>
</g>
<!-- Node40 -->
<g id="node40" class="node"><title>Node40</title>
<g id="a_node40"><a xlink:href="_i_plug_processor_8cpp.html" target="_top" xlink:title="IPlugProcessor implementation. ">
<polygon fill="white" stroke="black" points="1176,-168.5 1176,-187.5 1278,-187.5 1278,-168.5 1176,-168.5"/>
<text text-anchor="middle" x="1227" y="-175.5" font-family="Helvetica,sans-Serif" font-size="10.00">IPlugProcessor.cpp</text>
</a>
</g>
</g>
<!-- Node37&#45;&gt;Node40 -->
<g id="edge88" class="edge"><title>Node37&#45;&gt;Node40</title>
<path fill="none" stroke="midnightblue" d="M1274.16,-336.258C1272.01,-316.013 1265.47,-264.541 1251,-224 1247.61,-214.515 1242.5,-204.574 1237.86,-196.456"/>
<polygon fill="midnightblue" stroke="midnightblue" points="1240.71,-194.406 1232.58,-187.61 1234.7,-197.991 1240.71,-194.406"/>
</g>
<!-- Node40&#45;&gt;Node17 -->
<g id="edge92" class="edge"><title>Node40&#45;&gt;Node17</title>
<path fill="none" stroke="midnightblue" d="M1193.41,-168.444C1153.99,-158.403 1088.98,-141.845 1049.27,-131.73"/>
<polygon fill="midnightblue" stroke="midnightblue" points="1050.07,-128.32 1039.51,-129.244 1048.34,-135.104 1050.07,-128.32"/>
</g>
<!-- Node40&#45;&gt;Node25 -->
<g id="edge89" class="edge"><title>Node40&#45;&gt;Node25</title>
<path fill="none" stroke="midnightblue" d="M1233.33,-168.315C1242.07,-155.159 1255.53,-129.827 1244,-112 1229.05,-88.8823 1199.09,-77.5232 1175.84,-72.0148"/>
<polygon fill="midnightblue" stroke="midnightblue" points="1176.53,-68.5852 1166.03,-69.9346 1175.08,-75.4329 1176.53,-68.5852"/>
</g>
<!-- Node40&#45;&gt;Node26 -->
<g id="edge90" class="edge"><title>Node40&#45;&gt;Node26</title>
<path fill="none" stroke="midnightblue" d="M1227.4,-168.445C1227.54,-154.521 1225.67,-127.01 1210,-112 1185.04,-88.0866 1085.45,-75.0902 1033.66,-69.8272"/>
<polygon fill="midnightblue" stroke="midnightblue" points="1033.97,-66.3409 1023.68,-68.8485 1033.29,-73.3075 1033.97,-66.3409"/>
</g>
<!-- Node40&#45;&gt;Node32 -->
<g id="edge91" class="edge"><title>Node40&#45;&gt;Node32</title>
<path fill="none" stroke="midnightblue" d="M1219.4,-168.083C1212.77,-160.298 1202.98,-148.801 1194.94,-139.367"/>
<polygon fill="midnightblue" stroke="midnightblue" points="1197.6,-137.094 1188.45,-131.751 1192.27,-141.633 1197.6,-137.094"/>
</g>
</g>
</svg>
