<?xml version="1.0" encoding="UTF-8" standalone="no"?>
<!DOCTYPE svg PUBLIC "-//W3C//DTD SVG 1.1//EN"
 "http://www.w3.org/Graphics/SVG/1.1/DTD/svg11.dtd">
<!-- Generated by graphviz version 2.36.0 (20140111.2315)
 -->
<!-- Title: IPopupMenuControl.h Pages: 1 -->
<svg width="455pt" height="84pt"
 viewBox="0.00 0.00 455.00 84.00" xmlns="http://www.w3.org/2000/svg" xmlns:xlink="http://www.w3.org/1999/xlink">
<g id="graph0" class="graph" transform="scale(1 1) rotate(0) translate(4 80)">
<title>IPopupMenuControl.h</title>
<polygon fill="white" stroke="none" points="-4,4 -4,-80 451,-80 451,4 -4,4"/>
<!-- Node1 -->
<g id="node1" class="node"><title>Node1</title>
<polygon fill="#bfbfbf" stroke="black" points="176.5,-56.5 176.5,-75.5 287.5,-75.5 287.5,-56.5 176.5,-56.5"/>
<text text-anchor="middle" x="232" y="-63.5" font-family="Helvetica,sans-Serif" font-size="10.00">IPopupMenuControl.h</text>
</g>
<!-- Node2 -->
<g id="node2" class="node"><title>Node2</title>
<g id="a_node2"><a xlink:href="_i_popup_menu_control_8cpp.html" target="_top" xlink:title="IPopupMenuControl implementation. ">
<polygon fill="white" stroke="black" points="0,-0.5 0,-19.5 122,-19.5 122,-0.5 0,-0.5"/>
<text text-anchor="middle" x="61" y="-7.5" font-family="Helvetica,sans-Serif" font-size="10.00">IPopupMenuControl.cpp</text>
</a>
</g>
</g>
<!-- Node1&#45;&gt;Node2 -->
<g id="edge1" class="edge"><title>Node1&#45;&gt;Node2</title>
<path fill="none" stroke="midnightblue" d="M194.964,-53.3044C162.743,-43.1294 116.811,-28.6246 87.9687,-19.5164"/>
<polygon fill="midnightblue" stroke="midnightblue" points="194.315,-56.7697 204.905,-56.4435 196.423,-50.0946 194.315,-56.7697"/>
</g>
<!-- Node3 -->
<g id="node3" class="node"><title>Node3</title>
<g id="a_node3"><a xlink:href="_i_graphics_8cpp_source.html" target="_top" xlink:title="IGraphics.cpp">
<polygon fill="white" stroke="black" points="140.5,-0.5 140.5,-19.5 217.5,-19.5 217.5,-0.5 140.5,-0.5"/>
<text text-anchor="middle" x="179" y="-7.5" font-family="Helvetica,sans-Serif" font-size="10.00">IGraphics.cpp</text>
</a>
</g>
</g>
<!-- Node1&#45;&gt;Node3 -->
<g id="edge2" class="edge"><title>Node1&#45;&gt;Node3</title>
<path fill="none" stroke="midnightblue" d="M216.019,-48.7175C206.678,-39.1997 195.254,-27.5608 187.589,-19.7511"/>
<polygon fill="midnightblue" stroke="midnightblue" points="213.746,-51.3978 223.248,-56.083 218.741,-46.4945 213.746,-51.3978"/>
</g>
<!-- Node4 -->
<g id="node4" class="node"><title>Node4</title>
<g id="a_node4"><a xlink:href="_i_graphics_web_8cpp_source.html" target="_top" xlink:title="IGraphicsWeb.cpp">
<polygon fill="white" stroke="black" points="236,-0.5 236,-19.5 334,-19.5 334,-0.5 236,-0.5"/>
<text text-anchor="middle" x="285" y="-7.5" font-family="Helvetica,sans-Serif" font-size="10.00">IGraphicsWeb.cpp</text>
</a>
</g>
</g>
<!-- Node1&#45;&gt;Node4 -->
<g id="edge3" class="edge"><title>Node1&#45;&gt;Node4</title>
<path fill="none" stroke="midnightblue" d="M247.981,-48.7175C257.322,-39.1997 268.746,-27.5608 276.411,-19.7511"/>
<polygon fill="midnightblue" stroke="midnightblue" points="245.259,-46.4945 240.752,-56.083 250.254,-51.3978 245.259,-46.4945"/>
</g>
<!-- Node5 -->
<g id="node5" class="node"><title>Node5</title>
<g id="a_node5"><a xlink:href="_i_graphics_win_8cpp_source.html" target="_top" xlink:title="IGraphicsWin.cpp">
<polygon fill="white" stroke="black" points="352.5,-0.5 352.5,-19.5 447.5,-19.5 447.5,-0.5 352.5,-0.5"/>
<text text-anchor="middle" x="400" y="-7.5" font-family="Helvetica,sans-Serif" font-size="10.00">IGraphicsWin.cpp</text>
</a>
</g>
</g>
<!-- Node1&#45;&gt;Node5 -->
<g id="edge4" class="edge"><title>Node1&#45;&gt;Node5</title>
<path fill="none" stroke="midnightblue" d="M268.386,-53.3044C300.042,-43.1294 345.168,-28.6246 373.504,-19.5164"/>
<polygon fill="midnightblue" stroke="midnightblue" points="267.069,-50.0513 258.62,-56.4435 269.211,-56.7155 267.069,-50.0513"/>
</g>
</g>
</svg>
