<?xml version="1.0" encoding="UTF-8" standalone="no"?>
<!DOCTYPE svg PUBLIC "-//W3C//DTD SVG 1.1//EN"
 "http://www.w3.org/Graphics/SVG/1.1/DTD/svg11.dtd">
<!-- Generated by graphviz version 2.36.0 (20140111.2315)
 -->
<!-- Title: IPlugProcessor.cpp Pages: 1 -->
<svg width="239pt" height="84pt"
 viewBox="0.00 0.00 239.00 84.00" xmlns="http://www.w3.org/2000/svg" xmlns:xlink="http://www.w3.org/1999/xlink">
<g id="graph0" class="graph" transform="scale(1 1) rotate(0) translate(4 80)">
<title>IPlugProcessor.cpp</title>
<polygon fill="white" stroke="none" points="-4,4 -4,-80 235,-80 235,4 -4,4"/>
<!-- Node1 -->
<g id="node1" class="node"><title>Node1</title>
<polygon fill="#bfbfbf" stroke="black" points="63,-56.5 63,-75.5 165,-75.5 165,-56.5 63,-56.5"/>
<text text-anchor="middle" x="114" y="-63.5" font-family="Helvetica,sans-Serif" font-size="10.00">IPlugProcessor.cpp</text>
</g>
<!-- Node2 -->
<g id="node2" class="node"><title>Node2</title>
<polygon fill="white" stroke="#bfbfbf" points="0,-0.5 0,-19.5 44,-19.5 44,-0.5 0,-0.5"/>
<text text-anchor="middle" x="22" y="-7.5" font-family="Helvetica,sans-Serif" font-size="10.00">cmath</text>
</g>
<!-- Node1&#45;&gt;Node2 -->
<g id="edge1" class="edge"><title>Node1&#45;&gt;Node2</title>
<path fill="none" stroke="midnightblue" d="M99.2186,-56.324C84.7329,-47.8215 62.4269,-34.7288 45.5068,-24.7975"/>
<polygon fill="midnightblue" stroke="midnightblue" points="47.1406,-21.6981 36.7447,-19.6545 43.5972,-27.735 47.1406,-21.6981"/>
</g>
<!-- Node3 -->
<g id="node3" class="node"><title>Node3</title>
<polygon fill="white" stroke="#bfbfbf" points="62.5,-0.5 62.5,-19.5 105.5,-19.5 105.5,-0.5 62.5,-0.5"/>
<text text-anchor="middle" x="84" y="-7.5" font-family="Helvetica,sans-Serif" font-size="10.00">cstdio</text>
</g>
<!-- Node1&#45;&gt;Node3 -->
<g id="edge2" class="edge"><title>Node1&#45;&gt;Node3</title>
<path fill="none" stroke="midnightblue" d="M109.046,-56.083C104.896,-48.6127 98.8469,-37.7244 93.7333,-28.5199"/>
<polygon fill="midnightblue" stroke="midnightblue" points="96.7777,-26.7929 88.8617,-19.7511 90.6586,-30.1924 96.7777,-26.7929"/>
</g>
<!-- Node4 -->
<g id="node4" class="node"><title>Node4</title>
<polygon fill="white" stroke="#bfbfbf" points="123.5,-0.5 123.5,-19.5 164.5,-19.5 164.5,-0.5 123.5,-0.5"/>
<text text-anchor="middle" x="144" y="-7.5" font-family="Helvetica,sans-Serif" font-size="10.00">ctime</text>
</g>
<!-- Node1&#45;&gt;Node4 -->
<g id="edge3" class="edge"><title>Node1&#45;&gt;Node4</title>
<path fill="none" stroke="midnightblue" d="M118.954,-56.083C123.104,-48.6127 129.153,-37.7244 134.267,-28.5199"/>
<polygon fill="midnightblue" stroke="midnightblue" points="137.341,-30.1924 139.138,-19.7511 131.222,-26.7929 137.341,-30.1924"/>
</g>
<!-- Node5 -->
<g id="node5" class="node"><title>Node5</title>
<polygon fill="white" stroke="#bfbfbf" points="182.5,-0.5 182.5,-19.5 231.5,-19.5 231.5,-0.5 182.5,-0.5"/>
<text text-anchor="middle" x="207" y="-7.5" font-family="Helvetica,sans-Serif" font-size="10.00">cassert</text>
</g>
<!-- Node1&#45;&gt;Node5 -->
<g id="edge4" class="edge"><title>Node1&#45;&gt;Node5</title>
<path fill="none" stroke="midnightblue" d="M128.942,-56.324C143.585,-47.8215 166.134,-34.7288 183.238,-24.7975"/>
<polygon fill="midnightblue" stroke="midnightblue" points="185.205,-27.7027 192.095,-19.6545 181.69,-21.6491 185.205,-27.7027"/>
</g>
</g>
</svg>
