<?xml version="1.0" encoding="UTF-8" standalone="no"?>
<!DOCTYPE svg PUBLIC "-//W3C//DTD SVG 1.1//EN"
 "http://www.w3.org/Graphics/SVG/1.1/DTD/svg11.dtd">
<!-- Generated by graphviz version 2.36.0 (20140111.2315)
 -->
<!-- Title: IPlugUtilities.h Pages: 1 -->
<svg width="601pt" height="140pt"
 viewBox="0.00 0.00 600.59 140.00" xmlns="http://www.w3.org/2000/svg" xmlns:xlink="http://www.w3.org/1999/xlink">
<g id="graph0" class="graph" transform="scale(1 1) rotate(0) translate(4 136)">
<title>IPlugUtilities.h</title>
<polygon fill="white" stroke="none" points="-4,4 -4,-136 596.587,-136 596.587,4 -4,4"/>
<!-- Node1 -->
<g id="node1" class="node"><title>Node1</title>
<polygon fill="#bfbfbf" stroke="black" points="238,-112.5 238,-131.5 318,-131.5 318,-112.5 238,-112.5"/>
<text text-anchor="middle" x="278" y="-119.5" font-family="Helvetica,sans-Serif" font-size="10.00">IPlugUtilities.h</text>
</g>
<!-- Node2 -->
<g id="node2" class="node"><title>Node2</title>
<polygon fill="white" stroke="#bfbfbf" points="0,-56.5 0,-75.5 56,-75.5 56,-56.5 0,-56.5"/>
<text text-anchor="middle" x="28" y="-63.5" font-family="Helvetica,sans-Serif" font-size="10.00">algorithm</text>
</g>
<!-- Node1&#45;&gt;Node2 -->
<g id="edge1" class="edge"><title>Node1&#45;&gt;Node2</title>
<path fill="none" stroke="midnightblue" d="M237.878,-112.902C197.095,-104.587 131.84,-91.0525 66.3458,-76.2561"/>
<polygon fill="midnightblue" stroke="midnightblue" points="66.7875,-72.7674 56.2609,-73.9679 65.2386,-79.5939 66.7875,-72.7674"/>
</g>
<!-- Node3 -->
<g id="node3" class="node"><title>Node3</title>
<polygon fill="white" stroke="#bfbfbf" points="74,-56.5 74,-75.5 118,-75.5 118,-56.5 74,-56.5"/>
<text text-anchor="middle" x="96" y="-63.5" font-family="Helvetica,sans-Serif" font-size="10.00">cmath</text>
</g>
<!-- Node1&#45;&gt;Node3 -->
<g id="edge2" class="edge"><title>Node1&#45;&gt;Node3</title>
<path fill="none" stroke="midnightblue" d="M249.162,-112.444C216.188,-102.66 162.357,-86.6884 128.084,-76.5194"/>
<polygon fill="midnightblue" stroke="midnightblue" points="128.702,-73.0522 118.12,-73.5631 126.711,-79.763 128.702,-73.0522"/>
</g>
<!-- Node4 -->
<g id="node4" class="node"><title>Node4</title>
<polygon fill="white" stroke="#bfbfbf" points="136.5,-56.5 136.5,-75.5 179.5,-75.5 179.5,-56.5 136.5,-56.5"/>
<text text-anchor="middle" x="158" y="-63.5" font-family="Helvetica,sans-Serif" font-size="10.00">cstdio</text>
</g>
<!-- Node1&#45;&gt;Node4 -->
<g id="edge3" class="edge"><title>Node1&#45;&gt;Node4</title>
<path fill="none" stroke="midnightblue" d="M258.986,-112.444C239.412,-103.636 208.692,-89.8116 186.271,-79.722"/>
<polygon fill="midnightblue" stroke="midnightblue" points="187.481,-76.4284 176.925,-75.5164 184.608,-82.8119 187.481,-76.4284"/>
</g>
<!-- Node5 -->
<g id="node5" class="node"><title>Node5</title>
<polygon fill="white" stroke="#bfbfbf" points="188.5,-0.5 188.5,-19.5 233.5,-19.5 233.5,-0.5 188.5,-0.5"/>
<text text-anchor="middle" x="211" y="-7.5" font-family="Helvetica,sans-Serif" font-size="10.00">cstdlib</text>
</g>
<!-- Node1&#45;&gt;Node5 -->
<g id="edge4" class="edge"><title>Node1&#45;&gt;Node5</title>
<path fill="none" stroke="midnightblue" d="M264.192,-112.355C252.534,-104.338 236.298,-91.352 227,-76 218.439,-61.866 214.452,-43.3806 212.599,-29.7379"/>
<polygon fill="midnightblue" stroke="midnightblue" points="216.059,-29.1782 211.491,-19.6187 209.101,-29.9403 216.059,-29.1782"/>
</g>
<!-- Node6 -->
<g id="node6" class="node"><title>Node6</title>
<polygon fill="white" stroke="#bfbfbf" points="418,-0.5 418,-19.5 464,-19.5 464,-0.5 418,-0.5"/>
<text text-anchor="middle" x="441" y="-7.5" font-family="Helvetica,sans-Serif" font-size="10.00">cstring</text>
</g>
<!-- Node1&#45;&gt;Node6 -->
<g id="edge5" class="edge"><title>Node1&#45;&gt;Node6</title>
<path fill="none" stroke="midnightblue" d="M318.159,-121.313C393.373,-120.95 550.968,-115.384 585,-76 618.472,-37.2644 526.595,-20.4604 474.354,-14.1984"/>
<polygon fill="midnightblue" stroke="midnightblue" points="474.504,-10.6932 464.175,-13.0505 473.719,-17.6491 474.504,-10.6932"/>
</g>
<!-- Node7 -->
<g id="node7" class="node"><title>Node7</title>
<polygon fill="white" stroke="#bfbfbf" points="338,-56.5 338,-75.5 384,-75.5 384,-56.5 338,-56.5"/>
<text text-anchor="middle" x="361" y="-63.5" font-family="Helvetica,sans-Serif" font-size="10.00">cctype</text>
</g>
<!-- Node1&#45;&gt;Node7 -->
<g id="edge6" class="edge"><title>Node1&#45;&gt;Node7</title>
<path fill="none" stroke="midnightblue" d="M291.335,-112.324C304.162,-103.979 323.785,-91.2122 338.94,-81.3524"/>
<polygon fill="midnightblue" stroke="midnightblue" points="341.224,-84.0417 347.698,-75.6545 337.407,-78.1742 341.224,-84.0417"/>
</g>
<!-- Node8 -->
<g id="node8" class="node"><title>Node8</title>
<polygon fill="white" stroke="#bfbfbf" points="402,-56.5 402,-75.5 466,-75.5 466,-56.5 402,-56.5"/>
<text text-anchor="middle" x="434" y="-63.5" font-family="Helvetica,sans-Serif" font-size="10.00">wdlstring.h</text>
</g>
<!-- Node1&#45;&gt;Node8 -->
<g id="edge7" class="edge"><title>Node1&#45;&gt;Node8</title>
<path fill="none" stroke="midnightblue" d="M302.719,-112.444C328.848,-103.399 370.259,-89.064 399.576,-78.9158"/>
<polygon fill="midnightblue" stroke="midnightblue" points="401.092,-82.0951 409.397,-75.5164 398.802,-75.4801 401.092,-82.0951"/>
</g>
<!-- Node9 -->
<g id="node9" class="node"><title>Node9</title>
<g id="a_node9"><a xlink:href="_i_plug_constants_8h.html" target="_top" xlink:title="IPlug Constant definitions, Types, magic numbers. ">
<polygon fill="white" stroke="black" points="484,-56.5 484,-75.5 576,-75.5 576,-56.5 484,-56.5"/>
<text text-anchor="middle" x="530" y="-63.5" font-family="Helvetica,sans-Serif" font-size="10.00">IPlugConstants.h</text>
</a>
</g>
</g>
<!-- Node1&#45;&gt;Node9 -->
<g id="edge8" class="edge"><title>Node1&#45;&gt;Node9</title>
<path fill="none" stroke="midnightblue" d="M317.93,-112.444C361.891,-103.023 432.627,-87.8656 480.183,-77.6752"/>
<polygon fill="midnightblue" stroke="midnightblue" points="481.212,-81.0341 490.257,-75.5164 479.745,-74.1895 481.212,-81.0341"/>
</g>
<!-- Node10 -->
<g id="node10" class="node"><title>Node10</title>
<g id="a_node10"><a xlink:href="_i_plug_platform_8h.html" target="_top" xlink:title="Include to get consistently named preprocessor macros for different platforms and logging functionali...">
<polygon fill="white" stroke="black" points="236,-56.5 236,-75.5 320,-75.5 320,-56.5 236,-56.5"/>
<text text-anchor="middle" x="278" y="-63.5" font-family="Helvetica,sans-Serif" font-size="10.00">IPlugPlatform.h</text>
</a>
</g>
</g>
<!-- Node1&#45;&gt;Node10 -->
<g id="edge9" class="edge"><title>Node1&#45;&gt;Node10</title>
<path fill="none" stroke="midnightblue" d="M278,-112.083C278,-105.006 278,-94.8611 278,-85.9865"/>
<polygon fill="midnightblue" stroke="midnightblue" points="281.5,-85.751 278,-75.7511 274.5,-85.7511 281.5,-85.751"/>
</g>
<!-- Node10&#45;&gt;Node5 -->
<g id="edge11" class="edge"><title>Node10&#45;&gt;Node5</title>
<path fill="none" stroke="midnightblue" d="M267.235,-56.324C257.234,-48.2631 242.113,-36.0765 230.07,-26.3695"/>
<polygon fill="midnightblue" stroke="midnightblue" points="231.943,-23.3841 221.961,-19.8339 227.55,-28.8343 231.943,-23.3841"/>
</g>
<!-- Node10&#45;&gt;Node6 -->
<g id="edge10" class="edge"><title>Node10&#45;&gt;Node6</title>
<path fill="none" stroke="midnightblue" d="M303.828,-56.4435C332.056,-47.0919 377.352,-32.0859 408.103,-21.8984"/>
<polygon fill="midnightblue" stroke="midnightblue" points="409.537,-25.1106 417.928,-18.6433 407.335,-18.4658 409.537,-25.1106"/>
</g>
</g>
</svg>
