<?xml version="1.0" encoding="UTF-8" standalone="no"?>
<!DOCTYPE svg PUBLIC "-//W3C//DTD SVG 1.1//EN"
 "http://www.w3.org/Graphics/SVG/1.1/DTD/svg11.dtd">
<!-- Generated by graphviz version 2.36.0 (20140111.2315)
 -->
<!-- Title: IPlugAPP.h Pages: 1 -->
<svg width="456pt" height="140pt"
 viewBox="0.00 0.00 456.00 140.00" xmlns="http://www.w3.org/2000/svg" xmlns:xlink="http://www.w3.org/1999/xlink">
<g id="graph0" class="graph" transform="scale(1 1) rotate(0) translate(4 136)">
<title>IPlugAPP.h</title>
<polygon fill="white" stroke="none" points="-4,4 -4,-136 452,-136 452,4 -4,4"/>
<!-- Node1 -->
<g id="node1" class="node"><title>Node1</title>
<polygon fill="#bfbfbf" stroke="black" points="80,-112.5 80,-131.5 148,-131.5 148,-112.5 80,-112.5"/>
<text text-anchor="middle" x="114" y="-119.5" font-family="Helvetica,sans-Serif" font-size="10.00">IPlugAPP.h</text>
</g>
<!-- Node2 -->
<g id="node2" class="node"><title>Node2</title>
<g id="a_node2"><a xlink:href="_i_plug_a_p_p_8cpp_source.html" target="_top" xlink:title="IPlugAPP.cpp">
<polygon fill="white" stroke="black" points="0,-0.5 0,-19.5 78,-19.5 78,-0.5 0,-0.5"/>
<text text-anchor="middle" x="39" y="-7.5" font-family="Helvetica,sans-Serif" font-size="10.00">IPlugAPP.cpp</text>
</a>
</g>
</g>
<!-- Node1&#45;&gt;Node2 -->
<g id="edge1" class="edge"><title>Node1&#45;&gt;Node2</title>
<path fill="none" stroke="midnightblue" d="M102.38,-103.957C86.1262,-80.1184 57.2105,-37.7088 44.8578,-19.5914"/>
<polygon fill="midnightblue" stroke="midnightblue" points="99.5897,-106.078 108.115,-112.368 105.373,-102.135 99.5897,-106.078"/>
</g>
<!-- Node3 -->
<g id="node3" class="node"><title>Node3</title>
<g id="a_node3"><a xlink:href="_i_plug_a_p_p__host_8h_source.html" target="_top" xlink:title="IPlugAPP_host.h">
<polygon fill="white" stroke="black" points="105,-56.5 105,-75.5 197,-75.5 197,-56.5 105,-56.5"/>
<text text-anchor="middle" x="151" y="-63.5" font-family="Helvetica,sans-Serif" font-size="10.00">IPlugAPP_host.h</text>
</a>
</g>
</g>
<!-- Node1&#45;&gt;Node3 -->
<g id="edge2" class="edge"><title>Node1&#45;&gt;Node3</title>
<path fill="none" stroke="midnightblue" d="M125.946,-103.566C132.312,-94.2747 139.867,-83.2484 145.004,-75.7511"/>
<polygon fill="midnightblue" stroke="midnightblue" points="122.875,-101.855 120.11,-112.083 128.649,-105.812 122.875,-101.855"/>
</g>
<!-- Node3&#45;&gt;Node2 -->
<g id="edge3" class="edge"><title>Node3&#45;&gt;Node2</title>
<path fill="none" stroke="midnightblue" d="M123.751,-51.8622C102.984,-41.8492 74.9766,-28.3458 56.9501,-19.6545"/>
<polygon fill="midnightblue" stroke="midnightblue" points="122.477,-55.1336 133.005,-56.324 125.518,-48.8282 122.477,-55.1336"/>
</g>
<!-- Node4 -->
<g id="node4" class="node"><title>Node4</title>
<g id="a_node4"><a xlink:href="_i_plug_a_p_p__dialog_8cpp_source.html" target="_top" xlink:title="IPlugAPP_dialog.cpp">
<polygon fill="white" stroke="black" points="96.5,-0.5 96.5,-19.5 205.5,-19.5 205.5,-0.5 96.5,-0.5"/>
<text text-anchor="middle" x="151" y="-7.5" font-family="Helvetica,sans-Serif" font-size="10.00">IPlugAPP_dialog.cpp</text>
</a>
</g>
</g>
<!-- Node3&#45;&gt;Node4 -->
<g id="edge4" class="edge"><title>Node3&#45;&gt;Node4</title>
<path fill="none" stroke="midnightblue" d="M151,-45.8045C151,-36.9102 151,-26.7798 151,-19.7511"/>
<polygon fill="midnightblue" stroke="midnightblue" points="147.5,-46.083 151,-56.083 154.5,-46.083 147.5,-46.083"/>
</g>
<!-- Node5 -->
<g id="node5" class="node"><title>Node5</title>
<g id="a_node5"><a xlink:href="_i_plug_a_p_p__host_8cpp_source.html" target="_top" xlink:title="IPlugAPP_host.cpp">
<polygon fill="white" stroke="black" points="224,-0.5 224,-19.5 326,-19.5 326,-0.5 224,-0.5"/>
<text text-anchor="middle" x="275" y="-7.5" font-family="Helvetica,sans-Serif" font-size="10.00">IPlugAPP_host.cpp</text>
</a>
</g>
</g>
<!-- Node3&#45;&gt;Node5 -->
<g id="edge5" class="edge"><title>Node3&#45;&gt;Node5</title>
<path fill="none" stroke="midnightblue" d="M180.007,-52.3678C203.229,-42.2553 235.163,-28.3486 255.444,-19.5164"/>
<polygon fill="midnightblue" stroke="midnightblue" points="178.419,-49.2419 170.648,-56.4435 181.214,-55.6597 178.419,-49.2419"/>
</g>
<!-- Node6 -->
<g id="node6" class="node"><title>Node6</title>
<g id="a_node6"><a xlink:href="_i_plug_a_p_p__main_8cpp_source.html" target="_top" xlink:title="IPlugAPP_main.cpp">
<polygon fill="white" stroke="black" points="344,-0.5 344,-19.5 448,-19.5 448,-0.5 344,-0.5"/>
<text text-anchor="middle" x="396" y="-7.5" font-family="Helvetica,sans-Serif" font-size="10.00">IPlugAPP_main.cpp</text>
</a>
</g>
</g>
<!-- Node3&#45;&gt;Node6 -->
<g id="edge6" class="edge"><title>Node3&#45;&gt;Node6</title>
<path fill="none" stroke="midnightblue" d="M199.63,-54.2815C245.929,-44.0769 314.695,-28.9203 357.361,-19.5164"/>
<polygon fill="midnightblue" stroke="midnightblue" points="198.833,-50.8731 189.821,-56.4435 200.34,-57.709 198.833,-50.8731"/>
</g>
</g>
</svg>
