<?xml version="1.0" encoding="UTF-8" standalone="no"?>
<!DOCTYPE svg PUBLIC "-//W3C//DTD SVG 1.1//EN"
 "http://www.w3.org/Graphics/SVG/1.1/DTD/svg11.dtd">
<!-- Generated by graphviz version 2.36.0 (20140111.2315)
 -->
<!-- Title: IPlugQueue.h Pages: 1 -->
<svg width="1334pt" height="252pt"
 viewBox="0.00 0.00 1334.00 252.00" xmlns="http://www.w3.org/2000/svg" xmlns:xlink="http://www.w3.org/1999/xlink">
<g id="graph0" class="graph" transform="scale(1 1) rotate(0) translate(4 248)">
<title>IPlugQueue.h</title>
<polygon fill="white" stroke="none" points="-4,4 -4,-248 1330,-248 1330,4 -4,4"/>
<!-- Node1 -->
<g id="node1" class="node"><title>Node1</title>
<polygon fill="#bfbfbf" stroke="black" points="1043,-224.5 1043,-243.5 1119,-243.5 1119,-224.5 1043,-224.5"/>
<text text-anchor="middle" x="1081" y="-231.5" font-family="Helvetica,sans-Serif" font-size="10.00">IPlugQueue.h</text>
</g>
<!-- Node2 -->
<g id="node2" class="node"><title>Node2</title>
<g id="a_node2"><a xlink:href="_i_plug_a_p_i_base_8h.html" target="_top" xlink:title="The base class of an IPlug plug&#45;in, which interacts with the different plug&#45;in APIs. ">
<polygon fill="white" stroke="black" points="556,-168.5 556,-187.5 642,-187.5 642,-168.5 556,-168.5"/>
<text text-anchor="middle" x="599" y="-175.5" font-family="Helvetica,sans-Serif" font-size="10.00">IPlugAPIBase.h</text>
</a>
</g>
</g>
<!-- Node1&#45;&gt;Node2 -->
<g id="edge1" class="edge"><title>Node1&#45;&gt;Node2</title>
<path fill="none" stroke="midnightblue" d="M1032.67,-227.585C938.494,-217.035 731.79,-193.877 642.024,-183.82"/>
<polygon fill="midnightblue" stroke="midnightblue" points="1032.45,-231.082 1042.78,-228.718 1033.23,-224.126 1032.45,-231.082"/>
</g>
<!-- Node27 -->
<g id="node27" class="node"><title>Node27</title>
<g id="a_node27"><a xlink:href="_i_v_meter_control_8h.html" target="_top" xlink:title="Vectorial multichannel capable meter control. ">
<polygon fill="white" stroke="black" points="980.5,-168.5 980.5,-187.5 1071.5,-187.5 1071.5,-168.5 980.5,-168.5"/>
<text text-anchor="middle" x="1026" y="-175.5" font-family="Helvetica,sans-Serif" font-size="10.00">IVMeterControl.h</text>
</a>
</g>
</g>
<!-- Node1&#45;&gt;Node27 -->
<g id="edge27" class="edge"><title>Node1&#45;&gt;Node27</title>
<path fill="none" stroke="midnightblue" d="M1064.71,-217.002C1054.96,-207.433 1042.95,-195.639 1034.91,-187.751"/>
<polygon fill="midnightblue" stroke="midnightblue" points="1062.33,-219.575 1071.92,-224.083 1067.23,-214.58 1062.33,-219.575"/>
</g>
<!-- Node31 -->
<g id="node31" class="node"><title>Node31</title>
<g id="a_node31"><a xlink:href="_i_v_scope_control_8h.html" target="_top" xlink:title="Vectorial multichannel capable oscilloscope control. ">
<polygon fill="white" stroke="black" points="1090,-168.5 1090,-187.5 1184,-187.5 1184,-168.5 1090,-168.5"/>
<text text-anchor="middle" x="1137" y="-175.5" font-family="Helvetica,sans-Serif" font-size="10.00">IVScopeControl.h</text>
</a>
</g>
</g>
<!-- Node1&#45;&gt;Node31 -->
<g id="edge31" class="edge"><title>Node1&#45;&gt;Node31</title>
<path fill="none" stroke="midnightblue" d="M1097.33,-217.253C1107.26,-207.673 1119.59,-195.791 1127.84,-187.834"/>
<polygon fill="midnightblue" stroke="midnightblue" points="1094.77,-214.863 1090,-224.324 1099.63,-219.902 1094.77,-214.863"/>
</g>
<!-- Node32 -->
<g id="node32" class="node"><title>Node32</title>
<g id="a_node32"><a xlink:href="_i_r_t_text_control_8h.html" target="_top" xlink:title="A control to display some text in the UI, driven by values in the RT audio thread. ">
<polygon fill="white" stroke="black" points="1202,-168.5 1202,-187.5 1294,-187.5 1294,-168.5 1202,-168.5"/>
<text text-anchor="middle" x="1248" y="-175.5" font-family="Helvetica,sans-Serif" font-size="10.00">IRTTextControl.h</text>
</a>
</g>
</g>
<!-- Node1&#45;&gt;Node32 -->
<g id="edge33" class="edge"><title>Node1&#45;&gt;Node32</title>
<path fill="none" stroke="midnightblue" d="M1117.17,-221.304C1148.64,-211.129 1193.49,-196.625 1221.66,-187.516"/>
<polygon fill="midnightblue" stroke="midnightblue" points="1115.9,-218.037 1107.46,-224.444 1118.05,-224.697 1115.9,-218.037"/>
</g>
<!-- Node3 -->
<g id="node3" class="node"><title>Node3</title>
<g id="a_node3"><a xlink:href="_i_plug_a_a_x_8h.html" target="_top" xlink:title="AAX API base class for an IPlug plug&#45;in. ">
<polygon fill="white" stroke="black" points="32,-112.5 32,-131.5 100,-131.5 100,-112.5 32,-112.5"/>
<text text-anchor="middle" x="66" y="-119.5" font-family="Helvetica,sans-Serif" font-size="10.00">IPlugAAX.h</text>
</a>
</g>
</g>
<!-- Node2&#45;&gt;Node3 -->
<g id="edge2" class="edge"><title>Node2&#45;&gt;Node3</title>
<path fill="none" stroke="midnightblue" d="M545.929,-172.335C459.962,-164.664 284.952,-148.579 137,-132 125.023,-130.658 111.928,-129.041 100.283,-127.55"/>
<polygon fill="midnightblue" stroke="midnightblue" points="545.692,-175.827 555.963,-173.228 546.313,-168.855 545.692,-175.827"/>
</g>
<!-- Node5 -->
<g id="node5" class="node"><title>Node5</title>
<g id="a_node5"><a xlink:href="_i_plug_a_p_p_8h.html" target="_top" xlink:title="Standalone application base class for an IPlug plug&#45;in. ">
<polygon fill="white" stroke="black" points="146,-112.5 146,-131.5 214,-131.5 214,-112.5 146,-112.5"/>
<text text-anchor="middle" x="180" y="-119.5" font-family="Helvetica,sans-Serif" font-size="10.00">IPlugAPP.h</text>
</a>
</g>
</g>
<!-- Node2&#45;&gt;Node5 -->
<g id="edge4" class="edge"><title>Node2&#45;&gt;Node5</title>
<path fill="none" stroke="midnightblue" d="M545.764,-170.139C458.371,-158.876 286.93,-136.781 214.067,-127.39"/>
<polygon fill="midnightblue" stroke="midnightblue" points="545.372,-173.617 555.738,-171.424 546.267,-166.675 545.372,-173.617"/>
</g>
<!-- Node11 -->
<g id="node11" class="node"><title>Node11</title>
<g id="a_node11"><a xlink:href="_i_plug_a_u_8h.html" target="_top" xlink:title="AudioUnit v2 API base class for an IPlug plug&#45;in. ">
<polygon fill="white" stroke="black" points="260,-112.5 260,-131.5 322,-131.5 322,-112.5 260,-112.5"/>
<text text-anchor="middle" x="291" y="-119.5" font-family="Helvetica,sans-Serif" font-size="10.00">IPlugAU.h</text>
</a>
</g>
</g>
<!-- Node2&#45;&gt;Node11 -->
<g id="edge11" class="edge"><title>Node2&#45;&gt;Node11</title>
<path fill="none" stroke="midnightblue" d="M545.807,-167.707C493.832,-158.622 412.474,-144.388 342,-132 335.536,-130.864 328.611,-129.644 322.014,-128.48"/>
<polygon fill="midnightblue" stroke="midnightblue" points="545.345,-171.18 555.798,-169.454 546.55,-164.284 545.345,-171.18"/>
</g>
<!-- Node13 -->
<g id="node13" class="node"><title>Node13</title>
<g id="a_node13"><a xlink:href="_i_plug_a_p_i_base_8cpp.html" target="_top" xlink:title="IPlugAPIBase implementation. ">
<polygon fill="white" stroke="black" points="351.5,-112.5 351.5,-131.5 448.5,-131.5 448.5,-112.5 351.5,-112.5"/>
<text text-anchor="middle" x="400" y="-119.5" font-family="Helvetica,sans-Serif" font-size="10.00">IPlugAPIBase.cpp</text>
</a>
</g>
</g>
<!-- Node2&#45;&gt;Node13 -->
<g id="edge13" class="edge"><title>Node2&#45;&gt;Node13</title>
<path fill="none" stroke="midnightblue" d="M557.352,-165.699C519.794,-155.507 465.386,-140.743 431.385,-131.516"/>
<polygon fill="midnightblue" stroke="midnightblue" points="556.9,-169.202 567.468,-168.444 558.733,-162.447 556.9,-169.202"/>
</g>
<!-- Node14 -->
<g id="node14" class="node"><title>Node14</title>
<g id="a_node14"><a xlink:href="_i_plug_v_s_t2_8h.html" target="_top" xlink:title="IPlugVST2.h">
<polygon fill="white" stroke="black" points="467,-112.5 467,-131.5 539,-131.5 539,-112.5 467,-112.5"/>
<text text-anchor="middle" x="503" y="-119.5" font-family="Helvetica,sans-Serif" font-size="10.00">IPlugVST2.h</text>
</a>
</g>
</g>
<!-- Node2&#45;&gt;Node14 -->
<g id="edge14" class="edge"><title>Node2&#45;&gt;Node14</title>
<path fill="none" stroke="midnightblue" d="M574.426,-163.177C556.761,-153.241 533.487,-140.149 518.386,-131.655"/>
<polygon fill="midnightblue" stroke="midnightblue" points="573.144,-166.472 583.576,-168.324 576.576,-160.371 573.144,-166.472"/>
</g>
<!-- Node17 -->
<g id="node17" class="node"><title>Node17</title>
<g id="a_node17"><a xlink:href="_i_plug_v_s_t3_8h.html" target="_top" xlink:title="VST3 base class for a non&#45;distributed IPlug VST3 plug&#45;in. ">
<polygon fill="white" stroke="black" points="563,-112.5 563,-131.5 635,-131.5 635,-112.5 563,-112.5"/>
<text text-anchor="middle" x="599" y="-119.5" font-family="Helvetica,sans-Serif" font-size="10.00">IPlugVST3.h</text>
</a>
</g>
</g>
<!-- Node2&#45;&gt;Node17 -->
<g id="edge17" class="edge"><title>Node2&#45;&gt;Node17</title>
<path fill="none" stroke="midnightblue" d="M599,-157.805C599,-148.91 599,-138.78 599,-131.751"/>
<polygon fill="midnightblue" stroke="midnightblue" points="595.5,-158.083 599,-168.083 602.5,-158.083 595.5,-158.083"/>
</g>
<!-- Node19 -->
<g id="node19" class="node"><title>Node19</title>
<g id="a_node19"><a xlink:href="_i_plug_v_s_t3___controller_8h.html" target="_top" xlink:title="VST3 Controller base class for a distributed IPlug VST3 plug&#45;in. ">
<polygon fill="white" stroke="black" points="659.5,-112.5 659.5,-131.5 778.5,-131.5 778.5,-112.5 659.5,-112.5"/>
<text text-anchor="middle" x="719" y="-119.5" font-family="Helvetica,sans-Serif" font-size="10.00">IPlugVST3_Controller.h</text>
</a>
</g>
</g>
<!-- Node2&#45;&gt;Node19 -->
<g id="edge19" class="edge"><title>Node2&#45;&gt;Node19</title>
<path fill="none" stroke="midnightblue" d="M627.373,-164.232C649.82,-154.131 680.535,-140.309 700.075,-131.516"/>
<polygon fill="midnightblue" stroke="midnightblue" points="625.697,-161.148 618.014,-168.444 628.57,-167.532 625.697,-161.148"/>
</g>
<!-- Node21 -->
<g id="node21" class="node"><title>Node21</title>
<g id="a_node21"><a xlink:href="_i_plug_v_s_t3___processor_8h.html" target="_top" xlink:title="VST3 Processor base class for a distributed IPlug VST3 plug&#45;in. ">
<polygon fill="white" stroke="black" points="805,-112.5 805,-131.5 927,-131.5 927,-112.5 805,-112.5"/>
<text text-anchor="middle" x="866" y="-119.5" font-family="Helvetica,sans-Serif" font-size="10.00">IPlugVST3_Processor.h</text>
</a>
</g>
</g>
<!-- Node2&#45;&gt;Node21 -->
<g id="edge21" class="edge"><title>Node2&#45;&gt;Node21</title>
<path fill="none" stroke="midnightblue" d="M651.364,-166.41C701.824,-156.204 777.199,-140.96 823.891,-131.516"/>
<polygon fill="midnightblue" stroke="midnightblue" points="650.415,-163.031 641.307,-168.444 651.802,-169.892 650.415,-163.031"/>
</g>
<!-- Node23 -->
<g id="node23" class="node"><title>Node23</title>
<g id="a_node23"><a xlink:href="_i_plug_w_a_m_8h_source.html" target="_top" xlink:title="IPlugWAM.h">
<polygon fill="white" stroke="black" points="954,-112.5 954,-131.5 1026,-131.5 1026,-112.5 954,-112.5"/>
<text text-anchor="middle" x="990" y="-119.5" font-family="Helvetica,sans-Serif" font-size="10.00">IPlugWAM.h</text>
</a>
</g>
</g>
<!-- Node2&#45;&gt;Node23 -->
<g id="edge23" class="edge"><title>Node2&#45;&gt;Node23</title>
<path fill="none" stroke="midnightblue" d="M652.383,-170.414C718.895,-162.084 835.988,-147.008 936,-132 941.733,-131.14 947.801,-130.178 953.717,-129.213"/>
<polygon fill="midnightblue" stroke="midnightblue" points="651.642,-166.979 642.153,-171.692 652.51,-173.925 651.642,-166.979"/>
</g>
<!-- Node25 -->
<g id="node25" class="node"><title>Node25</title>
<g id="a_node25"><a xlink:href="_i_plug_web_8h_source.html" target="_top" xlink:title="IPlugWeb.h">
<polygon fill="white" stroke="black" points="1054,-112.5 1054,-131.5 1122,-131.5 1122,-112.5 1054,-112.5"/>
<text text-anchor="middle" x="1088" y="-119.5" font-family="Helvetica,sans-Serif" font-size="10.00">IPlugWeb.h</text>
</a>
</g>
</g>
<!-- Node2&#45;&gt;Node25 -->
<g id="edge25" class="edge"><title>Node2&#45;&gt;Node25</title>
<path fill="none" stroke="midnightblue" d="M652.227,-172.636C734.5,-165.635 897.437,-150.758 1035,-132 1041.1,-131.168 1047.58,-130.166 1053.84,-129.138"/>
<polygon fill="midnightblue" stroke="midnightblue" points="651.791,-169.16 642.121,-173.491 652.381,-176.135 651.791,-169.16"/>
</g>
<!-- Node4 -->
<g id="node4" class="node"><title>Node4</title>
<g id="a_node4"><a xlink:href="_i_plug_a_a_x_8cpp_source.html" target="_top" xlink:title="IPlugAAX.cpp">
<polygon fill="white" stroke="black" points="0,-56.5 0,-75.5 78,-75.5 78,-56.5 0,-56.5"/>
<text text-anchor="middle" x="39" y="-63.5" font-family="Helvetica,sans-Serif" font-size="10.00">IPlugAAX.cpp</text>
</a>
</g>
</g>
<!-- Node3&#45;&gt;Node4 -->
<g id="edge3" class="edge"><title>Node3&#45;&gt;Node4</title>
<path fill="none" stroke="midnightblue" d="M56.9914,-102.983C52.4084,-93.8168 47.0461,-83.0922 43.3755,-75.7511"/>
<polygon fill="midnightblue" stroke="midnightblue" points="53.9388,-104.704 61.5415,-112.083 60.1998,-101.573 53.9388,-104.704"/>
</g>
<!-- Node6 -->
<g id="node6" class="node"><title>Node6</title>
<g id="a_node6"><a xlink:href="_i_plug_a_p_p_8cpp_source.html" target="_top" xlink:title="IPlugAPP.cpp">
<polygon fill="white" stroke="black" points="29,-0.5 29,-19.5 107,-19.5 107,-0.5 29,-0.5"/>
<text text-anchor="middle" x="68" y="-7.5" font-family="Helvetica,sans-Serif" font-size="10.00">IPlugAPP.cpp</text>
</a>
</g>
</g>
<!-- Node5&#45;&gt;Node6 -->
<g id="edge5" class="edge"><title>Node5&#45;&gt;Node6</title>
<path fill="none" stroke="midnightblue" d="M160.16,-106.061C149.392,-97.6392 136.061,-86.6887 125,-76 105.573,-57.2259 85.2852,-32.7179 74.9516,-19.8209"/>
<polygon fill="midnightblue" stroke="midnightblue" points="158.096,-108.889 168.153,-112.221 162.368,-103.345 158.096,-108.889"/>
</g>
<!-- Node7 -->
<g id="node7" class="node"><title>Node7</title>
<g id="a_node7"><a xlink:href="_i_plug_a_p_p__host_8h_source.html" target="_top" xlink:title="IPlugAPP_host.h">
<polygon fill="white" stroke="black" points="134,-56.5 134,-75.5 226,-75.5 226,-56.5 134,-56.5"/>
<text text-anchor="middle" x="180" y="-63.5" font-family="Helvetica,sans-Serif" font-size="10.00">IPlugAPP_host.h</text>
</a>
</g>
</g>
<!-- Node5&#45;&gt;Node7 -->
<g id="edge6" class="edge"><title>Node5&#45;&gt;Node7</title>
<path fill="none" stroke="midnightblue" d="M180,-101.805C180,-92.9102 180,-82.7798 180,-75.7511"/>
<polygon fill="midnightblue" stroke="midnightblue" points="176.5,-102.083 180,-112.083 183.5,-102.083 176.5,-102.083"/>
</g>
<!-- Node7&#45;&gt;Node6 -->
<g id="edge7" class="edge"><title>Node7&#45;&gt;Node6</title>
<path fill="none" stroke="midnightblue" d="M152.751,-51.8622C131.984,-41.8492 103.977,-28.3458 85.9501,-19.6545"/>
<polygon fill="midnightblue" stroke="midnightblue" points="151.477,-55.1336 162.005,-56.324 154.518,-48.8282 151.477,-55.1336"/>
</g>
<!-- Node8 -->
<g id="node8" class="node"><title>Node8</title>
<g id="a_node8"><a xlink:href="_i_plug_a_p_p__dialog_8cpp_source.html" target="_top" xlink:title="IPlugAPP_dialog.cpp">
<polygon fill="white" stroke="black" points="125.5,-0.5 125.5,-19.5 234.5,-19.5 234.5,-0.5 125.5,-0.5"/>
<text text-anchor="middle" x="180" y="-7.5" font-family="Helvetica,sans-Serif" font-size="10.00">IPlugAPP_dialog.cpp</text>
</a>
</g>
</g>
<!-- Node7&#45;&gt;Node8 -->
<g id="edge8" class="edge"><title>Node7&#45;&gt;Node8</title>
<path fill="none" stroke="midnightblue" d="M180,-45.8045C180,-36.9102 180,-26.7798 180,-19.7511"/>
<polygon fill="midnightblue" stroke="midnightblue" points="176.5,-46.083 180,-56.083 183.5,-46.083 176.5,-46.083"/>
</g>
<!-- Node9 -->
<g id="node9" class="node"><title>Node9</title>
<g id="a_node9"><a xlink:href="_i_plug_a_p_p__host_8cpp_source.html" target="_top" xlink:title="IPlugAPP_host.cpp">
<polygon fill="white" stroke="black" points="253,-0.5 253,-19.5 355,-19.5 355,-0.5 253,-0.5"/>
<text text-anchor="middle" x="304" y="-7.5" font-family="Helvetica,sans-Serif" font-size="10.00">IPlugAPP_host.cpp</text>
</a>
</g>
</g>
<!-- Node7&#45;&gt;Node9 -->
<g id="edge9" class="edge"><title>Node7&#45;&gt;Node9</title>
<path fill="none" stroke="midnightblue" d="M209.007,-52.3678C232.229,-42.2553 264.163,-28.3486 284.444,-19.5164"/>
<polygon fill="midnightblue" stroke="midnightblue" points="207.419,-49.2419 199.648,-56.4435 210.214,-55.6597 207.419,-49.2419"/>
</g>
<!-- Node10 -->
<g id="node10" class="node"><title>Node10</title>
<g id="a_node10"><a xlink:href="_i_plug_a_p_p__main_8cpp_source.html" target="_top" xlink:title="IPlugAPP_main.cpp">
<polygon fill="white" stroke="black" points="373,-0.5 373,-19.5 477,-19.5 477,-0.5 373,-0.5"/>
<text text-anchor="middle" x="425" y="-7.5" font-family="Helvetica,sans-Serif" font-size="10.00">IPlugAPP_main.cpp</text>
</a>
</g>
</g>
<!-- Node7&#45;&gt;Node10 -->
<g id="edge10" class="edge"><title>Node7&#45;&gt;Node10</title>
<path fill="none" stroke="midnightblue" d="M228.63,-54.2815C274.929,-44.0769 343.695,-28.9203 386.361,-19.5164"/>
<polygon fill="midnightblue" stroke="midnightblue" points="227.833,-50.8731 218.821,-56.4435 229.34,-57.709 227.833,-50.8731"/>
</g>
<!-- Node12 -->
<g id="node12" class="node"><title>Node12</title>
<g id="a_node12"><a xlink:href="_i_plug_a_u_8cpp_source.html" target="_top" xlink:title="IPlugAU.cpp">
<polygon fill="white" stroke="black" points="244,-56.5 244,-75.5 316,-75.5 316,-56.5 244,-56.5"/>
<text text-anchor="middle" x="280" y="-63.5" font-family="Helvetica,sans-Serif" font-size="10.00">IPlugAU.cpp</text>
</a>
</g>
</g>
<!-- Node11&#45;&gt;Node12 -->
<g id="edge12" class="edge"><title>Node11&#45;&gt;Node12</title>
<path fill="none" stroke="midnightblue" d="M287.15,-102.101C285.324,-93.1357 283.23,-82.8579 281.783,-75.7511"/>
<polygon fill="midnightblue" stroke="midnightblue" points="283.758,-102.983 289.184,-112.083 290.617,-101.586 283.758,-102.983"/>
</g>
<!-- Node15 -->
<g id="node15" class="node"><title>Node15</title>
<g id="a_node15"><a xlink:href="_i_plug_reaper_v_s_t2_8h_source.html" target="_top" xlink:title="IPlugReaperVST2.h">
<polygon fill="white" stroke="black" points="334,-56.5 334,-75.5 438,-75.5 438,-56.5 334,-56.5"/>
<text text-anchor="middle" x="386" y="-63.5" font-family="Helvetica,sans-Serif" font-size="10.00">IPlugReaperVST2.h</text>
</a>
</g>
</g>
<!-- Node14&#45;&gt;Node15 -->
<g id="edge15" class="edge"><title>Node14&#45;&gt;Node15</title>
<path fill="none" stroke="midnightblue" d="M475.336,-108.232C453.451,-98.1312 423.503,-84.3091 404.452,-75.5164"/>
<polygon fill="midnightblue" stroke="midnightblue" points="473.915,-111.431 484.461,-112.444 476.848,-105.075 473.915,-111.431"/>
</g>
<!-- Node16 -->
<g id="node16" class="node"><title>Node16</title>
<g id="a_node16"><a xlink:href="_i_plug_v_s_t2_8cpp_source.html" target="_top" xlink:title="IPlugVST2.cpp">
<polygon fill="white" stroke="black" points="456.5,-56.5 456.5,-75.5 539.5,-75.5 539.5,-56.5 456.5,-56.5"/>
<text text-anchor="middle" x="498" y="-63.5" font-family="Helvetica,sans-Serif" font-size="10.00">IPlugVST2.cpp</text>
</a>
</g>
</g>
<!-- Node14&#45;&gt;Node16 -->
<g id="edge16" class="edge"><title>Node14&#45;&gt;Node16</title>
<path fill="none" stroke="midnightblue" d="M501.25,-102.101C500.42,-93.1357 499.468,-82.8579 498.81,-75.7511"/>
<polygon fill="midnightblue" stroke="midnightblue" points="497.767,-102.448 502.174,-112.083 504.737,-101.803 497.767,-102.448"/>
</g>
<!-- Node18 -->
<g id="node18" class="node"><title>Node18</title>
<g id="a_node18"><a xlink:href="_i_plug_v_s_t3_8cpp_source.html" target="_top" xlink:title="IPlugVST3.cpp">
<polygon fill="white" stroke="black" points="557.5,-56.5 557.5,-75.5 640.5,-75.5 640.5,-56.5 557.5,-56.5"/>
<text text-anchor="middle" x="599" y="-63.5" font-family="Helvetica,sans-Serif" font-size="10.00">IPlugVST3.cpp</text>
</a>
</g>
</g>
<!-- Node17&#45;&gt;Node18 -->
<g id="edge18" class="edge"><title>Node17&#45;&gt;Node18</title>
<path fill="none" stroke="midnightblue" d="M599,-101.805C599,-92.9102 599,-82.7798 599,-75.7511"/>
<polygon fill="midnightblue" stroke="midnightblue" points="595.5,-102.083 599,-112.083 602.5,-102.083 595.5,-102.083"/>
</g>
<!-- Node20 -->
<g id="node20" class="node"><title>Node20</title>
<g id="a_node20"><a xlink:href="_i_plug_v_s_t3___controller_8cpp_source.html" target="_top" xlink:title="IPlugVST3_Controller.cpp">
<polygon fill="white" stroke="black" points="659,-56.5 659,-75.5 789,-75.5 789,-56.5 659,-56.5"/>
<text text-anchor="middle" x="724" y="-63.5" font-family="Helvetica,sans-Serif" font-size="10.00">IPlugVST3_Controller.cpp</text>
</a>
</g>
</g>
<!-- Node19&#45;&gt;Node20 -->
<g id="edge20" class="edge"><title>Node19&#45;&gt;Node20</title>
<path fill="none" stroke="midnightblue" d="M720.75,-102.101C721.58,-93.1357 722.532,-82.8579 723.19,-75.7511"/>
<polygon fill="midnightblue" stroke="midnightblue" points="717.263,-101.803 719.826,-112.083 724.233,-102.448 717.263,-101.803"/>
</g>
<!-- Node22 -->
<g id="node22" class="node"><title>Node22</title>
<g id="a_node22"><a xlink:href="_i_plug_v_s_t3___processor_8cpp_source.html" target="_top" xlink:title="IPlugVST3_Processor.cpp">
<polygon fill="white" stroke="black" points="807,-56.5 807,-75.5 939,-75.5 939,-56.5 807,-56.5"/>
<text text-anchor="middle" x="873" y="-63.5" font-family="Helvetica,sans-Serif" font-size="10.00">IPlugVST3_Processor.cpp</text>
</a>
</g>
</g>
<!-- Node21&#45;&gt;Node22 -->
<g id="edge22" class="edge"><title>Node21&#45;&gt;Node22</title>
<path fill="none" stroke="midnightblue" d="M868.45,-102.101C869.612,-93.1357 870.944,-82.8579 871.866,-75.7511"/>
<polygon fill="midnightblue" stroke="midnightblue" points="864.971,-101.716 867.156,-112.083 871.912,-102.616 864.971,-101.716"/>
</g>
<!-- Node24 -->
<g id="node24" class="node"><title>Node24</title>
<g id="a_node24"><a xlink:href="_i_plug_w_a_m_8cpp_source.html" target="_top" xlink:title="IPlugWAM.cpp">
<polygon fill="white" stroke="black" points="957.5,-56.5 957.5,-75.5 1040.5,-75.5 1040.5,-56.5 957.5,-56.5"/>
<text text-anchor="middle" x="999" y="-63.5" font-family="Helvetica,sans-Serif" font-size="10.00">IPlugWAM.cpp</text>
</a>
</g>
</g>
<!-- Node23&#45;&gt;Node24 -->
<g id="edge24" class="edge"><title>Node23&#45;&gt;Node24</title>
<path fill="none" stroke="midnightblue" d="M993.15,-102.101C994.644,-93.1357 996.357,-82.8579 997.541,-75.7511"/>
<polygon fill="midnightblue" stroke="midnightblue" points="989.678,-101.644 991.486,-112.083 996.583,-102.794 989.678,-101.644"/>
</g>
<!-- Node26 -->
<g id="node26" class="node"><title>Node26</title>
<g id="a_node26"><a xlink:href="_i_plug_web_8cpp_source.html" target="_top" xlink:title="IPlugWeb.cpp">
<polygon fill="white" stroke="black" points="1059,-56.5 1059,-75.5 1137,-75.5 1137,-56.5 1059,-56.5"/>
<text text-anchor="middle" x="1098" y="-63.5" font-family="Helvetica,sans-Serif" font-size="10.00">IPlugWeb.cpp</text>
</a>
</g>
</g>
<!-- Node25&#45;&gt;Node26 -->
<g id="edge26" class="edge"><title>Node25&#45;&gt;Node26</title>
<path fill="none" stroke="midnightblue" d="M1091.5,-102.101C1093.16,-93.1357 1095.06,-82.8579 1096.38,-75.7511"/>
<polygon fill="midnightblue" stroke="midnightblue" points="1088.03,-101.613 1089.65,-112.083 1094.91,-102.888 1088.03,-101.613"/>
</g>
<!-- Node28 -->
<g id="node28" class="node"><title>Node28</title>
<g id="a_node28"><a xlink:href="_i_controls_8h.html" target="_top" xlink:title="A collection of IControls for common UI widgets, such as knobs, sliders, switches. ">
<polygon fill="white" stroke="black" points="1160.5,-112.5 1160.5,-131.5 1225.5,-131.5 1225.5,-112.5 1160.5,-112.5"/>
<text text-anchor="middle" x="1193" y="-119.5" font-family="Helvetica,sans-Serif" font-size="10.00">IControls.h</text>
</a>
</g>
</g>
<!-- Node27&#45;&gt;Node28 -->
<g id="edge28" class="edge"><title>Node27&#45;&gt;Node28</title>
<path fill="none" stroke="midnightblue" d="M1062.17,-165.304C1093.64,-155.129 1138.49,-140.625 1166.66,-131.516"/>
<polygon fill="midnightblue" stroke="midnightblue" points="1060.9,-162.037 1052.46,-168.444 1063.05,-168.697 1060.9,-162.037"/>
</g>
<!-- Node29 -->
<g id="node29" class="node"><title>Node29</title>
<g id="a_node29"><a xlink:href="_i_controls_8cpp.html" target="_top" xlink:title="IControls implementation. ">
<polygon fill="white" stroke="black" points="1155.5,-56.5 1155.5,-75.5 1230.5,-75.5 1230.5,-56.5 1155.5,-56.5"/>
<text text-anchor="middle" x="1193" y="-63.5" font-family="Helvetica,sans-Serif" font-size="10.00">IControls.cpp</text>
</a>
</g>
</g>
<!-- Node28&#45;&gt;Node29 -->
<g id="edge29" class="edge"><title>Node28&#45;&gt;Node29</title>
<path fill="none" stroke="midnightblue" d="M1193,-101.805C1193,-92.9102 1193,-82.7798 1193,-75.7511"/>
<polygon fill="midnightblue" stroke="midnightblue" points="1189.5,-102.083 1193,-112.083 1196.5,-102.083 1189.5,-102.083"/>
</g>
<!-- Node30 -->
<g id="node30" class="node"><title>Node30</title>
<g id="a_node30"><a xlink:href="_i_graphics_8cpp_source.html" target="_top" xlink:title="IGraphics.cpp">
<polygon fill="white" stroke="black" points="1248.5,-56.5 1248.5,-75.5 1325.5,-75.5 1325.5,-56.5 1248.5,-56.5"/>
<text text-anchor="middle" x="1287" y="-63.5" font-family="Helvetica,sans-Serif" font-size="10.00">IGraphics.cpp</text>
</a>
</g>
</g>
<!-- Node28&#45;&gt;Node30 -->
<g id="edge30" class="edge"><title>Node28&#45;&gt;Node30</title>
<path fill="none" stroke="midnightblue" d="M1217.06,-107.177C1234.36,-97.2407 1257.15,-84.1492 1271.93,-75.6545"/>
<polygon fill="midnightblue" stroke="midnightblue" points="1215.03,-104.308 1208.1,-112.324 1218.52,-110.378 1215.03,-104.308"/>
</g>
<!-- Node31&#45;&gt;Node28 -->
<g id="edge32" class="edge"><title>Node31&#45;&gt;Node28</title>
<path fill="none" stroke="midnightblue" d="M1153.33,-161.253C1163.26,-151.673 1175.59,-139.791 1183.84,-131.834"/>
<polygon fill="midnightblue" stroke="midnightblue" points="1150.77,-158.863 1146,-168.324 1155.63,-163.902 1150.77,-158.863"/>
</g>
<!-- Node32&#45;&gt;Node28 -->
<g id="edge34" class="edge"><title>Node32&#45;&gt;Node28</title>
<path fill="none" stroke="midnightblue" d="M1231.71,-161.002C1221.96,-151.433 1209.95,-139.639 1201.91,-131.751"/>
<polygon fill="midnightblue" stroke="midnightblue" points="1229.33,-163.575 1238.92,-168.083 1234.23,-158.58 1229.33,-163.575"/>
</g>
</g>
</svg>
