<?xml version="1.0" encoding="UTF-8" standalone="no"?>
<!DOCTYPE svg PUBLIC "-//W3C//DTD SVG 1.1//EN"
 "http://www.w3.org/Graphics/SVG/1.1/DTD/svg11.dtd">
<!-- Generated by graphviz version 2.36.0 (20140111.2315)
 -->
<!-- Title: ITextEntryControl.h Pages: 1 -->
<svg width="580pt" height="84pt"
 viewBox="0.00 0.00 580.00 84.00" xmlns="http://www.w3.org/2000/svg" xmlns:xlink="http://www.w3.org/1999/xlink">
<g id="graph0" class="graph" transform="scale(1 1) rotate(0) translate(4 80)">
<title>ITextEntryControl.h</title>
<polygon fill="white" stroke="none" points="-4,4 -4,-80 576,-80 576,4 -4,4"/>
<!-- Node1 -->
<g id="node1" class="node"><title>Node1</title>
<polygon fill="#bfbfbf" stroke="black" points="246,-56.5 246,-75.5 348,-75.5 348,-56.5 246,-56.5"/>
<text text-anchor="middle" x="297" y="-63.5" font-family="Helvetica,sans-Serif" font-size="10.00">ITextEntryControl.h</text>
</g>
<!-- Node2 -->
<g id="node2" class="node"><title>Node2</title>
<g id="a_node2"><a xlink:href="_i_text_entry_control_8cpp.html" target="_top" xlink:title="ITextEntryControl implementation. ">
<polygon fill="white" stroke="black" points="-0.5,-0.5 -0.5,-19.5 112.5,-19.5 112.5,-0.5 -0.5,-0.5"/>
<text text-anchor="middle" x="56" y="-7.5" font-family="Helvetica,sans-Serif" font-size="10.00">ITextEntryControl.cpp</text>
</a>
</g>
</g>
<!-- Node1&#45;&gt;Node2 -->
<g id="edge1" class="edge"><title>Node1&#45;&gt;Node2</title>
<path fill="none" stroke="midnightblue" d="M248.877,-54.2172C203.338,-44.0134 135.89,-28.9006 94.0085,-19.5164"/>
<polygon fill="midnightblue" stroke="midnightblue" points="248.29,-57.6723 258.813,-56.4435 249.82,-50.8417 248.29,-57.6723"/>
</g>
<!-- Node3 -->
<g id="node3" class="node"><title>Node3</title>
<g id="a_node3"><a xlink:href="_i_graphics_cairo_8cpp_source.html" target="_top" xlink:title="IGraphicsCairo.cpp">
<polygon fill="white" stroke="black" points="130.5,-0.5 130.5,-19.5 231.5,-19.5 231.5,-0.5 130.5,-0.5"/>
<text text-anchor="middle" x="181" y="-7.5" font-family="Helvetica,sans-Serif" font-size="10.00">IGraphicsCairo.cpp</text>
</a>
</g>
</g>
<!-- Node1&#45;&gt;Node3 -->
<g id="edge2" class="edge"><title>Node1&#45;&gt;Node3</title>
<path fill="none" stroke="midnightblue" d="M269.28,-52.096C247.608,-42.0073 218.098,-28.2697 199.295,-19.5164"/>
<polygon fill="midnightblue" stroke="midnightblue" points="268.077,-55.3962 278.619,-56.4435 271.031,-49.0501 268.077,-55.3962"/>
</g>
<!-- Node4 -->
<g id="node4" class="node"><title>Node4</title>
<g id="a_node4"><a xlink:href="_i_graphics_lice_8cpp_source.html" target="_top" xlink:title="IGraphicsLice.cpp">
<polygon fill="white" stroke="black" points="249.5,-0.5 249.5,-19.5 344.5,-19.5 344.5,-0.5 249.5,-0.5"/>
<text text-anchor="middle" x="297" y="-7.5" font-family="Helvetica,sans-Serif" font-size="10.00">IGraphicsLice.cpp</text>
</a>
</g>
</g>
<!-- Node1&#45;&gt;Node4 -->
<g id="edge3" class="edge"><title>Node1&#45;&gt;Node4</title>
<path fill="none" stroke="midnightblue" d="M297,-45.8045C297,-36.9102 297,-26.7798 297,-19.7511"/>
<polygon fill="midnightblue" stroke="midnightblue" points="293.5,-46.083 297,-56.083 300.5,-46.083 293.5,-46.083"/>
</g>
<!-- Node5 -->
<g id="node5" class="node"><title>Node5</title>
<g id="a_node5"><a xlink:href="_i_graphics_nano_v_g_8cpp_source.html" target="_top" xlink:title="IGraphicsNanoVG.cpp">
<polygon fill="white" stroke="black" points="362.5,-0.5 362.5,-19.5 477.5,-19.5 477.5,-0.5 362.5,-0.5"/>
<text text-anchor="middle" x="420" y="-7.5" font-family="Helvetica,sans-Serif" font-size="10.00">IGraphicsNanoVG.cpp</text>
</a>
</g>
</g>
<!-- Node1&#45;&gt;Node5 -->
<g id="edge4" class="edge"><title>Node1&#45;&gt;Node5</title>
<path fill="none" stroke="midnightblue" d="M325.773,-52.3678C348.807,-42.2553 380.484,-28.3486 400.601,-19.5164"/>
<polygon fill="midnightblue" stroke="midnightblue" points="324.239,-49.2188 316.49,-56.4435 327.053,-55.6283 324.239,-49.2188"/>
</g>
<!-- Node6 -->
<g id="node6" class="node"><title>Node6</title>
<g id="a_node6"><a xlink:href="_i_graphics_8cpp_source.html" target="_top" xlink:title="IGraphics.cpp">
<polygon fill="white" stroke="black" points="495.5,-0.5 495.5,-19.5 572.5,-19.5 572.5,-0.5 495.5,-0.5"/>
<text text-anchor="middle" x="534" y="-7.5" font-family="Helvetica,sans-Serif" font-size="10.00">IGraphics.cpp</text>
</a>
</g>
</g>
<!-- Node1&#45;&gt;Node6 -->
<g id="edge5" class="edge"><title>Node1&#45;&gt;Node6</title>
<path fill="none" stroke="midnightblue" d="M344.324,-54.2172C389.108,-44.0134 455.436,-28.9006 496.622,-19.5164"/>
<polygon fill="midnightblue" stroke="midnightblue" points="343.526,-50.8094 334.553,-56.4435 345.081,-57.6345 343.526,-50.8094"/>
</g>
</g>
</svg>
