<?xml version="1.0" encoding="UTF-8" standalone="no"?>
<!DOCTYPE svg PUBLIC "-//W3C//DTD SVG 1.1//EN"
 "http://www.w3.org/Graphics/SVG/1.1/DTD/svg11.dtd">
<!-- Generated by graphviz version 2.36.0 (20140111.2315)
 -->
<!-- Title: IVMeterControl.h Pages: 1 -->
<svg width="177pt" height="140pt"
 viewBox="0.00 0.00 177.00 140.00" xmlns="http://www.w3.org/2000/svg" xmlns:xlink="http://www.w3.org/1999/xlink">
<g id="graph0" class="graph" transform="scale(1 1) rotate(0) translate(4 136)">
<title>IVMeterControl.h</title>
<polygon fill="white" stroke="none" points="-4,4 -4,-136 173,-136 173,4 -4,4"/>
<!-- Node1 -->
<g id="node1" class="node"><title>Node1</title>
<polygon fill="#bfbfbf" stroke="black" points="38.5,-112.5 38.5,-131.5 129.5,-131.5 129.5,-112.5 38.5,-112.5"/>
<text text-anchor="middle" x="84" y="-119.5" font-family="Helvetica,sans-Serif" font-size="10.00">IVMeterControl.h</text>
</g>
<!-- Node2 -->
<g id="node2" class="node"><title>Node2</title>
<g id="a_node2"><a xlink:href="_i_controls_8h.html" target="_top" xlink:title="A collection of IControls for common UI widgets, such as knobs, sliders, switches. ">
<polygon fill="white" stroke="black" points="51.5,-56.5 51.5,-75.5 116.5,-75.5 116.5,-56.5 51.5,-56.5"/>
<text text-anchor="middle" x="84" y="-63.5" font-family="Helvetica,sans-Serif" font-size="10.00">IControls.h</text>
</a>
</g>
</g>
<!-- Node1&#45;&gt;Node2 -->
<g id="edge1" class="edge"><title>Node1&#45;&gt;Node2</title>
<path fill="none" stroke="midnightblue" d="M84,-101.805C84,-92.9102 84,-82.7798 84,-75.7511"/>
<polygon fill="midnightblue" stroke="midnightblue" points="80.5001,-102.083 84,-112.083 87.5001,-102.083 80.5001,-102.083"/>
</g>
<!-- Node3 -->
<g id="node3" class="node"><title>Node3</title>
<g id="a_node3"><a xlink:href="_i_controls_8cpp.html" target="_top" xlink:title="IControls implementation. ">
<polygon fill="white" stroke="black" points="-0.5,-0.5 -0.5,-19.5 74.5,-19.5 74.5,-0.5 -0.5,-0.5"/>
<text text-anchor="middle" x="37" y="-7.5" font-family="Helvetica,sans-Serif" font-size="10.00">IControls.cpp</text>
</a>
</g>
</g>
<!-- Node2&#45;&gt;Node3 -->
<g id="edge2" class="edge"><title>Node2&#45;&gt;Node3</title>
<path fill="none" stroke="midnightblue" d="M69.5792,-48.4314C61.3419,-38.9673 51.3461,-27.4827 44.6167,-19.7511"/>
<polygon fill="midnightblue" stroke="midnightblue" points="67.0336,-50.8378 76.2389,-56.083 72.3137,-46.2421 67.0336,-50.8378"/>
</g>
<!-- Node4 -->
<g id="node4" class="node"><title>Node4</title>
<g id="a_node4"><a xlink:href="_i_graphics_8cpp_source.html" target="_top" xlink:title="IGraphics.cpp">
<polygon fill="white" stroke="black" points="92.5,-0.5 92.5,-19.5 169.5,-19.5 169.5,-0.5 92.5,-0.5"/>
<text text-anchor="middle" x="131" y="-7.5" font-family="Helvetica,sans-Serif" font-size="10.00">IGraphics.cpp</text>
</a>
</g>
</g>
<!-- Node2&#45;&gt;Node4 -->
<g id="edge3" class="edge"><title>Node2&#45;&gt;Node4</title>
<path fill="none" stroke="midnightblue" d="M98.4208,-48.4314C106.658,-38.9673 116.654,-27.4827 123.383,-19.7511"/>
<polygon fill="midnightblue" stroke="midnightblue" points="95.6863,-46.2421 91.7611,-56.083 100.966,-50.8378 95.6863,-46.2421"/>
</g>
</g>
</svg>
