<?xml version="1.0" encoding="UTF-8" standalone="no"?>
<!DOCTYPE svg PUBLIC "-//W3C//DTD SVG 1.1//EN"
 "http://www.w3.org/Graphics/SVG/1.1/DTD/svg11.dtd">
<!-- Generated by graphviz version 2.36.0 (20140111.2315)
 -->
<!-- Title: IEditorDelegate Pages: 1 -->
<svg width="610pt" height="332pt"
 viewBox="0.00 0.00 610.00 332.00" xmlns="http://www.w3.org/2000/svg" xmlns:xlink="http://www.w3.org/1999/xlink">
<g id="graph0" class="graph" transform="scale(1 1) rotate(0) translate(4 328)">
<title>IEditorDelegate</title>
<polygon fill="white" stroke="none" points="-4,4 -4,-328 606,-328 606,4 -4,4"/>
<!-- Node1 -->
<g id="node1" class="node"><title>Node1</title>
<polygon fill="#bfbfbf" stroke="black" points="0,-171.5 0,-190.5 84,-190.5 84,-171.5 0,-171.5"/>
<text text-anchor="middle" x="42" y="-178.5" font-family="Helvetica,sans-Serif" font-size="10.00">IEditorDelegate</text>
</g>
<!-- Node2 -->
<g id="node2" class="node"><title>Node2</title>
<g id="a_node2"><a xlink:href="class_i_g_editor_delegate.html" target="_top" xlink:title="An editor delgate base class for a SOMETHING that uses IGraphics for it&#39;s UI. ">
<polygon fill="white" stroke="black" points="120,-190.5 120,-209.5 212,-209.5 212,-190.5 120,-190.5"/>
<text text-anchor="middle" x="166" y="-197.5" font-family="Helvetica,sans-Serif" font-size="10.00">IGEditorDelegate</text>
</a>
</g>
</g>
<!-- Node1&#45;&gt;Node2 -->
<g id="edge1" class="edge"><title>Node1&#45;&gt;Node2</title>
<path fill="none" stroke="midnightblue" d="M94.1911,-188.972C102.753,-190.306 111.58,-191.68 119.972,-192.988"/>
<polygon fill="midnightblue" stroke="midnightblue" points="94.7231,-185.513 84.3036,-187.433 93.6459,-192.43 94.7231,-185.513"/>
</g>
<!-- Node3 -->
<g id="node3" class="node"><title>Node3</title>
<g id="a_node3"><a xlink:href="class_i_plugin_base.html" target="_top" xlink:title="Base class that contains plug&#45;in info and state manipulation methods. ">
<polygon fill="white" stroke="black" points="131.5,-152.5 131.5,-171.5 200.5,-171.5 200.5,-152.5 131.5,-152.5"/>
<text text-anchor="middle" x="166" y="-159.5" font-family="Helvetica,sans-Serif" font-size="10.00">IPluginBase</text>
</a>
</g>
</g>
<!-- Node1&#45;&gt;Node3 -->
<g id="edge2" class="edge"><title>Node1&#45;&gt;Node3</title>
<path fill="none" stroke="midnightblue" d="M94.2214,-173.023C106.793,-171.065 119.933,-169.019 131.431,-167.228"/>
<polygon fill="midnightblue" stroke="midnightblue" points="93.6459,-169.57 84.3036,-174.567 94.7231,-176.487 93.6459,-169.57"/>
</g>
<!-- Node4 -->
<g id="node4" class="node"><title>Node4</title>
<g id="a_node4"><a xlink:href="class_i_plug_a_p_i_base.html" target="_top" xlink:title="The base class of an IPlug plug&#45;in, which interacts with the different plug&#45;in APIs. ">
<polygon fill="white" stroke="black" points="248,-152.5 248,-171.5 326,-171.5 326,-152.5 248,-152.5"/>
<text text-anchor="middle" x="287" y="-159.5" font-family="Helvetica,sans-Serif" font-size="10.00">IPlugAPIBase</text>
</a>
</g>
</g>
<!-- Node3&#45;&gt;Node4 -->
<g id="edge3" class="edge"><title>Node3&#45;&gt;Node4</title>
<path fill="none" stroke="midnightblue" d="M211.122,-162C223.216,-162 236.221,-162 247.944,-162"/>
<polygon fill="midnightblue" stroke="midnightblue" points="210.782,-158.5 200.782,-162 210.782,-165.5 210.782,-158.5"/>
</g>
<!-- Node5 -->
<g id="node5" class="node"><title>Node5</title>
<g id="a_node5"><a xlink:href="class_i_plug_a_a_x.html" target="_top" xlink:title="AAX API base class for an IPlug plug&#45;in. ">
<polygon fill="white" stroke="black" points="386.5,-304.5 386.5,-323.5 445.5,-323.5 445.5,-304.5 386.5,-304.5"/>
<text text-anchor="middle" x="416" y="-311.5" font-family="Helvetica,sans-Serif" font-size="10.00">IPlugAAX</text>
</a>
</g>
</g>
<!-- Node4&#45;&gt;Node5 -->
<g id="edge4" class="edge"><title>Node4&#45;&gt;Node5</title>
<path fill="none" stroke="midnightblue" d="M293.818,-181.22C303.452,-209.922 325.376,-263.923 362,-295 368.931,-300.882 377.821,-304.997 386.332,-307.854"/>
<polygon fill="midnightblue" stroke="midnightblue" points="297.107,-180.015 290.723,-171.56 290.441,-182.151 297.107,-180.015"/>
</g>
<!-- Node6 -->
<g id="node6" class="node"><title>Node6</title>
<g id="a_node6"><a xlink:href="class_i_plug_a_p_p.html" target="_top" xlink:title="Standalone application base class for an IPlug plug&#45;in. ">
<polygon fill="white" stroke="black" points="386.5,-266.5 386.5,-285.5 445.5,-285.5 445.5,-266.5 386.5,-266.5"/>
<text text-anchor="middle" x="416" y="-273.5" font-family="Helvetica,sans-Serif" font-size="10.00">IPlugAPP</text>
</a>
</g>
</g>
<!-- Node4&#45;&gt;Node6 -->
<g id="edge5" class="edge"><title>Node4&#45;&gt;Node6</title>
<path fill="none" stroke="midnightblue" d="M298.06,-180.529C310.479,-201.787 333.493,-236.362 362,-257 369.205,-262.216 377.985,-266.125 386.309,-268.996"/>
<polygon fill="midnightblue" stroke="midnightblue" points="300.946,-178.522 292.978,-171.539 294.853,-181.967 300.946,-178.522"/>
</g>
<!-- Node7 -->
<g id="node7" class="node"><title>Node7</title>
<g id="a_node7"><a xlink:href="class_i_plug_a_u.html" target="_top" xlink:title="AudioUnit v2 API base class for an IPlug plug&#45;in. ">
<polygon fill="white" stroke="black" points="389.5,-228.5 389.5,-247.5 442.5,-247.5 442.5,-228.5 389.5,-228.5"/>
<text text-anchor="middle" x="416" y="-235.5" font-family="Helvetica,sans-Serif" font-size="10.00">IPlugAU</text>
</a>
</g>
</g>
<!-- Node4&#45;&gt;Node7 -->
<g id="edge6" class="edge"><title>Node4&#45;&gt;Node7</title>
<path fill="none" stroke="midnightblue" d="M305.901,-178.378C320.236,-190.827 341.303,-207.686 362,-219 370.577,-223.689 380.54,-227.614 389.498,-230.656"/>
<polygon fill="midnightblue" stroke="midnightblue" points="308.097,-175.647 298.293,-171.632 303.453,-180.885 308.097,-175.647"/>
</g>
<!-- Node8 -->
<g id="node8" class="node"><title>Node8</title>
<g id="a_node8"><a xlink:href="class_i_plug_v_s_t2.html" target="_top" xlink:title="VST2.4 API base class for an IPlug plug&#45;in. ">
<polygon fill="white" stroke="black" points="384,-190.5 384,-209.5 448,-209.5 448,-190.5 384,-190.5"/>
<text text-anchor="middle" x="416" y="-197.5" font-family="Helvetica,sans-Serif" font-size="10.00">IPlugVST2</text>
</a>
</g>
</g>
<!-- Node4&#45;&gt;Node8 -->
<g id="edge7" class="edge"><title>Node4&#45;&gt;Node8</title>
<path fill="none" stroke="midnightblue" d="M330.05,-174.582C347.605,-179.835 367.639,-185.829 383.841,-190.677"/>
<polygon fill="midnightblue" stroke="midnightblue" points="330.631,-171.103 320.047,-171.589 328.624,-177.809 330.631,-171.103"/>
</g>
<!-- Node10 -->
<g id="node10" class="node"><title>Node10</title>
<g id="a_node10"><a xlink:href="class_i_plug_v_s_t3.html" target="_top" xlink:title="VST3 base class for a non&#45;distributed IPlug VST3 plug&#45;in. ">
<polygon fill="white" stroke="black" points="384,-152.5 384,-171.5 448,-171.5 448,-152.5 384,-152.5"/>
<text text-anchor="middle" x="416" y="-159.5" font-family="Helvetica,sans-Serif" font-size="10.00">IPlugVST3</text>
</a>
</g>
</g>
<!-- Node4&#45;&gt;Node10 -->
<g id="edge9" class="edge"><title>Node4&#45;&gt;Node10</title>
<path fill="none" stroke="midnightblue" d="M336.314,-162C352.216,-162 369.468,-162 383.754,-162"/>
<polygon fill="midnightblue" stroke="midnightblue" points="336.104,-158.5 326.104,-162 336.104,-165.5 336.104,-158.5"/>
</g>
<!-- Node11 -->
<g id="node11" class="node"><title>Node11</title>
<g id="a_node11"><a xlink:href="class_i_plug_v_s_t3_controller.html" target="_top" xlink:title="VST3 Controller base class for a distributed IPlug VST3 plug&#45;in. ">
<polygon fill="white" stroke="black" points="363,-114.5 363,-133.5 469,-133.5 469,-114.5 363,-114.5"/>
<text text-anchor="middle" x="416" y="-121.5" font-family="Helvetica,sans-Serif" font-size="10.00">IPlugVST3Controller</text>
</a>
</g>
</g>
<!-- Node4&#45;&gt;Node11 -->
<g id="edge10" class="edge"><title>Node4&#45;&gt;Node11</title>
<path fill="none" stroke="midnightblue" d="M329.894,-149.465C347.171,-144.295 366.871,-138.401 382.963,-133.586"/>
<polygon fill="midnightblue" stroke="midnightblue" points="328.624,-146.191 320.047,-152.411 330.631,-152.897 328.624,-146.191"/>
</g>
<!-- Node12 -->
<g id="node12" class="node"><title>Node12</title>
<g id="a_node12"><a xlink:href="class_i_plug_v_s_t3_processor.html" target="_top" xlink:title="VST3 Processor base class for a distributed IPlug VST3 plug&#45;in. ">
<polygon fill="white" stroke="black" points="362,-76.5 362,-95.5 470,-95.5 470,-76.5 362,-76.5"/>
<text text-anchor="middle" x="416" y="-83.5" font-family="Helvetica,sans-Serif" font-size="10.00">IPlugVST3Processor</text>
</a>
</g>
</g>
<!-- Node4&#45;&gt;Node12 -->
<g id="edge11" class="edge"><title>Node4&#45;&gt;Node12</title>
<path fill="none" stroke="midnightblue" d="M305.901,-145.622C320.236,-133.173 341.303,-116.314 362,-105 368.604,-101.39 376.03,-98.2323 383.187,-95.582"/>
<polygon fill="midnightblue" stroke="midnightblue" points="303.453,-143.115 298.293,-152.368 308.097,-148.353 303.453,-143.115"/>
</g>
<!-- Node13 -->
<g id="node13" class="node"><title>Node13</title>
<g id="a_node13"><a xlink:href="class_i_plug_w_a_m.html" target="_top" xlink:title="WebAudioModule (WAM) API base class. ">
<polygon fill="white" stroke="black" points="384,-38.5 384,-57.5 448,-57.5 448,-38.5 384,-38.5"/>
<text text-anchor="middle" x="416" y="-45.5" font-family="Helvetica,sans-Serif" font-size="10.00">IPlugWAM</text>
</a>
</g>
</g>
<!-- Node4&#45;&gt;Node13 -->
<g id="edge12" class="edge"><title>Node4&#45;&gt;Node13</title>
<path fill="none" stroke="midnightblue" d="M298.06,-143.471C310.479,-122.213 333.493,-87.6379 362,-67 368.493,-62.2997 376.264,-58.6612 383.828,-55.8864"/>
<polygon fill="midnightblue" stroke="midnightblue" points="294.853,-142.033 292.978,-152.461 300.946,-145.478 294.853,-142.033"/>
</g>
<!-- Node14 -->
<g id="node14" class="node"><title>Node14</title>
<g id="a_node14"><a xlink:href="class_i_plug_web.html" target="_top" xlink:title="This is used for the UI &quot;editor&quot; &#45; controller side of a WAM or remote editors that communicate with d...">
<polygon fill="white" stroke="black" points="386.5,-0.5 386.5,-19.5 445.5,-19.5 445.5,-0.5 386.5,-0.5"/>
<text text-anchor="middle" x="416" y="-7.5" font-family="Helvetica,sans-Serif" font-size="10.00">IPlugWeb</text>
</a>
</g>
</g>
<!-- Node4&#45;&gt;Node14 -->
<g id="edge13" class="edge"><title>Node4&#45;&gt;Node14</title>
<path fill="none" stroke="midnightblue" d="M293.818,-142.78C303.452,-114.078 325.376,-60.0767 362,-29 368.931,-23.1184 377.821,-19.0027 386.332,-16.146"/>
<polygon fill="midnightblue" stroke="midnightblue" points="290.441,-141.849 290.723,-152.44 297.107,-143.985 290.441,-141.849"/>
</g>
<!-- Node9 -->
<g id="node9" class="node"><title>Node9</title>
<g id="a_node9"><a xlink:href="class_i_plug_reaper_v_s_t2.html" target="_top" xlink:title="Reaper specific VST2.4 API base class for an IPlug plug&#45;in. ">
<polygon fill="white" stroke="black" points="506.5,-190.5 506.5,-209.5 601.5,-209.5 601.5,-190.5 506.5,-190.5"/>
<text text-anchor="middle" x="554" y="-197.5" font-family="Helvetica,sans-Serif" font-size="10.00">IPlugReaperVST2</text>
</a>
</g>
</g>
<!-- Node8&#45;&gt;Node9 -->
<g id="edge8" class="edge"><title>Node8&#45;&gt;Node9</title>
<path fill="none" stroke="midnightblue" d="M458.336,-200C473.53,-200 490.834,-200 506.455,-200"/>
<polygon fill="midnightblue" stroke="midnightblue" points="458.201,-196.5 448.201,-200 458.201,-203.5 458.201,-196.5"/>
</g>
</g>
</svg>
