<?xml version="1.0" encoding="UTF-8" standalone="no"?>
<!DOCTYPE svg PUBLIC "-//W3C//DTD SVG 1.1//EN"
 "http://www.w3.org/Graphics/SVG/1.1/DTD/svg11.dtd">
<!-- Generated by graphviz version 2.36.0 (20140111.2315)
 -->
<!-- Title: IBSwitchControl Pages: 1 -->
<svg width="149pt" height="140pt"
 viewBox="0.00 0.00 149.00 140.00" xmlns="http://www.w3.org/2000/svg" xmlns:xlink="http://www.w3.org/1999/xlink">
<g id="graph0" class="graph" transform="scale(1 1) rotate(0) translate(4 136)">
<title>IBSwitchControl</title>
<polygon fill="white" stroke="none" points="-4,4 -4,-136 145,-136 145,4 -4,4"/>
<!-- Node1 -->
<g id="node1" class="node"><title>Node1</title>
<polygon fill="#bfbfbf" stroke="black" points="21,-0.5 21,-19.5 109,-19.5 109,-0.5 21,-0.5"/>
<text text-anchor="middle" x="65" y="-7.5" font-family="Helvetica,sans-Serif" font-size="10.00">IBSwitchControl</text>
</g>
<!-- Node2 -->
<g id="node2" class="node"><title>Node2</title>
<g id="a_node2"><a xlink:href="class_i_bitmap_control.html" target="_top" xlink:title="A basic control to draw a bitmap, or one frame of a stacked bitmap depending on the current value...">
<polygon fill="white" stroke="black" points="24,-56.5 24,-75.5 106,-75.5 106,-56.5 24,-56.5"/>
<text text-anchor="middle" x="65" y="-63.5" font-family="Helvetica,sans-Serif" font-size="10.00">IBitmapControl</text>
</a>
</g>
</g>
<!-- Node2&#45;&gt;Node1 -->
<g id="edge1" class="edge"><title>Node2&#45;&gt;Node1</title>
<path fill="none" stroke="midnightblue" d="M65,-45.8045C65,-36.9102 65,-26.7798 65,-19.7511"/>
<polygon fill="midnightblue" stroke="midnightblue" points="61.5001,-46.083 65,-56.083 68.5001,-46.083 61.5001,-46.083"/>
</g>
<!-- Node3 -->
<g id="node3" class="node"><title>Node3</title>
<g id="a_node3"><a xlink:href="class_i_control.html" target="_top" xlink:title="The lowest level base class of an IGraphics control. ">
<polygon fill="white" stroke="black" points="-0.5,-112.5 -0.5,-131.5 50.5,-131.5 50.5,-112.5 -0.5,-112.5"/>
<text text-anchor="middle" x="25" y="-119.5" font-family="Helvetica,sans-Serif" font-size="10.00">IControl</text>
</a>
</g>
</g>
<!-- Node3&#45;&gt;Node2 -->
<g id="edge2" class="edge"><title>Node3&#45;&gt;Node2</title>
<path fill="none" stroke="midnightblue" d="M37.6997,-103.855C44.626,-94.5048 52.9063,-83.3265 58.5177,-75.7511"/>
<polygon fill="midnightblue" stroke="midnightblue" points="34.745,-101.964 31.6052,-112.083 40.37,-106.131 34.745,-101.964"/>
</g>
<!-- Node4 -->
<g id="node4" class="node"><title>Node4</title>
<g id="a_node4"><a xlink:href="class_i_bitmap_base.html" target="_top" xlink:title="A base interface, to be combined with IControl for bitmap&#45;based controls &quot;IBControls&quot;, managing an IBitmap and IBlend. ">
<polygon fill="white" stroke="black" points="68.5,-112.5 68.5,-131.5 141.5,-131.5 141.5,-112.5 68.5,-112.5"/>
<text text-anchor="middle" x="105" y="-119.5" font-family="Helvetica,sans-Serif" font-size="10.00">IBitmapBase</text>
</a>
</g>
</g>
<!-- Node4&#45;&gt;Node2 -->
<g id="edge3" class="edge"><title>Node4&#45;&gt;Node2</title>
<path fill="none" stroke="midnightblue" d="M92.3003,-103.855C85.374,-94.5048 77.0937,-83.3265 71.4823,-75.7511"/>
<polygon fill="midnightblue" stroke="midnightblue" points="89.63,-106.131 98.3948,-112.083 95.255,-101.964 89.63,-106.131"/>
</g>
</g>
</svg>
