<?xml version="1.0" encoding="UTF-8" standalone="no"?>
<!DOCTYPE svg PUBLIC "-//W3C//DTD SVG 1.1//EN"
 "http://www.w3.org/Graphics/SVG/1.1/DTD/svg11.dtd">
<!-- Generated by graphviz version 7.0.5 (20221223.1930)
 -->
<!-- Title: IVectorBase Pages: 1 -->
<svg width="596pt" height="754pt"
 viewBox="0.00 0.00 596.00 754.00" xmlns="http://www.w3.org/2000/svg" xmlns:xlink="http://www.w3.org/1999/xlink">
<g id="graph0" class="graph" transform="scale(1 1) rotate(0) translate(4 750)">
<title>IVectorBase</title>
<!-- Node1 -->
<g id="node1" class="node">
<title>Node1</title>
<g id="a_node1"><a xlink:title="A base interface to be combined with IControl for vectorial controls &quot;IVControls&quot;,...">
<polygon fill="#999999" stroke="#666666" points="71,-468 0,-468 0,-449 71,-449 71,-468"/>
<text text-anchor="middle" x="35.5" y="-456" font-family="Helvetica,sans-Serif" font-size="10.00">IVectorBase</text>
</a>
</g>
</g>
<!-- Node2 -->
<g id="node2" class="node">
<title>Node2</title>
<g id="a_node2"><a xlink:href="class_i_f_p_s_display_control.html" target="_top" xlink:title="Performance display meter, based on code from NanoVG This is a special control that lives outside the...">
<polygon fill="white" stroke="#666666" points="223.5,-746 122.5,-746 122.5,-727 223.5,-727 223.5,-746"/>
<text text-anchor="middle" x="173" y="-734" font-family="Helvetica,sans-Serif" font-size="10.00">IFPSDisplayControl</text>
</a>
</g>
</g>
<!-- Node1&#45;&gt;Node2 -->
<g id="edge1" class="edge">
<title>Node1&#45;&gt;Node2</title>
<path fill="none" stroke="#63b8ff" d="M35.69,-479.75C35.03,-528.98 40.54,-651.69 107,-718.5 111.29,-722.82 116.53,-726.12 122.14,-728.65"/>
<polygon fill="#63b8ff" stroke="#63b8ff" points="39.18,-480.01 35.94,-469.92 32.19,-479.83 39.18,-480.01"/>
</g>
<!-- Node3 -->
<g id="node3" class="node">
<title>Node3</title>
<g id="a_node3"><a xlink:href="class_i_v_button_control.html" target="_top" xlink:title="A vector button/momentary switch control.">
<polygon fill="white" stroke="#666666" points="216,-709 130,-709 130,-690 216,-690 216,-709"/>
<text text-anchor="middle" x="173" y="-697" font-family="Helvetica,sans-Serif" font-size="10.00">IVButtonControl</text>
</a>
</g>
</g>
<!-- Node1&#45;&gt;Node3 -->
<g id="edge2" class="edge">
<title>Node1&#45;&gt;Node3</title>
<path fill="none" stroke="#63b8ff" d="M36.83,-479.67C38.71,-523.76 49.41,-625.94 107,-681.5 113.24,-687.52 121.3,-691.56 129.61,-694.26"/>
<polygon fill="#63b8ff" stroke="#63b8ff" points="40.33,-479.6 36.54,-469.7 33.33,-479.8 40.33,-479.6"/>
</g>
<!-- Node4 -->
<g id="node4" class="node">
<title>Node4</title>
<g id="a_node4"><a xlink:href="class_i_v_color_swatch_control.html" target="_top" xlink:title="A control to show a color swatch of up to 9 colors.">
<polygon fill="white" stroke="#666666" points="229.5,-672 116.5,-672 116.5,-653 229.5,-653 229.5,-672"/>
<text text-anchor="middle" x="173" y="-660" font-family="Helvetica,sans-Serif" font-size="10.00">IVColorSwatchControl</text>
</a>
</g>
</g>
<!-- Node1&#45;&gt;Node4 -->
<g id="edge3" class="edge">
<title>Node1&#45;&gt;Node4</title>
<path fill="none" stroke="#63b8ff" d="M38.37,-479.57C42.95,-518.08 58.17,-599.97 107,-644.5 110.55,-647.73 114.63,-650.4 118.97,-652.58"/>
<polygon fill="#63b8ff" stroke="#63b8ff" points="41.87,-479.37 37.36,-469.79 34.91,-480.1 41.87,-479.37"/>
</g>
<!-- Node5 -->
<g id="node5" class="node">
<title>Node5</title>
<g id="a_node5"><a xlink:href="class_i_v_display_control.html" target="_top" xlink:title="A control to display a rolling graphics of historical values.">
<polygon fill="white" stroke="#666666" points="217.5,-635 128.5,-635 128.5,-616 217.5,-616 217.5,-635"/>
<text text-anchor="middle" x="173" y="-623" font-family="Helvetica,sans-Serif" font-size="10.00">IVDisplayControl</text>
</a>
</g>
</g>
<!-- Node1&#45;&gt;Node5 -->
<g id="edge4" class="edge">
<title>Node1&#45;&gt;Node5</title>
<path fill="none" stroke="#63b8ff" d="M40.58,-479.38C47.99,-511.71 66.79,-573.67 107,-607.5 113.09,-612.63 120.53,-616.3 128.18,-618.93"/>
<polygon fill="#63b8ff" stroke="#63b8ff" points="44.02,-478.74 38.52,-469.69 37.17,-480.2 44.02,-478.74"/>
</g>
<!-- Node6 -->
<g id="node6" class="node">
<title>Node6</title>
<g id="a_node6"><a xlink:href="class_i_v_group_control.html" target="_top" xlink:title="A control to draw a rectangle around a named IControl group.">
<polygon fill="white" stroke="#666666" points="214.5,-598 131.5,-598 131.5,-579 214.5,-579 214.5,-598"/>
<text text-anchor="middle" x="173" y="-586" font-family="Helvetica,sans-Serif" font-size="10.00">IVGroupControl</text>
</a>
</g>
</g>
<!-- Node1&#45;&gt;Node6 -->
<g id="edge5" class="edge">
<title>Node1&#45;&gt;Node6</title>
<path fill="none" stroke="#63b8ff" d="M43.93,-478.85C54.21,-504.14 75.17,-546.82 107,-570.5 114.05,-575.74 122.54,-579.46 131.04,-582.09"/>
<polygon fill="#63b8ff" stroke="#63b8ff" points="47.27,-477.77 40.4,-469.71 40.74,-480.3 47.27,-477.77"/>
</g>
<!-- Node7 -->
<g id="node7" class="node">
<title>Node7</title>
<g id="a_node7"><a xlink:href="class_i_v_knob_control.html" target="_top" xlink:title="A vector knob control drawn using graphics primitives.">
<polygon fill="white" stroke="#666666" points="213,-561 133,-561 133,-542 213,-542 213,-561"/>
<text text-anchor="middle" x="173" y="-549" font-family="Helvetica,sans-Serif" font-size="10.00">IVKnobControl</text>
</a>
</g>
</g>
<!-- Node1&#45;&gt;Node7 -->
<g id="edge6" class="edge">
<title>Node1&#45;&gt;Node7</title>
<path fill="none" stroke="#63b8ff" d="M49.57,-477.46C62.32,-494.55 83.21,-519.14 107,-533.5 114.82,-538.22 123.91,-541.74 132.77,-544.34"/>
<polygon fill="#63b8ff" stroke="#63b8ff" points="52.61,-475.7 43.93,-469.63 46.93,-479.79 52.61,-475.7"/>
</g>
<!-- Node8 -->
<g id="node8" class="node">
<title>Node8</title>
<g id="a_node8"><a xlink:href="class_i_v_label_control.html" target="_top" xlink:title="A vector label control that can display text with a shadow.">
<polygon fill="white" stroke="#666666" points="213.5,-524 132.5,-524 132.5,-505 213.5,-505 213.5,-524"/>
<text text-anchor="middle" x="173" y="-512" font-family="Helvetica,sans-Serif" font-size="10.00">IVLabelControl</text>
</a>
</g>
</g>
<!-- Node1&#45;&gt;Node8 -->
<g id="edge7" class="edge">
<title>Node1&#45;&gt;Node8</title>
<path fill="none" stroke="#63b8ff" d="M62.22,-474.17C75.29,-481.66 91.63,-490.32 107,-496.5 114.93,-499.69 123.62,-502.52 132,-504.94"/>
<polygon fill="#63b8ff" stroke="#63b8ff" points="64.22,-471.29 53.83,-469.25 60.68,-477.32 64.22,-471.29"/>
</g>
<!-- Node9 -->
<g id="node9" class="node">
<title>Node9</title>
<g id="a_node9"><a xlink:href="class_i_v_number_box_control.html" target="_top" xlink:title="A &quot;meta control&quot; for a number box with an Inc/Dec button It adds several child buttons.">
<polygon fill="white" stroke="#666666" points="227,-487 119,-487 119,-468 227,-468 227,-487"/>
<text text-anchor="middle" x="173" y="-475" font-family="Helvetica,sans-Serif" font-size="10.00">IVNumberBoxControl</text>
</a>
</g>
</g>
<!-- Node1&#45;&gt;Node9 -->
<g id="edge8" class="edge">
<title>Node1&#45;&gt;Node9</title>
<path fill="none" stroke="#63b8ff" d="M82.59,-464.96C94.15,-466.58 106.65,-468.34 118.54,-470"/>
<polygon fill="#63b8ff" stroke="#63b8ff" points="83.28,-461.53 72.89,-463.6 82.31,-468.46 83.28,-461.53"/>
</g>
<!-- Node10 -->
<g id="node10" class="node">
<title>Node10</title>
<g id="a_node10"><a xlink:href="class_i_v_panel_control.html" target="_top" xlink:title="A panel control which can be styled with emboss etc.">
<polygon fill="white" stroke="#666666" points="214,-450 132,-450 132,-431 214,-431 214,-450"/>
<text text-anchor="middle" x="173" y="-438" font-family="Helvetica,sans-Serif" font-size="10.00">IVPanelControl</text>
</a>
</g>
</g>
<!-- Node1&#45;&gt;Node10 -->
<g id="edge9" class="edge">
<title>Node1&#45;&gt;Node10</title>
<path fill="none" stroke="#63b8ff" d="M82.67,-452.37C98.68,-450.24 116.48,-447.88 131.95,-445.82"/>
<polygon fill="#63b8ff" stroke="#63b8ff" points="82.35,-448.88 72.89,-453.67 83.27,-455.82 82.35,-448.88"/>
</g>
<!-- Node11 -->
<g id="node11" class="node">
<title>Node11</title>
<g id="a_node11"><a xlink:href="class_i_v_plot_control.html" target="_top" xlink:title="A vector plot to display functions and waveforms.">
<polygon fill="white" stroke="#666666" points="210,-413 136,-413 136,-394 210,-394 210,-413"/>
<text text-anchor="middle" x="173" y="-401" font-family="Helvetica,sans-Serif" font-size="10.00">IVPlotControl</text>
</a>
</g>
</g>
<!-- Node1&#45;&gt;Node11 -->
<g id="edge10" class="edge">
<title>Node1&#45;&gt;Node11</title>
<path fill="none" stroke="#63b8ff" d="M63.79,-443.05C76.64,-436.17 92.33,-428.33 107,-422.5 116.18,-418.85 126.33,-415.55 135.83,-412.77"/>
<polygon fill="#63b8ff" stroke="#63b8ff" points="62.17,-439.94 55.08,-447.81 65.53,-446.09 62.17,-439.94"/>
</g>
<!-- Node12 -->
<g id="node12" class="node">
<title>Node12</title>
<g id="a_node12"><a xlink:href="class_i_v_scope_control.html" target="_top" xlink:title="Vectorial multi&#45;channel capable oscilloscope control.">
<polygon fill="white" stroke="#666666" points="239,-375.5 107,-375.5 107,-345.5 239,-345.5 239,-375.5"/>
<text text-anchor="start" x="115" y="-363.5" font-family="Helvetica,sans-Serif" font-size="10.00">IVScopeControl&lt; MAXNC,</text>
<text text-anchor="middle" x="173" y="-352.5" font-family="Helvetica,sans-Serif" font-size="10.00"> MAXBUF &gt;</text>
</a>
</g>
</g>
<!-- Node1&#45;&gt;Node12 -->
<g id="edge11" class="edge">
<title>Node1&#45;&gt;Node12</title>
<path fill="none" stroke="#63b8ff" d="M50.43,-440.04C63.51,-423.8 84.41,-400.46 107,-385.5 112.44,-381.89 118.48,-378.7 124.62,-375.9"/>
<polygon fill="#63b8ff" stroke="#63b8ff" points="48.02,-437.45 44.61,-447.48 53.53,-441.76 48.02,-437.45"/>
</g>
<!-- Node13 -->
<g id="node13" class="node">
<title>Node13</title>
<g id="a_node13"><a xlink:href="class_i_v_slider_control.html" target="_top" xlink:title="A vector slider control.">
<polygon fill="white" stroke="#666666" points="214,-327 132,-327 132,-308 214,-308 214,-327"/>
<text text-anchor="middle" x="173" y="-315" font-family="Helvetica,sans-Serif" font-size="10.00">IVSliderControl</text>
</a>
</g>
</g>
<!-- Node1&#45;&gt;Node13 -->
<g id="edge12" class="edge">
<title>Node1&#45;&gt;Node13</title>
<path fill="none" stroke="#63b8ff" d="M42.94,-437.98C52.52,-410.76 73.14,-363.08 107,-336.5 114.12,-330.91 122.84,-326.96 131.55,-324.18"/>
<polygon fill="#63b8ff" stroke="#63b8ff" points="39.72,-436.55 39.88,-447.14 46.36,-438.76 39.72,-436.55"/>
</g>
<!-- Node14 -->
<g id="node14" class="node">
<title>Node14</title>
<g id="a_node14"><a xlink:href="class_i_v_switch_control.html" target="_top" xlink:title="A vector switch control.">
<polygon fill="white" stroke="#666666" points="216.5,-290 129.5,-290 129.5,-271 216.5,-271 216.5,-290"/>
<text text-anchor="middle" x="173" y="-278" font-family="Helvetica,sans-Serif" font-size="10.00">IVSwitchControl</text>
</a>
</g>
</g>
<!-- Node1&#45;&gt;Node14 -->
<g id="edge13" class="edge">
<title>Node1&#45;&gt;Node14</title>
<path fill="none" stroke="#63b8ff" d="M39.94,-437.71C46.64,-403.76 64.7,-336.52 107,-299.5 113.28,-294 121.08,-290.09 129.07,-287.31"/>
<polygon fill="#63b8ff" stroke="#63b8ff" points="36.57,-436.64 38.23,-447.1 43.46,-437.89 36.57,-436.64"/>
</g>
<!-- Node17 -->
<g id="node17" class="node">
<title>Node17</title>
<g id="a_node17"><a xlink:href="class_i_v_tab_switch_control.html" target="_top" xlink:title="A vector &quot;tab&quot; multi switch control.">
<polygon fill="white" stroke="#666666" points="225,-253 121,-253 121,-234 225,-234 225,-253"/>
<text text-anchor="middle" x="173" y="-241" font-family="Helvetica,sans-Serif" font-size="10.00">IVTabSwitchControl</text>
</a>
</g>
</g>
<!-- Node1&#45;&gt;Node17 -->
<g id="edge16" class="edge">
<title>Node1&#45;&gt;Node17</title>
<path fill="none" stroke="#63b8ff" d="M37.99,-437.22C41.96,-397.16 56.25,-310.25 107,-262.5 111.02,-258.71 115.76,-255.68 120.82,-253.24"/>
<polygon fill="#63b8ff" stroke="#63b8ff" points="34.51,-436.92 37.15,-447.18 41.48,-437.51 34.51,-436.92"/>
</g>
<!-- Node19 -->
<g id="node19" class="node">
<title>Node19</title>
<g id="a_node19"><a xlink:href="class_i_v_track_control_base.html" target="_top" xlink:title="A base class for mult&#45;strip/track controls, such as multi&#45;sliders, meters Track refers to the channel...">
<polygon fill="white" stroke="#666666" points="225,-160 121,-160 121,-141 225,-141 225,-160"/>
<text text-anchor="middle" x="173" y="-148" font-family="Helvetica,sans-Serif" font-size="10.00">IVTrackControlBase</text>
</a>
</g>
</g>
<!-- Node1&#45;&gt;Node19 -->
<g id="edge18" class="edge">
<title>Node1&#45;&gt;Node19</title>
<path fill="none" stroke="#63b8ff" d="M39.84,-437.31C47.16,-394.93 67.24,-297.61 107,-225.5 121.56,-199.1 146.59,-173.74 160.97,-160.34"/>
<polygon fill="#63b8ff" stroke="#63b8ff" points="36.4,-436.68 38.22,-447.11 43.3,-437.82 36.4,-436.68"/>
</g>
<!-- Node28 -->
<g id="node28" class="node">
<title>Node28</title>
<g id="a_node28"><a xlink:href="class_i_v_x_y_pad_control.html" target="_top" xlink:title="A vector XY Pad slider control.">
<polygon fill="white" stroke="#666666" points="217,-123 129,-123 129,-104 217,-104 217,-123"/>
<text text-anchor="middle" x="173" y="-111" font-family="Helvetica,sans-Serif" font-size="10.00">IVXYPadControl</text>
</a>
</g>
</g>
<!-- Node1&#45;&gt;Node28 -->
<g id="edge28" class="edge">
<title>Node1&#45;&gt;Node28</title>
<path fill="none" stroke="#63b8ff" d="M38.26,-437.65C44.11,-373 65.01,-177.6 107,-132.5 112.85,-126.22 120.65,-121.97 128.81,-119.12"/>
<polygon fill="#63b8ff" stroke="#63b8ff" points="34.8,-436.97 37.42,-447.24 41.78,-437.59 34.8,-436.97"/>
</g>
<!-- Node15 -->
<g id="node15" class="node">
<title>Node15</title>
<g id="a_node15"><a xlink:href="class_i_v_slide_switch_control.html" target="_top" xlink:title="A switch with a slide animation when clicked.">
<polygon fill="white" stroke="#666666" points="396.5,-327 287.5,-327 287.5,-308 396.5,-308 396.5,-327"/>
<text text-anchor="middle" x="342" y="-315" font-family="Helvetica,sans-Serif" font-size="10.00">IVSlideSwitchControl</text>
</a>
</g>
</g>
<!-- Node14&#45;&gt;Node15 -->
<g id="edge14" class="edge">
<title>Node14&#45;&gt;Node15</title>
<path fill="none" stroke="#63b8ff" d="M227.74,-292.41C249.72,-297.28 274.87,-302.85 295.87,-307.5"/>
<polygon fill="#63b8ff" stroke="#63b8ff" points="228.57,-289.01 218.05,-290.26 227.06,-295.84 228.57,-289.01"/>
</g>
<!-- Node16 -->
<g id="node16" class="node">
<title>Node16</title>
<g id="a_node16"><a xlink:href="class_i_v_toggle_control.html" target="_top" xlink:title="A vector toggle control.">
<polygon fill="white" stroke="#666666" points="385,-290 299,-290 299,-271 385,-271 385,-290"/>
<text text-anchor="middle" x="342" y="-278" font-family="Helvetica,sans-Serif" font-size="10.00">IVToggleControl</text>
</a>
</g>
</g>
<!-- Node14&#45;&gt;Node16 -->
<g id="edge15" class="edge">
<title>Node14&#45;&gt;Node16</title>
<path fill="none" stroke="#63b8ff" d="M227.84,-280.5C250.72,-280.5 277.02,-280.5 298.5,-280.5"/>
<polygon fill="#63b8ff" stroke="#63b8ff" points="228.09,-277 218.09,-280.5 228.09,-284 228.09,-277"/>
</g>
<!-- Node18 -->
<g id="node18" class="node">
<title>Node18</title>
<g id="a_node18"><a xlink:href="class_i_v_radio_button_control.html" target="_top" xlink:title="A vector &quot;radio buttons&quot; switch control.">
<polygon fill="white" stroke="#666666" points="397,-253 287,-253 287,-234 397,-234 397,-253"/>
<text text-anchor="middle" x="342" y="-241" font-family="Helvetica,sans-Serif" font-size="10.00">IVRadioButtonControl</text>
</a>
</g>
</g>
<!-- Node17&#45;&gt;Node18 -->
<g id="edge17" class="edge">
<title>Node17&#45;&gt;Node18</title>
<path fill="none" stroke="#63b8ff" d="M236.61,-243.5C253.02,-243.5 270.57,-243.5 286.52,-243.5"/>
<polygon fill="#63b8ff" stroke="#63b8ff" points="236.98,-240 226.98,-243.5 236.98,-247 236.98,-240"/>
</g>
<!-- Node20 -->
<g id="node20" class="node">
<title>Node20</title>
<g id="a_node20"><a xlink:href="class_i_v_meter_control.html" target="_top" xlink:title=" ">
<polygon fill="white" stroke="#666666" points="409,-216 275,-216 275,-197 409,-197 409,-216"/>
<text text-anchor="middle" x="342" y="-204" font-family="Helvetica,sans-Serif" font-size="10.00">IVMeterControl&lt; MAXNC &gt;</text>
</a>
</g>
</g>
<!-- Node19&#45;&gt;Node20 -->
<g id="edge19" class="edge">
<title>Node19&#45;&gt;Node20</title>
<path fill="none" stroke="#63b8ff" d="M208.71,-164.48C228.06,-172.04 252.7,-181.28 275,-188.5 283.7,-191.32 293.14,-194.07 302.08,-196.54"/>
<polygon fill="#63b8ff" stroke="#63b8ff" points="210.26,-161.33 199.67,-160.92 207.69,-167.84 210.26,-161.33"/>
</g>
<!-- Node22 -->
<g id="node22" class="node">
<title>Node22</title>
<g id="a_node22"><a xlink:href="class_i_v_meter_control.html" target="_top" xlink:title=" ">
<polygon fill="white" stroke="#666666" points="394,-179 290,-179 290,-160 394,-160 394,-179"/>
<text text-anchor="middle" x="342" y="-167" font-family="Helvetica,sans-Serif" font-size="10.00">IVMeterControl&lt; 1 &gt;</text>
</a>
</g>
</g>
<!-- Node19&#45;&gt;Node22 -->
<g id="edge21" class="edge">
<title>Node19&#45;&gt;Node22</title>
<path fill="none" stroke="#63b8ff" d="M236.73,-157.64C254.2,-159.62 272.97,-161.76 289.7,-163.66"/>
<polygon fill="#63b8ff" stroke="#63b8ff" points="237.3,-154.18 226.97,-156.53 236.51,-161.13 237.3,-154.18"/>
</g>
<!-- Node23 -->
<g id="node23" class="node">
<title>Node23</title>
<g id="a_node23"><a xlink:href="class_i_v_multi_slider_control.html" target="_top" xlink:title=" ">
<polygon fill="white" stroke="#666666" points="404.5,-142 279.5,-142 279.5,-123 404.5,-123 404.5,-142"/>
<text text-anchor="middle" x="342" y="-130" font-family="Helvetica,sans-Serif" font-size="10.00">IVMultiSliderControl&lt; 1 &gt;</text>
</a>
</g>
</g>
<!-- Node19&#45;&gt;Node23 -->
<g id="edge22" class="edge">
<title>Node19&#45;&gt;Node23</title>
<path fill="none" stroke="#63b8ff" d="M236.86,-143.72C250.7,-142.23 265.34,-140.66 279.13,-139.17"/>
<polygon fill="#63b8ff" stroke="#63b8ff" points="236.54,-140.24 226.97,-144.79 237.29,-147.2 236.54,-140.24"/>
</g>
<!-- Node24 -->
<g id="node24" class="node">
<title>Node24</title>
<g id="a_node24"><a xlink:href="class_i_v_meter_control.html" target="_top" xlink:title="Vectorial multi&#45;channel capable meter control, linear or log response.">
<polygon fill="white" stroke="#666666" points="409,-105 275,-105 275,-86 409,-86 409,-105"/>
<text text-anchor="middle" x="342" y="-93" font-family="Helvetica,sans-Serif" font-size="10.00">IVMeterControl&lt; MAXNC &gt;</text>
</a>
</g>
</g>
<!-- Node19&#45;&gt;Node24 -->
<g id="edge23" class="edge">
<title>Node19&#45;&gt;Node24</title>
<path fill="none" stroke="#63b8ff" d="M225.42,-137.26C230.05,-135.77 234.63,-134.18 239,-132.5 255.7,-126.08 258.33,-121 275,-114.5 283.55,-111.16 292.93,-108.11 301.87,-105.48"/>
<polygon fill="#63b8ff" stroke="#63b8ff" points="224.61,-133.85 216.06,-140.12 226.65,-140.55 224.61,-133.85"/>
</g>
<!-- Node25 -->
<g id="node25" class="node">
<title>Node25</title>
<g id="a_node25"><a xlink:href="class_i_v_multi_slider_control.html" target="_top" xlink:title="A vectorial multi&#45;slider control.">
<polygon fill="white" stroke="#666666" points="393.5,-67.5 290.5,-67.5 290.5,-37.5 393.5,-37.5 393.5,-67.5"/>
<text text-anchor="start" x="298.5" y="-55.5" font-family="Helvetica,sans-Serif" font-size="10.00">IVMultiSliderControl</text>
<text text-anchor="middle" x="342" y="-44.5" font-family="Helvetica,sans-Serif" font-size="10.00">&lt; MAXNC &gt;</text>
</a>
</g>
</g>
<!-- Node19&#45;&gt;Node25 -->
<g id="edge25" class="edge">
<title>Node19&#45;&gt;Node25</title>
<path fill="none" stroke="#63b8ff" d="M234.24,-135.66C235.89,-134.67 237.48,-133.62 239,-132.5 262.82,-114.95 251.88,-94.97 275,-76.5 279.57,-72.85 284.75,-69.72 290.15,-67.05"/>
<polygon fill="#63b8ff" stroke="#63b8ff" points="233.09,-132.33 225.72,-139.94 236.23,-138.58 233.09,-132.33"/>
</g>
<!-- Node27 -->
<g id="node27" class="node">
<title>Node27</title>
<g id="a_node27"><a xlink:href="class_i_v_range_slider_control.html" target="_top" xlink:title="A vector range slider control, with two handles.">
<polygon fill="white" stroke="#666666" points="397,-19 287,-19 287,0 397,0 397,-19"/>
<text text-anchor="middle" x="342" y="-7" font-family="Helvetica,sans-Serif" font-size="10.00">IVRangeSliderControl</text>
</a>
</g>
</g>
<!-- Node19&#45;&gt;Node27 -->
<g id="edge27" class="edge">
<title>Node19&#45;&gt;Node27</title>
<path fill="none" stroke="#63b8ff" d="M235.04,-135.81C236.42,-134.78 237.75,-133.68 239,-132.5 274.66,-99.02 239.51,-62.16 275,-28.5 278.89,-24.81 283.46,-21.83 288.34,-19.42"/>
<polygon fill="#63b8ff" stroke="#63b8ff" points="233.33,-132.75 226.51,-140.86 236.9,-138.78 233.33,-132.75"/>
</g>
<!-- Node21 -->
<g id="node21" class="node">
<title>Node21</title>
<g id="a_node21"><a xlink:href="class_i_v_peak_avg_meter_control.html" target="_top" xlink:title=" ">
<polygon fill="white" stroke="#666666" points="588,-160 445,-160 445,-141 588,-141 588,-160"/>
<text text-anchor="middle" x="516.5" y="-148" font-family="Helvetica,sans-Serif" font-size="10.00">IVPeakAvgMeterControl&lt; 1 &gt;</text>
</a>
</g>
</g>
<!-- Node20&#45;&gt;Node21 -->
<g id="edge20" class="edge">
<title>Node20&#45;&gt;Node21</title>
<path fill="none" stroke="#63b8ff" d="M392.31,-193.5C397.95,-191.88 403.61,-190.19 409,-188.5 436.72,-179.79 467.98,-168.45 489.43,-160.43"/>
<polygon fill="#63b8ff" stroke="#63b8ff" points="391.67,-190.04 382.99,-196.11 393.57,-196.78 391.67,-190.04"/>
</g>
<!-- Node24&#45;&gt;Node21 -->
<g id="edge24" class="edge">
<title>Node24&#45;&gt;Node21</title>
<path fill="none" stroke="#63b8ff" d="M389.56,-108.62C396.1,-110.54 402.73,-112.54 409,-114.5 435.64,-122.83 465.75,-133.09 487.14,-140.52"/>
<polygon fill="#63b8ff" stroke="#63b8ff" points="390.74,-105.31 380.17,-105.88 388.79,-112.04 390.74,-105.31"/>
</g>
<!-- Node26 -->
<g id="node26" class="node">
<title>Node26</title>
<g id="a_node26"><a xlink:href="class_i_v_multi_toggle_control.html" target="_top" xlink:title="A vectorial multi&#45;toggle control, could be used for a trigger in a step sequencer or tarnce gate.">
<polygon fill="white" stroke="#666666" points="570,-67.5 463,-67.5 463,-37.5 570,-37.5 570,-67.5"/>
<text text-anchor="start" x="471" y="-55.5" font-family="Helvetica,sans-Serif" font-size="10.00">IVMultiToggleControl</text>
<text text-anchor="middle" x="516.5" y="-44.5" font-family="Helvetica,sans-Serif" font-size="10.00">&lt; MAXNC &gt;</text>
</a>
</g>
</g>
<!-- Node25&#45;&gt;Node26 -->
<g id="edge26" class="edge">
<title>Node25&#45;&gt;Node26</title>
<path fill="none" stroke="#63b8ff" d="M405.28,-52.5C424.08,-52.5 444.52,-52.5 462.65,-52.5"/>
<polygon fill="#63b8ff" stroke="#63b8ff" points="405.34,-49 395.34,-52.5 405.34,-56 405.34,-49"/>
</g>
</g>
</svg>
