<?xml version="1.0" encoding="UTF-8" standalone="no"?>
<!DOCTYPE svg PUBLIC "-//W3C//DTD SVG 1.1//EN"
 "http://www.w3.org/Graphics/SVG/1.1/DTD/svg11.dtd">
<!-- Generated by graphviz version 7.0.5 (20221223.1930)
 -->
<!-- Title: APIBitmap Pages: 1 -->
<svg width="415pt" height="82pt"
 viewBox="0.00 0.00 415.00 82.00" xmlns="http://www.w3.org/2000/svg" xmlns:xlink="http://www.w3.org/1999/xlink">
<g id="graph0" class="graph" transform="scale(1 1) rotate(0) translate(4 78)">
<title>APIBitmap</title>
<!-- Node1 -->
<g id="node1" class="node">
<title>Node1</title>
<g id="a_node1"><a xlink:title="A base class interface for a bitmap abstraction around the different drawing back end bitmap represen...">
<polygon fill="#999999" stroke="#666666" points="242.5,-74 178.5,-74 178.5,-55 242.5,-55 242.5,-74"/>
<text text-anchor="middle" x="210.5" y="-62" font-family="Helvetica,sans-Serif" font-size="10.00">APIBitmap</text>
</a>
</g>
</g>
<!-- Node2 -->
<g id="node2" class="node">
<title>Node2</title>
<g id="a_node2"><a xlink:href="class_i_graphics_canvas_1_1_bitmap.html" target="_top" xlink:title=" ">
<polygon fill="white" stroke="#bfbfbf" points="127,-19 0,-19 0,0 127,0 127,-19"/>
<text text-anchor="middle" x="63.5" y="-7" font-family="Helvetica,sans-Serif" font-size="10.00">IGraphicsCanvas::Bitmap</text>
</a>
</g>
</g>
<!-- Node1&#45;&gt;Node2 -->
<g id="edge1" class="edge">
<title>Node1&#45;&gt;Node2</title>
<path fill="none" stroke="#63b8ff" d="M175.03,-50.71C148.13,-41.01 111.84,-27.93 88.07,-19.36"/>
<polygon fill="#63b8ff" stroke="#63b8ff" points="173.55,-53.9 184.14,-54 175.92,-47.31 173.55,-53.9"/>
</g>
<!-- Node3 -->
<g id="node3" class="node">
<title>Node3</title>
<g id="a_node3"><a xlink:href="class_i_graphics_nano_v_g_1_1_bitmap.html" target="_top" xlink:title=" ">
<polygon fill="white" stroke="#bfbfbf" points="276,-19 145,-19 145,0 276,0 276,-19"/>
<text text-anchor="middle" x="210.5" y="-7" font-family="Helvetica,sans-Serif" font-size="10.00">IGraphicsNanoVG::Bitmap</text>
</a>
</g>
</g>
<!-- Node1&#45;&gt;Node3 -->
<g id="edge2" class="edge">
<title>Node1&#45;&gt;Node3</title>
<path fill="none" stroke="#63b8ff" d="M210.5,-43.35C210.5,-35.1 210.5,-25.97 210.5,-19.44"/>
<polygon fill="#63b8ff" stroke="#63b8ff" points="207,-43.23 210.5,-53.23 214,-43.23 207,-43.23"/>
</g>
<!-- Node4 -->
<g id="node4" class="node">
<title>Node4</title>
<g id="a_node4"><a xlink:href="class_i_graphics_skia_1_1_bitmap.html" target="_top" xlink:title=" ">
<polygon fill="white" stroke="#bfbfbf" points="407,-19 294,-19 294,0 407,0 407,-19"/>
<text text-anchor="middle" x="350.5" y="-7" font-family="Helvetica,sans-Serif" font-size="10.00">IGraphicsSkia::Bitmap</text>
</a>
</g>
</g>
<!-- Node1&#45;&gt;Node4 -->
<g id="edge3" class="edge">
<title>Node1&#45;&gt;Node4</title>
<path fill="none" stroke="#63b8ff" d="M244.96,-50.45C270.51,-40.78 304.66,-27.85 327.1,-19.36"/>
<polygon fill="#63b8ff" stroke="#63b8ff" points="243.78,-47.16 235.66,-53.97 246.26,-53.71 243.78,-47.16"/>
</g>
</g>
</svg>
