<?xml version="1.0" encoding="UTF-8" standalone="no"?>
<!DOCTYPE svg PUBLIC "-//W3C//DTD SVG 1.1//EN"
 "http://www.w3.org/Graphics/SVG/1.1/DTD/svg11.dtd">
<!-- Generated by graphviz version 2.36.0 (20140111.2315)
 -->
<!-- Title: IVScopeControl&lt; MAXNC, MAXBUF, QUEUE_SIZE &gt; Pages: 1 -->
<svg width="153pt" height="96pt"
 viewBox="0.00 0.00 153.00 96.00" xmlns="http://www.w3.org/2000/svg" xmlns:xlink="http://www.w3.org/1999/xlink">
<g id="graph0" class="graph" transform="scale(1 1) rotate(0) translate(4 92)">
<title>IVScopeControl&lt; MAXNC, MAXBUF, QUEUE_SIZE &gt;</title>
<polygon fill="white" stroke="none" points="-4,4 -4,-92 149,-92 149,4 -4,4"/>
<!-- Node1 -->
<g id="node1" class="node"><title>Node1</title>
<polygon fill="#bfbfbf" stroke="black" points="0,-1 0,-31 140,-31 140,-1 0,-1"/>
<text text-anchor="start" x="8" y="-19" font-family="Helvetica,sans-Serif" font-size="10.00">IVScopeControl&lt; MAXNC,</text>
<text text-anchor="middle" x="70" y="-8" font-family="Helvetica,sans-Serif" font-size="10.00"> MAXBUF, QUEUE_SIZE &gt;</text>
</g>
<!-- Node2 -->
<g id="node2" class="node"><title>Node2</title>
<g id="a_node2"><a xlink:href="class_i_control.html" target="_top" xlink:title="The lowest level base class of an IGraphics control. ">
<polygon fill="white" stroke="black" points="5.5,-68.5 5.5,-87.5 56.5,-87.5 56.5,-68.5 5.5,-68.5"/>
<text text-anchor="middle" x="31" y="-75.5" font-family="Helvetica,sans-Serif" font-size="10.00">IControl</text>
</a>
</g>
</g>
<!-- Node2&#45;&gt;Node1 -->
<g id="edge1" class="edge"><title>Node2&#45;&gt;Node1</title>
<path fill="none" stroke="midnightblue" d="M42.1669,-59.8202C48.0706,-50.7375 55.2295,-39.7238 60.8085,-31.1408"/>
<polygon fill="midnightblue" stroke="midnightblue" points="39.1031,-58.1115 36.5877,-68.4035 44.9722,-61.9265 39.1031,-58.1115"/>
</g>
<!-- Node3 -->
<g id="node3" class="node"><title>Node3</title>
<g id="a_node3"><a xlink:href="class_i_vector_base.html" target="_top" xlink:title="A base interface to be combined with IControl for vectorial controls &quot;IVControls&quot;, in order for them to share a common set of colors. ">
<polygon fill="white" stroke="black" points="74.5,-68.5 74.5,-87.5 145.5,-87.5 145.5,-68.5 74.5,-68.5"/>
<text text-anchor="middle" x="110" y="-75.5" font-family="Helvetica,sans-Serif" font-size="10.00">IVectorBase</text>
</a>
</g>
</g>
<!-- Node3&#45;&gt;Node1 -->
<g id="edge2" class="edge"><title>Node3&#45;&gt;Node1</title>
<path fill="none" stroke="midnightblue" d="M98.5468,-59.8202C92.4917,-50.7375 85.1492,-39.7238 79.4272,-31.1408"/>
<polygon fill="midnightblue" stroke="midnightblue" points="95.8097,-62.0244 104.269,-68.4035 101.634,-58.1415 95.8097,-62.0244"/>
</g>
</g>
</svg>
