<?xml version="1.0" encoding="UTF-8" standalone="no"?>
<!DOCTYPE svg PUBLIC "-//W3C//DTD SVG 1.1//EN"
 "http://www.w3.org/Graphics/SVG/1.1/DTD/svg11.dtd">
<!-- Generated by graphviz version 7.0.5 (20221223.1930)
 -->
<!-- Title: IVBarGraphSpectrumAnalyzerControl&lt; MAXNC, MAX_FFT_SIZE &gt; Pages: 1 -->
<svg width="185pt" height="93pt"
 viewBox="0.00 0.00 185.00 93.00" xmlns="http://www.w3.org/2000/svg" xmlns:xlink="http://www.w3.org/1999/xlink">
<g id="graph0" class="graph" transform="scale(1 1) rotate(0) translate(4 89)">
<title>IVBarGraphSpectrumAnalyzerControl&lt; MAXNC, MAX_FFT_SIZE &gt;</title>
<!-- Node1 -->
<g id="node1" class="node">
<title>Node1</title>
<g id="a_node1"><a xlink:title="Vectorial bar graph spectrum analyzer control with segmented LEDs.">
<polygon fill="#999999" stroke="#666666" points="177,-30 0,-30 0,0 177,0 177,-30"/>
<text text-anchor="start" x="8" y="-18" font-family="Helvetica,sans-Serif" font-size="10.00">IVBarGraphSpectrumAnalyzer</text>
<text text-anchor="middle" x="88.5" y="-7" font-family="Helvetica,sans-Serif" font-size="10.00">Control&lt; MAXNC, MAX_FFT_SIZE &gt;</text>
</a>
</g>
</g>
<!-- Node2 -->
<g id="node2" class="node">
<title>Node2</title>
<g id="a_node2"><a xlink:href="class_i_control.html" target="_top" xlink:title="The lowest level base class of an IGraphics control.">
<polygon fill="white" stroke="#666666" points="74.5,-85 24.5,-85 24.5,-66 74.5,-66 74.5,-85"/>
<text text-anchor="middle" x="49.5" y="-73" font-family="Helvetica,sans-Serif" font-size="10.00">IControl</text>
</a>
</g>
</g>
<!-- Node2&#45;&gt;Node1 -->
<g id="edge1" class="edge">
<title>Node2&#45;&gt;Node1</title>
<path fill="none" stroke="#63b8ff" d="M61.5,-56.5C67.16,-48.01 73.81,-38.04 79.09,-30.11"/>
<polygon fill="#63b8ff" stroke="#63b8ff" points="58.73,-54.35 56.09,-64.61 64.55,-58.23 58.73,-54.35"/>
</g>
<!-- Node3 -->
<g id="node3" class="node">
<title>Node3</title>
<g id="a_node3"><a xlink:href="class_i_vector_base.html" target="_top" xlink:title="A base interface to be combined with IControl for vectorial controls &quot;IVControls&quot;,...">
<polygon fill="white" stroke="#666666" points="164,-85 93,-85 93,-66 164,-66 164,-85"/>
<text text-anchor="middle" x="128.5" y="-73" font-family="Helvetica,sans-Serif" font-size="10.00">IVectorBase</text>
</a>
</g>
</g>
<!-- Node3&#45;&gt;Node1 -->
<g id="edge2" class="edge">
<title>Node3&#45;&gt;Node1</title>
<path fill="none" stroke="#63b8ff" d="M116.19,-56.5C110.39,-48.01 103.57,-38.04 98.15,-30.11"/>
<polygon fill="#63b8ff" stroke="#63b8ff" points="113.21,-58.34 121.74,-64.62 118.99,-54.39 113.21,-58.34"/>
</g>
</g>
</svg>
