<?xml version="1.0" encoding="UTF-8" standalone="no"?>
<!DOCTYPE svg PUBLIC "-//W3C//DTD SVG 1.1//EN"
 "http://www.w3.org/Graphics/SVG/1.1/DTD/svg11.dtd">
<!-- Generated by graphviz version 7.0.5 (20221223.1930)
 -->
<!-- Title: ISliderControlBase Pages: 1 -->
<svg width="400pt" height="137pt"
 viewBox="0.00 0.00 399.50 137.00" xmlns="http://www.w3.org/2000/svg" xmlns:xlink="http://www.w3.org/1999/xlink">
<g id="graph0" class="graph" transform="scale(1 1) rotate(0) translate(4 133)">
<title>ISliderControlBase</title>
<!-- Node1 -->
<g id="node1" class="node">
<title>Node1</title>
<g id="a_node1"><a xlink:title="A base class for slider/fader controls, to handle mouse action and Sender.">
<polygon fill="#999999" stroke="#666666" points="250,-74 152,-74 152,-55 250,-55 250,-74"/>
<text text-anchor="middle" x="201" y="-62" font-family="Helvetica,sans-Serif" font-size="10.00">ISliderControlBase</text>
</a>
</g>
</g>
<!-- Node3 -->
<g id="node3" class="node">
<title>Node3</title>
<g id="a_node3"><a xlink:href="class_i_b_slider_control.html" target="_top" xlink:title="A bitmap slider/fader control.">
<polygon fill="white" stroke="#666666" points="82,-19 0,-19 0,0 82,0 82,-19"/>
<text text-anchor="middle" x="41" y="-7" font-family="Helvetica,sans-Serif" font-size="10.00">IBSliderControl</text>
</a>
</g>
</g>
<!-- Node1&#45;&gt;Node3 -->
<g id="edge2" class="edge">
<title>Node1&#45;&gt;Node3</title>
<path fill="none" stroke="#63b8ff" d="M163.21,-50.98C133.95,-41.29 94.13,-28.1 68.01,-19.45"/>
<polygon fill="#63b8ff" stroke="#63b8ff" points="161.83,-54.21 172.42,-54.03 164.03,-47.57 161.83,-54.21"/>
</g>
<!-- Node4 -->
<g id="node4" class="node">
<title>Node4</title>
<g id="a_node4"><a xlink:href="class_i_s_v_g_slider_control.html" target="_top" xlink:title="A Slider control with and SVG for track and handle.">
<polygon fill="white" stroke="#666666" points="196,-19 100,-19 100,0 196,0 196,-19"/>
<text text-anchor="middle" x="148" y="-7" font-family="Helvetica,sans-Serif" font-size="10.00">ISVGSliderControl</text>
</a>
</g>
</g>
<!-- Node1&#45;&gt;Node4 -->
<g id="edge3" class="edge">
<title>Node1&#45;&gt;Node4</title>
<path fill="none" stroke="#63b8ff" d="M184.28,-46.78C175.22,-37.72 164.4,-26.9 156.94,-19.44"/>
<polygon fill="#63b8ff" stroke="#63b8ff" points="181.63,-49.08 191.18,-53.68 186.58,-44.13 181.63,-49.08"/>
</g>
<!-- Node5 -->
<g id="node5" class="node">
<title>Node5</title>
<g id="a_node5"><a xlink:href="class_i_v_slider_control.html" target="_top" xlink:title="A vector slider control.">
<polygon fill="white" stroke="#666666" points="296,-19 214,-19 214,0 296,0 296,-19"/>
<text text-anchor="middle" x="255" y="-7" font-family="Helvetica,sans-Serif" font-size="10.00">IVSliderControl</text>
</a>
</g>
</g>
<!-- Node1&#45;&gt;Node5 -->
<g id="edge4" class="edge">
<title>Node1&#45;&gt;Node5</title>
<path fill="none" stroke="#63b8ff" d="M218.04,-46.78C227.26,-37.72 238.29,-26.9 245.89,-19.44"/>
<polygon fill="#63b8ff" stroke="#63b8ff" points="215.68,-44.19 211,-53.69 220.59,-49.18 215.68,-44.19"/>
</g>
<!-- Node6 -->
<g id="node6" class="node">
<title>Node6</title>
<g id="a_node6"><a xlink:href="class_i_wheel_control.html" target="_top" xlink:title="Vectorial &quot;wheel&quot; control for pitchbender/modwheel.">
<polygon fill="white" stroke="#666666" points="391.5,-19 314.5,-19 314.5,0 391.5,0 391.5,-19"/>
<text text-anchor="middle" x="353" y="-7" font-family="Helvetica,sans-Serif" font-size="10.00">IWheelControl</text>
</a>
</g>
</g>
<!-- Node1&#45;&gt;Node6 -->
<g id="edge5" class="edge">
<title>Node1&#45;&gt;Node6</title>
<path fill="none" stroke="#63b8ff" d="M237.64,-50.73C265.36,-41.06 302.75,-28.02 327.34,-19.45"/>
<polygon fill="#63b8ff" stroke="#63b8ff" points="236.5,-47.41 228.21,-54.01 238.81,-54.02 236.5,-47.41"/>
</g>
<!-- Node2 -->
<g id="node2" class="node">
<title>Node2</title>
<g id="a_node2"><a xlink:href="class_i_control.html" target="_top" xlink:title="The lowest level base class of an IGraphics control.">
<polygon fill="white" stroke="#666666" points="226,-129 176,-129 176,-110 226,-110 226,-129"/>
<text text-anchor="middle" x="201" y="-117" font-family="Helvetica,sans-Serif" font-size="10.00">IControl</text>
</a>
</g>
</g>
<!-- Node2&#45;&gt;Node1 -->
<g id="edge1" class="edge">
<title>Node2&#45;&gt;Node1</title>
<path fill="none" stroke="#63b8ff" d="M201,-98.35C201,-90.1 201,-80.97 201,-74.44"/>
<polygon fill="#63b8ff" stroke="#63b8ff" points="197.5,-98.23 201,-108.23 204.5,-98.23 197.5,-98.23"/>
</g>
</g>
</svg>
