<?xml version="1.0" encoding="UTF-8" standalone="no"?>
<!DOCTYPE svg PUBLIC "-//W3C//DTD SVG 1.1//EN"
 "http://www.w3.org/Graphics/SVG/1.1/DTD/svg11.dtd">
<!-- Generated by graphviz version 7.0.5 (20221223.1930)
 -->
<!-- Title: IVectorBase Pages: 1 -->
<!--zoomable 791 -->
<svg id="main" version="1.1" xmlns="http://www.w3.org/2000/svg" xmlns:xlink="http://www.w3.org/1999/xlink" xml:space="preserve" onload="init(evt)">
<style type="text/css"><![CDATA[
.edge:hover path { stroke: red; }
.edge:hover polygon { stroke: red; fill: red; }
]]></style>
<script type="text/javascript"><![CDATA[
var edges = document.getElementsByTagName('g');
if (edges && edges.length) {
  for (var i=0;i<edges.length;i++) {
    if (edges[i].id.substr(0,4)=='edge') {
      edges[i].setAttribute('class','edge');
    }
  }
}
]]></script>
        <defs>
                <circle id="rim" cx="0" cy="0" r="7"/>
                <circle id="rim2" cx="0" cy="0" r="3.5"/>
                <g id="zoomPlus">
                        <use xlink:href="#rim" fill="#404040">
                                <set attributeName="fill" to="#808080" begin="zoomplus.mouseover" end="zoomplus.mouseout"/>
                        </use>
                        <path d="M-4,0h8M0,-4v8" fill="none" stroke="white" stroke-width="1.5" pointer-events="none"/>
                </g>
                <g id="zoomMin">
                        <use xlink:href="#rim" fill="#404040">
                                <set attributeName="fill" to="#808080" begin="zoomminus.mouseover" end="zoomminus.mouseout"/>
                        </use>
                        <path d="M-4,0h8" fill="none" stroke="white" stroke-width="1.5" pointer-events="none"/>
                </g>
                <g id="dirArrow">
                        <path fill="none" stroke="white" stroke-width="1.5" d="M0,-3.0v7 M-2.5,-0.5L0,-3.0L2.5,-0.5"/>
                </g>
               <g id="resetDef">
                       <use xlink:href="#rim2" fill="#404040">
                               <set attributeName="fill" to="#808080" begin="reset.mouseover" end="reset.mouseout"/>
                       </use>
               </g>
        </defs>

<script type="text/javascript">
var viewWidth = 615;
var viewHeight = 791;
var sectionId = 'dynsection-0';
</script>
<script xlink:href="svgpan.js"/>
<svg id="graph" class="graph">
<g id="viewport">
<title>IVectorBase</title>
<!-- Node1 -->
<g id="node1" class="node">
<title>Node1</title>
<g id="a_node1"><a xlink:title="A base interface to be combined with IControl for vectorial controls &quot;IVControls&quot;,...">
<polygon fill="#999999" stroke="#666666" points="71,-487 0,-487 0,-468 71,-468 71,-487"/>
<text text-anchor="middle" x="35.5" y="-475" font-family="Helvetica,sans-Serif" font-size="10.00">IVectorBase</text>
</a>
</g>
</g>
<!-- Node2 -->
<g id="node2" class="node">
<title>Node2</title>
<g id="a_node2"><a xlink:href="class_i_f_p_s_display_control.html" target="_top" xlink:title="Performance display meter, based on code from NanoVG This is a special control that lives outside the...">
<polygon fill="white" stroke="#666666" points="233,-783 132,-783 132,-764 233,-764 233,-783"/>
<text text-anchor="middle" x="182.5" y="-771" font-family="Helvetica,sans-Serif" font-size="10.00">IFPSDisplayControl</text>
</a>
</g>
</g>
<!-- Node1&#45;&gt;Node2 -->
<g id="edge1" class="edge">
<title>Node1&#45;&gt;Node2</title>
<path fill="none" stroke="#63b8ff" d="M39.05,-498.71C46.49,-557.22 70.05,-718.97 107,-755.5 113.72,-762.14 122.44,-766.49 131.54,-769.29"/>
<polygon fill="#63b8ff" stroke="#63b8ff" points="42.52,-498.3 37.82,-488.81 35.57,-499.16 42.52,-498.3"/>
</g>
<!-- Node3 -->
<g id="node3" class="node">
<title>Node3</title>
<g id="a_node3"><a xlink:href="class_i_v_baked_preset_manager_control.html" target="_top" xlink:title="A &quot;meta control&quot; for a &quot;preset manager&quot; for &quot;baked in&quot; factory presets It adds several child buttons.">
<polygon fill="white" stroke="#666666" points="258,-746 107,-746 107,-727 258,-727 258,-746"/>
<text text-anchor="middle" x="182.5" y="-734" font-family="Helvetica,sans-Serif" font-size="10.00">IVBakedPresetManagerControl</text>
</a>
</g>
</g>
<!-- Node1&#45;&gt;Node3 -->
<g id="edge2" class="edge">
<title>Node1&#45;&gt;Node3</title>
<path fill="none" stroke="#63b8ff" d="M36.09,-498.29C36.35,-544.88 43.85,-658.28 107,-718.5 110.37,-721.71 114.21,-724.39 118.33,-726.6"/>
<polygon fill="#63b8ff" stroke="#63b8ff" points="39.58,-498.56 36.15,-488.53 32.58,-498.51 39.58,-498.56"/>
</g>
<!-- Node4 -->
<g id="node4" class="node">
<title>Node4</title>
<g id="a_node4"><a xlink:href="class_i_v_button_control.html" target="_top" xlink:title="A vector button/momentary switch control.">
<polygon fill="white" stroke="#666666" points="225.5,-709 139.5,-709 139.5,-690 225.5,-690 225.5,-709"/>
<text text-anchor="middle" x="182.5" y="-697" font-family="Helvetica,sans-Serif" font-size="10.00">IVButtonControl</text>
</a>
</g>
</g>
<!-- Node1&#45;&gt;Node4 -->
<g id="edge3" class="edge">
<title>Node1&#45;&gt;Node4</title>
<path fill="none" stroke="#63b8ff" d="M37.42,-498.73C40.4,-540.27 53.08,-632.51 107,-681.5 115.86,-689.55 127.7,-694.17 139.33,-696.77"/>
<polygon fill="#63b8ff" stroke="#63b8ff" points="40.92,-498.64 36.84,-488.86 33.93,-499.05 40.92,-498.64"/>
</g>
<!-- Node5 -->
<g id="node5" class="node">
<title>Node5</title>
<g id="a_node5"><a xlink:href="class_i_v_color_swatch_control.html" target="_top" xlink:title="A control to show a color swatch of up to 9 colors.">
<polygon fill="white" stroke="#666666" points="239,-672 126,-672 126,-653 239,-653 239,-672"/>
<text text-anchor="middle" x="182.5" y="-660" font-family="Helvetica,sans-Serif" font-size="10.00">IVColorSwatchControl</text>
</a>
</g>
</g>
<!-- Node1&#45;&gt;Node5 -->
<g id="edge4" class="edge">
<title>Node1&#45;&gt;Node5</title>
<path fill="none" stroke="#63b8ff" d="M39.24,-498.53C45.04,-534.15 61.93,-606.21 107,-644.5 112.48,-649.15 118.96,-652.64 125.77,-655.25"/>
<polygon fill="#63b8ff" stroke="#63b8ff" points="42.71,-498.06 37.8,-488.68 35.79,-499.08 42.71,-498.06"/>
</g>
<!-- Node6 -->
<g id="node6" class="node">
<title>Node6</title>
<g id="a_node6"><a xlink:href="class_i_v_display_control.html" target="_top" xlink:title="A control to display a rolling graphics of historical values.">
<polygon fill="white" stroke="#666666" points="227,-635 138,-635 138,-616 227,-616 227,-635"/>
<text text-anchor="middle" x="182.5" y="-623" font-family="Helvetica,sans-Serif" font-size="10.00">IVDisplayControl</text>
</a>
</g>
</g>
<!-- Node1&#45;&gt;Node6 -->
<g id="edge5" class="edge">
<title>Node1&#45;&gt;Node6</title>
<path fill="none" stroke="#63b8ff" d="M41.98,-498.35C50.73,-527.38 70.67,-579.57 107,-607.5 115.86,-614.31 126.93,-618.59 137.8,-621.27"/>
<polygon fill="#63b8ff" stroke="#63b8ff" points="45.4,-497.59 39.32,-488.92 38.67,-499.49 45.4,-497.59"/>
</g>
<!-- Node7 -->
<g id="node7" class="node">
<title>Node7</title>
<g id="a_node7"><a xlink:href="class_i_v_group_control.html" target="_top" xlink:title="A control to draw a rectangle around a named IControl group.">
<polygon fill="white" stroke="#666666" points="224,-598 141,-598 141,-579 224,-579 224,-598"/>
<text text-anchor="middle" x="182.5" y="-586" font-family="Helvetica,sans-Serif" font-size="10.00">IVGroupControl</text>
</a>
</g>
</g>
<!-- Node1&#45;&gt;Node7 -->
<g id="edge6" class="edge">
<title>Node1&#45;&gt;Node7</title>
<path fill="none" stroke="#63b8ff" d="M46.25,-497.38C57.78,-518.77 79,-552.17 107,-570.5 117.02,-577.06 129.2,-581.23 140.79,-583.88"/>
<polygon fill="#63b8ff" stroke="#63b8ff" points="49.5,-496.06 41.81,-488.78 43.28,-499.27 49.5,-496.06"/>
</g>
<!-- Node8 -->
<g id="node8" class="node">
<title>Node8</title>
<g id="a_node8"><a xlink:href="class_i_v_knob_control.html" target="_top" xlink:title="A vector knob control drawn using graphics primitives.">
<polygon fill="white" stroke="#666666" points="222.5,-561 142.5,-561 142.5,-542 222.5,-542 222.5,-561"/>
<text text-anchor="middle" x="182.5" y="-549" font-family="Helvetica,sans-Serif" font-size="10.00">IVKnobControl</text>
</a>
</g>
</g>
<!-- Node1&#45;&gt;Node8 -->
<g id="edge7" class="edge">
<title>Node1&#45;&gt;Node8</title>
<path fill="none" stroke="#63b8ff" d="M54.3,-495.3C67.72,-507.74 87.14,-523.81 107,-533.5 117.88,-538.81 130.44,-542.62 142.11,-545.33"/>
<polygon fill="#63b8ff" stroke="#63b8ff" points="56.78,-492.82 47.14,-488.43 51.93,-497.88 56.78,-492.82"/>
</g>
<!-- Node9 -->
<g id="node9" class="node">
<title>Node9</title>
<g id="a_node9"><a xlink:href="class_i_v_label_control.html" target="_top" xlink:title="A vector label control that can display text with a shadow.">
<polygon fill="white" stroke="#666666" points="223,-524 142,-524 142,-505 223,-505 223,-524"/>
<text text-anchor="middle" x="182.5" y="-512" font-family="Helvetica,sans-Serif" font-size="10.00">IVLabelControl</text>
</a>
</g>
</g>
<!-- Node1&#45;&gt;Node9 -->
<g id="edge8" class="edge">
<title>Node1&#45;&gt;Node9</title>
<path fill="none" stroke="#63b8ff" d="M82.22,-490.01C90.46,-492.21 98.98,-494.45 107,-496.5 118.22,-499.37 130.41,-502.36 141.63,-505.07"/>
<polygon fill="#63b8ff" stroke="#63b8ff" points="83.26,-486.66 72.7,-487.45 81.45,-493.42 83.26,-486.66"/>
</g>
<!-- Node10 -->
<g id="node10" class="node">
<title>Node10</title>
<g id="a_node10"><a xlink:href="class_i_v_number_box_control.html" target="_top" xlink:title="A &quot;meta control&quot; for a number box with an Inc/Dec button It adds several child buttons if buttons = t...">
<polygon fill="white" stroke="#666666" points="236.5,-487 128.5,-487 128.5,-468 236.5,-468 236.5,-487"/>
<text text-anchor="middle" x="182.5" y="-475" font-family="Helvetica,sans-Serif" font-size="10.00">IVNumberBoxControl</text>
</a>
</g>
</g>
<!-- Node1&#45;&gt;Node10 -->
<g id="edge9" class="edge">
<title>Node1&#45;&gt;Node10</title>
<path fill="none" stroke="#63b8ff" d="M82.45,-477.5C96.95,-477.5 113.1,-477.5 128.07,-477.5"/>
<polygon fill="#63b8ff" stroke="#63b8ff" points="82.74,-474 72.74,-477.5 82.74,-481 82.74,-474"/>
</g>
<!-- Node11 -->
<g id="node11" class="node">
<title>Node11</title>
<g id="a_node11"><a xlink:href="class_i_v_panel_control.html" target="_top" xlink:title="A panel control which can be styled with emboss etc.">
<polygon fill="white" stroke="#666666" points="223.5,-450 141.5,-450 141.5,-431 223.5,-431 223.5,-450"/>
<text text-anchor="middle" x="182.5" y="-438" font-family="Helvetica,sans-Serif" font-size="10.00">IVPanelControl</text>
</a>
</g>
</g>
<!-- Node1&#45;&gt;Node11 -->
<g id="edge10" class="edge">
<title>Node1&#45;&gt;Node11</title>
<path fill="none" stroke="#63b8ff" d="M82.27,-465.81C90.5,-463.71 99.01,-461.54 107,-459.5 118.51,-456.56 131.02,-453.37 142.45,-450.46"/>
<polygon fill="#63b8ff" stroke="#63b8ff" points="81.57,-462.38 72.75,-468.24 83.3,-469.16 81.57,-462.38"/>
</g>
<!-- Node12 -->
<g id="node12" class="node">
<title>Node12</title>
<g id="a_node12"><a xlink:href="class_i_v_plot_control.html" target="_top" xlink:title="A vector plot to display functions and waveforms.">
<polygon fill="white" stroke="#666666" points="219.5,-413 145.5,-413 145.5,-394 219.5,-394 219.5,-413"/>
<text text-anchor="middle" x="182.5" y="-401" font-family="Helvetica,sans-Serif" font-size="10.00">IVPlotControl</text>
</a>
</g>
</g>
<!-- Node1&#45;&gt;Node12 -->
<g id="edge11" class="edge">
<title>Node1&#45;&gt;Node12</title>
<path fill="none" stroke="#63b8ff" d="M54.39,-460.11C67.86,-447.93 87.3,-432.17 107,-422.5 118.86,-416.68 132.69,-412.52 145.19,-409.61"/>
<polygon fill="#63b8ff" stroke="#63b8ff" points="52.13,-457.43 47.21,-466.82 56.91,-462.55 52.13,-457.43"/>
</g>
<!-- Node13 -->
<g id="node13" class="node">
<title>Node13</title>
<g id="a_node13"><a xlink:href="class_i_v_scope_control.html" target="_top" xlink:title="Vectorial multi&#45;channel capable oscilloscope control.">
<polygon fill="white" stroke="#666666" points="248.5,-375.5 116.5,-375.5 116.5,-345.5 248.5,-345.5 248.5,-375.5"/>
<text text-anchor="start" x="124.5" y="-363.5" font-family="Helvetica,sans-Serif" font-size="10.00">IVScopeControl&lt; MAXNC,</text>
<text text-anchor="middle" x="182.5" y="-352.5" font-family="Helvetica,sans-Serif" font-size="10.00"> MAXBUF &gt;</text>
</a>
</g>
</g>
<!-- Node1&#45;&gt;Node13 -->
<g id="edge12" class="edge">
<title>Node1&#45;&gt;Node13</title>
<path fill="none" stroke="#63b8ff" d="M46.95,-457.67C58.87,-436.89 80.21,-404.64 107,-385.5 112.22,-381.77 118.03,-378.57 124.04,-375.83"/>
<polygon fill="#63b8ff" stroke="#63b8ff" points="43.96,-455.86 42.2,-466.3 50.09,-459.24 43.96,-455.86"/>
</g>
<!-- Node14 -->
<g id="node14" class="node">
<title>Node14</title>
<g id="a_node14"><a xlink:href="class_i_v_slider_control.html" target="_top" xlink:title="A vector slider control.">
<polygon fill="white" stroke="#666666" points="223.5,-327 141.5,-327 141.5,-308 223.5,-308 223.5,-327"/>
<text text-anchor="middle" x="182.5" y="-315" font-family="Helvetica,sans-Serif" font-size="10.00">IVSliderControl</text>
</a>
</g>
</g>
<!-- Node1&#45;&gt;Node14 -->
<g id="edge13" class="edge">
<title>Node1&#45;&gt;Node14</title>
<path fill="none" stroke="#63b8ff" d="M41.17,-456.32C49.15,-425.24 68.42,-367.6 107,-336.5 116.66,-328.71 129.14,-324.07 141.11,-321.32"/>
<polygon fill="#63b8ff" stroke="#63b8ff" points="37.77,-455.5 38.85,-466.04 44.57,-457.13 37.77,-455.5"/>
</g>
<!-- Node15 -->
<g id="node15" class="node">
<title>Node15</title>
<g id="a_node15"><a xlink:href="class_i_v_switch_control.html" target="_top" xlink:title="A vector switch control.">
<polygon fill="white" stroke="#666666" points="226,-290 139,-290 139,-271 226,-271 226,-290"/>
<text text-anchor="middle" x="182.5" y="-278" font-family="Helvetica,sans-Serif" font-size="10.00">IVSwitchControl</text>
</a>
</g>
</g>
<!-- Node1&#45;&gt;Node15 -->
<g id="edge14" class="edge">
<title>Node1&#45;&gt;Node15</title>
<path fill="none" stroke="#63b8ff" d="M38.65,-456.7C43.64,-419.45 59.48,-341.33 107,-299.5 115.82,-291.74 127.38,-287.07 138.75,-284.28"/>
<polygon fill="#63b8ff" stroke="#63b8ff" points="35.23,-455.81 37.52,-466.16 42.18,-456.64 35.23,-455.81"/>
</g>
<!-- Node18 -->
<g id="node18" class="node">
<title>Node18</title>
<g id="a_node18"><a xlink:href="class_i_v_tab_switch_control.html" target="_top" xlink:title="A vector &quot;tab&quot; multi switch control.">
<polygon fill="white" stroke="#666666" points="234.5,-253 130.5,-253 130.5,-234 234.5,-234 234.5,-253"/>
<text text-anchor="middle" x="182.5" y="-241" font-family="Helvetica,sans-Serif" font-size="10.00">IVTabSwitchControl</text>
</a>
</g>
</g>
<!-- Node1&#45;&gt;Node18 -->
<g id="edge17" class="edge">
<title>Node1&#45;&gt;Node18</title>
<path fill="none" stroke="#63b8ff" d="M37.03,-456.38C39.29,-413.35 50.71,-315.13 107,-262.5 113.53,-256.39 121.75,-252.18 130.32,-249.29"/>
<polygon fill="#63b8ff" stroke="#63b8ff" points="33.54,-456 36.65,-466.13 40.54,-456.27 33.54,-456"/>
</g>
<!-- Node20 -->
<g id="node20" class="node">
<title>Node20</title>
<g id="a_node20"><a xlink:href="class_i_v_track_control_base.html" target="_top" xlink:title="A base class for mult&#45;strip/track controls, such as multi&#45;sliders, meters Track refers to the channel...">
<polygon fill="white" stroke="#666666" points="234.5,-160 130.5,-160 130.5,-141 234.5,-141 234.5,-160"/>
<text text-anchor="middle" x="182.5" y="-148" font-family="Helvetica,sans-Serif" font-size="10.00">IVTrackControlBase</text>
</a>
</g>
</g>
<!-- Node1&#45;&gt;Node20 -->
<g id="edge19" class="edge">
<title>Node1&#45;&gt;Node20</title>
<path fill="none" stroke="#63b8ff" d="M38.75,-456.48C44.32,-411.39 61.74,-303.2 107,-225.5 122.98,-198.06 151.38,-173.46 168.12,-160.39"/>
<polygon fill="#63b8ff" stroke="#63b8ff" points="35.3,-455.83 37.63,-466.16 42.26,-456.63 35.3,-455.83"/>
</g>
<!-- Node29 -->
<g id="node29" class="node">
<title>Node29</title>
<g id="a_node29"><a xlink:href="class_i_v_x_y_pad_control.html" target="_top" xlink:title="A vector XY Pad slider control.">
<polygon fill="white" stroke="#666666" points="226.5,-123 138.5,-123 138.5,-104 226.5,-104 226.5,-123"/>
<text text-anchor="middle" x="182.5" y="-111" font-family="Helvetica,sans-Serif" font-size="10.00">IVXYPadControl</text>
</a>
</g>
</g>
<!-- Node1&#45;&gt;Node29 -->
<g id="edge29" class="edge">
<title>Node1&#45;&gt;Node29</title>
<path fill="none" stroke="#63b8ff" d="M37.91,-456.7C42.89,-389.5 61.83,-179.9 107,-132.5 115.2,-123.9 126.7,-118.98 138.22,-116.23"/>
<polygon fill="#63b8ff" stroke="#63b8ff" points="34.45,-456.1 37.23,-466.32 41.43,-456.6 34.45,-456.1"/>
</g>
<!-- Node16 -->
<g id="node16" class="node">
<title>Node16</title>
<g id="a_node16"><a xlink:href="class_i_v_slide_switch_control.html" target="_top" xlink:title="A switch with a slide animation when clicked.">
<polygon fill="white" stroke="#666666" points="415.5,-327 306.5,-327 306.5,-308 415.5,-308 415.5,-327"/>
<text text-anchor="middle" x="361" y="-315" font-family="Helvetica,sans-Serif" font-size="10.00">IVSlideSwitchControl</text>
</a>
</g>
</g>
<!-- Node15&#45;&gt;Node16 -->
<g id="edge15" class="edge">
<title>Node15&#45;&gt;Node16</title>
<path fill="none" stroke="#63b8ff" d="M237.27,-291.77C261.22,-296.79 289.2,-302.66 312.39,-307.52"/>
<polygon fill="#63b8ff" stroke="#63b8ff" points="238.21,-288.39 227.71,-289.77 236.78,-295.24 238.21,-288.39"/>
</g>
<!-- Node17 -->
<g id="node17" class="node">
<title>Node17</title>
<g id="a_node17"><a xlink:href="class_i_v_toggle_control.html" target="_top" xlink:title="A vector toggle control.">
<polygon fill="white" stroke="#666666" points="404,-290 318,-290 318,-271 404,-271 404,-290"/>
<text text-anchor="middle" x="361" y="-278" font-family="Helvetica,sans-Serif" font-size="10.00">IVToggleControl</text>
</a>
</g>
</g>
<!-- Node15&#45;&gt;Node17 -->
<g id="edge16" class="edge">
<title>Node15&#45;&gt;Node17</title>
<path fill="none" stroke="#63b8ff" d="M237.68,-280.5C263.4,-280.5 293.67,-280.5 317.67,-280.5"/>
<polygon fill="#63b8ff" stroke="#63b8ff" points="237.74,-277 227.74,-280.5 237.74,-284 237.74,-277"/>
</g>
<!-- Node19 -->
<g id="node19" class="node">
<title>Node19</title>
<g id="a_node19"><a xlink:href="class_i_v_radio_button_control.html" target="_top" xlink:title="A vector &quot;radio buttons&quot; switch control.">
<polygon fill="white" stroke="#666666" points="416,-253 306,-253 306,-234 416,-234 416,-253"/>
<text text-anchor="middle" x="361" y="-241" font-family="Helvetica,sans-Serif" font-size="10.00">IVRadioButtonControl</text>
</a>
</g>
</g>
<!-- Node18&#45;&gt;Node19 -->
<g id="edge18" class="edge">
<title>Node18&#45;&gt;Node19</title>
<path fill="none" stroke="#63b8ff" d="M245.81,-243.5C265.34,-243.5 286.74,-243.5 305.68,-243.5"/>
<polygon fill="#63b8ff" stroke="#63b8ff" points="246.06,-240 236.06,-243.5 246.06,-247 246.06,-240"/>
</g>
<!-- Node21 -->
<g id="node21" class="node">
<title>Node21</title>
<g id="a_node21"><a xlink:href="class_i_v_meter_control.html" target="_top" xlink:title=" ">
<polygon fill="white" stroke="#666666" points="428,-216 294,-216 294,-197 428,-197 428,-216"/>
<text text-anchor="middle" x="361" y="-204" font-family="Helvetica,sans-Serif" font-size="10.00">IVMeterControl&lt; MAXNC &gt;</text>
</a>
</g>
</g>
<!-- Node20&#45;&gt;Node21 -->
<g id="edge20" class="edge">
<title>Node20&#45;&gt;Node21</title>
<path fill="none" stroke="#63b8ff" d="M221.42,-164.22C242.66,-171.73 269.68,-181.01 294,-188.5 302.97,-191.26 312.69,-194.03 321.84,-196.54"/>
<polygon fill="#63b8ff" stroke="#63b8ff" points="222.61,-160.93 212.01,-160.87 220.26,-167.52 222.61,-160.93"/>
</g>
<!-- Node23 -->
<g id="node23" class="node">
<title>Node23</title>
<g id="a_node23"><a xlink:href="class_i_v_meter_control.html" target="_top" xlink:title=" ">
<polygon fill="white" stroke="#666666" points="413,-179 309,-179 309,-160 413,-160 413,-179"/>
<text text-anchor="middle" x="361" y="-167" font-family="Helvetica,sans-Serif" font-size="10.00">IVMeterControl&lt; 1 &gt;</text>
</a>
</g>
</g>
<!-- Node20&#45;&gt;Node23 -->
<g id="edge22" class="edge">
<title>Node20&#45;&gt;Node23</title>
<path fill="none" stroke="#63b8ff" d="M245.76,-157.2C266.37,-159.42 289.07,-161.86 308.76,-163.98"/>
<polygon fill="#63b8ff" stroke="#63b8ff" points="246.37,-153.75 236.06,-156.16 245.62,-160.71 246.37,-153.75"/>
</g>
<!-- Node24 -->
<g id="node24" class="node">
<title>Node24</title>
<g id="a_node24"><a xlink:href="class_i_v_multi_slider_control.html" target="_top" xlink:title=" ">
<polygon fill="white" stroke="#666666" points="423.5,-142 298.5,-142 298.5,-123 423.5,-123 423.5,-142"/>
<text text-anchor="middle" x="361" y="-130" font-family="Helvetica,sans-Serif" font-size="10.00">IVMultiSliderControl&lt; 1 &gt;</text>
</a>
</g>
</g>
<!-- Node20&#45;&gt;Node24 -->
<g id="edge23" class="edge">
<title>Node20&#45;&gt;Node24</title>
<path fill="none" stroke="#63b8ff" d="M245.52,-144.17C262.57,-142.44 281.07,-140.55 298.11,-138.81"/>
<polygon fill="#63b8ff" stroke="#63b8ff" points="245.65,-140.64 236.06,-145.14 246.36,-147.61 245.65,-140.64"/>
</g>
<!-- Node25 -->
<g id="node25" class="node">
<title>Node25</title>
<g id="a_node25"><a xlink:href="class_i_v_meter_control.html" target="_top" xlink:title="Vectorial multi&#45;channel capable meter control, linear or log response.">
<polygon fill="white" stroke="#666666" points="428,-105 294,-105 294,-86 428,-86 428,-105"/>
<text text-anchor="middle" x="361" y="-93" font-family="Helvetica,sans-Serif" font-size="10.00">IVMeterControl&lt; MAXNC &gt;</text>
</a>
</g>
</g>
<!-- Node20&#45;&gt;Node25 -->
<g id="edge24" class="edge">
<title>Node20&#45;&gt;Node25</title>
<path fill="none" stroke="#63b8ff" d="M242.52,-137.56C247.8,-136 253.03,-134.32 258,-132.5 274.8,-126.36 277.33,-121 294,-114.5 302.55,-111.16 311.93,-108.11 320.87,-105.48"/>
<polygon fill="#63b8ff" stroke="#63b8ff" points="241.83,-134.12 233.13,-140.15 243.7,-140.86 241.83,-134.12"/>
</g>
<!-- Node26 -->
<g id="node26" class="node">
<title>Node26</title>
<g id="a_node26"><a xlink:href="class_i_v_multi_slider_control.html" target="_top" xlink:title="A vectorial multi&#45;slider control.">
<polygon fill="white" stroke="#666666" points="412.5,-67.5 309.5,-67.5 309.5,-37.5 412.5,-37.5 412.5,-67.5"/>
<text text-anchor="start" x="317.5" y="-55.5" font-family="Helvetica,sans-Serif" font-size="10.00">IVMultiSliderControl</text>
<text text-anchor="middle" x="361" y="-44.5" font-family="Helvetica,sans-Serif" font-size="10.00">&lt; MAXNC &gt;</text>
</a>
</g>
</g>
<!-- Node20&#45;&gt;Node26 -->
<g id="edge26" class="edge">
<title>Node20&#45;&gt;Node26</title>
<path fill="none" stroke="#63b8ff" d="M245.35,-139.62C249.82,-137.63 254.1,-135.28 258,-132.5 282.11,-115.35 270.88,-94.97 294,-76.5 298.57,-72.85 303.75,-69.72 309.15,-67.05"/>
<polygon fill="#63b8ff" stroke="#63b8ff" points="244.19,-136.31 236.07,-143.11 246.66,-142.87 244.19,-136.31"/>
</g>
<!-- Node28 -->
<g id="node28" class="node">
<title>Node28</title>
<g id="a_node28"><a xlink:href="class_i_v_range_slider_control.html" target="_top" xlink:title="A vector range slider control, with two handles.">
<polygon fill="white" stroke="#666666" points="416,-19 306,-19 306,0 416,0 416,-19"/>
<text text-anchor="middle" x="361" y="-7" font-family="Helvetica,sans-Serif" font-size="10.00">IVRangeSliderControl</text>
</a>
</g>
</g>
<!-- Node20&#45;&gt;Node28 -->
<g id="edge28" class="edge">
<title>Node20&#45;&gt;Node28</title>
<path fill="none" stroke="#63b8ff" d="M245.36,-141C249.95,-138.71 254.24,-135.91 258,-132.5 294.21,-99.62 258.51,-62.16 294,-28.5 297.89,-24.81 302.46,-21.83 307.34,-19.42"/>
<polygon fill="#63b8ff" stroke="#63b8ff" points="244.3,-137.65 236.36,-144.66 246.94,-144.13 244.3,-137.65"/>
</g>
<!-- Node22 -->
<g id="node22" class="node">
<title>Node22</title>
<g id="a_node22"><a xlink:href="class_i_v_peak_avg_meter_control.html" target="_top" xlink:title=" ">
<polygon fill="white" stroke="#666666" points="607,-160 464,-160 464,-141 607,-141 607,-160"/>
<text text-anchor="middle" x="535.5" y="-148" font-family="Helvetica,sans-Serif" font-size="10.00">IVPeakAvgMeterControl&lt; 1 &gt;</text>
</a>
</g>
</g>
<!-- Node21&#45;&gt;Node22 -->
<g id="edge21" class="edge">
<title>Node21&#45;&gt;Node22</title>
<path fill="none" stroke="#63b8ff" d="M411.31,-193.5C416.95,-191.88 422.61,-190.19 428,-188.5 455.72,-179.79 486.98,-168.45 508.43,-160.43"/>
<polygon fill="#63b8ff" stroke="#63b8ff" points="410.67,-190.04 401.99,-196.11 412.57,-196.78 410.67,-190.04"/>
</g>
<!-- Node25&#45;&gt;Node22 -->
<g id="edge25" class="edge">
<title>Node25&#45;&gt;Node22</title>
<path fill="none" stroke="#63b8ff" d="M408.56,-108.62C415.1,-110.54 421.73,-112.54 428,-114.5 454.64,-122.83 484.75,-133.09 506.14,-140.52"/>
<polygon fill="#63b8ff" stroke="#63b8ff" points="409.74,-105.31 399.17,-105.88 407.79,-112.04 409.74,-105.31"/>
</g>
<!-- Node27 -->
<g id="node27" class="node">
<title>Node27</title>
<g id="a_node27"><a xlink:href="class_i_v_multi_toggle_control.html" target="_top" xlink:title="A vectorial multi&#45;toggle control, could be used for a trigger in a step sequencer or tarnce gate.">
<polygon fill="white" stroke="#666666" points="589,-67.5 482,-67.5 482,-37.5 589,-37.5 589,-67.5"/>
<text text-anchor="start" x="490" y="-55.5" font-family="Helvetica,sans-Serif" font-size="10.00">IVMultiToggleControl</text>
<text text-anchor="middle" x="535.5" y="-44.5" font-family="Helvetica,sans-Serif" font-size="10.00">&lt; MAXNC &gt;</text>
</a>
</g>
</g>
<!-- Node26&#45;&gt;Node27 -->
<g id="edge27" class="edge">
<title>Node26&#45;&gt;Node27</title>
<path fill="none" stroke="#63b8ff" d="M424.28,-52.5C443.08,-52.5 463.52,-52.5 481.65,-52.5"/>
<polygon fill="#63b8ff" stroke="#63b8ff" points="424.34,-49 414.34,-52.5 424.34,-56 424.34,-49"/>
</g>
</g>
</svg>
        <g id="navigator" transform="translate(0 0)" fill="#404254">
                <rect fill="#f2f5e9" fill-opacity="0.5" stroke="#606060" stroke-width=".5" x="0" y="0" width="60" height="60"/>
                <use id="zoomplus" xlink:href="#zoomPlus" x="17" y="9" onmousedown="handleZoom(evt,'in')"/>
                <use id="zoomminus" xlink:href="#zoomMin" x="42" y="9" onmousedown="handleZoom(evt,'out')"/>
                <use id="reset" xlink:href="#resetDef" x="30" y="36" onmousedown="handleReset()"/>
                <g id="arrowUp" xlink:href="#dirArrow" transform="translate(30 24)" onmousedown="handlePan(0,-1)">
                  <use xlink:href="#rim" fill="#404040">
                        <set attributeName="fill" to="#808080" begin="arrowUp.mouseover" end="arrowUp.mouseout"/>
                  </use>
                  <path fill="none" stroke="white" stroke-width="1.5" d="M0,-3.0v7 M-2.5,-0.5L0,-3.0L2.5,-0.5"/>
                </g>
                <g id="arrowRight" xlink:href="#dirArrow" transform="rotate(90) translate(36 -43)" onmousedown="handlePan(1,0)">
                  <use xlink:href="#rim" fill="#404040">
                        <set attributeName="fill" to="#808080" begin="arrowRight.mouseover" end="arrowRight.mouseout"/>
                  </use>
                  <path fill="none" stroke="white" stroke-width="1.5" d="M0,-3.0v7 M-2.5,-0.5L0,-3.0L2.5,-0.5"/>
                </g>
                <g id="arrowDown" xlink:href="#dirArrow" transform="rotate(180) translate(-30 -48)" onmousedown="handlePan(0,1)">
                  <use xlink:href="#rim" fill="#404040">
                        <set attributeName="fill" to="#808080" begin="arrowDown.mouseover" end="arrowDown.mouseout"/>
                  </use>
                  <path fill="none" stroke="white" stroke-width="1.5" d="M0,-3.0v7 M-2.5,-0.5L0,-3.0L2.5,-0.5"/>
                </g>
                <g id="arrowLeft" xlink:href="#dirArrow" transform="rotate(270) translate(-36 17)" onmousedown="handlePan(-1,0)">
                  <use xlink:href="#rim" fill="#404040">
                        <set attributeName="fill" to="#808080" begin="arrowLeft.mouseover" end="arrowLeft.mouseout"/>
                  </use>
                  <path fill="none" stroke="white" stroke-width="1.5" d="M0,-3.0v7 M-2.5,-0.5L0,-3.0L2.5,-0.5"/>
                </g>
        </g>
        <svg viewBox="0 0 15 15" width="100%" height="30px" preserveAspectRatio="xMaxYMin meet">
         <g id="arrow_out" transform="scale(0.3 0.3)">
          <a xlink:href="class_i_vector_base__inherit__graph_org.svg" target="_base">
           <rect id="button" ry="5" rx="5" y="6" x="6" height="38" width="38"
                fill="#f2f5e9" fill-opacity="0.5" stroke="#606060" stroke-width="1.0"/>
           <path id="arrow"
             d="M 11.500037,31.436501 C 11.940474,20.09759 22.043105,11.32322 32.158766,21.979434 L 37.068811,17.246167 C 37.068811,17.246167 37.088388,32 37.088388,32 L 22.160133,31.978069 C 22.160133,31.978069 26.997745,27.140456 26.997745,27.140456 C 18.528582,18.264221 13.291696,25.230495 11.500037,31.436501 z"
             style="fill:#404040;"/>
          </a>
         </g>
        </svg>
</svg>
