<?xml version="1.0" encoding="UTF-8" standalone="no"?>
<!DOCTYPE svg PUBLIC "-//W3C//DTD SVG 1.1//EN"
 "http://www.w3.org/Graphics/SVG/1.1/DTD/svg11.dtd">
<!-- Generated by graphviz version 7.0.5 (20221223.1930)
 -->
<!-- Title: ISender&lt; MAXNC, QUEUE_SIZE, T &gt; Pages: 1 -->
<svg width="315pt" height="134pt"
 viewBox="0.00 0.00 315.00 134.00" xmlns="http://www.w3.org/2000/svg" xmlns:xlink="http://www.w3.org/1999/xlink">
<g id="graph0" class="graph" transform="scale(1 1) rotate(0) translate(4 130)">
<title>ISender&lt; MAXNC, QUEUE_SIZE, T &gt;</title>
<!-- Node1 -->
<g id="node1" class="node">
<title>Node1</title>
<g id="a_node1"><a xlink:title="ISender is a utility class which can be used to defer data from the realtime audio processing and sen...">
<polygon fill="#999999" stroke="#666666" points="134,-78 0,-78 0,-48 134,-48 134,-78"/>
<text text-anchor="start" x="8" y="-66" font-family="Helvetica,sans-Serif" font-size="10.00">ISender&lt; MAXNC, QUEUE</text>
<text text-anchor="middle" x="67" y="-55" font-family="Helvetica,sans-Serif" font-size="10.00">_SIZE, T &gt;</text>
</a>
</g>
</g>
<!-- Node2 -->
<g id="node2" class="node">
<title>Node2</title>
<g id="a_node2"><a xlink:href="class_i_buffer_sender.html" target="_top" xlink:title="IBufferSender is a utility class which can be used to defer buffer data for sending to the GUI.">
<polygon fill="white" stroke="#666666" points="306.5,-126 170.5,-126 170.5,-96 306.5,-96 306.5,-126"/>
<text text-anchor="start" x="178.5" y="-114" font-family="Helvetica,sans-Serif" font-size="10.00">IBufferSender&lt; MAXNC,</text>
<text text-anchor="middle" x="238.5" y="-103" font-family="Helvetica,sans-Serif" font-size="10.00"> QUEUE_SIZE, MAXBUF &gt;</text>
</a>
</g>
</g>
<!-- Node1&#45;&gt;Node2 -->
<g id="edge1" class="edge">
<title>Node1&#45;&gt;Node2</title>
<path fill="none" stroke="#63b8ff" d="M133.2,-81.46C149.67,-86.13 167.17,-91.08 183.04,-95.58"/>
<polygon fill="#63b8ff" stroke="#63b8ff" points="134.6,-78.22 124.02,-78.86 132.69,-84.96 134.6,-78.22"/>
</g>
<!-- Node3 -->
<g id="node3" class="node">
<title>Node3</title>
<g id="a_node3"><a xlink:href="class_i_peak_avg_sender.html" target="_top" xlink:title="IPeakAvgSender is a utility class which can be used to defer peak &amp; avg/RMS data from sample buffers ...">
<polygon fill="white" stroke="#666666" points="307,-78 170,-78 170,-48 307,-48 307,-78"/>
<text text-anchor="start" x="178" y="-66" font-family="Helvetica,sans-Serif" font-size="10.00">IPeakAvgSender&lt; MAXNC,</text>
<text text-anchor="middle" x="238.5" y="-55" font-family="Helvetica,sans-Serif" font-size="10.00"> QUEUE_SIZE &gt;</text>
</a>
</g>
</g>
<!-- Node1&#45;&gt;Node3 -->
<g id="edge2" class="edge">
<title>Node1&#45;&gt;Node3</title>
<path fill="none" stroke="#63b8ff" d="M145.4,-63C153.51,-63 161.71,-63 169.71,-63"/>
<polygon fill="#63b8ff" stroke="#63b8ff" points="145.53,-59.5 135.53,-63 145.53,-66.5 145.53,-59.5"/>
</g>
<!-- Node4 -->
<g id="node4" class="node">
<title>Node4</title>
<g id="a_node4"><a xlink:href="class_i_peak_sender.html" target="_top" xlink:title="IPeakSender is a utility class which can be used to defer peak data from sample buffers for sending t...">
<polygon fill="white" stroke="#666666" points="298.5,-30 178.5,-30 178.5,0 298.5,0 298.5,-30"/>
<text text-anchor="start" x="186.5" y="-18" font-family="Helvetica,sans-Serif" font-size="10.00">IPeakSender&lt; MAXNC,</text>
<text text-anchor="middle" x="238.5" y="-7" font-family="Helvetica,sans-Serif" font-size="10.00"> QUEUE_SIZE &gt;</text>
</a>
</g>
</g>
<!-- Node1&#45;&gt;Node4 -->
<g id="edge3" class="edge">
<title>Node1&#45;&gt;Node4</title>
<path fill="none" stroke="#63b8ff" d="M133.2,-44.54C149.67,-39.87 167.17,-34.92 183.04,-30.42"/>
<polygon fill="#63b8ff" stroke="#63b8ff" points="132.69,-41.04 124.02,-47.14 134.6,-47.78 132.69,-41.04"/>
</g>
</g>
</svg>
