<?xml version="1.0" encoding="UTF-8" standalone="no"?>
<!DOCTYPE svg PUBLIC "-//W3C//DTD SVG 1.1//EN"
 "http://www.w3.org/Graphics/SVG/1.1/DTD/svg11.dtd">
<!-- Generated by graphviz version 7.0.5 (20221223.1930)
 -->
<!-- Title: IVDiskPresetManagerControl Pages: 1 -->
<svg width="151pt" height="192pt"
 viewBox="0.00 0.00 151.00 192.00" xmlns="http://www.w3.org/2000/svg" xmlns:xlink="http://www.w3.org/1999/xlink">
<g id="graph0" class="graph" transform="scale(1 1) rotate(0) translate(4 188)">
<title>IVDiskPresetManagerControl</title>
<!-- Node1 -->
<g id="node1" class="node">
<title>Node1</title>
<g id="a_node1"><a xlink:title="A &quot;meta control&quot; for a &quot;preset manager&quot; for disk&#45;based preset files It adds several child buttons.">
<polygon fill="#999999" stroke="#666666" points="143,-19 0,-19 0,0 143,0 143,-19"/>
<text text-anchor="middle" x="71.5" y="-7" font-family="Helvetica,sans-Serif" font-size="10.00">IVDiskPresetManagerControl</text>
</a>
</g>
</g>
<!-- Node2 -->
<g id="node2" class="node">
<title>Node2</title>
<g id="a_node2"><a xlink:href="class_i_dir_browse_control_base.html" target="_top" xlink:title="An abstract IControl base class that you can inherit from in order to make a control that pops up a m...">
<polygon fill="white" stroke="#666666" points="130.5,-74 12.5,-74 12.5,-55 130.5,-55 130.5,-74"/>
<text text-anchor="middle" x="71.5" y="-62" font-family="Helvetica,sans-Serif" font-size="10.00">IDirBrowseControlBase</text>
</a>
</g>
</g>
<!-- Node2&#45;&gt;Node1 -->
<g id="edge1" class="edge">
<title>Node2&#45;&gt;Node1</title>
<path fill="none" stroke="#63b8ff" d="M71.5,-43.35C71.5,-35.1 71.5,-25.97 71.5,-19.44"/>
<polygon fill="#63b8ff" stroke="#63b8ff" points="68,-43.23 71.5,-53.23 75,-43.23 68,-43.23"/>
</g>
<!-- Node3 -->
<g id="node3" class="node">
<title>Node3</title>
<g id="a_node3"><a xlink:href="class_i_container_base.html" target="_top" xlink:title="IContainerBase allows a control to nest sub controls and it clips the drawing of those subcontrols In...">
<polygon fill="white" stroke="#666666" points="113,-129 30,-129 30,-110 113,-110 113,-129"/>
<text text-anchor="middle" x="71.5" y="-117" font-family="Helvetica,sans-Serif" font-size="10.00">IContainerBase</text>
</a>
</g>
</g>
<!-- Node3&#45;&gt;Node2 -->
<g id="edge2" class="edge">
<title>Node3&#45;&gt;Node2</title>
<path fill="none" stroke="#63b8ff" d="M71.5,-98.35C71.5,-90.1 71.5,-80.97 71.5,-74.44"/>
<polygon fill="#63b8ff" stroke="#63b8ff" points="68,-98.23 71.5,-108.23 75,-98.23 68,-98.23"/>
</g>
<!-- Node4 -->
<g id="node4" class="node">
<title>Node4</title>
<g id="a_node4"><a xlink:href="class_i_control.html" target="_top" xlink:title="The lowest level base class of an IGraphics control.">
<polygon fill="white" stroke="#666666" points="96.5,-184 46.5,-184 46.5,-165 96.5,-165 96.5,-184"/>
<text text-anchor="middle" x="71.5" y="-172" font-family="Helvetica,sans-Serif" font-size="10.00">IControl</text>
</a>
</g>
</g>
<!-- Node4&#45;&gt;Node3 -->
<g id="edge3" class="edge">
<title>Node4&#45;&gt;Node3</title>
<path fill="none" stroke="#63b8ff" d="M71.5,-153.35C71.5,-145.1 71.5,-135.97 71.5,-129.44"/>
<polygon fill="#63b8ff" stroke="#63b8ff" points="68,-153.23 71.5,-163.23 75,-153.23 68,-153.23"/>
</g>
</g>
</svg>
