<?xml version="1.0" encoding="UTF-8" standalone="no"?>
<!DOCTYPE svg PUBLIC "-//W3C//DTD SVG 1.1//EN"
 "http://www.w3.org/Graphics/SVG/1.1/DTD/svg11.dtd">
<!-- Generated by graphviz version 7.0.5 (20221223.1930)
 -->
<!-- Title: ISwitchControlBase Pages: 1 -->
<svg width="483pt" height="175pt"
 viewBox="0.00 0.00 483.00 175.00" xmlns="http://www.w3.org/2000/svg" xmlns:xlink="http://www.w3.org/1999/xlink">
<g id="graph0" class="graph" transform="scale(1 1) rotate(0) translate(4 171)">
<title>ISwitchControlBase</title>
<!-- Node1 -->
<g id="node1" class="node">
<title>Node1</title>
<g id="a_node1"><a xlink:title="A base class for switch controls.">
<polygon fill="#999999" stroke="#666666" points="189,-93 86,-93 86,-74 189,-74 189,-93"/>
<text text-anchor="middle" x="137.5" y="-81" font-family="Helvetica,sans-Serif" font-size="10.00">ISwitchControlBase</text>
</a>
</g>
</g>
<!-- Node3 -->
<g id="node3" class="node">
<title>Node3</title>
<g id="a_node3"><a xlink:href="class_i_b_switch_control.html" target="_top" xlink:title="A bitmap switch control.">
<polygon fill="white" stroke="#666666" points="320.5,-167 233.5,-167 233.5,-148 320.5,-148 320.5,-167"/>
<text text-anchor="middle" x="277" y="-155" font-family="Helvetica,sans-Serif" font-size="10.00">IBSwitchControl</text>
</a>
</g>
</g>
<!-- Node1&#45;&gt;Node3 -->
<g id="edge2" class="edge">
<title>Node1&#45;&gt;Node3</title>
<path fill="none" stroke="#63b8ff" d="M160.78,-100.02C177.76,-112.07 202.05,-128.22 225,-139.5 231.07,-142.48 237.76,-145.21 244.24,-147.59"/>
<polygon fill="#63b8ff" stroke="#63b8ff" points="163.08,-97.36 152.92,-94.34 158.98,-103.03 163.08,-97.36"/>
</g>
<!-- Node4 -->
<g id="node4" class="node">
<title>Node4</title>
<g id="a_node4"><a xlink:href="class_i_s_v_g_switch_control.html" target="_top" xlink:title="A vector switch control which shows one of multiple SVG states.">
<polygon fill="white" stroke="#666666" points="327.5,-130 226.5,-130 226.5,-111 327.5,-111 327.5,-130"/>
<text text-anchor="middle" x="277" y="-118" font-family="Helvetica,sans-Serif" font-size="10.00">ISVGSwitchControl</text>
</a>
</g>
</g>
<!-- Node1&#45;&gt;Node4 -->
<g id="edge3" class="edge">
<title>Node1&#45;&gt;Node4</title>
<path fill="none" stroke="#63b8ff" d="M186.37,-96.38C203.64,-101.03 222.85,-106.2 239.05,-110.56"/>
<polygon fill="#63b8ff" stroke="#63b8ff" points="187.38,-93.03 176.81,-93.81 185.56,-99.79 187.38,-93.03"/>
</g>
<!-- Node5 -->
<g id="node5" class="node">
<title>Node5</title>
<g id="a_node5"><a xlink:href="class_i_s_v_g_toggle_control.html" target="_top" xlink:title="A vector toggle switch control which shows an SVG image.">
<polygon fill="white" stroke="#666666" points="327.5,-93 226.5,-93 226.5,-74 327.5,-74 327.5,-93"/>
<text text-anchor="middle" x="277" y="-81" font-family="Helvetica,sans-Serif" font-size="10.00">ISVGToggleControl</text>
</a>
</g>
</g>
<!-- Node1&#45;&gt;Node5 -->
<g id="edge4" class="edge">
<title>Node1&#45;&gt;Node5</title>
<path fill="none" stroke="#63b8ff" d="M200.53,-83.5C209.17,-83.5 217.95,-83.5 226.32,-83.5"/>
<polygon fill="#63b8ff" stroke="#63b8ff" points="200.82,-80 190.82,-83.5 200.82,-87 200.82,-80"/>
</g>
<!-- Node6 -->
<g id="node6" class="node">
<title>Node6</title>
<g id="a_node6"><a xlink:href="class_i_v_switch_control.html" target="_top" xlink:title="A vector switch control.">
<polygon fill="white" stroke="#666666" points="320.5,-56 233.5,-56 233.5,-37 320.5,-37 320.5,-56"/>
<text text-anchor="middle" x="277" y="-44" font-family="Helvetica,sans-Serif" font-size="10.00">IVSwitchControl</text>
</a>
</g>
</g>
<!-- Node1&#45;&gt;Node6 -->
<g id="edge5" class="edge">
<title>Node1&#45;&gt;Node6</title>
<path fill="none" stroke="#63b8ff" d="M186.37,-70.62C203.64,-65.97 222.85,-60.8 239.05,-56.44"/>
<polygon fill="#63b8ff" stroke="#63b8ff" points="185.56,-67.21 176.81,-73.19 187.38,-73.97 185.56,-67.21"/>
</g>
<!-- Node9 -->
<g id="node9" class="node">
<title>Node9</title>
<g id="a_node9"><a xlink:href="class_i_v_tab_switch_control.html" target="_top" xlink:title="A vector &quot;tab&quot; multi switch control.">
<polygon fill="white" stroke="#666666" points="329,-19 225,-19 225,0 329,0 329,-19"/>
<text text-anchor="middle" x="277" y="-7" font-family="Helvetica,sans-Serif" font-size="10.00">IVTabSwitchControl</text>
</a>
</g>
</g>
<!-- Node1&#45;&gt;Node9 -->
<g id="edge8" class="edge">
<title>Node1&#45;&gt;Node9</title>
<path fill="none" stroke="#63b8ff" d="M160.78,-66.98C177.76,-54.93 202.05,-38.78 225,-27.5 231.07,-24.52 237.76,-21.79 244.24,-19.41"/>
<polygon fill="#63b8ff" stroke="#63b8ff" points="158.98,-63.97 152.92,-72.66 163.08,-69.64 158.98,-63.97"/>
</g>
<!-- Node2 -->
<g id="node2" class="node">
<title>Node2</title>
<g id="a_node2"><a xlink:href="class_i_control.html" target="_top" xlink:title="The lowest level base class of an IGraphics control.">
<polygon fill="white" stroke="#666666" points="50,-93 0,-93 0,-74 50,-74 50,-93"/>
<text text-anchor="middle" x="25" y="-81" font-family="Helvetica,sans-Serif" font-size="10.00">IControl</text>
</a>
</g>
</g>
<!-- Node2&#45;&gt;Node1 -->
<g id="edge1" class="edge">
<title>Node2&#45;&gt;Node1</title>
<path fill="none" stroke="#63b8ff" d="M61.67,-83.5C69.29,-83.5 77.49,-83.5 85.57,-83.5"/>
<polygon fill="#63b8ff" stroke="#63b8ff" points="61.76,-80 51.76,-83.5 61.76,-87 61.76,-80"/>
</g>
<!-- Node7 -->
<g id="node7" class="node">
<title>Node7</title>
<g id="a_node7"><a xlink:href="class_i_v_slide_switch_control.html" target="_top" xlink:title="A switch with a slide animation when clicked.">
<polygon fill="white" stroke="#666666" points="474.5,-93 365.5,-93 365.5,-74 474.5,-74 474.5,-93"/>
<text text-anchor="middle" x="420" y="-81" font-family="Helvetica,sans-Serif" font-size="10.00">IVSlideSwitchControl</text>
</a>
</g>
</g>
<!-- Node6&#45;&gt;Node7 -->
<g id="edge6" class="edge">
<title>Node6&#45;&gt;Node7</title>
<path fill="none" stroke="#63b8ff" d="M326.83,-59.31C344.61,-63.98 364.42,-69.18 381.11,-73.56"/>
<polygon fill="#63b8ff" stroke="#63b8ff" points="327.81,-55.95 317.25,-56.8 326.03,-62.72 327.81,-55.95"/>
</g>
<!-- Node8 -->
<g id="node8" class="node">
<title>Node8</title>
<g id="a_node8"><a xlink:href="class_i_v_toggle_control.html" target="_top" xlink:title="A vector toggle control.">
<polygon fill="white" stroke="#666666" points="463,-56 377,-56 377,-37 463,-37 463,-56"/>
<text text-anchor="middle" x="420" y="-44" font-family="Helvetica,sans-Serif" font-size="10.00">IVToggleControl</text>
</a>
</g>
</g>
<!-- Node6&#45;&gt;Node8 -->
<g id="edge7" class="edge">
<title>Node6&#45;&gt;Node8</title>
<path fill="none" stroke="#63b8ff" d="M331.86,-46.5C346.79,-46.5 362.79,-46.5 376.94,-46.5"/>
<polygon fill="#63b8ff" stroke="#63b8ff" points="332.2,-43 322.2,-46.5 332.2,-50 332.2,-43"/>
</g>
<!-- Node10 -->
<g id="node10" class="node">
<title>Node10</title>
<g id="a_node10"><a xlink:href="class_i_v_radio_button_control.html" target="_top" xlink:title="A vector &quot;radio buttons&quot; switch control.">
<polygon fill="white" stroke="#666666" points="475,-19 365,-19 365,0 475,0 475,-19"/>
<text text-anchor="middle" x="420" y="-7" font-family="Helvetica,sans-Serif" font-size="10.00">IVRadioButtonControl</text>
</a>
</g>
</g>
<!-- Node9&#45;&gt;Node10 -->
<g id="edge9" class="edge">
<title>Node9&#45;&gt;Node10</title>
<path fill="none" stroke="#63b8ff" d="M340.81,-9.5C348.76,-9.5 356.84,-9.5 364.65,-9.5"/>
<polygon fill="#63b8ff" stroke="#63b8ff" points="340.82,-6 330.82,-9.5 340.82,-13 340.82,-6"/>
</g>
</g>
</svg>
