<?xml version="1.0" encoding="UTF-8" standalone="no"?>
<!DOCTYPE svg PUBLIC "-//W3C//DTD SVG 1.1//EN"
 "http://www.w3.org/Graphics/SVG/1.1/DTD/svg11.dtd">
<!-- Generated by graphviz version 2.36.0 (20140111.2315)
 -->
<!-- Title: IBKnobControl Pages: 1 -->
<svg width="195pt" height="196pt"
 viewBox="0.00 0.00 195.00 196.00" xmlns="http://www.w3.org/2000/svg" xmlns:xlink="http://www.w3.org/1999/xlink">
<g id="graph0" class="graph" transform="scale(1 1) rotate(0) translate(4 192)">
<title>IBKnobControl</title>
<polygon fill="white" stroke="none" points="-4,4 -4,-192 191,-192 191,4 -4,4"/>
<!-- Node1 -->
<g id="node1" class="node"><title>Node1</title>
<polygon fill="#bfbfbf" stroke="black" points="59,-56.5 59,-75.5 139,-75.5 139,-56.5 59,-56.5"/>
<text text-anchor="middle" x="99" y="-63.5" font-family="Helvetica,sans-Serif" font-size="10.00">IBKnobControl</text>
</g>
<!-- Node5 -->
<g id="node5" class="node"><title>Node5</title>
<g id="a_node5"><a xlink:href="class_i_b_knob_rotater_control.html" target="_top" xlink:title="A bitmap knob/dial control that rotates an image. ">
<polygon fill="white" stroke="black" points="42.5,-0.5 42.5,-19.5 155.5,-19.5 155.5,-0.5 42.5,-0.5"/>
<text text-anchor="middle" x="99" y="-7.5" font-family="Helvetica,sans-Serif" font-size="10.00">IBKnobRotaterControl</text>
</a>
</g>
</g>
<!-- Node1&#45;&gt;Node5 -->
<g id="edge4" class="edge"><title>Node1&#45;&gt;Node5</title>
<path fill="none" stroke="midnightblue" d="M99,-45.8045C99,-36.9102 99,-26.7798 99,-19.7511"/>
<polygon fill="midnightblue" stroke="midnightblue" points="95.5001,-46.083 99,-56.083 102.5,-46.083 95.5001,-46.083"/>
</g>
<!-- Node2 -->
<g id="node2" class="node"><title>Node2</title>
<g id="a_node2"><a xlink:href="class_i_knob_control_base.html" target="_top" xlink:title="A base class for knob/dial controls, to handle mouse action and ballistics. ">
<polygon fill="white" stroke="black" points="0,-112.5 0,-131.5 96,-131.5 96,-112.5 0,-112.5"/>
<text text-anchor="middle" x="48" y="-119.5" font-family="Helvetica,sans-Serif" font-size="10.00">IKnobControlBase</text>
</a>
</g>
</g>
<!-- Node2&#45;&gt;Node1 -->
<g id="edge1" class="edge"><title>Node2&#45;&gt;Node1</title>
<path fill="none" stroke="midnightblue" d="M63.3779,-104.718C72.3669,-95.1997 83.3592,-83.5608 90.7351,-75.7511"/>
<polygon fill="midnightblue" stroke="midnightblue" points="60.7433,-102.41 56.4216,-112.083 65.8324,-107.216 60.7433,-102.41"/>
</g>
<!-- Node3 -->
<g id="node3" class="node"><title>Node3</title>
<g id="a_node3"><a xlink:href="class_i_control.html" target="_top" xlink:title="The lowest level base class of an IGraphics control. ">
<polygon fill="white" stroke="black" points="22.5,-168.5 22.5,-187.5 73.5,-187.5 73.5,-168.5 22.5,-168.5"/>
<text text-anchor="middle" x="48" y="-175.5" font-family="Helvetica,sans-Serif" font-size="10.00">IControl</text>
</a>
</g>
</g>
<!-- Node3&#45;&gt;Node2 -->
<g id="edge2" class="edge"><title>Node3&#45;&gt;Node2</title>
<path fill="none" stroke="midnightblue" d="M48,-157.805C48,-148.91 48,-138.78 48,-131.751"/>
<polygon fill="midnightblue" stroke="midnightblue" points="44.5001,-158.083 48,-168.083 51.5001,-158.083 44.5001,-158.083"/>
</g>
<!-- Node4 -->
<g id="node4" class="node"><title>Node4</title>
<g id="a_node4"><a xlink:href="class_i_bitmap_base.html" target="_top" xlink:title="A base interface, to be combined with IControl for bitmap&#45;based controls &quot;IBControls&quot;, managing an IBitmap and IBlend. ">
<polygon fill="white" stroke="black" points="114.5,-112.5 114.5,-131.5 187.5,-131.5 187.5,-112.5 114.5,-112.5"/>
<text text-anchor="middle" x="151" y="-119.5" font-family="Helvetica,sans-Serif" font-size="10.00">IBitmapBase</text>
</a>
</g>
</g>
<!-- Node4&#45;&gt;Node1 -->
<g id="edge3" class="edge"><title>Node4&#45;&gt;Node1</title>
<path fill="none" stroke="midnightblue" d="M135.321,-104.718C126.155,-95.1997 114.947,-83.5608 107.427,-75.7511"/>
<polygon fill="midnightblue" stroke="midnightblue" points="132.956,-107.308 142.413,-112.083 137.998,-102.452 132.956,-107.308"/>
</g>
</g>
</svg>
