<?xml version="1.0" encoding="UTF-8" standalone="no"?>
<!DOCTYPE svg PUBLIC "-//W3C//DTD SVG 1.1//EN"
 "http://www.w3.org/Graphics/SVG/1.1/DTD/svg11.dtd">
<!-- Generated by graphviz version 7.0.5 (20221223.1930)
 -->
<!-- Title: IPlugVST3Controller Pages: 1 -->
<svg width="592pt" height="187pt"
 viewBox="0.00 0.00 592.00 187.00" xmlns="http://www.w3.org/2000/svg" xmlns:xlink="http://www.w3.org/1999/xlink">
<g id="graph0" class="graph" transform="scale(1 1) rotate(0) translate(4 183)">
<title>IPlugVST3Controller</title>
<!-- Node1 -->
<g id="node1" class="node">
<title>Node1</title>
<g id="a_node1"><a xlink:title="VST3 Controller API&#45;base class for a distributed IPlug VST3 plug&#45;in.">
<polygon fill="#999999" stroke="#666666" points="584,-99 479,-99 479,-80 584,-80 584,-99"/>
<text text-anchor="middle" x="531.5" y="-87" font-family="Helvetica,sans-Serif" font-size="10.00">IPlugVST3Controller</text>
</a>
</g>
</g>
<!-- Node2 -->
<g id="node2" class="node">
<title>Node2</title>
<g id="a_node2"><a xlink:title=" ">
<polygon fill="white" stroke="#bfbfbf" points="443,-179 288,-179 288,-160 443,-160 443,-179"/>
<text text-anchor="middle" x="365.5" y="-167" font-family="Helvetica,sans-Serif" font-size="10.00">Steinberg::Vst::EditControllerEx1</text>
</a>
</g>
</g>
<!-- Node2&#45;&gt;Node1 -->
<g id="edge1" class="edge">
<title>Node2&#45;&gt;Node1</title>
<path fill="none" stroke="#63b8ff" d="M431.26,-156.16C435.29,-154.75 439.23,-153.2 443,-151.5 473.21,-137.87 503.71,-113.22 519.49,-99.46"/>
<polygon fill="#63b8ff" stroke="#63b8ff" points="430.38,-152.77 421.9,-159.12 432.49,-159.44 430.38,-152.77"/>
</g>
<!-- Node3 -->
<g id="node3" class="node">
<title>Node3</title>
<g id="a_node3"><a xlink:title=" ">
<polygon fill="white" stroke="#bfbfbf" points="435.5,-142 295.5,-142 295.5,-123 435.5,-123 435.5,-142"/>
<text text-anchor="middle" x="365.5" y="-130" font-family="Helvetica,sans-Serif" font-size="10.00">Steinberg::Vst::IMidiMapping</text>
</a>
</g>
</g>
<!-- Node3&#45;&gt;Node1 -->
<g id="edge2" class="edge">
<title>Node3&#45;&gt;Node1</title>
<path fill="none" stroke="#63b8ff" d="M418.47,-119.77C426.69,-117.71 435.08,-115.57 443,-113.5 460.22,-109 479.29,-103.8 495.22,-99.39"/>
<polygon fill="#63b8ff" stroke="#63b8ff" points="417.76,-116.34 408.91,-122.16 419.46,-123.13 417.76,-116.34"/>
</g>
<!-- Node4 -->
<g id="node4" class="node">
<title>Node4</title>
<g id="a_node4"><a xlink:title=" ">
<polygon fill="white" stroke="#bfbfbf" points="440.5,-104.5 290.5,-104.5 290.5,-74.5 440.5,-74.5 440.5,-104.5"/>
<text text-anchor="start" x="298.5" y="-92.5" font-family="Helvetica,sans-Serif" font-size="10.00">Steinberg::Vst::ChannelContext</text>
<text text-anchor="middle" x="365.5" y="-81.5" font-family="Helvetica,sans-Serif" font-size="10.00">::IInfoListener</text>
</a>
</g>
</g>
<!-- Node4&#45;&gt;Node1 -->
<g id="edge3" class="edge">
<title>Node4&#45;&gt;Node1</title>
<path fill="none" stroke="#63b8ff" d="M452.33,-89.5C461.41,-89.5 470.44,-89.5 478.95,-89.5"/>
<polygon fill="#63b8ff" stroke="#63b8ff" points="452.34,-86 442.34,-89.5 452.34,-93 452.34,-86"/>
</g>
<!-- Node5 -->
<g id="node5" class="node">
<title>Node5</title>
<g id="a_node5"><a xlink:href="class_i_plug_a_p_i_base.html" target="_top" xlink:title="The base class of an IPlug plug&#45;in, which interacts with the different plug&#45;in APIs.">
<polygon fill="white" stroke="#666666" points="404.5,-56 326.5,-56 326.5,-37 404.5,-37 404.5,-56"/>
<text text-anchor="middle" x="365.5" y="-44" font-family="Helvetica,sans-Serif" font-size="10.00">IPlugAPIBase</text>
</a>
</g>
</g>
<!-- Node5&#45;&gt;Node1 -->
<g id="edge4" class="edge">
<title>Node5&#45;&gt;Node1</title>
<path fill="none" stroke="#63b8ff" d="M415.59,-58.5C424.71,-60.79 434.15,-63.19 443,-65.5 460.22,-70 479.29,-75.2 495.22,-79.61"/>
<polygon fill="#63b8ff" stroke="#63b8ff" points="416.7,-55.17 406.15,-56.16 415.01,-61.97 416.7,-55.17"/>
</g>
<!-- Node6 -->
<g id="node6" class="node">
<title>Node6</title>
<g id="a_node6"><a xlink:href="class_i_plugin_base.html" target="_top" xlink:title="Base class that contains plug&#45;in info and state manipulation methods.">
<polygon fill="white" stroke="#666666" points="252,-56 183,-56 183,-37 252,-37 252,-56"/>
<text text-anchor="middle" x="217.5" y="-44" font-family="Helvetica,sans-Serif" font-size="10.00">IPluginBase</text>
</a>
</g>
</g>
<!-- Node6&#45;&gt;Node5 -->
<g id="edge5" class="edge">
<title>Node6&#45;&gt;Node5</title>
<path fill="none" stroke="#63b8ff" d="M263.72,-46.5C283.74,-46.5 307.04,-46.5 326.19,-46.5"/>
<polygon fill="#63b8ff" stroke="#63b8ff" points="263.88,-43 253.88,-46.5 263.88,-50 263.88,-43"/>
</g>
<!-- Node7 -->
<g id="node7" class="node">
<title>Node7</title>
<g id="a_node7"><a xlink:title=" ">
<polygon fill="white" stroke="#bfbfbf" points="147,-56 0,-56 0,-37 147,-37 147,-56"/>
<text text-anchor="middle" x="73.5" y="-44" font-family="Helvetica,sans-Serif" font-size="10.00">EDITOR_DELEGATE_CLASS</text>
</a>
</g>
</g>
<!-- Node7&#45;&gt;Node6 -->
<g id="edge6" class="edge">
<title>Node7&#45;&gt;Node6</title>
<path fill="none" stroke="#63b8ff" d="M158.45,-46.5C166.96,-46.5 175.21,-46.5 182.7,-46.5"/>
<polygon fill="#63b8ff" stroke="#63b8ff" points="158.68,-43 148.68,-46.5 158.68,-50 158.68,-43"/>
</g>
<!-- Node8 -->
<g id="node8" class="node">
<title>Node8</title>
<g id="a_node8"><a xlink:href="class_i_plug_v_s_t3_controller_base.html" target="_top" xlink:title="Shared VST3 controller code.">
<polygon fill="white" stroke="#666666" points="429.5,-19 301.5,-19 301.5,0 429.5,0 429.5,-19"/>
<text text-anchor="middle" x="365.5" y="-7" font-family="Helvetica,sans-Serif" font-size="10.00">IPlugVST3ControllerBase</text>
</a>
</g>
</g>
<!-- Node8&#45;&gt;Node1 -->
<g id="edge7" class="edge">
<title>Node8&#45;&gt;Node1</title>
<path fill="none" stroke="#63b8ff" d="M431.26,-22.84C435.29,-24.25 439.23,-25.8 443,-27.5 473.21,-41.13 503.71,-65.78 519.49,-79.54"/>
<polygon fill="#63b8ff" stroke="#63b8ff" points="432.49,-19.56 421.9,-19.88 430.38,-26.23 432.49,-19.56"/>
</g>
</g>
</svg>
