<?xml version="1.0" encoding="UTF-8" standalone="no"?>
<!DOCTYPE svg PUBLIC "-//W3C//DTD SVG 1.1//EN"
 "http://www.w3.org/Graphics/SVG/1.1/DTD/svg11.dtd">
<!-- Generated by graphviz version 7.0.5 (20221223.1930)
 -->
<!-- Title: IPlugVST3 Pages: 1 -->
<svg width="568pt" height="236pt"
 viewBox="0.00 0.00 568.00 235.50" xmlns="http://www.w3.org/2000/svg" xmlns:xlink="http://www.w3.org/1999/xlink">
<g id="graph0" class="graph" transform="scale(1 1) rotate(0) translate(4 231.5)">
<title>IPlugVST3</title>
<!-- Node1 -->
<g id="node1" class="node">
<title>Node1</title>
<g id="a_node1"><a xlink:title="VST3 base class for a non&#45;distributed IPlug VST3 plug&#45;in.">
<polygon fill="#999999" stroke="#666666" points="560,-131.5 496,-131.5 496,-112.5 560,-112.5 560,-131.5"/>
<text text-anchor="middle" x="528" y="-119.5" font-family="Helvetica,sans-Serif" font-size="10.00">IPlugVST3</text>
</a>
</g>
</g>
<!-- Node2 -->
<g id="node2" class="node">
<title>Node2</title>
<g id="a_node2"><a xlink:href="class_i_plug_a_p_i_base.html" target="_top" xlink:title="The base class of an IPlug plug&#45;in, which interacts with the different plug&#45;in APIs.">
<polygon fill="white" stroke="#666666" points="420,-227.5 342,-227.5 342,-208.5 420,-208.5 420,-227.5"/>
<text text-anchor="middle" x="381" y="-215.5" font-family="Helvetica,sans-Serif" font-size="10.00">IPlugAPIBase</text>
</a>
</g>
</g>
<!-- Node2&#45;&gt;Node1 -->
<g id="edge1" class="edge">
<title>Node2&#45;&gt;Node1</title>
<path fill="none" stroke="#63b8ff" d="M431.42,-211.57C441.34,-208.94 451.36,-205.23 460,-200 488.72,-182.63 511.39,-148.71 521.41,-131.91"/>
<polygon fill="#63b8ff" stroke="#63b8ff" points="430.79,-208.12 421.82,-213.77 432.35,-214.95 430.79,-208.12"/>
</g>
<!-- Node3 -->
<g id="node3" class="node">
<title>Node3</title>
<g id="a_node3"><a xlink:href="class_i_plugin_base.html" target="_top" xlink:title="Base class that contains plug&#45;in info and state manipulation methods.">
<polygon fill="white" stroke="#666666" points="259,-227.5 190,-227.5 190,-208.5 259,-208.5 259,-227.5"/>
<text text-anchor="middle" x="224.5" y="-215.5" font-family="Helvetica,sans-Serif" font-size="10.00">IPluginBase</text>
</a>
</g>
</g>
<!-- Node3&#45;&gt;Node2 -->
<g id="edge2" class="edge">
<title>Node3&#45;&gt;Node2</title>
<path fill="none" stroke="#63b8ff" d="M270.71,-218C293.19,-218 320.07,-218 341.55,-218"/>
<polygon fill="#63b8ff" stroke="#63b8ff" points="270.92,-214.5 260.92,-218 270.92,-221.5 270.92,-214.5"/>
</g>
<!-- Node4 -->
<g id="node4" class="node">
<title>Node4</title>
<g id="a_node4"><a xlink:title=" ">
<polygon fill="white" stroke="#bfbfbf" points="147,-227.5 0,-227.5 0,-208.5 147,-208.5 147,-227.5"/>
<text text-anchor="middle" x="73.5" y="-215.5" font-family="Helvetica,sans-Serif" font-size="10.00">EDITOR_DELEGATE_CLASS</text>
</a>
</g>
</g>
<!-- Node4&#45;&gt;Node3 -->
<g id="edge3" class="edge">
<title>Node4&#45;&gt;Node3</title>
<path fill="none" stroke="#63b8ff" d="M158.66,-218C169.55,-218 180.15,-218 189.53,-218"/>
<polygon fill="#63b8ff" stroke="#63b8ff" points="158.77,-214.5 148.77,-218 158.77,-221.5 158.77,-214.5"/>
</g>
<!-- Node5 -->
<g id="node5" class="node">
<title>Node5</title>
<g id="a_node5"><a xlink:href="class_i_plug_v_s_t3_processor_base.html" target="_top" xlink:title="Shared VST3 processor code.">
<polygon fill="white" stroke="#666666" points="446.5,-190.5 315.5,-190.5 315.5,-171.5 446.5,-171.5 446.5,-190.5"/>
<text text-anchor="middle" x="381" y="-178.5" font-family="Helvetica,sans-Serif" font-size="10.00">IPlugVST3ProcessorBase</text>
</a>
</g>
</g>
<!-- Node5&#45;&gt;Node1 -->
<g id="edge4" class="edge">
<title>Node5&#45;&gt;Node1</title>
<path fill="none" stroke="#63b8ff" d="M443.52,-167.87C449.16,-166.11 454.73,-164.16 460,-162 479.56,-153.99 500.16,-140.89 513.27,-131.88"/>
<polygon fill="#63b8ff" stroke="#63b8ff" points="442.73,-164.45 434.09,-170.59 444.67,-171.18 442.73,-164.45"/>
</g>
<!-- Node6 -->
<g id="node6" class="node">
<title>Node6</title>
<g id="a_node6"><a xlink:href="class_i_plug_processor.html" target="_top" xlink:title="The base class for IPlug Audio Processing.">
<polygon fill="white" stroke="#666666" points="266,-190.5 183,-190.5 183,-171.5 266,-171.5 266,-190.5"/>
<text text-anchor="middle" x="224.5" y="-178.5" font-family="Helvetica,sans-Serif" font-size="10.00">IPlugProcessor</text>
</a>
</g>
</g>
<!-- Node6&#45;&gt;Node5 -->
<g id="edge5" class="edge">
<title>Node6&#45;&gt;Node5</title>
<path fill="none" stroke="#63b8ff" d="M277.71,-181C289.74,-181 302.69,-181 315.18,-181"/>
<polygon fill="#63b8ff" stroke="#63b8ff" points="278.01,-177.5 268.01,-181 278.01,-184.5 278.01,-177.5"/>
</g>
<!-- Node7 -->
<g id="node7" class="node">
<title>Node7</title>
<g id="a_node7"><a xlink:href="class_i_plug_v_s_t3_controller_base.html" target="_top" xlink:title="Shared VST3 controller code.">
<polygon fill="white" stroke="#666666" points="445,-153.5 317,-153.5 317,-134.5 445,-134.5 445,-153.5"/>
<text text-anchor="middle" x="381" y="-141.5" font-family="Helvetica,sans-Serif" font-size="10.00">IPlugVST3ControllerBase</text>
</a>
</g>
</g>
<!-- Node7&#45;&gt;Node1 -->
<g id="edge6" class="edge">
<title>Node7&#45;&gt;Node1</title>
<path fill="none" stroke="#63b8ff" d="M456.34,-132.72C470.29,-130.6 484.15,-128.5 495.85,-126.73"/>
<polygon fill="#63b8ff" stroke="#63b8ff" points="456.04,-129.23 446.67,-134.19 457.09,-136.15 456.04,-129.23"/>
</g>
<!-- Node8 -->
<g id="node8" class="node">
<title>Node8</title>
<g id="a_node8"><a xlink:title=" ">
<polygon fill="white" stroke="#bfbfbf" points="460,-116 302,-116 302,-86 460,-86 460,-116"/>
<text text-anchor="start" x="310" y="-104" font-family="Helvetica,sans-Serif" font-size="10.00">Steinberg::Vst::SingleComponent</text>
<text text-anchor="middle" x="381" y="-93" font-family="Helvetica,sans-Serif" font-size="10.00">Effect</text>
</a>
</g>
</g>
<!-- Node8&#45;&gt;Node1 -->
<g id="edge7" class="edge">
<title>Node8&#45;&gt;Node1</title>
<path fill="none" stroke="#63b8ff" d="M471.68,-113.99C480.12,-115.21 488.22,-116.38 495.51,-117.44"/>
<polygon fill="#63b8ff" stroke="#63b8ff" points="472.34,-110.55 461.94,-112.58 471.33,-117.47 472.34,-110.55"/>
</g>
<!-- Node9 -->
<g id="node9" class="node">
<title>Node9</title>
<g id="a_node9"><a xlink:title=" ">
<polygon fill="white" stroke="#bfbfbf" points="451,-67.5 311,-67.5 311,-48.5 451,-48.5 451,-67.5"/>
<text text-anchor="middle" x="381" y="-55.5" font-family="Helvetica,sans-Serif" font-size="10.00">Steinberg::Vst::IMidiMapping</text>
</a>
</g>
</g>
<!-- Node9&#45;&gt;Node1 -->
<g id="edge8" class="edge">
<title>Node9&#45;&gt;Node1</title>
<path fill="none" stroke="#63b8ff" d="M444.81,-71.22C450.03,-72.94 455.15,-74.86 460,-77 481.03,-86.27 502.61,-102.13 515.41,-112.33"/>
<polygon fill="#63b8ff" stroke="#63b8ff" points="446.07,-67.95 435.49,-68.4 444.04,-74.65 446.07,-67.95"/>
</g>
<!-- Node10 -->
<g id="node10" class="node">
<title>Node10</title>
<g id="a_node10"><a xlink:title=" ">
<polygon fill="white" stroke="#bfbfbf" points="456,-30 306,-30 306,0 456,0 456,-30"/>
<text text-anchor="start" x="314" y="-18" font-family="Helvetica,sans-Serif" font-size="10.00">Steinberg::Vst::ChannelContext</text>
<text text-anchor="middle" x="381" y="-7" font-family="Helvetica,sans-Serif" font-size="10.00">::IInfoListener</text>
</a>
</g>
</g>
<!-- Node10&#45;&gt;Node1 -->
<g id="edge9" class="edge">
<title>Node10&#45;&gt;Node1</title>
<path fill="none" stroke="#63b8ff" d="M454.41,-35.51C456.33,-36.62 458.2,-37.78 460,-39 489.14,-58.72 511.93,-94.89 521.75,-112.23"/>
<polygon fill="#63b8ff" stroke="#63b8ff" points="456.31,-32.55 445.81,-31.15 453.14,-38.8 456.31,-32.55"/>
</g>
</g>
</svg>
