<?xml version="1.0" encoding="UTF-8" standalone="no"?>
<!DOCTYPE svg PUBLIC "-//W3C//DTD SVG 1.1//EN"
 "http://www.w3.org/Graphics/SVG/1.1/DTD/svg11.dtd">
<!-- Generated by graphviz version 7.0.5 (20221223.1930)
 -->
<!-- Title: IVectorBase Pages: 1 -->
<svg width="615pt" height="902pt"
 viewBox="0.00 0.00 615.00 902.00" xmlns="http://www.w3.org/2000/svg" xmlns:xlink="http://www.w3.org/1999/xlink">
<g id="graph0" class="graph" transform="scale(1 1) rotate(0) translate(4 898)">
<title>IVectorBase</title>
<!-- Node1 -->
<g id="node1" class="node">
<title>Node1</title>
<g id="a_node1"><a xlink:title="A base interface to be combined with IControl for vectorial controls &quot;IVControls&quot;,...">
<polygon fill="#999999" stroke="#666666" points="71,-505 0,-505 0,-486 71,-486 71,-505"/>
<text text-anchor="middle" x="35.5" y="-493" font-family="Helvetica,sans-Serif" font-size="10.00">IVectorBase</text>
</a>
</g>
</g>
<!-- Node2 -->
<g id="node2" class="node">
<title>Node2</title>
<g id="a_node2"><a xlink:href="class_i_f_p_s_display_control.html" target="_top" xlink:title="Performance display meter, based on code from NanoVG This is a special control that lives outside the...">
<polygon fill="white" stroke="#666666" points="233,-894 132,-894 132,-875 233,-875 233,-894"/>
<text text-anchor="middle" x="182.5" y="-882" font-family="Helvetica,sans-Serif" font-size="10.00">IFPSDisplayControl</text>
</a>
</g>
</g>
<!-- Node1&#45;&gt;Node2 -->
<g id="edge1" class="edge">
<title>Node1&#45;&gt;Node2</title>
<path fill="none" stroke="#63b8ff" d="M37.57,-516.5C41.62,-587.24 58.27,-815.31 107,-866.5 113.61,-873.44 122.39,-877.9 131.6,-880.73"/>
<polygon fill="#63b8ff" stroke="#63b8ff" points="41.08,-516.5 37.04,-506.71 34.09,-516.88 41.08,-516.5"/>
</g>
<!-- Node3 -->
<g id="node3" class="node">
<title>Node3</title>
<g id="a_node3"><a xlink:href="class_i_v_baked_preset_manager_control.html" target="_top" xlink:title="A &quot;meta control&quot; for a &quot;preset manager&quot; for &quot;baked in&quot; factory presets It adds several child buttons.">
<polygon fill="white" stroke="#666666" points="258,-857 107,-857 107,-838 258,-838 258,-857"/>
<text text-anchor="middle" x="182.5" y="-845" font-family="Helvetica,sans-Serif" font-size="10.00">IVBakedPresetManagerControl</text>
</a>
</g>
</g>
<!-- Node1&#45;&gt;Node3 -->
<g id="edge2" class="edge">
<title>Node1&#45;&gt;Node3</title>
<path fill="none" stroke="#63b8ff" d="M38.06,-516.51C43.37,-582.54 62.97,-784.17 107,-829.5 110.15,-832.75 113.78,-835.45 117.7,-837.69"/>
<polygon fill="#63b8ff" stroke="#63b8ff" points="41.56,-516.41 37.3,-506.71 34.58,-516.95 41.56,-516.41"/>
</g>
<!-- Node4 -->
<g id="node4" class="node">
<title>Node4</title>
<g id="a_node4"><a xlink:href="class_i_v_button_control.html" target="_top" xlink:title="A vector button/momentary switch control.">
<polygon fill="white" stroke="#666666" points="225.5,-820 139.5,-820 139.5,-801 225.5,-801 225.5,-820"/>
<text text-anchor="middle" x="182.5" y="-808" font-family="Helvetica,sans-Serif" font-size="10.00">IVButtonControl</text>
</a>
</g>
</g>
<!-- Node1&#45;&gt;Node4 -->
<g id="edge3" class="edge">
<title>Node1&#45;&gt;Node4</title>
<path fill="none" stroke="#63b8ff" d="M38.66,-516.54C45.34,-577.6 67.63,-752.98 107,-792.5 115.54,-801.08 127.43,-805.83 139.2,-808.4"/>
<polygon fill="#63b8ff" stroke="#63b8ff" points="42.16,-516.42 37.63,-506.85 35.2,-517.16 42.16,-516.42"/>
</g>
<!-- Node5 -->
<g id="node5" class="node">
<title>Node5</title>
<g id="a_node5"><a xlink:href="class_i_v_color_swatch_control.html" target="_top" xlink:title="A control to show a color swatch of up to 9 colors.">
<polygon fill="white" stroke="#666666" points="239,-783 126,-783 126,-764 239,-764 239,-783"/>
<text text-anchor="middle" x="182.5" y="-771" font-family="Helvetica,sans-Serif" font-size="10.00">IVColorSwatchControl</text>
</a>
</g>
</g>
<!-- Node1&#45;&gt;Node5 -->
<g id="edge4" class="edge">
<title>Node1&#45;&gt;Node5</title>
<path fill="none" stroke="#63b8ff" d="M39.4,-516.44C47.54,-572.08 72.24,-721.69 107,-755.5 112.25,-760.6 118.68,-764.34 125.54,-767.07"/>
<polygon fill="#63b8ff" stroke="#63b8ff" points="42.9,-516.15 38.02,-506.74 35.97,-517.14 42.9,-516.15"/>
</g>
<!-- Node6 -->
<g id="node6" class="node">
<title>Node6</title>
<g id="a_node6"><a xlink:href="class_i_v_display_control.html" target="_top" xlink:title="A control to display a rolling graphics of historical values.">
<polygon fill="white" stroke="#666666" points="227,-746 138,-746 138,-727 227,-727 227,-746"/>
<text text-anchor="middle" x="182.5" y="-734" font-family="Helvetica,sans-Serif" font-size="10.00">IVDisplayControl</text>
</a>
</g>
</g>
<!-- Node1&#45;&gt;Node6 -->
<g id="edge5" class="edge">
<title>Node1&#45;&gt;Node6</title>
<path fill="none" stroke="#63b8ff" d="M36.68,-516.54C38.24,-560.76 48.37,-663.79 107,-718.5 115.37,-726.31 126.52,-730.9 137.64,-733.56"/>
<polygon fill="#63b8ff" stroke="#63b8ff" points="40.18,-516.7 36.46,-506.78 33.18,-516.85 40.18,-516.7"/>
</g>
<!-- Node7 -->
<g id="node7" class="node">
<title>Node7</title>
<g id="a_node7"><a xlink:href="class_i_v_group_control.html" target="_top" xlink:title="A control to draw a rectangle around a named IControl group.">
<polygon fill="white" stroke="#666666" points="224,-709 141,-709 141,-690 224,-690 224,-709"/>
<text text-anchor="middle" x="182.5" y="-697" font-family="Helvetica,sans-Serif" font-size="10.00">IVGroupControl</text>
</a>
</g>
</g>
<!-- Node1&#45;&gt;Node7 -->
<g id="edge6" class="edge">
<title>Node1&#45;&gt;Node7</title>
<path fill="none" stroke="#63b8ff" d="M38.23,-516.72C42.58,-555.49 57.44,-637.79 107,-681.5 116.28,-689.69 128.65,-694.3 140.64,-696.86"/>
<polygon fill="#63b8ff" stroke="#63b8ff" points="41.73,-516.48 37.28,-506.87 34.76,-517.16 41.73,-516.48"/>
</g>
<!-- Node8 -->
<g id="node8" class="node">
<title>Node8</title>
<g id="a_node8"><a xlink:href="class_i_v_knob_control.html" target="_top" xlink:title="A vector knob control drawn using graphics primitives.">
<polygon fill="white" stroke="#666666" points="222.5,-672 142.5,-672 142.5,-653 222.5,-653 222.5,-672"/>
<text text-anchor="middle" x="182.5" y="-660" font-family="Helvetica,sans-Serif" font-size="10.00">IVKnobControl</text>
</a>
</g>
</g>
<!-- Node1&#45;&gt;Node8 -->
<g id="edge7" class="edge">
<title>Node1&#45;&gt;Node8</title>
<path fill="none" stroke="#63b8ff" d="M40.44,-516.54C47.68,-549.09 66.24,-611.34 107,-644.5 116.91,-652.56 129.86,-657.11 142.18,-659.64"/>
<polygon fill="#63b8ff" stroke="#63b8ff" points="43.88,-515.86 38.44,-506.77 37.02,-517.27 43.88,-515.86"/>
</g>
<!-- Node9 -->
<g id="node9" class="node">
<title>Node9</title>
<g id="a_node9"><a xlink:href="class_i_v_knob_control_with_marks.html" target="_top" xlink:title=" ">
<polygon fill="white" stroke="#bfbfbf" points="245.5,-635 119.5,-635 119.5,-616 245.5,-616 245.5,-635"/>
<text text-anchor="middle" x="182.5" y="-623" font-family="Helvetica,sans-Serif" font-size="10.00">IVKnobControlWithMarks</text>
</a>
</g>
</g>
<!-- Node1&#45;&gt;Node9 -->
<g id="edge8" class="edge">
<title>Node1&#45;&gt;Node9</title>
<path fill="none" stroke="#63b8ff" d="M43.81,-516.02C53.96,-541.48 74.78,-584.35 107,-607.5 111.54,-610.76 116.59,-613.44 121.87,-615.63"/>
<polygon fill="#63b8ff" stroke="#63b8ff" points="47.13,-514.92 40.32,-506.8 40.58,-517.39 47.13,-514.92"/>
</g>
<!-- Node10 -->
<g id="node10" class="node">
<title>Node10</title>
<g id="a_node10"><a xlink:href="class_i_v_label_control.html" target="_top" xlink:title="A vector label control that can display text with a shadow.">
<polygon fill="white" stroke="#666666" points="223,-598 142,-598 142,-579 223,-579 223,-598"/>
<text text-anchor="middle" x="182.5" y="-586" font-family="Helvetica,sans-Serif" font-size="10.00">IVLabelControl</text>
</a>
</g>
</g>
<!-- Node1&#45;&gt;Node10 -->
<g id="edge9" class="edge">
<title>Node1&#45;&gt;Node10</title>
<path fill="none" stroke="#63b8ff" d="M49.26,-514.37C61.91,-531.6 82.85,-556.46 107,-570.5 117.47,-576.59 129.91,-580.62 141.59,-583.29"/>
<polygon fill="#63b8ff" stroke="#63b8ff" points="52.31,-512.63 43.68,-506.48 46.6,-516.67 52.31,-512.63"/>
</g>
<!-- Node11 -->
<g id="node11" class="node">
<title>Node11</title>
<g id="a_node11"><a xlink:href="class_i_v_menu_button_control.html" target="_top" xlink:title="A vector button that pops up a menu.">
<polygon fill="white" stroke="#666666" points="237.5,-561 127.5,-561 127.5,-542 237.5,-542 237.5,-561"/>
<text text-anchor="middle" x="182.5" y="-549" font-family="Helvetica,sans-Serif" font-size="10.00">IVMenuButtonControl</text>
</a>
</g>
</g>
<!-- Node1&#45;&gt;Node11 -->
<g id="edge10" class="edge">
<title>Node1&#45;&gt;Node11</title>
<path fill="none" stroke="#63b8ff" d="M61.88,-511.24C74.97,-518.82 91.43,-527.54 107,-533.5 115.08,-536.59 123.86,-539.28 132.46,-541.56"/>
<polygon fill="#63b8ff" stroke="#63b8ff" points="63.87,-508.35 53.48,-506.25 60.29,-514.37 63.87,-508.35"/>
</g>
<!-- Node12 -->
<g id="node12" class="node">
<title>Node12</title>
<g id="a_node12"><a xlink:href="class_i_v_number_box_control.html" target="_top" xlink:title="A &quot;meta control&quot; for a number box with an Inc/Dec button It adds several child buttons if buttons = t...">
<polygon fill="white" stroke="#666666" points="236.5,-524 128.5,-524 128.5,-505 236.5,-505 236.5,-524"/>
<text text-anchor="middle" x="182.5" y="-512" font-family="Helvetica,sans-Serif" font-size="10.00">IVNumberBoxControl</text>
</a>
</g>
</g>
<!-- Node1&#45;&gt;Node12 -->
<g id="edge11" class="edge">
<title>Node1&#45;&gt;Node12</title>
<path fill="none" stroke="#63b8ff" d="M82.45,-501.52C96.95,-503.42 113.1,-505.54 128.07,-507.5"/>
<polygon fill="#63b8ff" stroke="#63b8ff" points="83.1,-498.08 72.73,-500.25 82.19,-505.02 83.1,-498.08"/>
</g>
<!-- Node13 -->
<g id="node13" class="node">
<title>Node13</title>
<g id="a_node13"><a xlink:href="class_i_v_panel_control.html" target="_top" xlink:title="A panel control which can be styled with emboss etc.">
<polygon fill="white" stroke="#666666" points="223.5,-487 141.5,-487 141.5,-468 223.5,-468 223.5,-487"/>
<text text-anchor="middle" x="182.5" y="-475" font-family="Helvetica,sans-Serif" font-size="10.00">IVPanelControl</text>
</a>
</g>
</g>
<!-- Node1&#45;&gt;Node13 -->
<g id="edge12" class="edge">
<title>Node1&#45;&gt;Node13</title>
<path fill="none" stroke="#63b8ff" d="M82.54,-489.78C101.37,-487.45 122.95,-484.77 141.14,-482.51"/>
<polygon fill="#63b8ff" stroke="#63b8ff" points="82.23,-486.3 72.73,-491 83.09,-493.24 82.23,-486.3"/>
</g>
<!-- Node14 -->
<g id="node14" class="node">
<title>Node14</title>
<g id="a_node14"><a xlink:href="class_i_v_plot_control.html" target="_top" xlink:title="A vector plot to display functions and waveforms.">
<polygon fill="white" stroke="#666666" points="219.5,-450 145.5,-450 145.5,-431 219.5,-431 219.5,-450"/>
<text text-anchor="middle" x="182.5" y="-438" font-family="Helvetica,sans-Serif" font-size="10.00">IVPlotControl</text>
</a>
</g>
</g>
<!-- Node1&#45;&gt;Node14 -->
<g id="edge13" class="edge">
<title>Node1&#45;&gt;Node14</title>
<path fill="none" stroke="#63b8ff" d="M63.44,-479.96C76.31,-473 92.13,-465.11 107,-459.5 119.11,-454.93 132.74,-451.09 145,-448.09"/>
<polygon fill="#63b8ff" stroke="#63b8ff" points="61.77,-476.88 54.72,-484.79 65.16,-483 61.77,-476.88"/>
</g>
<!-- Node15 -->
<g id="node15" class="node">
<title>Node15</title>
<g id="a_node15"><a xlink:href="class_i_v_scope_control.html" target="_top" xlink:title="Vectorial multi&#45;channel capable oscilloscope control.">
<polygon fill="white" stroke="#666666" points="248.5,-412.5 116.5,-412.5 116.5,-382.5 248.5,-382.5 248.5,-412.5"/>
<text text-anchor="start" x="124.5" y="-400.5" font-family="Helvetica,sans-Serif" font-size="10.00">IVScopeControl&lt; MAXNC,</text>
<text text-anchor="middle" x="182.5" y="-389.5" font-family="Helvetica,sans-Serif" font-size="10.00"> MAXBUF &gt;</text>
</a>
</g>
</g>
<!-- Node1&#45;&gt;Node15 -->
<g id="edge14" class="edge">
<title>Node1&#45;&gt;Node15</title>
<path fill="none" stroke="#63b8ff" d="M50.28,-476.81C63.26,-460.41 84.09,-436.97 107,-422.5 112.77,-418.86 119.12,-415.68 125.62,-412.94"/>
<polygon fill="#63b8ff" stroke="#63b8ff" points="47.82,-474.27 44.51,-484.33 53.37,-478.53 47.82,-474.27"/>
</g>
<!-- Node16 -->
<g id="node16" class="node">
<title>Node16</title>
<g id="a_node16"><a xlink:href="class_i_v_slider_control.html" target="_top" xlink:title="A vector slider control.">
<polygon fill="white" stroke="#666666" points="223.5,-364 141.5,-364 141.5,-345 223.5,-345 223.5,-364"/>
<text text-anchor="middle" x="182.5" y="-352" font-family="Helvetica,sans-Serif" font-size="10.00">IVSliderControl</text>
</a>
</g>
</g>
<!-- Node1&#45;&gt;Node16 -->
<g id="edge15" class="edge">
<title>Node1&#45;&gt;Node16</title>
<path fill="none" stroke="#63b8ff" d="M42.66,-475.21C52.03,-447.87 72.52,-399.62 107,-373.5 116.79,-366.09 129.16,-361.55 141,-358.77"/>
<polygon fill="#63b8ff" stroke="#63b8ff" points="39.44,-473.8 39.69,-484.39 46.1,-475.96 39.44,-473.8"/>
</g>
<!-- Node17 -->
<g id="node17" class="node">
<title>Node17</title>
<g id="a_node17"><a xlink:href="class_i_v_slider_control_with_marks.html" target="_top" xlink:title=" ">
<polygon fill="white" stroke="#bfbfbf" points="246.5,-327 118.5,-327 118.5,-308 246.5,-308 246.5,-327"/>
<text text-anchor="middle" x="182.5" y="-315" font-family="Helvetica,sans-Serif" font-size="10.00">IVSliderControlWithMarks</text>
</a>
</g>
</g>
<!-- Node1&#45;&gt;Node17 -->
<g id="edge16" class="edge">
<title>Node1&#45;&gt;Node17</title>
<path fill="none" stroke="#63b8ff" d="M39.79,-474.55C46.3,-440.36 64.07,-372.78 107,-336.5 111.38,-332.8 116.4,-329.8 121.7,-327.38"/>
<polygon fill="#63b8ff" stroke="#63b8ff" points="36.41,-473.57 38.14,-484.02 43.31,-474.77 36.41,-473.57"/>
</g>
<!-- Node18 -->
<g id="node18" class="node">
<title>Node18</title>
<g id="a_node18"><a xlink:href="class_i_v_switch_control.html" target="_top" xlink:title="A vector switch control.">
<polygon fill="white" stroke="#666666" points="226,-290 139,-290 139,-271 226,-271 226,-290"/>
<text text-anchor="middle" x="182.5" y="-278" font-family="Helvetica,sans-Serif" font-size="10.00">IVSwitchControl</text>
</a>
</g>
</g>
<!-- Node1&#45;&gt;Node18 -->
<g id="edge17" class="edge">
<title>Node1&#45;&gt;Node18</title>
<path fill="none" stroke="#63b8ff" d="M37.82,-474.32C41.49,-434.1 55.32,-346.46 107,-299.5 115.69,-291.6 127.21,-286.89 138.59,-284.1"/>
<polygon fill="#63b8ff" stroke="#63b8ff" points="34.34,-473.86 37.06,-484.1 41.32,-474.4 34.34,-473.86"/>
</g>
<!-- Node21 -->
<g id="node21" class="node">
<title>Node21</title>
<g id="a_node21"><a xlink:href="class_i_v_tab_switch_control.html" target="_top" xlink:title="A vector &quot;tab&quot; multi switch control.">
<polygon fill="white" stroke="#666666" points="234.5,-253 130.5,-253 130.5,-234 234.5,-234 234.5,-253"/>
<text text-anchor="middle" x="182.5" y="-241" font-family="Helvetica,sans-Serif" font-size="10.00">IVTabSwitchControl</text>
</a>
</g>
</g>
<!-- Node1&#45;&gt;Node21 -->
<g id="edge20" class="edge">
<title>Node1&#45;&gt;Node21</title>
<path fill="none" stroke="#63b8ff" d="M36.39,-474.53C37.35,-429.01 46.28,-320.6 107,-262.5 113.46,-256.32 121.64,-252.07 130.2,-249.17"/>
<polygon fill="#63b8ff" stroke="#63b8ff" points="32.9,-474.29 36.31,-484.32 39.9,-474.35 32.9,-474.29"/>
</g>
<!-- Node23 -->
<g id="node23" class="node">
<title>Node23</title>
<g id="a_node23"><a xlink:href="class_i_v_tabbed_page_base.html" target="_top" xlink:title="A control used a the base class for a tabbed page of subcontrols.">
<polygon fill="white" stroke="#666666" points="234.5,-216 130.5,-216 130.5,-197 234.5,-197 234.5,-216"/>
<text text-anchor="middle" x="182.5" y="-204" font-family="Helvetica,sans-Serif" font-size="10.00">IVTabbedPageBase</text>
</a>
</g>
</g>
<!-- Node1&#45;&gt;Node23 -->
<g id="edge22" class="edge">
<title>Node1&#45;&gt;Node23</title>
<path fill="none" stroke="#63b8ff" d="M39.21,-474.54C47,-417.44 71.23,-261.07 107,-225.5 113.34,-219.19 121.47,-214.89 130.01,-211.97"/>
<polygon fill="#63b8ff" stroke="#63b8ff" points="35.77,-473.82 37.93,-484.19 42.71,-474.74 35.77,-473.82"/>
</g>
<!-- Node24 -->
<g id="node24" class="node">
<title>Node24</title>
<g id="a_node24"><a xlink:href="class_i_v_tabbed_pages_control.html" target="_top" xlink:title="A control to manage tabbed pages of sub controls.">
<polygon fill="white" stroke="#666666" points="241,-179 124,-179 124,-160 241,-160 241,-179"/>
<text text-anchor="middle" x="182.5" y="-167" font-family="Helvetica,sans-Serif" font-size="10.00">IVTabbedPagesControl</text>
</a>
</g>
</g>
<!-- Node1&#45;&gt;Node24 -->
<g id="edge23" class="edge">
<title>Node1&#45;&gt;Node24</title>
<path fill="none" stroke="#63b8ff" d="M38.49,-474.59C44.85,-412.32 66.61,-229.87 107,-188.5 111.76,-183.63 117.57,-179.94 123.84,-177.17"/>
<polygon fill="#63b8ff" stroke="#63b8ff" points="35.05,-473.86 37.55,-484.16 42.02,-474.55 35.05,-473.86"/>
</g>
<!-- Node25 -->
<g id="node25" class="node">
<title>Node25</title>
<g id="a_node25"><a xlink:href="class_i_v_track_control_base.html" target="_top" xlink:title="A base class for mult&#45;strip/track controls, such as multi&#45;sliders, meters Track refers to the channel...">
<polygon fill="white" stroke="#666666" points="234.5,-142 130.5,-142 130.5,-123 234.5,-123 234.5,-142"/>
<text text-anchor="middle" x="182.5" y="-130" font-family="Helvetica,sans-Serif" font-size="10.00">IVTrackControlBase</text>
</a>
</g>
</g>
<!-- Node1&#45;&gt;Node25 -->
<g id="edge24" class="edge">
<title>Node1&#45;&gt;Node25</title>
<path fill="none" stroke="#63b8ff" d="M37.95,-474.31C43.01,-406.84 62.04,-198.65 107,-151.5 113.26,-144.93 121.46,-140.51 130.11,-137.56"/>
<polygon fill="#63b8ff" stroke="#63b8ff" points="34.48,-473.79 37.26,-484.02 41.47,-474.29 34.48,-473.79"/>
</g>
<!-- Node34 -->
<g id="node34" class="node">
<title>Node34</title>
<g id="a_node34"><a xlink:href="class_i_v_x_y_pad_control.html" target="_top" xlink:title="A vector XY Pad slider control.">
<polygon fill="white" stroke="#666666" points="226.5,-105 138.5,-105 138.5,-86 226.5,-86 226.5,-105"/>
<text text-anchor="middle" x="182.5" y="-93" font-family="Helvetica,sans-Serif" font-size="10.00">IVXYPadControl</text>
</a>
</g>
</g>
<!-- Node1&#45;&gt;Node34 -->
<g id="edge34" class="edge">
<title>Node1&#45;&gt;Node34</title>
<path fill="none" stroke="#63b8ff" d="M37.49,-474.42C41.3,-402.38 57.36,-167.56 107,-114.5 115.12,-105.82 126.59,-100.88 138.11,-98.13"/>
<polygon fill="#63b8ff" stroke="#63b8ff" points="34.01,-473.88 37.01,-484.05 41,-474.23 34.01,-473.88"/>
</g>
<!-- Node19 -->
<g id="node19" class="node">
<title>Node19</title>
<g id="a_node19"><a xlink:href="class_i_v_slide_switch_control.html" target="_top" xlink:title="A switch with a slide animation when clicked.">
<polygon fill="white" stroke="#666666" points="415.5,-327 306.5,-327 306.5,-308 415.5,-308 415.5,-327"/>
<text text-anchor="middle" x="361" y="-315" font-family="Helvetica,sans-Serif" font-size="10.00">IVSlideSwitchControl</text>
</a>
</g>
</g>
<!-- Node18&#45;&gt;Node19 -->
<g id="edge18" class="edge">
<title>Node18&#45;&gt;Node19</title>
<path fill="none" stroke="#63b8ff" d="M237.27,-291.77C261.22,-296.79 289.2,-302.66 312.39,-307.52"/>
<polygon fill="#63b8ff" stroke="#63b8ff" points="238.21,-288.39 227.71,-289.77 236.78,-295.24 238.21,-288.39"/>
</g>
<!-- Node20 -->
<g id="node20" class="node">
<title>Node20</title>
<g id="a_node20"><a xlink:href="class_i_v_toggle_control.html" target="_top" xlink:title="A vector toggle control.">
<polygon fill="white" stroke="#666666" points="404,-290 318,-290 318,-271 404,-271 404,-290"/>
<text text-anchor="middle" x="361" y="-278" font-family="Helvetica,sans-Serif" font-size="10.00">IVToggleControl</text>
</a>
</g>
</g>
<!-- Node18&#45;&gt;Node20 -->
<g id="edge19" class="edge">
<title>Node18&#45;&gt;Node20</title>
<path fill="none" stroke="#63b8ff" d="M237.68,-280.5C263.4,-280.5 293.67,-280.5 317.67,-280.5"/>
<polygon fill="#63b8ff" stroke="#63b8ff" points="237.74,-277 227.74,-280.5 237.74,-284 237.74,-277"/>
</g>
<!-- Node22 -->
<g id="node22" class="node">
<title>Node22</title>
<g id="a_node22"><a xlink:href="class_i_v_radio_button_control.html" target="_top" xlink:title="A vector &quot;radio buttons&quot; switch control.">
<polygon fill="white" stroke="#666666" points="416,-253 306,-253 306,-234 416,-234 416,-253"/>
<text text-anchor="middle" x="361" y="-241" font-family="Helvetica,sans-Serif" font-size="10.00">IVRadioButtonControl</text>
</a>
</g>
</g>
<!-- Node21&#45;&gt;Node22 -->
<g id="edge21" class="edge">
<title>Node21&#45;&gt;Node22</title>
<path fill="none" stroke="#63b8ff" d="M245.81,-243.5C265.34,-243.5 286.74,-243.5 305.68,-243.5"/>
<polygon fill="#63b8ff" stroke="#63b8ff" points="246.06,-240 236.06,-243.5 246.06,-247 246.06,-240"/>
</g>
<!-- Node26 -->
<g id="node26" class="node">
<title>Node26</title>
<g id="a_node26"><a xlink:href="class_i_v_meter_control.html" target="_top" xlink:title=" ">
<polygon fill="white" stroke="#666666" points="428,-216 294,-216 294,-197 428,-197 428,-216"/>
<text text-anchor="middle" x="361" y="-204" font-family="Helvetica,sans-Serif" font-size="10.00">IVMeterControl&lt; MAXNC &gt;</text>
</a>
</g>
</g>
<!-- Node25&#45;&gt;Node26 -->
<g id="edge25" class="edge">
<title>Node25&#45;&gt;Node26</title>
<path fill="none" stroke="#63b8ff" d="M245.21,-145.32C249.66,-147.12 253.97,-149.17 258,-151.5 277.86,-162.99 274.23,-176.85 294,-188.5 299.42,-191.7 305.43,-194.34 311.54,-196.53"/>
<polygon fill="#63b8ff" stroke="#63b8ff" points="246.69,-142.13 236.09,-142.07 244.33,-148.72 246.69,-142.13"/>
</g>
<!-- Node28 -->
<g id="node28" class="node">
<title>Node28</title>
<g id="a_node28"><a xlink:href="class_i_v_meter_control.html" target="_top" xlink:title=" ">
<polygon fill="white" stroke="#666666" points="413,-179 309,-179 309,-160 413,-160 413,-179"/>
<text text-anchor="middle" x="361" y="-167" font-family="Helvetica,sans-Serif" font-size="10.00">IVMeterControl&lt; 1 &gt;</text>
</a>
</g>
</g>
<!-- Node25&#45;&gt;Node28 -->
<g id="edge27" class="edge">
<title>Node25&#45;&gt;Node28</title>
<path fill="none" stroke="#63b8ff" d="M241.79,-144.72C264.76,-149.53 290.79,-154.99 312.57,-159.56"/>
<polygon fill="#63b8ff" stroke="#63b8ff" points="242.79,-141.35 232.28,-142.73 241.35,-148.2 242.79,-141.35"/>
</g>
<!-- Node29 -->
<g id="node29" class="node">
<title>Node29</title>
<g id="a_node29"><a xlink:href="class_i_v_multi_slider_control.html" target="_top" xlink:title=" ">
<polygon fill="white" stroke="#666666" points="423.5,-142 298.5,-142 298.5,-123 423.5,-123 423.5,-142"/>
<text text-anchor="middle" x="361" y="-130" font-family="Helvetica,sans-Serif" font-size="10.00">IVMultiSliderControl&lt; 1 &gt;</text>
</a>
</g>
</g>
<!-- Node25&#45;&gt;Node29 -->
<g id="edge28" class="edge">
<title>Node25&#45;&gt;Node29</title>
<path fill="none" stroke="#63b8ff" d="M246.01,-132.5C262.93,-132.5 281.23,-132.5 298.11,-132.5"/>
<polygon fill="#63b8ff" stroke="#63b8ff" points="246.06,-129 236.06,-132.5 246.06,-136 246.06,-129"/>
</g>
<!-- Node30 -->
<g id="node30" class="node">
<title>Node30</title>
<g id="a_node30"><a xlink:href="class_i_v_meter_control.html" target="_top" xlink:title="Vectorial multi&#45;channel capable meter control, linear or log response.">
<polygon fill="white" stroke="#666666" points="428,-105 294,-105 294,-86 428,-86 428,-105"/>
<text text-anchor="middle" x="361" y="-93" font-family="Helvetica,sans-Serif" font-size="10.00">IVMeterControl&lt; MAXNC &gt;</text>
</a>
</g>
</g>
<!-- Node25&#45;&gt;Node30 -->
<g id="edge29" class="edge">
<title>Node25&#45;&gt;Node30</title>
<path fill="none" stroke="#63b8ff" d="M241.79,-120.28C264.76,-115.47 290.79,-110.01 312.57,-105.44"/>
<polygon fill="#63b8ff" stroke="#63b8ff" points="241.35,-116.8 232.28,-122.27 242.79,-123.65 241.35,-116.8"/>
</g>
<!-- Node31 -->
<g id="node31" class="node">
<title>Node31</title>
<g id="a_node31"><a xlink:href="class_i_v_multi_slider_control.html" target="_top" xlink:title="A vectorial multi&#45;slider control.">
<polygon fill="white" stroke="#666666" points="412.5,-67.5 309.5,-67.5 309.5,-37.5 412.5,-37.5 412.5,-67.5"/>
<text text-anchor="start" x="317.5" y="-55.5" font-family="Helvetica,sans-Serif" font-size="10.00">IVMultiSliderControl</text>
<text text-anchor="middle" x="361" y="-44.5" font-family="Helvetica,sans-Serif" font-size="10.00">&lt; MAXNC &gt;</text>
</a>
</g>
</g>
<!-- Node25&#45;&gt;Node31 -->
<g id="edge31" class="edge">
<title>Node25&#45;&gt;Node31</title>
<path fill="none" stroke="#63b8ff" d="M245.24,-120.61C249.68,-118.85 253.98,-116.82 258,-114.5 278.13,-102.84 274.55,-89.26 294,-76.5 298.89,-73.29 304.27,-70.44 309.78,-67.93"/>
<polygon fill="#63b8ff" stroke="#63b8ff" points="244.43,-117.19 236.14,-123.78 246.73,-123.8 244.43,-117.19"/>
</g>
<!-- Node33 -->
<g id="node33" class="node">
<title>Node33</title>
<g id="a_node33"><a xlink:href="class_i_v_range_slider_control.html" target="_top" xlink:title="A vector range slider control, with two handles.">
<polygon fill="white" stroke="#666666" points="416,-19 306,-19 306,0 416,0 416,-19"/>
<text text-anchor="middle" x="361" y="-7" font-family="Helvetica,sans-Serif" font-size="10.00">IVRangeSliderControl</text>
</a>
</g>
</g>
<!-- Node25&#45;&gt;Node33 -->
<g id="edge33" class="edge">
<title>Node25&#45;&gt;Node33</title>
<path fill="none" stroke="#63b8ff" d="M245.13,-122.73C249.77,-120.5 254.14,-117.79 258,-114.5 289.54,-87.63 263.05,-56.05 294,-28.5 298.19,-24.77 303.06,-21.78 308.23,-19.36"/>
<polygon fill="#63b8ff" stroke="#63b8ff" points="244.07,-119.39 236.06,-126.33 246.64,-125.9 244.07,-119.39"/>
</g>
<!-- Node27 -->
<g id="node27" class="node">
<title>Node27</title>
<g id="a_node27"><a xlink:href="class_i_v_peak_avg_meter_control.html" target="_top" xlink:title=" ">
<polygon fill="white" stroke="#666666" points="607,-160 464,-160 464,-141 607,-141 607,-160"/>
<text text-anchor="middle" x="535.5" y="-148" font-family="Helvetica,sans-Serif" font-size="10.00">IVPeakAvgMeterControl&lt; 1 &gt;</text>
</a>
</g>
</g>
<!-- Node26&#45;&gt;Node27 -->
<g id="edge26" class="edge">
<title>Node26&#45;&gt;Node27</title>
<path fill="none" stroke="#63b8ff" d="M411.31,-193.5C416.95,-191.88 422.61,-190.19 428,-188.5 455.72,-179.79 486.98,-168.45 508.43,-160.43"/>
<polygon fill="#63b8ff" stroke="#63b8ff" points="410.67,-190.04 401.99,-196.11 412.57,-196.78 410.67,-190.04"/>
</g>
<!-- Node30&#45;&gt;Node27 -->
<g id="edge30" class="edge">
<title>Node30&#45;&gt;Node27</title>
<path fill="none" stroke="#63b8ff" d="M408.56,-108.62C415.1,-110.54 421.73,-112.54 428,-114.5 454.64,-122.83 484.75,-133.09 506.14,-140.52"/>
<polygon fill="#63b8ff" stroke="#63b8ff" points="409.74,-105.31 399.17,-105.88 407.79,-112.04 409.74,-105.31"/>
</g>
<!-- Node32 -->
<g id="node32" class="node">
<title>Node32</title>
<g id="a_node32"><a xlink:href="class_i_v_multi_toggle_control.html" target="_top" xlink:title="A vectorial multi&#45;toggle control, could be used for a trigger in a step sequencer or tarnce gate.">
<polygon fill="white" stroke="#666666" points="589,-67.5 482,-67.5 482,-37.5 589,-37.5 589,-67.5"/>
<text text-anchor="start" x="490" y="-55.5" font-family="Helvetica,sans-Serif" font-size="10.00">IVMultiToggleControl</text>
<text text-anchor="middle" x="535.5" y="-44.5" font-family="Helvetica,sans-Serif" font-size="10.00">&lt; MAXNC &gt;</text>
</a>
</g>
</g>
<!-- Node31&#45;&gt;Node32 -->
<g id="edge32" class="edge">
<title>Node31&#45;&gt;Node32</title>
<path fill="none" stroke="#63b8ff" d="M424.28,-52.5C443.08,-52.5 463.52,-52.5 481.65,-52.5"/>
<polygon fill="#63b8ff" stroke="#63b8ff" points="424.34,-49 414.34,-52.5 424.34,-56 424.34,-49"/>
</g>
</g>
</svg>
