<?xml version="1.0" encoding="UTF-8" standalone="no"?>
<!DOCTYPE svg PUBLIC "-//W3C//DTD SVG 1.1//EN"
 "http://www.w3.org/Graphics/SVG/1.1/DTD/svg11.dtd">
<!-- Generated by graphviz version 7.0.5 (20221223.1930)
 -->
<!-- Title: ITextControl Pages: 1 -->
<svg width="345pt" height="323pt"
 viewBox="0.00 0.00 345.00 323.00" xmlns="http://www.w3.org/2000/svg" xmlns:xlink="http://www.w3.org/1999/xlink">
<g id="graph0" class="graph" transform="scale(1 1) rotate(0) translate(4 319)">
<title>ITextControl</title>
<!-- Node1 -->
<g id="node1" class="node">
<title>Node1</title>
<g id="a_node1"><a xlink:title="A basic control to display some text.">
<polygon fill="#999999" stroke="#666666" points="155,-167 86,-167 86,-148 155,-148 155,-167"/>
<text text-anchor="middle" x="120.5" y="-155" font-family="Helvetica,sans-Serif" font-size="10.00">ITextControl</text>
</a>
</g>
</g>
<!-- Node3 -->
<g id="node3" class="node">
<title>Node3</title>
<g id="a_node3"><a xlink:href="class_i_b_text_control.html" target="_top" xlink:title="A control to display text using a monospace bitmap font.">
<polygon fill="white" stroke="#666666" points="302,-315 226,-315 226,-296 302,-296 302,-315"/>
<text text-anchor="middle" x="264" y="-303" font-family="Helvetica,sans-Serif" font-size="10.00">IBTextControl</text>
</a>
</g>
</g>
<!-- Node1&#45;&gt;Node3 -->
<g id="edge2" class="edge">
<title>Node1&#45;&gt;Node3</title>
<path fill="none" stroke="#63b8ff" d="M126.85,-178.3C135.4,-207.29 154.98,-259.4 191,-287.5 200.85,-295.19 213.58,-299.63 225.58,-302.19"/>
<polygon fill="#63b8ff" stroke="#63b8ff" points="130.29,-177.6 124.25,-168.9 123.54,-179.47 130.29,-177.6"/>
</g>
<!-- Node4 -->
<g id="node4" class="node">
<title>Node4</title>
<g id="a_node4"><a xlink:href="class_i_caption_control.html" target="_top" xlink:title="A control to display the textual representation of a parameter.">
<polygon fill="white" stroke="#666666" points="305.5,-278 222.5,-278 222.5,-259 305.5,-259 305.5,-278"/>
<text text-anchor="middle" x="264" y="-266" font-family="Helvetica,sans-Serif" font-size="10.00">ICaptionControl</text>
</a>
</g>
</g>
<!-- Node1&#45;&gt;Node4 -->
<g id="edge3" class="edge">
<title>Node1&#45;&gt;Node4</title>
<path fill="none" stroke="#63b8ff" d="M131.22,-177.63C142.58,-198.99 163.4,-232.14 191,-250.5 200.23,-256.64 211.38,-260.68 222.12,-263.35"/>
<polygon fill="#63b8ff" stroke="#63b8ff" points="134.36,-176.09 126.71,-168.76 128.12,-179.26 134.36,-176.09"/>
</g>
<!-- Node5 -->
<g id="node5" class="node">
<title>Node5</title>
<g id="a_node5"><a xlink:href="class_i_editable_text_control.html" target="_top" xlink:title="A basic control to display some editable text.">
<polygon fill="white" stroke="#666666" points="316,-241 212,-241 212,-222 316,-222 316,-241"/>
<text text-anchor="middle" x="264" y="-229" font-family="Helvetica,sans-Serif" font-size="10.00">IEditableTextControl</text>
</a>
</g>
</g>
<!-- Node1&#45;&gt;Node5 -->
<g id="edge4" class="edge">
<title>Node1&#45;&gt;Node5</title>
<path fill="none" stroke="#63b8ff" d="M139.03,-175.26C152.24,-187.68 171.39,-203.74 191,-213.5 197.46,-216.71 204.54,-219.38 211.66,-221.59"/>
<polygon fill="#63b8ff" stroke="#63b8ff" points="141.59,-172.87 131.98,-168.41 136.71,-177.89 141.59,-172.87"/>
</g>
<!-- Node6 -->
<g id="node6" class="node">
<title>Node6</title>
<g id="a_node6"><a xlink:href="class_i_r_t_text_control.html" target="_top" xlink:title="A control to display some text in the UI, driven by values in the RT audio thread.">
<polygon fill="white" stroke="#666666" points="337,-204 191,-204 191,-185 337,-185 337,-204"/>
<text text-anchor="middle" x="264" y="-192" font-family="Helvetica,sans-Serif" font-size="10.00">IRTTextControl&lt; MAXNC, T &gt;</text>
</a>
</g>
</g>
<!-- Node1&#45;&gt;Node6 -->
<g id="edge5" class="edge">
<title>Node1&#45;&gt;Node6</title>
<path fill="none" stroke="#63b8ff" d="M166.32,-169.91C174.52,-172.14 183.01,-174.41 191,-176.5 201.22,-179.17 212.28,-181.98 222.6,-184.56"/>
<polygon fill="#63b8ff" stroke="#63b8ff" points="167.42,-166.58 156.86,-167.32 165.58,-173.33 167.42,-166.58"/>
</g>
<!-- Node7 -->
<g id="node7" class="node">
<title>Node7</title>
<g id="a_node7"><a xlink:href="class_i_text_toggle_control.html" target="_top" xlink:title="A control to toggle between two text strings on click.">
<polygon fill="white" stroke="#666666" points="313,-167 215,-167 215,-148 313,-148 313,-167"/>
<text text-anchor="middle" x="264" y="-155" font-family="Helvetica,sans-Serif" font-size="10.00">ITextToggleControl</text>
</a>
</g>
</g>
<!-- Node1&#45;&gt;Node7 -->
<g id="edge6" class="edge">
<title>Node1&#45;&gt;Node7</title>
<path fill="none" stroke="#63b8ff" d="M166.68,-157.5C181.98,-157.5 199.13,-157.5 214.67,-157.5"/>
<polygon fill="#63b8ff" stroke="#63b8ff" points="166.91,-154 156.91,-157.5 166.91,-161 166.91,-154"/>
</g>
<!-- Node8 -->
<g id="node8" class="node">
<title>Node8</title>
<g id="a_node8"><a xlink:href="class_i_u_r_l_control.html" target="_top" xlink:title="A control to show a clickable URL, that changes color after clicking.">
<polygon fill="white" stroke="#666666" points="299.5,-130 228.5,-130 228.5,-111 299.5,-111 299.5,-130"/>
<text text-anchor="middle" x="264" y="-118" font-family="Helvetica,sans-Serif" font-size="10.00">IURLControl</text>
</a>
</g>
</g>
<!-- Node1&#45;&gt;Node8 -->
<g id="edge7" class="edge">
<title>Node1&#45;&gt;Node8</title>
<path fill="none" stroke="#63b8ff" d="M166.32,-145.09C174.52,-142.86 183.01,-140.59 191,-138.5 203.09,-135.34 216.36,-131.99 228.17,-129.04"/>
<polygon fill="#63b8ff" stroke="#63b8ff" points="165.58,-141.67 156.86,-147.68 167.42,-148.42 165.58,-141.67"/>
</g>
<!-- Node9 -->
<g id="node9" class="node">
<title>Node9</title>
<g id="a_node9"><a xlink:href="class_i_v_label_control.html" target="_top" xlink:title="A vector label control that can display text with a shadow.">
<polygon fill="white" stroke="#666666" points="304.5,-93 223.5,-93 223.5,-74 304.5,-74 304.5,-93"/>
<text text-anchor="middle" x="264" y="-81" font-family="Helvetica,sans-Serif" font-size="10.00">IVLabelControl</text>
</a>
</g>
</g>
<!-- Node1&#45;&gt;Node9 -->
<g id="edge8" class="edge">
<title>Node1&#45;&gt;Node9</title>
<path fill="none" stroke="#63b8ff" d="M139.03,-139.74C152.24,-127.32 171.39,-111.26 191,-101.5 200.92,-96.56 212.3,-92.91 223.04,-90.24"/>
<polygon fill="#63b8ff" stroke="#63b8ff" points="136.71,-137.11 131.98,-146.59 141.59,-142.13 136.71,-137.11"/>
</g>
<!-- Node10 -->
<g id="node10" class="node">
<title>Node10</title>
<g id="a_node10"><a xlink:href="class_place_holder.html" target="_top" xlink:title="A control to use as a placeholder during development.">
<polygon fill="white" stroke="#666666" points="299,-56 229,-56 229,-37 299,-37 299,-56"/>
<text text-anchor="middle" x="264" y="-44" font-family="Helvetica,sans-Serif" font-size="10.00">PlaceHolder</text>
</a>
</g>
</g>
<!-- Node1&#45;&gt;Node10 -->
<g id="edge9" class="edge">
<title>Node1&#45;&gt;Node10</title>
<path fill="none" stroke="#63b8ff" d="M131.22,-137.37C142.58,-116.01 163.4,-82.86 191,-64.5 202.16,-57.08 216.13,-52.72 228.79,-50.15"/>
<polygon fill="#63b8ff" stroke="#63b8ff" points="128.12,-135.74 126.71,-146.24 134.36,-138.91 128.12,-135.74"/>
</g>
<!-- Node11 -->
<g id="node11" class="node">
<title>Node11</title>
<g id="a_node11"><a xlink:href="class_test_gestures_control.html" target="_top" xlink:title="Control to test multi gesture recognizers.">
<polygon fill="white" stroke="#666666" points="317.5,-19 210.5,-19 210.5,0 317.5,0 317.5,-19"/>
<text text-anchor="middle" x="264" y="-7" font-family="Helvetica,sans-Serif" font-size="10.00">TestGesturesControl</text>
</a>
</g>
</g>
<!-- Node1&#45;&gt;Node11 -->
<g id="edge10" class="edge">
<title>Node1&#45;&gt;Node11</title>
<path fill="none" stroke="#63b8ff" d="M126.85,-136.7C135.4,-107.71 154.98,-55.6 191,-27.5 196.69,-23.06 203.34,-19.7 210.25,-17.17"/>
<polygon fill="#63b8ff" stroke="#63b8ff" points="123.54,-135.53 124.25,-146.1 130.29,-137.4 123.54,-135.53"/>
</g>
<!-- Node2 -->
<g id="node2" class="node">
<title>Node2</title>
<g id="a_node2"><a xlink:href="class_i_control.html" target="_top" xlink:title="The lowest level base class of an IGraphics control.">
<polygon fill="white" stroke="#666666" points="50,-167 0,-167 0,-148 50,-148 50,-167"/>
<text text-anchor="middle" x="25" y="-155" font-family="Helvetica,sans-Serif" font-size="10.00">IControl</text>
</a>
</g>
</g>
<!-- Node2&#45;&gt;Node1 -->
<g id="edge1" class="edge">
<title>Node2&#45;&gt;Node1</title>
<path fill="none" stroke="#63b8ff" d="M61.58,-157.5C69.47,-157.5 77.82,-157.5 85.64,-157.5"/>
<polygon fill="#63b8ff" stroke="#63b8ff" points="61.59,-154 51.59,-157.5 61.59,-161 61.59,-154"/>
</g>
</g>
</svg>
