<?xml version="1.0" encoding="UTF-8" standalone="no"?>
<!DOCTYPE svg PUBLIC "-//W3C//DTD SVG 1.1//EN"
 "http://www.w3.org/Graphics/SVG/1.1/DTD/svg11.dtd">
<!-- Generated by graphviz version 2.36.0 (20140111.2315)
 -->
<!-- Title: IVMultiSliderControl&lt; MAXNC &gt; Pages: 1 -->
<svg width="147pt" height="152pt"
 viewBox="0.00 0.00 147.00 152.00" xmlns="http://www.w3.org/2000/svg" xmlns:xlink="http://www.w3.org/1999/xlink">
<g id="graph0" class="graph" transform="scale(1 1) rotate(0) translate(4 148)">
<title>IVMultiSliderControl&lt; MAXNC &gt;</title>
<polygon fill="white" stroke="none" points="-4,4 -4,-148 143,-148 143,4 -4,4"/>
<!-- Node1 -->
<g id="node1" class="node"><title>Node1</title>
<polygon fill="#bfbfbf" stroke="black" points="12,-1 12,-31 116,-31 116,-1 12,-1"/>
<text text-anchor="start" x="20" y="-19" font-family="Helvetica,sans-Serif" font-size="10.00">IVMultiSliderControl</text>
<text text-anchor="middle" x="64" y="-8" font-family="Helvetica,sans-Serif" font-size="10.00">&lt; MAXNC &gt;</text>
</g>
<!-- Node2 -->
<g id="node2" class="node"><title>Node2</title>
<g id="a_node2"><a xlink:href="class_i_v_track_control_base.html" target="_top" xlink:title="A base class for mult&#45;strip/track controls, such as multi&#45;sliders, meters. ">
<polygon fill="white" stroke="black" points="11.5,-68.5 11.5,-87.5 116.5,-87.5 116.5,-68.5 11.5,-68.5"/>
<text text-anchor="middle" x="64" y="-75.5" font-family="Helvetica,sans-Serif" font-size="10.00">IVTrackControlBase</text>
</a>
</g>
</g>
<!-- Node2&#45;&gt;Node1 -->
<g id="edge1" class="edge"><title>Node2&#45;&gt;Node1</title>
<path fill="none" stroke="midnightblue" d="M64,-58.3707C64,-49.5849 64,-39.2721 64,-31.1408"/>
<polygon fill="midnightblue" stroke="midnightblue" points="60.5001,-58.4034 64,-68.4035 67.5001,-58.4035 60.5001,-58.4034"/>
</g>
<!-- Node3 -->
<g id="node3" class="node"><title>Node3</title>
<g id="a_node3"><a xlink:href="class_i_control.html" target="_top" xlink:title="The lowest level base class of an IGraphics control. ">
<polygon fill="white" stroke="black" points="-0.5,-124.5 -0.5,-143.5 50.5,-143.5 50.5,-124.5 -0.5,-124.5"/>
<text text-anchor="middle" x="25" y="-131.5" font-family="Helvetica,sans-Serif" font-size="10.00">IControl</text>
</a>
</g>
</g>
<!-- Node3&#45;&gt;Node2 -->
<g id="edge2" class="edge"><title>Node3&#45;&gt;Node2</title>
<path fill="none" stroke="midnightblue" d="M37.3822,-115.855C44.1354,-106.505 52.2086,-95.3265 57.6798,-87.7511"/>
<polygon fill="midnightblue" stroke="midnightblue" points="34.4576,-113.927 31.4401,-124.083 40.1324,-118.025 34.4576,-113.927"/>
</g>
<!-- Node4 -->
<g id="node4" class="node"><title>Node4</title>
<g id="a_node4"><a xlink:href="class_i_vector_base.html" target="_top" xlink:title="A base interface to be combined with IControl for vectorial controls &quot;IVControls&quot;, in order for them to share a common set of colors. ">
<polygon fill="white" stroke="black" points="68.5,-124.5 68.5,-143.5 139.5,-143.5 139.5,-124.5 68.5,-124.5"/>
<text text-anchor="middle" x="104" y="-131.5" font-family="Helvetica,sans-Serif" font-size="10.00">IVectorBase</text>
</a>
</g>
</g>
<!-- Node4&#45;&gt;Node2 -->
<g id="edge3" class="edge"><title>Node4&#45;&gt;Node2</title>
<path fill="none" stroke="midnightblue" d="M91.3003,-115.855C84.374,-106.505 76.0937,-95.3265 70.4823,-87.7511"/>
<polygon fill="midnightblue" stroke="midnightblue" points="88.63,-118.131 97.3948,-124.083 94.255,-113.964 88.63,-118.131"/>
</g>
</g>
</svg>
