<?xml version="1.0" encoding="UTF-8" standalone="no"?>
<!DOCTYPE svg PUBLIC "-//W3C//DTD SVG 1.1//EN"
 "http://www.w3.org/Graphics/SVG/1.1/DTD/svg11.dtd">
<!-- Generated by graphviz version 7.0.5 (20221223.1930)
 -->
<!-- Title: IVectorBase Pages: 1 -->
<svg width="615pt" height="865pt"
 viewBox="0.00 0.00 615.00 865.00" xmlns="http://www.w3.org/2000/svg" xmlns:xlink="http://www.w3.org/1999/xlink">
<g id="graph0" class="graph" transform="scale(1 1) rotate(0) translate(4 861)">
<title>IVectorBase</title>
<!-- Node1 -->
<g id="node1" class="node">
<title>Node1</title>
<g id="a_node1"><a xlink:title="A base interface to be combined with IControl for vectorial controls &quot;IVControls&quot;,...">
<polygon fill="#999999" stroke="#666666" points="71,-487 0,-487 0,-468 71,-468 71,-487"/>
<text text-anchor="middle" x="35.5" y="-475" font-family="Helvetica,sans-Serif" font-size="10.00">IVectorBase</text>
</a>
</g>
</g>
<!-- Node2 -->
<g id="node2" class="node">
<title>Node2</title>
<g id="a_node2"><a xlink:href="class_i_f_p_s_display_control.html" target="_top" xlink:title="Performance display meter, based on code from NanoVG This is a special control that lives outside the...">
<polygon fill="white" stroke="#666666" points="233,-857 132,-857 132,-838 233,-838 233,-857"/>
<text text-anchor="middle" x="182.5" y="-845" font-family="Helvetica,sans-Serif" font-size="10.00">IFPSDisplayControl</text>
</a>
</g>
</g>
<!-- Node1&#45;&gt;Node2 -->
<g id="edge1" class="edge">
<title>Node1&#45;&gt;Node2</title>
<path fill="none" stroke="#63b8ff" d="M37.83,-498.74C42.54,-567.36 60.74,-781.38 107,-829.5 113.64,-836.41 122.44,-840.85 131.65,-843.67"/>
<polygon fill="#63b8ff" stroke="#63b8ff" points="41.33,-498.63 37.18,-488.88 34.34,-499.09 41.33,-498.63"/>
</g>
<!-- Node3 -->
<g id="node3" class="node">
<title>Node3</title>
<g id="a_node3"><a xlink:href="class_i_v_baked_preset_manager_control.html" target="_top" xlink:title="A &quot;meta control&quot; for a &quot;preset manager&quot; for &quot;baked in&quot; factory presets It adds several child buttons.">
<polygon fill="white" stroke="#666666" points="258,-820 107,-820 107,-801 258,-801 258,-820"/>
<text text-anchor="middle" x="182.5" y="-808" font-family="Helvetica,sans-Serif" font-size="10.00">IVBakedPresetManagerControl</text>
</a>
</g>
</g>
<!-- Node1&#45;&gt;Node3 -->
<g id="edge2" class="edge">
<title>Node1&#45;&gt;Node3</title>
<path fill="none" stroke="#63b8ff" d="M38.35,-498.55C44.35,-562.09 65.37,-750.16 107,-792.5 110.17,-795.73 113.82,-798.41 117.75,-800.65"/>
<polygon fill="#63b8ff" stroke="#63b8ff" points="41.85,-498.43 37.46,-488.79 34.88,-499.07 41.85,-498.43"/>
</g>
<!-- Node4 -->
<g id="node4" class="node">
<title>Node4</title>
<g id="a_node4"><a xlink:href="class_i_v_button_control.html" target="_top" xlink:title="A vector button/momentary switch control.">
<polygon fill="white" stroke="#666666" points="225.5,-783 139.5,-783 139.5,-764 225.5,-764 225.5,-783"/>
<text text-anchor="middle" x="182.5" y="-771" font-family="Helvetica,sans-Serif" font-size="10.00">IVButtonControl</text>
</a>
</g>
</g>
<!-- Node1&#45;&gt;Node4 -->
<g id="edge3" class="edge">
<title>Node1&#45;&gt;Node4</title>
<path fill="none" stroke="#63b8ff" d="M39.05,-498.71C46.49,-557.22 70.05,-718.97 107,-755.5 115.61,-764.01 127.51,-768.75 139.28,-771.32"/>
<polygon fill="#63b8ff" stroke="#63b8ff" points="42.52,-498.3 37.82,-488.81 35.57,-499.16 42.52,-498.3"/>
</g>
<!-- Node5 -->
<g id="node5" class="node">
<title>Node5</title>
<g id="a_node5"><a xlink:href="class_i_v_color_swatch_control.html" target="_top" xlink:title="A control to show a color swatch of up to 9 colors.">
<polygon fill="white" stroke="#666666" points="239,-746 126,-746 126,-727 239,-727 239,-746"/>
<text text-anchor="middle" x="182.5" y="-734" font-family="Helvetica,sans-Serif" font-size="10.00">IVColorSwatchControl</text>
</a>
</g>
</g>
<!-- Node1&#45;&gt;Node5 -->
<g id="edge4" class="edge">
<title>Node1&#45;&gt;Node5</title>
<path fill="none" stroke="#63b8ff" d="M36.09,-498.29C36.35,-544.88 43.85,-658.28 107,-718.5 112.3,-723.55 118.76,-727.26 125.63,-729.98"/>
<polygon fill="#63b8ff" stroke="#63b8ff" points="39.58,-498.56 36.15,-488.53 32.58,-498.51 39.58,-498.56"/>
</g>
<!-- Node6 -->
<g id="node6" class="node">
<title>Node6</title>
<g id="a_node6"><a xlink:href="class_i_v_disk_preset_manager_control.html" target="_top" xlink:title="A &quot;meta control&quot; for a &quot;preset manager&quot; for disk&#45;based preset files It adds several child buttons.">
<polygon fill="white" stroke="#666666" points="254,-709 111,-709 111,-690 254,-690 254,-709"/>
<text text-anchor="middle" x="182.5" y="-697" font-family="Helvetica,sans-Serif" font-size="10.00">IVDiskPresetManagerControl</text>
</a>
</g>
</g>
<!-- Node1&#45;&gt;Node6 -->
<g id="edge5" class="edge">
<title>Node1&#45;&gt;Node6</title>
<path fill="none" stroke="#63b8ff" d="M37.42,-498.73C40.4,-540.27 53.08,-632.51 107,-681.5 110.55,-684.72 114.57,-687.39 118.86,-689.6"/>
<polygon fill="#63b8ff" stroke="#63b8ff" points="40.92,-498.64 36.84,-488.86 33.93,-499.05 40.92,-498.64"/>
</g>
<!-- Node7 -->
<g id="node7" class="node">
<title>Node7</title>
<g id="a_node7"><a xlink:href="class_i_v_display_control.html" target="_top" xlink:title="A control to display a rolling graphics of historical values.">
<polygon fill="white" stroke="#666666" points="227,-672 138,-672 138,-653 227,-653 227,-672"/>
<text text-anchor="middle" x="182.5" y="-660" font-family="Helvetica,sans-Serif" font-size="10.00">IVDisplayControl</text>
</a>
</g>
</g>
<!-- Node1&#45;&gt;Node7 -->
<g id="edge6" class="edge">
<title>Node1&#45;&gt;Node7</title>
<path fill="none" stroke="#63b8ff" d="M39.24,-498.53C45.04,-534.15 61.93,-606.21 107,-644.5 115.62,-651.82 126.73,-656.27 137.72,-658.94"/>
<polygon fill="#63b8ff" stroke="#63b8ff" points="42.71,-498.06 37.8,-488.68 35.79,-499.08 42.71,-498.06"/>
</g>
<!-- Node8 -->
<g id="node8" class="node">
<title>Node8</title>
<g id="a_node8"><a xlink:href="class_i_v_group_control.html" target="_top" xlink:title="A control to draw a rectangle around a named IControl group.">
<polygon fill="white" stroke="#666666" points="224,-635 141,-635 141,-616 224,-616 224,-635"/>
<text text-anchor="middle" x="182.5" y="-623" font-family="Helvetica,sans-Serif" font-size="10.00">IVGroupControl</text>
</a>
</g>
</g>
<!-- Node1&#45;&gt;Node8 -->
<g id="edge7" class="edge">
<title>Node1&#45;&gt;Node8</title>
<path fill="none" stroke="#63b8ff" d="M41.98,-498.35C50.73,-527.38 70.67,-579.57 107,-607.5 116.6,-614.88 128.79,-619.29 140.51,-621.9"/>
<polygon fill="#63b8ff" stroke="#63b8ff" points="45.4,-497.59 39.32,-488.92 38.67,-499.49 45.4,-497.59"/>
</g>
<!-- Node9 -->
<g id="node9" class="node">
<title>Node9</title>
<g id="a_node9"><a xlink:href="class_i_v_knob_control.html" target="_top" xlink:title="A vector knob control drawn using graphics primitives.">
<polygon fill="white" stroke="#666666" points="222.5,-598 142.5,-598 142.5,-579 222.5,-579 222.5,-598"/>
<text text-anchor="middle" x="182.5" y="-586" font-family="Helvetica,sans-Serif" font-size="10.00">IVKnobControl</text>
</a>
</g>
</g>
<!-- Node1&#45;&gt;Node9 -->
<g id="edge8" class="edge">
<title>Node1&#45;&gt;Node9</title>
<path fill="none" stroke="#63b8ff" d="M46.25,-497.38C57.78,-518.77 79,-552.17 107,-570.5 117.46,-577.35 130.29,-581.6 142.33,-584.23"/>
<polygon fill="#63b8ff" stroke="#63b8ff" points="49.5,-496.06 41.81,-488.78 43.28,-499.27 49.5,-496.06"/>
</g>
<!-- Node10 -->
<g id="node10" class="node">
<title>Node10</title>
<g id="a_node10"><a xlink:href="class_i_v_label_control.html" target="_top" xlink:title="A vector label control that can display text with a shadow.">
<polygon fill="white" stroke="#666666" points="223,-561 142,-561 142,-542 223,-542 223,-561"/>
<text text-anchor="middle" x="182.5" y="-549" font-family="Helvetica,sans-Serif" font-size="10.00">IVLabelControl</text>
</a>
</g>
</g>
<!-- Node1&#45;&gt;Node10 -->
<g id="edge9" class="edge">
<title>Node1&#45;&gt;Node10</title>
<path fill="none" stroke="#63b8ff" d="M54.3,-495.3C67.72,-507.74 87.14,-523.81 107,-533.5 117.76,-538.75 130.16,-542.54 141.72,-545.24"/>
<polygon fill="#63b8ff" stroke="#63b8ff" points="56.78,-492.82 47.14,-488.43 51.93,-497.88 56.78,-492.82"/>
</g>
<!-- Node11 -->
<g id="node11" class="node">
<title>Node11</title>
<g id="a_node11"><a xlink:href="class_i_v_menu_button_control.html" target="_top" xlink:title="A vector button that pops up a menu.">
<polygon fill="white" stroke="#666666" points="237.5,-524 127.5,-524 127.5,-505 237.5,-505 237.5,-524"/>
<text text-anchor="middle" x="182.5" y="-512" font-family="Helvetica,sans-Serif" font-size="10.00">IVMenuButtonControl</text>
</a>
</g>
</g>
<!-- Node1&#45;&gt;Node11 -->
<g id="edge10" class="edge">
<title>Node1&#45;&gt;Node11</title>
<path fill="none" stroke="#63b8ff" d="M82.22,-490.01C90.46,-492.21 98.98,-494.45 107,-496.5 117.44,-499.17 128.74,-501.95 139.29,-504.51"/>
<polygon fill="#63b8ff" stroke="#63b8ff" points="83.26,-486.66 72.7,-487.45 81.45,-493.42 83.26,-486.66"/>
</g>
<!-- Node12 -->
<g id="node12" class="node">
<title>Node12</title>
<g id="a_node12"><a xlink:href="class_i_v_number_box_control.html" target="_top" xlink:title="A &quot;meta control&quot; for a number box with an Inc/Dec button It adds several child buttons if buttons = t...">
<polygon fill="white" stroke="#666666" points="236.5,-487 128.5,-487 128.5,-468 236.5,-468 236.5,-487"/>
<text text-anchor="middle" x="182.5" y="-475" font-family="Helvetica,sans-Serif" font-size="10.00">IVNumberBoxControl</text>
</a>
</g>
</g>
<!-- Node1&#45;&gt;Node12 -->
<g id="edge11" class="edge">
<title>Node1&#45;&gt;Node12</title>
<path fill="none" stroke="#63b8ff" d="M82.45,-477.5C96.95,-477.5 113.1,-477.5 128.07,-477.5"/>
<polygon fill="#63b8ff" stroke="#63b8ff" points="82.74,-474 72.74,-477.5 82.74,-481 82.74,-474"/>
</g>
<!-- Node13 -->
<g id="node13" class="node">
<title>Node13</title>
<g id="a_node13"><a xlink:href="class_i_v_panel_control.html" target="_top" xlink:title="A panel control which can be styled with emboss etc.">
<polygon fill="white" stroke="#666666" points="223.5,-450 141.5,-450 141.5,-431 223.5,-431 223.5,-450"/>
<text text-anchor="middle" x="182.5" y="-438" font-family="Helvetica,sans-Serif" font-size="10.00">IVPanelControl</text>
</a>
</g>
</g>
<!-- Node1&#45;&gt;Node13 -->
<g id="edge12" class="edge">
<title>Node1&#45;&gt;Node13</title>
<path fill="none" stroke="#63b8ff" d="M82.27,-465.81C90.5,-463.71 99.01,-461.54 107,-459.5 118.51,-456.56 131.02,-453.37 142.45,-450.46"/>
<polygon fill="#63b8ff" stroke="#63b8ff" points="81.57,-462.38 72.75,-468.24 83.3,-469.16 81.57,-462.38"/>
</g>
<!-- Node14 -->
<g id="node14" class="node">
<title>Node14</title>
<g id="a_node14"><a xlink:href="class_i_v_plot_control.html" target="_top" xlink:title="A vector plot to display functions and waveforms.">
<polygon fill="white" stroke="#666666" points="219.5,-413 145.5,-413 145.5,-394 219.5,-394 219.5,-413"/>
<text text-anchor="middle" x="182.5" y="-401" font-family="Helvetica,sans-Serif" font-size="10.00">IVPlotControl</text>
</a>
</g>
</g>
<!-- Node1&#45;&gt;Node14 -->
<g id="edge13" class="edge">
<title>Node1&#45;&gt;Node14</title>
<path fill="none" stroke="#63b8ff" d="M54.39,-460.11C67.86,-447.93 87.3,-432.17 107,-422.5 118.86,-416.68 132.69,-412.52 145.19,-409.61"/>
<polygon fill="#63b8ff" stroke="#63b8ff" points="52.13,-457.43 47.21,-466.82 56.91,-462.55 52.13,-457.43"/>
</g>
<!-- Node15 -->
<g id="node15" class="node">
<title>Node15</title>
<g id="a_node15"><a xlink:href="class_i_v_scope_control.html" target="_top" xlink:title="Vectorial multi&#45;channel capable oscilloscope control.">
<polygon fill="white" stroke="#666666" points="248.5,-375.5 116.5,-375.5 116.5,-345.5 248.5,-345.5 248.5,-375.5"/>
<text text-anchor="start" x="124.5" y="-363.5" font-family="Helvetica,sans-Serif" font-size="10.00">IVScopeControl&lt; MAXNC,</text>
<text text-anchor="middle" x="182.5" y="-352.5" font-family="Helvetica,sans-Serif" font-size="10.00"> MAXBUF &gt;</text>
</a>
</g>
</g>
<!-- Node1&#45;&gt;Node15 -->
<g id="edge14" class="edge">
<title>Node1&#45;&gt;Node15</title>
<path fill="none" stroke="#63b8ff" d="M46.95,-457.67C58.87,-436.89 80.21,-404.64 107,-385.5 112.22,-381.77 118.03,-378.57 124.04,-375.83"/>
<polygon fill="#63b8ff" stroke="#63b8ff" points="43.96,-455.86 42.2,-466.3 50.09,-459.24 43.96,-455.86"/>
</g>
<!-- Node16 -->
<g id="node16" class="node">
<title>Node16</title>
<g id="a_node16"><a xlink:href="class_i_v_slider_control.html" target="_top" xlink:title="A vector slider control.">
<polygon fill="white" stroke="#666666" points="223.5,-327 141.5,-327 141.5,-308 223.5,-308 223.5,-327"/>
<text text-anchor="middle" x="182.5" y="-315" font-family="Helvetica,sans-Serif" font-size="10.00">IVSliderControl</text>
</a>
</g>
</g>
<!-- Node1&#45;&gt;Node16 -->
<g id="edge15" class="edge">
<title>Node1&#45;&gt;Node16</title>
<path fill="none" stroke="#63b8ff" d="M41.17,-456.32C49.15,-425.24 68.42,-367.6 107,-336.5 116.66,-328.71 129.14,-324.07 141.11,-321.32"/>
<polygon fill="#63b8ff" stroke="#63b8ff" points="37.77,-455.5 38.85,-466.04 44.57,-457.13 37.77,-455.5"/>
</g>
<!-- Node17 -->
<g id="node17" class="node">
<title>Node17</title>
<g id="a_node17"><a xlink:href="class_i_v_switch_control.html" target="_top" xlink:title="A vector switch control.">
<polygon fill="white" stroke="#666666" points="226,-290 139,-290 139,-271 226,-271 226,-290"/>
<text text-anchor="middle" x="182.5" y="-278" font-family="Helvetica,sans-Serif" font-size="10.00">IVSwitchControl</text>
</a>
</g>
</g>
<!-- Node1&#45;&gt;Node17 -->
<g id="edge16" class="edge">
<title>Node1&#45;&gt;Node17</title>
<path fill="none" stroke="#63b8ff" d="M38.65,-456.7C43.64,-419.45 59.48,-341.33 107,-299.5 115.82,-291.74 127.38,-287.07 138.75,-284.28"/>
<polygon fill="#63b8ff" stroke="#63b8ff" points="35.23,-455.81 37.52,-466.16 42.18,-456.64 35.23,-455.81"/>
</g>
<!-- Node20 -->
<g id="node20" class="node">
<title>Node20</title>
<g id="a_node20"><a xlink:href="class_i_v_tab_page.html" target="_top" xlink:title="A control used as the base class for a tabbed page of subcontrols.">
<polygon fill="white" stroke="#666666" points="215,-253 150,-253 150,-234 215,-234 215,-253"/>
<text text-anchor="middle" x="182.5" y="-241" font-family="Helvetica,sans-Serif" font-size="10.00">IVTabPage</text>
</a>
</g>
</g>
<!-- Node1&#45;&gt;Node20 -->
<g id="edge19" class="edge">
<title>Node1&#45;&gt;Node20</title>
<path fill="none" stroke="#63b8ff" d="M37.03,-456.38C39.29,-413.35 50.71,-315.13 107,-262.5 118.41,-251.83 134.95,-246.95 149.55,-244.79"/>
<polygon fill="#63b8ff" stroke="#63b8ff" points="33.54,-456 36.65,-466.13 40.54,-456.27 33.54,-456"/>
</g>
<!-- Node21 -->
<g id="node21" class="node">
<title>Node21</title>
<g id="a_node21"><a xlink:href="class_i_v_tab_switch_control.html" target="_top" xlink:title="A vector &quot;tab&quot; multi switch control.">
<polygon fill="white" stroke="#666666" points="234.5,-216 130.5,-216 130.5,-197 234.5,-197 234.5,-216"/>
<text text-anchor="middle" x="182.5" y="-204" font-family="Helvetica,sans-Serif" font-size="10.00">IVTabSwitchControl</text>
</a>
</g>
</g>
<!-- Node1&#45;&gt;Node21 -->
<g id="edge20" class="edge">
<title>Node1&#45;&gt;Node21</title>
<path fill="none" stroke="#63b8ff" d="M35.82,-456.16C35.5,-407.81 41.82,-289.19 107,-225.5 113.4,-219.25 121.55,-214.97 130.1,-212.06"/>
<polygon fill="#63b8ff" stroke="#63b8ff" points="32.32,-456.14 36,-466.07 39.32,-456.01 32.32,-456.14"/>
</g>
<!-- Node23 -->
<g id="node23" class="node">
<title>Node23</title>
<g id="a_node23"><a xlink:href="class_i_v_tabbed_pages_control.html" target="_top" xlink:title="A control to manage tabbed pages of sub controls Basic usage example:">
<polygon fill="white" stroke="#666666" points="241,-179 124,-179 124,-160 241,-160 241,-179"/>
<text text-anchor="middle" x="182.5" y="-167" font-family="Helvetica,sans-Serif" font-size="10.00">IVTabbedPagesControl</text>
</a>
</g>
</g>
<!-- Node1&#45;&gt;Node23 -->
<g id="edge22" class="edge">
<title>Node1&#45;&gt;Node23</title>
<path fill="none" stroke="#63b8ff" d="M38.85,-456.27C45.94,-396.21 68.93,-226.97 107,-188.5 111.69,-183.76 117.4,-180.14 123.54,-177.39"/>
<polygon fill="#63b8ff" stroke="#63b8ff" points="35.39,-455.79 37.73,-466.13 42.34,-456.59 35.39,-455.79"/>
</g>
<!-- Node24 -->
<g id="node24" class="node">
<title>Node24</title>
<g id="a_node24"><a xlink:href="class_i_v_track_control_base.html" target="_top" xlink:title="A base class for mult&#45;strip/track controls, such as multi&#45;sliders, meters Track refers to the channel...">
<polygon fill="white" stroke="#666666" points="234.5,-142 130.5,-142 130.5,-123 234.5,-123 234.5,-142"/>
<text text-anchor="middle" x="182.5" y="-130" font-family="Helvetica,sans-Serif" font-size="10.00">IVTrackControlBase</text>
</a>
</g>
</g>
<!-- Node1&#45;&gt;Node24 -->
<g id="edge23" class="edge">
<title>Node1&#45;&gt;Node24</title>
<path fill="none" stroke="#63b8ff" d="M38.19,-456.58C43.85,-391.75 64.24,-195.86 107,-151.5 113.3,-144.97 121.51,-140.56 130.17,-137.62"/>
<polygon fill="#63b8ff" stroke="#63b8ff" points="34.73,-455.95 37.38,-466.21 41.71,-456.54 34.73,-455.95"/>
</g>
<!-- Node33 -->
<g id="node33" class="node">
<title>Node33</title>
<g id="a_node33"><a xlink:href="class_i_v_x_y_pad_control.html" target="_top" xlink:title="A vector XY Pad slider control.">
<polygon fill="white" stroke="#666666" points="226.5,-105 138.5,-105 138.5,-86 226.5,-86 226.5,-105"/>
<text text-anchor="middle" x="182.5" y="-93" font-family="Helvetica,sans-Serif" font-size="10.00">IVXYPadControl</text>
</a>
</g>
</g>
<!-- Node1&#45;&gt;Node33 -->
<g id="edge33" class="edge">
<title>Node1&#45;&gt;Node33</title>
<path fill="none" stroke="#63b8ff" d="M37.69,-456.52C42.08,-386.84 59.61,-164.72 107,-114.5 115.15,-105.86 126.64,-100.93 138.16,-98.18"/>
<polygon fill="#63b8ff" stroke="#63b8ff" points="34.22,-455.98 37.11,-466.17 41.21,-456.4 34.22,-455.98"/>
</g>
<!-- Node18 -->
<g id="node18" class="node">
<title>Node18</title>
<g id="a_node18"><a xlink:href="class_i_v_slide_switch_control.html" target="_top" xlink:title="A switch with a slide animation when clicked.">
<polygon fill="white" stroke="#666666" points="415.5,-327 306.5,-327 306.5,-308 415.5,-308 415.5,-327"/>
<text text-anchor="middle" x="361" y="-315" font-family="Helvetica,sans-Serif" font-size="10.00">IVSlideSwitchControl</text>
</a>
</g>
</g>
<!-- Node17&#45;&gt;Node18 -->
<g id="edge17" class="edge">
<title>Node17&#45;&gt;Node18</title>
<path fill="none" stroke="#63b8ff" d="M237.27,-291.77C261.22,-296.79 289.2,-302.66 312.39,-307.52"/>
<polygon fill="#63b8ff" stroke="#63b8ff" points="238.21,-288.39 227.71,-289.77 236.78,-295.24 238.21,-288.39"/>
</g>
<!-- Node19 -->
<g id="node19" class="node">
<title>Node19</title>
<g id="a_node19"><a xlink:href="class_i_v_toggle_control.html" target="_top" xlink:title="A vector toggle control.">
<polygon fill="white" stroke="#666666" points="404,-290 318,-290 318,-271 404,-271 404,-290"/>
<text text-anchor="middle" x="361" y="-278" font-family="Helvetica,sans-Serif" font-size="10.00">IVToggleControl</text>
</a>
</g>
</g>
<!-- Node17&#45;&gt;Node19 -->
<g id="edge18" class="edge">
<title>Node17&#45;&gt;Node19</title>
<path fill="none" stroke="#63b8ff" d="M237.68,-280.5C263.4,-280.5 293.67,-280.5 317.67,-280.5"/>
<polygon fill="#63b8ff" stroke="#63b8ff" points="237.74,-277 227.74,-280.5 237.74,-284 237.74,-277"/>
</g>
<!-- Node22 -->
<g id="node22" class="node">
<title>Node22</title>
<g id="a_node22"><a xlink:href="class_i_v_radio_button_control.html" target="_top" xlink:title="A vector &quot;radio buttons&quot; switch control.">
<polygon fill="white" stroke="#666666" points="416,-253 306,-253 306,-234 416,-234 416,-253"/>
<text text-anchor="middle" x="361" y="-241" font-family="Helvetica,sans-Serif" font-size="10.00">IVRadioButtonControl</text>
</a>
</g>
</g>
<!-- Node21&#45;&gt;Node22 -->
<g id="edge21" class="edge">
<title>Node21&#45;&gt;Node22</title>
<path fill="none" stroke="#63b8ff" d="M241.79,-218.72C264.76,-223.53 290.79,-228.99 312.57,-233.56"/>
<polygon fill="#63b8ff" stroke="#63b8ff" points="242.79,-215.35 232.28,-216.73 241.35,-222.2 242.79,-215.35"/>
</g>
<!-- Node25 -->
<g id="node25" class="node">
<title>Node25</title>
<g id="a_node25"><a xlink:href="class_i_v_meter_control.html" target="_top" xlink:title=" ">
<polygon fill="white" stroke="#666666" points="428,-216 294,-216 294,-197 428,-197 428,-216"/>
<text text-anchor="middle" x="361" y="-204" font-family="Helvetica,sans-Serif" font-size="10.00">IVMeterControl&lt; MAXNC &gt;</text>
</a>
</g>
</g>
<!-- Node24&#45;&gt;Node25 -->
<g id="edge24" class="edge">
<title>Node24&#45;&gt;Node25</title>
<path fill="none" stroke="#63b8ff" d="M245.21,-145.32C249.66,-147.12 253.97,-149.17 258,-151.5 277.86,-162.99 274.23,-176.85 294,-188.5 299.42,-191.7 305.43,-194.34 311.54,-196.53"/>
<polygon fill="#63b8ff" stroke="#63b8ff" points="246.69,-142.13 236.09,-142.07 244.33,-148.72 246.69,-142.13"/>
</g>
<!-- Node27 -->
<g id="node27" class="node">
<title>Node27</title>
<g id="a_node27"><a xlink:href="class_i_v_meter_control.html" target="_top" xlink:title=" ">
<polygon fill="white" stroke="#666666" points="413,-179 309,-179 309,-160 413,-160 413,-179"/>
<text text-anchor="middle" x="361" y="-167" font-family="Helvetica,sans-Serif" font-size="10.00">IVMeterControl&lt; 1 &gt;</text>
</a>
</g>
</g>
<!-- Node24&#45;&gt;Node27 -->
<g id="edge26" class="edge">
<title>Node24&#45;&gt;Node27</title>
<path fill="none" stroke="#63b8ff" d="M241.79,-144.72C264.76,-149.53 290.79,-154.99 312.57,-159.56"/>
<polygon fill="#63b8ff" stroke="#63b8ff" points="242.79,-141.35 232.28,-142.73 241.35,-148.2 242.79,-141.35"/>
</g>
<!-- Node28 -->
<g id="node28" class="node">
<title>Node28</title>
<g id="a_node28"><a xlink:href="class_i_v_multi_slider_control.html" target="_top" xlink:title=" ">
<polygon fill="white" stroke="#666666" points="423.5,-142 298.5,-142 298.5,-123 423.5,-123 423.5,-142"/>
<text text-anchor="middle" x="361" y="-130" font-family="Helvetica,sans-Serif" font-size="10.00">IVMultiSliderControl&lt; 1 &gt;</text>
</a>
</g>
</g>
<!-- Node24&#45;&gt;Node28 -->
<g id="edge27" class="edge">
<title>Node24&#45;&gt;Node28</title>
<path fill="none" stroke="#63b8ff" d="M246.01,-132.5C262.93,-132.5 281.23,-132.5 298.11,-132.5"/>
<polygon fill="#63b8ff" stroke="#63b8ff" points="246.06,-129 236.06,-132.5 246.06,-136 246.06,-129"/>
</g>
<!-- Node29 -->
<g id="node29" class="node">
<title>Node29</title>
<g id="a_node29"><a xlink:href="class_i_v_meter_control.html" target="_top" xlink:title="Vectorial multi&#45;channel capable meter control, linear or log response.">
<polygon fill="white" stroke="#666666" points="428,-105 294,-105 294,-86 428,-86 428,-105"/>
<text text-anchor="middle" x="361" y="-93" font-family="Helvetica,sans-Serif" font-size="10.00">IVMeterControl&lt; MAXNC &gt;</text>
</a>
</g>
</g>
<!-- Node24&#45;&gt;Node29 -->
<g id="edge28" class="edge">
<title>Node24&#45;&gt;Node29</title>
<path fill="none" stroke="#63b8ff" d="M241.79,-120.28C264.76,-115.47 290.79,-110.01 312.57,-105.44"/>
<polygon fill="#63b8ff" stroke="#63b8ff" points="241.35,-116.8 232.28,-122.27 242.79,-123.65 241.35,-116.8"/>
</g>
<!-- Node30 -->
<g id="node30" class="node">
<title>Node30</title>
<g id="a_node30"><a xlink:href="class_i_v_multi_slider_control.html" target="_top" xlink:title="A vectorial multi&#45;slider control.">
<polygon fill="white" stroke="#666666" points="412.5,-67.5 309.5,-67.5 309.5,-37.5 412.5,-37.5 412.5,-67.5"/>
<text text-anchor="start" x="317.5" y="-55.5" font-family="Helvetica,sans-Serif" font-size="10.00">IVMultiSliderControl</text>
<text text-anchor="middle" x="361" y="-44.5" font-family="Helvetica,sans-Serif" font-size="10.00">&lt; MAXNC &gt;</text>
</a>
</g>
</g>
<!-- Node24&#45;&gt;Node30 -->
<g id="edge30" class="edge">
<title>Node24&#45;&gt;Node30</title>
<path fill="none" stroke="#63b8ff" d="M245.24,-120.61C249.68,-118.85 253.98,-116.82 258,-114.5 278.13,-102.84 274.55,-89.26 294,-76.5 298.89,-73.29 304.27,-70.44 309.78,-67.93"/>
<polygon fill="#63b8ff" stroke="#63b8ff" points="244.43,-117.19 236.14,-123.78 246.73,-123.8 244.43,-117.19"/>
</g>
<!-- Node32 -->
<g id="node32" class="node">
<title>Node32</title>
<g id="a_node32"><a xlink:href="class_i_v_range_slider_control.html" target="_top" xlink:title="A vector range slider control, with two handles.">
<polygon fill="white" stroke="#666666" points="416,-19 306,-19 306,0 416,0 416,-19"/>
<text text-anchor="middle" x="361" y="-7" font-family="Helvetica,sans-Serif" font-size="10.00">IVRangeSliderControl</text>
</a>
</g>
</g>
<!-- Node24&#45;&gt;Node32 -->
<g id="edge32" class="edge">
<title>Node24&#45;&gt;Node32</title>
<path fill="none" stroke="#63b8ff" d="M245.13,-122.73C249.77,-120.5 254.14,-117.79 258,-114.5 289.54,-87.63 263.05,-56.05 294,-28.5 298.19,-24.77 303.06,-21.78 308.23,-19.36"/>
<polygon fill="#63b8ff" stroke="#63b8ff" points="244.07,-119.39 236.06,-126.33 246.64,-125.9 244.07,-119.39"/>
</g>
<!-- Node26 -->
<g id="node26" class="node">
<title>Node26</title>
<g id="a_node26"><a xlink:href="class_i_v_peak_avg_meter_control.html" target="_top" xlink:title=" ">
<polygon fill="white" stroke="#666666" points="607,-160 464,-160 464,-141 607,-141 607,-160"/>
<text text-anchor="middle" x="535.5" y="-148" font-family="Helvetica,sans-Serif" font-size="10.00">IVPeakAvgMeterControl&lt; 1 &gt;</text>
</a>
</g>
</g>
<!-- Node25&#45;&gt;Node26 -->
<g id="edge25" class="edge">
<title>Node25&#45;&gt;Node26</title>
<path fill="none" stroke="#63b8ff" d="M411.31,-193.5C416.95,-191.88 422.61,-190.19 428,-188.5 455.72,-179.79 486.98,-168.45 508.43,-160.43"/>
<polygon fill="#63b8ff" stroke="#63b8ff" points="410.67,-190.04 401.99,-196.11 412.57,-196.78 410.67,-190.04"/>
</g>
<!-- Node29&#45;&gt;Node26 -->
<g id="edge29" class="edge">
<title>Node29&#45;&gt;Node26</title>
<path fill="none" stroke="#63b8ff" d="M408.56,-108.62C415.1,-110.54 421.73,-112.54 428,-114.5 454.64,-122.83 484.75,-133.09 506.14,-140.52"/>
<polygon fill="#63b8ff" stroke="#63b8ff" points="409.74,-105.31 399.17,-105.88 407.79,-112.04 409.74,-105.31"/>
</g>
<!-- Node31 -->
<g id="node31" class="node">
<title>Node31</title>
<g id="a_node31"><a xlink:href="class_i_v_multi_toggle_control.html" target="_top" xlink:title="A vectorial multi&#45;toggle control, could be used for a trigger in a step sequencer or tarnce gate.">
<polygon fill="white" stroke="#666666" points="589,-67.5 482,-67.5 482,-37.5 589,-37.5 589,-67.5"/>
<text text-anchor="start" x="490" y="-55.5" font-family="Helvetica,sans-Serif" font-size="10.00">IVMultiToggleControl</text>
<text text-anchor="middle" x="535.5" y="-44.5" font-family="Helvetica,sans-Serif" font-size="10.00">&lt; MAXNC &gt;</text>
</a>
</g>
</g>
<!-- Node30&#45;&gt;Node31 -->
<g id="edge31" class="edge">
<title>Node30&#45;&gt;Node31</title>
<path fill="none" stroke="#63b8ff" d="M424.28,-52.5C443.08,-52.5 463.52,-52.5 481.65,-52.5"/>
<polygon fill="#63b8ff" stroke="#63b8ff" points="424.34,-49 414.34,-52.5 424.34,-56 424.34,-49"/>
</g>
</g>
</svg>
