<?xml version="1.0" encoding="UTF-8" standalone="no"?>
<!DOCTYPE svg PUBLIC "-//W3C//DTD SVG 1.1//EN"
 "http://www.w3.org/Graphics/SVG/1.1/DTD/svg11.dtd">
<!-- Generated by graphviz version 7.0.5 (20221223.1930)
 -->
<!-- Title: ISwitchControlBase Pages: 1 -->
<svg width="447pt" height="192pt"
 viewBox="0.00 0.00 446.50 192.00" xmlns="http://www.w3.org/2000/svg" xmlns:xlink="http://www.w3.org/1999/xlink">
<g id="graph0" class="graph" transform="scale(1 1) rotate(0) translate(4 188)">
<title>ISwitchControlBase</title>
<!-- Node1 -->
<g id="node1" class="node">
<title>Node1</title>
<g id="a_node1"><a xlink:title="A base class for switch controls.">
<polygon fill="#999999" stroke="#666666" points="263,-129 160,-129 160,-110 263,-110 263,-129"/>
<text text-anchor="middle" x="211.5" y="-117" font-family="Helvetica,sans-Serif" font-size="10.00">ISwitchControlBase</text>
</a>
</g>
</g>
<!-- Node3 -->
<g id="node3" class="node">
<title>Node3</title>
<g id="a_node3"><a xlink:href="class_i_b_switch_control.html" target="_top" xlink:title="A bitmap switch control.">
<polygon fill="white" stroke="#666666" points="87,-74 0,-74 0,-55 87,-55 87,-74"/>
<text text-anchor="middle" x="43.5" y="-62" font-family="Helvetica,sans-Serif" font-size="10.00">IBSwitchControl</text>
</a>
</g>
</g>
<!-- Node1&#45;&gt;Node3 -->
<g id="edge2" class="edge">
<title>Node1&#45;&gt;Node3</title>
<path fill="none" stroke="#63b8ff" d="M172.23,-106.11C141.47,-96.41 99.41,-83.14 71.86,-74.45"/>
<polygon fill="#63b8ff" stroke="#63b8ff" points="170.97,-109.38 181.56,-109.05 173.07,-102.71 170.97,-109.38"/>
</g>
<!-- Node4 -->
<g id="node4" class="node">
<title>Node4</title>
<g id="a_node4"><a xlink:href="class_i_s_v_g_switch_control.html" target="_top" xlink:title="A vector switch control which shows one of multiple SVG states.">
<polygon fill="white" stroke="#666666" points="206,-74 105,-74 105,-55 206,-55 206,-74"/>
<text text-anchor="middle" x="155.5" y="-62" font-family="Helvetica,sans-Serif" font-size="10.00">ISVGSwitchControl</text>
</a>
</g>
</g>
<!-- Node1&#45;&gt;Node4 -->
<g id="edge3" class="edge">
<title>Node1&#45;&gt;Node4</title>
<path fill="none" stroke="#63b8ff" d="M193.87,-101.81C184.26,-92.72 172.75,-81.82 164.86,-74.36"/>
<polygon fill="#63b8ff" stroke="#63b8ff" points="191.23,-104.14 200.9,-108.47 196.04,-99.05 191.23,-104.14"/>
</g>
<!-- Node5 -->
<g id="node5" class="node">
<title>Node5</title>
<g id="a_node5"><a xlink:href="class_i_v_switch_control.html" target="_top" xlink:title="A vector switch control.">
<polygon fill="white" stroke="#666666" points="311,-74 224,-74 224,-55 311,-55 311,-74"/>
<text text-anchor="middle" x="267.5" y="-62" font-family="Helvetica,sans-Serif" font-size="10.00">IVSwitchControl</text>
</a>
</g>
</g>
<!-- Node1&#45;&gt;Node5 -->
<g id="edge4" class="edge">
<title>Node1&#45;&gt;Node5</title>
<path fill="none" stroke="#63b8ff" d="M229.13,-101.81C238.74,-92.72 250.25,-81.82 258.14,-74.36"/>
<polygon fill="#63b8ff" stroke="#63b8ff" points="226.96,-99.05 222.1,-108.47 231.77,-104.14 226.96,-99.05"/>
</g>
<!-- Node8 -->
<g id="node8" class="node">
<title>Node8</title>
<g id="a_node8"><a xlink:href="class_i_v_tab_switch_control.html" target="_top" xlink:title="A vector &quot;tab&quot; multi switch control.">
<polygon fill="white" stroke="#666666" points="434.5,-74 330.5,-74 330.5,-55 434.5,-55 434.5,-74"/>
<text text-anchor="middle" x="382.5" y="-62" font-family="Helvetica,sans-Serif" font-size="10.00">IVTabSwitchControl</text>
</a>
</g>
</g>
<!-- Node1&#45;&gt;Node8 -->
<g id="edge7" class="edge">
<title>Node1&#45;&gt;Node8</title>
<path fill="none" stroke="#63b8ff" d="M251.47,-106.11C282.79,-96.41 325.6,-83.14 353.64,-74.45"/>
<polygon fill="#63b8ff" stroke="#63b8ff" points="250.47,-102.76 241.95,-109.06 252.54,-109.44 250.47,-102.76"/>
</g>
<!-- Node2 -->
<g id="node2" class="node">
<title>Node2</title>
<g id="a_node2"><a xlink:href="class_i_control.html" target="_top" xlink:title="The lowest level base class of an IGraphics control.">
<polygon fill="white" stroke="#666666" points="236.5,-184 186.5,-184 186.5,-165 236.5,-165 236.5,-184"/>
<text text-anchor="middle" x="211.5" y="-172" font-family="Helvetica,sans-Serif" font-size="10.00">IControl</text>
</a>
</g>
</g>
<!-- Node2&#45;&gt;Node1 -->
<g id="edge1" class="edge">
<title>Node2&#45;&gt;Node1</title>
<path fill="none" stroke="#63b8ff" d="M211.5,-153.35C211.5,-145.1 211.5,-135.97 211.5,-129.44"/>
<polygon fill="#63b8ff" stroke="#63b8ff" points="208,-153.23 211.5,-163.23 215,-153.23 208,-153.23"/>
</g>
<!-- Node6 -->
<g id="node6" class="node">
<title>Node6</title>
<g id="a_node6"><a xlink:href="class_i_v_slide_switch_control.html" target="_top" xlink:title="A switch with a slide animation when clicked.">
<polygon fill="white" stroke="#666666" points="206,-19 97,-19 97,0 206,0 206,-19"/>
<text text-anchor="middle" x="151.5" y="-7" font-family="Helvetica,sans-Serif" font-size="10.00">IVSlideSwitchControl</text>
</a>
</g>
</g>
<!-- Node5&#45;&gt;Node6 -->
<g id="edge5" class="edge">
<title>Node5&#45;&gt;Node6</title>
<path fill="none" stroke="#63b8ff" d="M237.51,-49.8C216.51,-40.2 189.06,-27.66 170.89,-19.36"/>
<polygon fill="#63b8ff" stroke="#63b8ff" points="235.9,-52.91 246.45,-53.88 238.8,-46.54 235.9,-52.91"/>
</g>
<!-- Node7 -->
<g id="node7" class="node">
<title>Node7</title>
<g id="a_node7"><a xlink:href="class_i_v_toggle_control.html" target="_top" xlink:title="A vector toggle control.">
<polygon fill="white" stroke="#666666" points="310.5,-19 224.5,-19 224.5,0 310.5,0 310.5,-19"/>
<text text-anchor="middle" x="267.5" y="-7" font-family="Helvetica,sans-Serif" font-size="10.00">IVToggleControl</text>
</a>
</g>
</g>
<!-- Node5&#45;&gt;Node7 -->
<g id="edge6" class="edge">
<title>Node5&#45;&gt;Node7</title>
<path fill="none" stroke="#63b8ff" d="M267.5,-43.35C267.5,-35.1 267.5,-25.97 267.5,-19.44"/>
<polygon fill="#63b8ff" stroke="#63b8ff" points="264,-43.23 267.5,-53.23 271,-43.23 264,-43.23"/>
</g>
<!-- Node9 -->
<g id="node9" class="node">
<title>Node9</title>
<g id="a_node9"><a xlink:href="class_i_v_radio_button_control.html" target="_top" xlink:title="A vector &quot;radio buttons&quot; switch control.">
<polygon fill="white" stroke="#666666" points="438.5,-19 328.5,-19 328.5,0 438.5,0 438.5,-19"/>
<text text-anchor="middle" x="383.5" y="-7" font-family="Helvetica,sans-Serif" font-size="10.00">IVRadioButtonControl</text>
</a>
</g>
</g>
<!-- Node8&#45;&gt;Node9 -->
<g id="edge8" class="edge">
<title>Node8&#45;&gt;Node9</title>
<path fill="none" stroke="#63b8ff" d="M382.88,-43.35C383.04,-35.1 383.21,-25.97 383.33,-19.44"/>
<polygon fill="#63b8ff" stroke="#63b8ff" points="379.38,-43.17 382.69,-53.23 386.38,-43.3 379.38,-43.17"/>
</g>
</g>
</svg>
