<?xml version="1.0" encoding="UTF-8" standalone="no"?>
<!DOCTYPE svg PUBLIC "-//W3C//DTD SVG 1.1//EN"
 "http://www.w3.org/Graphics/SVG/1.1/DTD/svg11.dtd">
<!-- Generated by graphviz version 7.0.5 (20221223.1930)
 -->
<!-- Title: IKnobControlBase Pages: 1 -->
<!--zoomable 397 -->
<svg id="main" version="1.1" xmlns="http://www.w3.org/2000/svg" xmlns:xlink="http://www.w3.org/1999/xlink" xml:space="preserve" onload="init(evt)">
<style type="text/css"><![CDATA[
.edge:hover path { stroke: red; }
.edge:hover polygon { stroke: red; fill: red; }
]]></style>
<script type="text/javascript"><![CDATA[
var edges = document.getElementsByTagName('g');
if (edges && edges.length) {
  for (var i=0;i<edges.length;i++) {
    if (edges[i].id.substr(0,4)=='edge') {
      edges[i].setAttribute('class','edge');
    }
  }
}
]]></script>
        <defs>
                <circle id="rim" cx="0" cy="0" r="7"/>
                <circle id="rim2" cx="0" cy="0" r="3.5"/>
                <g id="zoomPlus">
                        <use xlink:href="#rim" fill="#404040">
                                <set attributeName="fill" to="#808080" begin="zoomplus.mouseover" end="zoomplus.mouseout"/>
                        </use>
                        <path d="M-4,0h8M0,-4v8" fill="none" stroke="white" stroke-width="1.5" pointer-events="none"/>
                </g>
                <g id="zoomMin">
                        <use xlink:href="#rim" fill="#404040">
                                <set attributeName="fill" to="#808080" begin="zoomminus.mouseover" end="zoomminus.mouseout"/>
                        </use>
                        <path d="M-4,0h8" fill="none" stroke="white" stroke-width="1.5" pointer-events="none"/>
                </g>
                <g id="dirArrow">
                        <path fill="none" stroke="white" stroke-width="1.5" d="M0,-3.0v7 M-2.5,-0.5L0,-3.0L2.5,-0.5"/>
                </g>
               <g id="resetDef">
                       <use xlink:href="#rim2" fill="#404040">
                               <set attributeName="fill" to="#808080" begin="reset.mouseover" end="reset.mouseout"/>
                       </use>
               </g>
        </defs>

<script type="text/javascript">
var viewWidth = 505;
var viewHeight = 397;
var sectionId = 'dynsection-0';
</script>
<script xlink:href="svgpan.js"/>
<svg id="graph" class="graph">
<g id="viewport">
<title>IKnobControlBase</title>
<!-- Node1 -->
<g id="node1" class="node">
<title>Node1</title>
<g id="a_node1"><a xlink:title="A base class for knob/dial controls, to handle mouse action and Sender.">
<polygon fill="#999999" stroke="#666666" points="181,-204 86,-204 86,-185 181,-185 181,-204"/>
<text text-anchor="middle" x="133.5" y="-192" font-family="Helvetica,sans-Serif" font-size="10.00">IKnobControlBase</text>
</a>
</g>
</g>
<!-- Node3 -->
<g id="node3" class="node">
<title>Node3</title>
<g id="a_node3"><a xlink:href="class_i_b_knob_control.html" target="_top" xlink:title="A bitmap knob/dial control that draws a frame from a stacked bitmap.">
<polygon fill="white" stroke="#666666" points="323.5,-389 243.5,-389 243.5,-370 323.5,-370 323.5,-389"/>
<text text-anchor="middle" x="283.5" y="-377" font-family="Helvetica,sans-Serif" font-size="10.00">IBKnobControl</text>
</a>
</g>
</g>
<!-- Node1&#45;&gt;Node3 -->
<g id="edge2" class="edge">
<title>Node1&#45;&gt;Node3</title>
<path fill="none" stroke="#63b8ff" d="M139.06,-215.29C147.88,-250.48 170.6,-321.74 217,-360.5 224.45,-366.72 233.85,-370.91 243.18,-373.73"/>
<polygon fill="#63b8ff" stroke="#63b8ff" points="142.56,-214.86 136.86,-205.93 135.74,-216.47 142.56,-214.86"/>
</g>
<!-- Node5 -->
<g id="node5" class="node">
<title>Node5</title>
<g id="a_node5"><a xlink:href="class_i_s_v_g_knob_control.html" target="_top" xlink:title="A vector knob/dial control which rotates an SVG image.">
<polygon fill="white" stroke="#666666" points="330.5,-352 236.5,-352 236.5,-333 330.5,-333 330.5,-352"/>
<text text-anchor="middle" x="283.5" y="-340" font-family="Helvetica,sans-Serif" font-size="10.00">ISVGKnobControl</text>
</a>
</g>
</g>
<!-- Node1&#45;&gt;Node5 -->
<g id="edge4" class="edge">
<title>Node1&#45;&gt;Node5</title>
<path fill="none" stroke="#63b8ff" d="M142.16,-215C153.88,-243.58 179,-295.08 217,-323.5 222.69,-327.75 229.31,-331.06 236.11,-333.62"/>
<polygon fill="#63b8ff" stroke="#63b8ff" points="145.42,-213.72 138.51,-205.69 138.9,-216.28 145.42,-213.72"/>
</g>
<!-- Node6 -->
<g id="node6" class="node">
<title>Node6</title>
<g id="a_node6"><a xlink:href="class_i_v_knob_control.html" target="_top" xlink:title="A vector knob control drawn using graphics primitives.">
<polygon fill="white" stroke="#666666" points="323.5,-315 243.5,-315 243.5,-296 323.5,-296 323.5,-315"/>
<text text-anchor="middle" x="283.5" y="-303" font-family="Helvetica,sans-Serif" font-size="10.00">IVKnobControl</text>
</a>
</g>
</g>
<!-- Node1&#45;&gt;Node6 -->
<g id="edge5" class="edge">
<title>Node1&#45;&gt;Node6</title>
<path fill="none" stroke="#63b8ff" d="M146.97,-213.93C161.39,-234.85 187.01,-267.65 217,-286.5 224.92,-291.48 234.19,-295.19 243.22,-297.95"/>
<polygon fill="#63b8ff" stroke="#63b8ff" points="149.96,-212.1 141.5,-205.73 144.14,-215.99 149.96,-212.1"/>
</g>
<!-- Node7 -->
<g id="node7" class="node">
<title>Node7</title>
<g id="a_node7"><a xlink:href="class_test_arc_control.html" target="_top" xlink:title="Control to test drawing arcs.">
<polygon fill="white" stroke="#666666" points="324.5,-278 242.5,-278 242.5,-259 324.5,-259 324.5,-278"/>
<text text-anchor="middle" x="283.5" y="-266" font-family="Helvetica,sans-Serif" font-size="10.00">TestArcControl</text>
</a>
</g>
</g>
<!-- Node1&#45;&gt;Node7 -->
<g id="edge6" class="edge">
<title>Node1&#45;&gt;Node7</title>
<path fill="none" stroke="#63b8ff" d="M155.67,-211.26C171.73,-223.3 194.77,-239.16 217,-249.5 224.95,-253.19 233.77,-256.34 242.3,-258.95"/>
<polygon fill="#63b8ff" stroke="#63b8ff" points="157.91,-208.57 147.85,-205.27 153.66,-214.13 157.91,-208.57"/>
</g>
<!-- Node8 -->
<g id="node8" class="node">
<title>Node8</title>
<g id="a_node8"><a xlink:href="class_test_blend_control.html" target="_top" xlink:title="Control to test blend methods.">
<polygon fill="white" stroke="#666666" points="329.5,-241 237.5,-241 237.5,-222 329.5,-222 329.5,-241"/>
<text text-anchor="middle" x="283.5" y="-229" font-family="Helvetica,sans-Serif" font-size="10.00">TestBlendControl</text>
</a>
</g>
</g>
<!-- Node1&#45;&gt;Node8 -->
<g id="edge7" class="edge">
<title>Node1&#45;&gt;Node8</title>
<path fill="none" stroke="#63b8ff" d="M185.23,-207.18C204.02,-211.88 225.05,-217.14 242.73,-221.56"/>
<polygon fill="#63b8ff" stroke="#63b8ff" points="186.18,-203.81 175.63,-204.78 184.48,-210.6 186.18,-203.81"/>
</g>
<!-- Node9 -->
<g id="node9" class="node">
<title>Node9</title>
<g id="a_node9"><a xlink:href="class_test_gradient_control.html" target="_top" xlink:title="Control to test drawing gradients with path based drawing backends.">
<polygon fill="white" stroke="#666666" points="335.5,-204 231.5,-204 231.5,-185 335.5,-185 335.5,-204"/>
<text text-anchor="middle" x="283.5" y="-192" font-family="Helvetica,sans-Serif" font-size="10.00">TestGradientControl</text>
</a>
</g>
</g>
<!-- Node1&#45;&gt;Node9 -->
<g id="edge8" class="edge">
<title>Node1&#45;&gt;Node9</title>
<path fill="none" stroke="#63b8ff" d="M192.74,-194.5C205.4,-194.5 218.72,-194.5 231.1,-194.5"/>
<polygon fill="#63b8ff" stroke="#63b8ff" points="192.84,-191 182.84,-194.5 192.84,-198 192.84,-191"/>
</g>
<!-- Node10 -->
<g id="node10" class="node">
<title>Node10</title>
<g id="a_node10"><a xlink:href="class_test_layer_control.html" target="_top" xlink:title="Control to test IGraphics layers.">
<polygon fill="white" stroke="#666666" points="329,-167 238,-167 238,-148 329,-148 329,-167"/>
<text text-anchor="middle" x="283.5" y="-155" font-family="Helvetica,sans-Serif" font-size="10.00">TestLayerControl</text>
</a>
</g>
</g>
<!-- Node1&#45;&gt;Node10 -->
<g id="edge9" class="edge">
<title>Node1&#45;&gt;Node10</title>
<path fill="none" stroke="#63b8ff" d="M185.23,-181.82C204.02,-177.12 225.05,-171.86 242.73,-167.44"/>
<polygon fill="#63b8ff" stroke="#63b8ff" points="184.48,-178.4 175.63,-184.22 186.18,-185.19 184.48,-178.4"/>
</g>
<!-- Node11 -->
<g id="node11" class="node">
<title>Node11</title>
<g id="a_node11"><a xlink:href="class_test_multi_path_control.html" target="_top" xlink:title="Control to test drawing paths in path&#45;based drawing backends.">
<polygon fill="white" stroke="#666666" points="337.5,-130 229.5,-130 229.5,-111 337.5,-111 337.5,-130"/>
<text text-anchor="middle" x="283.5" y="-118" font-family="Helvetica,sans-Serif" font-size="10.00">TestMultiPathControl</text>
</a>
</g>
</g>
<!-- Node1&#45;&gt;Node11 -->
<g id="edge10" class="edge">
<title>Node1&#45;&gt;Node11</title>
<path fill="none" stroke="#63b8ff" d="M155.3,-177.53C171.33,-165.19 194.48,-148.89 217,-138.5 223.75,-135.39 231.14,-132.72 238.45,-130.46"/>
<polygon fill="#63b8ff" stroke="#63b8ff" points="153.19,-174.74 147.51,-183.68 157.53,-180.23 153.19,-174.74"/>
</g>
<!-- Node12 -->
<g id="node12" class="node">
<title>Node12</title>
<g id="a_node12"><a xlink:href="class_test_poly_control.html" target="_top" xlink:title="Control to test drawing polygons.">
<polygon fill="white" stroke="#666666" points="326.5,-93 240.5,-93 240.5,-74 326.5,-74 326.5,-93"/>
<text text-anchor="middle" x="283.5" y="-81" font-family="Helvetica,sans-Serif" font-size="10.00">TestPolyControl</text>
</a>
</g>
</g>
<!-- Node1&#45;&gt;Node12 -->
<g id="edge11" class="edge">
<title>Node1&#45;&gt;Node12</title>
<path fill="none" stroke="#63b8ff" d="M146.65,-175.1C160.94,-153.9 186.59,-120.43 217,-101.5 224.01,-97.14 232.08,-93.82 240.11,-91.29"/>
<polygon fill="#63b8ff" stroke="#63b8ff" points="143.77,-173.11 141.24,-183.4 149.64,-176.93 143.77,-173.11"/>
</g>
<!-- Node13 -->
<g id="node13" class="node">
<title>Node13</title>
<g id="a_node13"><a xlink:href="class_test_text_orientation_control.html" target="_top" xlink:title="Control to test drawing text with orientation.">
<polygon fill="white" stroke="#666666" points="350,-56 217,-56 217,-37 350,-37 350,-56"/>
<text text-anchor="middle" x="283.5" y="-44" font-family="Helvetica,sans-Serif" font-size="10.00">TestTextOrientationControl</text>
</a>
</g>
</g>
<!-- Node1&#45;&gt;Node13 -->
<g id="edge12" class="edge">
<title>Node1&#45;&gt;Node13</title>
<path fill="none" stroke="#63b8ff" d="M141.9,-174.16C153.44,-145.35 178.47,-93 217,-64.5 221.36,-61.27 226.27,-58.63 231.39,-56.45"/>
<polygon fill="#63b8ff" stroke="#63b8ff" points="138.75,-172.6 138.44,-183.19 145.29,-175.1 138.75,-172.6"/>
</g>
<!-- Node14 -->
<g id="node14" class="node">
<title>Node14</title>
<g id="a_node14"><a xlink:href="class_test_text_size_control.html" target="_top" xlink:title="Control to test drawing text with varying size.">
<polygon fill="white" stroke="#666666" points="335.5,-19 231.5,-19 231.5,0 335.5,0 335.5,-19"/>
<text text-anchor="middle" x="283.5" y="-7" font-family="Helvetica,sans-Serif" font-size="10.00">TestTextSizeControl</text>
</a>
</g>
</g>
<!-- Node1&#45;&gt;Node14 -->
<g id="edge13" class="edge">
<title>Node1&#45;&gt;Node14</title>
<path fill="none" stroke="#63b8ff" d="M138.84,-174.02C147.42,-138.7 169.93,-66.36 217,-27.5 221.18,-24.05 225.98,-21.25 231.03,-18.99"/>
<polygon fill="#63b8ff" stroke="#63b8ff" points="135.52,-172.86 136.71,-183.38 142.34,-174.41 135.52,-172.86"/>
</g>
<!-- Node2 -->
<g id="node2" class="node">
<title>Node2</title>
<g id="a_node2"><a xlink:href="class_i_control.html" target="_top" xlink:title="The lowest level base class of an IGraphics control.">
<polygon fill="white" stroke="#666666" points="50,-204 0,-204 0,-185 50,-185 50,-204"/>
<text text-anchor="middle" x="25" y="-192" font-family="Helvetica,sans-Serif" font-size="10.00">IControl</text>
</a>
</g>
</g>
<!-- Node2&#45;&gt;Node1 -->
<g id="edge1" class="edge">
<title>Node2&#45;&gt;Node1</title>
<path fill="none" stroke="#63b8ff" d="M61.85,-194.5C69.45,-194.5 77.59,-194.5 85.54,-194.5"/>
<polygon fill="#63b8ff" stroke="#63b8ff" points="61.95,-191 51.95,-194.5 61.95,-198 61.95,-191"/>
</g>
<!-- Node4 -->
<g id="node4" class="node">
<title>Node4</title>
<g id="a_node4"><a xlink:href="class_i_b_knob_rotater_control.html" target="_top" xlink:title="A bitmap knob/dial control that rotates an image.">
<polygon fill="white" stroke="#666666" points="497,-389 386,-389 386,-370 497,-370 497,-389"/>
<text text-anchor="middle" x="441.5" y="-377" font-family="Helvetica,sans-Serif" font-size="10.00">IBKnobRotaterControl</text>
</a>
</g>
</g>
<!-- Node3&#45;&gt;Node4 -->
<g id="edge3" class="edge">
<title>Node3&#45;&gt;Node4</title>
<path fill="none" stroke="#63b8ff" d="M335.22,-379.5C351.31,-379.5 369.16,-379.5 385.53,-379.5"/>
<polygon fill="#63b8ff" stroke="#63b8ff" points="335.38,-376 325.38,-379.5 335.38,-383 335.38,-376"/>
</g>
</g>
</svg>
        <g id="navigator" transform="translate(0 0)" fill="#404254">
                <rect fill="#f2f5e9" fill-opacity="0.5" stroke="#606060" stroke-width=".5" x="0" y="0" width="60" height="60"/>
                <use id="zoomplus" xlink:href="#zoomPlus" x="17" y="9" onmousedown="handleZoom(evt,'in')"/>
                <use id="zoomminus" xlink:href="#zoomMin" x="42" y="9" onmousedown="handleZoom(evt,'out')"/>
                <use id="reset" xlink:href="#resetDef" x="30" y="36" onmousedown="handleReset()"/>
                <g id="arrowUp" xlink:href="#dirArrow" transform="translate(30 24)" onmousedown="handlePan(0,-1)">
                  <use xlink:href="#rim" fill="#404040">
                        <set attributeName="fill" to="#808080" begin="arrowUp.mouseover" end="arrowUp.mouseout"/>
                  </use>
                  <path fill="none" stroke="white" stroke-width="1.5" d="M0,-3.0v7 M-2.5,-0.5L0,-3.0L2.5,-0.5"/>
                </g>
                <g id="arrowRight" xlink:href="#dirArrow" transform="rotate(90) translate(36 -43)" onmousedown="handlePan(1,0)">
                  <use xlink:href="#rim" fill="#404040">
                        <set attributeName="fill" to="#808080" begin="arrowRight.mouseover" end="arrowRight.mouseout"/>
                  </use>
                  <path fill="none" stroke="white" stroke-width="1.5" d="M0,-3.0v7 M-2.5,-0.5L0,-3.0L2.5,-0.5"/>
                </g>
                <g id="arrowDown" xlink:href="#dirArrow" transform="rotate(180) translate(-30 -48)" onmousedown="handlePan(0,1)">
                  <use xlink:href="#rim" fill="#404040">
                        <set attributeName="fill" to="#808080" begin="arrowDown.mouseover" end="arrowDown.mouseout"/>
                  </use>
                  <path fill="none" stroke="white" stroke-width="1.5" d="M0,-3.0v7 M-2.5,-0.5L0,-3.0L2.5,-0.5"/>
                </g>
                <g id="arrowLeft" xlink:href="#dirArrow" transform="rotate(270) translate(-36 17)" onmousedown="handlePan(-1,0)">
                  <use xlink:href="#rim" fill="#404040">
                        <set attributeName="fill" to="#808080" begin="arrowLeft.mouseover" end="arrowLeft.mouseout"/>
                  </use>
                  <path fill="none" stroke="white" stroke-width="1.5" d="M0,-3.0v7 M-2.5,-0.5L0,-3.0L2.5,-0.5"/>
                </g>
        </g>
        <svg viewBox="0 0 15 15" width="100%" height="30px" preserveAspectRatio="xMaxYMin meet">
         <g id="arrow_out" transform="scale(0.3 0.3)">
          <a xlink:href="class_i_knob_control_base__inherit__graph_org.svg" target="_base">
           <rect id="button" ry="5" rx="5" y="6" x="6" height="38" width="38"
                fill="#f2f5e9" fill-opacity="0.5" stroke="#606060" stroke-width="1.0"/>
           <path id="arrow"
             d="M 11.500037,31.436501 C 11.940474,20.09759 22.043105,11.32322 32.158766,21.979434 L 37.068811,17.246167 C 37.068811,17.246167 37.088388,32 37.088388,32 L 22.160133,31.978069 C 22.160133,31.978069 26.997745,27.140456 26.997745,27.140456 C 18.528582,18.264221 13.291696,25.230495 11.500037,31.436501 z"
             style="fill:#404040;"/>
          </a>
         </g>
        </svg>
</svg>
