<?xml version="1.0" encoding="UTF-8" standalone="no"?>
<!DOCTYPE svg PUBLIC "-//W3C//DTD SVG 1.1//EN"
 "http://www.w3.org/Graphics/SVG/1.1/DTD/svg11.dtd">
<!-- Generated by graphviz version 7.0.5 (20221223.1930)
 -->
<!-- Title: IPlugAPIBase Pages: 1 -->
<svg width="518pt" height="471pt"
 viewBox="0.00 0.00 518.00 471.00" xmlns="http://www.w3.org/2000/svg" xmlns:xlink="http://www.w3.org/1999/xlink">
<g id="graph0" class="graph" transform="scale(1 1) rotate(0) translate(4 467)">
<title>IPlugAPIBase</title>
<!-- Node1 -->
<g id="node1" class="node">
<title>Node1</title>
<g id="a_node1"><a xlink:title="The base class of an IPlug plug&#45;in, which interacts with the different plug&#45;in APIs.">
<polygon fill="#999999" stroke="#666666" points="366,-241 288,-241 288,-222 366,-222 366,-241"/>
<text text-anchor="middle" x="327" y="-229" font-family="Helvetica,sans-Serif" font-size="10.00">IPlugAPIBase</text>
</a>
</g>
</g>
<!-- Node4 -->
<g id="node4" class="node">
<title>Node4</title>
<g id="a_node4"><a xlink:href="class_i_plug_a_a_x.html" target="_top" xlink:title="AAX API base class for an IPlug plug&#45;in.">
<polygon fill="white" stroke="#666666" points="485.5,-463 426.5,-463 426.5,-444 485.5,-444 485.5,-463"/>
<text text-anchor="middle" x="456" y="-451" font-family="Helvetica,sans-Serif" font-size="10.00">IPlugAAX</text>
</a>
</g>
</g>
<!-- Node1&#45;&gt;Node4 -->
<g id="edge3" class="edge">
<title>Node1&#45;&gt;Node4</title>
<path fill="none" stroke="#63b8ff" d="M329.73,-252.6C334.21,-293.57 349.79,-384.35 402,-435.5 408.53,-441.89 417.4,-446.02 426.03,-448.68"/>
<polygon fill="#63b8ff" stroke="#63b8ff" points="333.22,-252.29 328.78,-242.67 326.25,-252.96 333.22,-252.29"/>
</g>
<!-- Node5 -->
<g id="node5" class="node">
<title>Node5</title>
<g id="a_node5"><a xlink:href="class_i_plug_a_p_p.html" target="_top" xlink:title="Standalone application base class for an IPlug plug&#45;in.">
<polygon fill="white" stroke="#666666" points="485.5,-426 426.5,-426 426.5,-407 485.5,-407 485.5,-426"/>
<text text-anchor="middle" x="456" y="-414" font-family="Helvetica,sans-Serif" font-size="10.00">IPlugAPP</text>
</a>
</g>
</g>
<!-- Node1&#45;&gt;Node5 -->
<g id="edge4" class="edge">
<title>Node1&#45;&gt;Node5</title>
<path fill="none" stroke="#63b8ff" d="M331.69,-252.62C338.91,-287.8 358.22,-358.48 402,-398.5 408.67,-404.6 417.49,-408.64 426.01,-411.32"/>
<polygon fill="#63b8ff" stroke="#63b8ff" points="335.14,-252.04 329.83,-242.87 328.26,-253.35 335.14,-252.04"/>
</g>
<!-- Node6 -->
<g id="node6" class="node">
<title>Node6</title>
<g id="a_node6"><a xlink:href="class_i_plug_a_u.html" target="_top" xlink:title="AudioUnit v2 API base class for an IPlug plug&#45;in.">
<polygon fill="white" stroke="#666666" points="482.5,-389 429.5,-389 429.5,-370 482.5,-370 482.5,-389"/>
<text text-anchor="middle" x="456" y="-377" font-family="Helvetica,sans-Serif" font-size="10.00">IPlugAU</text>
</a>
</g>
</g>
<!-- Node1&#45;&gt;Node6 -->
<g id="edge5" class="edge">
<title>Node1&#45;&gt;Node6</title>
<path fill="none" stroke="#63b8ff" d="M334.41,-251.91C344.38,-280.42 366.26,-331.98 402,-361.5 409.72,-367.87 419.8,-372.03 429.1,-374.73"/>
<polygon fill="#63b8ff" stroke="#63b8ff" points="337.82,-251.06 331.34,-242.67 331.17,-253.27 337.82,-251.06"/>
</g>
<!-- Node7 -->
<g id="node7" class="node">
<title>Node7</title>
<g id="a_node7"><a xlink:href="class_i_plug_a_uv3.html" target="_top" xlink:title="AudioUnit v3 API base class for an IPlug plug&#45;in.">
<polygon fill="white" stroke="#666666" points="488,-352 424,-352 424,-333 488,-333 488,-352"/>
<text text-anchor="middle" x="456" y="-340" font-family="Helvetica,sans-Serif" font-size="10.00">IPlugAUv3</text>
</a>
</g>
</g>
<!-- Node1&#45;&gt;Node7 -->
<g id="edge6" class="edge">
<title>Node1&#45;&gt;Node7</title>
<path fill="none" stroke="#63b8ff" d="M339,-251.22C351.64,-272.2 374.26,-304.99 402,-324.5 408.44,-329.03 416.11,-332.49 423.59,-335.11"/>
<polygon fill="#63b8ff" stroke="#63b8ff" points="342.14,-249.66 334.08,-242.77 336.08,-253.17 342.14,-249.66"/>
</g>
<!-- Node8 -->
<g id="node8" class="node">
<title>Node8</title>
<g id="a_node8"><a xlink:href="class_i_plug_c_l_a_p.html" target="_top" xlink:title="CLAP API base class for an IPlug plug&#45;in.">
<polygon fill="white" stroke="#666666" points="488.5,-315 423.5,-315 423.5,-296 488.5,-296 488.5,-315"/>
<text text-anchor="middle" x="456" y="-303" font-family="Helvetica,sans-Serif" font-size="10.00">IPlugCLAP</text>
</a>
</g>
</g>
<!-- Node1&#45;&gt;Node8 -->
<g id="edge7" class="edge">
<title>Node1&#45;&gt;Node8</title>
<path fill="none" stroke="#63b8ff" d="M347.2,-248.78C361.49,-260.93 381.92,-276.85 402,-287.5 408.61,-291.01 416.04,-294.03 423.2,-296.55"/>
<polygon fill="#63b8ff" stroke="#63b8ff" points="349.75,-246.36 339.91,-242.43 345.15,-251.64 349.75,-246.36"/>
</g>
<!-- Node9 -->
<g id="node9" class="node">
<title>Node9</title>
<g id="a_node9"><a xlink:href="class_i_plug_v_s_t2.html" target="_top" xlink:title="VST2.4 API base class for an IPlug plug&#45;in.">
<polygon fill="white" stroke="#666666" points="488,-278 424,-278 424,-259 488,-259 488,-278"/>
<text text-anchor="middle" x="456" y="-266" font-family="Helvetica,sans-Serif" font-size="10.00">IPlugVST2</text>
</a>
</g>
</g>
<!-- Node1&#45;&gt;Node9 -->
<g id="edge8" class="edge">
<title>Node1&#45;&gt;Node9</title>
<path fill="none" stroke="#63b8ff" d="M372.8,-244.55C389.7,-249.48 408.54,-254.97 423.92,-259.45"/>
<polygon fill="#63b8ff" stroke="#63b8ff" points="374.07,-241.28 363.49,-241.84 372.11,-248 374.07,-241.28"/>
</g>
<!-- Node10 -->
<g id="node10" class="node">
<title>Node10</title>
<g id="a_node10"><a xlink:href="class_i_plug_v_s_t3.html" target="_top" xlink:title="VST3 base class for a non&#45;distributed IPlug VST3 plug&#45;in.">
<polygon fill="white" stroke="#666666" points="488,-241 424,-241 424,-222 488,-222 488,-241"/>
<text text-anchor="middle" x="456" y="-229" font-family="Helvetica,sans-Serif" font-size="10.00">IPlugVST3</text>
</a>
</g>
</g>
<!-- Node1&#45;&gt;Node10 -->
<g id="edge9" class="edge">
<title>Node1&#45;&gt;Node10</title>
<path fill="none" stroke="#63b8ff" d="M377.91,-231.5C393.27,-231.5 409.75,-231.5 423.51,-231.5"/>
<polygon fill="#63b8ff" stroke="#63b8ff" points="377.96,-228 367.96,-231.5 377.96,-235 377.96,-228"/>
</g>
<!-- Node11 -->
<g id="node11" class="node">
<title>Node11</title>
<g id="a_node11"><a xlink:href="class_i_plug_v_s_t3_controller.html" target="_top" xlink:title="VST3 Controller API&#45;base class for a distributed IPlug VST3 plug&#45;in.">
<polygon fill="white" stroke="#666666" points="508.5,-204 403.5,-204 403.5,-185 508.5,-185 508.5,-204"/>
<text text-anchor="middle" x="456" y="-192" font-family="Helvetica,sans-Serif" font-size="10.00">IPlugVST3Controller</text>
</a>
</g>
</g>
<!-- Node1&#45;&gt;Node11 -->
<g id="edge10" class="edge">
<title>Node1&#45;&gt;Node11</title>
<path fill="none" stroke="#63b8ff" d="M372.67,-218.49C388.5,-213.87 406.06,-208.76 420.87,-204.44"/>
<polygon fill="#63b8ff" stroke="#63b8ff" points="372.11,-215 363.49,-221.16 374.07,-221.72 372.11,-215"/>
</g>
<!-- Node12 -->
<g id="node12" class="node">
<title>Node12</title>
<g id="a_node12"><a xlink:href="class_i_plug_v_s_t3_processor.html" target="_top" xlink:title="VST3 Processor API&#45;base class for a distributed IPlug VST3 plug&#45;in.">
<polygon fill="white" stroke="#666666" points="510,-167 402,-167 402,-148 510,-148 510,-167"/>
<text text-anchor="middle" x="456" y="-155" font-family="Helvetica,sans-Serif" font-size="10.00">IPlugVST3Processor</text>
</a>
</g>
</g>
<!-- Node1&#45;&gt;Node12 -->
<g id="edge11" class="edge">
<title>Node1&#45;&gt;Node12</title>
<path fill="none" stroke="#63b8ff" d="M347.2,-214.22C361.49,-202.07 381.92,-186.15 402,-175.5 407.75,-172.45 414.12,-169.76 420.4,-167.46"/>
<polygon fill="#63b8ff" stroke="#63b8ff" points="345.15,-211.36 339.91,-220.57 349.75,-216.64 345.15,-211.36"/>
</g>
<!-- Node13 -->
<g id="node13" class="node">
<title>Node13</title>
<g id="a_node13"><a xlink:href="class_i_plug_w_a_m.html" target="_top" xlink:title="WebAudioModule (WAM) API base class.">
<polygon fill="white" stroke="#666666" points="487.5,-130 424.5,-130 424.5,-111 487.5,-111 487.5,-130"/>
<text text-anchor="middle" x="456" y="-118" font-family="Helvetica,sans-Serif" font-size="10.00">IPlugWAM</text>
</a>
</g>
</g>
<!-- Node1&#45;&gt;Node13 -->
<g id="edge12" class="edge">
<title>Node1&#45;&gt;Node13</title>
<path fill="none" stroke="#63b8ff" d="M339,-211.78C351.64,-190.8 374.26,-158.01 402,-138.5 408.6,-133.86 416.49,-130.34 424.14,-127.69"/>
<polygon fill="#63b8ff" stroke="#63b8ff" points="336.08,-209.83 334.08,-220.23 342.14,-213.34 336.08,-209.83"/>
</g>
<!-- Node14 -->
<g id="node14" class="node">
<title>Node14</title>
<g id="a_node14"><a xlink:href="class_i_plug_wasm_d_s_p.html" target="_top" xlink:title="Hybrid DSP class &#45; AudioWorklet processor for split DSP/UI builds.">
<polygon fill="white" stroke="#666666" points="499.5,-93 412.5,-93 412.5,-74 499.5,-74 499.5,-93"/>
<text text-anchor="middle" x="456" y="-81" font-family="Helvetica,sans-Serif" font-size="10.00">IPlugWasmDSP</text>
</a>
</g>
</g>
<!-- Node1&#45;&gt;Node14 -->
<g id="edge13" class="edge">
<title>Node1&#45;&gt;Node14</title>
<path fill="none" stroke="#63b8ff" d="M334.41,-211.09C344.38,-182.58 366.26,-131.02 402,-101.5 405.9,-98.28 410.4,-95.63 415.09,-93.44"/>
<polygon fill="#63b8ff" stroke="#63b8ff" points="331.17,-209.73 331.34,-220.33 337.82,-211.94 331.17,-209.73"/>
</g>
<!-- Node15 -->
<g id="node15" class="node">
<title>Node15</title>
<g id="a_node15"><a xlink:href="class_i_plug_wasm_u_i.html" target="_top" xlink:title="Hybrid UI class &#45; IGraphics side for split DSP/UI builds.">
<polygon fill="white" stroke="#666666" points="494.5,-56 417.5,-56 417.5,-37 494.5,-37 494.5,-56"/>
<text text-anchor="middle" x="456" y="-44" font-family="Helvetica,sans-Serif" font-size="10.00">IPlugWasmUI</text>
</a>
</g>
</g>
<!-- Node1&#45;&gt;Node15 -->
<g id="edge14" class="edge">
<title>Node1&#45;&gt;Node15</title>
<path fill="none" stroke="#63b8ff" d="M331.69,-210.38C338.91,-175.2 358.22,-104.52 402,-64.5 406.38,-60.5 411.67,-57.39 417.21,-54.96"/>
<polygon fill="#63b8ff" stroke="#63b8ff" points="328.26,-209.65 329.83,-220.13 335.14,-210.96 328.26,-209.65"/>
</g>
<!-- Node16 -->
<g id="node16" class="node">
<title>Node16</title>
<g id="a_node16"><a xlink:href="class_i_plug_web.html" target="_top" xlink:title="This is used for the UI &quot;editor&quot; &#45; controller side of a WAM or remote editors that communicate with d...">
<polygon fill="white" stroke="#666666" points="485.5,-19 426.5,-19 426.5,0 485.5,0 485.5,-19"/>
<text text-anchor="middle" x="456" y="-7" font-family="Helvetica,sans-Serif" font-size="10.00">IPlugWeb</text>
</a>
</g>
</g>
<!-- Node1&#45;&gt;Node16 -->
<g id="edge15" class="edge">
<title>Node1&#45;&gt;Node16</title>
<path fill="none" stroke="#63b8ff" d="M329.73,-210.4C334.21,-169.43 349.79,-78.65 402,-27.5 408.53,-21.11 417.4,-16.98 426.03,-14.32"/>
<polygon fill="#63b8ff" stroke="#63b8ff" points="326.25,-210.04 328.78,-220.33 333.22,-210.71 326.25,-210.04"/>
</g>
<!-- Node2 -->
<g id="node2" class="node">
<title>Node2</title>
<g id="a_node2"><a xlink:href="class_i_plugin_base.html" target="_top" xlink:title="Base class that contains plug&#45;in info and state manipulation methods.">
<polygon fill="white" stroke="#666666" points="252,-241 183,-241 183,-222 252,-222 252,-241"/>
<text text-anchor="middle" x="217.5" y="-229" font-family="Helvetica,sans-Serif" font-size="10.00">IPluginBase</text>
</a>
</g>
</g>
<!-- Node2&#45;&gt;Node1 -->
<g id="edge1" class="edge">
<title>Node2&#45;&gt;Node1</title>
<path fill="none" stroke="#63b8ff" d="M263.6,-231.5C271.56,-231.5 279.77,-231.5 287.53,-231.5"/>
<polygon fill="#63b8ff" stroke="#63b8ff" points="263.73,-228 253.73,-231.5 263.73,-235 263.73,-228"/>
</g>
<!-- Node3 -->
<g id="node3" class="node">
<title>Node3</title>
<g id="a_node3"><a xlink:title=" ">
<polygon fill="white" stroke="#bfbfbf" points="147,-241 0,-241 0,-222 147,-222 147,-241"/>
<text text-anchor="middle" x="73.5" y="-229" font-family="Helvetica,sans-Serif" font-size="10.00">EDITOR_DELEGATE_CLASS</text>
</a>
</g>
</g>
<!-- Node3&#45;&gt;Node2 -->
<g id="edge2" class="edge">
<title>Node3&#45;&gt;Node2</title>
<path fill="none" stroke="#63b8ff" d="M158.45,-231.5C166.96,-231.5 175.21,-231.5 182.7,-231.5"/>
<polygon fill="#63b8ff" stroke="#63b8ff" points="158.68,-228 148.68,-231.5 158.68,-235 158.68,-228"/>
</g>
</g>
</svg>
