<?xml version="1.0" encoding="UTF-8" standalone="no"?>
<!DOCTYPE svg PUBLIC "-//W3C//DTD SVG 1.1//EN"
 "http://www.w3.org/Graphics/SVG/1.1/DTD/svg11.dtd">
<!-- Generated by graphviz version 7.0.5 (20221223.1930)
 -->
<!-- Title: IContainerBase Pages: 1 -->
<svg width="543pt" height="397pt"
 viewBox="0.00 0.00 543.00 397.00" xmlns="http://www.w3.org/2000/svg" xmlns:xlink="http://www.w3.org/1999/xlink">
<g id="graph0" class="graph" transform="scale(1 1) rotate(0) translate(4 393)">
<title>IContainerBase</title>
<!-- Node1 -->
<g id="node1" class="node">
<title>Node1</title>
<g id="a_node1"><a xlink:title="IContainerBase allows a control to nest sub controls and it clips the drawing of those subcontrols In...">
<polygon fill="#999999" stroke="#666666" points="169,-185 86,-185 86,-166 169,-166 169,-185"/>
<text text-anchor="middle" x="127.5" y="-173" font-family="Helvetica,sans-Serif" font-size="10.00">IContainerBase</text>
</a>
</g>
</g>
<!-- Node3 -->
<g id="node3" class="node">
<title>Node3</title>
<g id="a_node3"><a xlink:href="class_i_dir_browse_control_base.html" target="_top" xlink:title="An abstract IControl base class that you can inherit from in order to make a control that pops up a m...">
<polygon fill="white" stroke="#666666" points="339.5,-352 221.5,-352 221.5,-333 339.5,-333 339.5,-352"/>
<text text-anchor="middle" x="280.5" y="-340" font-family="Helvetica,sans-Serif" font-size="10.00">IDirBrowseControlBase</text>
</a>
</g>
</g>
<!-- Node1&#45;&gt;Node3 -->
<g id="edge2" class="edge">
<title>Node1&#45;&gt;Node3</title>
<path fill="none" stroke="#63b8ff" d="M133.3,-195.95C141.95,-228.12 163.24,-290.3 205,-323.5 209.81,-327.32 215.29,-330.38 221.05,-332.83"/>
<polygon fill="#63b8ff" stroke="#63b8ff" points="136.8,-195.52 130.96,-186.68 130.02,-197.23 136.8,-195.52"/>
</g>
<!-- Node6 -->
<g id="node6" class="node">
<title>Node6</title>
<g id="a_node6"><a xlink:href="class_i_panel_control.html" target="_top" xlink:title="A basic control to fill a rectangle with a color or gradient.">
<polygon fill="white" stroke="#666666" points="318,-315 243,-315 243,-296 318,-296 318,-315"/>
<text text-anchor="middle" x="280.5" y="-303" font-family="Helvetica,sans-Serif" font-size="10.00">IPanelControl</text>
</a>
</g>
</g>
<!-- Node1&#45;&gt;Node6 -->
<g id="edge5" class="edge">
<title>Node1&#45;&gt;Node6</title>
<path fill="none" stroke="#63b8ff" d="M137,-195.79C148.61,-220.97 171.85,-263.4 205,-286.5 216.06,-294.21 229.99,-298.79 242.8,-301.51"/>
<polygon fill="#63b8ff" stroke="#63b8ff" points="140.21,-194.39 132.98,-186.65 133.81,-197.22 140.21,-194.39"/>
</g>
<!-- Node8 -->
<g id="node8" class="node">
<title>Node8</title>
<g id="a_node8"><a xlink:href="class_i_v_baked_preset_manager_control.html" target="_top" xlink:title="A &quot;meta control&quot; for a &quot;preset manager&quot; for &quot;baked in&quot; factory presets It adds several child buttons.">
<polygon fill="white" stroke="#666666" points="356,-278 205,-278 205,-259 356,-259 356,-278"/>
<text text-anchor="middle" x="280.5" y="-266" font-family="Helvetica,sans-Serif" font-size="10.00">IVBakedPresetManagerControl</text>
</a>
</g>
</g>
<!-- Node1&#45;&gt;Node8 -->
<g id="edge7" class="edge">
<title>Node1&#45;&gt;Node8</title>
<path fill="none" stroke="#63b8ff" d="M142.63,-193.82C156.65,-210.75 179.68,-235.36 205,-249.5 211.53,-253.14 218.76,-256.1 226.09,-258.5"/>
<polygon fill="#63b8ff" stroke="#63b8ff" points="145.74,-192.1 136.75,-186.49 140.28,-196.48 145.74,-192.1"/>
</g>
<!-- Node9 -->
<g id="node9" class="node">
<title>Node9</title>
<g id="a_node9"><a xlink:href="class_i_v_knob_control_with_marks.html" target="_top" xlink:title=" ">
<polygon fill="white" stroke="#bfbfbf" points="343.5,-241 217.5,-241 217.5,-222 343.5,-222 343.5,-241"/>
<text text-anchor="middle" x="280.5" y="-229" font-family="Helvetica,sans-Serif" font-size="10.00">IVKnobControlWithMarks</text>
</a>
</g>
</g>
<!-- Node1&#45;&gt;Node9 -->
<g id="edge8" class="edge">
<title>Node1&#45;&gt;Node9</title>
<path fill="none" stroke="#63b8ff" d="M156.42,-190.68C170.66,-197.98 188.44,-206.45 205,-212.5 214.4,-215.93 224.69,-218.99 234.54,-221.59"/>
<polygon fill="#63b8ff" stroke="#63b8ff" points="158.12,-187.62 147.63,-186.08 154.87,-193.82 158.12,-187.62"/>
</g>
<!-- Node10 -->
<g id="node10" class="node">
<title>Node10</title>
<g id="a_node10"><a xlink:href="class_i_v_menu_button_control.html" target="_top" xlink:title="A vector button that pops up a menu.">
<polygon fill="white" stroke="#666666" points="335.5,-204 225.5,-204 225.5,-185 335.5,-185 335.5,-204"/>
<text text-anchor="middle" x="280.5" y="-192" font-family="Helvetica,sans-Serif" font-size="10.00">IVMenuButtonControl</text>
</a>
</g>
</g>
<!-- Node1&#45;&gt;Node10 -->
<g id="edge9" class="edge">
<title>Node1&#45;&gt;Node10</title>
<path fill="none" stroke="#63b8ff" d="M180.61,-182.06C195.04,-183.87 210.73,-185.85 225.27,-187.68"/>
<polygon fill="#63b8ff" stroke="#63b8ff" points="181.22,-178.61 170.86,-180.83 180.35,-185.55 181.22,-178.61"/>
</g>
<!-- Node11 -->
<g id="node11" class="node">
<title>Node11</title>
<g id="a_node11"><a xlink:href="class_i_v_number_box_control.html" target="_top" xlink:title="A &quot;meta control&quot; for a number box with an Inc/Dec button It adds several child buttons if buttons = t...">
<polygon fill="white" stroke="#666666" points="334.5,-167 226.5,-167 226.5,-148 334.5,-148 334.5,-167"/>
<text text-anchor="middle" x="280.5" y="-155" font-family="Helvetica,sans-Serif" font-size="10.00">IVNumberBoxControl</text>
</a>
</g>
</g>
<!-- Node1&#45;&gt;Node11 -->
<g id="edge10" class="edge">
<title>Node1&#45;&gt;Node11</title>
<path fill="none" stroke="#63b8ff" d="M180.79,-169.27C195.45,-167.52 211.39,-165.62 226.11,-163.86"/>
<polygon fill="#63b8ff" stroke="#63b8ff" points="180.38,-165.79 170.87,-170.45 181.21,-172.74 180.38,-165.79"/>
</g>
<!-- Node12 -->
<g id="node12" class="node">
<title>Node12</title>
<g id="a_node12"><a xlink:href="class_i_v_panel_control.html" target="_top" xlink:title="A panel control which can be styled with emboss etc.">
<polygon fill="white" stroke="#666666" points="321.5,-130 239.5,-130 239.5,-111 321.5,-111 321.5,-130"/>
<text text-anchor="middle" x="280.5" y="-118" font-family="Helvetica,sans-Serif" font-size="10.00">IVPanelControl</text>
</a>
</g>
</g>
<!-- Node1&#45;&gt;Node12 -->
<g id="edge11" class="edge">
<title>Node1&#45;&gt;Node12</title>
<path fill="none" stroke="#63b8ff" d="M156.39,-160.23C170.62,-152.9 188.4,-144.44 205,-138.5 215.9,-134.6 227.99,-131.27 239.21,-128.58"/>
<polygon fill="#63b8ff" stroke="#63b8ff" points="154.83,-157.1 147.61,-164.85 158.09,-163.29 154.83,-157.1"/>
</g>
<!-- Node13 -->
<g id="node13" class="node">
<title>Node13</title>
<g id="a_node13"><a xlink:href="class_i_v_slider_control_with_marks.html" target="_top" xlink:title=" ">
<polygon fill="white" stroke="#bfbfbf" points="344.5,-93 216.5,-93 216.5,-74 344.5,-74 344.5,-93"/>
<text text-anchor="middle" x="280.5" y="-81" font-family="Helvetica,sans-Serif" font-size="10.00">IVSliderControlWithMarks</text>
</a>
</g>
</g>
<!-- Node1&#45;&gt;Node13 -->
<g id="edge12" class="edge">
<title>Node1&#45;&gt;Node13</title>
<path fill="none" stroke="#63b8ff" d="M142.59,-157.11C156.59,-140.13 179.59,-115.48 205,-101.5 210.83,-98.29 217.22,-95.65 223.74,-93.48"/>
<polygon fill="#63b8ff" stroke="#63b8ff" points="140.22,-154.46 136.72,-164.46 145.69,-158.83 140.22,-154.46"/>
</g>
<!-- Node14 -->
<g id="node14" class="node">
<title>Node14</title>
<g id="a_node14"><a xlink:href="class_i_v_tabbed_page_base.html" target="_top" xlink:title="A control used a the base class for a tabbed page of subcontrols.">
<polygon fill="white" stroke="#666666" points="332.5,-56 228.5,-56 228.5,-37 332.5,-37 332.5,-56"/>
<text text-anchor="middle" x="280.5" y="-44" font-family="Helvetica,sans-Serif" font-size="10.00">IVTabbedPageBase</text>
</a>
</g>
</g>
<!-- Node1&#45;&gt;Node14 -->
<g id="edge13" class="edge">
<title>Node1&#45;&gt;Node14</title>
<path fill="none" stroke="#63b8ff" d="M136.8,-155.49C148.31,-130.28 171.55,-87.49 205,-64.5 211.91,-59.75 219.93,-56.25 228.09,-53.67"/>
<polygon fill="#63b8ff" stroke="#63b8ff" points="133.74,-153.74 132.95,-164.31 140.16,-156.54 133.74,-153.74"/>
</g>
<!-- Node15 -->
<g id="node15" class="node">
<title>Node15</title>
<g id="a_node15"><a xlink:href="class_i_v_tabbed_pages_control.html" target="_top" xlink:title="A control to manage tabbed pages of sub controls.">
<polygon fill="white" stroke="#666666" points="339,-19 222,-19 222,0 339,0 339,-19"/>
<text text-anchor="middle" x="280.5" y="-7" font-family="Helvetica,sans-Serif" font-size="10.00">IVTabbedPagesControl</text>
</a>
</g>
</g>
<!-- Node1&#45;&gt;Node15 -->
<g id="edge14" class="edge">
<title>Node1&#45;&gt;Node15</title>
<path fill="none" stroke="#63b8ff" d="M133.25,-154.99C141.83,-122.73 163.03,-60.43 205,-27.5 210.02,-23.56 215.78,-20.46 221.83,-18.03"/>
<polygon fill="#63b8ff" stroke="#63b8ff" points="129.96,-153.74 130.93,-164.29 136.75,-155.43 129.96,-153.74"/>
</g>
<!-- Node2 -->
<g id="node2" class="node">
<title>Node2</title>
<g id="a_node2"><a xlink:href="class_i_control.html" target="_top" xlink:title="The lowest level base class of an IGraphics control.">
<polygon fill="white" stroke="#666666" points="50,-185 0,-185 0,-166 50,-166 50,-185"/>
<text text-anchor="middle" x="25" y="-173" font-family="Helvetica,sans-Serif" font-size="10.00">IControl</text>
</a>
</g>
</g>
<!-- Node2&#45;&gt;Node1 -->
<g id="edge1" class="edge">
<title>Node2&#45;&gt;Node1</title>
<path fill="none" stroke="#63b8ff" d="M61.59,-175.5C69.34,-175.5 77.6,-175.5 85.54,-175.5"/>
<polygon fill="#63b8ff" stroke="#63b8ff" points="61.84,-172 51.84,-175.5 61.84,-179 61.84,-172"/>
</g>
<!-- Node4 -->
<g id="node4" class="node">
<title>Node4</title>
<g id="a_node4"><a xlink:href="class_i_v_disk_preset_manager_control.html" target="_top" xlink:title="A &quot;meta control&quot; for a &quot;preset manager&quot; for disk&#45;based preset files It adds several child buttons.">
<polygon fill="white" stroke="#666666" points="535,-389 392,-389 392,-370 535,-370 535,-389"/>
<text text-anchor="middle" x="463.5" y="-377" font-family="Helvetica,sans-Serif" font-size="10.00">IVDiskPresetManagerControl</text>
</a>
</g>
</g>
<!-- Node3&#45;&gt;Node4 -->
<g id="edge3" class="edge">
<title>Node3&#45;&gt;Node4</title>
<path fill="none" stroke="#63b8ff" d="M341.28,-354.72C364.83,-359.53 391.53,-364.99 413.86,-369.56"/>
<polygon fill="#63b8ff" stroke="#63b8ff" points="341.99,-351.29 331.49,-352.72 340.58,-358.15 341.99,-351.29"/>
</g>
<!-- Node5 -->
<g id="node5" class="node">
<title>Node5</title>
<g id="a_node5"><a xlink:href="class_test_dir_browse_control.html" target="_top" xlink:title="Control to test IDirBrowseControlBase.">
<polygon fill="white" stroke="#666666" points="519.5,-352 407.5,-352 407.5,-333 519.5,-333 519.5,-352"/>
<text text-anchor="middle" x="463.5" y="-340" font-family="Helvetica,sans-Serif" font-size="10.00">TestDirBrowseControl</text>
</a>
</g>
</g>
<!-- Node3&#45;&gt;Node5 -->
<g id="edge4" class="edge">
<title>Node3&#45;&gt;Node5</title>
<path fill="none" stroke="#63b8ff" d="M351.12,-342.5C369.67,-342.5 389.45,-342.5 407.12,-342.5"/>
<polygon fill="#63b8ff" stroke="#63b8ff" points="351.28,-339 341.28,-342.5 351.28,-346 351.28,-339"/>
</g>
<!-- Node7 -->
<g id="node7" class="node">
<title>Node7</title>
<g id="a_node7"><a xlink:href="class_i_about_box_control.html" target="_top" xlink:title="A &quot;meta control&quot; which you can attach child controls to for &quot;about box&quot; info and optionally animate f...">
<polygon fill="white" stroke="#666666" points="509.5,-315 417.5,-315 417.5,-296 509.5,-296 509.5,-315"/>
<text text-anchor="middle" x="463.5" y="-303" font-family="Helvetica,sans-Serif" font-size="10.00">IAboutBoxControl</text>
</a>
</g>
</g>
<!-- Node6&#45;&gt;Node7 -->
<g id="edge6" class="edge">
<title>Node6&#45;&gt;Node7</title>
<path fill="none" stroke="#63b8ff" d="M329.35,-305.5C356.57,-305.5 390.48,-305.5 417.26,-305.5"/>
<polygon fill="#63b8ff" stroke="#63b8ff" points="329.64,-302 319.64,-305.5 329.64,-309 329.64,-302"/>
</g>
</g>
</svg>
