<?xml version="1.0" encoding="UTF-8" standalone="no"?>
<!DOCTYPE svg PUBLIC "-//W3C//DTD SVG 1.1//EN"
 "http://www.w3.org/Graphics/SVG/1.1/DTD/svg11.dtd">
<!-- Generated by graphviz version 7.0.5 (20221223.1930)
 -->
<!-- Title: IControl Pages: 1 -->
<svg width="351pt" height="1741pt"
 viewBox="0.00 0.00 351.00 1741.00" xmlns="http://www.w3.org/2000/svg" xmlns:xlink="http://www.w3.org/1999/xlink">
<g id="graph0" class="graph" transform="scale(1 1) rotate(0) translate(4 1737)">
<title>IControl</title>
<!-- Node1 -->
<g id="node1" class="node">
<title>Node1</title>
<g id="a_node1"><a xlink:title="The lowest level base class of an IGraphics control.">
<polygon fill="#999999" stroke="#666666" points="50,-882 0,-882 0,-863 50,-863 50,-882"/>
<text text-anchor="middle" x="25" y="-870" font-family="Helvetica,sans-Serif" font-size="10.00">IControl</text>
</a>
</g>
</g>
<!-- Node2 -->
<g id="node2" class="node">
<title>Node2</title>
<g id="a_node2"><a xlink:href="class_g_f_x_label_control.html" target="_top" xlink:title="Control to display the graphics backend.">
<polygon fill="white" stroke="#666666" points="201.5,-1733 109.5,-1733 109.5,-1714 201.5,-1714 201.5,-1733"/>
<text text-anchor="middle" x="155.5" y="-1721" font-family="Helvetica,sans-Serif" font-size="10.00">GFXLabelControl</text>
</a>
</g>
</g>
<!-- Node1&#45;&gt;Node2 -->
<g id="edge1" class="edge">
<title>Node1&#45;&gt;Node2</title>
<path fill="none" stroke="#63b8ff" d="M26.08,-893.59C26.72,-1016.89 32.61,-1641.19 86,-1705.5 91.89,-1712.6 100.21,-1717.08 109.03,-1719.87"/>
<polygon fill="#63b8ff" stroke="#63b8ff" points="29.58,-893.93 26.03,-883.94 22.58,-893.96 29.58,-893.93"/>
</g>
<!-- Node3 -->
<g id="node3" class="node">
<title>Node3</title>
<g id="a_node3"><a xlink:href="class_i_bitmap_control.html" target="_top" xlink:title="A basic control to draw a bitmap, or one frame of a stacked bitmap depending on the current value.">
<polygon fill="#fff0f0" stroke="red" points="196,-1696 115,-1696 115,-1677 196,-1677 196,-1696"/>
<text text-anchor="middle" x="155.5" y="-1684" font-family="Helvetica,sans-Serif" font-size="10.00">IBitmapControl</text>
</a>
</g>
</g>
<!-- Node1&#45;&gt;Node3 -->
<g id="edge2" class="edge">
<title>Node1&#45;&gt;Node3</title>
<path fill="none" stroke="#63b8ff" d="M26.15,-893.75C27.22,-1014.15 35.02,-1607.3 86,-1668.5 93.16,-1677.1 103.89,-1681.86 114.74,-1684.42"/>
<polygon fill="#63b8ff" stroke="#63b8ff" points="29.65,-893.75 26.07,-883.77 22.65,-893.8 29.65,-893.75"/>
</g>
<!-- Node6 -->
<g id="node5" class="node">
<title>Node6</title>
<g id="a_node5"><a xlink:href="class_i_bubble_control.html" target="_top" xlink:title="A special control to draw contextual info as a slider etc is moved If used in the main IControl stack...">
<polygon fill="white" stroke="#666666" points="195.5,-1659 115.5,-1659 115.5,-1640 195.5,-1640 195.5,-1659"/>
<text text-anchor="middle" x="155.5" y="-1647" font-family="Helvetica,sans-Serif" font-size="10.00">IBubbleControl</text>
</a>
</g>
</g>
<!-- Node1&#45;&gt;Node6 -->
<g id="edge4" class="edge">
<title>Node1&#45;&gt;Node6</title>
<path fill="none" stroke="#63b8ff" d="M26.23,-893.5C27.72,-1009.95 37.38,-1573.34 86,-1631.5 93.26,-1640.18 104.14,-1644.94 115.12,-1647.49"/>
<polygon fill="#63b8ff" stroke="#63b8ff" points="29.74,-893.81 26.12,-883.85 22.74,-893.89 29.74,-893.81"/>
</g>
<!-- Node7 -->
<g id="node6" class="node">
<title>Node7</title>
<g id="a_node6"><a xlink:href="class_i_button_control_base.html" target="_top" xlink:title="A base class for buttons/momentary switches &#45; cannot be linked to parameters.">
<polygon fill="#fff0f0" stroke="red" points="206,-1622 105,-1622 105,-1603 206,-1603 206,-1622"/>
<text text-anchor="middle" x="155.5" y="-1610" font-family="Helvetica,sans-Serif" font-size="10.00">IButtonControlBase</text>
</a>
</g>
</g>
<!-- Node1&#45;&gt;Node7 -->
<g id="edge5" class="edge">
<title>Node1&#45;&gt;Node7</title>
<path fill="none" stroke="#63b8ff" d="M26.33,-893.87C28.28,-1007.67 39.81,-1539.48 86,-1594.5 90.9,-1600.34 97.45,-1604.41 104.55,-1607.22"/>
<polygon fill="#63b8ff" stroke="#63b8ff" points="29.83,-893.83 26.17,-883.88 22.83,-893.94 29.83,-893.83"/>
</g>
<!-- Node11 -->
<g id="node7" class="node">
<title>Node11</title>
<g id="a_node7"><a xlink:href="class_i_color_picker_control.html" target="_top" xlink:title="A control for choosing a color.">
<polygon fill="white" stroke="#666666" points="206,-1585 105,-1585 105,-1566 206,-1566 206,-1585"/>
<text text-anchor="middle" x="155.5" y="-1573" font-family="Helvetica,sans-Serif" font-size="10.00">IColorPickerControl</text>
</a>
</g>
</g>
<!-- Node1&#45;&gt;Node11 -->
<g id="edge6" class="edge">
<title>Node1&#45;&gt;Node11</title>
<path fill="none" stroke="#63b8ff" d="M26.43,-893.8C28.84,-1003.91 42.18,-1505.54 86,-1557.5 90.91,-1563.33 97.47,-1567.39 104.57,-1570.2"/>
<polygon fill="#63b8ff" stroke="#63b8ff" points="29.93,-893.8 26.22,-883.88 22.93,-893.95 29.93,-893.8"/>
</g>
<!-- Node12 -->
<g id="node8" class="node">
<title>Node12</title>
<g id="a_node8"><a xlink:href="class_i_container_base.html" target="_top" xlink:title="IContainerBase allows a control to nest sub controls and it clips the drawing of those subcontrols In...">
<polygon fill="#fff0f0" stroke="red" points="197,-1548 114,-1548 114,-1529 197,-1529 197,-1548"/>
<text text-anchor="middle" x="155.5" y="-1536" font-family="Helvetica,sans-Serif" font-size="10.00">IContainerBase</text>
</a>
</g>
</g>
<!-- Node1&#45;&gt;Node12 -->
<g id="edge7" class="edge">
<title>Node1&#45;&gt;Node12</title>
<path fill="none" stroke="#63b8ff" d="M26.54,-893.64C29.43,-999.79 44.54,-1471.58 86,-1520.5 93,-1528.75 103.28,-1533.46 113.76,-1536.08"/>
<polygon fill="#63b8ff" stroke="#63b8ff" points="30.04,-893.74 26.28,-883.83 23.04,-893.92 30.04,-893.74"/>
</g>
<!-- Node25 -->
<g id="node9" class="node">
<title>Node25</title>
<g id="a_node9"><a xlink:href="class_i_corner_resizer_control.html" target="_top" xlink:title="A control for resizing the plug&#45;in window by clicking and dragging in the bottom right&#45;hand corner Th...">
<polygon fill="white" stroke="#666666" points="211,-1511 100,-1511 100,-1492 211,-1492 211,-1511"/>
<text text-anchor="middle" x="155.5" y="-1499" font-family="Helvetica,sans-Serif" font-size="10.00">ICornerResizerControl</text>
</a>
</g>
</g>
<!-- Node1&#45;&gt;Node25 -->
<g id="edge8" class="edge">
<title>Node1&#45;&gt;Node25</title>
<path fill="none" stroke="#63b8ff" d="M26.67,-893.7C30.07,-996.22 46.92,-1437.65 86,-1483.5 89.75,-1487.9 94.43,-1491.29 99.58,-1493.89"/>
<polygon fill="#63b8ff" stroke="#63b8ff" points="30.16,-893.62 26.34,-883.74 23.17,-893.85 30.16,-893.62"/>
</g>
<!-- Node26 -->
<g id="node10" class="node">
<title>Node26</title>
<g id="a_node10"><a xlink:href="class_i_f_p_s_display_control.html" target="_top" xlink:title="Performance display meter, based on code from NanoVG This is a special control that lives outside the...">
<polygon fill="white" stroke="#666666" points="206,-1474 105,-1474 105,-1455 206,-1455 206,-1474"/>
<text text-anchor="middle" x="155.5" y="-1462" font-family="Helvetica,sans-Serif" font-size="10.00">IFPSDisplayControl</text>
</a>
</g>
</g>
<!-- Node1&#45;&gt;Node26 -->
<g id="edge9" class="edge">
<title>Node1&#45;&gt;Node26</title>
<path fill="none" stroke="#63b8ff" d="M26.79,-893.33C30.7,-991.35 49.24,-1403.65 86,-1446.5 90.96,-1452.29 97.54,-1456.33 104.66,-1459.13"/>
<polygon fill="#63b8ff" stroke="#63b8ff" points="30.3,-893.46 26.41,-883.6 23.31,-893.73 30.3,-893.46"/>
</g>
<!-- Node27 -->
<g id="node11" class="node">
<title>Node27</title>
<g id="a_node11"><a xlink:href="class_i_graphics_live_edit.html" target="_top" xlink:title="A control to enable live modification of control layout in an IGraphics context in debug builds This ...">
<polygon fill="white" stroke="#666666" points="202.5,-1437 108.5,-1437 108.5,-1418 202.5,-1418 202.5,-1437"/>
<text text-anchor="middle" x="155.5" y="-1425" font-family="Helvetica,sans-Serif" font-size="10.00">IGraphicsLiveEdit</text>
</a>
</g>
</g>
<!-- Node1&#45;&gt;Node27 -->
<g id="edge10" class="edge">
<title>Node1&#45;&gt;Node27</title>
<path fill="none" stroke="#63b8ff" d="M26.97,-893.75C31.48,-988.54 51.66,-1369.75 86,-1409.5 91.79,-1416.2 99.74,-1420.55 108.18,-1423.35"/>
<polygon fill="#63b8ff" stroke="#63b8ff" points="30.47,-893.68 26.51,-883.86 23.48,-894.01 30.47,-893.68"/>
</g>
<!-- Node28 -->
<g id="node12" class="node">
<title>Node28</title>
<g id="a_node12"><a xlink:href="class_i_knob_control_base.html" target="_top" xlink:title="A base class for knob/dial controls, to handle mouse action and Sender.">
<polygon fill="#fff0f0" stroke="red" points="203,-1400 108,-1400 108,-1381 203,-1381 203,-1400"/>
<text text-anchor="middle" x="155.5" y="-1388" font-family="Helvetica,sans-Serif" font-size="10.00">IKnobControlBase</text>
</a>
</g>
</g>
<!-- Node1&#45;&gt;Node28 -->
<g id="edge11" class="edge">
<title>Node1&#45;&gt;Node28</title>
<path fill="none" stroke="#63b8ff" d="M25.5,-893.73C23.94,-979.53 22.5,-1299.61 86,-1372.5 91.65,-1378.99 99.34,-1383.28 107.52,-1386.08"/>
<polygon fill="#63b8ff" stroke="#63b8ff" points="29,-894.01 25.7,-883.94 22,-893.87 29,-894.01"/>
</g>
<!-- Node41 -->
<g id="node13" class="node">
<title>Node41</title>
<g id="a_node13"><a xlink:href="class_i_l_e_d_control.html" target="_top" xlink:title="Glowing LED control.">
<polygon fill="white" stroke="#666666" points="190,-1363 121,-1363 121,-1344 190,-1344 190,-1363"/>
<text text-anchor="middle" x="155.5" y="-1351" font-family="Helvetica,sans-Serif" font-size="10.00">ILEDControl</text>
</a>
</g>
</g>
<!-- Node1&#45;&gt;Node41 -->
<g id="edge12" class="edge">
<title>Node1&#45;&gt;Node41</title>
<path fill="none" stroke="#63b8ff" d="M25.73,-893.96C25.14,-976.02 27.25,-1268.7 86,-1335.5 94.69,-1345.38 108.08,-1350.15 120.73,-1352.35"/>
<polygon fill="#63b8ff" stroke="#63b8ff" points="29.23,-894.02 25.83,-883.99 22.23,-893.95 29.23,-894.02"/>
</g>
<!-- Node42 -->
<g id="node14" class="node">
<title>Node42</title>
<g id="a_node14"><a xlink:href="class_i_lambda_control.html" target="_top" xlink:title="A control that can be specialised with a lambda function, for quick experiments without making a cust...">
<polygon fill="white" stroke="#666666" points="198.5,-1326 112.5,-1326 112.5,-1307 198.5,-1307 198.5,-1326"/>
<text text-anchor="middle" x="155.5" y="-1314" font-family="Helvetica,sans-Serif" font-size="10.00">ILambdaControl</text>
</a>
</g>
</g>
<!-- Node1&#45;&gt;Node42 -->
<g id="edge13" class="edge">
<title>Node1&#45;&gt;Node42</title>
<path fill="none" stroke="#63b8ff" d="M26,-893.48C26.41,-970.68 31.81,-1237.57 86,-1298.5 92.78,-1306.13 102.37,-1310.7 112.22,-1313.4"/>
<polygon fill="#63b8ff" stroke="#63b8ff" points="29.5,-893.93 25.97,-883.94 22.5,-893.95 29.5,-893.93"/>
</g>
<!-- Node43 -->
<g id="node15" class="node">
<title>Node43</title>
<g id="a_node15"><a xlink:href="class_i_popup_menu_control.html" target="_top" xlink:title="A base control for a pop&#45;up menu/drop&#45;down list that stays within the bounds of the IGraphics context...">
<polygon fill="white" stroke="#666666" points="206.5,-1289 104.5,-1289 104.5,-1270 206.5,-1270 206.5,-1289"/>
<text text-anchor="middle" x="155.5" y="-1277" font-family="Helvetica,sans-Serif" font-size="10.00">IPopupMenuControl</text>
</a>
</g>
</g>
<!-- Node1&#45;&gt;Node43 -->
<g id="edge14" class="edge">
<title>Node1&#45;&gt;Node43</title>
<path fill="none" stroke="#63b8ff" d="M26.31,-893.5C27.81,-966.32 36.48,-1206.55 86,-1261.5 90.94,-1266.98 97.33,-1270.88 104.21,-1273.64"/>
<polygon fill="#63b8ff" stroke="#63b8ff" points="29.81,-893.72 26.14,-883.78 22.81,-893.84 29.81,-893.72"/>
</g>
<!-- Node44 -->
<g id="node16" class="node">
<title>Node44</title>
<g id="a_node16"><a xlink:href="class_i_s_v_g_control.html" target="_top" xlink:title="A basic control to draw an SVG image to the screen.">
<polygon fill="white" stroke="#666666" points="191,-1252 120,-1252 120,-1233 191,-1233 191,-1252"/>
<text text-anchor="middle" x="155.5" y="-1240" font-family="Helvetica,sans-Serif" font-size="10.00">ISVGControl</text>
</a>
</g>
</g>
<!-- Node1&#45;&gt;Node44 -->
<g id="edge15" class="edge">
<title>Node1&#45;&gt;Node44</title>
<path fill="none" stroke="#63b8ff" d="M26.69,-893.68C29.35,-962.08 41.17,-1175.53 86,-1224.5 94.55,-1233.84 107.31,-1238.58 119.51,-1240.91"/>
<polygon fill="#63b8ff" stroke="#63b8ff" points="30.19,-893.72 26.34,-883.85 23.2,-893.97 30.19,-893.72"/>
</g>
<!-- Node45 -->
<g id="node17" class="node">
<title>Node45</title>
<g id="a_node17"><a xlink:href="class_i_shader_control.html" target="_top" xlink:title="This control allows you to draw to the UI via a shader written using the Skia shading language,...">
<polygon fill="white" stroke="#666666" points="196,-1215 115,-1215 115,-1196 196,-1196 196,-1215"/>
<text text-anchor="middle" x="155.5" y="-1203" font-family="Helvetica,sans-Serif" font-size="10.00">IShaderControl</text>
</a>
</g>
</g>
<!-- Node1&#45;&gt;Node45 -->
<g id="edge16" class="edge">
<title>Node1&#45;&gt;Node45</title>
<path fill="none" stroke="#63b8ff" d="M27.14,-893.48C31.02,-956.82 45.75,-1144.38 86,-1187.5 93.47,-1195.5 104.02,-1200.11 114.61,-1202.73"/>
<polygon fill="#63b8ff" stroke="#63b8ff" points="30.65,-893.54 26.58,-883.76 23.67,-893.95 30.65,-893.54"/>
</g>
<!-- Node46 -->
<g id="node18" class="node">
<title>Node46</title>
<g id="a_node18"><a xlink:href="class_i_sk_lottie_control.html" target="_top" xlink:title="A control that hosts a Lottie animation, via Skia&#39;s Skottie module https://skia.org/user/modules/skot...">
<polygon fill="white" stroke="#666666" points="199,-1178 112,-1178 112,-1159 199,-1159 199,-1178"/>
<text text-anchor="middle" x="155.5" y="-1166" font-family="Helvetica,sans-Serif" font-size="10.00">ISkLottieControl</text>
</a>
</g>
</g>
<!-- Node1&#45;&gt;Node46 -->
<g id="edge17" class="edge">
<title>Node1&#45;&gt;Node46</title>
<path fill="none" stroke="#63b8ff" d="M27.74,-893.64C32.96,-951.96 50.38,-1113.27 86,-1150.5 92.8,-1157.61 102.04,-1162.03 111.53,-1164.75"/>
<polygon fill="#63b8ff" stroke="#63b8ff" points="31.24,-893.44 26.89,-883.78 24.26,-894.04 31.24,-893.44"/>
</g>
<!-- Node47 -->
<g id="node19" class="node">
<title>Node47</title>
<g id="a_node19"><a xlink:href="class_i_sk_paragraph_control.html" target="_top" xlink:title="A control that demonstrates how to draw rich text using SkParagraph.">
<polygon fill="white" stroke="#666666" points="209,-1141 102,-1141 102,-1122 209,-1122 209,-1141"/>
<text text-anchor="middle" x="155.5" y="-1129" font-family="Helvetica,sans-Serif" font-size="10.00">ISkParagraphControl</text>
</a>
</g>
</g>
<!-- Node1&#45;&gt;Node47 -->
<g id="edge18" class="edge">
<title>Node1&#45;&gt;Node47</title>
<path fill="none" stroke="#63b8ff" d="M28.49,-893.57C35.14,-946.31 54.94,-1082.03 86,-1113.5 90.41,-1117.96 95.77,-1121.36 101.55,-1123.94"/>
<polygon fill="#63b8ff" stroke="#63b8ff" points="31.99,-893.33 27.3,-883.82 25.04,-894.17 31.99,-893.33"/>
</g>
<!-- Node48 -->
<g id="node20" class="node">
<title>Node48</title>
<g id="a_node20"><a xlink:href="class_i_slider_control_base.html" target="_top" xlink:title="A base class for slider/fader controls, to handle mouse action and Sender.">
<polygon fill="#fff0f0" stroke="red" points="204.5,-1104 106.5,-1104 106.5,-1085 204.5,-1085 204.5,-1104"/>
<text text-anchor="middle" x="155.5" y="-1092" font-family="Helvetica,sans-Serif" font-size="10.00">ISliderControlBase</text>
</a>
</g>
</g>
<!-- Node1&#45;&gt;Node48 -->
<g id="edge19" class="edge">
<title>Node1&#45;&gt;Node48</title>
<path fill="none" stroke="#63b8ff" d="M25.81,-893.55C26.62,-934.78 34.51,-1026.49 86,-1076.5 91.64,-1081.98 98.75,-1085.85 106.23,-1088.57"/>
<polygon fill="#63b8ff" stroke="#63b8ff" points="29.31,-893.76 25.75,-883.78 22.31,-893.8 29.31,-893.76"/>
</g>
<!-- Node53 -->
<g id="node21" class="node">
<title>Node53</title>
<g id="a_node21"><a xlink:href="class_i_switch_control_base.html" target="_top" xlink:title="A base class for switch controls.">
<polygon fill="#fff0f0" stroke="red" points="207,-1067 104,-1067 104,-1048 207,-1048 207,-1067"/>
<text text-anchor="middle" x="155.5" y="-1055" font-family="Helvetica,sans-Serif" font-size="10.00">ISwitchControlBase</text>
</a>
</g>
</g>
<!-- Node1&#45;&gt;Node53 -->
<g id="edge20" class="edge">
<title>Node1&#45;&gt;Node53</title>
<path fill="none" stroke="#63b8ff" d="M27.41,-893.35C30.96,-928.72 43.3,-1000.4 86,-1039.5 91.08,-1044.15 97.21,-1047.63 103.7,-1050.22"/>
<polygon fill="#63b8ff" stroke="#63b8ff" points="30.92,-893.28 26.59,-883.61 23.94,-893.86 30.92,-893.28"/>
</g>
<!-- Node62 -->
<g id="node22" class="node">
<title>Node62</title>
<g id="a_node22"><a xlink:href="class_i_text_control.html" target="_top" xlink:title="A basic control to display some text.">
<polygon fill="#fff0f0" stroke="red" points="190,-1030 121,-1030 121,-1011 190,-1011 190,-1030"/>
<text text-anchor="middle" x="155.5" y="-1018" font-family="Helvetica,sans-Serif" font-size="10.00">ITextControl</text>
</a>
</g>
</g>
<!-- Node1&#45;&gt;Node62 -->
<g id="edge21" class="edge">
<title>Node1&#45;&gt;Node62</title>
<path fill="none" stroke="#63b8ff" d="M29.91,-893.58C36.38,-922.5 52.15,-974.12 86,-1002.5 95.71,-1010.64 108.69,-1015.14 120.74,-1017.62"/>
<polygon fill="#63b8ff" stroke="#63b8ff" points="33.35,-892.96 27.91,-883.86 26.49,-894.36 33.35,-892.96"/>
</g>
<!-- Node72 -->
<g id="node23" class="node">
<title>Node72</title>
<g id="a_node23"><a xlink:href="class_i_text_entry_control.html" target="_top" xlink:title="A Text entry widget drawn by IGraphics.">
<polygon fill="white" stroke="#666666" points="201,-993 110,-993 110,-974 201,-974 201,-993"/>
<text text-anchor="middle" x="155.5" y="-981" font-family="Helvetica,sans-Serif" font-size="10.00">ITextEntryControl</text>
</a>
</g>
</g>
<!-- Node1&#45;&gt;Node72 -->
<g id="edge22" class="edge">
<title>Node1&#45;&gt;Node72</title>
<path fill="none" stroke="#63b8ff" d="M33.85,-892.85C43.11,-914.16 60.54,-947.04 86,-965.5 92.97,-970.55 101.25,-974.19 109.6,-976.8"/>
<polygon fill="#63b8ff" stroke="#63b8ff" points="37.15,-891.69 30.12,-883.77 30.68,-894.35 37.15,-891.69"/>
</g>
<!-- Node73 -->
<g id="node24" class="node">
<title>Node73</title>
<g id="a_node24"><a xlink:href="class_i_v_color_swatch_control.html" target="_top" xlink:title="A control to show a color swatch of up to 9 colors.">
<polygon fill="white" stroke="#666666" points="212,-956 99,-956 99,-937 212,-937 212,-956"/>
<text text-anchor="middle" x="155.5" y="-944" font-family="Helvetica,sans-Serif" font-size="10.00">IVColorSwatchControl</text>
</a>
</g>
</g>
<!-- Node1&#45;&gt;Node73 -->
<g id="edge23" class="edge">
<title>Node1&#45;&gt;Node73</title>
<path fill="none" stroke="#63b8ff" d="M41.36,-891C52.54,-903.33 68.7,-918.96 86,-928.5 91.81,-931.71 98.22,-934.36 104.72,-936.55"/>
<polygon fill="#63b8ff" stroke="#63b8ff" points="44.04,-888.75 34.84,-883.51 38.77,-893.35 44.04,-888.75"/>
</g>
<!-- Node74 -->
<g id="node25" class="node">
<title>Node74</title>
<g id="a_node25"><a xlink:href="class_i_v_display_control.html" target="_top" xlink:title="A control to display a rolling graphics of historical values.">
<polygon fill="white" stroke="#666666" points="200,-919 111,-919 111,-900 200,-900 200,-919"/>
<text text-anchor="middle" x="155.5" y="-907" font-family="Helvetica,sans-Serif" font-size="10.00">IVDisplayControl</text>
</a>
</g>
</g>
<!-- Node1&#45;&gt;Node74 -->
<g id="edge24" class="edge">
<title>Node1&#45;&gt;Node74</title>
<path fill="none" stroke="#63b8ff" d="M61.41,-884.03C69.47,-886.57 78.01,-889.19 86,-891.5 95.45,-894.24 105.68,-897.02 115.29,-899.55"/>
<polygon fill="#63b8ff" stroke="#63b8ff" points="62.47,-880.7 51.88,-881 60.35,-887.37 62.47,-880.7"/>
</g>
<!-- Node75 -->
<g id="node26" class="node">
<title>Node75</title>
<g id="a_node26"><a xlink:href="class_i_v_keyboard_control.html" target="_top" xlink:title="Vectorial keyboard control.">
<polygon fill="white" stroke="#666666" points="204.5,-882 106.5,-882 106.5,-863 204.5,-863 204.5,-882"/>
<text text-anchor="middle" x="155.5" y="-870" font-family="Helvetica,sans-Serif" font-size="10.00">IVKeyboardControl</text>
</a>
</g>
</g>
<!-- Node1&#45;&gt;Node75 -->
<g id="edge25" class="edge">
<title>Node1&#45;&gt;Node75</title>
<path fill="none" stroke="#63b8ff" d="M61.89,-872.5C75.6,-872.5 91.48,-872.5 106.17,-872.5"/>
<polygon fill="#63b8ff" stroke="#63b8ff" points="61.99,-869 51.99,-872.5 61.99,-876 61.99,-869"/>
</g>
<!-- Node76 -->
<g id="node27" class="node">
<title>Node76</title>
<g id="a_node27"><a xlink:href="class_i_v_plot_control.html" target="_top" xlink:title="A vector plot to display functions and waveforms.">
<polygon fill="white" stroke="#666666" points="192.5,-845 118.5,-845 118.5,-826 192.5,-826 192.5,-845"/>
<text text-anchor="middle" x="155.5" y="-833" font-family="Helvetica,sans-Serif" font-size="10.00">IVPlotControl</text>
</a>
</g>
</g>
<!-- Node1&#45;&gt;Node76 -->
<g id="edge26" class="edge">
<title>Node1&#45;&gt;Node76</title>
<path fill="none" stroke="#63b8ff" d="M61.46,-861.73C69.52,-859.32 78.05,-856.8 86,-854.5 96.43,-851.49 107.79,-848.3 118.2,-845.42"/>
<polygon fill="#63b8ff" stroke="#63b8ff" points="60.51,-858.36 51.94,-864.59 62.52,-865.06 60.51,-858.36"/>
</g>
<!-- Node77 -->
<g id="node28" class="node">
<title>Node77</title>
<g id="a_node28"><a xlink:href="class_i_v_scope_control.html" target="_top" xlink:title="Vectorial multi&#45;channel capable oscilloscope control.">
<polygon fill="white" stroke="#666666" points="221.5,-807.5 89.5,-807.5 89.5,-777.5 221.5,-777.5 221.5,-807.5"/>
<text text-anchor="start" x="97.5" y="-795.5" font-family="Helvetica,sans-Serif" font-size="10.00">IVScopeControl&lt; MAXNC,</text>
<text text-anchor="middle" x="155.5" y="-784.5" font-family="Helvetica,sans-Serif" font-size="10.00"> MAXBUF &gt;</text>
</a>
</g>
</g>
<!-- Node1&#45;&gt;Node77 -->
<g id="edge27" class="edge">
<title>Node1&#45;&gt;Node77</title>
<path fill="none" stroke="#63b8ff" d="M42.1,-854.43C53.42,-842.61 69.45,-827.56 86,-817.5 91.95,-813.88 98.51,-810.67 105.13,-807.85"/>
<polygon fill="#63b8ff" stroke="#63b8ff" points="39.69,-851.88 35.46,-861.59 44.83,-856.64 39.69,-851.88"/>
</g>
<!-- Node78 -->
<g id="node29" class="node">
<title>Node78</title>
<g id="a_node29"><a xlink:href="class_i_v_track_control_base.html" target="_top" xlink:title="A base class for mult&#45;strip/track controls, such as multi&#45;sliders, meters Track refers to the channel...">
<polygon fill="#fff0f0" stroke="red" points="207.5,-759 103.5,-759 103.5,-740 207.5,-740 207.5,-759"/>
<text text-anchor="middle" x="155.5" y="-747" font-family="Helvetica,sans-Serif" font-size="10.00">IVTrackControlBase</text>
</a>
</g>
</g>
<!-- Node1&#45;&gt;Node78 -->
<g id="edge28" class="edge">
<title>Node1&#45;&gt;Node78</title>
<path fill="none" stroke="#63b8ff" d="M32.49,-851.94C41,-828.31 58.21,-790.02 86,-768.5 91.17,-764.49 97.14,-761.33 103.35,-758.84"/>
<polygon fill="#63b8ff" stroke="#63b8ff" points="29.19,-850.77 29.3,-861.36 35.82,-853.01 29.19,-850.77"/>
</g>
<!-- Node87 -->
<g id="node30" class="node">
<title>Node87</title>
<g id="a_node30"><a xlink:href="class_i_v_x_y_pad_control.html" target="_top" xlink:title="A vector XY Pad slider control.">
<polygon fill="white" stroke="#666666" points="199.5,-722 111.5,-722 111.5,-703 199.5,-703 199.5,-722"/>
<text text-anchor="middle" x="155.5" y="-710" font-family="Helvetica,sans-Serif" font-size="10.00">IVXYPadControl</text>
</a>
</g>
</g>
<!-- Node1&#45;&gt;Node87 -->
<g id="edge29" class="edge">
<title>Node1&#45;&gt;Node87</title>
<path fill="none" stroke="#63b8ff" d="M29.1,-851.48C34.78,-820.61 49.77,-763.24 86,-731.5 93.15,-725.24 102.19,-721.02 111.35,-718.19"/>
<polygon fill="#63b8ff" stroke="#63b8ff" points="25.69,-850.67 27.5,-861.11 32.59,-851.81 25.69,-850.67"/>
</g>
<!-- Node88 -->
<g id="node31" class="node">
<title>Node88</title>
<g id="a_node31"><a xlink:href="class_i_web_view_control.html" target="_top" xlink:title="A control that allows the embedding of HTML UI inside an IGraphics context using a platform&#45;native we...">
<polygon fill="white" stroke="#666666" points="201.5,-685 109.5,-685 109.5,-666 201.5,-666 201.5,-685"/>
<text text-anchor="middle" x="155.5" y="-673" font-family="Helvetica,sans-Serif" font-size="10.00">IWebViewControl</text>
</a>
</g>
</g>
<!-- Node1&#45;&gt;Node88 -->
<g id="edge30" class="edge">
<title>Node1&#45;&gt;Node88</title>
<path fill="none" stroke="#63b8ff" d="M26.95,-851.39C29.79,-814.22 41.09,-737.02 86,-694.5 92.45,-688.39 100.69,-684.21 109.21,-681.37"/>
<polygon fill="#63b8ff" stroke="#63b8ff" points="23.47,-851.04 26.35,-861.23 30.45,-851.47 23.47,-851.04"/>
</g>
<!-- Node89 -->
<g id="node32" class="node">
<title>Node89</title>
<g id="a_node32"><a xlink:href="class_test_animation_control.html" target="_top" xlink:title="Control to test animation.">
<polygon fill="white" stroke="#666666" points="210.5,-648 100.5,-648 100.5,-629 210.5,-629 210.5,-648"/>
<text text-anchor="middle" x="155.5" y="-636" font-family="Helvetica,sans-Serif" font-size="10.00">TestAnimationControl</text>
</a>
</g>
</g>
<!-- Node1&#45;&gt;Node89 -->
<g id="edge31" class="edge">
<title>Node1&#45;&gt;Node89</title>
<path fill="none" stroke="#63b8ff" d="M25.49,-851.29C25.65,-808.44 32.32,-711.1 86,-657.5 90.1,-653.4 95.01,-650.17 100.29,-647.62"/>
<polygon fill="#63b8ff" stroke="#63b8ff" points="21.98,-851.25 25.58,-861.21 28.98,-851.18 21.98,-851.25"/>
</g>
<!-- Node90 -->
<g id="node33" class="node">
<title>Node90</title>
<g id="a_node33"><a xlink:href="class_test_bezier_control.html" target="_top" xlink:title="Control to test drawing bezier curves.">
<polygon fill="white" stroke="#666666" points="202.5,-611 108.5,-611 108.5,-592 202.5,-592 202.5,-611"/>
<text text-anchor="middle" x="155.5" y="-599" font-family="Helvetica,sans-Serif" font-size="10.00">TestBezierControl</text>
</a>
</g>
</g>
<!-- Node1&#45;&gt;Node90 -->
<g id="edge32" class="edge">
<title>Node1&#45;&gt;Node90</title>
<path fill="none" stroke="#63b8ff" d="M28.29,-851.22C34.59,-796.68 53.86,-653.85 86,-620.5 92,-614.28 99.83,-610.04 108.06,-607.16"/>
<polygon fill="#63b8ff" stroke="#63b8ff" points="24.83,-850.7 27.2,-861.03 31.79,-851.48 24.83,-850.7"/>
</g>
<!-- Node91 -->
<g id="node34" class="node">
<title>Node91</title>
<g id="a_node34"><a xlink:href="class_test_color_control.html" target="_top" xlink:title="Control to colors.">
<polygon fill="white" stroke="#666666" points="200,-574 111,-574 111,-555 200,-555 200,-574"/>
<text text-anchor="middle" x="155.5" y="-562" font-family="Helvetica,sans-Serif" font-size="10.00">TestColorControl</text>
</a>
</g>
</g>
<!-- Node1&#45;&gt;Node91 -->
<g id="edge33" class="edge">
<title>Node1&#45;&gt;Node91</title>
<path fill="none" stroke="#63b8ff" d="M27.58,-851.34C32.47,-791.47 49.29,-622.71 86,-583.5 92.58,-576.47 101.51,-571.96 110.74,-569.09"/>
<polygon fill="#63b8ff" stroke="#63b8ff" points="24.1,-850.91 26.81,-861.16 31.08,-851.46 24.1,-850.91"/>
</g>
<!-- Node92 -->
<g id="node35" class="node">
<title>Node92</title>
<g id="a_node35"><a xlink:href="class_test_cursor_control.html" target="_top" xlink:title="Control to test changing the platform cursor.">
<polygon fill="white" stroke="#666666" points="203,-537 108,-537 108,-518 203,-518 203,-537"/>
<text text-anchor="middle" x="155.5" y="-525" font-family="Helvetica,sans-Serif" font-size="10.00">TestCursorControl</text>
</a>
</g>
</g>
<!-- Node1&#45;&gt;Node92 -->
<g id="edge34" class="edge">
<title>Node1&#45;&gt;Node92</title>
<path fill="none" stroke="#63b8ff" d="M27.02,-851.65C30.59,-787.03 44.66,-591.67 86,-546.5 91.83,-540.13 99.6,-535.82 107.8,-532.92"/>
<polygon fill="#63b8ff" stroke="#63b8ff" points="23.54,-851.07 26.52,-861.24 30.53,-851.44 23.54,-851.07"/>
</g>
<!-- Node93 -->
<g id="node36" class="node">
<title>Node93</title>
<g id="a_node36"><a xlink:href="class_test_custom_shader_control.html" target="_top" xlink:title="Control to test IGraphicsNanoVG with Metal Shaders.">
<polygon fill="white" stroke="#666666" points="221,-500 90,-500 90,-481 221,-481 221,-500"/>
<text text-anchor="middle" x="155.5" y="-488" font-family="Helvetica,sans-Serif" font-size="10.00">TestCustomShaderControl</text>
</a>
</g>
</g>
<!-- Node1&#45;&gt;Node93 -->
<g id="edge35" class="edge">
<title>Node1&#45;&gt;Node93</title>
<path fill="none" stroke="#63b8ff" d="M26.59,-851.59C28.97,-782.13 40.08,-560.6 86,-509.5 89.3,-505.83 93.24,-502.84 97.54,-500.41"/>
<polygon fill="#63b8ff" stroke="#63b8ff" points="23.1,-851.1 26.29,-861.2 30.1,-851.31 23.1,-851.1"/>
</g>
<!-- Node94 -->
<g id="node37" class="node">
<title>Node94</title>
<g id="a_node37"><a xlink:href="class_test_drag_and_drop_control.html" target="_top" xlink:title="Control to test dropping single and multiple files.">
<polygon fill="white" stroke="#666666" points="218,-463 93,-463 93,-444 218,-444 218,-463"/>
<text text-anchor="middle" x="155.5" y="-451" font-family="Helvetica,sans-Serif" font-size="10.00">TestDragAndDropControl</text>
</a>
</g>
</g>
<!-- Node1&#45;&gt;Node94 -->
<g id="edge36" class="edge">
<title>Node1&#45;&gt;Node94</title>
<path fill="none" stroke="#63b8ff" d="M26.24,-851.42C27.5,-777.23 35.51,-529.54 86,-472.5 89.27,-468.8 93.19,-465.8 97.48,-463.36"/>
<polygon fill="#63b8ff" stroke="#63b8ff" points="22.74,-851.27 26.1,-861.32 29.74,-851.37 22.74,-851.27"/>
</g>
<!-- Node95 -->
<g id="node38" class="node">
<title>Node95</title>
<g id="a_node38"><a xlink:href="class_test_draw_context_control.html" target="_top" xlink:title="Control to test obtaining a drawing API (NanoVG, Skia, Canvas) context and using that API within an I...">
<polygon fill="white" stroke="#666666" points="216.5,-426 94.5,-426 94.5,-407 216.5,-407 216.5,-426"/>
<text text-anchor="middle" x="155.5" y="-414" font-family="Helvetica,sans-Serif" font-size="10.00">TestDrawContextControl</text>
</a>
</g>
</g>
<!-- Node1&#45;&gt;Node95 -->
<g id="edge37" class="edge">
<title>Node1&#45;&gt;Node95</title>
<path fill="none" stroke="#63b8ff" d="M25.94,-851.51C26.15,-773.1 30.86,-498.58 86,-435.5 89.25,-431.78 93.15,-428.76 97.43,-426.32"/>
<polygon fill="#63b8ff" stroke="#63b8ff" points="22.44,-851.2 25.94,-861.2 29.44,-851.2 22.44,-851.2"/>
</g>
<!-- Node96 -->
<g id="node39" class="node">
<title>Node96</title>
<g id="a_node39"><a xlink:href="class_test_drop_shadow_control.html" target="_top" xlink:title="Control to test layer drop shadows.">
<polygon fill="white" stroke="#666666" points="216.5,-389 94.5,-389 94.5,-370 216.5,-370 216.5,-389"/>
<text text-anchor="middle" x="155.5" y="-377" font-family="Helvetica,sans-Serif" font-size="10.00">TestDropShadowControl</text>
</a>
</g>
</g>
<!-- Node1&#45;&gt;Node96 -->
<g id="edge38" class="edge">
<title>Node1&#45;&gt;Node96</title>
<path fill="none" stroke="#63b8ff" d="M25.69,-851.36C24.9,-768.57 26.25,-467.58 86,-398.5 89.15,-394.86 92.93,-391.89 97.07,-389.46"/>
<polygon fill="#63b8ff" stroke="#63b8ff" points="22.19,-851.23 25.81,-861.19 29.18,-851.15 22.19,-851.23"/>
</g>
<!-- Node97 -->
<g id="node40" class="node">
<title>Node97</title>
<g id="a_node40"><a xlink:href="class_test_flex_box_control.html" target="_top" xlink:title="Control to test IGraphicsFlexBox.">
<polygon fill="white" stroke="#666666" points="206,-352 105,-352 105,-333 206,-333 206,-352"/>
<text text-anchor="middle" x="155.5" y="-340" font-family="Helvetica,sans-Serif" font-size="10.00">TestFlexBoxControl</text>
</a>
</g>
</g>
<!-- Node1&#45;&gt;Node97 -->
<g id="edge39" class="edge">
<title>Node1&#45;&gt;Node97</title>
<path fill="none" stroke="#63b8ff" d="M27.1,-851.42C32.07,-759.84 53.56,-399.36 86,-361.5 90.98,-355.69 97.56,-351.58 104.69,-348.69"/>
<polygon fill="#63b8ff" stroke="#63b8ff" points="23.62,-851.02 26.58,-861.19 30.61,-851.4 23.62,-851.02"/>
</g>
<!-- Node98 -->
<g id="node41" class="node">
<title>Node98</title>
<g id="a_node41"><a xlink:href="class_test_font_control.html" target="_top" xlink:title="Control to test drawing fonts.">
<polygon fill="white" stroke="#666666" points="198.5,-315 112.5,-315 112.5,-296 198.5,-296 198.5,-315"/>
<text text-anchor="middle" x="155.5" y="-303" font-family="Helvetica,sans-Serif" font-size="10.00">TestFontControl</text>
</a>
</g>
</g>
<!-- Node1&#45;&gt;Node98 -->
<g id="edge40" class="edge">
<title>Node1&#45;&gt;Node98</title>
<path fill="none" stroke="#63b8ff" d="M26.92,-851.44C31.3,-755.81 51.21,-365.41 86,-324.5 92.64,-316.7 102.17,-311.96 112.02,-309.11"/>
<polygon fill="#63b8ff" stroke="#63b8ff" points="23.43,-851.25 26.48,-861.4 30.42,-851.56 23.43,-851.25"/>
</g>
<!-- Node99 -->
<g id="node42" class="node">
<title>Node99</title>
<g id="a_node42"><a xlink:href="class_test_image_control.html" target="_top" xlink:title="Control to test drawing bitmaps.">
<polygon fill="white" stroke="#666666" points="202.5,-278 108.5,-278 108.5,-259 202.5,-259 202.5,-278"/>
<text text-anchor="middle" x="155.5" y="-266" font-family="Helvetica,sans-Serif" font-size="10.00">TestImageControl</text>
</a>
</g>
</g>
<!-- Node1&#45;&gt;Node99 -->
<g id="edge41" class="edge">
<title>Node1&#45;&gt;Node99</title>
<path fill="none" stroke="#63b8ff" d="M26.78,-851.28C30.62,-751.44 48.89,-331.45 86,-287.5 91.73,-280.71 99.66,-276.24 108.09,-273.31"/>
<polygon fill="#63b8ff" stroke="#63b8ff" points="23.28,-851.09 26.4,-861.22 30.28,-851.36 23.28,-851.09"/>
</g>
<!-- Node100 -->
<g id="node43" class="node">
<title>Node100</title>
<g id="a_node43"><a xlink:href="class_test_keyboard_control.html" target="_top" xlink:title="Control to test keyboard input.">
<polygon fill="white" stroke="#666666" points="209,-241 102,-241 102,-222 209,-222 209,-241"/>
<text text-anchor="middle" x="155.5" y="-229" font-family="Helvetica,sans-Serif" font-size="10.00">TestKeyboardControl</text>
</a>
</g>
</g>
<!-- Node1&#45;&gt;Node100 -->
<g id="edge42" class="edge">
<title>Node1&#45;&gt;Node100</title>
<path fill="none" stroke="#63b8ff" d="M26.64,-851.25C29.96,-747.54 46.54,-297.52 86,-250.5 90.2,-245.49 95.6,-241.74 101.52,-238.94"/>
<polygon fill="#63b8ff" stroke="#63b8ff" points="23.15,-850.98 26.34,-861.09 30.14,-851.2 23.15,-850.98"/>
</g>
<!-- Node101 -->
<g id="node44" class="node">
<title>Node101</title>
<g id="a_node44"><a xlink:href="class_test_m_p_s_control.html" target="_top" xlink:title="Control to test IGraphicsNanoVG with Metal Performance Shaders.">
<polygon fill="white" stroke="#666666" points="200,-204 111,-204 111,-185 200,-185 200,-204"/>
<text text-anchor="middle" x="155.5" y="-192" font-family="Helvetica,sans-Serif" font-size="10.00">TestMPSControl</text>
</a>
</g>
</g>
<!-- Node1&#45;&gt;Node101 -->
<g id="edge43" class="edge">
<title>Node1&#45;&gt;Node101</title>
<path fill="none" stroke="#63b8ff" d="M26.53,-851.02C29.35,-743.12 44.22,-263.56 86,-213.5 92.25,-206.01 101.16,-201.34 110.5,-198.45"/>
<polygon fill="#63b8ff" stroke="#63b8ff" points="23.03,-850.92 26.27,-861.01 30.03,-851.1 23.03,-850.92"/>
</g>
<!-- Node102 -->
<g id="node45" class="node">
<title>Node102</title>
<g id="a_node45"><a xlink:href="class_test_m_t_control.html" target="_top" xlink:title="Control to test multi touch.">
<polygon fill="white" stroke="#666666" points="196,-167 115,-167 115,-148 196,-148 196,-167"/>
<text text-anchor="middle" x="155.5" y="-155" font-family="Helvetica,sans-Serif" font-size="10.00">TestMTControl</text>
</a>
</g>
</g>
<!-- Node1&#45;&gt;Node102 -->
<g id="edge44" class="edge">
<title>Node1&#45;&gt;Node102</title>
<path fill="none" stroke="#63b8ff" d="M26.41,-851.23C28.75,-740.13 41.83,-229.68 86,-176.5 93.18,-167.86 103.91,-162.96 114.76,-160.24"/>
<polygon fill="#63b8ff" stroke="#63b8ff" points="22.91,-851.15 26.21,-861.22 29.91,-851.3 22.91,-851.15"/>
</g>
<!-- Node103 -->
<g id="node46" class="node">
<title>Node103</title>
<g id="a_node46"><a xlink:href="class_test_s_v_g_control.html" target="_top" xlink:title="Control to test drawing SVGs.">
<polygon fill="white" stroke="#666666" points="199.5,-130 111.5,-130 111.5,-111 199.5,-111 199.5,-130"/>
<text text-anchor="middle" x="155.5" y="-118" font-family="Helvetica,sans-Serif" font-size="10.00">TestSVGControl</text>
</a>
</g>
</g>
<!-- Node1&#45;&gt;Node103 -->
<g id="edge45" class="edge">
<title>Node1&#45;&gt;Node103</title>
<path fill="none" stroke="#63b8ff" d="M26.31,-851.53C28.17,-737.57 39.43,-195.81 86,-139.5 92.37,-131.8 101.57,-127.07 111.16,-124.2"/>
<polygon fill="#63b8ff" stroke="#63b8ff" points="22.81,-851.18 26.16,-861.23 29.81,-851.29 22.81,-851.18"/>
</g>
<!-- Node104 -->
<g id="node47" class="node">
<title>Node104</title>
<g id="a_node47"><a xlink:href="class_test_shadow_gradient_control.html" target="_top" xlink:title="Control to test drawing shadows with gradients.">
<polygon fill="white" stroke="#666666" points="225,-93 86,-93 86,-74 225,-74 225,-93"/>
<text text-anchor="middle" x="155.5" y="-81" font-family="Helvetica,sans-Serif" font-size="10.00">TestShadowGradientControl</text>
</a>
</g>
</g>
<!-- Node1&#45;&gt;Node104 -->
<g id="edge46" class="edge">
<title>Node1&#45;&gt;Node104</title>
<path fill="none" stroke="#63b8ff" d="M26.23,-851.21C27.66,-733.13 37.11,-161.86 86,-102.5 88.98,-98.88 92.59,-95.92 96.57,-93.49"/>
<polygon fill="#63b8ff" stroke="#63b8ff" points="22.73,-850.98 26.11,-861.01 29.73,-851.06 22.73,-850.98"/>
</g>
<!-- Node105 -->
<g id="node48" class="node">
<title>Node105</title>
<g id="a_node48"><a xlink:href="class_test_size_control.html" target="_top" xlink:title="Control to display the size of a region.">
<polygon fill="white" stroke="#666666" points="198.5,-56 112.5,-56 112.5,-37 198.5,-37 198.5,-56"/>
<text text-anchor="middle" x="155.5" y="-44" font-family="Helvetica,sans-Serif" font-size="10.00">TestSizeControl</text>
</a>
</g>
</g>
<!-- Node1&#45;&gt;Node105 -->
<g id="edge47" class="edge">
<title>Node1&#45;&gt;Node105</title>
<path fill="none" stroke="#63b8ff" d="M26.14,-851.33C27.15,-730.19 34.73,-127.98 86,-65.5 92.58,-57.49 102.21,-52.69 112.19,-49.85"/>
<polygon fill="#63b8ff" stroke="#63b8ff" points="22.65,-851.07 26.07,-861.1 29.65,-851.12 22.65,-851.07"/>
</g>
<!-- Node106 -->
<g id="node49" class="node">
<title>Node106</title>
<g id="a_node49"><a xlink:href="class_test_text_control.html" target="_top" xlink:title="Control to test drawing text.">
<polygon fill="white" stroke="#666666" points="198.5,-19 112.5,-19 112.5,0 198.5,0 198.5,-19"/>
<text text-anchor="middle" x="155.5" y="-7" font-family="Helvetica,sans-Serif" font-size="10.00">TestTextControl</text>
</a>
</g>
</g>
<!-- Node1&#45;&gt;Node106 -->
<g id="edge48" class="edge">
<title>Node1&#45;&gt;Node106</title>
<path fill="none" stroke="#63b8ff" d="M26.07,-851.53C26.66,-727.6 32.33,-94.12 86,-28.5 92.56,-20.48 102.19,-15.67 112.17,-12.84"/>
<polygon fill="#63b8ff" stroke="#63b8ff" points="22.57,-851.2 26.03,-861.21 29.57,-851.23 22.57,-851.2"/>
</g>
<!-- Node4 -->
<g id="node4" class="node">
<title>Node4</title>
<g id="a_node4"><a xlink:href="class_i_b_meter_control.html" target="_top" xlink:title="A bitmap meter control, that can be used for VUMeters.">
<polygon fill="white" stroke="#666666" points="343,-1696 261,-1696 261,-1677 343,-1677 343,-1696"/>
<text text-anchor="middle" x="302" y="-1684" font-family="Helvetica,sans-Serif" font-size="10.00">IBMeterControl</text>
</a>
</g>
</g>
<!-- Node3&#45;&gt;Node4 -->
<g id="edge3" class="edge">
<title>Node3&#45;&gt;Node4</title>
<path fill="none" stroke="#63b8ff" d="M207.49,-1686.5C224.87,-1686.5 244.06,-1686.5 260.51,-1686.5"/>
<polygon fill="#63b8ff" stroke="#63b8ff" points="207.88,-1683 197.88,-1686.5 207.88,-1690 207.88,-1683"/>
</g>
</g>
</svg>
