<?xml version="1.0" encoding="UTF-8" standalone="no"?>
<!DOCTYPE svg PUBLIC "-//W3C//DTD SVG 1.1//EN"
 "http://www.w3.org/Graphics/SVG/1.1/DTD/svg11.dtd">
<!-- Generated by graphviz version 7.0.5 (20221223.1930)
 -->
<!-- Title: IBKnobRotaterControl Pages: 1 -->
<svg width="194pt" height="192pt"
 viewBox="0.00 0.00 194.00 192.00" xmlns="http://www.w3.org/2000/svg" xmlns:xlink="http://www.w3.org/1999/xlink">
<g id="graph0" class="graph" transform="scale(1 1) rotate(0) translate(4 188)">
<title>IBKnobRotaterControl</title>
<!-- Node1 -->
<g id="node1" class="node">
<title>Node1</title>
<g id="a_node1"><a xlink:title="A bitmap knob/dial control that rotates an image.">
<polygon fill="#999999" stroke="#666666" points="154,-19 43,-19 43,0 154,0 154,-19"/>
<text text-anchor="middle" x="98.5" y="-7" font-family="Helvetica,sans-Serif" font-size="10.00">IBKnobRotaterControl</text>
</a>
</g>
</g>
<!-- Node2 -->
<g id="node2" class="node">
<title>Node2</title>
<g id="a_node2"><a xlink:href="class_i_b_knob_control.html" target="_top" xlink:title="A bitmap knob/dial control that draws a frame from a stacked bitmap.">
<polygon fill="white" stroke="#666666" points="138.5,-74 58.5,-74 58.5,-55 138.5,-55 138.5,-74"/>
<text text-anchor="middle" x="98.5" y="-62" font-family="Helvetica,sans-Serif" font-size="10.00">IBKnobControl</text>
</a>
</g>
</g>
<!-- Node2&#45;&gt;Node1 -->
<g id="edge1" class="edge">
<title>Node2&#45;&gt;Node1</title>
<path fill="none" stroke="#63b8ff" d="M98.5,-43.35C98.5,-35.1 98.5,-25.97 98.5,-19.44"/>
<polygon fill="#63b8ff" stroke="#63b8ff" points="95,-43.23 98.5,-53.23 102,-43.23 95,-43.23"/>
</g>
<!-- Node3 -->
<g id="node3" class="node">
<title>Node3</title>
<g id="a_node3"><a xlink:href="class_i_knob_control_base.html" target="_top" xlink:title="A base class for knob/dial controls, to handle mouse action and Sender.">
<polygon fill="white" stroke="#666666" points="95,-129 0,-129 0,-110 95,-110 95,-129"/>
<text text-anchor="middle" x="47.5" y="-117" font-family="Helvetica,sans-Serif" font-size="10.00">IKnobControlBase</text>
</a>
</g>
</g>
<!-- Node3&#45;&gt;Node2 -->
<g id="edge2" class="edge">
<title>Node3&#45;&gt;Node2</title>
<path fill="none" stroke="#63b8ff" d="M63.86,-101.5C72.52,-92.5 82.8,-81.82 89.9,-74.44"/>
<polygon fill="#63b8ff" stroke="#63b8ff" points="61.38,-99.02 56.97,-108.66 66.43,-103.88 61.38,-99.02"/>
</g>
<!-- Node4 -->
<g id="node4" class="node">
<title>Node4</title>
<g id="a_node4"><a xlink:href="class_i_control.html" target="_top" xlink:title="The lowest level base class of an IGraphics control.">
<polygon fill="white" stroke="#666666" points="72.5,-184 22.5,-184 22.5,-165 72.5,-165 72.5,-184"/>
<text text-anchor="middle" x="47.5" y="-172" font-family="Helvetica,sans-Serif" font-size="10.00">IControl</text>
</a>
</g>
</g>
<!-- Node4&#45;&gt;Node3 -->
<g id="edge3" class="edge">
<title>Node4&#45;&gt;Node3</title>
<path fill="none" stroke="#63b8ff" d="M47.5,-153.35C47.5,-145.1 47.5,-135.97 47.5,-129.44"/>
<polygon fill="#63b8ff" stroke="#63b8ff" points="44,-153.23 47.5,-163.23 51,-153.23 44,-153.23"/>
</g>
<!-- Node5 -->
<g id="node5" class="node">
<title>Node5</title>
<g id="a_node5"><a xlink:href="class_i_bitmap_base.html" target="_top" xlink:title="A base interface to be combined with IControl for bitmap&#45;based controls &quot;IBControls&quot;,...">
<polygon fill="white" stroke="#666666" points="186,-129 113,-129 113,-110 186,-110 186,-129"/>
<text text-anchor="middle" x="149.5" y="-117" font-family="Helvetica,sans-Serif" font-size="10.00">IBitmapBase</text>
</a>
</g>
</g>
<!-- Node5&#45;&gt;Node2 -->
<g id="edge4" class="edge">
<title>Node5&#45;&gt;Node2</title>
<path fill="none" stroke="#63b8ff" d="M133.14,-101.5C124.48,-92.5 114.2,-81.82 107.1,-74.44"/>
<polygon fill="#63b8ff" stroke="#63b8ff" points="130.57,-103.88 140.03,-108.66 135.62,-99.02 130.57,-103.88"/>
</g>
</g>
</svg>
