<?xml version="1.0" encoding="UTF-8" standalone="no"?>
<!DOCTYPE svg PUBLIC "-//W3C//DTD SVG 1.1//EN"
 "http://www.w3.org/Graphics/SVG/1.1/DTD/svg11.dtd">
<!-- Generated by graphviz version 7.0.5 (20221223.1930)
 -->
<!-- Title: WebViewEditorDelegate Pages: 1 -->
<svg width="170pt" height="82pt"
 viewBox="0.00 0.00 170.00 82.00" xmlns="http://www.w3.org/2000/svg" xmlns:xlink="http://www.w3.org/1999/xlink">
<g id="graph0" class="graph" transform="scale(1 1) rotate(0) translate(4 78)">
<title>WebViewEditorDelegate</title>
<!-- Node1 -->
<g id="node1" class="node">
<title>Node1</title>
<g id="a_node1"><a xlink:title="This Editor Delegate allows using a platform native web view as the UI for an iPlug plugin.">
<polygon fill="#999999" stroke="#666666" points="147,-19 26,-19 26,0 147,0 147,-19"/>
<text text-anchor="middle" x="86.5" y="-7" font-family="Helvetica,sans-Serif" font-size="10.00">WebViewEditorDelegate</text>
</a>
</g>
</g>
<!-- Node2 -->
<g id="node2" class="node">
<title>Node2</title>
<g id="a_node2"><a xlink:href="class_i_editor_delegate.html" target="_top" xlink:title="This pure virtual interface delegates communication in both directions between a UI editor and someth...">
<polygon fill="white" stroke="#666666" points="83,-74 0,-74 0,-55 83,-55 83,-74"/>
<text text-anchor="middle" x="41.5" y="-62" font-family="Helvetica,sans-Serif" font-size="10.00">IEditorDelegate</text>
</a>
</g>
</g>
<!-- Node2&#45;&gt;Node1 -->
<g id="edge1" class="edge">
<title>Node2&#45;&gt;Node1</title>
<path fill="none" stroke="#63b8ff" d="M56.18,-46.22C63.76,-37.28 72.71,-26.74 78.91,-19.44"/>
<polygon fill="#63b8ff" stroke="#63b8ff" points="53.71,-43.71 49.91,-53.59 59.05,-48.24 53.71,-43.71"/>
</g>
<!-- Node3 -->
<g id="node3" class="node">
<title>Node3</title>
<g id="a_node3"><a xlink:href="class_i_web_view.html" target="_top" xlink:title="IWebView is a base interface for hosting a platform web view inside an IPlug plug&#45;in&#39;s UI.">
<polygon fill="white" stroke="#666666" points="162,-74 101,-74 101,-55 162,-55 162,-74"/>
<text text-anchor="middle" x="131.5" y="-62" font-family="Helvetica,sans-Serif" font-size="10.00">IWebView</text>
</a>
</g>
</g>
<!-- Node3&#45;&gt;Node1 -->
<g id="edge2" class="edge">
<title>Node3&#45;&gt;Node1</title>
<path fill="none" stroke="#63b8ff" d="M116.82,-46.22C109.24,-37.28 100.29,-26.74 94.09,-19.44"/>
<polygon fill="#63b8ff" stroke="#63b8ff" points="113.95,-48.24 123.09,-53.59 119.29,-43.71 113.95,-48.24"/>
</g>
</g>
</svg>
