<?xml version="1.0" encoding="UTF-8" standalone="no"?>
<!DOCTYPE svg PUBLIC "-//W3C//DTD SVG 1.1//EN"
 "http://www.w3.org/Graphics/SVG/1.1/DTD/svg11.dtd">
<!-- Generated by graphviz version 7.0.5 (20221223.1930)
 -->
<!-- Title: IWebView Pages: 1 -->
<svg width="240pt" height="82pt"
 viewBox="0.00 0.00 239.50 82.00" xmlns="http://www.w3.org/2000/svg" xmlns:xlink="http://www.w3.org/1999/xlink">
<g id="graph0" class="graph" transform="scale(1 1) rotate(0) translate(4 78)">
<title>IWebView</title>
<!-- Node1 -->
<g id="node1" class="node">
<title>Node1</title>
<g id="a_node1"><a xlink:title="IWebView is a base interface for hosting a platform web view inside an IPlug plug&#45;in&#39;s UI.">
<polygon fill="#999999" stroke="#666666" points="138.5,-74 77.5,-74 77.5,-55 138.5,-55 138.5,-74"/>
<text text-anchor="middle" x="108" y="-62" font-family="Helvetica,sans-Serif" font-size="10.00">IWebView</text>
</a>
</g>
</g>
<!-- Node2 -->
<g id="node2" class="node">
<title>Node2</title>
<g id="a_node2"><a xlink:href="class_i_web_view_control.html" target="_top" xlink:title="A control that allows the embedding of HTML UI inside an IGraphics context using a platform&#45;native we...">
<polygon fill="white" stroke="#666666" points="92,-19 0,-19 0,0 92,0 92,-19"/>
<text text-anchor="middle" x="46" y="-7" font-family="Helvetica,sans-Serif" font-size="10.00">IWebViewControl</text>
</a>
</g>
</g>
<!-- Node1&#45;&gt;Node2 -->
<g id="edge1" class="edge">
<title>Node1&#45;&gt;Node2</title>
<path fill="none" stroke="#63b8ff" d="M88.8,-47.09C78.1,-37.94 65.19,-26.9 56.36,-19.36"/>
<polygon fill="#63b8ff" stroke="#63b8ff" points="86.46,-49.69 96.33,-53.53 91.01,-44.37 86.46,-49.69"/>
</g>
<!-- Node3 -->
<g id="node3" class="node">
<title>Node3</title>
<g id="a_node3"><a xlink:href="class_web_view_editor_delegate.html" target="_top" xlink:title="This Editor Delegate allows using a platform native web view as the UI for an iPlug plugin.">
<polygon fill="white" stroke="#666666" points="231.5,-19 110.5,-19 110.5,0 231.5,0 231.5,-19"/>
<text text-anchor="middle" x="171" y="-7" font-family="Helvetica,sans-Serif" font-size="10.00">WebViewEditorDelegate</text>
</a>
</g>
</g>
<!-- Node1&#45;&gt;Node3 -->
<g id="edge2" class="edge">
<title>Node1&#45;&gt;Node3</title>
<path fill="none" stroke="#63b8ff" d="M127.18,-47.37C138.12,-38.16 151.41,-26.98 160.47,-19.36"/>
<polygon fill="#63b8ff" stroke="#63b8ff" points="125.24,-44.42 119.85,-53.53 129.75,-49.78 125.24,-44.42"/>
</g>
</g>
</svg>
