<?xml version="1.0" encoding="UTF-8" standalone="no"?>
<!DOCTYPE svg PUBLIC "-//W3C//DTD SVG 1.1//EN"
 "http://www.w3.org/Graphics/SVG/1.1/DTD/svg11.dtd">
<!-- Generated by graphviz version 2.36.0 (20140111.2315)
 -->
<!-- Title: IBitmapBase Pages: 1 -->
<svg width="360pt" height="218pt"
 viewBox="0.00 0.00 360.00 218.00" xmlns="http://www.w3.org/2000/svg" xmlns:xlink="http://www.w3.org/1999/xlink">
<g id="graph0" class="graph" transform="scale(1 1) rotate(0) translate(4 214)">
<title>IBitmapBase</title>
<polygon fill="white" stroke="none" points="-4,4 -4,-214 356,-214 356,4 -4,4"/>
<!-- Node1 -->
<g id="node1" class="node"><title>Node1</title>
<polygon fill="#bfbfbf" stroke="black" points="0.5,-95.5 0.5,-114.5 73.5,-114.5 73.5,-95.5 0.5,-95.5"/>
<text text-anchor="middle" x="37" y="-102.5" font-family="Helvetica,sans-Serif" font-size="10.00">IBitmapBase</text>
</g>
<!-- Node2 -->
<g id="node2" class="node"><title>Node2</title>
<g id="a_node2"><a xlink:href="class_i_b_button_control.html" target="_top" xlink:title="A bitmap button/momentary switch control. ">
<polygon fill="white" stroke="black" points="113,-190.5 113,-209.5 199,-209.5 199,-190.5 113,-190.5"/>
<text text-anchor="middle" x="156" y="-197.5" font-family="Helvetica,sans-Serif" font-size="10.00">IBButtonControl</text>
</a>
</g>
</g>
<!-- Node1&#45;&gt;Node2 -->
<g id="edge1" class="edge"><title>Node1&#45;&gt;Node2</title>
<path fill="none" stroke="midnightblue" d="M51.0998,-122.57C64.3936,-139.403 86.3376,-164.604 110,-181 115.298,-184.671 121.416,-187.837 127.4,-190.474"/>
<polygon fill="midnightblue" stroke="midnightblue" points="53.8499,-120.405 44.9732,-114.621 48.3056,-124.678 53.8499,-120.405"/>
</g>
<!-- Node3 -->
<g id="node3" class="node"><title>Node3</title>
<g id="a_node3"><a xlink:href="class_i_bitmap_control.html" target="_top" xlink:title="A basic control to draw a bitmap, or one frame of a stacked bitmap depending on the current value...">
<polygon fill="white" stroke="black" points="115,-152.5 115,-171.5 197,-171.5 197,-152.5 115,-152.5"/>
<text text-anchor="middle" x="156" y="-159.5" font-family="Helvetica,sans-Serif" font-size="10.00">IBitmapControl</text>
</a>
</g>
</g>
<!-- Node1&#45;&gt;Node3 -->
<g id="edge2" class="edge"><title>Node1&#45;&gt;Node3</title>
<path fill="none" stroke="midnightblue" d="M64.0358,-119.435C77.5977,-126.777 94.5375,-135.672 110,-143 116.744,-146.196 124.168,-149.44 131.009,-152.321"/>
<polygon fill="midnightblue" stroke="midnightblue" points="65.7009,-116.357 55.2462,-114.639 62.3481,-122.501 65.7009,-116.357"/>
</g>
<!-- Node5 -->
<g id="node5" class="node"><title>Node5</title>
<g id="a_node5"><a xlink:href="class_i_b_knob_control.html" target="_top" xlink:title="A bitmap knob/dial control that draws a frame from a stacked bitmap. ">
<polygon fill="white" stroke="black" points="116,-114.5 116,-133.5 196,-133.5 196,-114.5 116,-114.5"/>
<text text-anchor="middle" x="156" y="-121.5" font-family="Helvetica,sans-Serif" font-size="10.00">IBKnobControl</text>
</a>
</g>
</g>
<!-- Node1&#45;&gt;Node5 -->
<g id="edge4" class="edge"><title>Node1&#45;&gt;Node5</title>
<path fill="none" stroke="midnightblue" d="M83.6861,-112.419C94.3003,-114.143 105.506,-115.963 115.812,-117.636"/>
<polygon fill="midnightblue" stroke="midnightblue" points="84.1713,-108.952 73.7396,-110.804 83.0492,-115.862 84.1713,-108.952"/>
</g>
<!-- Node7 -->
<g id="node7" class="node"><title>Node7</title>
<g id="a_node7"><a xlink:href="class_i_b_slider_control.html" target="_top" xlink:title="A bitmap slider/fader control. ">
<polygon fill="white" stroke="black" points="114.5,-76.5 114.5,-95.5 197.5,-95.5 197.5,-76.5 114.5,-76.5"/>
<text text-anchor="middle" x="156" y="-83.5" font-family="Helvetica,sans-Serif" font-size="10.00">IBSliderControl</text>
</a>
</g>
</g>
<!-- Node1&#45;&gt;Node7 -->
<g id="edge6" class="edge"><title>Node1&#45;&gt;Node7</title>
<path fill="none" stroke="midnightblue" d="M83.905,-97.5453C93.8879,-95.9242 104.385,-94.2196 114.156,-92.6328"/>
<polygon fill="midnightblue" stroke="midnightblue" points="83.0492,-94.1384 73.7396,-99.1961 84.1713,-101.048 83.0492,-94.1384"/>
</g>
<!-- Node8 -->
<g id="node8" class="node"><title>Node8</title>
<g id="a_node8"><a xlink:href="class_i_b_text_control.html" target="_top" xlink:title="A control to display text using a monospace bitmap font. ">
<polygon fill="white" stroke="black" points="117.5,-38.5 117.5,-57.5 194.5,-57.5 194.5,-38.5 117.5,-38.5"/>
<text text-anchor="middle" x="156" y="-45.5" font-family="Helvetica,sans-Serif" font-size="10.00">IBTextControl</text>
</a>
</g>
</g>
<!-- Node1&#45;&gt;Node8 -->
<g id="edge7" class="edge"><title>Node1&#45;&gt;Node8</title>
<path fill="none" stroke="midnightblue" d="M64.0358,-90.5648C77.5977,-83.2233 94.5375,-74.328 110,-67 116.744,-63.804 124.168,-60.5601 131.009,-57.679"/>
<polygon fill="midnightblue" stroke="midnightblue" points="62.3481,-87.4985 55.2462,-95.3607 65.7009,-93.6433 62.3481,-87.4985"/>
</g>
<!-- Node9 -->
<g id="node9" class="node"><title>Node9</title>
<g id="a_node9"><a xlink:href="class_test_blend_control.html" target="_top" xlink:title="Control to test blend methods. ">
<polygon fill="white" stroke="black" points="110,-0.5 110,-19.5 202,-19.5 202,-0.5 110,-0.5"/>
<text text-anchor="middle" x="156" y="-7.5" font-family="Helvetica,sans-Serif" font-size="10.00">TestBlendControl</text>
</a>
</g>
</g>
<!-- Node1&#45;&gt;Node9 -->
<g id="edge8" class="edge"><title>Node1&#45;&gt;Node9</title>
<path fill="none" stroke="midnightblue" d="M51.0998,-87.4301C64.3936,-70.5968 86.3376,-45.3964 110,-29 115.298,-25.3292 121.416,-22.1633 127.4,-19.5262"/>
<polygon fill="midnightblue" stroke="midnightblue" points="48.3056,-85.3222 44.9732,-95.3793 53.8499,-89.5954 48.3056,-85.3222"/>
</g>
<!-- Node4 -->
<g id="node4" class="node"><title>Node4</title>
<g id="a_node4"><a xlink:href="class_i_b_switch_control.html" target="_top" xlink:title="A bitmap switch control. ">
<polygon fill="white" stroke="black" points="251,-152.5 251,-171.5 339,-171.5 339,-152.5 251,-152.5"/>
<text text-anchor="middle" x="295" y="-159.5" font-family="Helvetica,sans-Serif" font-size="10.00">IBSwitchControl</text>
</a>
</g>
</g>
<!-- Node3&#45;&gt;Node4 -->
<g id="edge3" class="edge"><title>Node3&#45;&gt;Node4</title>
<path fill="none" stroke="midnightblue" d="M207.44,-162C221.6,-162 236.869,-162 250.582,-162"/>
<polygon fill="midnightblue" stroke="midnightblue" points="207.364,-158.5 197.364,-162 207.363,-165.5 207.364,-158.5"/>
</g>
<!-- Node6 -->
<g id="node6" class="node"><title>Node6</title>
<g id="a_node6"><a xlink:href="class_i_b_knob_rotater_control.html" target="_top" xlink:title="A bitmap knob/dial control that rotates an image. ">
<polygon fill="white" stroke="black" points="238.5,-114.5 238.5,-133.5 351.5,-133.5 351.5,-114.5 238.5,-114.5"/>
<text text-anchor="middle" x="295" y="-121.5" font-family="Helvetica,sans-Serif" font-size="10.00">IBKnobRotaterControl</text>
</a>
</g>
</g>
<!-- Node5&#45;&gt;Node6 -->
<g id="edge5" class="edge"><title>Node5&#45;&gt;Node6</title>
<path fill="none" stroke="midnightblue" d="M206.394,-124C216.781,-124 227.805,-124 238.402,-124"/>
<polygon fill="midnightblue" stroke="midnightblue" points="206.259,-120.5 196.259,-124 206.259,-127.5 206.259,-120.5"/>
</g>
</g>
</svg>
