<?xml version="1.0" encoding="UTF-8" standalone="no"?>
<!DOCTYPE svg PUBLIC "-//W3C//DTD SVG 1.1//EN"
 "http://www.w3.org/Graphics/SVG/1.1/DTD/svg11.dtd">
<!-- Generated by graphviz version 7.0.5 (20221223.1930)
 -->
<!-- Title: IControl Pages: 1 -->
<!--zoomable 1778 -->
<svg id="main" version="1.1" xmlns="http://www.w3.org/2000/svg" xmlns:xlink="http://www.w3.org/1999/xlink" xml:space="preserve" onload="init(evt)">
<style type="text/css"><![CDATA[
.edge:hover path { stroke: red; }
.edge:hover polygon { stroke: red; fill: red; }
]]></style>
<script type="text/javascript"><![CDATA[
var edges = document.getElementsByTagName('g');
if (edges && edges.length) {
  for (var i=0;i<edges.length;i++) {
    if (edges[i].id.substr(0,4)=='edge') {
      edges[i].setAttribute('class','edge');
    }
  }
}
]]></script>
        <defs>
                <circle id="rim" cx="0" cy="0" r="7"/>
                <circle id="rim2" cx="0" cy="0" r="3.5"/>
                <g id="zoomPlus">
                        <use xlink:href="#rim" fill="#404040">
                                <set attributeName="fill" to="#808080" begin="zoomplus.mouseover" end="zoomplus.mouseout"/>
                        </use>
                        <path d="M-4,0h8M0,-4v8" fill="none" stroke="white" stroke-width="1.5" pointer-events="none"/>
                </g>
                <g id="zoomMin">
                        <use xlink:href="#rim" fill="#404040">
                                <set attributeName="fill" to="#808080" begin="zoomminus.mouseover" end="zoomminus.mouseout"/>
                        </use>
                        <path d="M-4,0h8" fill="none" stroke="white" stroke-width="1.5" pointer-events="none"/>
                </g>
                <g id="dirArrow">
                        <path fill="none" stroke="white" stroke-width="1.5" d="M0,-3.0v7 M-2.5,-0.5L0,-3.0L2.5,-0.5"/>
                </g>
               <g id="resetDef">
                       <use xlink:href="#rim2" fill="#404040">
                               <set attributeName="fill" to="#808080" begin="reset.mouseover" end="reset.mouseout"/>
                       </use>
               </g>
        </defs>

<script type="text/javascript">
var viewWidth = 233;
var viewHeight = 1778;
var sectionId = 'dynsection-0';
</script>
<script xlink:href="svgpan.js"/>
<svg id="graph" class="graph">
<g id="viewport">
<title>IControl</title>
<!-- Node1 -->
<g id="node1" class="node">
<title>Node1</title>
<g id="a_node1"><a xlink:title="The lowest level base class of an IGraphics control.">
<polygon fill="#999999" stroke="#666666" points="50,-900 0,-900 0,-881 50,-881 50,-900"/>
<text text-anchor="middle" x="25" y="-888" font-family="Helvetica,sans-Serif" font-size="10.00">IControl</text>
</a>
</g>
</g>
<!-- Node2 -->
<g id="node2" class="node">
<title>Node2</title>
<g id="a_node2"><a xlink:href="class_g_f_x_label_control.html" target="_top" xlink:title="Control to display the graphics backend.">
<polygon fill="white" stroke="#666666" points="201.5,-1770 109.5,-1770 109.5,-1751 201.5,-1751 201.5,-1770"/>
<text text-anchor="middle" x="155.5" y="-1758" font-family="Helvetica,sans-Serif" font-size="10.00">GFXLabelControl</text>
</a>
</g>
</g>
<!-- Node1&#45;&gt;Node2 -->
<g id="edge1" class="edge">
<title>Node1&#45;&gt;Node2</title>
<path fill="none" stroke="#63b8ff" d="M26.04,-911.68C26.48,-1036.84 31.39,-1676.62 86,-1742.5 91.88,-1749.6 100.2,-1754.09 109.02,-1756.88"/>
<polygon fill="#63b8ff" stroke="#63b8ff" points="29.54,-911.87 26.01,-901.88 22.54,-911.89 29.54,-911.87"/>
</g>
<!-- Node3 -->
<g id="node3" class="node">
<title>Node3</title>
<g id="a_node3"><a xlink:href="class_i_bitmap_control.html" target="_top" xlink:title="A basic control to draw a bitmap, or one frame of a stacked bitmap depending on the current value.">
<polygon fill="#fff0f0" stroke="red" points="196,-1733 115,-1733 115,-1714 196,-1714 196,-1733"/>
<text text-anchor="middle" x="155.5" y="-1721" font-family="Helvetica,sans-Serif" font-size="10.00">IBitmapControl</text>
</a>
</g>
</g>
<!-- Node1&#45;&gt;Node3 -->
<g id="edge2" class="edge">
<title>Node1&#45;&gt;Node3</title>
<path fill="none" stroke="#63b8ff" d="M26.12,-911.89C26.97,-1034.29 33.82,-1642.74 86,-1705.5 93.15,-1714.1 103.88,-1718.87 114.73,-1721.43"/>
<polygon fill="#63b8ff" stroke="#63b8ff" points="29.62,-911.98 26.05,-902.01 22.62,-912.03 29.62,-911.98"/>
</g>
<!-- Node6 -->
<g id="node4" class="node">
<title>Node6</title>
<g id="a_node4"><a xlink:href="class_i_bubble_control.html" target="_top" xlink:title="A special control to draw contextual info as a slider etc is moved If used in the main IControl stack...">
<polygon fill="white" stroke="#666666" points="195.5,-1696 115.5,-1696 115.5,-1677 195.5,-1677 195.5,-1696"/>
<text text-anchor="middle" x="155.5" y="-1684" font-family="Helvetica,sans-Serif" font-size="10.00">IBubbleControl</text>
</a>
</g>
</g>
<!-- Node1&#45;&gt;Node6 -->
<g id="edge3" class="edge">
<title>Node1&#45;&gt;Node6</title>
<path fill="none" stroke="#63b8ff" d="M26.19,-911.65C27.46,-1030.17 36.17,-1608.79 86,-1668.5 93.25,-1677.19 104.13,-1681.95 115.11,-1684.5"/>
<polygon fill="#63b8ff" stroke="#63b8ff" points="29.69,-911.79 26.09,-901.82 22.69,-911.86 29.69,-911.79"/>
</g>
<!-- Node7 -->
<g id="node5" class="node">
<title>Node7</title>
<g id="a_node5"><a xlink:href="class_i_button_control_base.html" target="_top" xlink:title="A base class for buttons/momentary switches &#45; cannot be linked to parameters.">
<polygon fill="#fff0f0" stroke="red" points="206,-1659 105,-1659 105,-1640 206,-1640 206,-1659"/>
<text text-anchor="middle" x="155.5" y="-1647" font-family="Helvetica,sans-Serif" font-size="10.00">IButtonControlBase</text>
</a>
</g>
</g>
<!-- Node1&#45;&gt;Node7 -->
<g id="edge4" class="edge">
<title>Node1&#45;&gt;Node7</title>
<path fill="none" stroke="#63b8ff" d="M26.28,-911.71C27.99,-1026.96 38.57,-1574.88 86,-1631.5 90.9,-1637.34 97.44,-1641.41 104.54,-1644.22"/>
<polygon fill="#63b8ff" stroke="#63b8ff" points="29.78,-911.83 26.14,-901.88 22.78,-911.93 29.78,-911.83"/>
</g>
<!-- Node11 -->
<g id="node6" class="node">
<title>Node11</title>
<g id="a_node6"><a xlink:href="class_i_color_picker_control.html" target="_top" xlink:title="A control for choosing a color.">
<polygon fill="white" stroke="#666666" points="206,-1622 105,-1622 105,-1603 206,-1603 206,-1622"/>
<text text-anchor="middle" x="155.5" y="-1610" font-family="Helvetica,sans-Serif" font-size="10.00">IColorPickerControl</text>
</a>
</g>
</g>
<!-- Node1&#45;&gt;Node11 -->
<g id="edge5" class="edge">
<title>Node1&#45;&gt;Node11</title>
<path fill="none" stroke="#63b8ff" d="M26.37,-911.69C28.54,-1023.4 40.95,-1540.95 86,-1594.5 90.91,-1600.33 97.46,-1604.4 104.56,-1607.21"/>
<polygon fill="#63b8ff" stroke="#63b8ff" points="29.88,-911.83 26.19,-901.89 22.88,-911.96 29.88,-911.83"/>
</g>
<!-- Node12 -->
<g id="node7" class="node">
<title>Node12</title>
<g id="a_node7"><a xlink:href="class_i_container_base.html" target="_top" xlink:title="IContainerBase allows a control to nest sub controls and it clips the drawing of those subcontrols In...">
<polygon fill="#fff0f0" stroke="red" points="197,-1585 114,-1585 114,-1566 197,-1566 197,-1585"/>
<text text-anchor="middle" x="155.5" y="-1573" font-family="Helvetica,sans-Serif" font-size="10.00">IContainerBase</text>
</a>
</g>
</g>
<!-- Node1&#45;&gt;Node12 -->
<g id="edge6" class="edge">
<title>Node1&#45;&gt;Node12</title>
<path fill="none" stroke="#63b8ff" d="M26.48,-911.57C29.11,-1019.45 43.31,-1507 86,-1557.5 92.99,-1565.76 103.26,-1570.47 113.74,-1573.1"/>
<polygon fill="#63b8ff" stroke="#63b8ff" points="29.98,-911.54 26.24,-901.62 22.98,-911.7 29.98,-911.54"/>
</g>
<!-- Node25 -->
<g id="node8" class="node">
<title>Node25</title>
<g id="a_node8"><a xlink:href="class_i_corner_resizer_control.html" target="_top" xlink:title="A control for resizing the plug&#45;in window by clicking and dragging in the bottom right&#45;hand corner Th...">
<polygon fill="white" stroke="#666666" points="211,-1548 100,-1548 100,-1529 211,-1529 211,-1548"/>
<text text-anchor="middle" x="155.5" y="-1536" font-family="Helvetica,sans-Serif" font-size="10.00">ICornerResizerControl</text>
</a>
</g>
</g>
<!-- Node1&#45;&gt;Node25 -->
<g id="edge7" class="edge">
<title>Node1&#45;&gt;Node25</title>
<path fill="none" stroke="#63b8ff" d="M26.59,-911.37C29.7,-1015.19 45.66,-1473.03 86,-1520.5 89.74,-1524.9 94.42,-1528.3 99.56,-1530.9"/>
<polygon fill="#63b8ff" stroke="#63b8ff" points="30.09,-911.45 26.3,-901.56 23.1,-911.66 30.09,-911.45"/>
</g>
<!-- Node26 -->
<g id="node9" class="node">
<title>Node26</title>
<g id="a_node9"><a xlink:href="class_i_f_p_s_display_control.html" target="_top" xlink:title="Performance display meter, based on code from NanoVG This is a special control that lives outside the...">
<polygon fill="white" stroke="#666666" points="206,-1511 105,-1511 105,-1492 206,-1492 206,-1511"/>
<text text-anchor="middle" x="155.5" y="-1499" font-family="Helvetica,sans-Serif" font-size="10.00">IFPSDisplayControl</text>
</a>
</g>
</g>
<!-- Node1&#45;&gt;Node26 -->
<g id="edge8" class="edge">
<title>Node1&#45;&gt;Node26</title>
<path fill="none" stroke="#63b8ff" d="M26.73,-911.71C30.4,-1012.4 48.07,-1439.14 86,-1483.5 90.95,-1489.29 97.53,-1493.34 104.64,-1496.14"/>
<polygon fill="#63b8ff" stroke="#63b8ff" points="30.24,-911.79 26.38,-901.92 23.24,-912.04 30.24,-911.79"/>
</g>
<!-- Node27 -->
<g id="node10" class="node">
<title>Node27</title>
<g id="a_node10"><a xlink:href="class_i_graphics_live_edit.html" target="_top" xlink:title="A control to enable live modification of control layout in an IGraphics context in debug builds This ...">
<polygon fill="white" stroke="#666666" points="202.5,-1474 108.5,-1474 108.5,-1455 202.5,-1455 202.5,-1474"/>
<text text-anchor="middle" x="155.5" y="-1462" font-family="Helvetica,sans-Serif" font-size="10.00">IGraphicsLiveEdit</text>
</a>
</g>
</g>
<!-- Node1&#45;&gt;Node27 -->
<g id="edge9" class="edge">
<title>Node1&#45;&gt;Node27</title>
<path fill="none" stroke="#63b8ff" d="M26.88,-911.58C31.08,-1008.14 50.43,-1405.17 86,-1446.5 91.78,-1453.21 99.72,-1457.57 108.16,-1460.37"/>
<polygon fill="#63b8ff" stroke="#63b8ff" points="30.38,-911.59 26.46,-901.75 23.39,-911.89 30.38,-911.59"/>
</g>
<!-- Node28 -->
<g id="node11" class="node">
<title>Node28</title>
<g id="a_node11"><a xlink:href="class_i_knob_control_base.html" target="_top" xlink:title="A base class for knob/dial controls, to handle mouse action and Sender.">
<polygon fill="#fff0f0" stroke="red" points="203,-1437 108,-1437 108,-1418 203,-1418 203,-1437"/>
<text text-anchor="middle" x="155.5" y="-1425" font-family="Helvetica,sans-Serif" font-size="10.00">IKnobControlBase</text>
</a>
</g>
</g>
<!-- Node1&#45;&gt;Node28 -->
<g id="edge10" class="edge">
<title>Node1&#45;&gt;Node28</title>
<path fill="none" stroke="#63b8ff" d="M27.07,-911.92C31.88,-1004.98 52.83,-1371.25 86,-1409.5 91.72,-1416.1 99.54,-1420.42 107.85,-1423.22"/>
<polygon fill="#63b8ff" stroke="#63b8ff" points="30.56,-911.77 26.56,-901.96 23.57,-912.13 30.56,-911.77"/>
</g>
<!-- Node41 -->
<g id="node12" class="node">
<title>Node41</title>
<g id="a_node12"><a xlink:href="class_i_l_e_d_control.html" target="_top" xlink:title="Glowing LED control.">
<polygon fill="white" stroke="#666666" points="190,-1400 121,-1400 121,-1381 190,-1381 190,-1400"/>
<text text-anchor="middle" x="155.5" y="-1388" font-family="Helvetica,sans-Serif" font-size="10.00">ILEDControl</text>
</a>
</g>
</g>
<!-- Node1&#45;&gt;Node41 -->
<g id="edge11" class="edge">
<title>Node1&#45;&gt;Node41</title>
<path fill="none" stroke="#63b8ff" d="M25.61,-911.76C24.51,-995.66 24.79,-1302.55 86,-1372.5 94.66,-1382.4 108.05,-1387.17 120.7,-1389.37"/>
<polygon fill="#63b8ff" stroke="#63b8ff" points="29.1,-912.04 25.76,-901.99 22.11,-911.93 29.1,-912.04"/>
</g>
<!-- Node42 -->
<g id="node13" class="node">
<title>Node42</title>
<g id="a_node13"><a xlink:href="class_i_lambda_control.html" target="_top" xlink:title="A control that can be specialised with a lambda function, for quick experiments without making a cust...">
<polygon fill="white" stroke="#666666" points="198.5,-1363 112.5,-1363 112.5,-1344 198.5,-1344 198.5,-1363"/>
<text text-anchor="middle" x="155.5" y="-1351" font-family="Helvetica,sans-Serif" font-size="10.00">ILambdaControl</text>
</a>
</g>
</g>
<!-- Node1&#45;&gt;Node42 -->
<g id="edge12" class="edge">
<title>Node1&#45;&gt;Node42</title>
<path fill="none" stroke="#63b8ff" d="M25.85,-911.89C25.75,-991.82 29.51,-1271.6 86,-1335.5 92.76,-1343.15 102.34,-1347.73 112.19,-1350.43"/>
<polygon fill="#63b8ff" stroke="#63b8ff" points="29.35,-912 25.89,-901.99 22.35,-911.97 29.35,-912"/>
</g>
<!-- Node43 -->
<g id="node14" class="node">
<title>Node43</title>
<g id="a_node14"><a xlink:href="class_i_platform_view_control.html" target="_top" xlink:title="A control that let&#39;s you embed a HWND, UIView or NSView inside an IGraphics UI.">
<polygon fill="white" stroke="#666666" points="210,-1326 101,-1326 101,-1307 210,-1307 210,-1326"/>
<text text-anchor="middle" x="155.5" y="-1314" font-family="Helvetica,sans-Serif" font-size="10.00">IPlatformViewControl</text>
</a>
</g>
</g>
<!-- Node1&#45;&gt;Node43 -->
<g id="edge13" class="edge">
<title>Node1&#45;&gt;Node43</title>
<path fill="none" stroke="#63b8ff" d="M26.14,-911.55C27.08,-986.72 34.1,-1240.5 86,-1298.5 90.1,-1303.08 95.21,-1306.56 100.78,-1309.19"/>
<polygon fill="#63b8ff" stroke="#63b8ff" points="29.64,-911.85 26.05,-901.89 22.64,-911.92 29.64,-911.85"/>
</g>
<!-- Node44 -->
<g id="node15" class="node">
<title>Node44</title>
<g id="a_node15"><a xlink:href="class_i_popup_menu_control.html" target="_top" xlink:title="A base control for a pop&#45;up menu/drop&#45;down list that stays within the bounds of the IGraphics context...">
<polygon fill="white" stroke="#666666" points="206.5,-1289 104.5,-1289 104.5,-1270 206.5,-1270 206.5,-1289"/>
<text text-anchor="middle" x="155.5" y="-1277" font-family="Helvetica,sans-Serif" font-size="10.00">IPopupMenuControl</text>
</a>
</g>
</g>
<!-- Node1&#45;&gt;Node44 -->
<g id="edge14" class="edge">
<title>Node1&#45;&gt;Node44</title>
<path fill="none" stroke="#63b8ff" d="M26.48,-911.43C28.52,-981.96 38.73,-1209.43 86,-1261.5 90.96,-1266.96 97.36,-1270.85 104.24,-1273.61"/>
<polygon fill="#63b8ff" stroke="#63b8ff" points="29.98,-911.58 26.23,-901.68 22.99,-911.77 29.98,-911.58"/>
</g>
<!-- Node45 -->
<g id="node16" class="node">
<title>Node45</title>
<g id="a_node16"><a xlink:href="class_i_s_v_g_control.html" target="_top" xlink:title="A basic control to draw an SVG image to the screen.">
<polygon fill="white" stroke="#666666" points="191,-1252 120,-1252 120,-1233 191,-1233 191,-1252"/>
<text text-anchor="middle" x="155.5" y="-1240" font-family="Helvetica,sans-Serif" font-size="10.00">ISVGControl</text>
</a>
</g>
</g>
<!-- Node1&#45;&gt;Node45 -->
<g id="edge15" class="edge">
<title>Node1&#45;&gt;Node45</title>
<path fill="none" stroke="#63b8ff" d="M26.91,-911.88C30.18,-978.15 43.46,-1178.45 86,-1224.5 94.59,-1233.8 107.36,-1238.53 119.55,-1240.87"/>
<polygon fill="#63b8ff" stroke="#63b8ff" points="30.42,-911.84 26.46,-902.01 23.42,-912.16 30.42,-911.84"/>
</g>
<!-- Node46 -->
<g id="node17" class="node">
<title>Node46</title>
<g id="a_node17"><a xlink:href="class_i_shader_control.html" target="_top" xlink:title="This control allows you to draw to the UI via a shader written using the Skia shading language,...">
<polygon fill="white" stroke="#666666" points="196,-1215 115,-1215 115,-1196 196,-1196 196,-1215"/>
<text text-anchor="middle" x="155.5" y="-1203" font-family="Helvetica,sans-Serif" font-size="10.00">IShaderControl</text>
</a>
</g>
</g>
<!-- Node1&#45;&gt;Node46 -->
<g id="edge16" class="edge">
<title>Node1&#45;&gt;Node46</title>
<path fill="none" stroke="#63b8ff" d="M27.41,-911.47C31.92,-972.34 47.99,-1147.23 86,-1187.5 93.51,-1195.46 104.08,-1200.06 114.67,-1202.67"/>
<polygon fill="#63b8ff" stroke="#63b8ff" points="30.92,-911.54 26.73,-901.82 23.94,-912.04 30.92,-911.54"/>
</g>
<!-- Node47 -->
<g id="node18" class="node">
<title>Node47</title>
<g id="a_node18"><a xlink:href="class_i_sk_lottie_control.html" target="_top" xlink:title="A control that hosts a Lottie animation, via Skia&#39;s Skottie module https://skia.org/user/modules/skot...">
<polygon fill="white" stroke="#666666" points="199,-1178 112,-1178 112,-1159 199,-1159 199,-1178"/>
<text text-anchor="middle" x="155.5" y="-1166" font-family="Helvetica,sans-Serif" font-size="10.00">ISkLottieControl</text>
</a>
</g>
</g>
<!-- Node1&#45;&gt;Node47 -->
<g id="edge17" class="edge">
<title>Node1&#45;&gt;Node47</title>
<path fill="none" stroke="#63b8ff" d="M28.09,-911.74C34.01,-967.5 52.63,-1116.11 86,-1150.5 92.85,-1157.56 102.11,-1161.97 111.6,-1164.69"/>
<polygon fill="#63b8ff" stroke="#63b8ff" points="31.6,-911.6 27.1,-902 24.63,-912.31 31.6,-911.6"/>
</g>
<!-- Node48 -->
<g id="node19" class="node">
<title>Node48</title>
<g id="a_node19"><a xlink:href="class_i_sk_paragraph_control.html" target="_top" xlink:title="A control that demonstrates how to draw rich text using SkParagraph.">
<polygon fill="white" stroke="#666666" points="209,-1141 102,-1141 102,-1122 209,-1122 209,-1141"/>
<text text-anchor="middle" x="155.5" y="-1129" font-family="Helvetica,sans-Serif" font-size="10.00">ISkParagraphControl</text>
</a>
</g>
</g>
<!-- Node1&#45;&gt;Node48 -->
<g id="edge18" class="edge">
<title>Node1&#45;&gt;Node48</title>
<path fill="none" stroke="#63b8ff" d="M25.17,-911.65C24.65,-955.69 29.97,-1057.79 86,-1113.5 90.45,-1117.92 95.84,-1121.3 101.63,-1123.86"/>
<polygon fill="#63b8ff" stroke="#63b8ff" points="28.66,-911.78 25.42,-901.69 21.67,-911.6 28.66,-911.78"/>
</g>
<!-- Node49 -->
<g id="node20" class="node">
<title>Node49</title>
<g id="a_node20"><a xlink:href="class_i_slider_control_base.html" target="_top" xlink:title="A base class for slider/fader controls, to handle mouse action and Sender.">
<polygon fill="#fff0f0" stroke="red" points="204.5,-1104 106.5,-1104 106.5,-1085 204.5,-1085 204.5,-1104"/>
<text text-anchor="middle" x="155.5" y="-1092" font-family="Helvetica,sans-Serif" font-size="10.00">ISliderControlBase</text>
</a>
</g>
</g>
<!-- Node1&#45;&gt;Node49 -->
<g id="edge19" class="edge">
<title>Node1&#45;&gt;Node49</title>
<path fill="none" stroke="#63b8ff" d="M26.52,-911.55C28.66,-950.03 38.84,-1031.87 86,-1076.5 91.72,-1081.91 98.85,-1085.74 106.35,-1088.44"/>
<polygon fill="#63b8ff" stroke="#63b8ff" points="30.03,-911.64 26.13,-901.79 23.04,-911.92 30.03,-911.64"/>
</g>
<!-- Node54 -->
<g id="node21" class="node">
<title>Node54</title>
<g id="a_node21"><a xlink:href="class_i_switch_control_base.html" target="_top" xlink:title="A base class for switch controls.">
<polygon fill="#fff0f0" stroke="red" points="207,-1067 104,-1067 104,-1048 207,-1048 207,-1067"/>
<text text-anchor="middle" x="155.5" y="-1055" font-family="Helvetica,sans-Serif" font-size="10.00">ISwitchControlBase</text>
</a>
</g>
</g>
<!-- Node1&#45;&gt;Node54 -->
<g id="edge20" class="edge">
<title>Node1&#45;&gt;Node54</title>
<path fill="none" stroke="#63b8ff" d="M28.46,-911.37C33.41,-943.69 47.59,-1005.64 86,-1039.5 91.07,-1043.97 97.13,-1047.35 103.51,-1049.91"/>
<polygon fill="#63b8ff" stroke="#63b8ff" points="31.97,-911.14 27.15,-901.71 25.03,-912.09 31.97,-911.14"/>
</g>
<!-- Node63 -->
<g id="node22" class="node">
<title>Node63</title>
<g id="a_node22"><a xlink:href="class_i_text_control.html" target="_top" xlink:title="A basic control to display some text.">
<polygon fill="#fff0f0" stroke="red" points="190,-1030 121,-1030 121,-1011 190,-1011 190,-1030"/>
<text text-anchor="middle" x="155.5" y="-1018" font-family="Helvetica,sans-Serif" font-size="10.00">ITextControl</text>
</a>
</g>
</g>
<!-- Node1&#45;&gt;Node63 -->
<g id="edge21" class="edge">
<title>Node1&#45;&gt;Node63</title>
<path fill="none" stroke="#63b8ff" d="M31.54,-911.23C39.39,-936.58 56.23,-979.02 86,-1002.5 95.85,-1010.27 108.72,-1014.7 120.65,-1017.23"/>
<polygon fill="#63b8ff" stroke="#63b8ff" points="34.94,-910.4 28.8,-901.76 28.22,-912.34 34.94,-910.4"/>
</g>
<!-- Node74 -->
<g id="node23" class="node">
<title>Node74</title>
<g id="a_node23"><a xlink:href="class_i_text_entry_control.html" target="_top" xlink:title="A Text entry widget drawn by IGraphics.">
<polygon fill="white" stroke="#666666" points="201,-993 110,-993 110,-974 201,-974 201,-993"/>
<text text-anchor="middle" x="155.5" y="-981" font-family="Helvetica,sans-Serif" font-size="10.00">ITextEntryControl</text>
</a>
</g>
</g>
<!-- Node1&#45;&gt;Node74 -->
<g id="edge22" class="edge">
<title>Node1&#45;&gt;Node74</title>
<path fill="none" stroke="#63b8ff" d="M36.73,-910.05C47.12,-927.19 64.47,-951.5 86,-965.5 93.11,-970.12 101.37,-973.56 109.63,-976.12"/>
<polygon fill="#63b8ff" stroke="#63b8ff" points="39.97,-908.67 31.93,-901.77 33.91,-912.18 39.97,-908.67"/>
</g>
<!-- Node75 -->
<g id="node24" class="node">
<title>Node75</title>
<g id="a_node24"><a xlink:href="class_i_v_color_swatch_control.html" target="_top" xlink:title="A control to show a color swatch of up to 9 colors.">
<polygon fill="white" stroke="#666666" points="212,-956 99,-956 99,-937 212,-937 212,-956"/>
<text text-anchor="middle" x="155.5" y="-944" font-family="Helvetica,sans-Serif" font-size="10.00">IVColorSwatchControl</text>
</a>
</g>
</g>
<!-- Node1&#45;&gt;Node75 -->
<g id="edge23" class="edge">
<title>Node1&#45;&gt;Node75</title>
<path fill="none" stroke="#63b8ff" d="M47.91,-906.68C58.89,-914.18 72.67,-922.69 86,-928.5 93.1,-931.59 100.86,-934.25 108.51,-936.51"/>
<polygon fill="#63b8ff" stroke="#63b8ff" points="50.12,-903.95 39.93,-901.05 46.09,-909.67 50.12,-903.95"/>
</g>
<!-- Node76 -->
<g id="node25" class="node">
<title>Node76</title>
<g id="a_node25"><a xlink:href="class_i_v_display_control.html" target="_top" xlink:title="A control to display a rolling graphics of historical values.">
<polygon fill="white" stroke="#666666" points="200,-919 111,-919 111,-900 200,-900 200,-919"/>
<text text-anchor="middle" x="155.5" y="-907" font-family="Helvetica,sans-Serif" font-size="10.00">IVDisplayControl</text>
</a>
</g>
</g>
<!-- Node1&#45;&gt;Node76 -->
<g id="edge24" class="edge">
<title>Node1&#45;&gt;Node76</title>
<path fill="none" stroke="#63b8ff" d="M61.49,-895.75C76.69,-897.99 94.59,-900.64 110.61,-903.01"/>
<polygon fill="#63b8ff" stroke="#63b8ff" points="62.37,-892.34 51.97,-894.34 61.35,-899.27 62.37,-892.34"/>
</g>
<!-- Node77 -->
<g id="node26" class="node">
<title>Node77</title>
<g id="a_node26"><a xlink:href="class_i_v_keyboard_control.html" target="_top" xlink:title="Vectorial keyboard control.">
<polygon fill="white" stroke="#666666" points="204.5,-882 106.5,-882 106.5,-863 204.5,-863 204.5,-882"/>
<text text-anchor="middle" x="155.5" y="-870" font-family="Helvetica,sans-Serif" font-size="10.00">IVKeyboardControl</text>
</a>
</g>
</g>
<!-- Node1&#45;&gt;Node77 -->
<g id="edge25" class="edge">
<title>Node1&#45;&gt;Node77</title>
<path fill="none" stroke="#63b8ff" d="M61.47,-885.53C75.28,-883.6 91.33,-881.35 106.17,-879.27"/>
<polygon fill="#63b8ff" stroke="#63b8ff" points="61.39,-882.01 51.97,-886.86 62.36,-888.94 61.39,-882.01"/>
</g>
<!-- Node78 -->
<g id="node27" class="node">
<title>Node78</title>
<g id="a_node27"><a xlink:href="class_i_v_plot_control.html" target="_top" xlink:title="A vector plot to display functions and waveforms.">
<polygon fill="white" stroke="#666666" points="192.5,-845 118.5,-845 118.5,-826 192.5,-826 192.5,-845"/>
<text text-anchor="middle" x="155.5" y="-833" font-family="Helvetica,sans-Serif" font-size="10.00">IVPlotControl</text>
</a>
</g>
</g>
<!-- Node1&#45;&gt;Node78 -->
<g id="edge26" class="edge">
<title>Node1&#45;&gt;Node78</title>
<path fill="none" stroke="#63b8ff" d="M49.25,-874.54C60.06,-867.65 73.31,-859.95 86,-854.5 96.21,-850.12 107.7,-846.47 118.32,-843.58"/>
<polygon fill="#63b8ff" stroke="#63b8ff" points="47.43,-871.55 40.99,-879.96 51.28,-877.4 47.43,-871.55"/>
</g>
<!-- Node79 -->
<g id="node28" class="node">
<title>Node79</title>
<g id="a_node28"><a xlink:href="class_i_v_scope_control.html" target="_top" xlink:title="Vectorial multi&#45;channel capable oscilloscope control.">
<polygon fill="white" stroke="#666666" points="221.5,-807.5 89.5,-807.5 89.5,-777.5 221.5,-777.5 221.5,-807.5"/>
<text text-anchor="start" x="97.5" y="-795.5" font-family="Helvetica,sans-Serif" font-size="10.00">IVScopeControl&lt; MAXNC,</text>
<text text-anchor="middle" x="155.5" y="-784.5" font-family="Helvetica,sans-Serif" font-size="10.00"> MAXBUF &gt;</text>
</a>
</g>
</g>
<!-- Node1&#45;&gt;Node79 -->
<g id="edge27" class="edge">
<title>Node1&#45;&gt;Node79</title>
<path fill="none" stroke="#63b8ff" d="M37.81,-870.94C48.56,-854.63 65.8,-831.81 86,-817.5 91.16,-813.84 96.93,-810.66 102.85,-807.9"/>
<polygon fill="#63b8ff" stroke="#63b8ff" points="34.92,-868.96 32.53,-879.29 40.84,-872.71 34.92,-868.96"/>
</g>
<!-- Node80 -->
<g id="node29" class="node">
<title>Node80</title>
<g id="a_node29"><a xlink:href="class_i_v_track_control_base.html" target="_top" xlink:title="A base class for mult&#45;strip/track controls, such as multi&#45;sliders, meters Track refers to the channel...">
<polygon fill="#fff0f0" stroke="red" points="207.5,-759 103.5,-759 103.5,-740 207.5,-740 207.5,-759"/>
<text text-anchor="middle" x="155.5" y="-747" font-family="Helvetica,sans-Serif" font-size="10.00">IVTrackControlBase</text>
</a>
</g>
</g>
<!-- Node1&#45;&gt;Node80 -->
<g id="edge28" class="edge">
<title>Node1&#45;&gt;Node80</title>
<path fill="none" stroke="#63b8ff" d="M30.65,-869.59C37.81,-842.29 54.17,-794.89 86,-768.5 91.04,-764.33 96.92,-761.07 103.09,-758.52"/>
<polygon fill="#63b8ff" stroke="#63b8ff" points="27.3,-868.55 28.34,-879.1 34.1,-870.2 27.3,-868.55"/>
</g>
<!-- Node89 -->
<g id="node30" class="node">
<title>Node89</title>
<g id="a_node30"><a xlink:href="class_i_v_x_y_pad_control.html" target="_top" xlink:title="A vector XY Pad slider control.">
<polygon fill="white" stroke="#666666" points="199.5,-722 111.5,-722 111.5,-703 199.5,-703 199.5,-722"/>
<text text-anchor="middle" x="155.5" y="-710" font-family="Helvetica,sans-Serif" font-size="10.00">IVXYPadControl</text>
</a>
</g>
</g>
<!-- Node1&#45;&gt;Node89 -->
<g id="edge29" class="edge">
<title>Node1&#45;&gt;Node89</title>
<path fill="none" stroke="#63b8ff" d="M27.96,-869.27C32.27,-835.19 45.63,-768.38 86,-731.5 93.02,-725.09 102.01,-720.82 111.15,-717.98"/>
<polygon fill="#63b8ff" stroke="#63b8ff" points="24.5,-868.77 26.89,-879.09 31.46,-869.53 24.5,-868.77"/>
</g>
<!-- Node90 -->
<g id="node31" class="node">
<title>Node90</title>
<g id="a_node31"><a xlink:href="class_i_web_view_control.html" target="_top" xlink:title="A control that allows the embedding of HTML UI inside an IGraphics context using a platform&#45;native we...">
<polygon fill="white" stroke="#666666" points="201.5,-685 109.5,-685 109.5,-666 201.5,-666 201.5,-685"/>
<text text-anchor="middle" x="155.5" y="-673" font-family="Helvetica,sans-Serif" font-size="10.00">IWebViewControl</text>
</a>
</g>
</g>
<!-- Node1&#45;&gt;Node90 -->
<g id="edge30" class="edge">
<title>Node1&#45;&gt;Node90</title>
<path fill="none" stroke="#63b8ff" d="M26.18,-869.24C27.71,-829.2 36.88,-742.34 86,-694.5 92.37,-688.3 100.57,-684.09 109.07,-681.23"/>
<polygon fill="#63b8ff" stroke="#63b8ff" points="22.68,-869.1 25.95,-879.18 29.68,-869.27 22.68,-869.1"/>
</g>
<!-- Node91 -->
<g id="node32" class="node">
<title>Node91</title>
<g id="a_node32"><a xlink:href="class_test_animation_control.html" target="_top" xlink:title="Control to test animation.">
<polygon fill="white" stroke="#666666" points="210.5,-648 100.5,-648 100.5,-629 210.5,-629 210.5,-648"/>
<text text-anchor="middle" x="155.5" y="-636" font-family="Helvetica,sans-Serif" font-size="10.00">TestAnimationControl</text>
</a>
</g>
</g>
<!-- Node1&#45;&gt;Node91 -->
<g id="edge31" class="edge">
<title>Node1&#45;&gt;Node91</title>
<path fill="none" stroke="#63b8ff" d="M28.71,-869.48C35.74,-818.06 56.12,-687.93 86,-657.5 90.06,-653.36 94.94,-650.1 100.2,-647.54"/>
<polygon fill="#63b8ff" stroke="#63b8ff" points="25.26,-868.87 27.41,-879.24 32.2,-869.79 25.26,-868.87"/>
</g>
<!-- Node92 -->
<g id="node33" class="node">
<title>Node92</title>
<g id="a_node33"><a xlink:href="class_test_bezier_control.html" target="_top" xlink:title="Control to test drawing bezier curves.">
<polygon fill="white" stroke="#666666" points="202.5,-611 108.5,-611 108.5,-592 202.5,-592 202.5,-611"/>
<text text-anchor="middle" x="155.5" y="-599" font-family="Helvetica,sans-Serif" font-size="10.00">TestBezierControl</text>
</a>
</g>
</g>
<!-- Node1&#45;&gt;Node92 -->
<g id="edge32" class="edge">
<title>Node1&#45;&gt;Node92</title>
<path fill="none" stroke="#63b8ff" d="M27.89,-869.61C33.45,-812.7 51.57,-656.76 86,-620.5 92.03,-614.15 99.99,-609.85 108.34,-606.97"/>
<polygon fill="#63b8ff" stroke="#63b8ff" points="24.44,-868.94 26.98,-879.22 31.41,-869.59 24.44,-868.94"/>
</g>
<!-- Node93 -->
<g id="node34" class="node">
<title>Node93</title>
<g id="a_node34"><a xlink:href="class_test_color_control.html" target="_top" xlink:title="Control to colors.">
<polygon fill="white" stroke="#666666" points="200,-574 111,-574 111,-555 200,-555 200,-574"/>
<text text-anchor="middle" x="155.5" y="-562" font-family="Helvetica,sans-Serif" font-size="10.00">TestColorControl</text>
</a>
</g>
</g>
<!-- Node1&#45;&gt;Node93 -->
<g id="edge33" class="edge">
<title>Node1&#45;&gt;Node93</title>
<path fill="none" stroke="#63b8ff" d="M27.3,-869.27C31.56,-806.83 47.09,-625.55 86,-583.5 92.54,-576.43 101.45,-571.91 110.68,-569.04"/>
<polygon fill="#63b8ff" stroke="#63b8ff" points="23.81,-868.98 26.66,-879.19 30.8,-869.43 23.81,-868.98"/>
</g>
<!-- Node94 -->
<g id="node35" class="node">
<title>Node94</title>
<g id="a_node35"><a xlink:href="class_test_cursor_control.html" target="_top" xlink:title="Control to test changing the platform cursor.">
<polygon fill="white" stroke="#666666" points="203,-537 108,-537 108,-518 203,-518 203,-537"/>
<text text-anchor="middle" x="155.5" y="-525" font-family="Helvetica,sans-Serif" font-size="10.00">TestCursorControl</text>
</a>
</g>
</g>
<!-- Node1&#45;&gt;Node94 -->
<g id="edge34" class="edge">
<title>Node1&#45;&gt;Node94</title>
<path fill="none" stroke="#63b8ff" d="M26.81,-869.38C29.81,-802.12 42.49,-594.5 86,-546.5 91.8,-540.1 99.55,-535.78 107.75,-532.88"/>
<polygon fill="#63b8ff" stroke="#63b8ff" points="23.33,-868.91 26.41,-879.05 30.32,-869.2 23.33,-868.91"/>
</g>
<!-- Node95 -->
<g id="node36" class="node">
<title>Node95</title>
<g id="a_node36"><a xlink:href="class_test_custom_shader_control.html" target="_top" xlink:title="Control to test IGraphicsNanoVG with Metal Shaders.">
<polygon fill="white" stroke="#666666" points="221,-500 90,-500 90,-481 221,-481 221,-500"/>
<text text-anchor="middle" x="155.5" y="-488" font-family="Helvetica,sans-Serif" font-size="10.00">TestCustomShaderControl</text>
</a>
</g>
</g>
<!-- Node1&#45;&gt;Node95 -->
<g id="edge35" class="edge">
<title>Node1&#45;&gt;Node95</title>
<path fill="none" stroke="#63b8ff" d="M26.41,-869.48C28.24,-797.67 37.86,-563.48 86,-509.5 89.29,-505.82 93.22,-502.82 97.51,-500.38"/>
<polygon fill="#63b8ff" stroke="#63b8ff" points="22.92,-869 26.19,-879.08 29.92,-869.16 22.92,-869"/>
</g>
<!-- Node96 -->
<g id="node37" class="node">
<title>Node96</title>
<g id="a_node37"><a xlink:href="class_test_drag_and_drop_control.html" target="_top" xlink:title="Control to test dropping single and multiple files.">
<polygon fill="white" stroke="#666666" points="218,-463 93,-463 93,-444 218,-444 218,-463"/>
<text text-anchor="middle" x="155.5" y="-451" font-family="Helvetica,sans-Serif" font-size="10.00">TestDragAndDropControl</text>
</a>
</g>
</g>
<!-- Node1&#45;&gt;Node96 -->
<g id="edge36" class="edge">
<title>Node1&#45;&gt;Node96</title>
<path fill="none" stroke="#63b8ff" d="M26.09,-869.46C26.83,-793.18 33.25,-532.48 86,-472.5 89.26,-468.79 93.17,-465.78 97.46,-463.34"/>
<polygon fill="#63b8ff" stroke="#63b8ff" points="22.59,-869.23 26.02,-879.26 29.59,-869.28 22.59,-869.23"/>
</g>
<!-- Node97 -->
<g id="node38" class="node">
<title>Node97</title>
<g id="a_node38"><a xlink:href="class_test_draw_context_control.html" target="_top" xlink:title="Control to test obtaining a drawing API (NanoVG, Skia, Canvas) context and using that API within an I...">
<polygon fill="white" stroke="#666666" points="216.5,-426 94.5,-426 94.5,-407 216.5,-407 216.5,-426"/>
<text text-anchor="middle" x="155.5" y="-414" font-family="Helvetica,sans-Serif" font-size="10.00">TestDrawContextControl</text>
</a>
</g>
</g>
<!-- Node1&#45;&gt;Node97 -->
<g id="edge37" class="edge">
<title>Node1&#45;&gt;Node97</title>
<path fill="none" stroke="#63b8ff" d="M25.81,-869.68C25.52,-789.46 28.56,-501.56 86,-435.5 89.16,-431.87 92.94,-428.9 97.09,-426.48"/>
<polygon fill="#63b8ff" stroke="#63b8ff" points="22.31,-869.22 25.87,-879.19 29.31,-869.17 22.31,-869.22"/>
</g>
<!-- Node98 -->
<g id="node39" class="node">
<title>Node98</title>
<g id="a_node39"><a xlink:href="class_test_drop_shadow_control.html" target="_top" xlink:title="Control to test layer drop shadows.">
<polygon fill="white" stroke="#666666" points="216.5,-389 94.5,-389 94.5,-370 216.5,-370 216.5,-389"/>
<text text-anchor="middle" x="155.5" y="-377" font-family="Helvetica,sans-Serif" font-size="10.00">TestDropShadowControl</text>
</a>
</g>
</g>
<!-- Node1&#45;&gt;Node98 -->
<g id="edge38" class="edge">
<title>Node1&#45;&gt;Node98</title>
<path fill="none" stroke="#63b8ff" d="M25.58,-869.37C24.32,-784.64 23.99,-470.53 86,-398.5 89.14,-394.85 92.91,-391.88 97.05,-389.45"/>
<polygon fill="#63b8ff" stroke="#63b8ff" points="22.08,-869.29 25.75,-879.23 29.07,-869.17 22.08,-869.29"/>
</g>
<!-- Node99 -->
<g id="node40" class="node">
<title>Node99</title>
<g id="a_node40"><a xlink:href="class_test_flex_box_control.html" target="_top" xlink:title="Control to test IGraphicsFlexBox.">
<polygon fill="white" stroke="#666666" points="206,-352 105,-352 105,-333 206,-333 206,-352"/>
<text text-anchor="middle" x="155.5" y="-340" font-family="Helvetica,sans-Serif" font-size="10.00">TestFlexBoxControl</text>
</a>
</g>
</g>
<!-- Node1&#45;&gt;Node99 -->
<g id="edge39" class="edge">
<title>Node1&#45;&gt;Node99</title>
<path fill="none" stroke="#63b8ff" d="M27.01,-869.57C31.67,-776.24 52.4,-400.86 86,-361.5 90.97,-355.68 97.55,-351.57 104.67,-348.67"/>
<polygon fill="#63b8ff" stroke="#63b8ff" points="23.52,-869.13 26.53,-879.29 30.51,-869.48 23.52,-869.13"/>
</g>
<!-- Node100 -->
<g id="node41" class="node">
<title>Node100</title>
<g id="a_node41"><a xlink:href="class_test_font_control.html" target="_top" xlink:title="Control to test drawing fonts.">
<polygon fill="white" stroke="#666666" points="198.5,-315 112.5,-315 112.5,-296 198.5,-296 198.5,-315"/>
<text text-anchor="middle" x="155.5" y="-303" font-family="Helvetica,sans-Serif" font-size="10.00">TestFontControl</text>
</a>
</g>
</g>
<!-- Node1&#45;&gt;Node100 -->
<g id="edge40" class="edge">
<title>Node1&#45;&gt;Node100</title>
<path fill="none" stroke="#63b8ff" d="M26.85,-869.35C30.97,-771.64 50.08,-366.89 86,-324.5 92.62,-316.68 102.15,-311.94 112,-309.1"/>
<polygon fill="#63b8ff" stroke="#63b8ff" points="23.36,-868.94 26.45,-879.08 30.36,-869.23 23.36,-868.94"/>
</g>
<!-- Node101 -->
<g id="node42" class="node">
<title>Node101</title>
<g id="a_node42"><a xlink:href="class_test_image_control.html" target="_top" xlink:title="Control to test drawing bitmaps.">
<polygon fill="white" stroke="#666666" points="202.5,-278 108.5,-278 108.5,-259 202.5,-259 202.5,-278"/>
<text text-anchor="middle" x="155.5" y="-266" font-family="Helvetica,sans-Serif" font-size="10.00">TestImageControl</text>
</a>
</g>
</g>
<!-- Node1&#45;&gt;Node101 -->
<g id="edge41" class="edge">
<title>Node1&#45;&gt;Node101</title>
<path fill="none" stroke="#63b8ff" d="M26.7,-869.59C30.25,-768.46 47.71,-332.99 86,-287.5 91.72,-280.7 99.64,-276.23 108.08,-273.3"/>
<polygon fill="#63b8ff" stroke="#63b8ff" points="23.21,-869.28 26.36,-879.39 30.2,-869.52 23.21,-869.28"/>
</g>
<!-- Node102 -->
<g id="node43" class="node">
<title>Node102</title>
<g id="a_node43"><a xlink:href="class_test_keyboard_control.html" target="_top" xlink:title="Control to test keyboard input.">
<polygon fill="white" stroke="#666666" points="209,-241 102,-241 102,-222 209,-222 209,-241"/>
<text text-anchor="middle" x="155.5" y="-229" font-family="Helvetica,sans-Serif" font-size="10.00">TestKeyboardControl</text>
</a>
</g>
</g>
<!-- Node1&#45;&gt;Node102 -->
<g id="edge42" class="edge">
<title>Node1&#45;&gt;Node102</title>
<path fill="none" stroke="#63b8ff" d="M26.58,-869.31C29.64,-763.9 45.39,-299.02 86,-250.5 90.2,-245.48 95.59,-241.73 101.51,-238.93"/>
<polygon fill="#63b8ff" stroke="#63b8ff" points="23.08,-869.2 26.3,-879.29 30.08,-869.4 23.08,-869.2"/>
</g>
<!-- Node103 -->
<g id="node44" class="node">
<title>Node103</title>
<g id="a_node44"><a xlink:href="class_test_m_p_s_control.html" target="_top" xlink:title="Control to test IGraphicsNanoVG with Metal Performance Shaders.">
<polygon fill="white" stroke="#666666" points="200,-204 111,-204 111,-185 200,-185 200,-204"/>
<text text-anchor="middle" x="155.5" y="-192" font-family="Helvetica,sans-Serif" font-size="10.00">TestMPSControl</text>
</a>
</g>
</g>
<!-- Node1&#45;&gt;Node103 -->
<g id="edge43" class="edge">
<title>Node1&#45;&gt;Node103</title>
<path fill="none" stroke="#63b8ff" d="M26.47,-869.12C29.05,-759.64 43.06,-265.07 86,-213.5 92.32,-205.91 101.38,-201.21 110.85,-198.33"/>
<polygon fill="#63b8ff" stroke="#63b8ff" points="22.97,-868.91 26.24,-878.99 29.97,-869.07 22.97,-868.91"/>
</g>
<!-- Node104 -->
<g id="node45" class="node">
<title>Node104</title>
<g id="a_node45"><a xlink:href="class_test_m_t_control.html" target="_top" xlink:title="Control to test multi touch.">
<polygon fill="white" stroke="#666666" points="196,-167 115,-167 115,-148 196,-148 196,-167"/>
<text text-anchor="middle" x="155.5" y="-155" font-family="Helvetica,sans-Serif" font-size="10.00">TestMTControl</text>
</a>
</g>
</g>
<!-- Node1&#45;&gt;Node104 -->
<g id="edge44" class="edge">
<title>Node1&#45;&gt;Node104</title>
<path fill="none" stroke="#63b8ff" d="M26.36,-869.38C28.46,-756.89 40.66,-231.2 86,-176.5 93.17,-167.85 103.89,-162.95 114.74,-160.23"/>
<polygon fill="#63b8ff" stroke="#63b8ff" points="22.86,-869.17 26.18,-879.23 29.86,-869.29 22.86,-869.17"/>
</g>
<!-- Node105 -->
<g id="node46" class="node">
<title>Node105</title>
<g id="a_node46"><a xlink:href="class_test_s_v_g_control.html" target="_top" xlink:title="Control to test drawing SVGs.">
<polygon fill="white" stroke="#666666" points="199.5,-130 111.5,-130 111.5,-111 199.5,-111 199.5,-130"/>
<text text-anchor="middle" x="155.5" y="-118" font-family="Helvetica,sans-Serif" font-size="10.00">TestSVGControl</text>
</a>
</g>
</g>
<!-- Node1&#45;&gt;Node105 -->
<g id="edge45" class="edge">
<title>Node1&#45;&gt;Node105</title>
<path fill="none" stroke="#63b8ff" d="M26.27,-869.02C27.94,-752.27 38.35,-197.23 86,-139.5 92.36,-131.79 101.56,-127.06 111.15,-124.19"/>
<polygon fill="#63b8ff" stroke="#63b8ff" points="22.77,-868.95 26.14,-878.99 29.77,-869.04 22.77,-868.95"/>
</g>
<!-- Node106 -->
<g id="node47" class="node">
<title>Node106</title>
<g id="a_node47"><a xlink:href="class_test_shadow_gradient_control.html" target="_top" xlink:title="Control to test drawing shadows with gradients.">
<polygon fill="white" stroke="#666666" points="225,-93 86,-93 86,-74 225,-74 225,-93"/>
<text text-anchor="middle" x="155.5" y="-81" font-family="Helvetica,sans-Serif" font-size="10.00">TestShadowGradientControl</text>
</a>
</g>
</g>
<!-- Node1&#45;&gt;Node106 -->
<g id="edge46" class="edge">
<title>Node1&#45;&gt;Node106</title>
<path fill="none" stroke="#63b8ff" d="M26.19,-869.09C27.42,-749.11 35.98,-163.34 86,-102.5 88.98,-98.88 92.58,-95.91 96.56,-93.49"/>
<polygon fill="#63b8ff" stroke="#63b8ff" points="22.69,-869.02 26.09,-879.06 29.69,-869.09 22.69,-869.02"/>
</g>
<!-- Node107 -->
<g id="node48" class="node">
<title>Node107</title>
<g id="a_node48"><a xlink:href="class_test_size_control.html" target="_top" xlink:title="Control to display the size of a region.">
<polygon fill="white" stroke="#666666" points="198.5,-56 112.5,-56 112.5,-37 198.5,-37 198.5,-56"/>
<text text-anchor="middle" x="155.5" y="-44" font-family="Helvetica,sans-Serif" font-size="10.00">TestSizeControl</text>
</a>
</g>
</g>
<!-- Node1&#45;&gt;Node107 -->
<g id="edge47" class="edge">
<title>Node1&#45;&gt;Node107</title>
<path fill="none" stroke="#63b8ff" d="M26.11,-869.25C26.92,-746.31 33.59,-129.47 86,-65.5 92.57,-57.48 102.2,-52.68 112.18,-49.85"/>
<polygon fill="#63b8ff" stroke="#63b8ff" points="22.61,-869.14 26.05,-879.16 29.61,-869.18 22.61,-869.14"/>
</g>
<!-- Node108 -->
<g id="node49" class="node">
<title>Node108</title>
<g id="a_node49"><a xlink:href="class_test_text_control.html" target="_top" xlink:title="Control to test drawing text.">
<polygon fill="white" stroke="#666666" points="198.5,-19 112.5,-19 112.5,0 198.5,0 198.5,-19"/>
<text text-anchor="middle" x="155.5" y="-7" font-family="Helvetica,sans-Serif" font-size="10.00">TestTextControl</text>
</a>
</g>
</g>
<!-- Node1&#45;&gt;Node108 -->
<g id="edge48" class="edge">
<title>Node1&#45;&gt;Node108</title>
<path fill="none" stroke="#63b8ff" d="M26.04,-869.09C26.45,-742.52 31.24,-95.55 86,-28.5 92.56,-20.47 102.19,-15.67 112.17,-12.83"/>
<polygon fill="#63b8ff" stroke="#63b8ff" points="22.54,-869 26.01,-879.01 29.54,-869.02 22.54,-869"/>
</g>
</g>
</svg>
        <g id="navigator" transform="translate(0 0)" fill="#404254">
                <rect fill="#f2f5e9" fill-opacity="0.5" stroke="#606060" stroke-width=".5" x="0" y="0" width="60" height="60"/>
                <use id="zoomplus" xlink:href="#zoomPlus" x="17" y="9" onmousedown="handleZoom(evt,'in')"/>
                <use id="zoomminus" xlink:href="#zoomMin" x="42" y="9" onmousedown="handleZoom(evt,'out')"/>
                <use id="reset" xlink:href="#resetDef" x="30" y="36" onmousedown="handleReset()"/>
                <g id="arrowUp" xlink:href="#dirArrow" transform="translate(30 24)" onmousedown="handlePan(0,-1)">
                  <use xlink:href="#rim" fill="#404040">
                        <set attributeName="fill" to="#808080" begin="arrowUp.mouseover" end="arrowUp.mouseout"/>
                  </use>
                  <path fill="none" stroke="white" stroke-width="1.5" d="M0,-3.0v7 M-2.5,-0.5L0,-3.0L2.5,-0.5"/>
                </g>
                <g id="arrowRight" xlink:href="#dirArrow" transform="rotate(90) translate(36 -43)" onmousedown="handlePan(1,0)">
                  <use xlink:href="#rim" fill="#404040">
                        <set attributeName="fill" to="#808080" begin="arrowRight.mouseover" end="arrowRight.mouseout"/>
                  </use>
                  <path fill="none" stroke="white" stroke-width="1.5" d="M0,-3.0v7 M-2.5,-0.5L0,-3.0L2.5,-0.5"/>
                </g>
                <g id="arrowDown" xlink:href="#dirArrow" transform="rotate(180) translate(-30 -48)" onmousedown="handlePan(0,1)">
                  <use xlink:href="#rim" fill="#404040">
                        <set attributeName="fill" to="#808080" begin="arrowDown.mouseover" end="arrowDown.mouseout"/>
                  </use>
                  <path fill="none" stroke="white" stroke-width="1.5" d="M0,-3.0v7 M-2.5,-0.5L0,-3.0L2.5,-0.5"/>
                </g>
                <g id="arrowLeft" xlink:href="#dirArrow" transform="rotate(270) translate(-36 17)" onmousedown="handlePan(-1,0)">
                  <use xlink:href="#rim" fill="#404040">
                        <set attributeName="fill" to="#808080" begin="arrowLeft.mouseover" end="arrowLeft.mouseout"/>
                  </use>
                  <path fill="none" stroke="white" stroke-width="1.5" d="M0,-3.0v7 M-2.5,-0.5L0,-3.0L2.5,-0.5"/>
                </g>
        </g>
        <svg viewBox="0 0 15 15" width="100%" height="30px" preserveAspectRatio="xMaxYMin meet">
         <g id="arrow_out" transform="scale(0.3 0.3)">
          <a xlink:href="class_i_control__inherit__graph_org.svg" target="_base">
           <rect id="button" ry="5" rx="5" y="6" x="6" height="38" width="38"
                fill="#f2f5e9" fill-opacity="0.5" stroke="#606060" stroke-width="1.0"/>
           <path id="arrow"
             d="M 11.500037,31.436501 C 11.940474,20.09759 22.043105,11.32322 32.158766,21.979434 L 37.068811,17.246167 C 37.068811,17.246167 37.088388,32 37.088388,32 L 22.160133,31.978069 C 22.160133,31.978069 26.997745,27.140456 26.997745,27.140456 C 18.528582,18.264221 13.291696,25.230495 11.500037,31.436501 z"
             style="fill:#404040;"/>
          </a>
         </g>
        </svg>
</svg>
