<?xml version="1.0" encoding="UTF-8" standalone="no"?>
<!DOCTYPE svg PUBLIC "-//W3C//DTD SVG 1.1//EN"
 "http://www.w3.org/Graphics/SVG/1.1/DTD/svg11.dtd">
<!-- Generated by graphviz version 7.0.5 (20221223.1930)
 -->
<!-- Title: IBitmapBase Pages: 1 -->
<svg width="351pt" height="230pt"
 viewBox="0.00 0.00 351.00 230.00" xmlns="http://www.w3.org/2000/svg" xmlns:xlink="http://www.w3.org/1999/xlink">
<g id="graph0" class="graph" transform="scale(1 1) rotate(0) translate(4 226)">
<title>IBitmapBase</title>
<!-- Node1 -->
<g id="node1" class="node">
<title>Node1</title>
<g id="a_node1"><a xlink:title="A base interface to be combined with IControl for bitmap&#45;based controls &quot;IBControls&quot;,...">
<polygon fill="#999999" stroke="#666666" points="73,-129 0,-129 0,-110 73,-110 73,-129"/>
<text text-anchor="middle" x="36.5" y="-117" font-family="Helvetica,sans-Serif" font-size="10.00">IBitmapBase</text>
</a>
</g>
</g>
<!-- Node2 -->
<g id="node2" class="node">
<title>Node2</title>
<g id="a_node2"><a xlink:href="class_i_b_button_control.html" target="_top" xlink:title="A bitmap button/momentary switch control.">
<polygon fill="white" stroke="#666666" points="195.5,-222 109.5,-222 109.5,-203 195.5,-203 195.5,-222"/>
<text text-anchor="middle" x="152.5" y="-210" font-family="Helvetica,sans-Serif" font-size="10.00">IBButtonControl</text>
</a>
</g>
</g>
<!-- Node1&#45;&gt;Node2 -->
<g id="edge1" class="edge">
<title>Node1&#45;&gt;Node2</title>
<path fill="none" stroke="#63b8ff" d="M51.7,-138.29C65.02,-154.86 86.24,-178.76 109,-194.5 113.48,-197.6 118.58,-200.32 123.65,-202.65"/>
<polygon fill="#63b8ff" stroke="#63b8ff" points="54.67,-136.41 45.76,-130.69 49.16,-140.72 54.67,-136.41"/>
</g>
<!-- Node3 -->
<g id="node3" class="node">
<title>Node3</title>
<g id="a_node3"><a xlink:href="class_i_b_knob_control.html" target="_top" xlink:title="A bitmap knob/dial control that draws a frame from a stacked bitmap.">
<polygon fill="white" stroke="#666666" points="192.5,-185 112.5,-185 112.5,-166 192.5,-166 192.5,-185"/>
<text text-anchor="middle" x="152.5" y="-173" font-family="Helvetica,sans-Serif" font-size="10.00">IBKnobControl</text>
</a>
</g>
</g>
<!-- Node1&#45;&gt;Node3 -->
<g id="edge2" class="edge">
<title>Node1&#45;&gt;Node3</title>
<path fill="none" stroke="#63b8ff" d="M65.06,-134.87C78.22,-142.03 94.28,-150.49 109,-157.5 114.79,-160.26 121.11,-163.05 127.06,-165.58"/>
<polygon fill="#63b8ff" stroke="#63b8ff" points="66.98,-131.94 56.53,-130.2 63.61,-138.07 66.98,-131.94"/>
</g>
<!-- Node5 -->
<g id="node5" class="node">
<title>Node5</title>
<g id="a_node5"><a xlink:href="class_i_b_slider_control.html" target="_top" xlink:title="A bitmap slider/fader control.">
<polygon fill="white" stroke="#666666" points="193.5,-148 111.5,-148 111.5,-129 193.5,-129 193.5,-148"/>
<text text-anchor="middle" x="152.5" y="-136" font-family="Helvetica,sans-Serif" font-size="10.00">IBSliderControl</text>
</a>
</g>
</g>
<!-- Node1&#45;&gt;Node5 -->
<g id="edge4" class="edge">
<title>Node1&#45;&gt;Node5</title>
<path fill="none" stroke="#63b8ff" d="M84.58,-127.35C93.38,-128.81 102.52,-130.34 111.1,-131.77"/>
<polygon fill="#63b8ff" stroke="#63b8ff" points="85.19,-123.9 74.75,-125.71 84.04,-130.8 85.19,-123.9"/>
</g>
<!-- Node6 -->
<g id="node6" class="node">
<title>Node6</title>
<g id="a_node6"><a xlink:href="class_i_b_switch_control.html" target="_top" xlink:title="A bitmap switch control.">
<polygon fill="white" stroke="#666666" points="196,-111 109,-111 109,-92 196,-92 196,-111"/>
<text text-anchor="middle" x="152.5" y="-99" font-family="Helvetica,sans-Serif" font-size="10.00">IBSwitchControl</text>
</a>
</g>
</g>
<!-- Node1&#45;&gt;Node6 -->
<g id="edge5" class="edge">
<title>Node1&#45;&gt;Node6</title>
<path fill="none" stroke="#63b8ff" d="M84.38,-112.1C92.42,-110.83 100.74,-109.51 108.67,-108.26"/>
<polygon fill="#63b8ff" stroke="#63b8ff" points="84.08,-108.6 74.75,-113.62 85.18,-115.52 84.08,-108.6"/>
</g>
<!-- Node7 -->
<g id="node7" class="node">
<title>Node7</title>
<g id="a_node7"><a xlink:href="class_i_b_text_control.html" target="_top" xlink:title="A control to display text using a monospace bitmap font.">
<polygon fill="white" stroke="#666666" points="190.5,-74 114.5,-74 114.5,-55 190.5,-55 190.5,-74"/>
<text text-anchor="middle" x="152.5" y="-62" font-family="Helvetica,sans-Serif" font-size="10.00">IBTextControl</text>
</a>
</g>
</g>
<!-- Node1&#45;&gt;Node7 -->
<g id="edge6" class="edge">
<title>Node1&#45;&gt;Node7</title>
<path fill="none" stroke="#63b8ff" d="M66.67,-104.43C79.57,-97.86 94.98,-90.16 109,-83.5 115.42,-80.45 122.45,-77.25 128.91,-74.37"/>
<polygon fill="#63b8ff" stroke="#63b8ff" points="65.16,-101.27 57.85,-108.94 68.35,-107.51 65.16,-101.27"/>
</g>
<!-- Node8 -->
<g id="node8" class="node">
<title>Node8</title>
<g id="a_node8"><a xlink:href="class_i_bitmap_control.html" target="_top" xlink:title="A basic control to draw a bitmap, or one frame of a stacked bitmap depending on the current value.">
<polygon fill="white" stroke="#666666" points="193,-37 112,-37 112,-18 193,-18 193,-37"/>
<text text-anchor="middle" x="152.5" y="-25" font-family="Helvetica,sans-Serif" font-size="10.00">IBitmapControl</text>
</a>
</g>
</g>
<!-- Node1&#45;&gt;Node8 -->
<g id="edge7" class="edge">
<title>Node1&#45;&gt;Node8</title>
<path fill="none" stroke="#63b8ff" d="M52.1,-101.08C65.54,-85.05 86.73,-62 109,-46.5 113.91,-43.08 119.53,-40.05 125.04,-37.47"/>
<polygon fill="#63b8ff" stroke="#63b8ff" points="49.71,-98.47 46.08,-108.43 55.13,-102.91 49.71,-98.47"/>
</g>
<!-- Node4 -->
<g id="node4" class="node">
<title>Node4</title>
<g id="a_node4"><a xlink:href="class_i_b_knob_rotater_control.html" target="_top" xlink:title="A bitmap knob/dial control that rotates an image.">
<polygon fill="white" stroke="#666666" points="343,-185 232,-185 232,-166 343,-166 343,-185"/>
<text text-anchor="middle" x="287.5" y="-173" font-family="Helvetica,sans-Serif" font-size="10.00">IBKnobRotaterControl</text>
</a>
</g>
</g>
<!-- Node3&#45;&gt;Node4 -->
<g id="edge3" class="edge">
<title>Node3&#45;&gt;Node4</title>
<path fill="none" stroke="#63b8ff" d="M203.94,-175.5C213.06,-175.5 222.6,-175.5 231.83,-175.5"/>
<polygon fill="#63b8ff" stroke="#63b8ff" points="204.2,-172 194.2,-175.5 204.2,-179 204.2,-172"/>
</g>
<!-- Node9 -->
<g id="node9" class="node">
<title>Node9</title>
<g id="a_node9"><a xlink:href="class_i_b_meter_control.html" target="_top" xlink:title="A bitmap meter control, that can be used for VUMeters.">
<polygon fill="white" stroke="#666666" points="328.5,-56 246.5,-56 246.5,-37 328.5,-37 328.5,-56"/>
<text text-anchor="middle" x="287.5" y="-44" font-family="Helvetica,sans-Serif" font-size="10.00">IBMeterControl</text>
</a>
</g>
</g>
<!-- Node8&#45;&gt;Node9 -->
<g id="edge8" class="edge">
<title>Node8&#45;&gt;Node9</title>
<path fill="none" stroke="#63b8ff" d="M204.68,-34.81C218.43,-36.78 233.1,-38.87 246.16,-40.74"/>
<polygon fill="#63b8ff" stroke="#63b8ff" points="205.3,-31.36 194.9,-33.41 204.31,-38.29 205.3,-31.36"/>
</g>
<!-- Node10 -->
<g id="node10" class="node">
<title>Node10</title>
<g id="a_node10"><a xlink:href="class_test_mask_control.html" target="_top" xlink:title="Control to display the size of a region.">
<polygon fill="white" stroke="#666666" points="333,-19 242,-19 242,0 333,0 333,-19"/>
<text text-anchor="middle" x="287.5" y="-7" font-family="Helvetica,sans-Serif" font-size="10.00">TestMaskControl</text>
</a>
</g>
</g>
<!-- Node8&#45;&gt;Node10 -->
<g id="edge9" class="edge">
<title>Node8&#45;&gt;Node10</title>
<path fill="none" stroke="#63b8ff" d="M204.48,-20.6C216.83,-18.93 229.94,-17.15 241.97,-15.53"/>
<polygon fill="#63b8ff" stroke="#63b8ff" points="204.34,-17.09 194.9,-21.9 205.28,-24.02 204.34,-17.09"/>
</g>
</g>
</svg>
