<?xml version="1.0" encoding="UTF-8" standalone="no"?>
<!DOCTYPE svg PUBLIC "-//W3C//DTD SVG 1.1//EN"
 "http://www.w3.org/Graphics/SVG/1.1/DTD/svg11.dtd">
<!-- Generated by graphviz version 2.36.0 (20140111.2315)
 -->
<!-- Title: APIBitmap Pages: 1 -->
<svg width="456pt" height="84pt"
 viewBox="0.00 0.00 456.00 84.00" xmlns="http://www.w3.org/2000/svg" xmlns:xlink="http://www.w3.org/1999/xlink">
<g id="graph0" class="graph" transform="scale(1 1) rotate(0) translate(4 80)">
<title>APIBitmap</title>
<polygon fill="white" stroke="none" points="-4,4 -4,-80 452,-80 452,4 -4,4"/>
<!-- Node1 -->
<g id="node1" class="node"><title>Node1</title>
<polygon fill="#bfbfbf" stroke="black" points="184,-56.5 184,-75.5 248,-75.5 248,-56.5 184,-56.5"/>
<text text-anchor="middle" x="216" y="-63.5" font-family="Helvetica,sans-Serif" font-size="10.00">APIBitmap</text>
</g>
<!-- Node2 -->
<g id="node2" class="node"><title>Node2</title>
<g id="a_node2"><a xlink:title="An AGG API bitmap. ">
<polygon fill="white" stroke="#bfbfbf" points="-0.5,-0.5 -0.5,-19.5 68.5,-19.5 68.5,-0.5 -0.5,-0.5"/>
<text text-anchor="middle" x="34" y="-7.5" font-family="Helvetica,sans-Serif" font-size="10.00">AGGBitmap</text>
</a>
</g>
</g>
<!-- Node1&#45;&gt;Node2 -->
<g id="edge1" class="edge"><title>Node1&#45;&gt;Node2</title>
<path fill="none" stroke="midnightblue" d="M177.469,-53.5677C143.136,-43.381 93.6672,-28.7034 62.7035,-19.5164"/>
<polygon fill="midnightblue" stroke="midnightblue" points="176.579,-56.9544 187.162,-56.4435 178.57,-50.2436 176.579,-56.9544"/>
</g>
<!-- Node3 -->
<g id="node3" class="node"><title>Node3</title>
<g id="a_node3"><a xlink:title="A Cairo API bitmap. ">
<polygon fill="white" stroke="#bfbfbf" points="86.5,-0.5 86.5,-19.5 157.5,-19.5 157.5,-0.5 86.5,-0.5"/>
<text text-anchor="middle" x="122" y="-7.5" font-family="Helvetica,sans-Serif" font-size="10.00">CairoBitmap</text>
</a>
</g>
</g>
<!-- Node1&#45;&gt;Node3 -->
<g id="edge2" class="edge"><title>Node1&#45;&gt;Node3</title>
<path fill="none" stroke="midnightblue" d="M191.938,-51.1774C174.641,-41.2407 151.852,-28.1492 137.065,-19.6545"/>
<polygon fill="midnightblue" stroke="midnightblue" points="190.483,-54.3775 200.897,-56.324 193.97,-48.3078 190.483,-54.3775"/>
</g>
<!-- Node4 -->
<g id="node4" class="node"><title>Node4</title>
<g id="a_node4"><a xlink:title="An HTML5 canvas API bitmap. ">
<polygon fill="white" stroke="#bfbfbf" points="175.5,-0.5 175.5,-19.5 256.5,-19.5 256.5,-0.5 175.5,-0.5"/>
<text text-anchor="middle" x="216" y="-7.5" font-family="Helvetica,sans-Serif" font-size="10.00">CanvasBitmap</text>
</a>
</g>
</g>
<!-- Node1&#45;&gt;Node4 -->
<g id="edge3" class="edge"><title>Node1&#45;&gt;Node4</title>
<path fill="none" stroke="midnightblue" d="M216,-45.8045C216,-36.9102 216,-26.7798 216,-19.7511"/>
<polygon fill="midnightblue" stroke="midnightblue" points="212.5,-46.083 216,-56.083 219.5,-46.083 212.5,-46.083"/>
</g>
<!-- Node5 -->
<g id="node5" class="node"><title>Node5</title>
<g id="a_node5"><a xlink:title="A LICE API bitmap. ">
<polygon fill="white" stroke="#bfbfbf" points="275,-0.5 275,-19.5 345,-19.5 345,-0.5 275,-0.5"/>
<text text-anchor="middle" x="310" y="-7.5" font-family="Helvetica,sans-Serif" font-size="10.00">LICEBitmap</text>
</a>
</g>
</g>
<!-- Node1&#45;&gt;Node5 -->
<g id="edge4" class="edge"><title>Node1&#45;&gt;Node5</title>
<path fill="none" stroke="midnightblue" d="M240.062,-51.1774C257.359,-41.2407 280.148,-28.1492 294.935,-19.6545"/>
<polygon fill="midnightblue" stroke="midnightblue" points="238.03,-48.3078 231.103,-56.324 241.517,-54.3775 238.03,-48.3078"/>
</g>
<!-- Node6 -->
<g id="node6" class="node"><title>Node6</title>
<g id="a_node6"><a xlink:title="An NanoVG API bitmap. ">
<polygon fill="white" stroke="#bfbfbf" points="363.5,-0.5 363.5,-19.5 448.5,-19.5 448.5,-0.5 363.5,-0.5"/>
<text text-anchor="middle" x="406" y="-7.5" font-family="Helvetica,sans-Serif" font-size="10.00">NanoVGBitmap</text>
</a>
</g>
</g>
<!-- Node1&#45;&gt;Node6 -->
<g id="edge5" class="edge"><title>Node1&#45;&gt;Node6</title>
<path fill="none" stroke="midnightblue" d="M255.764,-53.6986C291.623,-43.507 343.571,-28.7429 376.035,-19.5164"/>
<polygon fill="midnightblue" stroke="midnightblue" points="254.768,-50.343 246.106,-56.4435 256.682,-57.0763 254.768,-50.343"/>
</g>
</g>
</svg>
