<?xml version="1.0" encoding="UTF-8" standalone="no"?>
<!DOCTYPE svg PUBLIC "-//W3C//DTD SVG 1.1//EN"
 "http://www.w3.org/Graphics/SVG/1.1/DTD/svg11.dtd">
<!-- Generated by graphviz version 7.0.5 (20221223.1930)
 -->
<!-- Title: IContainerBase Pages: 1 -->
<!--zoomable 193 -->
<svg id="main" version="1.1" xmlns="http://www.w3.org/2000/svg" xmlns:xlink="http://www.w3.org/1999/xlink" xml:space="preserve" onload="init(evt)">
<style type="text/css"><![CDATA[
.edge:hover path { stroke: red; }
.edge:hover polygon { stroke: red; fill: red; }
]]></style>
<script type="text/javascript"><![CDATA[
var edges = document.getElementsByTagName('g');
if (edges && edges.length) {
  for (var i=0;i<edges.length;i++) {
    if (edges[i].id.substr(0,4)=='edge') {
      edges[i].setAttribute('class','edge');
    }
  }
}
]]></script>
        <defs>
                <circle id="rim" cx="0" cy="0" r="7"/>
                <circle id="rim2" cx="0" cy="0" r="3.5"/>
                <g id="zoomPlus">
                        <use xlink:href="#rim" fill="#404040">
                                <set attributeName="fill" to="#808080" begin="zoomplus.mouseover" end="zoomplus.mouseout"/>
                        </use>
                        <path d="M-4,0h8M0,-4v8" fill="none" stroke="white" stroke-width="1.5" pointer-events="none"/>
                </g>
                <g id="zoomMin">
                        <use xlink:href="#rim" fill="#404040">
                                <set attributeName="fill" to="#808080" begin="zoomminus.mouseover" end="zoomminus.mouseout"/>
                        </use>
                        <path d="M-4,0h8" fill="none" stroke="white" stroke-width="1.5" pointer-events="none"/>
                </g>
                <g id="dirArrow">
                        <path fill="none" stroke="white" stroke-width="1.5" d="M0,-3.0v7 M-2.5,-0.5L0,-3.0L2.5,-0.5"/>
                </g>
               <g id="resetDef">
                       <use xlink:href="#rim2" fill="#404040">
                               <set attributeName="fill" to="#808080" begin="reset.mouseover" end="reset.mouseout"/>
                       </use>
               </g>
        </defs>

<script type="text/javascript">
var viewWidth = 543;
var viewHeight = 193;
var sectionId = 'dynsection-0';
</script>
<script xlink:href="svgpan.js"/>
<svg id="graph" class="graph">
<g id="viewport">
<title>IContainerBase</title>
<!-- Node1 -->
<g id="node1" class="node">
<title>Node1</title>
<g id="a_node1"><a xlink:title="IContainerBase allows a control to nest sub controls and it clips the drawing of those subcontrols In...">
<polygon fill="#999999" stroke="#666666" points="169,-93 86,-93 86,-74 169,-74 169,-93"/>
<text text-anchor="middle" x="127.5" y="-81" font-family="Helvetica,sans-Serif" font-size="10.00">IContainerBase</text>
</a>
</g>
</g>
<!-- Node3 -->
<g id="node3" class="node">
<title>Node3</title>
<g id="a_node3"><a xlink:href="class_i_dir_browse_control_base.html" target="_top" xlink:title="An abstract IControl base class that you can inherit from in order to make a control that pops up a m...">
<polygon fill="white" stroke="#666666" points="339.5,-167 221.5,-167 221.5,-148 339.5,-148 339.5,-167"/>
<text text-anchor="middle" x="280.5" y="-155" font-family="Helvetica,sans-Serif" font-size="10.00">IDirBrowseControlBase</text>
</a>
</g>
</g>
<!-- Node1&#45;&gt;Node3 -->
<g id="edge2" class="edge">
<title>Node1&#45;&gt;Node3</title>
<path fill="none" stroke="#63b8ff" d="M147.75,-100.48C162.5,-112.67 183.84,-128.63 205,-138.5 212.74,-142.11 221.27,-145.11 229.7,-147.56"/>
<polygon fill="#63b8ff" stroke="#63b8ff" points="150.12,-97.9 140.23,-94.09 145.59,-103.23 150.12,-97.9"/>
</g>
<!-- Node6 -->
<g id="node6" class="node">
<title>Node6</title>
<g id="a_node6"><a xlink:href="class_i_panel_control.html" target="_top" xlink:title="A basic control to fill a rectangle with a color or gradient.">
<polygon fill="white" stroke="#666666" points="318,-130 243,-130 243,-111 318,-111 318,-130"/>
<text text-anchor="middle" x="280.5" y="-118" font-family="Helvetica,sans-Serif" font-size="10.00">IPanelControl</text>
</a>
</g>
</g>
<!-- Node1&#45;&gt;Node6 -->
<g id="edge5" class="edge">
<title>Node1&#45;&gt;Node6</title>
<path fill="none" stroke="#63b8ff" d="M180.05,-96.13C200.58,-101.16 223.74,-106.84 242.55,-111.45"/>
<polygon fill="#63b8ff" stroke="#63b8ff" points="180.98,-92.76 170.44,-93.78 179.31,-99.55 180.98,-92.76"/>
</g>
<!-- Node7 -->
<g id="node7" class="node">
<title>Node7</title>
<g id="a_node7"><a xlink:href="class_i_v_baked_preset_manager_control.html" target="_top" xlink:title="A &quot;meta control&quot; for a &quot;preset manager&quot; for &quot;baked in&quot; factory presets It adds several child buttons.">
<polygon fill="white" stroke="#666666" points="356,-93 205,-93 205,-74 356,-74 356,-93"/>
<text text-anchor="middle" x="280.5" y="-81" font-family="Helvetica,sans-Serif" font-size="10.00">IVBakedPresetManagerControl</text>
</a>
</g>
</g>
<!-- Node1&#45;&gt;Node7 -->
<g id="edge6" class="edge">
<title>Node1&#45;&gt;Node7</title>
<path fill="none" stroke="#63b8ff" d="M180.74,-83.5C188.44,-83.5 196.51,-83.5 204.56,-83.5"/>
<polygon fill="#63b8ff" stroke="#63b8ff" points="180.88,-80 170.88,-83.5 180.88,-87 180.88,-80"/>
</g>
<!-- Node8 -->
<g id="node8" class="node">
<title>Node8</title>
<g id="a_node8"><a xlink:href="class_i_v_number_box_control.html" target="_top" xlink:title="A &quot;meta control&quot; for a number box with an Inc/Dec button It adds several child buttons if buttons = t...">
<polygon fill="white" stroke="#666666" points="334.5,-56 226.5,-56 226.5,-37 334.5,-37 334.5,-56"/>
<text text-anchor="middle" x="280.5" y="-44" font-family="Helvetica,sans-Serif" font-size="10.00">IVNumberBoxControl</text>
</a>
</g>
</g>
<!-- Node1&#45;&gt;Node8 -->
<g id="edge7" class="edge">
<title>Node1&#45;&gt;Node8</title>
<path fill="none" stroke="#63b8ff" d="M179.28,-70.84C187.86,-68.71 196.68,-66.54 205,-64.5 215.73,-61.87 227.33,-59.06 238.11,-56.45"/>
<polygon fill="#63b8ff" stroke="#63b8ff" points="178.52,-67.42 169.66,-73.23 180.21,-74.21 178.52,-67.42"/>
</g>
<!-- Node9 -->
<g id="node9" class="node">
<title>Node9</title>
<g id="a_node9"><a xlink:href="class_i_v_panel_control.html" target="_top" xlink:title="A panel control which can be styled with emboss etc.">
<polygon fill="white" stroke="#666666" points="321.5,-19 239.5,-19 239.5,0 321.5,0 321.5,-19"/>
<text text-anchor="middle" x="280.5" y="-7" font-family="Helvetica,sans-Serif" font-size="10.00">IVPanelControl</text>
</a>
</g>
</g>
<!-- Node1&#45;&gt;Node9 -->
<g id="edge8" class="edge">
<title>Node1&#45;&gt;Node9</title>
<path fill="none" stroke="#63b8ff" d="M147.66,-66.12C162.36,-53.66 183.69,-37.39 205,-27.5 215.62,-22.57 227.74,-18.9 239.08,-16.21"/>
<polygon fill="#63b8ff" stroke="#63b8ff" points="145.4,-63.45 140.16,-72.66 150,-68.72 145.4,-63.45"/>
</g>
<!-- Node2 -->
<g id="node2" class="node">
<title>Node2</title>
<g id="a_node2"><a xlink:href="class_i_control.html" target="_top" xlink:title="The lowest level base class of an IGraphics control.">
<polygon fill="white" stroke="#666666" points="50,-93 0,-93 0,-74 50,-74 50,-93"/>
<text text-anchor="middle" x="25" y="-81" font-family="Helvetica,sans-Serif" font-size="10.00">IControl</text>
</a>
</g>
</g>
<!-- Node2&#45;&gt;Node1 -->
<g id="edge1" class="edge">
<title>Node2&#45;&gt;Node1</title>
<path fill="none" stroke="#63b8ff" d="M61.59,-83.5C69.34,-83.5 77.6,-83.5 85.54,-83.5"/>
<polygon fill="#63b8ff" stroke="#63b8ff" points="61.84,-80 51.84,-83.5 61.84,-87 61.84,-80"/>
</g>
<!-- Node4 -->
<g id="node4" class="node">
<title>Node4</title>
<g id="a_node4"><a xlink:href="class_i_v_disk_preset_manager_control.html" target="_top" xlink:title="A &quot;meta control&quot; for a &quot;preset manager&quot; for disk&#45;based preset files It adds several child buttons.">
<polygon fill="white" stroke="#666666" points="535,-185 392,-185 392,-166 535,-166 535,-185"/>
<text text-anchor="middle" x="463.5" y="-173" font-family="Helvetica,sans-Serif" font-size="10.00">IVDiskPresetManagerControl</text>
</a>
</g>
</g>
<!-- Node3&#45;&gt;Node4 -->
<g id="edge3" class="edge">
<title>Node3&#45;&gt;Node4</title>
<path fill="none" stroke="#63b8ff" d="M350.83,-164.39C364.21,-165.73 378.25,-167.12 391.68,-168.46"/>
<polygon fill="#63b8ff" stroke="#63b8ff" points="351.57,-160.95 341.27,-163.44 350.88,-167.92 351.57,-160.95"/>
</g>
<!-- Node5 -->
<g id="node5" class="node">
<title>Node5</title>
<g id="a_node5"><a xlink:href="class_test_dir_browse_control.html" target="_top" xlink:title="Control to test IDirBrowseControlBase.">
<polygon fill="white" stroke="#666666" points="519.5,-148 407.5,-148 407.5,-129 519.5,-129 519.5,-148"/>
<text text-anchor="middle" x="463.5" y="-136" font-family="Helvetica,sans-Serif" font-size="10.00">TestDirBrowseControl</text>
</a>
</g>
</g>
<!-- Node3&#45;&gt;Node5 -->
<g id="edge4" class="edge">
<title>Node3&#45;&gt;Node5</title>
<path fill="none" stroke="#63b8ff" d="M351.12,-150.19C369.67,-148.24 389.45,-146.17 407.12,-144.31"/>
<polygon fill="#63b8ff" stroke="#63b8ff" points="350.85,-146.7 341.27,-151.23 351.58,-153.66 350.85,-146.7"/>
</g>
</g>
</svg>
        <g id="navigator" transform="translate(0 0)" fill="#404254">
                <rect fill="#f2f5e9" fill-opacity="0.5" stroke="#606060" stroke-width=".5" x="0" y="0" width="60" height="60"/>
                <use id="zoomplus" xlink:href="#zoomPlus" x="17" y="9" onmousedown="handleZoom(evt,'in')"/>
                <use id="zoomminus" xlink:href="#zoomMin" x="42" y="9" onmousedown="handleZoom(evt,'out')"/>
                <use id="reset" xlink:href="#resetDef" x="30" y="36" onmousedown="handleReset()"/>
                <g id="arrowUp" xlink:href="#dirArrow" transform="translate(30 24)" onmousedown="handlePan(0,-1)">
                  <use xlink:href="#rim" fill="#404040">
                        <set attributeName="fill" to="#808080" begin="arrowUp.mouseover" end="arrowUp.mouseout"/>
                  </use>
                  <path fill="none" stroke="white" stroke-width="1.5" d="M0,-3.0v7 M-2.5,-0.5L0,-3.0L2.5,-0.5"/>
                </g>
                <g id="arrowRight" xlink:href="#dirArrow" transform="rotate(90) translate(36 -43)" onmousedown="handlePan(1,0)">
                  <use xlink:href="#rim" fill="#404040">
                        <set attributeName="fill" to="#808080" begin="arrowRight.mouseover" end="arrowRight.mouseout"/>
                  </use>
                  <path fill="none" stroke="white" stroke-width="1.5" d="M0,-3.0v7 M-2.5,-0.5L0,-3.0L2.5,-0.5"/>
                </g>
                <g id="arrowDown" xlink:href="#dirArrow" transform="rotate(180) translate(-30 -48)" onmousedown="handlePan(0,1)">
                  <use xlink:href="#rim" fill="#404040">
                        <set attributeName="fill" to="#808080" begin="arrowDown.mouseover" end="arrowDown.mouseout"/>
                  </use>
                  <path fill="none" stroke="white" stroke-width="1.5" d="M0,-3.0v7 M-2.5,-0.5L0,-3.0L2.5,-0.5"/>
                </g>
                <g id="arrowLeft" xlink:href="#dirArrow" transform="rotate(270) translate(-36 17)" onmousedown="handlePan(-1,0)">
                  <use xlink:href="#rim" fill="#404040">
                        <set attributeName="fill" to="#808080" begin="arrowLeft.mouseover" end="arrowLeft.mouseout"/>
                  </use>
                  <path fill="none" stroke="white" stroke-width="1.5" d="M0,-3.0v7 M-2.5,-0.5L0,-3.0L2.5,-0.5"/>
                </g>
        </g>
        <svg viewBox="0 0 15 15" width="100%" height="30px" preserveAspectRatio="xMaxYMin meet">
         <g id="arrow_out" transform="scale(0.3 0.3)">
          <a xlink:href="class_i_container_base__inherit__graph_org.svg" target="_base">
           <rect id="button" ry="5" rx="5" y="6" x="6" height="38" width="38"
                fill="#f2f5e9" fill-opacity="0.5" stroke="#606060" stroke-width="1.0"/>
           <path id="arrow"
             d="M 11.500037,31.436501 C 11.940474,20.09759 22.043105,11.32322 32.158766,21.979434 L 37.068811,17.246167 C 37.068811,17.246167 37.088388,32 37.088388,32 L 22.160133,31.978069 C 22.160133,31.978069 26.997745,27.140456 26.997745,27.140456 C 18.528582,18.264221 13.291696,25.230495 11.500037,31.436501 z"
             style="fill:#404040;"/>
          </a>
         </g>
        </svg>
</svg>
