<?xml version="1.0" encoding="UTF-8" standalone="no"?>
<!DOCTYPE svg PUBLIC "-//W3C//DTD SVG 1.1//EN"
 "http://www.w3.org/Graphics/SVG/1.1/DTD/svg11.dtd">
<!-- Generated by graphviz version 7.0.5 (20221223.1930)
 -->
<!-- Title: IContainerBase Pages: 1 -->
<svg width="543pt" height="304pt"
 viewBox="0.00 0.00 543.00 304.00" xmlns="http://www.w3.org/2000/svg" xmlns:xlink="http://www.w3.org/1999/xlink">
<g id="graph0" class="graph" transform="scale(1 1) rotate(0) translate(4 300)">
<title>IContainerBase</title>
<!-- Node1 -->
<g id="node1" class="node">
<title>Node1</title>
<g id="a_node1"><a xlink:title="IContainerBase allows a control to nest sub controls and it clips the drawing of those subcontrols In...">
<polygon fill="#999999" stroke="#666666" points="169,-148 86,-148 86,-129 169,-129 169,-148"/>
<text text-anchor="middle" x="127.5" y="-136" font-family="Helvetica,sans-Serif" font-size="10.00">IContainerBase</text>
</a>
</g>
</g>
<!-- Node3 -->
<g id="node3" class="node">
<title>Node3</title>
<g id="a_node3"><a xlink:href="class_i_dir_browse_control_base.html" target="_top" xlink:title="An abstract IControl base class that you can inherit from in order to make a control that pops up a m...">
<polygon fill="white" stroke="#666666" points="339.5,-278 221.5,-278 221.5,-259 339.5,-259 339.5,-278"/>
<text text-anchor="middle" x="280.5" y="-266" font-family="Helvetica,sans-Serif" font-size="10.00">IDirBrowseControlBase</text>
</a>
</g>
</g>
<!-- Node1&#45;&gt;Node3 -->
<g id="edge2" class="edge">
<title>Node1&#45;&gt;Node3</title>
<path fill="none" stroke="#63b8ff" d="M137,-158.79C148.61,-183.97 171.85,-226.4 205,-249.5 210.26,-253.16 216.16,-256.12 222.29,-258.51"/>
<polygon fill="#63b8ff" stroke="#63b8ff" points="140.21,-157.39 132.98,-149.65 133.81,-160.22 140.21,-157.39"/>
</g>
<!-- Node6 -->
<g id="node6" class="node">
<title>Node6</title>
<g id="a_node6"><a xlink:href="class_i_panel_control.html" target="_top" xlink:title="A basic control to fill a rectangle with a color or gradient.">
<polygon fill="white" stroke="#666666" points="318,-241 243,-241 243,-222 318,-222 318,-241"/>
<text text-anchor="middle" x="280.5" y="-229" font-family="Helvetica,sans-Serif" font-size="10.00">IPanelControl</text>
</a>
</g>
</g>
<!-- Node1&#45;&gt;Node6 -->
<g id="edge5" class="edge">
<title>Node1&#45;&gt;Node6</title>
<path fill="none" stroke="#63b8ff" d="M142.63,-156.82C156.65,-173.75 179.68,-198.36 205,-212.5 216.54,-218.94 230.29,-223.24 242.83,-226.1"/>
<polygon fill="#63b8ff" stroke="#63b8ff" points="145.74,-155.1 136.75,-149.49 140.28,-159.48 145.74,-155.1"/>
</g>
<!-- Node7 -->
<g id="node7" class="node">
<title>Node7</title>
<g id="a_node7"><a xlink:href="class_i_v_baked_preset_manager_control.html" target="_top" xlink:title="A &quot;meta control&quot; for a &quot;preset manager&quot; for &quot;baked in&quot; factory presets It adds several child buttons.">
<polygon fill="white" stroke="#666666" points="356,-204 205,-204 205,-185 356,-185 356,-204"/>
<text text-anchor="middle" x="280.5" y="-192" font-family="Helvetica,sans-Serif" font-size="10.00">IVBakedPresetManagerControl</text>
</a>
</g>
</g>
<!-- Node1&#45;&gt;Node7 -->
<g id="edge6" class="edge">
<title>Node1&#45;&gt;Node7</title>
<path fill="none" stroke="#63b8ff" d="M156.42,-153.68C170.66,-160.98 188.44,-169.45 205,-175.5 214.4,-178.93 224.69,-181.99 234.54,-184.59"/>
<polygon fill="#63b8ff" stroke="#63b8ff" points="158.12,-150.62 147.63,-149.08 154.87,-156.82 158.12,-150.62"/>
</g>
<!-- Node8 -->
<g id="node8" class="node">
<title>Node8</title>
<g id="a_node8"><a xlink:href="class_i_v_menu_button_control.html" target="_top" xlink:title="A vector button that pops up a menu.">
<polygon fill="white" stroke="#666666" points="335.5,-167 225.5,-167 225.5,-148 335.5,-148 335.5,-167"/>
<text text-anchor="middle" x="280.5" y="-155" font-family="Helvetica,sans-Serif" font-size="10.00">IVMenuButtonControl</text>
</a>
</g>
</g>
<!-- Node1&#45;&gt;Node8 -->
<g id="edge7" class="edge">
<title>Node1&#45;&gt;Node8</title>
<path fill="none" stroke="#63b8ff" d="M180.61,-145.06C195.04,-146.87 210.73,-148.85 225.27,-150.68"/>
<polygon fill="#63b8ff" stroke="#63b8ff" points="181.22,-141.61 170.86,-143.83 180.35,-148.55 181.22,-141.61"/>
</g>
<!-- Node9 -->
<g id="node9" class="node">
<title>Node9</title>
<g id="a_node9"><a xlink:href="class_i_v_number_box_control.html" target="_top" xlink:title="A &quot;meta control&quot; for a number box with an Inc/Dec button It adds several child buttons if buttons = t...">
<polygon fill="white" stroke="#666666" points="334.5,-130 226.5,-130 226.5,-111 334.5,-111 334.5,-130"/>
<text text-anchor="middle" x="280.5" y="-118" font-family="Helvetica,sans-Serif" font-size="10.00">IVNumberBoxControl</text>
</a>
</g>
</g>
<!-- Node1&#45;&gt;Node9 -->
<g id="edge8" class="edge">
<title>Node1&#45;&gt;Node9</title>
<path fill="none" stroke="#63b8ff" d="M180.79,-132.27C195.45,-130.52 211.39,-128.62 226.11,-126.86"/>
<polygon fill="#63b8ff" stroke="#63b8ff" points="180.38,-128.79 170.87,-133.45 181.21,-135.74 180.38,-128.79"/>
</g>
<!-- Node10 -->
<g id="node10" class="node">
<title>Node10</title>
<g id="a_node10"><a xlink:href="class_i_v_panel_control.html" target="_top" xlink:title="A panel control which can be styled with emboss etc.">
<polygon fill="white" stroke="#666666" points="321.5,-93 239.5,-93 239.5,-74 321.5,-74 321.5,-93"/>
<text text-anchor="middle" x="280.5" y="-81" font-family="Helvetica,sans-Serif" font-size="10.00">IVPanelControl</text>
</a>
</g>
</g>
<!-- Node1&#45;&gt;Node10 -->
<g id="edge9" class="edge">
<title>Node1&#45;&gt;Node10</title>
<path fill="none" stroke="#63b8ff" d="M156.39,-123.23C170.62,-115.9 188.4,-107.44 205,-101.5 215.9,-97.6 227.99,-94.27 239.21,-91.58"/>
<polygon fill="#63b8ff" stroke="#63b8ff" points="154.83,-120.1 147.61,-127.85 158.09,-126.29 154.83,-120.1"/>
</g>
<!-- Node11 -->
<g id="node11" class="node">
<title>Node11</title>
<g id="a_node11"><a xlink:href="class_i_v_tab_page.html" target="_top" xlink:title="A control used as the base class for a tabbed page of subcontrols.">
<polygon fill="white" stroke="#666666" points="313,-56 248,-56 248,-37 313,-37 313,-56"/>
<text text-anchor="middle" x="280.5" y="-44" font-family="Helvetica,sans-Serif" font-size="10.00">IVTabPage</text>
</a>
</g>
</g>
<!-- Node1&#45;&gt;Node11 -->
<g id="edge10" class="edge">
<title>Node1&#45;&gt;Node11</title>
<path fill="none" stroke="#63b8ff" d="M142.59,-120.11C156.59,-103.13 179.59,-78.48 205,-64.5 218.06,-57.32 233.95,-52.97 247.7,-50.36"/>
<polygon fill="#63b8ff" stroke="#63b8ff" points="140.22,-117.46 136.72,-127.46 145.69,-121.83 140.22,-117.46"/>
</g>
<!-- Node12 -->
<g id="node12" class="node">
<title>Node12</title>
<g id="a_node12"><a xlink:href="class_i_v_tabbed_pages_control.html" target="_top" xlink:title="A control to manage tabbed pages of sub controls Basic usage example:">
<polygon fill="white" stroke="#666666" points="339,-19 222,-19 222,0 339,0 339,-19"/>
<text text-anchor="middle" x="280.5" y="-7" font-family="Helvetica,sans-Serif" font-size="10.00">IVTabbedPagesControl</text>
</a>
</g>
</g>
<!-- Node1&#45;&gt;Node12 -->
<g id="edge11" class="edge">
<title>Node1&#45;&gt;Node12</title>
<path fill="none" stroke="#63b8ff" d="M136.8,-118.49C148.31,-93.28 171.55,-50.49 205,-27.5 210.04,-24.03 215.68,-21.23 221.53,-18.97"/>
<polygon fill="#63b8ff" stroke="#63b8ff" points="133.74,-116.74 132.95,-127.31 140.16,-119.54 133.74,-116.74"/>
</g>
<!-- Node2 -->
<g id="node2" class="node">
<title>Node2</title>
<g id="a_node2"><a xlink:href="class_i_control.html" target="_top" xlink:title="The lowest level base class of an IGraphics control.">
<polygon fill="white" stroke="#666666" points="50,-148 0,-148 0,-129 50,-129 50,-148"/>
<text text-anchor="middle" x="25" y="-136" font-family="Helvetica,sans-Serif" font-size="10.00">IControl</text>
</a>
</g>
</g>
<!-- Node2&#45;&gt;Node1 -->
<g id="edge1" class="edge">
<title>Node2&#45;&gt;Node1</title>
<path fill="none" stroke="#63b8ff" d="M61.59,-138.5C69.34,-138.5 77.6,-138.5 85.54,-138.5"/>
<polygon fill="#63b8ff" stroke="#63b8ff" points="61.84,-135 51.84,-138.5 61.84,-142 61.84,-135"/>
</g>
<!-- Node4 -->
<g id="node4" class="node">
<title>Node4</title>
<g id="a_node4"><a xlink:href="class_i_v_disk_preset_manager_control.html" target="_top" xlink:title="A &quot;meta control&quot; for a &quot;preset manager&quot; for disk&#45;based preset files It adds several child buttons.">
<polygon fill="white" stroke="#666666" points="535,-296 392,-296 392,-277 535,-277 535,-296"/>
<text text-anchor="middle" x="463.5" y="-284" font-family="Helvetica,sans-Serif" font-size="10.00">IVDiskPresetManagerControl</text>
</a>
</g>
</g>
<!-- Node3&#45;&gt;Node4 -->
<g id="edge3" class="edge">
<title>Node3&#45;&gt;Node4</title>
<path fill="none" stroke="#63b8ff" d="M350.83,-275.39C364.21,-276.73 378.25,-278.12 391.68,-279.46"/>
<polygon fill="#63b8ff" stroke="#63b8ff" points="351.57,-271.95 341.27,-274.44 350.88,-278.92 351.57,-271.95"/>
</g>
<!-- Node5 -->
<g id="node5" class="node">
<title>Node5</title>
<g id="a_node5"><a xlink:href="class_test_dir_browse_control.html" target="_top" xlink:title="Control to test IDirBrowseControlBase.">
<polygon fill="white" stroke="#666666" points="519.5,-259 407.5,-259 407.5,-240 519.5,-240 519.5,-259"/>
<text text-anchor="middle" x="463.5" y="-247" font-family="Helvetica,sans-Serif" font-size="10.00">TestDirBrowseControl</text>
</a>
</g>
</g>
<!-- Node3&#45;&gt;Node5 -->
<g id="edge4" class="edge">
<title>Node3&#45;&gt;Node5</title>
<path fill="none" stroke="#63b8ff" d="M351.12,-261.19C369.67,-259.24 389.45,-257.17 407.12,-255.31"/>
<polygon fill="#63b8ff" stroke="#63b8ff" points="350.85,-257.7 341.27,-262.23 351.58,-264.66 350.85,-257.7"/>
</g>
</g>
</svg>
