<?xml version="1.0" encoding="UTF-8" standalone="no"?>
<!DOCTYPE svg PUBLIC "-//W3C//DTD SVG 1.1//EN"
 "http://www.w3.org/Graphics/SVG/1.1/DTD/svg11.dtd">
<!-- Generated by graphviz version 7.0.5 (20221223.1930)
 -->
<!-- Title: IPlugProcessor Pages: 1 -->
<svg width="402pt" height="323pt"
 viewBox="0.00 0.00 402.00 323.00" xmlns="http://www.w3.org/2000/svg" xmlns:xlink="http://www.w3.org/1999/xlink">
<g id="graph0" class="graph" transform="scale(1 1) rotate(0) translate(4 319)">
<title>IPlugProcessor</title>
<!-- Node1 -->
<g id="node1" class="node">
<title>Node1</title>
<g id="a_node1"><a xlink:title="The base class for IPlug Audio Processing.">
<polygon fill="#999999" stroke="#666666" points="83,-167 0,-167 0,-148 83,-148 83,-167"/>
<text text-anchor="middle" x="41.5" y="-155" font-family="Helvetica,sans-Serif" font-size="10.00">IPlugProcessor</text>
</a>
</g>
</g>
<!-- Node2 -->
<g id="node2" class="node">
<title>Node2</title>
<g id="a_node2"><a xlink:href="class_i_plug_a_a_x.html" target="_top" xlink:title="AAX API base class for an IPlug plug&#45;in.">
<polygon fill="white" stroke="#666666" points="214,-315 155,-315 155,-296 214,-296 214,-315"/>
<text text-anchor="middle" x="184.5" y="-303" font-family="Helvetica,sans-Serif" font-size="10.00">IPlugAAX</text>
</a>
</g>
</g>
<!-- Node1&#45;&gt;Node2 -->
<g id="edge1" class="edge">
<title>Node1&#45;&gt;Node2</title>
<path fill="none" stroke="#63b8ff" d="M49.1,-178.19C59.37,-207.04 81.94,-259.01 119,-287.5 129.23,-295.37 142.71,-299.8 154.71,-302.29"/>
<polygon fill="#63b8ff" stroke="#63b8ff" points="52.45,-177.17 45.93,-168.82 45.82,-179.41 52.45,-177.17"/>
</g>
<!-- Node3 -->
<g id="node3" class="node">
<title>Node3</title>
<g id="a_node3"><a xlink:href="class_i_plug_a_p_p.html" target="_top" xlink:title="Standalone application base class for an IPlug plug&#45;in.">
<polygon fill="white" stroke="#666666" points="214,-278 155,-278 155,-259 214,-259 214,-278"/>
<text text-anchor="middle" x="184.5" y="-266" font-family="Helvetica,sans-Serif" font-size="10.00">IPlugAPP</text>
</a>
</g>
</g>
<!-- Node1&#45;&gt;Node3 -->
<g id="edge2" class="edge">
<title>Node1&#45;&gt;Node3</title>
<path fill="none" stroke="#63b8ff" d="M53.62,-177.18C66.61,-198.4 90.06,-231.65 119,-250.5 129.62,-257.42 142.89,-261.71 154.63,-264.35"/>
<polygon fill="#63b8ff" stroke="#63b8ff" points="56.67,-175.47 48.58,-168.63 50.64,-179.02 56.67,-175.47"/>
</g>
<!-- Node4 -->
<g id="node4" class="node">
<title>Node4</title>
<g id="a_node4"><a xlink:href="class_i_plug_a_u.html" target="_top" xlink:title="AudioUnit v2 API base class for an IPlug plug&#45;in.">
<polygon fill="white" stroke="#666666" points="211,-241 158,-241 158,-222 211,-222 211,-241"/>
<text text-anchor="middle" x="184.5" y="-229" font-family="Helvetica,sans-Serif" font-size="10.00">IPlugAU</text>
</a>
</g>
</g>
<!-- Node1&#45;&gt;Node4 -->
<g id="edge3" class="edge">
<title>Node1&#45;&gt;Node4</title>
<path fill="none" stroke="#63b8ff" d="M61.76,-174.66C76.52,-187.01 97.87,-203.24 119,-213.5 131.13,-219.39 145.51,-223.64 157.61,-226.52"/>
<polygon fill="#63b8ff" stroke="#63b8ff" points="64.1,-172.06 54.24,-168.19 59.54,-177.36 64.1,-172.06"/>
</g>
<!-- Node5 -->
<g id="node5" class="node">
<title>Node5</title>
<g id="a_node5"><a xlink:href="class_i_plug_a_uv3.html" target="_top" xlink:title="AudioUnit v3 API base class for an IPlug plug&#45;in.">
<polygon fill="white" stroke="#666666" points="216.5,-204 152.5,-204 152.5,-185 216.5,-185 216.5,-204"/>
<text text-anchor="middle" x="184.5" y="-192" font-family="Helvetica,sans-Serif" font-size="10.00">IPlugAUv3</text>
</a>
</g>
</g>
<!-- Node1&#45;&gt;Node5 -->
<g id="edge4" class="edge">
<title>Node1&#45;&gt;Node5</title>
<path fill="none" stroke="#63b8ff" d="M91.21,-170.28C111.45,-175.59 134.35,-181.6 152.28,-186.31"/>
<polygon fill="#63b8ff" stroke="#63b8ff" points="92.31,-166.95 81.75,-167.8 90.53,-173.72 92.31,-166.95"/>
</g>
<!-- Node6 -->
<g id="node6" class="node">
<title>Node6</title>
<g id="a_node6"><a xlink:href="class_i_plug_c_l_a_p.html" target="_top" xlink:title="CLAP API base class for an IPlug plug&#45;in.">
<polygon fill="white" stroke="#666666" points="217,-167 152,-167 152,-148 217,-148 217,-167"/>
<text text-anchor="middle" x="184.5" y="-155" font-family="Helvetica,sans-Serif" font-size="10.00">IPlugCLAP</text>
</a>
</g>
</g>
<!-- Node1&#45;&gt;Node6 -->
<g id="edge5" class="edge">
<title>Node1&#45;&gt;Node6</title>
<path fill="none" stroke="#63b8ff" d="M94.61,-157.5C113.79,-157.5 134.92,-157.5 151.76,-157.5"/>
<polygon fill="#63b8ff" stroke="#63b8ff" points="94.8,-154 84.8,-157.5 94.8,-161 94.8,-154"/>
</g>
<!-- Node7 -->
<g id="node7" class="node">
<title>Node7</title>
<g id="a_node7"><a xlink:href="class_i_plug_v_s_t2.html" target="_top" xlink:title="VST2.4 API base class for an IPlug plug&#45;in.">
<polygon fill="white" stroke="#666666" points="216.5,-130 152.5,-130 152.5,-111 216.5,-111 216.5,-130"/>
<text text-anchor="middle" x="184.5" y="-118" font-family="Helvetica,sans-Serif" font-size="10.00">IPlugVST2</text>
</a>
</g>
</g>
<!-- Node1&#45;&gt;Node7 -->
<g id="edge6" class="edge">
<title>Node1&#45;&gt;Node7</title>
<path fill="none" stroke="#63b8ff" d="M91.21,-144.72C111.45,-139.41 134.35,-133.4 152.28,-128.69"/>
<polygon fill="#63b8ff" stroke="#63b8ff" points="90.53,-141.28 81.75,-147.2 92.31,-148.05 90.53,-141.28"/>
</g>
<!-- Node8 -->
<g id="node8" class="node">
<title>Node8</title>
<g id="a_node8"><a xlink:href="class_i_plug_v_s_t3_processor_base.html" target="_top" xlink:title="Shared VST3 processor code.">
<polygon fill="white" stroke="#666666" points="250,-93 119,-93 119,-74 250,-74 250,-93"/>
<text text-anchor="middle" x="184.5" y="-81" font-family="Helvetica,sans-Serif" font-size="10.00">IPlugVST3ProcessorBase</text>
</a>
</g>
</g>
<!-- Node1&#45;&gt;Node8 -->
<g id="edge7" class="edge">
<title>Node1&#45;&gt;Node8</title>
<path fill="none" stroke="#63b8ff" d="M62.37,-140.33C77.15,-128.31 98.27,-112.64 119,-102.5 126.24,-98.96 134.26,-95.95 142.11,-93.44"/>
<polygon fill="#63b8ff" stroke="#63b8ff" points="60.24,-137.55 54.8,-146.64 64.72,-142.93 60.24,-137.55"/>
</g>
<!-- Node11 -->
<g id="node11" class="node">
<title>Node11</title>
<g id="a_node11"><a xlink:href="class_i_plug_w_a_m.html" target="_top" xlink:title="WebAudioModule (WAM) API base class.">
<polygon fill="white" stroke="#666666" points="216,-56 153,-56 153,-37 216,-37 216,-56"/>
<text text-anchor="middle" x="184.5" y="-44" font-family="Helvetica,sans-Serif" font-size="10.00">IPlugWAM</text>
</a>
</g>
</g>
<!-- Node1&#45;&gt;Node11 -->
<g id="edge10" class="edge">
<title>Node1&#45;&gt;Node11</title>
<path fill="none" stroke="#63b8ff" d="M53.93,-137.78C67.05,-116.85 90.48,-84.26 119,-65.5 129.05,-58.89 141.45,-54.53 152.69,-51.67"/>
<polygon fill="#63b8ff" stroke="#63b8ff" points="51,-135.87 48.82,-146.23 56.99,-139.49 51,-135.87"/>
</g>
<!-- Node12 -->
<g id="node12" class="node">
<title>Node12</title>
<g id="a_node12"><a xlink:href="class_i_plug_wasm_d_s_p.html" target="_top" xlink:title="Hybrid DSP class &#45; AudioWorklet processor for split DSP/UI builds.">
<polygon fill="white" stroke="#666666" points="228,-19 141,-19 141,0 228,0 228,-19"/>
<text text-anchor="middle" x="184.5" y="-7" font-family="Helvetica,sans-Serif" font-size="10.00">IPlugWasmDSP</text>
</a>
</g>
</g>
<!-- Node1&#45;&gt;Node12 -->
<g id="edge11" class="edge">
<title>Node1&#45;&gt;Node12</title>
<path fill="none" stroke="#63b8ff" d="M49.2,-137.04C59.59,-108.49 82.31,-57.03 119,-28.5 125.36,-23.56 132.97,-19.9 140.71,-17.19"/>
<polygon fill="#63b8ff" stroke="#63b8ff" points="45.96,-135.71 45.99,-146.3 52.57,-138 45.96,-135.71"/>
</g>
<!-- Node9 -->
<g id="node9" class="node">
<title>Node9</title>
<g id="a_node9"><a xlink:href="class_i_plug_v_s_t3.html" target="_top" xlink:title="VST3 base class for a non&#45;distributed IPlug VST3 plug&#45;in.">
<polygon fill="white" stroke="#666666" points="372,-111 308,-111 308,-92 372,-92 372,-111"/>
<text text-anchor="middle" x="340" y="-99" font-family="Helvetica,sans-Serif" font-size="10.00">IPlugVST3</text>
</a>
</g>
</g>
<!-- Node8&#45;&gt;Node9 -->
<g id="edge8" class="edge">
<title>Node8&#45;&gt;Node9</title>
<path fill="none" stroke="#63b8ff" d="M261.48,-92.41C277.91,-94.34 294.38,-96.27 307.89,-97.85"/>
<polygon fill="#63b8ff" stroke="#63b8ff" points="262,-88.95 251.66,-91.26 261.18,-95.9 262,-88.95"/>
</g>
<!-- Node10 -->
<g id="node10" class="node">
<title>Node10</title>
<g id="a_node10"><a xlink:href="class_i_plug_v_s_t3_processor.html" target="_top" xlink:title="VST3 Processor API&#45;base class for a distributed IPlug VST3 plug&#45;in.">
<polygon fill="white" stroke="#666666" points="394,-74 286,-74 286,-55 394,-55 394,-74"/>
<text text-anchor="middle" x="340" y="-62" font-family="Helvetica,sans-Serif" font-size="10.00">IPlugVST3Processor</text>
</a>
</g>
</g>
<!-- Node8&#45;&gt;Node10 -->
<g id="edge9" class="edge">
<title>Node8&#45;&gt;Node10</title>
<path fill="none" stroke="#63b8ff" d="M261.57,-74.08C269.68,-73.08 277.8,-72.08 285.57,-71.11"/>
<polygon fill="#63b8ff" stroke="#63b8ff" points="261.15,-70.61 251.66,-75.31 262.01,-77.56 261.15,-70.61"/>
</g>
</g>
</svg>
