<?xml version="1.0" encoding="UTF-8" standalone="no"?>
<!DOCTYPE svg PUBLIC "-//W3C//DTD SVG 1.1//EN"
 "http://www.w3.org/Graphics/SVG/1.1/DTD/svg11.dtd">
<!-- Generated by graphviz version 7.0.5 (20221223.1930)
 -->
<!-- Title: IPluginBase Pages: 1 -->
<svg width="649pt" height="397pt"
 viewBox="0.00 0.00 649.00 397.00" xmlns="http://www.w3.org/2000/svg" xmlns:xlink="http://www.w3.org/1999/xlink">
<g id="graph0" class="graph" transform="scale(1 1) rotate(0) translate(4 393)">
<title>IPluginBase</title>
<!-- Node1 -->
<g id="node1" class="node">
<title>Node1</title>
<g id="a_node1"><a xlink:title="Base class that contains plug&#45;in info and state manipulation methods.">
<polygon fill="#999999" stroke="#666666" points="252,-204 183,-204 183,-185 252,-185 252,-204"/>
<text text-anchor="middle" x="217.5" y="-192" font-family="Helvetica,sans-Serif" font-size="10.00">IPluginBase</text>
</a>
</g>
</g>
<!-- Node3 -->
<g id="node3" class="node">
<title>Node3</title>
<g id="a_node3"><a xlink:href="class_i_plug_a_p_i_base.html" target="_top" xlink:title="The base class of an IPlug plug&#45;in, which interacts with the different plug&#45;in APIs.">
<polygon fill="white" stroke="#666666" points="366,-204 288,-204 288,-185 366,-185 366,-204"/>
<text text-anchor="middle" x="327" y="-192" font-family="Helvetica,sans-Serif" font-size="10.00">IPlugAPIBase</text>
</a>
</g>
</g>
<!-- Node1&#45;&gt;Node3 -->
<g id="edge2" class="edge">
<title>Node1&#45;&gt;Node3</title>
<path fill="none" stroke="#63b8ff" d="M263.6,-194.5C271.56,-194.5 279.77,-194.5 287.53,-194.5"/>
<polygon fill="#63b8ff" stroke="#63b8ff" points="263.73,-191 253.73,-194.5 263.73,-198 263.73,-191"/>
</g>
<!-- Node2 -->
<g id="node2" class="node">
<title>Node2</title>
<g id="a_node2"><a xlink:title=" ">
<polygon fill="white" stroke="#bfbfbf" points="147,-204 0,-204 0,-185 147,-185 147,-204"/>
<text text-anchor="middle" x="73.5" y="-192" font-family="Helvetica,sans-Serif" font-size="10.00">EDITOR_DELEGATE_CLASS</text>
</a>
</g>
</g>
<!-- Node2&#45;&gt;Node1 -->
<g id="edge1" class="edge">
<title>Node2&#45;&gt;Node1</title>
<path fill="none" stroke="#63b8ff" d="M158.45,-194.5C166.96,-194.5 175.21,-194.5 182.7,-194.5"/>
<polygon fill="#63b8ff" stroke="#63b8ff" points="158.68,-191 148.68,-194.5 158.68,-198 158.68,-191"/>
</g>
<!-- Node4 -->
<g id="node4" class="node">
<title>Node4</title>
<g id="a_node4"><a xlink:href="class_i_plug_a_a_x.html" target="_top" xlink:title="AAX API base class for an IPlug plug&#45;in.">
<polygon fill="white" stroke="#666666" points="485.5,-389 426.5,-389 426.5,-370 485.5,-370 485.5,-389"/>
<text text-anchor="middle" x="456" y="-377" font-family="Helvetica,sans-Serif" font-size="10.00">IPlugAAX</text>
</a>
</g>
</g>
<!-- Node3&#45;&gt;Node4 -->
<g id="edge3" class="edge">
<title>Node3&#45;&gt;Node4</title>
<path fill="none" stroke="#63b8ff" d="M331.8,-215.41C339.19,-250.27 358.73,-320.37 402,-360.5 408.66,-366.68 417.48,-370.88 426.01,-373.72"/>
<polygon fill="#63b8ff" stroke="#63b8ff" points="335.27,-214.91 329.9,-205.77 328.4,-216.26 335.27,-214.91"/>
</g>
<!-- Node5 -->
<g id="node5" class="node">
<title>Node5</title>
<g id="a_node5"><a xlink:href="class_i_plug_a_p_p.html" target="_top" xlink:title="Standalone application base class for an IPlug plug&#45;in.">
<polygon fill="white" stroke="#666666" points="485.5,-352 426.5,-352 426.5,-333 485.5,-333 485.5,-352"/>
<text text-anchor="middle" x="456" y="-340" font-family="Helvetica,sans-Serif" font-size="10.00">IPlugAPP</text>
</a>
</g>
</g>
<!-- Node3&#45;&gt;Node5 -->
<g id="edge4" class="edge">
<title>Node3&#45;&gt;Node5</title>
<path fill="none" stroke="#63b8ff" d="M334.67,-215.09C344.84,-243.37 366.84,-294.06 402,-323.5 408.89,-329.27 417.68,-333.35 426.1,-336.21"/>
<polygon fill="#63b8ff" stroke="#63b8ff" points="338.08,-214.23 331.53,-205.9 331.46,-216.5 338.08,-214.23"/>
</g>
<!-- Node6 -->
<g id="node6" class="node">
<title>Node6</title>
<g id="a_node6"><a xlink:href="class_i_plug_a_u.html" target="_top" xlink:title="AudioUnit v2 API base class for an IPlug plug&#45;in.">
<polygon fill="white" stroke="#666666" points="482.5,-315 429.5,-315 429.5,-296 482.5,-296 482.5,-315"/>
<text text-anchor="middle" x="456" y="-303" font-family="Helvetica,sans-Serif" font-size="10.00">IPlugAU</text>
</a>
</g>
</g>
<!-- Node3&#45;&gt;Node6 -->
<g id="edge5" class="edge">
<title>Node3&#45;&gt;Node6</title>
<path fill="none" stroke="#63b8ff" d="M339.11,-213.92C351.85,-234.59 374.56,-266.96 402,-286.5 410.04,-292.23 419.99,-296.39 429.08,-299.34"/>
<polygon fill="#63b8ff" stroke="#63b8ff" points="342.28,-212.4 334.16,-205.6 336.27,-215.99 342.28,-212.4"/>
</g>
<!-- Node7 -->
<g id="node7" class="node">
<title>Node7</title>
<g id="a_node7"><a xlink:href="class_i_plug_a_uv3.html" target="_top" xlink:title="AudioUnit v3 API base class for an IPlug plug&#45;in.">
<polygon fill="white" stroke="#666666" points="488,-278 424,-278 424,-259 488,-259 488,-278"/>
<text text-anchor="middle" x="456" y="-266" font-family="Helvetica,sans-Serif" font-size="10.00">IPlugAUv3</text>
</a>
</g>
</g>
<!-- Node3&#45;&gt;Node7 -->
<g id="edge6" class="edge">
<title>Node3&#45;&gt;Node7</title>
<path fill="none" stroke="#63b8ff" d="M347.31,-211.35C361.65,-223.22 382.09,-238.84 402,-249.5 408.72,-253.1 416.27,-256.27 423.51,-258.94"/>
<polygon fill="#63b8ff" stroke="#63b8ff" points="349.88,-208.94 339.99,-205.16 345.36,-214.29 349.88,-208.94"/>
</g>
<!-- Node8 -->
<g id="node8" class="node">
<title>Node8</title>
<g id="a_node8"><a xlink:href="class_i_plug_c_l_a_p.html" target="_top" xlink:title="CLAP API base class for an IPlug plug&#45;in.">
<polygon fill="white" stroke="#666666" points="488.5,-241 423.5,-241 423.5,-222 488.5,-222 488.5,-241"/>
<text text-anchor="middle" x="456" y="-229" font-family="Helvetica,sans-Serif" font-size="10.00">IPlugCLAP</text>
</a>
</g>
</g>
<!-- Node3&#45;&gt;Node8 -->
<g id="edge7" class="edge">
<title>Node3&#45;&gt;Node8</title>
<path fill="none" stroke="#63b8ff" d="M372.63,-207.5C389.26,-212.35 407.79,-217.75 423.06,-222.19"/>
<polygon fill="#63b8ff" stroke="#63b8ff" points="374.07,-204.28 363.49,-204.84 372.11,-211 374.07,-204.28"/>
</g>
<!-- Node9 -->
<g id="node9" class="node">
<title>Node9</title>
<g id="a_node9"><a xlink:href="class_i_plug_v_s_t2.html" target="_top" xlink:title="VST2.4 API base class for an IPlug plug&#45;in.">
<polygon fill="white" stroke="#666666" points="488,-204 424,-204 424,-185 488,-185 488,-204"/>
<text text-anchor="middle" x="456" y="-192" font-family="Helvetica,sans-Serif" font-size="10.00">IPlugVST2</text>
</a>
</g>
</g>
<!-- Node3&#45;&gt;Node9 -->
<g id="edge8" class="edge">
<title>Node3&#45;&gt;Node9</title>
<path fill="none" stroke="#63b8ff" d="M377.91,-194.5C393.27,-194.5 409.75,-194.5 423.51,-194.5"/>
<polygon fill="#63b8ff" stroke="#63b8ff" points="377.96,-191 367.96,-194.5 377.96,-198 377.96,-191"/>
</g>
<!-- Node11 -->
<g id="node11" class="node">
<title>Node11</title>
<g id="a_node11"><a xlink:href="class_i_plug_v_s_t3.html" target="_top" xlink:title="VST3 base class for a non&#45;distributed IPlug VST3 plug&#45;in.">
<polygon fill="white" stroke="#666666" points="488,-167 424,-167 424,-148 488,-148 488,-167"/>
<text text-anchor="middle" x="456" y="-155" font-family="Helvetica,sans-Serif" font-size="10.00">IPlugVST3</text>
</a>
</g>
</g>
<!-- Node3&#45;&gt;Node11 -->
<g id="edge10" class="edge">
<title>Node3&#45;&gt;Node11</title>
<path fill="none" stroke="#63b8ff" d="M372.8,-181.45C389.7,-176.52 408.54,-171.03 423.92,-166.55"/>
<polygon fill="#63b8ff" stroke="#63b8ff" points="372.11,-178 363.49,-184.16 374.07,-184.72 372.11,-178"/>
</g>
<!-- Node12 -->
<g id="node12" class="node">
<title>Node12</title>
<g id="a_node12"><a xlink:href="class_i_plug_v_s_t3_controller.html" target="_top" xlink:title="VST3 Controller API&#45;base class for a distributed IPlug VST3 plug&#45;in.">
<polygon fill="white" stroke="#666666" points="508.5,-130 403.5,-130 403.5,-111 508.5,-111 508.5,-130"/>
<text text-anchor="middle" x="456" y="-118" font-family="Helvetica,sans-Serif" font-size="10.00">IPlugVST3Controller</text>
</a>
</g>
</g>
<!-- Node3&#45;&gt;Node12 -->
<g id="edge11" class="edge">
<title>Node3&#45;&gt;Node12</title>
<path fill="none" stroke="#63b8ff" d="M347.2,-177.22C361.49,-165.07 381.92,-149.15 402,-138.5 407.75,-135.45 414.12,-132.76 420.4,-130.46"/>
<polygon fill="#63b8ff" stroke="#63b8ff" points="345.15,-174.36 339.91,-183.57 349.75,-179.64 345.15,-174.36"/>
</g>
<!-- Node13 -->
<g id="node13" class="node">
<title>Node13</title>
<g id="a_node13"><a xlink:href="class_i_plug_v_s_t3_processor.html" target="_top" xlink:title="VST3 Processor API&#45;base class for a distributed IPlug VST3 plug&#45;in.">
<polygon fill="white" stroke="#666666" points="510,-93 402,-93 402,-74 510,-74 510,-93"/>
<text text-anchor="middle" x="456" y="-81" font-family="Helvetica,sans-Serif" font-size="10.00">IPlugVST3Processor</text>
</a>
</g>
</g>
<!-- Node3&#45;&gt;Node13 -->
<g id="edge12" class="edge">
<title>Node3&#45;&gt;Node13</title>
<path fill="none" stroke="#63b8ff" d="M339,-174.78C351.64,-153.8 374.26,-121.01 402,-101.5 406.53,-98.31 411.67,-95.65 416.93,-93.44"/>
<polygon fill="#63b8ff" stroke="#63b8ff" points="336.08,-172.83 334.08,-183.23 342.14,-176.34 336.08,-172.83"/>
</g>
<!-- Node14 -->
<g id="node14" class="node">
<title>Node14</title>
<g id="a_node14"><a xlink:href="class_i_plug_w_a_m.html" target="_top" xlink:title="WebAudioModule (WAM) API base class.">
<polygon fill="white" stroke="#666666" points="487.5,-56 424.5,-56 424.5,-37 487.5,-37 487.5,-56"/>
<text text-anchor="middle" x="456" y="-44" font-family="Helvetica,sans-Serif" font-size="10.00">IPlugWAM</text>
</a>
</g>
</g>
<!-- Node3&#45;&gt;Node14 -->
<g id="edge13" class="edge">
<title>Node3&#45;&gt;Node14</title>
<path fill="none" stroke="#63b8ff" d="M334.41,-174.09C344.38,-145.58 366.26,-94.02 402,-64.5 408.37,-59.24 416.35,-55.49 424.17,-52.82"/>
<polygon fill="#63b8ff" stroke="#63b8ff" points="331.17,-172.73 331.34,-183.33 337.82,-174.94 331.17,-172.73"/>
</g>
<!-- Node15 -->
<g id="node15" class="node">
<title>Node15</title>
<g id="a_node15"><a xlink:href="class_i_plug_web.html" target="_top" xlink:title="This is used for the UI &quot;editor&quot; &#45; controller side of a WAM or remote editors that communicate with d...">
<polygon fill="white" stroke="#666666" points="485.5,-19 426.5,-19 426.5,0 485.5,0 485.5,-19"/>
<text text-anchor="middle" x="456" y="-7" font-family="Helvetica,sans-Serif" font-size="10.00">IPlugWeb</text>
</a>
</g>
</g>
<!-- Node3&#45;&gt;Node15 -->
<g id="edge14" class="edge">
<title>Node3&#45;&gt;Node15</title>
<path fill="none" stroke="#63b8ff" d="M331.69,-173.38C338.91,-138.2 358.22,-67.52 402,-27.5 408.67,-21.4 417.49,-17.36 426.01,-14.68"/>
<polygon fill="#63b8ff" stroke="#63b8ff" points="328.26,-172.65 329.83,-183.13 335.14,-173.96 328.26,-172.65"/>
</g>
<!-- Node10 -->
<g id="node10" class="node">
<title>Node10</title>
<g id="a_node10"><a xlink:href="class_i_plug_reaper_v_s_t2.html" target="_top" xlink:title="Reaper specific VST2.4 API base class for an IPlug plug&#45;in.">
<polygon fill="white" stroke="#666666" points="641,-204 546,-204 546,-185 641,-185 641,-204"/>
<text text-anchor="middle" x="593.5" y="-192" font-family="Helvetica,sans-Serif" font-size="10.00">IPlugReaperVST2</text>
</a>
</g>
</g>
<!-- Node9&#45;&gt;Node10 -->
<g id="edge9" class="edge">
<title>Node9&#45;&gt;Node10</title>
<path fill="none" stroke="#63b8ff" d="M499.68,-194.5C514.26,-194.5 530.66,-194.5 545.56,-194.5"/>
<polygon fill="#63b8ff" stroke="#63b8ff" points="499.94,-191 489.94,-194.5 499.94,-198 499.94,-191"/>
</g>
</g>
</svg>
