<?xml version="1.0" encoding="UTF-8" standalone="no"?>
<!DOCTYPE svg PUBLIC "-//W3C//DTD SVG 1.1//EN"
 "http://www.w3.org/Graphics/SVG/1.1/DTD/svg11.dtd">
<!-- Generated by graphviz version 2.36.0 (20140111.2315)
 -->
<!-- Title: ITextControl Pages: 1 -->
<svg width="314pt" height="140pt"
 viewBox="0.00 0.00 314.00 140.00" xmlns="http://www.w3.org/2000/svg" xmlns:xlink="http://www.w3.org/1999/xlink">
<g id="graph0" class="graph" transform="scale(1 1) rotate(0) translate(4 136)">
<title>ITextControl</title>
<polygon fill="white" stroke="none" points="-4,4 -4,-136 310,-136 310,4 -4,4"/>
<!-- Node1 -->
<g id="node1" class="node"><title>Node1</title>
<polygon fill="#bfbfbf" stroke="black" points="101.5,-56.5 101.5,-75.5 172.5,-75.5 172.5,-56.5 101.5,-56.5"/>
<text text-anchor="middle" x="137" y="-63.5" font-family="Helvetica,sans-Serif" font-size="10.00">ITextControl</text>
</g>
<!-- Node3 -->
<g id="node3" class="node"><title>Node3</title>
<g id="a_node3"><a xlink:href="class_i_b_text_control.html" target="_top" xlink:title="A control to display text using a monospace bitmap font. ">
<polygon fill="white" stroke="black" points="-0.5,-0.5 -0.5,-19.5 76.5,-19.5 76.5,-0.5 -0.5,-0.5"/>
<text text-anchor="middle" x="38" y="-7.5" font-family="Helvetica,sans-Serif" font-size="10.00">IBTextControl</text>
</a>
</g>
</g>
<!-- Node1&#45;&gt;Node3 -->
<g id="edge2" class="edge"><title>Node1&#45;&gt;Node3</title>
<path fill="none" stroke="midnightblue" d="M112.163,-51.4526C93.8864,-41.4835 69.5844,-28.2279 53.8666,-19.6545"/>
<polygon fill="midnightblue" stroke="midnightblue" points="110.639,-54.608 121.094,-56.324 113.991,-48.4628 110.639,-54.608"/>
</g>
<!-- Node4 -->
<g id="node4" class="node"><title>Node4</title>
<g id="a_node4"><a xlink:href="class_i_caption_control.html" target="_top" xlink:title="A control to display the textual representation of a parameter. ">
<polygon fill="white" stroke="black" points="94.5,-0.5 94.5,-19.5 179.5,-19.5 179.5,-0.5 94.5,-0.5"/>
<text text-anchor="middle" x="137" y="-7.5" font-family="Helvetica,sans-Serif" font-size="10.00">ICaptionControl</text>
</a>
</g>
</g>
<!-- Node1&#45;&gt;Node4 -->
<g id="edge3" class="edge"><title>Node1&#45;&gt;Node4</title>
<path fill="none" stroke="midnightblue" d="M137,-45.8045C137,-36.9102 137,-26.7798 137,-19.7511"/>
<polygon fill="midnightblue" stroke="midnightblue" points="133.5,-46.083 137,-56.083 140.5,-46.083 133.5,-46.083"/>
</g>
<!-- Node5 -->
<g id="node5" class="node"><title>Node5</title>
<g id="a_node5"><a xlink:href="class_i_r_t_text_control.html" target="_top" xlink:title="A control to display some text in the UI, driven by values in the RT audio thread. ">
<polygon fill="white" stroke="black" points="198,-0.5 198,-19.5 306,-19.5 306,-0.5 198,-0.5"/>
<text text-anchor="middle" x="252" y="-7.5" font-family="Helvetica,sans-Serif" font-size="10.00">IRTTextControl&lt; T &gt;</text>
</a>
</g>
</g>
<!-- Node1&#45;&gt;Node5 -->
<g id="edge4" class="edge"><title>Node1&#45;&gt;Node5</title>
<path fill="none" stroke="midnightblue" d="M164.481,-52.096C185.966,-42.0073 215.222,-28.2697 233.863,-19.5164"/>
<polygon fill="midnightblue" stroke="midnightblue" points="162.786,-49.025 155.222,-56.4435 165.762,-55.3612 162.786,-49.025"/>
</g>
<!-- Node2 -->
<g id="node2" class="node"><title>Node2</title>
<g id="a_node2"><a xlink:href="class_i_control.html" target="_top" xlink:title="The lowest level base class of an IGraphics control. ">
<polygon fill="white" stroke="black" points="111.5,-112.5 111.5,-131.5 162.5,-131.5 162.5,-112.5 111.5,-112.5"/>
<text text-anchor="middle" x="137" y="-119.5" font-family="Helvetica,sans-Serif" font-size="10.00">IControl</text>
</a>
</g>
</g>
<!-- Node2&#45;&gt;Node1 -->
<g id="edge1" class="edge"><title>Node2&#45;&gt;Node1</title>
<path fill="none" stroke="midnightblue" d="M137,-101.805C137,-92.9102 137,-82.7798 137,-75.7511"/>
<polygon fill="midnightblue" stroke="midnightblue" points="133.5,-102.083 137,-112.083 140.5,-102.083 133.5,-102.083"/>
</g>
</g>
</svg>
