<?xml version="1.0" encoding="UTF-8" standalone="no"?>
<!DOCTYPE svg PUBLIC "-//W3C//DTD SVG 1.1//EN"
 "http://www.w3.org/Graphics/SVG/1.1/DTD/svg11.dtd">
<!-- Generated by graphviz version 7.0.5 (20221223.1930)
 -->
<!-- Title: IBTextControl Pages: 1 -->
<svg width="168pt" height="137pt"
 viewBox="0.00 0.00 168.00 137.00" xmlns="http://www.w3.org/2000/svg" xmlns:xlink="http://www.w3.org/1999/xlink">
<g id="graph0" class="graph" transform="scale(1 1) rotate(0) translate(4 133)">
<title>IBTextControl</title>
<!-- Node1 -->
<g id="node1" class="node">
<title>Node1</title>
<g id="a_node1"><a xlink:title="A control to display text using a monospace bitmap font.">
<polygon fill="#999999" stroke="#666666" points="116.5,-19 40.5,-19 40.5,0 116.5,0 116.5,-19"/>
<text text-anchor="middle" x="78.5" y="-7" font-family="Helvetica,sans-Serif" font-size="10.00">IBTextControl</text>
</a>
</g>
</g>
<!-- Node2 -->
<g id="node2" class="node">
<title>Node2</title>
<g id="a_node2"><a xlink:href="class_i_text_control.html" target="_top" xlink:title="A basic control to display some text.">
<polygon fill="white" stroke="#666666" points="69,-74 0,-74 0,-55 69,-55 69,-74"/>
<text text-anchor="middle" x="34.5" y="-62" font-family="Helvetica,sans-Serif" font-size="10.00">ITextControl</text>
</a>
</g>
</g>
<!-- Node2&#45;&gt;Node1 -->
<g id="edge1" class="edge">
<title>Node2&#45;&gt;Node1</title>
<path fill="none" stroke="#63b8ff" d="M49.08,-45.93C56.45,-37.06 65.08,-26.67 71.08,-19.44"/>
<polygon fill="#63b8ff" stroke="#63b8ff" points="46.43,-43.65 42.73,-53.58 51.81,-48.13 46.43,-43.65"/>
</g>
<!-- Node3 -->
<g id="node3" class="node">
<title>Node3</title>
<g id="a_node3"><a xlink:href="class_i_control.html" target="_top" xlink:title="The lowest level base class of an IGraphics control.">
<polygon fill="white" stroke="#666666" points="59.5,-129 9.5,-129 9.5,-110 59.5,-110 59.5,-129"/>
<text text-anchor="middle" x="34.5" y="-117" font-family="Helvetica,sans-Serif" font-size="10.00">IControl</text>
</a>
</g>
</g>
<!-- Node3&#45;&gt;Node2 -->
<g id="edge2" class="edge">
<title>Node3&#45;&gt;Node2</title>
<path fill="none" stroke="#63b8ff" d="M34.5,-98.35C34.5,-90.1 34.5,-80.97 34.5,-74.44"/>
<polygon fill="#63b8ff" stroke="#63b8ff" points="31,-98.23 34.5,-108.23 38,-98.23 31,-98.23"/>
</g>
<!-- Node4 -->
<g id="node4" class="node">
<title>Node4</title>
<g id="a_node4"><a xlink:href="class_i_bitmap_base.html" target="_top" xlink:title="A base interface to be combined with IControl for bitmap&#45;based controls &quot;IBControls&quot;,...">
<polygon fill="white" stroke="#666666" points="160,-74 87,-74 87,-55 160,-55 160,-74"/>
<text text-anchor="middle" x="123.5" y="-62" font-family="Helvetica,sans-Serif" font-size="10.00">IBitmapBase</text>
</a>
</g>
</g>
<!-- Node4&#45;&gt;Node1 -->
<g id="edge3" class="edge">
<title>Node4&#45;&gt;Node1</title>
<path fill="none" stroke="#63b8ff" d="M108.82,-46.22C101.24,-37.28 92.29,-26.74 86.09,-19.44"/>
<polygon fill="#63b8ff" stroke="#63b8ff" points="105.95,-48.24 115.09,-53.59 111.29,-43.71 105.95,-48.24"/>
</g>
</g>
</svg>
