<?xml version="1.0" encoding="UTF-8" standalone="no"?>
<!DOCTYPE svg PUBLIC "-//W3C//DTD SVG 1.1//EN"
 "http://www.w3.org/Graphics/SVG/1.1/DTD/svg11.dtd">
<!-- Generated by graphviz version 7.0.5 (20221223.1930)
 -->
<!-- Title: IControl Pages: 1 -->
<svg width="233pt" height="1778pt"
 viewBox="0.00 0.00 233.00 1778.00" xmlns="http://www.w3.org/2000/svg" xmlns:xlink="http://www.w3.org/1999/xlink">
<g id="graph0" class="graph" transform="scale(1 1) rotate(0) translate(4 1774)">
<title>IControl</title>
<!-- Node1 -->
<g id="node1" class="node">
<title>Node1</title>
<g id="a_node1"><a xlink:title="The lowest level base class of an IGraphics control.">
<polygon fill="#999999" stroke="#666666" points="50,-900 0,-900 0,-881 50,-881 50,-900"/>
<text text-anchor="middle" x="25" y="-888" font-family="Helvetica,sans-Serif" font-size="10.00">IControl</text>
</a>
</g>
</g>
<!-- Node2 -->
<g id="node2" class="node">
<title>Node2</title>
<g id="a_node2"><a xlink:href="class_g_f_x_label_control.html" target="_top" xlink:title="Control to display the graphics backend.">
<polygon fill="white" stroke="#666666" points="201.5,-1770 109.5,-1770 109.5,-1751 201.5,-1751 201.5,-1770"/>
<text text-anchor="middle" x="155.5" y="-1758" font-family="Helvetica,sans-Serif" font-size="10.00">GFXLabelControl</text>
</a>
</g>
</g>
<!-- Node1&#45;&gt;Node2 -->
<g id="edge1" class="edge">
<title>Node1&#45;&gt;Node2</title>
<path fill="none" stroke="#63b8ff" d="M26.04,-911.68C26.48,-1036.84 31.39,-1676.62 86,-1742.5 91.88,-1749.6 100.2,-1754.09 109.02,-1756.88"/>
<polygon fill="#63b8ff" stroke="#63b8ff" points="29.54,-911.87 26.01,-901.88 22.54,-911.89 29.54,-911.87"/>
</g>
<!-- Node3 -->
<g id="node3" class="node">
<title>Node3</title>
<g id="a_node3"><a xlink:href="class_i_bitmap_control.html" target="_top" xlink:title="A basic control to draw a bitmap, or one frame of a stacked bitmap depending on the current value.">
<polygon fill="#fff0f0" stroke="red" points="196,-1733 115,-1733 115,-1714 196,-1714 196,-1733"/>
<text text-anchor="middle" x="155.5" y="-1721" font-family="Helvetica,sans-Serif" font-size="10.00">IBitmapControl</text>
</a>
</g>
</g>
<!-- Node1&#45;&gt;Node3 -->
<g id="edge2" class="edge">
<title>Node1&#45;&gt;Node3</title>
<path fill="none" stroke="#63b8ff" d="M26.12,-911.89C26.97,-1034.29 33.82,-1642.74 86,-1705.5 93.15,-1714.1 103.88,-1718.87 114.73,-1721.43"/>
<polygon fill="#63b8ff" stroke="#63b8ff" points="29.62,-911.98 26.05,-902.01 22.62,-912.03 29.62,-911.98"/>
</g>
<!-- Node6 -->
<g id="node4" class="node">
<title>Node6</title>
<g id="a_node4"><a xlink:href="class_i_bubble_control.html" target="_top" xlink:title="A special control to draw contextual info as a slider etc is moved If used in the main IControl stack...">
<polygon fill="white" stroke="#666666" points="195.5,-1696 115.5,-1696 115.5,-1677 195.5,-1677 195.5,-1696"/>
<text text-anchor="middle" x="155.5" y="-1684" font-family="Helvetica,sans-Serif" font-size="10.00">IBubbleControl</text>
</a>
</g>
</g>
<!-- Node1&#45;&gt;Node6 -->
<g id="edge3" class="edge">
<title>Node1&#45;&gt;Node6</title>
<path fill="none" stroke="#63b8ff" d="M26.19,-911.65C27.46,-1030.17 36.17,-1608.79 86,-1668.5 93.25,-1677.19 104.13,-1681.95 115.11,-1684.5"/>
<polygon fill="#63b8ff" stroke="#63b8ff" points="29.69,-911.79 26.09,-901.82 22.69,-911.86 29.69,-911.79"/>
</g>
<!-- Node7 -->
<g id="node5" class="node">
<title>Node7</title>
<g id="a_node5"><a xlink:href="class_i_button_control_base.html" target="_top" xlink:title="A base class for buttons/momentary switches &#45; cannot be linked to parameters.">
<polygon fill="#fff0f0" stroke="red" points="206,-1659 105,-1659 105,-1640 206,-1640 206,-1659"/>
<text text-anchor="middle" x="155.5" y="-1647" font-family="Helvetica,sans-Serif" font-size="10.00">IButtonControlBase</text>
</a>
</g>
</g>
<!-- Node1&#45;&gt;Node7 -->
<g id="edge4" class="edge">
<title>Node1&#45;&gt;Node7</title>
<path fill="none" stroke="#63b8ff" d="M26.28,-911.71C27.99,-1026.96 38.57,-1574.88 86,-1631.5 90.9,-1637.34 97.44,-1641.41 104.54,-1644.22"/>
<polygon fill="#63b8ff" stroke="#63b8ff" points="29.78,-911.83 26.14,-901.88 22.78,-911.93 29.78,-911.83"/>
</g>
<!-- Node12 -->
<g id="node6" class="node">
<title>Node12</title>
<g id="a_node6"><a xlink:href="class_i_color_picker_control.html" target="_top" xlink:title="A control for choosing a color.">
<polygon fill="white" stroke="#666666" points="206,-1622 105,-1622 105,-1603 206,-1603 206,-1622"/>
<text text-anchor="middle" x="155.5" y="-1610" font-family="Helvetica,sans-Serif" font-size="10.00">IColorPickerControl</text>
</a>
</g>
</g>
<!-- Node1&#45;&gt;Node12 -->
<g id="edge5" class="edge">
<title>Node1&#45;&gt;Node12</title>
<path fill="none" stroke="#63b8ff" d="M26.37,-911.69C28.54,-1023.4 40.95,-1540.95 86,-1594.5 90.91,-1600.33 97.46,-1604.4 104.56,-1607.21"/>
<polygon fill="#63b8ff" stroke="#63b8ff" points="29.88,-911.83 26.19,-901.89 22.88,-911.96 29.88,-911.83"/>
</g>
<!-- Node13 -->
<g id="node7" class="node">
<title>Node13</title>
<g id="a_node7"><a xlink:href="class_i_container_base.html" target="_top" xlink:title="IContainerBase allows a control to nest sub controls and it clips the drawing of those subcontrols In...">
<polygon fill="#fff0f0" stroke="red" points="197,-1585 114,-1585 114,-1566 197,-1566 197,-1585"/>
<text text-anchor="middle" x="155.5" y="-1573" font-family="Helvetica,sans-Serif" font-size="10.00">IContainerBase</text>
</a>
</g>
</g>
<!-- Node1&#45;&gt;Node13 -->
<g id="edge6" class="edge">
<title>Node1&#45;&gt;Node13</title>
<path fill="none" stroke="#63b8ff" d="M26.48,-911.57C29.11,-1019.45 43.31,-1507 86,-1557.5 92.99,-1565.76 103.26,-1570.47 113.74,-1573.1"/>
<polygon fill="#63b8ff" stroke="#63b8ff" points="29.98,-911.54 26.24,-901.62 22.98,-911.7 29.98,-911.54"/>
</g>
<!-- Node27 -->
<g id="node8" class="node">
<title>Node27</title>
<g id="a_node8"><a xlink:href="class_i_corner_resizer_control.html" target="_top" xlink:title="A control for resizing the plug&#45;in window by clicking and dragging in the bottom right&#45;hand corner Th...">
<polygon fill="white" stroke="#666666" points="211,-1548 100,-1548 100,-1529 211,-1529 211,-1548"/>
<text text-anchor="middle" x="155.5" y="-1536" font-family="Helvetica,sans-Serif" font-size="10.00">ICornerResizerControl</text>
</a>
</g>
</g>
<!-- Node1&#45;&gt;Node27 -->
<g id="edge7" class="edge">
<title>Node1&#45;&gt;Node27</title>
<path fill="none" stroke="#63b8ff" d="M26.59,-911.37C29.7,-1015.19 45.66,-1473.03 86,-1520.5 89.74,-1524.9 94.42,-1528.3 99.56,-1530.9"/>
<polygon fill="#63b8ff" stroke="#63b8ff" points="30.09,-911.45 26.3,-901.56 23.1,-911.66 30.09,-911.45"/>
</g>
<!-- Node28 -->
<g id="node9" class="node">
<title>Node28</title>
<g id="a_node9"><a xlink:href="class_i_f_p_s_display_control.html" target="_top" xlink:title="Performance display meter, based on code from NanoVG This is a special control that lives outside the...">
<polygon fill="white" stroke="#666666" points="206,-1511 105,-1511 105,-1492 206,-1492 206,-1511"/>
<text text-anchor="middle" x="155.5" y="-1499" font-family="Helvetica,sans-Serif" font-size="10.00">IFPSDisplayControl</text>
</a>
</g>
</g>
<!-- Node1&#45;&gt;Node28 -->
<g id="edge8" class="edge">
<title>Node1&#45;&gt;Node28</title>
<path fill="none" stroke="#63b8ff" d="M26.73,-911.71C30.4,-1012.4 48.07,-1439.14 86,-1483.5 90.95,-1489.29 97.53,-1493.34 104.64,-1496.14"/>
<polygon fill="#63b8ff" stroke="#63b8ff" points="30.24,-911.79 26.38,-901.92 23.24,-912.04 30.24,-911.79"/>
</g>
<!-- Node29 -->
<g id="node10" class="node">
<title>Node29</title>
<g id="a_node10"><a xlink:href="class_i_graphics_live_edit.html" target="_top" xlink:title="A control to enable live modification of control layout in an IGraphics context in debug builds This ...">
<polygon fill="white" stroke="#666666" points="202.5,-1474 108.5,-1474 108.5,-1455 202.5,-1455 202.5,-1474"/>
<text text-anchor="middle" x="155.5" y="-1462" font-family="Helvetica,sans-Serif" font-size="10.00">IGraphicsLiveEdit</text>
</a>
</g>
</g>
<!-- Node1&#45;&gt;Node29 -->
<g id="edge9" class="edge">
<title>Node1&#45;&gt;Node29</title>
<path fill="none" stroke="#63b8ff" d="M26.88,-911.58C31.08,-1008.14 50.43,-1405.17 86,-1446.5 91.78,-1453.21 99.72,-1457.57 108.16,-1460.37"/>
<polygon fill="#63b8ff" stroke="#63b8ff" points="30.38,-911.59 26.46,-901.75 23.39,-911.89 30.38,-911.59"/>
</g>
<!-- Node30 -->
<g id="node11" class="node">
<title>Node30</title>
<g id="a_node11"><a xlink:href="class_i_knob_control_base.html" target="_top" xlink:title="A base class for knob/dial controls, to handle mouse action and Sender.">
<polygon fill="#fff0f0" stroke="red" points="203,-1437 108,-1437 108,-1418 203,-1418 203,-1437"/>
<text text-anchor="middle" x="155.5" y="-1425" font-family="Helvetica,sans-Serif" font-size="10.00">IKnobControlBase</text>
</a>
</g>
</g>
<!-- Node1&#45;&gt;Node30 -->
<g id="edge10" class="edge">
<title>Node1&#45;&gt;Node30</title>
<path fill="none" stroke="#63b8ff" d="M27.07,-911.92C31.88,-1004.98 52.83,-1371.25 86,-1409.5 91.72,-1416.1 99.54,-1420.42 107.85,-1423.22"/>
<polygon fill="#63b8ff" stroke="#63b8ff" points="30.56,-911.77 26.56,-901.96 23.57,-912.13 30.56,-911.77"/>
</g>
<!-- Node43 -->
<g id="node12" class="node">
<title>Node43</title>
<g id="a_node12"><a xlink:href="class_i_l_e_d_control.html" target="_top" xlink:title="Glowing LED control.">
<polygon fill="white" stroke="#666666" points="190,-1400 121,-1400 121,-1381 190,-1381 190,-1400"/>
<text text-anchor="middle" x="155.5" y="-1388" font-family="Helvetica,sans-Serif" font-size="10.00">ILEDControl</text>
</a>
</g>
</g>
<!-- Node1&#45;&gt;Node43 -->
<g id="edge11" class="edge">
<title>Node1&#45;&gt;Node43</title>
<path fill="none" stroke="#63b8ff" d="M25.61,-911.76C24.51,-995.66 24.79,-1302.55 86,-1372.5 94.66,-1382.4 108.05,-1387.17 120.7,-1389.37"/>
<polygon fill="#63b8ff" stroke="#63b8ff" points="29.1,-912.04 25.76,-901.99 22.11,-911.93 29.1,-912.04"/>
</g>
<!-- Node44 -->
<g id="node13" class="node">
<title>Node44</title>
<g id="a_node13"><a xlink:href="class_i_lambda_control.html" target="_top" xlink:title="A control that can be specialised with a lambda function, for quick experiments without making a cust...">
<polygon fill="white" stroke="#666666" points="198.5,-1363 112.5,-1363 112.5,-1344 198.5,-1344 198.5,-1363"/>
<text text-anchor="middle" x="155.5" y="-1351" font-family="Helvetica,sans-Serif" font-size="10.00">ILambdaControl</text>
</a>
</g>
</g>
<!-- Node1&#45;&gt;Node44 -->
<g id="edge12" class="edge">
<title>Node1&#45;&gt;Node44</title>
<path fill="none" stroke="#63b8ff" d="M25.85,-911.89C25.75,-991.82 29.51,-1271.6 86,-1335.5 92.76,-1343.15 102.34,-1347.73 112.19,-1350.43"/>
<polygon fill="#63b8ff" stroke="#63b8ff" points="29.35,-912 25.89,-901.99 22.35,-911.97 29.35,-912"/>
</g>
<!-- Node45 -->
<g id="node14" class="node">
<title>Node45</title>
<g id="a_node14"><a xlink:href="class_i_linear_marks.html" target="_top" xlink:title=" ">
<polygon fill="white" stroke="#bfbfbf" points="192.5,-1326 118.5,-1326 118.5,-1307 192.5,-1307 192.5,-1326"/>
<text text-anchor="middle" x="155.5" y="-1314" font-family="Helvetica,sans-Serif" font-size="10.00">ILinearMarks</text>
</a>
</g>
</g>
<!-- Node1&#45;&gt;Node45 -->
<g id="edge13" class="edge">
<title>Node1&#45;&gt;Node45</title>
<path fill="none" stroke="#63b8ff" d="M26.14,-911.55C27.08,-986.72 34.1,-1240.5 86,-1298.5 94.2,-1307.66 106.45,-1312.41 118.32,-1314.8"/>
<polygon fill="#63b8ff" stroke="#63b8ff" points="29.64,-911.85 26.05,-901.89 22.64,-911.92 29.64,-911.85"/>
</g>
<!-- Node46 -->
<g id="node15" class="node">
<title>Node46</title>
<g id="a_node15"><a xlink:href="class_i_popup_menu_control.html" target="_top" xlink:title="A base control for a pop&#45;up menu/drop&#45;down list that stays within the bounds of the IGraphics context...">
<polygon fill="white" stroke="#666666" points="206.5,-1289 104.5,-1289 104.5,-1270 206.5,-1270 206.5,-1289"/>
<text text-anchor="middle" x="155.5" y="-1277" font-family="Helvetica,sans-Serif" font-size="10.00">IPopupMenuControl</text>
</a>
</g>
</g>
<!-- Node1&#45;&gt;Node46 -->
<g id="edge14" class="edge">
<title>Node1&#45;&gt;Node46</title>
<path fill="none" stroke="#63b8ff" d="M26.48,-911.43C28.52,-981.96 38.73,-1209.43 86,-1261.5 90.96,-1266.96 97.36,-1270.85 104.24,-1273.61"/>
<polygon fill="#63b8ff" stroke="#63b8ff" points="29.98,-911.58 26.23,-901.68 22.99,-911.77 29.98,-911.58"/>
</g>
<!-- Node47 -->
<g id="node16" class="node">
<title>Node47</title>
<g id="a_node16"><a xlink:href="class_i_radial_marks.html" target="_top" xlink:title=" ">
<polygon fill="white" stroke="#bfbfbf" points="192.5,-1252 118.5,-1252 118.5,-1233 192.5,-1233 192.5,-1252"/>
<text text-anchor="middle" x="155.5" y="-1240" font-family="Helvetica,sans-Serif" font-size="10.00">IRadialMarks</text>
</a>
</g>
</g>
<!-- Node1&#45;&gt;Node47 -->
<g id="edge15" class="edge">
<title>Node1&#45;&gt;Node47</title>
<path fill="none" stroke="#63b8ff" d="M26.91,-911.88C30.18,-978.15 43.46,-1178.45 86,-1224.5 94.26,-1233.44 106.38,-1238.16 118.13,-1240.58"/>
<polygon fill="#63b8ff" stroke="#63b8ff" points="30.42,-911.84 26.46,-902.01 23.42,-912.16 30.42,-911.84"/>
</g>
<!-- Node48 -->
<g id="node17" class="node">
<title>Node48</title>
<g id="a_node17"><a xlink:href="class_i_s_v_g_control.html" target="_top" xlink:title="A basic control to draw an SVG image to the screen.">
<polygon fill="white" stroke="#666666" points="191,-1215 120,-1215 120,-1196 191,-1196 191,-1215"/>
<text text-anchor="middle" x="155.5" y="-1203" font-family="Helvetica,sans-Serif" font-size="10.00">ISVGControl</text>
</a>
</g>
</g>
<!-- Node1&#45;&gt;Node48 -->
<g id="edge16" class="edge">
<title>Node1&#45;&gt;Node48</title>
<path fill="none" stroke="#63b8ff" d="M27.41,-911.47C31.92,-972.34 47.99,-1147.23 86,-1187.5 94.69,-1196.71 107.48,-1201.42 119.66,-1203.77"/>
<polygon fill="#63b8ff" stroke="#63b8ff" points="30.92,-911.54 26.73,-901.82 23.94,-912.04 30.92,-911.54"/>
</g>
<!-- Node49 -->
<g id="node18" class="node">
<title>Node49</title>
<g id="a_node18"><a xlink:href="class_i_shader_control.html" target="_top" xlink:title="This control allows you to draw to the UI via a shader written using the Skia shading language,...">
<polygon fill="white" stroke="#666666" points="196,-1178 115,-1178 115,-1159 196,-1159 196,-1178"/>
<text text-anchor="middle" x="155.5" y="-1166" font-family="Helvetica,sans-Serif" font-size="10.00">IShaderControl</text>
</a>
</g>
</g>
<!-- Node1&#45;&gt;Node49 -->
<g id="edge17" class="edge">
<title>Node1&#45;&gt;Node49</title>
<path fill="none" stroke="#63b8ff" d="M28.09,-911.74C34.01,-967.5 52.63,-1116.11 86,-1150.5 93.62,-1158.35 104.22,-1162.92 114.81,-1165.54"/>
<polygon fill="#63b8ff" stroke="#63b8ff" points="31.6,-911.6 27.1,-902 24.63,-912.31 31.6,-911.6"/>
</g>
<!-- Node50 -->
<g id="node19" class="node">
<title>Node50</title>
<g id="a_node19"><a xlink:href="class_i_sk_lottie_control.html" target="_top" xlink:title="A control that hosts a Lottie animation, via Skia&#39;s Skottie module https://skia.org/user/modules/skot...">
<polygon fill="white" stroke="#666666" points="199,-1141 112,-1141 112,-1122 199,-1122 199,-1141"/>
<text text-anchor="middle" x="155.5" y="-1129" font-family="Helvetica,sans-Serif" font-size="10.00">ISkLottieControl</text>
</a>
</g>
</g>
<!-- Node1&#45;&gt;Node50 -->
<g id="edge18" class="edge">
<title>Node1&#45;&gt;Node50</title>
<path fill="none" stroke="#63b8ff" d="M25.17,-911.65C24.65,-955.69 29.97,-1057.79 86,-1113.5 92.98,-1120.44 102.28,-1124.79 111.78,-1127.51"/>
<polygon fill="#63b8ff" stroke="#63b8ff" points="28.66,-911.78 25.42,-901.69 21.67,-911.6 28.66,-911.78"/>
</g>
<!-- Node51 -->
<g id="node20" class="node">
<title>Node51</title>
<g id="a_node20"><a xlink:href="class_i_sk_paragraph_control.html" target="_top" xlink:title="A control that demonstrates how to draw rich text using SkParagraph.">
<polygon fill="white" stroke="#666666" points="209,-1104 102,-1104 102,-1085 209,-1085 209,-1104"/>
<text text-anchor="middle" x="155.5" y="-1092" font-family="Helvetica,sans-Serif" font-size="10.00">ISkParagraphControl</text>
</a>
</g>
</g>
<!-- Node1&#45;&gt;Node51 -->
<g id="edge19" class="edge">
<title>Node1&#45;&gt;Node51</title>
<path fill="none" stroke="#63b8ff" d="M26.52,-911.55C28.66,-950.03 38.84,-1031.87 86,-1076.5 90.55,-1080.81 96.01,-1084.12 101.83,-1086.65"/>
<polygon fill="#63b8ff" stroke="#63b8ff" points="30.03,-911.64 26.13,-901.79 23.04,-911.92 30.03,-911.64"/>
</g>
<!-- Node52 -->
<g id="node21" class="node">
<title>Node52</title>
<g id="a_node21"><a xlink:href="class_i_slider_control_base.html" target="_top" xlink:title="A base class for slider/fader controls, to handle mouse action and Sender.">
<polygon fill="#fff0f0" stroke="red" points="204.5,-1067 106.5,-1067 106.5,-1048 204.5,-1048 204.5,-1067"/>
<text text-anchor="middle" x="155.5" y="-1055" font-family="Helvetica,sans-Serif" font-size="10.00">ISliderControlBase</text>
</a>
</g>
</g>
<!-- Node1&#45;&gt;Node52 -->
<g id="edge20" class="edge">
<title>Node1&#45;&gt;Node52</title>
<path fill="none" stroke="#63b8ff" d="M28.46,-911.37C33.41,-943.69 47.59,-1005.64 86,-1039.5 91.81,-1044.62 98.91,-1048.31 106.31,-1050.97"/>
<polygon fill="#63b8ff" stroke="#63b8ff" points="31.97,-911.14 27.15,-901.71 25.03,-912.09 31.97,-911.14"/>
</g>
<!-- Node57 -->
<g id="node22" class="node">
<title>Node57</title>
<g id="a_node22"><a xlink:href="class_i_switch_control_base.html" target="_top" xlink:title="A base class for switch controls.">
<polygon fill="#fff0f0" stroke="red" points="207,-1030 104,-1030 104,-1011 207,-1011 207,-1030"/>
<text text-anchor="middle" x="155.5" y="-1018" font-family="Helvetica,sans-Serif" font-size="10.00">ISwitchControlBase</text>
</a>
</g>
</g>
<!-- Node1&#45;&gt;Node57 -->
<g id="edge21" class="edge">
<title>Node1&#45;&gt;Node57</title>
<path fill="none" stroke="#63b8ff" d="M31.54,-911.23C39.39,-936.58 56.23,-979.02 86,-1002.5 91.21,-1006.61 97.27,-1009.79 103.59,-1012.25"/>
<polygon fill="#63b8ff" stroke="#63b8ff" points="34.94,-910.4 28.8,-901.76 28.22,-912.34 34.94,-910.4"/>
</g>
<!-- Node65 -->
<g id="node23" class="node">
<title>Node65</title>
<g id="a_node23"><a xlink:href="class_i_text_control.html" target="_top" xlink:title="A basic control to display some text.">
<polygon fill="#fff0f0" stroke="red" points="190,-993 121,-993 121,-974 190,-974 190,-993"/>
<text text-anchor="middle" x="155.5" y="-981" font-family="Helvetica,sans-Serif" font-size="10.00">ITextControl</text>
</a>
</g>
</g>
<!-- Node1&#45;&gt;Node65 -->
<g id="edge22" class="edge">
<title>Node1&#45;&gt;Node65</title>
<path fill="none" stroke="#63b8ff" d="M36.73,-910.05C47.12,-927.19 64.47,-951.5 86,-965.5 96.31,-972.2 109.02,-976.42 120.67,-979.06"/>
<polygon fill="#63b8ff" stroke="#63b8ff" points="39.97,-908.67 31.93,-901.77 33.91,-912.18 39.97,-908.67"/>
</g>
<!-- Node75 -->
<g id="node24" class="node">
<title>Node75</title>
<g id="a_node24"><a xlink:href="class_i_text_entry_control.html" target="_top" xlink:title="A Text entry widget drawn by IGraphics.">
<polygon fill="white" stroke="#666666" points="201,-956 110,-956 110,-937 201,-937 201,-956"/>
<text text-anchor="middle" x="155.5" y="-944" font-family="Helvetica,sans-Serif" font-size="10.00">ITextEntryControl</text>
</a>
</g>
</g>
<!-- Node1&#45;&gt;Node75 -->
<g id="edge23" class="edge">
<title>Node1&#45;&gt;Node75</title>
<path fill="none" stroke="#63b8ff" d="M47.91,-906.68C58.89,-914.18 72.67,-922.69 86,-928.5 93.44,-931.74 101.6,-934.51 109.61,-936.83"/>
<polygon fill="#63b8ff" stroke="#63b8ff" points="50.12,-903.95 39.93,-901.05 46.09,-909.67 50.12,-903.95"/>
</g>
<!-- Node76 -->
<g id="node25" class="node">
<title>Node76</title>
<g id="a_node25"><a xlink:href="class_i_v_color_swatch_control.html" target="_top" xlink:title="A control to show a color swatch of up to 9 colors.">
<polygon fill="white" stroke="#666666" points="212,-919 99,-919 99,-900 212,-900 212,-919"/>
<text text-anchor="middle" x="155.5" y="-907" font-family="Helvetica,sans-Serif" font-size="10.00">IVColorSwatchControl</text>
</a>
</g>
</g>
<!-- Node1&#45;&gt;Node76 -->
<g id="edge24" class="edge">
<title>Node1&#45;&gt;Node76</title>
<path fill="none" stroke="#63b8ff" d="M61.77,-895.79C73.22,-897.48 86.17,-899.4 98.7,-901.25"/>
<polygon fill="#63b8ff" stroke="#63b8ff" points="62.37,-892.34 51.97,-894.34 61.35,-899.27 62.37,-892.34"/>
</g>
<!-- Node77 -->
<g id="node26" class="node">
<title>Node77</title>
<g id="a_node26"><a xlink:href="class_i_v_display_control.html" target="_top" xlink:title="A control to display a rolling graphics of historical values.">
<polygon fill="white" stroke="#666666" points="200,-882 111,-882 111,-863 200,-863 200,-882"/>
<text text-anchor="middle" x="155.5" y="-870" font-family="Helvetica,sans-Serif" font-size="10.00">IVDisplayControl</text>
</a>
</g>
</g>
<!-- Node1&#45;&gt;Node77 -->
<g id="edge25" class="edge">
<title>Node1&#45;&gt;Node77</title>
<path fill="none" stroke="#63b8ff" d="M61.49,-885.53C76.69,-883.4 94.59,-880.89 110.61,-878.65"/>
<polygon fill="#63b8ff" stroke="#63b8ff" points="61.39,-882.01 51.97,-886.86 62.36,-888.94 61.39,-882.01"/>
</g>
<!-- Node78 -->
<g id="node27" class="node">
<title>Node78</title>
<g id="a_node27"><a xlink:href="class_i_v_group_control.html" target="_top" xlink:title="A control to draw a rectangle around a named IControl group.">
<polygon fill="white" stroke="#666666" points="197,-845 114,-845 114,-826 197,-826 197,-845"/>
<text text-anchor="middle" x="155.5" y="-833" font-family="Helvetica,sans-Serif" font-size="10.00">IVGroupControl</text>
</a>
</g>
</g>
<!-- Node1&#45;&gt;Node78 -->
<g id="edge26" class="edge">
<title>Node1&#45;&gt;Node78</title>
<path fill="none" stroke="#63b8ff" d="M49.25,-874.54C60.06,-867.65 73.31,-859.95 86,-854.5 94.73,-850.75 104.41,-847.54 113.67,-844.88"/>
<polygon fill="#63b8ff" stroke="#63b8ff" points="47.43,-871.55 40.99,-879.96 51.28,-877.4 47.43,-871.55"/>
</g>
<!-- Node79 -->
<g id="node28" class="node">
<title>Node79</title>
<g id="a_node28"><a xlink:href="class_i_v_keyboard_control.html" target="_top" xlink:title="Vectorial keyboard control.">
<polygon fill="white" stroke="#666666" points="204.5,-808 106.5,-808 106.5,-789 204.5,-789 204.5,-808"/>
<text text-anchor="middle" x="155.5" y="-796" font-family="Helvetica,sans-Serif" font-size="10.00">IVKeyboardControl</text>
</a>
</g>
</g>
<!-- Node1&#45;&gt;Node79 -->
<g id="edge27" class="edge">
<title>Node1&#45;&gt;Node79</title>
<path fill="none" stroke="#63b8ff" d="M37.36,-870.8C47.92,-854.21 65.13,-831.07 86,-817.5 92.1,-813.53 99.03,-810.38 106.08,-807.88"/>
<polygon fill="#63b8ff" stroke="#63b8ff" points="34.4,-868.93 32.2,-879.29 40.38,-872.57 34.4,-868.93"/>
</g>
<!-- Node80 -->
<g id="node29" class="node">
<title>Node80</title>
<g id="a_node29"><a xlink:href="class_i_v_plot_control.html" target="_top" xlink:title="A vector plot to display functions and waveforms.">
<polygon fill="white" stroke="#666666" points="192.5,-771 118.5,-771 118.5,-752 192.5,-752 192.5,-771"/>
<text text-anchor="middle" x="155.5" y="-759" font-family="Helvetica,sans-Serif" font-size="10.00">IVPlotControl</text>
</a>
</g>
</g>
<!-- Node1&#45;&gt;Node80 -->
<g id="edge28" class="edge">
<title>Node1&#45;&gt;Node80</title>
<path fill="none" stroke="#63b8ff" d="M31.81,-869.83C39.88,-844.95 56.86,-803.63 86,-780.5 95.18,-773.21 106.98,-768.71 118.19,-765.94"/>
<polygon fill="#63b8ff" stroke="#63b8ff" points="28.55,-868.54 29,-879.12 35.25,-870.57 28.55,-868.54"/>
</g>
<!-- Node81 -->
<g id="node30" class="node">
<title>Node81</title>
<g id="a_node30"><a xlink:href="class_i_v_scope_control.html" target="_top" xlink:title="Vectorial multi&#45;channel capable oscilloscope control.">
<polygon fill="white" stroke="#666666" points="221.5,-733.5 89.5,-733.5 89.5,-703.5 221.5,-703.5 221.5,-733.5"/>
<text text-anchor="start" x="97.5" y="-721.5" font-family="Helvetica,sans-Serif" font-size="10.00">IVScopeControl&lt; MAXNC,</text>
<text text-anchor="middle" x="155.5" y="-710.5" font-family="Helvetica,sans-Serif" font-size="10.00"> MAXBUF &gt;</text>
</a>
</g>
</g>
<!-- Node1&#45;&gt;Node81 -->
<g id="edge29" class="edge">
<title>Node1&#45;&gt;Node81</title>
<path fill="none" stroke="#63b8ff" d="M29.09,-869.44C34.79,-837.87 49.88,-778.29 86,-743.5 89.83,-739.81 94.25,-736.66 98.95,-733.97"/>
<polygon fill="#63b8ff" stroke="#63b8ff" points="25.64,-868.83 27.48,-879.26 32.55,-869.96 25.64,-868.83"/>
</g>
<!-- Node82 -->
<g id="node31" class="node">
<title>Node82</title>
<g id="a_node31"><a xlink:href="class_i_v_track_control_base.html" target="_top" xlink:title="A base class for mult&#45;strip/track controls, such as multi&#45;sliders, meters Track refers to the channel...">
<polygon fill="#fff0f0" stroke="red" points="207.5,-685 103.5,-685 103.5,-666 207.5,-666 207.5,-685"/>
<text text-anchor="middle" x="155.5" y="-673" font-family="Helvetica,sans-Serif" font-size="10.00">IVTrackControlBase</text>
</a>
</g>
</g>
<!-- Node1&#45;&gt;Node82 -->
<g id="edge30" class="edge">
<title>Node1&#45;&gt;Node82</title>
<path fill="none" stroke="#63b8ff" d="M26.18,-869.24C27.71,-829.2 36.88,-742.34 86,-694.5 90.86,-689.76 96.8,-686.19 103.12,-683.49"/>
<polygon fill="#63b8ff" stroke="#63b8ff" points="22.68,-869.1 25.95,-879.18 29.68,-869.27 22.68,-869.1"/>
</g>
<!-- Node91 -->
<g id="node32" class="node">
<title>Node91</title>
<g id="a_node32"><a xlink:href="class_i_v_x_y_pad_control.html" target="_top" xlink:title="A vector XY Pad slider control.">
<polygon fill="white" stroke="#666666" points="199.5,-648 111.5,-648 111.5,-629 199.5,-629 199.5,-648"/>
<text text-anchor="middle" x="155.5" y="-636" font-family="Helvetica,sans-Serif" font-size="10.00">IVXYPadControl</text>
</a>
</g>
</g>
<!-- Node1&#45;&gt;Node91 -->
<g id="edge31" class="edge">
<title>Node1&#45;&gt;Node91</title>
<path fill="none" stroke="#63b8ff" d="M28.71,-869.48C35.74,-818.06 56.12,-687.93 86,-657.5 92.83,-650.54 101.97,-646.07 111.34,-643.21"/>
<polygon fill="#63b8ff" stroke="#63b8ff" points="25.26,-868.87 27.41,-879.24 32.2,-869.79 25.26,-868.87"/>
</g>
<!-- Node92 -->
<g id="node33" class="node">
<title>Node92</title>
<g id="a_node33"><a xlink:href="class_i_web_view_control.html" target="_top" xlink:title="A control that allows the embedding of HTML UI inside an IGraphics context using a platform&#45;native we...">
<polygon fill="white" stroke="#666666" points="201.5,-611 109.5,-611 109.5,-592 201.5,-592 201.5,-611"/>
<text text-anchor="middle" x="155.5" y="-599" font-family="Helvetica,sans-Serif" font-size="10.00">IWebViewControl</text>
</a>
</g>
</g>
<!-- Node1&#45;&gt;Node92 -->
<g id="edge32" class="edge">
<title>Node1&#45;&gt;Node92</title>
<path fill="none" stroke="#63b8ff" d="M27.89,-869.61C33.45,-812.7 51.57,-656.76 86,-620.5 92.2,-613.97 100.44,-609.61 109.04,-606.73"/>
<polygon fill="#63b8ff" stroke="#63b8ff" points="24.44,-868.94 26.98,-879.22 31.41,-869.59 24.44,-868.94"/>
</g>
<!-- Node93 -->
<g id="node34" class="node">
<title>Node93</title>
<g id="a_node34"><a xlink:href="class_test_animation_control.html" target="_top" xlink:title="Control to test animation.">
<polygon fill="white" stroke="#666666" points="210.5,-574 100.5,-574 100.5,-555 210.5,-555 210.5,-574"/>
<text text-anchor="middle" x="155.5" y="-562" font-family="Helvetica,sans-Serif" font-size="10.00">TestAnimationControl</text>
</a>
</g>
</g>
<!-- Node1&#45;&gt;Node93 -->
<g id="edge33" class="edge">
<title>Node1&#45;&gt;Node93</title>
<path fill="none" stroke="#63b8ff" d="M27.3,-869.27C31.56,-806.83 47.09,-625.55 86,-583.5 90.02,-579.15 94.95,-575.77 100.29,-573.14"/>
<polygon fill="#63b8ff" stroke="#63b8ff" points="23.81,-868.98 26.66,-879.19 30.8,-869.43 23.81,-868.98"/>
</g>
<!-- Node94 -->
<g id="node35" class="node">
<title>Node94</title>
<g id="a_node35"><a xlink:href="class_test_bezier_control.html" target="_top" xlink:title="Control to test drawing bezier curves.">
<polygon fill="white" stroke="#666666" points="202.5,-537 108.5,-537 108.5,-518 202.5,-518 202.5,-537"/>
<text text-anchor="middle" x="155.5" y="-525" font-family="Helvetica,sans-Serif" font-size="10.00">TestBezierControl</text>
</a>
</g>
</g>
<!-- Node1&#45;&gt;Node94 -->
<g id="edge34" class="edge">
<title>Node1&#45;&gt;Node94</title>
<path fill="none" stroke="#63b8ff" d="M26.81,-869.38C29.81,-802.12 42.49,-594.5 86,-546.5 91.89,-540.01 99.78,-535.66 108.1,-532.76"/>
<polygon fill="#63b8ff" stroke="#63b8ff" points="23.33,-868.91 26.41,-879.05 30.32,-869.2 23.33,-868.91"/>
</g>
<!-- Node95 -->
<g id="node36" class="node">
<title>Node95</title>
<g id="a_node36"><a xlink:href="class_test_color_control.html" target="_top" xlink:title="Control to colors.">
<polygon fill="white" stroke="#666666" points="200,-500 111,-500 111,-481 200,-481 200,-500"/>
<text text-anchor="middle" x="155.5" y="-488" font-family="Helvetica,sans-Serif" font-size="10.00">TestColorControl</text>
</a>
</g>
</g>
<!-- Node1&#45;&gt;Node95 -->
<g id="edge35" class="edge">
<title>Node1&#45;&gt;Node95</title>
<path fill="none" stroke="#63b8ff" d="M26.41,-869.48C28.24,-797.67 37.86,-563.48 86,-509.5 92.49,-502.22 101.5,-497.63 110.85,-494.75"/>
<polygon fill="#63b8ff" stroke="#63b8ff" points="22.92,-869 26.19,-879.08 29.92,-869.16 22.92,-869"/>
</g>
<!-- Node96 -->
<g id="node37" class="node">
<title>Node96</title>
<g id="a_node37"><a xlink:href="class_test_cursor_control.html" target="_top" xlink:title="Control to test changing the platform cursor.">
<polygon fill="white" stroke="#666666" points="203,-463 108,-463 108,-444 203,-444 203,-463"/>
<text text-anchor="middle" x="155.5" y="-451" font-family="Helvetica,sans-Serif" font-size="10.00">TestCursorControl</text>
</a>
</g>
</g>
<!-- Node1&#45;&gt;Node96 -->
<g id="edge36" class="edge">
<title>Node1&#45;&gt;Node96</title>
<path fill="none" stroke="#63b8ff" d="M26.09,-869.46C26.83,-793.18 33.25,-532.48 86,-472.5 91.71,-466.01 99.41,-461.65 107.6,-458.74"/>
<polygon fill="#63b8ff" stroke="#63b8ff" points="22.59,-869.23 26.02,-879.26 29.59,-869.28 22.59,-869.23"/>
</g>
<!-- Node97 -->
<g id="node38" class="node">
<title>Node97</title>
<g id="a_node38"><a xlink:href="class_test_custom_shader_control.html" target="_top" xlink:title="Control to test IGraphicsNanoVG with Metal Shaders.">
<polygon fill="white" stroke="#666666" points="221,-426 90,-426 90,-407 221,-407 221,-426"/>
<text text-anchor="middle" x="155.5" y="-414" font-family="Helvetica,sans-Serif" font-size="10.00">TestCustomShaderControl</text>
</a>
</g>
</g>
<!-- Node1&#45;&gt;Node97 -->
<g id="edge37" class="edge">
<title>Node1&#45;&gt;Node97</title>
<path fill="none" stroke="#63b8ff" d="M25.81,-869.68C25.52,-789.46 28.56,-501.56 86,-435.5 89.16,-431.87 92.94,-428.9 97.09,-426.48"/>
<polygon fill="#63b8ff" stroke="#63b8ff" points="22.31,-869.22 25.87,-879.19 29.31,-869.17 22.31,-869.22"/>
</g>
<!-- Node98 -->
<g id="node39" class="node">
<title>Node98</title>
<g id="a_node39"><a xlink:href="class_test_draw_context_control.html" target="_top" xlink:title="Control to test obtaining a drawing API (NanoVG, Skia, Canvas) context and using that API within an I...">
<polygon fill="white" stroke="#666666" points="216.5,-389 94.5,-389 94.5,-370 216.5,-370 216.5,-389"/>
<text text-anchor="middle" x="155.5" y="-377" font-family="Helvetica,sans-Serif" font-size="10.00">TestDrawContextControl</text>
</a>
</g>
</g>
<!-- Node1&#45;&gt;Node98 -->
<g id="edge38" class="edge">
<title>Node1&#45;&gt;Node98</title>
<path fill="none" stroke="#63b8ff" d="M25.58,-869.37C24.32,-784.64 23.99,-470.53 86,-398.5 89.14,-394.85 92.91,-391.88 97.05,-389.45"/>
<polygon fill="#63b8ff" stroke="#63b8ff" points="22.08,-869.29 25.75,-879.23 29.07,-869.17 22.08,-869.29"/>
</g>
<!-- Node99 -->
<g id="node40" class="node">
<title>Node99</title>
<g id="a_node40"><a xlink:href="class_test_drop_shadow_control.html" target="_top" xlink:title="Control to test layer drop shadows.">
<polygon fill="white" stroke="#666666" points="216.5,-352 94.5,-352 94.5,-333 216.5,-333 216.5,-352"/>
<text text-anchor="middle" x="155.5" y="-340" font-family="Helvetica,sans-Serif" font-size="10.00">TestDropShadowControl</text>
</a>
</g>
</g>
<!-- Node1&#45;&gt;Node99 -->
<g id="edge39" class="edge">
<title>Node1&#45;&gt;Node99</title>
<path fill="none" stroke="#63b8ff" d="M27.01,-869.57C31.67,-776.24 52.4,-400.86 86,-361.5 89.12,-357.84 92.89,-354.85 97.02,-352.42"/>
<polygon fill="#63b8ff" stroke="#63b8ff" points="23.52,-869.13 26.53,-879.29 30.51,-869.48 23.52,-869.13"/>
</g>
<!-- Node100 -->
<g id="node41" class="node">
<title>Node100</title>
<g id="a_node41"><a xlink:href="class_test_flex_box_control.html" target="_top" xlink:title="Control to test IGraphicsFlexBox.">
<polygon fill="white" stroke="#666666" points="206,-315 105,-315 105,-296 206,-296 206,-315"/>
<text text-anchor="middle" x="155.5" y="-303" font-family="Helvetica,sans-Serif" font-size="10.00">TestFlexBoxControl</text>
</a>
</g>
</g>
<!-- Node1&#45;&gt;Node100 -->
<g id="edge40" class="edge">
<title>Node1&#45;&gt;Node100</title>
<path fill="none" stroke="#63b8ff" d="M26.85,-869.35C30.97,-771.64 50.08,-366.89 86,-324.5 90.95,-318.66 97.51,-314.54 104.63,-311.64"/>
<polygon fill="#63b8ff" stroke="#63b8ff" points="23.36,-868.94 26.45,-879.08 30.36,-869.23 23.36,-868.94"/>
</g>
<!-- Node101 -->
<g id="node42" class="node">
<title>Node101</title>
<g id="a_node42"><a xlink:href="class_test_font_control.html" target="_top" xlink:title="Control to test drawing fonts.">
<polygon fill="white" stroke="#666666" points="198.5,-278 112.5,-278 112.5,-259 198.5,-259 198.5,-278"/>
<text text-anchor="middle" x="155.5" y="-266" font-family="Helvetica,sans-Serif" font-size="10.00">TestFontControl</text>
</a>
</g>
</g>
<!-- Node1&#45;&gt;Node101 -->
<g id="edge41" class="edge">
<title>Node1&#45;&gt;Node101</title>
<path fill="none" stroke="#63b8ff" d="M26.7,-869.59C30.25,-768.46 47.71,-332.99 86,-287.5 92.68,-279.57 102.35,-274.8 112.33,-271.97"/>
<polygon fill="#63b8ff" stroke="#63b8ff" points="23.21,-869.28 26.36,-879.39 30.2,-869.52 23.21,-869.28"/>
</g>
<!-- Node102 -->
<g id="node43" class="node">
<title>Node102</title>
<g id="a_node43"><a xlink:href="class_test_image_control.html" target="_top" xlink:title="Control to test drawing bitmaps.">
<polygon fill="white" stroke="#666666" points="202.5,-241 108.5,-241 108.5,-222 202.5,-222 202.5,-241"/>
<text text-anchor="middle" x="155.5" y="-229" font-family="Helvetica,sans-Serif" font-size="10.00">TestImageControl</text>
</a>
</g>
</g>
<!-- Node1&#45;&gt;Node102 -->
<g id="edge42" class="edge">
<title>Node1&#45;&gt;Node102</title>
<path fill="none" stroke="#63b8ff" d="M26.58,-869.31C29.64,-763.9 45.39,-299.02 86,-250.5 91.7,-243.69 99.62,-239.2 108.05,-236.28"/>
<polygon fill="#63b8ff" stroke="#63b8ff" points="23.08,-869.2 26.3,-879.29 30.08,-869.4 23.08,-869.2"/>
</g>
<!-- Node103 -->
<g id="node44" class="node">
<title>Node103</title>
<g id="a_node44"><a xlink:href="class_test_keyboard_control.html" target="_top" xlink:title="Control to test keyboard input.">
<polygon fill="white" stroke="#666666" points="209,-204 102,-204 102,-185 209,-185 209,-204"/>
<text text-anchor="middle" x="155.5" y="-192" font-family="Helvetica,sans-Serif" font-size="10.00">TestKeyboardControl</text>
</a>
</g>
</g>
<!-- Node1&#45;&gt;Node103 -->
<g id="edge43" class="edge">
<title>Node1&#45;&gt;Node103</title>
<path fill="none" stroke="#63b8ff" d="M26.47,-869.12C29.05,-759.64 43.06,-265.07 86,-213.5 90.26,-208.38 95.78,-204.57 101.82,-201.75"/>
<polygon fill="#63b8ff" stroke="#63b8ff" points="22.97,-868.91 26.24,-878.99 29.97,-869.07 22.97,-868.91"/>
</g>
<!-- Node104 -->
<g id="node45" class="node">
<title>Node104</title>
<g id="a_node45"><a xlink:href="class_test_m_p_s_control.html" target="_top" xlink:title="Control to test IGraphicsNanoVG with Metal Performance Shaders.">
<polygon fill="white" stroke="#666666" points="200,-167 111,-167 111,-148 200,-148 200,-167"/>
<text text-anchor="middle" x="155.5" y="-155" font-family="Helvetica,sans-Serif" font-size="10.00">TestMPSControl</text>
</a>
</g>
</g>
<!-- Node1&#45;&gt;Node104 -->
<g id="edge44" class="edge">
<title>Node1&#45;&gt;Node104</title>
<path fill="none" stroke="#63b8ff" d="M26.36,-869.38C28.46,-756.89 40.66,-231.2 86,-176.5 92.3,-168.9 101.35,-164.19 110.82,-161.31"/>
<polygon fill="#63b8ff" stroke="#63b8ff" points="22.86,-869.17 26.18,-879.23 29.86,-869.29 22.86,-869.17"/>
</g>
<!-- Node105 -->
<g id="node46" class="node">
<title>Node105</title>
<g id="a_node46"><a xlink:href="class_test_m_t_control.html" target="_top" xlink:title="Control to test multi touch.">
<polygon fill="white" stroke="#666666" points="196,-130 115,-130 115,-111 196,-111 196,-130"/>
<text text-anchor="middle" x="155.5" y="-118" font-family="Helvetica,sans-Serif" font-size="10.00">TestMTControl</text>
</a>
</g>
</g>
<!-- Node1&#45;&gt;Node105 -->
<g id="edge45" class="edge">
<title>Node1&#45;&gt;Node105</title>
<path fill="none" stroke="#63b8ff" d="M26.27,-869.02C27.94,-752.27 38.35,-197.23 86,-139.5 93.15,-130.84 103.87,-125.93 114.72,-123.21"/>
<polygon fill="#63b8ff" stroke="#63b8ff" points="22.77,-868.95 26.14,-878.99 29.77,-869.04 22.77,-868.95"/>
</g>
<!-- Node106 -->
<g id="node47" class="node">
<title>Node106</title>
<g id="a_node47"><a xlink:href="class_test_s_v_g_control.html" target="_top" xlink:title="Control to test drawing SVGs.">
<polygon fill="white" stroke="#666666" points="199.5,-93 111.5,-93 111.5,-74 199.5,-74 199.5,-93"/>
<text text-anchor="middle" x="155.5" y="-81" font-family="Helvetica,sans-Serif" font-size="10.00">TestSVGControl</text>
</a>
</g>
</g>
<!-- Node1&#45;&gt;Node106 -->
<g id="edge46" class="edge">
<title>Node1&#45;&gt;Node106</title>
<path fill="none" stroke="#63b8ff" d="M26.19,-869.09C27.42,-749.11 35.98,-163.34 86,-102.5 92.35,-94.78 101.54,-90.04 111.13,-87.17"/>
<polygon fill="#63b8ff" stroke="#63b8ff" points="22.69,-869.02 26.09,-879.06 29.69,-869.09 22.69,-869.02"/>
</g>
<!-- Node107 -->
<g id="node48" class="node">
<title>Node107</title>
<g id="a_node48"><a xlink:href="class_test_shadow_gradient_control.html" target="_top" xlink:title="Control to test drawing shadows with gradients.">
<polygon fill="white" stroke="#666666" points="225,-56 86,-56 86,-37 225,-37 225,-56"/>
<text text-anchor="middle" x="155.5" y="-44" font-family="Helvetica,sans-Serif" font-size="10.00">TestShadowGradientControl</text>
</a>
</g>
</g>
<!-- Node1&#45;&gt;Node107 -->
<g id="edge47" class="edge">
<title>Node1&#45;&gt;Node107</title>
<path fill="none" stroke="#63b8ff" d="M26.11,-869.25C26.92,-746.31 33.59,-129.47 86,-65.5 88.97,-61.87 92.57,-58.9 96.55,-56.48"/>
<polygon fill="#63b8ff" stroke="#63b8ff" points="22.61,-869.14 26.05,-879.16 29.61,-869.18 22.61,-869.14"/>
</g>
<!-- Node108 -->
<g id="node49" class="node">
<title>Node108</title>
<g id="a_node49"><a xlink:href="class_test_size_control.html" target="_top" xlink:title="Control to display the size of a region.">
<polygon fill="white" stroke="#666666" points="198.5,-19 112.5,-19 112.5,0 198.5,0 198.5,-19"/>
<text text-anchor="middle" x="155.5" y="-7" font-family="Helvetica,sans-Serif" font-size="10.00">TestSizeControl</text>
</a>
</g>
</g>
<!-- Node1&#45;&gt;Node108 -->
<g id="edge48" class="edge">
<title>Node1&#45;&gt;Node108</title>
<path fill="none" stroke="#63b8ff" d="M26.04,-869.09C26.45,-742.52 31.24,-95.55 86,-28.5 92.56,-20.47 102.19,-15.67 112.17,-12.83"/>
<polygon fill="#63b8ff" stroke="#63b8ff" points="22.54,-869 26.01,-879.01 29.54,-869.02 22.54,-869"/>
</g>
</g>
</svg>
