<?xml version="1.0" encoding="UTF-8" standalone="no"?>
<!DOCTYPE svg PUBLIC "-//W3C//DTD SVG 1.1//EN"
 "http://www.w3.org/Graphics/SVG/1.1/DTD/svg11.dtd">
<!-- Generated by graphviz version 7.0.5 (20221223.1930)
 -->
<!-- Title: APIBitmap Pages: 1 -->
<svg width="270pt" height="82pt"
 viewBox="0.00 0.00 270.00 82.00" xmlns="http://www.w3.org/2000/svg" xmlns:xlink="http://www.w3.org/1999/xlink">
<g id="graph0" class="graph" transform="scale(1 1) rotate(0) translate(4 78)">
<title>APIBitmap</title>
<!-- Node1 -->
<g id="node1" class="node">
<title>Node1</title>
<g id="a_node1"><a xlink:title="A base class interface for a bitmap abstraction around the different drawing back end bitmap represen...">
<polygon fill="#999999" stroke="#666666" points="167.5,-74 103.5,-74 103.5,-55 167.5,-55 167.5,-74"/>
<text text-anchor="middle" x="135.5" y="-62" font-family="Helvetica,sans-Serif" font-size="10.00">APIBitmap</text>
</a>
</g>
</g>
<!-- Node2 -->
<g id="node2" class="node">
<title>Node2</title>
<g id="a_node2"><a xlink:href="class_i_graphics_nano_v_g_1_1_bitmap.html" target="_top" xlink:title=" ">
<polygon fill="white" stroke="#bfbfbf" points="131,-19 0,-19 0,0 131,0 131,-19"/>
<text text-anchor="middle" x="65.5" y="-7" font-family="Helvetica,sans-Serif" font-size="10.00">IGraphicsNanoVG::Bitmap</text>
</a>
</g>
</g>
<!-- Node1&#45;&gt;Node2 -->
<g id="edge1" class="edge">
<title>Node1&#45;&gt;Node2</title>
<path fill="none" stroke="#63b8ff" d="M114.55,-47.64C102.33,-38.39 87.36,-27.05 77.2,-19.36"/>
<polygon fill="#63b8ff" stroke="#63b8ff" points="112.33,-50.35 122.42,-53.6 116.56,-44.77 112.33,-50.35"/>
</g>
<!-- Node3 -->
<g id="node3" class="node">
<title>Node3</title>
<g id="a_node3"><a xlink:href="class_i_graphics_skia_1_1_bitmap.html" target="_top" xlink:title=" ">
<polygon fill="white" stroke="#bfbfbf" points="262,-19 149,-19 149,0 262,0 262,-19"/>
<text text-anchor="middle" x="205.5" y="-7" font-family="Helvetica,sans-Serif" font-size="10.00">IGraphicsSkia::Bitmap</text>
</a>
</g>
</g>
<!-- Node1&#45;&gt;Node3 -->
<g id="edge2" class="edge">
<title>Node1&#45;&gt;Node3</title>
<path fill="none" stroke="#63b8ff" d="M156.45,-47.64C168.67,-38.39 183.64,-27.05 193.8,-19.36"/>
<polygon fill="#63b8ff" stroke="#63b8ff" points="154.44,-44.77 148.58,-53.6 158.67,-50.35 154.44,-44.77"/>
</g>
</g>
</svg>
