<?xml version="1.0" encoding="UTF-8" standalone="no"?>
<!DOCTYPE svg PUBLIC "-//W3C//DTD SVG 1.1//EN"
 "http://www.w3.org/Graphics/SVG/1.1/DTD/svg11.dtd">
<!-- Generated by graphviz version 7.0.5 (20221223.1930)
 -->
<!-- Title: IBSwitchControl Pages: 1 -->
<svg width="202pt" height="137pt"
 viewBox="0.00 0.00 202.00 137.00" xmlns="http://www.w3.org/2000/svg" xmlns:xlink="http://www.w3.org/1999/xlink">
<g id="graph0" class="graph" transform="scale(1 1) rotate(0) translate(4 133)">
<title>IBSwitchControl</title>
<!-- Node1 -->
<g id="node1" class="node">
<title>Node1</title>
<g id="a_node1"><a xlink:title="A bitmap switch control.">
<polygon fill="#999999" stroke="#666666" points="148,-19 61,-19 61,0 148,0 148,-19"/>
<text text-anchor="middle" x="104.5" y="-7" font-family="Helvetica,sans-Serif" font-size="10.00">IBSwitchControl</text>
</a>
</g>
</g>
<!-- Node2 -->
<g id="node2" class="node">
<title>Node2</title>
<g id="a_node2"><a xlink:href="class_i_switch_control_base.html" target="_top" xlink:title="A base class for switch controls.">
<polygon fill="white" stroke="#666666" points="103,-74 0,-74 0,-55 103,-55 103,-74"/>
<text text-anchor="middle" x="51.5" y="-62" font-family="Helvetica,sans-Serif" font-size="10.00">ISwitchControlBase</text>
</a>
</g>
</g>
<!-- Node2&#45;&gt;Node1 -->
<g id="edge1" class="edge">
<title>Node2&#45;&gt;Node1</title>
<path fill="none" stroke="#63b8ff" d="M68.22,-46.78C77.28,-37.72 88.1,-26.9 95.56,-19.44"/>
<polygon fill="#63b8ff" stroke="#63b8ff" points="65.92,-44.13 61.32,-53.68 70.87,-49.08 65.92,-44.13"/>
</g>
<!-- Node3 -->
<g id="node3" class="node">
<title>Node3</title>
<g id="a_node3"><a xlink:href="class_i_control.html" target="_top" xlink:title="The lowest level base class of an IGraphics control.">
<polygon fill="white" stroke="#666666" points="76.5,-129 26.5,-129 26.5,-110 76.5,-110 76.5,-129"/>
<text text-anchor="middle" x="51.5" y="-117" font-family="Helvetica,sans-Serif" font-size="10.00">IControl</text>
</a>
</g>
</g>
<!-- Node3&#45;&gt;Node2 -->
<g id="edge2" class="edge">
<title>Node3&#45;&gt;Node2</title>
<path fill="none" stroke="#63b8ff" d="M51.5,-98.35C51.5,-90.1 51.5,-80.97 51.5,-74.44"/>
<polygon fill="#63b8ff" stroke="#63b8ff" points="48,-98.23 51.5,-108.23 55,-98.23 48,-98.23"/>
</g>
<!-- Node4 -->
<g id="node4" class="node">
<title>Node4</title>
<g id="a_node4"><a xlink:href="class_i_bitmap_base.html" target="_top" xlink:title="A base interface to be combined with IControl for bitmap&#45;based controls &quot;IBControls&quot;,...">
<polygon fill="white" stroke="#666666" points="194,-74 121,-74 121,-55 194,-55 194,-74"/>
<text text-anchor="middle" x="157.5" y="-62" font-family="Helvetica,sans-Serif" font-size="10.00">IBitmapBase</text>
</a>
</g>
</g>
<!-- Node4&#45;&gt;Node1 -->
<g id="edge3" class="edge">
<title>Node4&#45;&gt;Node1</title>
<path fill="none" stroke="#63b8ff" d="M140.78,-46.78C131.72,-37.72 120.9,-26.9 113.44,-19.44"/>
<polygon fill="#63b8ff" stroke="#63b8ff" points="138.13,-49.08 147.68,-53.68 143.08,-44.13 138.13,-49.08"/>
</g>
</g>
</svg>
