<?xml version="1.0" encoding="UTF-8" standalone="no"?>
<!DOCTYPE svg PUBLIC "-//W3C//DTD SVG 1.1//EN"
 "http://www.w3.org/Graphics/SVG/1.1/DTD/svg11.dtd">
<!-- Generated by graphviz version 7.0.5 (20221223.1930)
 -->
<!-- Title: IVDiskPresetManagerControl Pages: 1 -->
<svg width="216pt" height="192pt"
 viewBox="0.00 0.00 215.50 192.00" xmlns="http://www.w3.org/2000/svg" xmlns:xlink="http://www.w3.org/1999/xlink">
<g id="graph0" class="graph" transform="scale(1 1) rotate(0) translate(4 188)">
<title>IVDiskPresetManagerControl</title>
<!-- Node1 -->
<g id="node1" class="node">
<title>Node1</title>
<g id="a_node1"><a xlink:title="A &quot;meta control&quot; for a &quot;preset manager&quot; for disk&#45;based preset files It adds several child buttons.">
<polygon fill="#999999" stroke="#666666" points="186.5,-19 43.5,-19 43.5,0 186.5,0 186.5,-19"/>
<text text-anchor="middle" x="115" y="-7" font-family="Helvetica,sans-Serif" font-size="10.00">IVDiskPresetManagerControl</text>
</a>
</g>
</g>
<!-- Node2 -->
<g id="node2" class="node">
<title>Node2</title>
<g id="a_node2"><a xlink:href="class_i_dir_browse_control_base.html" target="_top" xlink:title="An abstract IControl base class that you can inherit from in order to make a control that pops up a m...">
<polygon fill="white" stroke="#666666" points="118,-74 0,-74 0,-55 118,-55 118,-74"/>
<text text-anchor="middle" x="59" y="-62" font-family="Helvetica,sans-Serif" font-size="10.00">IDirBrowseControlBase</text>
</a>
</g>
</g>
<!-- Node2&#45;&gt;Node1 -->
<g id="edge1" class="edge">
<title>Node2&#45;&gt;Node1</title>
<path fill="none" stroke="#63b8ff" d="M76.63,-46.81C86.24,-37.72 97.75,-26.82 105.64,-19.36"/>
<polygon fill="#63b8ff" stroke="#63b8ff" points="74.46,-44.05 69.6,-53.47 79.27,-49.14 74.46,-44.05"/>
</g>
<!-- Node3 -->
<g id="node3" class="node">
<title>Node3</title>
<g id="a_node3"><a xlink:href="class_i_container_base.html" target="_top" xlink:title="IContainerBase allows a control to nest sub controls and it clips the drawing of those subcontrols In...">
<polygon fill="white" stroke="#666666" points="100.5,-129 17.5,-129 17.5,-110 100.5,-110 100.5,-129"/>
<text text-anchor="middle" x="59" y="-117" font-family="Helvetica,sans-Serif" font-size="10.00">IContainerBase</text>
</a>
</g>
</g>
<!-- Node3&#45;&gt;Node2 -->
<g id="edge2" class="edge">
<title>Node3&#45;&gt;Node2</title>
<path fill="none" stroke="#63b8ff" d="M59,-98.35C59,-90.1 59,-80.97 59,-74.44"/>
<polygon fill="#63b8ff" stroke="#63b8ff" points="55.5,-98.23 59,-108.23 62.5,-98.23 55.5,-98.23"/>
</g>
<!-- Node4 -->
<g id="node4" class="node">
<title>Node4</title>
<g id="a_node4"><a xlink:href="class_i_control.html" target="_top" xlink:title="The lowest level base class of an IGraphics control.">
<polygon fill="white" stroke="#666666" points="84,-184 34,-184 34,-165 84,-165 84,-184"/>
<text text-anchor="middle" x="59" y="-172" font-family="Helvetica,sans-Serif" font-size="10.00">IControl</text>
</a>
</g>
</g>
<!-- Node4&#45;&gt;Node3 -->
<g id="edge3" class="edge">
<title>Node4&#45;&gt;Node3</title>
<path fill="none" stroke="#63b8ff" d="M59,-153.35C59,-145.1 59,-135.97 59,-129.44"/>
<polygon fill="#63b8ff" stroke="#63b8ff" points="55.5,-153.23 59,-163.23 62.5,-153.23 55.5,-153.23"/>
</g>
<!-- Node5 -->
<g id="node5" class="node">
<title>Node5</title>
<g id="a_node5"><a xlink:href="class_i_vector_base.html" target="_top" xlink:title="A base interface to be combined with IControl for vectorial controls &quot;IVControls&quot;,...">
<polygon fill="white" stroke="#666666" points="207.5,-74 136.5,-74 136.5,-55 207.5,-55 207.5,-74"/>
<text text-anchor="middle" x="172" y="-62" font-family="Helvetica,sans-Serif" font-size="10.00">IVectorBase</text>
</a>
</g>
</g>
<!-- Node5&#45;&gt;Node1 -->
<g id="edge4" class="edge">
<title>Node5&#45;&gt;Node1</title>
<path fill="none" stroke="#63b8ff" d="M154.05,-46.81C144.27,-37.72 132.56,-26.82 124.53,-19.36"/>
<polygon fill="#63b8ff" stroke="#63b8ff" points="151.52,-49.23 161.22,-53.48 156.28,-44.11 151.52,-49.23"/>
</g>
</g>
</svg>
