<?xml version="1.0" encoding="UTF-8" standalone="no"?>
<!DOCTYPE svg PUBLIC "-//W3C//DTD SVG 1.1//EN"
 "http://www.w3.org/Graphics/SVG/1.1/DTD/svg11.dtd">
<!-- Generated by graphviz version 2.36.0 (20140111.2315)
 -->
<!-- Title: IPlugReaperVST2 Pages: 1 -->
<svg width="260pt" height="264pt"
 viewBox="0.00 0.00 260.00 264.00" xmlns="http://www.w3.org/2000/svg" xmlns:xlink="http://www.w3.org/1999/xlink">
<g id="graph0" class="graph" transform="scale(1 1) rotate(0) translate(4 260)">
<title>IPlugReaperVST2</title>
<polygon fill="white" stroke="none" points="-4,4 -4,-260 256,-260 256,4 -4,4"/>
<!-- Node1 -->
<g id="node1" class="node"><title>Node1</title>
<polygon fill="#bfbfbf" stroke="black" points="86.5,-0.5 86.5,-19.5 181.5,-19.5 181.5,-0.5 86.5,-0.5"/>
<text text-anchor="middle" x="134" y="-7.5" font-family="Helvetica,sans-Serif" font-size="10.00">IPlugReaperVST2</text>
</g>
<!-- Node2 -->
<g id="node2" class="node"><title>Node2</title>
<g id="a_node2"><a xlink:href="class_i_plug_v_s_t2.html" target="_top" xlink:title="VST2.4 API base class for an IPlug plug&#45;in. ">
<polygon fill="white" stroke="black" points="102,-56.5 102,-75.5 166,-75.5 166,-56.5 102,-56.5"/>
<text text-anchor="middle" x="134" y="-63.5" font-family="Helvetica,sans-Serif" font-size="10.00">IPlugVST2</text>
</a>
</g>
</g>
<!-- Node2&#45;&gt;Node1 -->
<g id="edge1" class="edge"><title>Node2&#45;&gt;Node1</title>
<path fill="none" stroke="midnightblue" d="M134,-45.8045C134,-36.9102 134,-26.7798 134,-19.7511"/>
<polygon fill="midnightblue" stroke="midnightblue" points="130.5,-46.083 134,-56.083 137.5,-46.083 130.5,-46.083"/>
</g>
<!-- Node3 -->
<g id="node3" class="node"><title>Node3</title>
<g id="a_node3"><a xlink:href="class_i_plug_a_p_i_base.html" target="_top" xlink:title="The base class of an IPlug plug&#45;in, which interacts with the different plug&#45;in APIs. ">
<polygon fill="white" stroke="black" points="37,-118.5 37,-137.5 115,-137.5 115,-118.5 37,-118.5"/>
<text text-anchor="middle" x="76" y="-125.5" font-family="Helvetica,sans-Serif" font-size="10.00">IPlugAPIBase</text>
</a>
</g>
</g>
<!-- Node3&#45;&gt;Node2 -->
<g id="edge2" class="edge"><title>Node3&#45;&gt;Node2</title>
<path fill="none" stroke="midnightblue" d="M91.2803,-111.193C102.3,-99.7935 116.753,-84.8414 125.705,-75.5806"/>
<polygon fill="midnightblue" stroke="midnightblue" points="88.7438,-108.781 84.31,-118.403 93.7767,-113.646 88.7438,-108.781"/>
</g>
<!-- Node4 -->
<g id="node4" class="node"><title>Node4</title>
<g id="a_node4"><a xlink:href="class_i_plugin_base.html" target="_top" xlink:title="Base class that contains plug&#45;in info and state manipulation methods. ">
<polygon fill="white" stroke="black" points="41.5,-180.5 41.5,-199.5 110.5,-199.5 110.5,-180.5 41.5,-180.5"/>
<text text-anchor="middle" x="76" y="-187.5" font-family="Helvetica,sans-Serif" font-size="10.00">IPluginBase</text>
</a>
</g>
</g>
<!-- Node4&#45;&gt;Node3 -->
<g id="edge3" class="edge"><title>Node4&#45;&gt;Node3</title>
<path fill="none" stroke="midnightblue" d="M76,-170.16C76,-159.248 76,-146.04 76,-137.581"/>
<polygon fill="midnightblue" stroke="midnightblue" points="72.5001,-170.403 76,-180.403 79.5001,-170.403 72.5001,-170.403"/>
</g>
<!-- Node5 -->
<g id="node5" class="node"><title>Node5</title>
<g id="a_node5"><a xlink:href="class_i_editor_delegate.html" target="_top" xlink:title="This pure virtual interface delegates communication in both directions between a UI editor and someth...">
<polygon fill="white" stroke="black" points="0,-236.5 0,-255.5 152,-255.5 152,-236.5 0,-236.5"/>
<text text-anchor="middle" x="76" y="-243.5" font-family="Helvetica,sans-Serif" font-size="10.00">EDITOR_DELEGATE_CLASS</text>
</a>
</g>
</g>
<!-- Node5&#45;&gt;Node4 -->
<g id="edge4" class="edge"><title>Node5&#45;&gt;Node4</title>
<path fill="none" stroke="midnightblue" d="M76,-225.805C76,-216.91 76,-206.78 76,-199.751"/>
<polygon fill="midnightblue" stroke="midnightblue" points="72.5001,-226.083 76,-236.083 79.5001,-226.083 72.5001,-226.083"/>
</g>
<!-- Node6 -->
<g id="node6" class="node"><title>Node6</title>
<g id="a_node6"><a xlink:href="class_i_plug_processor.html" target="_top" xlink:title="IPlugProcessor\&lt; PLUG\l_SAMPLE_DST \&gt;">
<polygon fill="white" stroke="black" points="133.5,-113 133.5,-143 252.5,-143 252.5,-113 133.5,-113"/>
<text text-anchor="start" x="141.5" y="-131" font-family="Helvetica,sans-Serif" font-size="10.00">IPlugProcessor&lt; PLUG</text>
<text text-anchor="middle" x="193" y="-120" font-family="Helvetica,sans-Serif" font-size="10.00">_SAMPLE_DST &gt;</text>
</a>
</g>
</g>
<!-- Node6&#45;&gt;Node2 -->
<g id="edge5" class="edge"><title>Node6&#45;&gt;Node2</title>
<path fill="none" stroke="midnightblue" d="M171.978,-105.622C161.852,-95.3242 150.269,-83.5451 142.585,-75.7305"/>
<polygon fill="midnightblue" stroke="midnightblue" points="169.511,-108.105 179.018,-112.781 174.502,-103.197 169.511,-108.105"/>
</g>
</g>
</svg>
