<?xml version="1.0" encoding="UTF-8" standalone="no"?>
<!DOCTYPE svg PUBLIC "-//W3C//DTD SVG 1.1//EN"
 "http://www.w3.org/Graphics/SVG/1.1/DTD/svg11.dtd">
<!-- Generated by graphviz version 7.0.5 (20221223.1930)
 -->
<!-- Title: IVectorBase Pages: 1 -->
<svg width="641pt" height="963pt"
 viewBox="0.00 0.00 641.00 963.00" xmlns="http://www.w3.org/2000/svg" xmlns:xlink="http://www.w3.org/1999/xlink">
<g id="graph0" class="graph" transform="scale(1 1) rotate(0) translate(4 959)">
<title>IVectorBase</title>
<!-- Node1 -->
<g id="node1" class="node">
<title>Node1</title>
<g id="a_node1"><a xlink:title="A base interface to be combined with IControl for vectorial controls &quot;IVControls&quot;,...">
<polygon fill="#999999" stroke="#666666" points="71,-536 0,-536 0,-517 71,-517 71,-536"/>
<text text-anchor="middle" x="35.5" y="-524" font-family="Helvetica,sans-Serif" font-size="10.00">IVectorBase</text>
</a>
</g>
</g>
<!-- Node2 -->
<g id="node2" class="node">
<title>Node2</title>
<g id="a_node2"><a xlink:href="class_i_f_p_s_display_control.html" target="_top" xlink:title="Performance display meter, based on code from NanoVG This is a special control that lives outside the...">
<polygon fill="white" stroke="#666666" points="246,-955 145,-955 145,-936 246,-936 246,-955"/>
<text text-anchor="middle" x="195.5" y="-943" font-family="Helvetica,sans-Serif" font-size="10.00">IFPSDisplayControl</text>
</a>
</g>
</g>
<!-- Node1&#45;&gt;Node2 -->
<g id="edge1" class="edge">
<title>Node1&#45;&gt;Node2</title>
<path fill="none" stroke="#63b8ff" d="M37.17,-547.32C40.01,-621.64 53.45,-872.39 107,-927.5 116.83,-937.62 130.73,-942.82 144.57,-945.32"/>
<polygon fill="#63b8ff" stroke="#63b8ff" points="40.69,-547.65 36.83,-537.78 33.69,-547.89 40.69,-547.65"/>
</g>
<!-- Node3 -->
<g id="node3" class="node">
<title>Node3</title>
<g id="a_node3"><a xlink:href="class_i_v_baked_preset_manager_control.html" target="_top" xlink:title="A &quot;meta control&quot; for a &quot;preset manager&quot; for &quot;baked in&quot; factory presets It adds several child buttons.">
<polygon fill="white" stroke="#666666" points="271,-918 120,-918 120,-899 271,-899 271,-918"/>
<text text-anchor="middle" x="195.5" y="-906" font-family="Helvetica,sans-Serif" font-size="10.00">IVBakedPresetManagerControl</text>
</a>
</g>
</g>
<!-- Node1&#45;&gt;Node3 -->
<g id="edge2" class="edge">
<title>Node1&#45;&gt;Node3</title>
<path fill="none" stroke="#63b8ff" d="M37.63,-547.55C41.8,-617.43 58.71,-840.14 107,-889.5 110.7,-893.28 114.95,-896.39 119.56,-898.94"/>
<polygon fill="#63b8ff" stroke="#63b8ff" points="41.14,-547.65 37.08,-537.86 34.15,-548.04 41.14,-547.65"/>
</g>
<!-- Node4 -->
<g id="node4" class="node">
<title>Node4</title>
<g id="a_node4"><a xlink:href="class_i_v_bar_graph_spectrum_analyzer_control.html" target="_top" xlink:title="Vectorial bar graph spectrum analyzer control with segmented LEDs.">
<polygon fill="white" stroke="#666666" points="284,-880.5 107,-880.5 107,-850.5 284,-850.5 284,-880.5"/>
<text text-anchor="start" x="115" y="-868.5" font-family="Helvetica,sans-Serif" font-size="10.00">IVBarGraphSpectrumAnalyzer</text>
<text text-anchor="middle" x="195.5" y="-857.5" font-family="Helvetica,sans-Serif" font-size="10.00">Control&lt; MAXNC, MAX_FFT_SIZE &gt;</text>
</a>
</g>
</g>
<!-- Node1&#45;&gt;Node4 -->
<g id="edge3" class="edge">
<title>Node1&#45;&gt;Node4</title>
<path fill="none" stroke="#63b8ff" d="M38.41,-547.5C44.58,-610.87 66.02,-798.53 107,-841.5 110.15,-844.81 113.71,-847.67 117.55,-850.15"/>
<polygon fill="#63b8ff" stroke="#63b8ff" points="41.91,-547.39 37.49,-537.76 34.94,-548.05 41.91,-547.39"/>
</g>
<!-- Node5 -->
<g id="node5" class="node">
<title>Node5</title>
<g id="a_node5"><a xlink:href="class_i_v_button_control.html" target="_top" xlink:title="A vector button/momentary switch control.">
<polygon fill="white" stroke="#666666" points="238.5,-832 152.5,-832 152.5,-813 238.5,-813 238.5,-832"/>
<text text-anchor="middle" x="195.5" y="-820" font-family="Helvetica,sans-Serif" font-size="10.00">IVButtonControl</text>
</a>
</g>
</g>
<!-- Node1&#45;&gt;Node5 -->
<g id="edge4" class="edge">
<title>Node1&#45;&gt;Node5</title>
<path fill="none" stroke="#63b8ff" d="M38.94,-547.41C46.16,-605.77 69.35,-768.53 107,-804.5 119,-815.96 136.25,-820.99 152.27,-822.96"/>
<polygon fill="#63b8ff" stroke="#63b8ff" points="42.45,-547.35 37.78,-537.84 35.51,-548.19 42.45,-547.35"/>
</g>
<!-- Node6 -->
<g id="node6" class="node">
<title>Node6</title>
<g id="a_node6"><a xlink:href="class_i_v_color_swatch_control.html" target="_top" xlink:title="A control to show a color swatch of up to 9 colors.">
<polygon fill="white" stroke="#666666" points="252,-795 139,-795 139,-776 252,-776 252,-795"/>
<text text-anchor="middle" x="195.5" y="-783" font-family="Helvetica,sans-Serif" font-size="10.00">IVColorSwatchControl</text>
</a>
</g>
</g>
<!-- Node1&#45;&gt;Node6 -->
<g id="edge5" class="edge">
<title>Node1&#45;&gt;Node6</title>
<path fill="none" stroke="#63b8ff" d="M35.94,-547.77C35.94,-594.87 42.97,-708.5 107,-767.5 115.78,-775.59 127.2,-780.45 138.87,-783.27"/>
<polygon fill="#63b8ff" stroke="#63b8ff" points="39.44,-547.9 36.07,-537.86 32.44,-547.81 39.44,-547.9"/>
</g>
<!-- Node7 -->
<g id="node7" class="node">
<title>Node7</title>
<g id="a_node7"><a xlink:href="class_i_v_disk_preset_manager_control.html" target="_top" xlink:title="A &quot;meta control&quot; for a &quot;preset manager&quot; for disk&#45;based preset files It adds several child buttons.">
<polygon fill="white" stroke="#666666" points="267,-758 124,-758 124,-739 267,-739 267,-758"/>
<text text-anchor="middle" x="195.5" y="-746" font-family="Helvetica,sans-Serif" font-size="10.00">IVDiskPresetManagerControl</text>
</a>
</g>
</g>
<!-- Node1&#45;&gt;Node7 -->
<g id="edge6" class="edge">
<title>Node1&#45;&gt;Node7</title>
<path fill="none" stroke="#63b8ff" d="M37.27,-547.89C40,-589.71 52.25,-682.44 107,-730.5 111.9,-734.8 117.54,-738.17 123.55,-740.8"/>
<polygon fill="#63b8ff" stroke="#63b8ff" points="40.77,-547.75 36.76,-537.94 33.78,-548.11 40.77,-547.75"/>
</g>
<!-- Node8 -->
<g id="node8" class="node">
<title>Node8</title>
<g id="a_node8"><a xlink:href="class_i_v_display_control.html" target="_top" xlink:title="A control to display a rolling graphics of historical values.">
<polygon fill="white" stroke="#666666" points="240,-721 151,-721 151,-702 240,-702 240,-721"/>
<text text-anchor="middle" x="195.5" y="-709" font-family="Helvetica,sans-Serif" font-size="10.00">IVDisplayControl</text>
</a>
</g>
</g>
<!-- Node1&#45;&gt;Node8 -->
<g id="edge7" class="edge">
<title>Node1&#45;&gt;Node8</title>
<path fill="none" stroke="#63b8ff" d="M39.03,-547.22C44.55,-582.92 61.08,-655.82 107,-693.5 119.23,-703.53 135.6,-708.43 150.88,-710.69"/>
<polygon fill="#63b8ff" stroke="#63b8ff" points="42.56,-547.18 37.72,-537.76 35.63,-548.15 42.56,-547.18"/>
</g>
<!-- Node9 -->
<g id="node9" class="node">
<title>Node9</title>
<g id="a_node9"><a xlink:href="class_i_v_group_control.html" target="_top" xlink:title="A control to draw a rectangle around a named IControl group.">
<polygon fill="white" stroke="#666666" points="237,-684 154,-684 154,-665 237,-665 237,-684"/>
<text text-anchor="middle" x="195.5" y="-672" font-family="Helvetica,sans-Serif" font-size="10.00">IVGroupControl</text>
</a>
</g>
</g>
<!-- Node1&#45;&gt;Node9 -->
<g id="edge8" class="edge">
<title>Node1&#45;&gt;Node9</title>
<path fill="none" stroke="#63b8ff" d="M41.73,-547.09C50.25,-576.25 70.02,-629.06 107,-656.5 120.33,-666.39 137.8,-671.16 153.62,-673.35"/>
<polygon fill="#63b8ff" stroke="#63b8ff" points="45.16,-546.37 39.15,-537.65 38.41,-548.22 45.16,-546.37"/>
</g>
<!-- Node10 -->
<g id="node10" class="node">
<title>Node10</title>
<g id="a_node10"><a xlink:href="class_i_v_knob_control.html" target="_top" xlink:title="A vector knob control drawn using graphics primitives.">
<polygon fill="white" stroke="#666666" points="235.5,-647 155.5,-647 155.5,-628 235.5,-628 235.5,-647"/>
<text text-anchor="middle" x="195.5" y="-635" font-family="Helvetica,sans-Serif" font-size="10.00">IVKnobControl</text>
</a>
</g>
</g>
<!-- Node1&#45;&gt;Node10 -->
<g id="edge9" class="edge">
<title>Node1&#45;&gt;Node10</title>
<path fill="none" stroke="#63b8ff" d="M45.95,-546.23C57.34,-567.76 78.54,-601.56 107,-619.5 121.3,-628.52 139.29,-633.12 155.23,-635.43"/>
<polygon fill="#63b8ff" stroke="#63b8ff" points="49.22,-544.94 41.59,-537.59 42.97,-548.09 49.22,-544.94"/>
</g>
<!-- Node11 -->
<g id="node11" class="node">
<title>Node11</title>
<g id="a_node11"><a xlink:href="class_i_v_label_control.html" target="_top" xlink:title="A vector label control that can display text with a shadow.">
<polygon fill="white" stroke="#666666" points="236,-610 155,-610 155,-591 236,-591 236,-610"/>
<text text-anchor="middle" x="195.5" y="-598" font-family="Helvetica,sans-Serif" font-size="10.00">IVLabelControl</text>
</a>
</g>
</g>
<!-- Node1&#45;&gt;Node11 -->
<g id="edge10" class="edge">
<title>Node1&#45;&gt;Node11</title>
<path fill="none" stroke="#63b8ff" d="M53.74,-544.07C67.12,-556.67 86.75,-573.04 107,-582.5 121.89,-589.46 139.46,-593.74 154.92,-596.37"/>
<polygon fill="#63b8ff" stroke="#63b8ff" points="56.24,-541.61 46.63,-537.13 51.35,-546.62 56.24,-541.61"/>
</g>
<!-- Node12 -->
<g id="node12" class="node">
<title>Node12</title>
<g id="a_node12"><a xlink:href="class_i_v_menu_button_control.html" target="_top" xlink:title="A vector button that pops up a menu.">
<polygon fill="white" stroke="#666666" points="250.5,-573 140.5,-573 140.5,-554 250.5,-554 250.5,-573"/>
<text text-anchor="middle" x="195.5" y="-561" font-family="Helvetica,sans-Serif" font-size="10.00">IVMenuButtonControl</text>
</a>
</g>
</g>
<!-- Node1&#45;&gt;Node12 -->
<g id="edge11" class="edge">
<title>Node1&#45;&gt;Node12</title>
<path fill="none" stroke="#63b8ff" d="M82.17,-539.24C90.41,-541.41 98.94,-543.59 107,-545.5 118.77,-548.29 131.49,-551.06 143.49,-553.55"/>
<polygon fill="#63b8ff" stroke="#63b8ff" points="83.2,-535.89 72.64,-536.68 81.39,-542.65 83.2,-535.89"/>
</g>
<!-- Node13 -->
<g id="node13" class="node">
<title>Node13</title>
<g id="a_node13"><a xlink:href="class_i_v_number_box_control.html" target="_top" xlink:title="A &quot;meta control&quot; for a number box with an Inc/Dec button It adds several child buttons if buttons = t...">
<polygon fill="white" stroke="#666666" points="249.5,-536 141.5,-536 141.5,-517 249.5,-517 249.5,-536"/>
<text text-anchor="middle" x="195.5" y="-524" font-family="Helvetica,sans-Serif" font-size="10.00">IVNumberBoxControl</text>
</a>
</g>
</g>
<!-- Node1&#45;&gt;Node13 -->
<g id="edge12" class="edge">
<title>Node1&#45;&gt;Node13</title>
<path fill="none" stroke="#63b8ff" d="M82.5,-526.5C100.89,-526.5 122.2,-526.5 141.26,-526.5"/>
<polygon fill="#63b8ff" stroke="#63b8ff" points="82.69,-523 72.69,-526.5 82.69,-530 82.69,-523"/>
</g>
<!-- Node14 -->
<g id="node14" class="node">
<title>Node14</title>
<g id="a_node14"><a xlink:href="class_i_v_panel_control.html" target="_top" xlink:title="A panel control which can be styled with emboss etc.">
<polygon fill="white" stroke="#666666" points="236.5,-499 154.5,-499 154.5,-480 236.5,-480 236.5,-499"/>
<text text-anchor="middle" x="195.5" y="-487" font-family="Helvetica,sans-Serif" font-size="10.00">IVPanelControl</text>
</a>
</g>
</g>
<!-- Node1&#45;&gt;Node14 -->
<g id="edge13" class="edge">
<title>Node1&#45;&gt;Node14</title>
<path fill="none" stroke="#63b8ff" d="M82.21,-514.57C90.45,-512.5 98.97,-510.4 107,-508.5 122.43,-504.86 139.46,-501.1 154.36,-497.9"/>
<polygon fill="#63b8ff" stroke="#63b8ff" points="81.52,-511.14 72.69,-517 83.24,-517.92 81.52,-511.14"/>
</g>
<!-- Node15 -->
<g id="node15" class="node">
<title>Node15</title>
<g id="a_node15"><a xlink:href="class_i_v_plot_control.html" target="_top" xlink:title="A vector plot to display functions and waveforms.">
<polygon fill="white" stroke="#666666" points="232.5,-462 158.5,-462 158.5,-443 232.5,-443 232.5,-462"/>
<text text-anchor="middle" x="195.5" y="-450" font-family="Helvetica,sans-Serif" font-size="10.00">IVPlotControl</text>
</a>
</g>
</g>
<!-- Node1&#45;&gt;Node15 -->
<g id="edge14" class="edge">
<title>Node1&#45;&gt;Node15</title>
<path fill="none" stroke="#63b8ff" d="M54.29,-508.9C67.7,-496.61 87.13,-480.81 107,-471.5 123.05,-463.98 142.15,-459.39 158.41,-456.61"/>
<polygon fill="#63b8ff" stroke="#63b8ff" points="51.99,-506.25 47.14,-515.67 56.8,-511.34 51.99,-506.25"/>
</g>
<!-- Node16 -->
<g id="node16" class="node">
<title>Node16</title>
<g id="a_node16"><a xlink:href="class_i_v_scope_control.html" target="_top" xlink:title="Vectorial multi&#45;channel capable oscilloscope control.">
<polygon fill="white" stroke="#666666" points="261.5,-424.5 129.5,-424.5 129.5,-394.5 261.5,-394.5 261.5,-424.5"/>
<text text-anchor="start" x="137.5" y="-412.5" font-family="Helvetica,sans-Serif" font-size="10.00">IVScopeControl&lt; MAXNC,</text>
<text text-anchor="middle" x="195.5" y="-401.5" font-family="Helvetica,sans-Serif" font-size="10.00"> MAXBUF &gt;</text>
</a>
</g>
</g>
<!-- Node1&#45;&gt;Node16 -->
<g id="edge15" class="edge">
<title>Node1&#45;&gt;Node16</title>
<path fill="none" stroke="#63b8ff" d="M46.61,-506.76C58.34,-485.78 79.64,-453.12 107,-434.5 113.79,-429.88 121.43,-426.1 129.3,-423.02"/>
<polygon fill="#63b8ff" stroke="#63b8ff" points="43.58,-504.99 41.94,-515.46 49.75,-508.3 43.58,-504.99"/>
</g>
<!-- Node17 -->
<g id="node17" class="node">
<title>Node17</title>
<g id="a_node17"><a xlink:href="class_i_v_slider_control.html" target="_top" xlink:title="A vector slider control.">
<polygon fill="white" stroke="#666666" points="236.5,-376 154.5,-376 154.5,-357 236.5,-357 236.5,-376"/>
<text text-anchor="middle" x="195.5" y="-364" font-family="Helvetica,sans-Serif" font-size="10.00">IVSliderControl</text>
</a>
</g>
</g>
<!-- Node1&#45;&gt;Node17 -->
<g id="edge16" class="edge">
<title>Node1&#45;&gt;Node17</title>
<path fill="none" stroke="#63b8ff" d="M40.91,-505.59C48.64,-474.39 67.68,-416.05 107,-385.5 120.38,-375.1 138.23,-370.12 154.32,-367.82"/>
<polygon fill="#63b8ff" stroke="#63b8ff" points="37.51,-504.8 38.68,-515.33 44.33,-506.36 37.51,-504.8"/>
</g>
<!-- Node18 -->
<g id="node18" class="node">
<title>Node18</title>
<g id="a_node18"><a xlink:href="class_i_v_spectrum_analyzer_control.html" target="_top" xlink:title="Vectorial multi&#45;channel capable spectrum analyzer controlDerived from work by Alex Harker and Matthew...">
<polygon fill="white" stroke="#666666" points="268.5,-338.5 122.5,-338.5 122.5,-308.5 268.5,-308.5 268.5,-338.5"/>
<text text-anchor="start" x="130.5" y="-326.5" font-family="Helvetica,sans-Serif" font-size="10.00">IVSpectrumAnalyzerControl</text>
<text text-anchor="middle" x="195.5" y="-315.5" font-family="Helvetica,sans-Serif" font-size="10.00">&lt; MAXNC, MAX_FFT_SIZE &gt;</text>
</a>
</g>
</g>
<!-- Node1&#45;&gt;Node18 -->
<g id="edge17" class="edge">
<title>Node1&#45;&gt;Node18</title>
<path fill="none" stroke="#63b8ff" d="M38.84,-505.35C44.09,-468.12 60.28,-390.82 107,-348.5 111.57,-344.36 116.77,-340.91 122.32,-338.02"/>
<polygon fill="#63b8ff" stroke="#63b8ff" points="35.37,-504.86 37.59,-515.22 42.32,-505.74 35.37,-504.86"/>
</g>
<!-- Node19 -->
<g id="node19" class="node">
<title>Node19</title>
<g id="a_node19"><a xlink:href="class_i_v_switch_control.html" target="_top" xlink:title="A vector switch control.">
<polygon fill="white" stroke="#666666" points="239,-290 152,-290 152,-271 239,-271 239,-290"/>
<text text-anchor="middle" x="195.5" y="-278" font-family="Helvetica,sans-Serif" font-size="10.00">IVSwitchControl</text>
</a>
</g>
</g>
<!-- Node1&#45;&gt;Node19 -->
<g id="edge18" class="edge">
<title>Node1&#45;&gt;Node19</title>
<path fill="none" stroke="#63b8ff" d="M36.44,-505.27C37.54,-460.23 46.78,-354.68 107,-299.5 119.03,-288.47 135.92,-283.3 151.65,-281.02"/>
<polygon fill="#63b8ff" stroke="#63b8ff" points="32.94,-504.96 36.33,-515 39.94,-505.04 32.94,-504.96"/>
</g>
<!-- Node22 -->
<g id="node22" class="node">
<title>Node22</title>
<g id="a_node22"><a xlink:href="class_i_v_tab_page.html" target="_top" xlink:title="A control used as the base class for a tabbed page of subcontrols.">
<polygon fill="white" stroke="#666666" points="228,-253 163,-253 163,-234 228,-234 228,-253"/>
<text text-anchor="middle" x="195.5" y="-241" font-family="Helvetica,sans-Serif" font-size="10.00">IVTabPage</text>
</a>
</g>
</g>
<!-- Node1&#45;&gt;Node22 -->
<g id="edge21" class="edge">
<title>Node1&#45;&gt;Node22</title>
<path fill="none" stroke="#63b8ff" d="M39.32,-505.2C47.22,-448.59 71.41,-296.45 107,-262.5 121.73,-248.44 144.3,-243.8 162.83,-242.61"/>
<polygon fill="#63b8ff" stroke="#63b8ff" points="35.85,-504.7 37.97,-515.09 42.79,-505.65 35.85,-504.7"/>
</g>
<!-- Node23 -->
<g id="node23" class="node">
<title>Node23</title>
<g id="a_node23"><a xlink:href="class_i_v_tab_switch_control.html" target="_top" xlink:title="A vector &quot;tab&quot; multi switch control.">
<polygon fill="white" stroke="#666666" points="247.5,-216 143.5,-216 143.5,-197 247.5,-197 247.5,-216"/>
<text text-anchor="middle" x="195.5" y="-204" font-family="Helvetica,sans-Serif" font-size="10.00">IVTabSwitchControl</text>
</a>
</g>
</g>
<!-- Node1&#45;&gt;Node23 -->
<g id="edge22" class="edge">
<title>Node1&#45;&gt;Node23</title>
<path fill="none" stroke="#63b8ff" d="M38.57,-505.13C45.01,-443.14 66.73,-265.12 107,-225.5 116.64,-216.01 129.83,-210.78 143.05,-208.01"/>
<polygon fill="#63b8ff" stroke="#63b8ff" points="35.1,-504.7 37.58,-515 42.06,-505.4 35.1,-504.7"/>
</g>
<!-- Node25 -->
<g id="node25" class="node">
<title>Node25</title>
<g id="a_node25"><a xlink:href="class_i_v_tabbed_pages_control.html" target="_top" xlink:title="A control to manage tabbed pages of sub controls Basic usage example:">
<polygon fill="white" stroke="#666666" points="254,-179 137,-179 137,-160 254,-160 254,-179"/>
<text text-anchor="middle" x="195.5" y="-167" font-family="Helvetica,sans-Serif" font-size="10.00">IVTabbedPagesControl</text>
</a>
</g>
</g>
<!-- Node1&#45;&gt;Node25 -->
<g id="edge24" class="edge">
<title>Node1&#45;&gt;Node25</title>
<path fill="none" stroke="#63b8ff" d="M37.97,-505.2C43.04,-438.25 61.98,-233.89 107,-188.5 114.99,-180.44 125.54,-175.44 136.54,-172.39"/>
<polygon fill="#63b8ff" stroke="#63b8ff" points="34.48,-504.93 37.25,-515.16 41.47,-505.44 34.48,-504.93"/>
</g>
<!-- Node26 -->
<g id="node26" class="node">
<title>Node26</title>
<g id="a_node26"><a xlink:href="class_i_v_track_control_base.html" target="_top" xlink:title="A base class for mult&#45;strip/track controls, such as multi&#45;sliders, meters Track refers to the channel...">
<polygon fill="white" stroke="#666666" points="247.5,-142 143.5,-142 143.5,-123 247.5,-123 247.5,-142"/>
<text text-anchor="middle" x="195.5" y="-130" font-family="Helvetica,sans-Serif" font-size="10.00">IVTrackControlBase</text>
</a>
</g>
</g>
<!-- Node1&#45;&gt;Node26 -->
<g id="edge25" class="edge">
<title>Node1&#45;&gt;Node26</title>
<path fill="none" stroke="#63b8ff" d="M37.49,-505.24C41.29,-433.6 57.22,-202.69 107,-151.5 116.54,-141.69 129.86,-136.38 143.23,-133.64"/>
<polygon fill="#63b8ff" stroke="#63b8ff" points="34,-505.01 37,-515.17 40.99,-505.36 34,-505.01"/>
</g>
<!-- Node35 -->
<g id="node35" class="node">
<title>Node35</title>
<g id="a_node35"><a xlink:href="class_i_v_x_y_pad_control.html" target="_top" xlink:title="A vector XY Pad slider control.">
<polygon fill="white" stroke="#666666" points="239.5,-105 151.5,-105 151.5,-86 239.5,-86 239.5,-105"/>
<text text-anchor="middle" x="195.5" y="-93" font-family="Helvetica,sans-Serif" font-size="10.00">IVXYPadControl</text>
</a>
</g>
</g>
<!-- Node1&#45;&gt;Node35 -->
<g id="edge35" class="edge">
<title>Node1&#45;&gt;Node35</title>
<path fill="none" stroke="#63b8ff" d="M37.09,-505.63C39.66,-429.98 52.35,-171.63 107,-114.5 118.39,-102.59 135.35,-97.29 151.31,-95.16"/>
<polygon fill="#63b8ff" stroke="#63b8ff" points="33.6,-505.23 36.79,-515.34 40.6,-505.45 33.6,-505.23"/>
</g>
<!-- Node20 -->
<g id="node20" class="node">
<title>Node20</title>
<g id="a_node20"><a xlink:href="class_i_v_slide_switch_control.html" target="_top" xlink:title="A switch with a slide animation when clicked.">
<polygon fill="white" stroke="#666666" points="441.5,-327 332.5,-327 332.5,-308 441.5,-308 441.5,-327"/>
<text text-anchor="middle" x="387" y="-315" font-family="Helvetica,sans-Serif" font-size="10.00">IVSlideSwitchControl</text>
</a>
</g>
</g>
<!-- Node19&#45;&gt;Node20 -->
<g id="edge19" class="edge">
<title>Node19&#45;&gt;Node20</title>
<path fill="none" stroke="#63b8ff" d="M250.06,-290.96C276.65,-296.15 308.61,-302.39 334.86,-307.51"/>
<polygon fill="#63b8ff" stroke="#63b8ff" points="251,-287.57 240.51,-289.09 249.66,-294.45 251,-287.57"/>
</g>
<!-- Node21 -->
<g id="node21" class="node">
<title>Node21</title>
<g id="a_node21"><a xlink:href="class_i_v_toggle_control.html" target="_top" xlink:title="A vector toggle control.">
<polygon fill="white" stroke="#666666" points="430,-290 344,-290 344,-271 430,-271 430,-290"/>
<text text-anchor="middle" x="387" y="-278" font-family="Helvetica,sans-Serif" font-size="10.00">IVToggleControl</text>
</a>
</g>
</g>
<!-- Node19&#45;&gt;Node21 -->
<g id="edge20" class="edge">
<title>Node19&#45;&gt;Node21</title>
<path fill="none" stroke="#63b8ff" d="M250.42,-280.5C279.98,-280.5 316.09,-280.5 343.61,-280.5"/>
<polygon fill="#63b8ff" stroke="#63b8ff" points="250.54,-277 240.54,-280.5 250.54,-284 250.54,-277"/>
</g>
<!-- Node24 -->
<g id="node24" class="node">
<title>Node24</title>
<g id="a_node24"><a xlink:href="class_i_v_radio_button_control.html" target="_top" xlink:title="A vector &quot;radio buttons&quot; switch control.">
<polygon fill="white" stroke="#666666" points="442,-253 332,-253 332,-234 442,-234 442,-253"/>
<text text-anchor="middle" x="387" y="-241" font-family="Helvetica,sans-Serif" font-size="10.00">IVRadioButtonControl</text>
</a>
</g>
</g>
<!-- Node23&#45;&gt;Node24 -->
<g id="edge23" class="edge">
<title>Node23&#45;&gt;Node24</title>
<path fill="none" stroke="#63b8ff" d="M258.42,-218.59C283.23,-223.43 311.48,-228.95 335.08,-233.56"/>
<polygon fill="#63b8ff" stroke="#63b8ff" points="259.25,-215.19 248.77,-216.71 257.91,-222.06 259.25,-215.19"/>
</g>
<!-- Node27 -->
<g id="node27" class="node">
<title>Node27</title>
<g id="a_node27"><a xlink:href="class_i_v_meter_control.html" target="_top" xlink:title=" ">
<polygon fill="white" stroke="#666666" points="454,-216 320,-216 320,-197 454,-197 454,-216"/>
<text text-anchor="middle" x="387" y="-204" font-family="Helvetica,sans-Serif" font-size="10.00">IVMeterControl&lt; MAXNC &gt;</text>
</a>
</g>
</g>
<!-- Node26&#45;&gt;Node27 -->
<g id="edge26" class="edge">
<title>Node26&#45;&gt;Node27</title>
<path fill="none" stroke="#63b8ff" d="M258.89,-141.31C267.63,-143.88 276.26,-147.21 284,-151.5 304.06,-162.63 300.23,-176.85 320,-188.5 325.42,-191.7 331.43,-194.34 337.54,-196.53"/>
<polygon fill="#63b8ff" stroke="#63b8ff" points="259.85,-137.94 249.29,-138.82 258.09,-144.72 259.85,-137.94"/>
</g>
<!-- Node29 -->
<g id="node29" class="node">
<title>Node29</title>
<g id="a_node29"><a xlink:href="class_i_v_meter_control.html" target="_top" xlink:title=" ">
<polygon fill="white" stroke="#666666" points="439,-179 335,-179 335,-160 439,-160 439,-179"/>
<text text-anchor="middle" x="387" y="-167" font-family="Helvetica,sans-Serif" font-size="10.00">IVMeterControl&lt; 1 &gt;</text>
</a>
</g>
</g>
<!-- Node26&#45;&gt;Node29 -->
<g id="edge28" class="edge">
<title>Node26&#45;&gt;Node29</title>
<path fill="none" stroke="#63b8ff" d="M258.42,-144.59C283.23,-149.43 311.48,-154.95 335.08,-159.56"/>
<polygon fill="#63b8ff" stroke="#63b8ff" points="259.25,-141.19 248.77,-142.71 257.91,-148.06 259.25,-141.19"/>
</g>
<!-- Node30 -->
<g id="node30" class="node">
<title>Node30</title>
<g id="a_node30"><a xlink:href="class_i_v_multi_slider_control.html" target="_top" xlink:title=" ">
<polygon fill="white" stroke="#666666" points="449.5,-142 324.5,-142 324.5,-123 449.5,-123 449.5,-142"/>
<text text-anchor="middle" x="387" y="-130" font-family="Helvetica,sans-Serif" font-size="10.00">IVMultiSliderControl&lt; 1 &gt;</text>
</a>
</g>
</g>
<!-- Node26&#45;&gt;Node30 -->
<g id="edge29" class="edge">
<title>Node26&#45;&gt;Node30</title>
<path fill="none" stroke="#63b8ff" d="M259.13,-132.5C280.06,-132.5 303.36,-132.5 324.22,-132.5"/>
<polygon fill="#63b8ff" stroke="#63b8ff" points="259.3,-129 249.29,-132.5 259.29,-136 259.3,-129"/>
</g>
<!-- Node31 -->
<g id="node31" class="node">
<title>Node31</title>
<g id="a_node31"><a xlink:href="class_i_v_meter_control.html" target="_top" xlink:title="Vectorial multi&#45;channel capable meter control, linear or log response.">
<polygon fill="white" stroke="#666666" points="454,-105 320,-105 320,-86 454,-86 454,-105"/>
<text text-anchor="middle" x="387" y="-93" font-family="Helvetica,sans-Serif" font-size="10.00">IVMeterControl&lt; MAXNC &gt;</text>
</a>
</g>
</g>
<!-- Node26&#45;&gt;Node31 -->
<g id="edge30" class="edge">
<title>Node26&#45;&gt;Node31</title>
<path fill="none" stroke="#63b8ff" d="M258.42,-120.41C283.23,-115.57 311.48,-110.05 335.08,-105.44"/>
<polygon fill="#63b8ff" stroke="#63b8ff" points="257.91,-116.94 248.77,-122.29 259.25,-123.81 257.91,-116.94"/>
</g>
<!-- Node32 -->
<g id="node32" class="node">
<title>Node32</title>
<g id="a_node32"><a xlink:href="class_i_v_multi_slider_control.html" target="_top" xlink:title="A vectorial multi&#45;slider control.">
<polygon fill="white" stroke="#666666" points="438.5,-67.5 335.5,-67.5 335.5,-37.5 438.5,-37.5 438.5,-67.5"/>
<text text-anchor="start" x="343.5" y="-55.5" font-family="Helvetica,sans-Serif" font-size="10.00">IVMultiSliderControl</text>
<text text-anchor="middle" x="387" y="-44.5" font-family="Helvetica,sans-Serif" font-size="10.00">&lt; MAXNC &gt;</text>
</a>
</g>
</g>
<!-- Node26&#45;&gt;Node32 -->
<g id="edge32" class="edge">
<title>Node26&#45;&gt;Node32</title>
<path fill="none" stroke="#63b8ff" d="M258.94,-124.56C267.67,-122.07 276.28,-118.79 284,-114.5 304.33,-103.19 300.55,-89.26 320,-76.5 324.89,-73.29 330.27,-70.44 335.78,-67.93"/>
<polygon fill="#63b8ff" stroke="#63b8ff" points="258.2,-121.14 249.34,-126.96 259.89,-127.93 258.2,-121.14"/>
</g>
<!-- Node34 -->
<g id="node34" class="node">
<title>Node34</title>
<g id="a_node34"><a xlink:href="class_i_v_range_slider_control.html" target="_top" xlink:title="A vector range slider control, with two handles.">
<polygon fill="white" stroke="#666666" points="442,-19 332,-19 332,0 442,0 442,-19"/>
<text text-anchor="middle" x="387" y="-7" font-family="Helvetica,sans-Serif" font-size="10.00">IVRangeSliderControl</text>
</a>
</g>
</g>
<!-- Node26&#45;&gt;Node34 -->
<g id="edge34" class="edge">
<title>Node26&#45;&gt;Node34</title>
<path fill="none" stroke="#63b8ff" d="M258.71,-127.56C267.88,-124.69 276.68,-120.52 284,-114.5 315.99,-88.17 289.05,-56.05 320,-28.5 324.19,-24.77 329.06,-21.78 334.23,-19.36"/>
<polygon fill="#63b8ff" stroke="#63b8ff" points="258.12,-124.09 249.31,-129.97 259.86,-130.87 258.12,-124.09"/>
</g>
<!-- Node28 -->
<g id="node28" class="node">
<title>Node28</title>
<g id="a_node28"><a xlink:href="class_i_v_peak_avg_meter_control.html" target="_top" xlink:title=" ">
<polygon fill="white" stroke="#666666" points="633,-160 490,-160 490,-141 633,-141 633,-160"/>
<text text-anchor="middle" x="561.5" y="-148" font-family="Helvetica,sans-Serif" font-size="10.00">IVPeakAvgMeterControl&lt; 1 &gt;</text>
</a>
</g>
</g>
<!-- Node27&#45;&gt;Node28 -->
<g id="edge27" class="edge">
<title>Node27&#45;&gt;Node28</title>
<path fill="none" stroke="#63b8ff" d="M437.31,-193.5C442.95,-191.88 448.61,-190.19 454,-188.5 481.72,-179.79 512.98,-168.45 534.43,-160.43"/>
<polygon fill="#63b8ff" stroke="#63b8ff" points="436.67,-190.04 427.99,-196.11 438.57,-196.78 436.67,-190.04"/>
</g>
<!-- Node31&#45;&gt;Node28 -->
<g id="edge31" class="edge">
<title>Node31&#45;&gt;Node28</title>
<path fill="none" stroke="#63b8ff" d="M434.56,-108.62C441.1,-110.54 447.73,-112.54 454,-114.5 480.64,-122.83 510.75,-133.09 532.14,-140.52"/>
<polygon fill="#63b8ff" stroke="#63b8ff" points="435.74,-105.31 425.17,-105.88 433.79,-112.04 435.74,-105.31"/>
</g>
<!-- Node33 -->
<g id="node33" class="node">
<title>Node33</title>
<g id="a_node33"><a xlink:href="class_i_v_multi_toggle_control.html" target="_top" xlink:title="A vectorial multi&#45;toggle control, could be used for a trigger in a step sequencer or tarnce gate.">
<polygon fill="white" stroke="#666666" points="615,-67.5 508,-67.5 508,-37.5 615,-37.5 615,-67.5"/>
<text text-anchor="start" x="516" y="-55.5" font-family="Helvetica,sans-Serif" font-size="10.00">IVMultiToggleControl</text>
<text text-anchor="middle" x="561.5" y="-44.5" font-family="Helvetica,sans-Serif" font-size="10.00">&lt; MAXNC &gt;</text>
</a>
</g>
</g>
<!-- Node32&#45;&gt;Node33 -->
<g id="edge33" class="edge">
<title>Node32&#45;&gt;Node33</title>
<path fill="none" stroke="#63b8ff" d="M450.28,-52.5C469.08,-52.5 489.52,-52.5 507.65,-52.5"/>
<polygon fill="#63b8ff" stroke="#63b8ff" points="450.34,-49 440.34,-52.5 450.34,-56 450.34,-49"/>
</g>
</g>
</svg>
