<?xml version="1.0" encoding="UTF-8" standalone="no"?>
<!DOCTYPE svg PUBLIC "-//W3C//DTD SVG 1.1//EN"
 "http://www.w3.org/Graphics/SVG/1.1/DTD/svg11.dtd">
<!-- Generated by graphviz version 7.0.5 (20221223.1930)
 -->
<!-- Title: IGraphics Pages: 1 -->
<svg width="200pt" height="82pt"
 viewBox="0.00 0.00 200.00 82.00" xmlns="http://www.w3.org/2000/svg" xmlns:xlink="http://www.w3.org/1999/xlink">
<g id="graph0" class="graph" transform="scale(1 1) rotate(0) translate(4 78)">
<title>IGraphics</title>
<!-- Node1 -->
<g id="node1" class="node">
<title>Node1</title>
<g id="a_node1"><a xlink:title="The lowest level base class of an IGraphics context.">
<polygon fill="#999999" stroke="#666666" points="129.5,-74 70.5,-74 70.5,-55 129.5,-55 129.5,-74"/>
<text text-anchor="middle" x="100" y="-62" font-family="Helvetica,sans-Serif" font-size="10.00">IGraphics</text>
</a>
</g>
</g>
<!-- Node2 -->
<g id="node2" class="node">
<title>Node2</title>
<g id="a_node2"><a xlink:href="class_i_graphics_nano_v_g.html" target="_top" xlink:title="IGraphics draw class using NanoVG">
<polygon fill="white" stroke="#666666" points="96,-19 0,-19 0,0 96,0 96,-19"/>
<text text-anchor="middle" x="48" y="-7" font-family="Helvetica,sans-Serif" font-size="10.00">IGraphicsNanoVG</text>
</a>
</g>
</g>
<!-- Node1&#45;&gt;Node2 -->
<g id="edge1" class="edge">
<title>Node1&#45;&gt;Node2</title>
<path fill="none" stroke="#63b8ff" d="M83.59,-46.78C74.71,-37.72 64.09,-26.9 56.77,-19.44"/>
<polygon fill="#63b8ff" stroke="#63b8ff" points="80.85,-48.98 90.35,-53.67 85.85,-44.08 80.85,-48.98"/>
</g>
<!-- Node3 -->
<g id="node3" class="node">
<title>Node3</title>
<g id="a_node3"><a xlink:href="class_i_graphics_skia.html" target="_top" xlink:title="IGraphics draw class using Skia.">
<polygon fill="white" stroke="#666666" points="192,-19 114,-19 114,0 192,0 192,-19"/>
<text text-anchor="middle" x="153" y="-7" font-family="Helvetica,sans-Serif" font-size="10.00">IGraphicsSkia</text>
</a>
</g>
</g>
<!-- Node1&#45;&gt;Node3 -->
<g id="edge2" class="edge">
<title>Node1&#45;&gt;Node3</title>
<path fill="none" stroke="#63b8ff" d="M116.72,-46.78C125.78,-37.72 136.6,-26.9 144.06,-19.44"/>
<polygon fill="#63b8ff" stroke="#63b8ff" points="114.42,-44.13 109.82,-53.68 119.37,-49.08 114.42,-44.13"/>
</g>
</g>
</svg>
