<?xml version="1.0" encoding="UTF-8" standalone="no"?>
<!DOCTYPE svg PUBLIC "-//W3C//DTD SVG 1.1//EN"
 "http://www.w3.org/Graphics/SVG/1.1/DTD/svg11.dtd">
<!-- Generated by graphviz version 7.0.5 (20221223.1930)
 -->
<!-- Title: IPlugVST3Processor Pages: 1 -->
<svg width="385pt" height="192pt"
 viewBox="0.00 0.00 385.00 192.00" xmlns="http://www.w3.org/2000/svg" xmlns:xlink="http://www.w3.org/1999/xlink">
<g id="graph0" class="graph" transform="scale(1 1) rotate(0) translate(4 188)">
<title>IPlugVST3Processor</title>
<!-- Node1 -->
<g id="node1" class="node">
<title>Node1</title>
<g id="a_node1"><a xlink:title="VST3 Processor API&#45;base class for a distributed IPlug VST3 plug&#45;in.">
<polygon fill="#999999" stroke="#666666" points="242.5,-19 134.5,-19 134.5,0 242.5,0 242.5,-19"/>
<text text-anchor="middle" x="188.5" y="-7" font-family="Helvetica,sans-Serif" font-size="10.00">IPlugVST3Processor</text>
</a>
</g>
</g>
<!-- Node2 -->
<g id="node2" class="node">
<title>Node2</title>
<g id="a_node2"><a xlink:title=" ">
<polygon fill="white" stroke="#bfbfbf" points="131,-74 0,-74 0,-55 131,-55 131,-74"/>
<text text-anchor="middle" x="65.5" y="-62" font-family="Helvetica,sans-Serif" font-size="10.00">Steinberg::Vst::AudioEffect</text>
</a>
</g>
</g>
<!-- Node2&#45;&gt;Node1 -->
<g id="edge1" class="edge">
<title>Node2&#45;&gt;Node1</title>
<path fill="none" stroke="#63b8ff" d="M96.69,-50.06C119.03,-40.43 148.49,-27.74 167.94,-19.36"/>
<polygon fill="#63b8ff" stroke="#63b8ff" points="95.55,-46.74 87.76,-53.91 98.32,-53.17 95.55,-46.74"/>
</g>
<!-- Node3 -->
<g id="node3" class="node">
<title>Node3</title>
<g id="a_node3"><a xlink:href="class_i_plug_a_p_i_base.html" target="_top" xlink:title="The base class of an IPlug plug&#45;in, which interacts with the different plug&#45;in APIs.">
<polygon fill="white" stroke="#666666" points="227.5,-74 149.5,-74 149.5,-55 227.5,-55 227.5,-74"/>
<text text-anchor="middle" x="188.5" y="-62" font-family="Helvetica,sans-Serif" font-size="10.00">IPlugAPIBase</text>
</a>
</g>
</g>
<!-- Node3&#45;&gt;Node1 -->
<g id="edge2" class="edge">
<title>Node3&#45;&gt;Node1</title>
<path fill="none" stroke="#63b8ff" d="M188.5,-43.35C188.5,-35.1 188.5,-25.97 188.5,-19.44"/>
<polygon fill="#63b8ff" stroke="#63b8ff" points="185,-43.23 188.5,-53.23 192,-43.23 185,-43.23"/>
</g>
<!-- Node4 -->
<g id="node4" class="node">
<title>Node4</title>
<g id="a_node4"><a xlink:href="class_i_plugin_base.html" target="_top" xlink:title="Base class that contains plug&#45;in info and state manipulation methods.">
<polygon fill="white" stroke="#666666" points="223,-129 154,-129 154,-110 223,-110 223,-129"/>
<text text-anchor="middle" x="188.5" y="-117" font-family="Helvetica,sans-Serif" font-size="10.00">IPluginBase</text>
</a>
</g>
</g>
<!-- Node4&#45;&gt;Node3 -->
<g id="edge3" class="edge">
<title>Node4&#45;&gt;Node3</title>
<path fill="none" stroke="#63b8ff" d="M188.5,-98.35C188.5,-90.1 188.5,-80.97 188.5,-74.44"/>
<polygon fill="#63b8ff" stroke="#63b8ff" points="185,-98.23 188.5,-108.23 192,-98.23 185,-98.23"/>
</g>
<!-- Node5 -->
<g id="node5" class="node">
<title>Node5</title>
<g id="a_node5"><a xlink:title=" ">
<polygon fill="white" stroke="#bfbfbf" points="262,-184 115,-184 115,-165 262,-165 262,-184"/>
<text text-anchor="middle" x="188.5" y="-172" font-family="Helvetica,sans-Serif" font-size="10.00">EDITOR_DELEGATE_CLASS</text>
</a>
</g>
</g>
<!-- Node5&#45;&gt;Node4 -->
<g id="edge4" class="edge">
<title>Node5&#45;&gt;Node4</title>
<path fill="none" stroke="#63b8ff" d="M188.5,-153.35C188.5,-145.1 188.5,-135.97 188.5,-129.44"/>
<polygon fill="#63b8ff" stroke="#63b8ff" points="185,-153.23 188.5,-163.23 192,-153.23 185,-153.23"/>
</g>
<!-- Node6 -->
<g id="node6" class="node">
<title>Node6</title>
<g id="a_node6"><a xlink:href="class_i_plug_v_s_t3_processor_base.html" target="_top" xlink:title="Shared VST3 processor code.">
<polygon fill="white" stroke="#666666" points="377,-74 246,-74 246,-55 377,-55 377,-74"/>
<text text-anchor="middle" x="311.5" y="-62" font-family="Helvetica,sans-Serif" font-size="10.00">IPlugVST3ProcessorBase</text>
</a>
</g>
</g>
<!-- Node6&#45;&gt;Node1 -->
<g id="edge5" class="edge">
<title>Node6&#45;&gt;Node1</title>
<path fill="none" stroke="#63b8ff" d="M280.31,-50.06C257.97,-40.43 228.51,-27.74 209.06,-19.36"/>
<polygon fill="#63b8ff" stroke="#63b8ff" points="278.68,-53.17 289.24,-53.91 281.45,-46.74 278.68,-53.17"/>
</g>
<!-- Node7 -->
<g id="node7" class="node">
<title>Node7</title>
<g id="a_node7"><a xlink:href="class_i_plug_processor.html" target="_top" xlink:title="The base class for IPlug Audio Processing.">
<polygon fill="white" stroke="#666666" points="353,-129 270,-129 270,-110 353,-110 353,-129"/>
<text text-anchor="middle" x="311.5" y="-117" font-family="Helvetica,sans-Serif" font-size="10.00">IPlugProcessor</text>
</a>
</g>
</g>
<!-- Node7&#45;&gt;Node6 -->
<g id="edge6" class="edge">
<title>Node7&#45;&gt;Node6</title>
<path fill="none" stroke="#63b8ff" d="M311.5,-98.35C311.5,-90.1 311.5,-80.97 311.5,-74.44"/>
<polygon fill="#63b8ff" stroke="#63b8ff" points="308,-98.23 311.5,-108.23 315,-98.23 308,-98.23"/>
</g>
</g>
</svg>
