<?xml version="1.0" encoding="UTF-8" standalone="no"?>
<!DOCTYPE svg PUBLIC "-//W3C//DTD SVG 1.1//EN"
 "http://www.w3.org/Graphics/SVG/1.1/DTD/svg11.dtd">
<!-- Generated by graphviz version 7.0.5 (20221223.1930)
 -->
<!-- Title: IVSwitchControl Pages: 1 -->
<svg width="222pt" height="192pt"
 viewBox="0.00 0.00 221.50 192.00" xmlns="http://www.w3.org/2000/svg" xmlns:xlink="http://www.w3.org/1999/xlink">
<g id="graph0" class="graph" transform="scale(1 1) rotate(0) translate(4 188)">
<title>IVSwitchControl</title>
<!-- Node1 -->
<g id="node1" class="node">
<title>Node1</title>
<g id="a_node1"><a xlink:title="A vector switch control.">
<polygon fill="#999999" stroke="#666666" points="156,-74 69,-74 69,-55 156,-55 156,-74"/>
<text text-anchor="middle" x="112.5" y="-62" font-family="Helvetica,sans-Serif" font-size="10.00">IVSwitchControl</text>
</a>
</g>
</g>
<!-- Node5 -->
<g id="node5" class="node">
<title>Node5</title>
<g id="a_node5"><a xlink:href="class_i_v_slide_switch_control.html" target="_top" xlink:title="A switch with a slide animation when clicked.">
<polygon fill="white" stroke="#666666" points="109,-19 0,-19 0,0 109,0 109,-19"/>
<text text-anchor="middle" x="54.5" y="-7" font-family="Helvetica,sans-Serif" font-size="10.00">IVSlideSwitchControl</text>
</a>
</g>
</g>
<!-- Node1&#45;&gt;Node5 -->
<g id="edge4" class="edge">
<title>Node1&#45;&gt;Node5</title>
<path fill="none" stroke="#63b8ff" d="M94.24,-46.81C84.28,-37.72 72.36,-26.82 64.19,-19.36"/>
<polygon fill="#63b8ff" stroke="#63b8ff" points="91.8,-49.33 101.54,-53.49 96.52,-44.16 91.8,-49.33"/>
</g>
<!-- Node6 -->
<g id="node6" class="node">
<title>Node6</title>
<g id="a_node6"><a xlink:href="class_i_v_toggle_control.html" target="_top" xlink:title="A vector toggle control.">
<polygon fill="white" stroke="#666666" points="213.5,-19 127.5,-19 127.5,0 213.5,0 213.5,-19"/>
<text text-anchor="middle" x="170.5" y="-7" font-family="Helvetica,sans-Serif" font-size="10.00">IVToggleControl</text>
</a>
</g>
</g>
<!-- Node1&#45;&gt;Node6 -->
<g id="edge5" class="edge">
<title>Node1&#45;&gt;Node6</title>
<path fill="none" stroke="#63b8ff" d="M130.76,-46.81C140.72,-37.72 152.64,-26.82 160.81,-19.36"/>
<polygon fill="#63b8ff" stroke="#63b8ff" points="128.48,-44.16 123.46,-53.49 133.2,-49.33 128.48,-44.16"/>
</g>
<!-- Node2 -->
<g id="node2" class="node">
<title>Node2</title>
<g id="a_node2"><a xlink:href="class_i_switch_control_base.html" target="_top" xlink:title="A base class for switch controls.">
<polygon fill="white" stroke="#666666" points="112,-129 9,-129 9,-110 112,-110 112,-129"/>
<text text-anchor="middle" x="60.5" y="-117" font-family="Helvetica,sans-Serif" font-size="10.00">ISwitchControlBase</text>
</a>
</g>
</g>
<!-- Node2&#45;&gt;Node1 -->
<g id="edge1" class="edge">
<title>Node2&#45;&gt;Node1</title>
<path fill="none" stroke="#63b8ff" d="M76.91,-101.78C85.79,-92.72 96.41,-81.9 103.73,-74.44"/>
<polygon fill="#63b8ff" stroke="#63b8ff" points="74.65,-99.08 70.15,-108.67 79.65,-103.98 74.65,-99.08"/>
</g>
<!-- Node3 -->
<g id="node3" class="node">
<title>Node3</title>
<g id="a_node3"><a xlink:href="class_i_control.html" target="_top" xlink:title="The lowest level base class of an IGraphics control.">
<polygon fill="white" stroke="#666666" points="85.5,-184 35.5,-184 35.5,-165 85.5,-165 85.5,-184"/>
<text text-anchor="middle" x="60.5" y="-172" font-family="Helvetica,sans-Serif" font-size="10.00">IControl</text>
</a>
</g>
</g>
<!-- Node3&#45;&gt;Node2 -->
<g id="edge2" class="edge">
<title>Node3&#45;&gt;Node2</title>
<path fill="none" stroke="#63b8ff" d="M60.5,-153.35C60.5,-145.1 60.5,-135.97 60.5,-129.44"/>
<polygon fill="#63b8ff" stroke="#63b8ff" points="57,-153.23 60.5,-163.23 64,-153.23 57,-153.23"/>
</g>
<!-- Node4 -->
<g id="node4" class="node">
<title>Node4</title>
<g id="a_node4"><a xlink:href="class_i_vector_base.html" target="_top" xlink:title="A base interface to be combined with IControl for vectorial controls &quot;IVControls&quot;,...">
<polygon fill="white" stroke="#666666" points="201,-129 130,-129 130,-110 201,-110 201,-129"/>
<text text-anchor="middle" x="165.5" y="-117" font-family="Helvetica,sans-Serif" font-size="10.00">IVectorBase</text>
</a>
</g>
</g>
<!-- Node4&#45;&gt;Node1 -->
<g id="edge3" class="edge">
<title>Node4&#45;&gt;Node1</title>
<path fill="none" stroke="#63b8ff" d="M148.78,-101.78C139.72,-92.72 128.9,-81.9 121.44,-74.44"/>
<polygon fill="#63b8ff" stroke="#63b8ff" points="146.13,-104.08 155.68,-108.68 151.08,-99.13 146.13,-104.08"/>
</g>
</g>
</svg>
