<?xml version="1.0" encoding="UTF-8" standalone="no"?>
<!DOCTYPE svg PUBLIC "-//W3C//DTD SVG 1.1//EN"
 "http://www.w3.org/Graphics/SVG/1.1/DTD/svg11.dtd">
<!-- Generated by graphviz version 7.0.5 (20221223.1930)
 -->
<!-- Title: IContainerBase Pages: 1 -->
<!--zoomable 230 -->
<svg id="main" version="1.1" xmlns="http://www.w3.org/2000/svg" xmlns:xlink="http://www.w3.org/1999/xlink" xml:space="preserve" onload="init(evt)">
<style type="text/css"><![CDATA[
.edge:hover path { stroke: red; }
.edge:hover polygon { stroke: red; fill: red; }
]]></style>
<script type="text/javascript"><![CDATA[
var edges = document.getElementsByTagName('g');
if (edges && edges.length) {
  for (var i=0;i<edges.length;i++) {
    if (edges[i].id.substr(0,4)=='edge') {
      edges[i].setAttribute('class','edge');
    }
  }
}
]]></script>
        <defs>
                <circle id="rim" cx="0" cy="0" r="7"/>
                <circle id="rim2" cx="0" cy="0" r="3.5"/>
                <g id="zoomPlus">
                        <use xlink:href="#rim" fill="#404040">
                                <set attributeName="fill" to="#808080" begin="zoomplus.mouseover" end="zoomplus.mouseout"/>
                        </use>
                        <path d="M-4,0h8M0,-4v8" fill="none" stroke="white" stroke-width="1.5" pointer-events="none"/>
                </g>
                <g id="zoomMin">
                        <use xlink:href="#rim" fill="#404040">
                                <set attributeName="fill" to="#808080" begin="zoomminus.mouseover" end="zoomminus.mouseout"/>
                        </use>
                        <path d="M-4,0h8" fill="none" stroke="white" stroke-width="1.5" pointer-events="none"/>
                </g>
                <g id="dirArrow">
                        <path fill="none" stroke="white" stroke-width="1.5" d="M0,-3.0v7 M-2.5,-0.5L0,-3.0L2.5,-0.5"/>
                </g>
               <g id="resetDef">
                       <use xlink:href="#rim2" fill="#404040">
                               <set attributeName="fill" to="#808080" begin="reset.mouseover" end="reset.mouseout"/>
                       </use>
               </g>
        </defs>

<script type="text/javascript">
var viewWidth = 543;
var viewHeight = 230;
var sectionId = 'dynsection-0';
</script>
<script xlink:href="svgpan.js"/>
<svg id="graph" class="graph">
<g id="viewport">
<title>IContainerBase</title>
<!-- Node1 -->
<g id="node1" class="node">
<title>Node1</title>
<g id="a_node1"><a xlink:title="IContainerBase allows a control to nest sub controls and it clips the drawing of those subcontrols In...">
<polygon fill="#999999" stroke="#666666" points="169,-111 86,-111 86,-92 169,-92 169,-111"/>
<text text-anchor="middle" x="127.5" y="-99" font-family="Helvetica,sans-Serif" font-size="10.00">IContainerBase</text>
</a>
</g>
</g>
<!-- Node3 -->
<g id="node3" class="node">
<title>Node3</title>
<g id="a_node3"><a xlink:href="class_i_dir_browse_control_base.html" target="_top" xlink:title="An abstract IControl base class that you can inherit from in order to make a control that pops up a m...">
<polygon fill="white" stroke="#666666" points="339.5,-204 221.5,-204 221.5,-185 339.5,-185 339.5,-204"/>
<text text-anchor="middle" x="280.5" y="-192" font-family="Helvetica,sans-Serif" font-size="10.00">IDirBrowseControlBase</text>
</a>
</g>
</g>
<!-- Node1&#45;&gt;Node3 -->
<g id="edge2" class="edge">
<title>Node1&#45;&gt;Node3</title>
<path fill="none" stroke="#63b8ff" d="M142.63,-119.82C156.65,-136.75 179.68,-161.36 205,-175.5 211.53,-179.14 218.76,-182.1 226.09,-184.5"/>
<polygon fill="#63b8ff" stroke="#63b8ff" points="145.74,-118.1 136.75,-112.49 140.28,-122.48 145.74,-118.1"/>
</g>
<!-- Node6 -->
<g id="node6" class="node">
<title>Node6</title>
<g id="a_node6"><a xlink:href="class_i_panel_control.html" target="_top" xlink:title="A basic control to fill a rectangle with a color or gradient.">
<polygon fill="white" stroke="#666666" points="318,-167 243,-167 243,-148 318,-148 318,-167"/>
<text text-anchor="middle" x="280.5" y="-155" font-family="Helvetica,sans-Serif" font-size="10.00">IPanelControl</text>
</a>
</g>
</g>
<!-- Node1&#45;&gt;Node6 -->
<g id="edge5" class="edge">
<title>Node1&#45;&gt;Node6</title>
<path fill="none" stroke="#63b8ff" d="M156.42,-116.68C170.66,-123.98 188.44,-132.45 205,-138.5 217.04,-142.9 230.52,-146.67 242.68,-149.66"/>
<polygon fill="#63b8ff" stroke="#63b8ff" points="158.12,-113.62 147.63,-112.08 154.87,-119.82 158.12,-113.62"/>
</g>
<!-- Node7 -->
<g id="node7" class="node">
<title>Node7</title>
<g id="a_node7"><a xlink:href="class_i_v_baked_preset_manager_control.html" target="_top" xlink:title="A &quot;meta control&quot; for a &quot;preset manager&quot; for &quot;baked in&quot; factory presets It adds several child buttons.">
<polygon fill="white" stroke="#666666" points="356,-130 205,-130 205,-111 356,-111 356,-130"/>
<text text-anchor="middle" x="280.5" y="-118" font-family="Helvetica,sans-Serif" font-size="10.00">IVBakedPresetManagerControl</text>
</a>
</g>
</g>
<!-- Node1&#45;&gt;Node7 -->
<g id="edge6" class="edge">
<title>Node1&#45;&gt;Node7</title>
<path fill="none" stroke="#63b8ff" d="M180.74,-108.07C188.44,-109.04 196.51,-110.06 204.56,-111.07"/>
<polygon fill="#63b8ff" stroke="#63b8ff" points="181.22,-104.61 170.86,-106.83 180.35,-111.55 181.22,-104.61"/>
</g>
<!-- Node8 -->
<g id="node8" class="node">
<title>Node8</title>
<g id="a_node8"><a xlink:href="class_i_v_menu_button_control.html" target="_top" xlink:title="A vector button that pops up a menu.">
<polygon fill="white" stroke="#666666" points="335.5,-93 225.5,-93 225.5,-74 335.5,-74 335.5,-93"/>
<text text-anchor="middle" x="280.5" y="-81" font-family="Helvetica,sans-Serif" font-size="10.00">IVMenuButtonControl</text>
</a>
</g>
</g>
<!-- Node1&#45;&gt;Node8 -->
<g id="edge7" class="edge">
<title>Node1&#45;&gt;Node8</title>
<path fill="none" stroke="#63b8ff" d="M180.61,-95.29C195.04,-93.57 210.73,-91.7 225.27,-89.96"/>
<polygon fill="#63b8ff" stroke="#63b8ff" points="180.38,-91.79 170.87,-96.45 181.21,-98.74 180.38,-91.79"/>
</g>
<!-- Node9 -->
<g id="node9" class="node">
<title>Node9</title>
<g id="a_node9"><a xlink:href="class_i_v_number_box_control.html" target="_top" xlink:title="A &quot;meta control&quot; for a number box with an Inc/Dec button It adds several child buttons if buttons = t...">
<polygon fill="white" stroke="#666666" points="334.5,-56 226.5,-56 226.5,-37 334.5,-37 334.5,-56"/>
<text text-anchor="middle" x="280.5" y="-44" font-family="Helvetica,sans-Serif" font-size="10.00">IVNumberBoxControl</text>
</a>
</g>
</g>
<!-- Node1&#45;&gt;Node9 -->
<g id="edge8" class="edge">
<title>Node1&#45;&gt;Node9</title>
<path fill="none" stroke="#63b8ff" d="M156.39,-86.23C170.62,-78.9 188.4,-70.44 205,-64.5 213.52,-61.45 222.77,-58.75 231.76,-56.43"/>
<polygon fill="#63b8ff" stroke="#63b8ff" points="154.83,-83.1 147.61,-90.85 158.09,-89.29 154.83,-83.1"/>
</g>
<!-- Node10 -->
<g id="node10" class="node">
<title>Node10</title>
<g id="a_node10"><a xlink:href="class_i_v_panel_control.html" target="_top" xlink:title="A panel control which can be styled with emboss etc.">
<polygon fill="white" stroke="#666666" points="321.5,-19 239.5,-19 239.5,0 321.5,0 321.5,-19"/>
<text text-anchor="middle" x="280.5" y="-7" font-family="Helvetica,sans-Serif" font-size="10.00">IVPanelControl</text>
</a>
</g>
</g>
<!-- Node1&#45;&gt;Node10 -->
<g id="edge9" class="edge">
<title>Node1&#45;&gt;Node10</title>
<path fill="none" stroke="#63b8ff" d="M142.59,-83.11C156.59,-66.13 179.59,-41.48 205,-27.5 215.49,-21.73 227.82,-17.79 239.39,-15.11"/>
<polygon fill="#63b8ff" stroke="#63b8ff" points="140.22,-80.46 136.72,-90.46 145.69,-84.83 140.22,-80.46"/>
</g>
<!-- Node2 -->
<g id="node2" class="node">
<title>Node2</title>
<g id="a_node2"><a xlink:href="class_i_control.html" target="_top" xlink:title="The lowest level base class of an IGraphics control.">
<polygon fill="white" stroke="#666666" points="50,-111 0,-111 0,-92 50,-92 50,-111"/>
<text text-anchor="middle" x="25" y="-99" font-family="Helvetica,sans-Serif" font-size="10.00">IControl</text>
</a>
</g>
</g>
<!-- Node2&#45;&gt;Node1 -->
<g id="edge1" class="edge">
<title>Node2&#45;&gt;Node1</title>
<path fill="none" stroke="#63b8ff" d="M61.59,-101.5C69.34,-101.5 77.6,-101.5 85.54,-101.5"/>
<polygon fill="#63b8ff" stroke="#63b8ff" points="61.84,-98 51.84,-101.5 61.84,-105 61.84,-98"/>
</g>
<!-- Node4 -->
<g id="node4" class="node">
<title>Node4</title>
<g id="a_node4"><a xlink:href="class_i_v_disk_preset_manager_control.html" target="_top" xlink:title="A &quot;meta control&quot; for a &quot;preset manager&quot; for disk&#45;based preset files It adds several child buttons.">
<polygon fill="white" stroke="#666666" points="535,-222 392,-222 392,-203 535,-203 535,-222"/>
<text text-anchor="middle" x="463.5" y="-210" font-family="Helvetica,sans-Serif" font-size="10.00">IVDiskPresetManagerControl</text>
</a>
</g>
</g>
<!-- Node3&#45;&gt;Node4 -->
<g id="edge3" class="edge">
<title>Node3&#45;&gt;Node4</title>
<path fill="none" stroke="#63b8ff" d="M350.83,-201.39C364.21,-202.73 378.25,-204.12 391.68,-205.46"/>
<polygon fill="#63b8ff" stroke="#63b8ff" points="351.57,-197.95 341.27,-200.44 350.88,-204.92 351.57,-197.95"/>
</g>
<!-- Node5 -->
<g id="node5" class="node">
<title>Node5</title>
<g id="a_node5"><a xlink:href="class_test_dir_browse_control.html" target="_top" xlink:title="Control to test IDirBrowseControlBase.">
<polygon fill="white" stroke="#666666" points="519.5,-185 407.5,-185 407.5,-166 519.5,-166 519.5,-185"/>
<text text-anchor="middle" x="463.5" y="-173" font-family="Helvetica,sans-Serif" font-size="10.00">TestDirBrowseControl</text>
</a>
</g>
</g>
<!-- Node3&#45;&gt;Node5 -->
<g id="edge4" class="edge">
<title>Node3&#45;&gt;Node5</title>
<path fill="none" stroke="#63b8ff" d="M351.12,-187.19C369.67,-185.24 389.45,-183.17 407.12,-181.31"/>
<polygon fill="#63b8ff" stroke="#63b8ff" points="350.85,-183.7 341.27,-188.23 351.58,-190.66 350.85,-183.7"/>
</g>
</g>
</svg>
        <g id="navigator" transform="translate(0 0)" fill="#404254">
                <rect fill="#f2f5e9" fill-opacity="0.5" stroke="#606060" stroke-width=".5" x="0" y="0" width="60" height="60"/>
                <use id="zoomplus" xlink:href="#zoomPlus" x="17" y="9" onmousedown="handleZoom(evt,'in')"/>
                <use id="zoomminus" xlink:href="#zoomMin" x="42" y="9" onmousedown="handleZoom(evt,'out')"/>
                <use id="reset" xlink:href="#resetDef" x="30" y="36" onmousedown="handleReset()"/>
                <g id="arrowUp" xlink:href="#dirArrow" transform="translate(30 24)" onmousedown="handlePan(0,-1)">
                  <use xlink:href="#rim" fill="#404040">
                        <set attributeName="fill" to="#808080" begin="arrowUp.mouseover" end="arrowUp.mouseout"/>
                  </use>
                  <path fill="none" stroke="white" stroke-width="1.5" d="M0,-3.0v7 M-2.5,-0.5L0,-3.0L2.5,-0.5"/>
                </g>
                <g id="arrowRight" xlink:href="#dirArrow" transform="rotate(90) translate(36 -43)" onmousedown="handlePan(1,0)">
                  <use xlink:href="#rim" fill="#404040">
                        <set attributeName="fill" to="#808080" begin="arrowRight.mouseover" end="arrowRight.mouseout"/>
                  </use>
                  <path fill="none" stroke="white" stroke-width="1.5" d="M0,-3.0v7 M-2.5,-0.5L0,-3.0L2.5,-0.5"/>
                </g>
                <g id="arrowDown" xlink:href="#dirArrow" transform="rotate(180) translate(-30 -48)" onmousedown="handlePan(0,1)">
                  <use xlink:href="#rim" fill="#404040">
                        <set attributeName="fill" to="#808080" begin="arrowDown.mouseover" end="arrowDown.mouseout"/>
                  </use>
                  <path fill="none" stroke="white" stroke-width="1.5" d="M0,-3.0v7 M-2.5,-0.5L0,-3.0L2.5,-0.5"/>
                </g>
                <g id="arrowLeft" xlink:href="#dirArrow" transform="rotate(270) translate(-36 17)" onmousedown="handlePan(-1,0)">
                  <use xlink:href="#rim" fill="#404040">
                        <set attributeName="fill" to="#808080" begin="arrowLeft.mouseover" end="arrowLeft.mouseout"/>
                  </use>
                  <path fill="none" stroke="white" stroke-width="1.5" d="M0,-3.0v7 M-2.5,-0.5L0,-3.0L2.5,-0.5"/>
                </g>
        </g>
        <svg viewBox="0 0 15 15" width="100%" height="30px" preserveAspectRatio="xMaxYMin meet">
         <g id="arrow_out" transform="scale(0.3 0.3)">
          <a xlink:href="class_i_container_base__inherit__graph_org.svg" target="_base">
           <rect id="button" ry="5" rx="5" y="6" x="6" height="38" width="38"
                fill="#f2f5e9" fill-opacity="0.5" stroke="#606060" stroke-width="1.0"/>
           <path id="arrow"
             d="M 11.500037,31.436501 C 11.940474,20.09759 22.043105,11.32322 32.158766,21.979434 L 37.068811,17.246167 C 37.068811,17.246167 37.088388,32 37.088388,32 L 22.160133,31.978069 C 22.160133,31.978069 26.997745,27.140456 26.997745,27.140456 C 18.528582,18.264221 13.291696,25.230495 11.500037,31.436501 z"
             style="fill:#404040;"/>
          </a>
         </g>
        </svg>
</svg>
