<?xml version="1.0" encoding="UTF-8" standalone="no"?>
<!DOCTYPE svg PUBLIC "-//W3C//DTD SVG 1.1//EN"
 "http://www.w3.org/Graphics/SVG/1.1/DTD/svg11.dtd">
<!-- Generated by graphviz version 7.0.5 (20221223.1930)
 -->
<!-- Title: IOscillator&lt; T &gt; Pages: 1 -->
<svg width="313pt" height="82pt"
 viewBox="0.00 0.00 312.50 82.00" xmlns="http://www.w3.org/2000/svg" xmlns:xlink="http://www.w3.org/1999/xlink">
<g id="graph0" class="graph" transform="scale(1 1) rotate(0) translate(4 78)">
<title>IOscillator&lt; T &gt;</title>
<!-- Node1 -->
<g id="node1" class="node">
<title>Node1</title>
<g id="a_node1"><a xlink:title=" ">
<polygon fill="#999999" stroke="#666666" points="203.5,-74 120.5,-74 120.5,-55 203.5,-55 203.5,-74"/>
<text text-anchor="middle" x="162" y="-62" font-family="Helvetica,sans-Serif" font-size="10.00">IOscillator&lt; T &gt;</text>
</a>
</g>
</g>
<!-- Node2 -->
<g id="node2" class="node">
<title>Node2</title>
<g id="a_node2"><a xlink:href="class_fast_sin_oscillator.html" target="_top" xlink:title=" ">
<polygon fill="white" stroke="#bfbfbf" points="114,-19 0,-19 0,0 114,0 114,-19"/>
<text text-anchor="middle" x="57" y="-7" font-family="Helvetica,sans-Serif" font-size="10.00">FastSinOscillator&lt; T &gt;</text>
</a>
</g>
</g>
<!-- Node1&#45;&gt;Node2 -->
<g id="edge1" class="edge">
<title>Node1&#45;&gt;Node2</title>
<path fill="none" stroke="#63b8ff" d="M134.07,-49.4C115.16,-39.86 90.78,-27.55 74.55,-19.36"/>
<polygon fill="#63b8ff" stroke="#63b8ff" points="132.33,-52.45 142.84,-53.83 135.49,-46.2 132.33,-52.45"/>
</g>
<!-- Node3 -->
<g id="node3" class="node">
<title>Node3</title>
<g id="a_node3"><a xlink:href="class_l_f_o.html" target="_top" xlink:title=" ">
<polygon fill="white" stroke="#bfbfbf" points="191.5,-19 132.5,-19 132.5,0 191.5,0 191.5,-19"/>
<text text-anchor="middle" x="162" y="-7" font-family="Helvetica,sans-Serif" font-size="10.00">LFO&lt; T &gt;</text>
</a>
</g>
</g>
<!-- Node1&#45;&gt;Node3 -->
<g id="edge2" class="edge">
<title>Node1&#45;&gt;Node3</title>
<path fill="none" stroke="#63b8ff" d="M162,-43.35C162,-35.1 162,-25.97 162,-19.44"/>
<polygon fill="#63b8ff" stroke="#63b8ff" points="158.5,-43.23 162,-53.23 165.5,-43.23 158.5,-43.23"/>
</g>
<!-- Node4 -->
<g id="node4" class="node">
<title>Node4</title>
<g id="a_node4"><a xlink:href="class_sin_oscillator.html" target="_top" xlink:title=" ">
<polygon fill="white" stroke="#bfbfbf" points="304.5,-19 209.5,-19 209.5,0 304.5,0 304.5,-19"/>
<text text-anchor="middle" x="257" y="-7" font-family="Helvetica,sans-Serif" font-size="10.00">SinOscillator&lt; T &gt;</text>
</a>
</g>
</g>
<!-- Node1&#45;&gt;Node4 -->
<g id="edge3" class="edge">
<title>Node1&#45;&gt;Node4</title>
<path fill="none" stroke="#63b8ff" d="M187.99,-49C204.99,-39.52 226.65,-27.43 241.12,-19.36"/>
<polygon fill="#63b8ff" stroke="#63b8ff" points="186.46,-45.84 179.44,-53.77 189.88,-51.96 186.46,-45.84"/>
</g>
</g>
</svg>
