<?xml version="1.0" encoding="UTF-8" standalone="no"?>
<!DOCTYPE svg PUBLIC "-//W3C//DTD SVG 1.1//EN"
 "http://www.w3.org/Graphics/SVG/1.1/DTD/svg11.dtd">
<!-- Generated by graphviz version 7.0.5 (20221223.1930)
 -->
<!-- Title: IPlugAPIBase Pages: 1 -->
<svg width="649pt" height="360pt"
 viewBox="0.00 0.00 649.00 360.00" xmlns="http://www.w3.org/2000/svg" xmlns:xlink="http://www.w3.org/1999/xlink">
<g id="graph0" class="graph" transform="scale(1 1) rotate(0) translate(4 356)">
<title>IPlugAPIBase</title>
<!-- Node1 -->
<g id="node1" class="node">
<title>Node1</title>
<g id="a_node1"><a xlink:title="The base class of an IPlug plug&#45;in, which interacts with the different plug&#45;in APIs.">
<polygon fill="#999999" stroke="#666666" points="366,-185 288,-185 288,-166 366,-166 366,-185"/>
<text text-anchor="middle" x="327" y="-173" font-family="Helvetica,sans-Serif" font-size="10.00">IPlugAPIBase</text>
</a>
</g>
</g>
<!-- Node4 -->
<g id="node4" class="node">
<title>Node4</title>
<g id="a_node4"><a xlink:href="class_i_plug_a_a_x.html" target="_top" xlink:title="AAX API base class for an IPlug plug&#45;in.">
<polygon fill="white" stroke="#666666" points="485.5,-352 426.5,-352 426.5,-333 485.5,-333 485.5,-352"/>
<text text-anchor="middle" x="456" y="-340" font-family="Helvetica,sans-Serif" font-size="10.00">IPlugAAX</text>
</a>
</g>
</g>
<!-- Node1&#45;&gt;Node4 -->
<g id="edge3" class="edge">
<title>Node1&#45;&gt;Node4</title>
<path fill="none" stroke="#63b8ff" d="M333.06,-196.36C341.82,-228.15 362.73,-288.66 402,-323.5 408.8,-329.53 417.65,-333.69 426.17,-336.54"/>
<polygon fill="#63b8ff" stroke="#63b8ff" points="336.49,-195.62 330.59,-186.82 329.71,-197.38 336.49,-195.62"/>
</g>
<!-- Node5 -->
<g id="node5" class="node">
<title>Node5</title>
<g id="a_node5"><a xlink:href="class_i_plug_a_p_p.html" target="_top" xlink:title="Standalone application base class for an IPlug plug&#45;in.">
<polygon fill="white" stroke="#666666" points="485.5,-315 426.5,-315 426.5,-296 485.5,-296 485.5,-315"/>
<text text-anchor="middle" x="456" y="-303" font-family="Helvetica,sans-Serif" font-size="10.00">IPlugAPP</text>
</a>
</g>
</g>
<!-- Node1&#45;&gt;Node5 -->
<g id="edge4" class="edge">
<title>Node1&#45;&gt;Node5</title>
<path fill="none" stroke="#63b8ff" d="M336.58,-195.67C348.05,-220.39 370.65,-262 402,-286.5 409.01,-291.98 417.73,-295.96 426.06,-298.82"/>
<polygon fill="#63b8ff" stroke="#63b8ff" points="339.85,-194.43 332.59,-186.72 333.46,-197.28 339.85,-194.43"/>
</g>
<!-- Node6 -->
<g id="node6" class="node">
<title>Node6</title>
<g id="a_node6"><a xlink:href="class_i_plug_a_u.html" target="_top" xlink:title="AudioUnit v2 API base class for an IPlug plug&#45;in.">
<polygon fill="white" stroke="#666666" points="482.5,-278 429.5,-278 429.5,-259 482.5,-259 482.5,-278"/>
<text text-anchor="middle" x="456" y="-266" font-family="Helvetica,sans-Serif" font-size="10.00">IPlugAU</text>
</a>
</g>
</g>
<!-- Node1&#45;&gt;Node6 -->
<g id="edge5" class="edge">
<title>Node1&#45;&gt;Node6</title>
<path fill="none" stroke="#63b8ff" d="M342.23,-193.77C355.96,-210.33 378.14,-234.38 402,-249.5 410.26,-254.73 420.15,-258.78 429.14,-261.76"/>
<polygon fill="#63b8ff" stroke="#63b8ff" points="345.12,-191.78 336.12,-186.19 339.67,-196.18 345.12,-191.78"/>
</g>
<!-- Node7 -->
<g id="node7" class="node">
<title>Node7</title>
<g id="a_node7"><a xlink:href="class_i_plug_a_uv3.html" target="_top" xlink:title="AudioUnit v3 API base class for an IPlug plug&#45;in.">
<polygon fill="white" stroke="#666666" points="488,-241 424,-241 424,-222 488,-222 488,-241"/>
<text text-anchor="middle" x="456" y="-229" font-family="Helvetica,sans-Serif" font-size="10.00">IPlugAUv3</text>
</a>
</g>
</g>
<!-- Node1&#45;&gt;Node7 -->
<g id="edge6" class="edge">
<title>Node1&#45;&gt;Node7</title>
<path fill="none" stroke="#63b8ff" d="M356.44,-190.72C370.05,-197.74 386.68,-205.95 402,-212.5 409.46,-215.69 417.65,-218.81 425.32,-221.57"/>
<polygon fill="#63b8ff" stroke="#63b8ff" points="358.09,-187.63 347.6,-186.1 354.85,-193.83 358.09,-187.63"/>
</g>
<!-- Node8 -->
<g id="node8" class="node">
<title>Node8</title>
<g id="a_node8"><a xlink:href="class_i_plug_v_s_t2.html" target="_top" xlink:title="VST2.4 API base class for an IPlug plug&#45;in.">
<polygon fill="white" stroke="#666666" points="488,-204 424,-204 424,-185 488,-185 488,-204"/>
<text text-anchor="middle" x="456" y="-192" font-family="Helvetica,sans-Serif" font-size="10.00">IPlugVST2</text>
</a>
</g>
</g>
<!-- Node1&#45;&gt;Node8 -->
<g id="edge7" class="edge">
<title>Node1&#45;&gt;Node8</title>
<path fill="none" stroke="#63b8ff" d="M377.46,-182.9C392.95,-185.22 409.61,-187.71 423.51,-189.79"/>
<polygon fill="#63b8ff" stroke="#63b8ff" points="378.35,-179.49 367.95,-181.48 377.32,-186.42 378.35,-179.49"/>
</g>
<!-- Node10 -->
<g id="node10" class="node">
<title>Node10</title>
<g id="a_node10"><a xlink:href="class_i_plug_v_s_t3.html" target="_top" xlink:title="VST3 base class for a non&#45;distributed IPlug VST3 plug&#45;in.">
<polygon fill="white" stroke="#666666" points="488,-167 424,-167 424,-148 488,-148 488,-167"/>
<text text-anchor="middle" x="456" y="-155" font-family="Helvetica,sans-Serif" font-size="10.00">IPlugVST3</text>
</a>
</g>
</g>
<!-- Node1&#45;&gt;Node10 -->
<g id="edge9" class="edge">
<title>Node1&#45;&gt;Node10</title>
<path fill="none" stroke="#63b8ff" d="M377.46,-168.49C392.95,-166.29 409.61,-163.93 423.51,-161.96"/>
<polygon fill="#63b8ff" stroke="#63b8ff" points="377.36,-164.97 367.95,-169.84 378.34,-171.9 377.36,-164.97"/>
</g>
<!-- Node11 -->
<g id="node11" class="node">
<title>Node11</title>
<g id="a_node11"><a xlink:href="class_i_plug_v_s_t3_controller.html" target="_top" xlink:title="VST3 Controller API&#45;base class for a distributed IPlug VST3 plug&#45;in.">
<polygon fill="white" stroke="#666666" points="508.5,-130 403.5,-130 403.5,-111 508.5,-111 508.5,-130"/>
<text text-anchor="middle" x="456" y="-118" font-family="Helvetica,sans-Serif" font-size="10.00">IPlugVST3Controller</text>
</a>
</g>
</g>
<!-- Node1&#45;&gt;Node11 -->
<g id="edge10" class="edge">
<title>Node1&#45;&gt;Node11</title>
<path fill="none" stroke="#63b8ff" d="M356.4,-160.16C369.99,-153.12 386.63,-144.92 402,-138.5 408.82,-135.65 416.25,-132.91 423.35,-130.46"/>
<polygon fill="#63b8ff" stroke="#63b8ff" points="354.79,-157.06 347.56,-164.81 358.04,-163.25 354.79,-157.06"/>
</g>
<!-- Node12 -->
<g id="node12" class="node">
<title>Node12</title>
<g id="a_node12"><a xlink:href="class_i_plug_v_s_t3_processor.html" target="_top" xlink:title="VST3 Processor API&#45;base class for a distributed IPlug VST3 plug&#45;in.">
<polygon fill="white" stroke="#666666" points="510,-93 402,-93 402,-74 510,-74 510,-93"/>
<text text-anchor="middle" x="456" y="-81" font-family="Helvetica,sans-Serif" font-size="10.00">IPlugVST3Processor</text>
</a>
</g>
</g>
<!-- Node1&#45;&gt;Node12 -->
<g id="edge11" class="edge">
<title>Node1&#45;&gt;Node12</title>
<path fill="none" stroke="#63b8ff" d="M342.17,-157.13C355.86,-140.51 378.01,-116.42 402,-101.5 407.03,-98.37 412.68,-95.71 418.36,-93.47"/>
<polygon fill="#63b8ff" stroke="#63b8ff" points="339.59,-154.75 336.08,-164.75 345.06,-159.13 339.59,-154.75"/>
</g>
<!-- Node13 -->
<g id="node13" class="node">
<title>Node13</title>
<g id="a_node13"><a xlink:href="class_i_plug_w_a_m.html" target="_top" xlink:title="WebAudioModule (WAM) API base class.">
<polygon fill="white" stroke="#666666" points="487.5,-56 424.5,-56 424.5,-37 487.5,-37 487.5,-56"/>
<text text-anchor="middle" x="456" y="-44" font-family="Helvetica,sans-Serif" font-size="10.00">IPlugWAM</text>
</a>
</g>
</g>
<!-- Node1&#45;&gt;Node13 -->
<g id="edge12" class="edge">
<title>Node1&#45;&gt;Node13</title>
<path fill="none" stroke="#63b8ff" d="M336.51,-155.24C347.92,-130.43 370.45,-88.74 402,-64.5 408.47,-59.53 416.4,-55.88 424.14,-53.22"/>
<polygon fill="#63b8ff" stroke="#63b8ff" points="333.38,-153.67 332.55,-164.23 339.78,-156.49 333.38,-153.67"/>
</g>
<!-- Node14 -->
<g id="node14" class="node">
<title>Node14</title>
<g id="a_node14"><a xlink:href="class_i_plug_web.html" target="_top" xlink:title="This is used for the UI &quot;editor&quot; &#45; controller side of a WAM or remote editors that communicate with d...">
<polygon fill="white" stroke="#666666" points="485.5,-19 426.5,-19 426.5,0 485.5,0 485.5,-19"/>
<text text-anchor="middle" x="456" y="-7" font-family="Helvetica,sans-Serif" font-size="10.00">IPlugWeb</text>
</a>
</g>
</g>
<!-- Node1&#45;&gt;Node14 -->
<g id="edge13" class="edge">
<title>Node1&#45;&gt;Node14</title>
<path fill="none" stroke="#63b8ff" d="M332.99,-154.55C341.65,-122.67 362.44,-62.01 402,-27.5 408.81,-21.56 417.67,-17.56 426.18,-14.87"/>
<polygon fill="#63b8ff" stroke="#63b8ff" points="329.63,-153.58 330.54,-164.14 336.41,-155.32 329.63,-153.58"/>
</g>
<!-- Node2 -->
<g id="node2" class="node">
<title>Node2</title>
<g id="a_node2"><a xlink:href="class_i_plugin_base.html" target="_top" xlink:title="Base class that contains plug&#45;in info and state manipulation methods.">
<polygon fill="white" stroke="#666666" points="252,-185 183,-185 183,-166 252,-166 252,-185"/>
<text text-anchor="middle" x="217.5" y="-173" font-family="Helvetica,sans-Serif" font-size="10.00">IPluginBase</text>
</a>
</g>
</g>
<!-- Node2&#45;&gt;Node1 -->
<g id="edge1" class="edge">
<title>Node2&#45;&gt;Node1</title>
<path fill="none" stroke="#63b8ff" d="M263.6,-175.5C271.56,-175.5 279.77,-175.5 287.53,-175.5"/>
<polygon fill="#63b8ff" stroke="#63b8ff" points="263.73,-172 253.73,-175.5 263.73,-179 263.73,-172"/>
</g>
<!-- Node3 -->
<g id="node3" class="node">
<title>Node3</title>
<g id="a_node3"><a xlink:title=" ">
<polygon fill="white" stroke="#bfbfbf" points="147,-185 0,-185 0,-166 147,-166 147,-185"/>
<text text-anchor="middle" x="73.5" y="-173" font-family="Helvetica,sans-Serif" font-size="10.00">EDITOR_DELEGATE_CLASS</text>
</a>
</g>
</g>
<!-- Node3&#45;&gt;Node2 -->
<g id="edge2" class="edge">
<title>Node3&#45;&gt;Node2</title>
<path fill="none" stroke="#63b8ff" d="M158.45,-175.5C166.96,-175.5 175.21,-175.5 182.7,-175.5"/>
<polygon fill="#63b8ff" stroke="#63b8ff" points="158.68,-172 148.68,-175.5 158.68,-179 158.68,-172"/>
</g>
<!-- Node9 -->
<g id="node9" class="node">
<title>Node9</title>
<g id="a_node9"><a xlink:href="class_i_plug_reaper_v_s_t2.html" target="_top" xlink:title="Reaper specific VST2.4 API base class for an IPlug plug&#45;in.">
<polygon fill="white" stroke="#666666" points="641,-204 546,-204 546,-185 641,-185 641,-204"/>
<text text-anchor="middle" x="593.5" y="-192" font-family="Helvetica,sans-Serif" font-size="10.00">IPlugReaperVST2</text>
</a>
</g>
</g>
<!-- Node8&#45;&gt;Node9 -->
<g id="edge8" class="edge">
<title>Node8&#45;&gt;Node9</title>
<path fill="none" stroke="#63b8ff" d="M499.68,-194.5C514.26,-194.5 530.66,-194.5 545.56,-194.5"/>
<polygon fill="#63b8ff" stroke="#63b8ff" points="499.94,-191 489.94,-194.5 499.94,-198 499.94,-191"/>
</g>
</g>
</svg>
