<?xml version="1.0" encoding="UTF-8" standalone="no"?>
<!DOCTYPE svg PUBLIC "-//W3C//DTD SVG 1.1//EN"
 "http://www.w3.org/Graphics/SVG/1.1/DTD/svg11.dtd">
<!-- Generated by graphviz version 7.0.5 (20221223.1930)
 -->
<!-- Title: IVTrackControlBase Pages: 1 -->
<svg width="568pt" height="224pt"
 viewBox="0.00 0.00 568.00 224.00" xmlns="http://www.w3.org/2000/svg" xmlns:xlink="http://www.w3.org/1999/xlink">
<g id="graph0" class="graph" transform="scale(1 1) rotate(0) translate(4 220)">
<title>IVTrackControlBase</title>
<!-- Node1 -->
<g id="node1" class="node">
<title>Node1</title>
<g id="a_node1"><a xlink:title="A base class for mult&#45;strip/track controls, such as multi&#45;sliders, meters Track refers to the channel...">
<polygon fill="#999999" stroke="#666666" points="211,-123 107,-123 107,-104 211,-104 211,-123"/>
<text text-anchor="middle" x="159" y="-111" font-family="Helvetica,sans-Serif" font-size="10.00">IVTrackControlBase</text>
</a>
</g>
</g>
<!-- Node4 -->
<g id="node4" class="node">
<title>Node4</title>
<g id="a_node4"><a xlink:href="class_i_v_meter_control.html" target="_top" xlink:title=" ">
<polygon fill="white" stroke="#666666" points="381,-216 247,-216 247,-197 381,-197 381,-216"/>
<text text-anchor="middle" x="314" y="-204" font-family="Helvetica,sans-Serif" font-size="10.00">IVMeterControl&lt; MAXNC &gt;</text>
</a>
</g>
</g>
<!-- Node1&#45;&gt;Node4 -->
<g id="edge3" class="edge">
<title>Node1&#45;&gt;Node4</title>
<path fill="none" stroke="#63b8ff" d="M176.14,-131.43C192.43,-148.48 219.11,-173.67 247,-188.5 252.98,-191.68 259.56,-194.34 266.19,-196.54"/>
<polygon fill="#63b8ff" stroke="#63b8ff" points="179.02,-129.39 169.64,-124.46 173.9,-134.16 179.02,-129.39"/>
</g>
<!-- Node6 -->
<g id="node6" class="node">
<title>Node6</title>
<g id="a_node6"><a xlink:href="class_i_v_meter_control.html" target="_top" xlink:title=" ">
<polygon fill="white" stroke="#666666" points="366,-179 262,-179 262,-160 366,-160 366,-179"/>
<text text-anchor="middle" x="314" y="-167" font-family="Helvetica,sans-Serif" font-size="10.00">IVMeterControl&lt; 1 &gt;</text>
</a>
</g>
</g>
<!-- Node1&#45;&gt;Node6 -->
<g id="edge5" class="edge">
<title>Node1&#45;&gt;Node6</title>
<path fill="none" stroke="#63b8ff" d="M190.55,-128.14C207.03,-135.72 227.87,-144.76 247,-151.5 255.29,-154.42 264.3,-157.16 272.92,-159.57"/>
<polygon fill="#63b8ff" stroke="#63b8ff" points="192.32,-125.11 181.78,-124.06 189.36,-131.45 192.32,-125.11"/>
</g>
<!-- Node7 -->
<g id="node7" class="node">
<title>Node7</title>
<g id="a_node7"><a xlink:href="class_i_v_multi_slider_control.html" target="_top" xlink:title=" ">
<polygon fill="white" stroke="#666666" points="376.5,-142 251.5,-142 251.5,-123 376.5,-123 376.5,-142"/>
<text text-anchor="middle" x="314" y="-130" font-family="Helvetica,sans-Serif" font-size="10.00">IVMultiSliderControl&lt; 1 &gt;</text>
</a>
</g>
</g>
<!-- Node1&#45;&gt;Node7 -->
<g id="edge6" class="edge">
<title>Node1&#45;&gt;Node7</title>
<path fill="none" stroke="#63b8ff" d="M222.66,-121.28C232.07,-122.45 241.76,-123.65 251.15,-124.82"/>
<polygon fill="#63b8ff" stroke="#63b8ff" points="223.23,-117.83 212.87,-120.07 222.37,-124.77 223.23,-117.83"/>
</g>
<!-- Node8 -->
<g id="node8" class="node">
<title>Node8</title>
<g id="a_node8"><a xlink:href="class_i_v_meter_control.html" target="_top" xlink:title="Vectorial multi&#45;channel capable meter control, linear or log response.">
<polygon fill="white" stroke="#666666" points="381,-105 247,-105 247,-86 381,-86 381,-105"/>
<text text-anchor="middle" x="314" y="-93" font-family="Helvetica,sans-Serif" font-size="10.00">IVMeterControl&lt; MAXNC &gt;</text>
</a>
</g>
</g>
<!-- Node1&#45;&gt;Node8 -->
<g id="edge7" class="edge">
<title>Node1&#45;&gt;Node8</title>
<path fill="none" stroke="#63b8ff" d="M222.71,-106.12C230.57,-105.2 238.63,-104.25 246.55,-103.32"/>
<polygon fill="#63b8ff" stroke="#63b8ff" points="222.4,-102.63 212.88,-107.28 223.22,-109.59 222.4,-102.63"/>
</g>
<!-- Node9 -->
<g id="node9" class="node">
<title>Node9</title>
<g id="a_node9"><a xlink:href="class_i_v_multi_slider_control.html" target="_top" xlink:title="A vectorial multi&#45;slider control.">
<polygon fill="white" stroke="#666666" points="365.5,-67.5 262.5,-67.5 262.5,-37.5 365.5,-37.5 365.5,-67.5"/>
<text text-anchor="start" x="270.5" y="-55.5" font-family="Helvetica,sans-Serif" font-size="10.00">IVMultiSliderControl</text>
<text text-anchor="middle" x="314" y="-44.5" font-family="Helvetica,sans-Serif" font-size="10.00">&lt; MAXNC &gt;</text>
</a>
</g>
</g>
<!-- Node1&#45;&gt;Node9 -->
<g id="edge9" class="edge">
<title>Node1&#45;&gt;Node9</title>
<path fill="none" stroke="#63b8ff" d="M192.49,-99.2C208.77,-92.15 228.84,-83.66 247,-76.5 254.26,-73.64 262.01,-70.71 269.56,-67.92"/>
<polygon fill="#63b8ff" stroke="#63b8ff" points="191.56,-95.78 183.78,-102.98 194.35,-102.2 191.56,-95.78"/>
</g>
<!-- Node11 -->
<g id="node11" class="node">
<title>Node11</title>
<g id="a_node11"><a xlink:href="class_i_v_range_slider_control.html" target="_top" xlink:title="A vector range slider control, with two handles.">
<polygon fill="white" stroke="#666666" points="369,-19 259,-19 259,0 369,0 369,-19"/>
<text text-anchor="middle" x="314" y="-7" font-family="Helvetica,sans-Serif" font-size="10.00">IVRangeSliderControl</text>
</a>
</g>
</g>
<!-- Node1&#45;&gt;Node11 -->
<g id="edge11" class="edge">
<title>Node1&#45;&gt;Node11</title>
<path fill="none" stroke="#63b8ff" d="M174.21,-94.99C189.98,-75.68 217.18,-45.85 247,-28.5 253.29,-24.84 260.32,-21.85 267.4,-19.41"/>
<polygon fill="#63b8ff" stroke="#63b8ff" points="171.66,-92.58 168.18,-102.58 177.14,-96.93 171.66,-92.58"/>
</g>
<!-- Node2 -->
<g id="node2" class="node">
<title>Node2</title>
<g id="a_node2"><a xlink:href="class_i_control.html" target="_top" xlink:title="The lowest level base class of an IGraphics control.">
<polygon fill="white" stroke="#666666" points="60.5,-142 10.5,-142 10.5,-123 60.5,-123 60.5,-142"/>
<text text-anchor="middle" x="35.5" y="-130" font-family="Helvetica,sans-Serif" font-size="10.00">IControl</text>
</a>
</g>
</g>
<!-- Node2&#45;&gt;Node1 -->
<g id="edge1" class="edge">
<title>Node2&#45;&gt;Node1</title>
<path fill="none" stroke="#63b8ff" d="M71.96,-126.95C82.8,-125.26 94.95,-123.36 106.63,-121.53"/>
<polygon fill="#63b8ff" stroke="#63b8ff" points="71.63,-123.46 62.29,-128.47 72.71,-130.38 71.63,-123.46"/>
</g>
<!-- Node3 -->
<g id="node3" class="node">
<title>Node3</title>
<g id="a_node3"><a xlink:href="class_i_vector_base.html" target="_top" xlink:title="A base interface to be combined with IControl for vectorial controls &quot;IVControls&quot;,...">
<polygon fill="white" stroke="#666666" points="71,-105 0,-105 0,-86 71,-86 71,-105"/>
<text text-anchor="middle" x="35.5" y="-93" font-family="Helvetica,sans-Serif" font-size="10.00">IVectorBase</text>
</a>
</g>
</g>
<!-- Node3&#45;&gt;Node1 -->
<g id="edge2" class="edge">
<title>Node3&#45;&gt;Node1</title>
<path fill="none" stroke="#63b8ff" d="M82.61,-102.33C90.54,-103.51 98.82,-104.73 106.88,-105.93"/>
<polygon fill="#63b8ff" stroke="#63b8ff" points="83.22,-98.88 72.81,-100.88 82.19,-105.81 83.22,-98.88"/>
</g>
<!-- Node5 -->
<g id="node5" class="node">
<title>Node5</title>
<g id="a_node5"><a xlink:href="class_i_v_peak_avg_meter_control.html" target="_top" xlink:title=" ">
<polygon fill="white" stroke="#666666" points="560,-160 417,-160 417,-141 560,-141 560,-160"/>
<text text-anchor="middle" x="488.5" y="-148" font-family="Helvetica,sans-Serif" font-size="10.00">IVPeakAvgMeterControl&lt; 1 &gt;</text>
</a>
</g>
</g>
<!-- Node4&#45;&gt;Node5 -->
<g id="edge4" class="edge">
<title>Node4&#45;&gt;Node5</title>
<path fill="none" stroke="#63b8ff" d="M364.31,-193.5C369.95,-191.88 375.61,-190.19 381,-188.5 408.72,-179.79 439.98,-168.45 461.43,-160.43"/>
<polygon fill="#63b8ff" stroke="#63b8ff" points="363.67,-190.04 354.99,-196.11 365.57,-196.78 363.67,-190.04"/>
</g>
<!-- Node8&#45;&gt;Node5 -->
<g id="edge8" class="edge">
<title>Node8&#45;&gt;Node5</title>
<path fill="none" stroke="#63b8ff" d="M364.07,-108.48C369.8,-110.12 375.54,-111.81 381,-113.5 408.3,-121.95 439.1,-132.8 460.53,-140.56"/>
<polygon fill="#63b8ff" stroke="#63b8ff" points="365.2,-105.17 354.63,-105.84 363.32,-111.91 365.2,-105.17"/>
</g>
<!-- Node10 -->
<g id="node10" class="node">
<title>Node10</title>
<g id="a_node10"><a xlink:href="class_i_v_multi_toggle_control.html" target="_top" xlink:title="A vectorial multi&#45;toggle control, could be used for a trigger in a step sequencer or tarnce gate.">
<polygon fill="white" stroke="#666666" points="542,-67.5 435,-67.5 435,-37.5 542,-37.5 542,-67.5"/>
<text text-anchor="start" x="443" y="-55.5" font-family="Helvetica,sans-Serif" font-size="10.00">IVMultiToggleControl</text>
<text text-anchor="middle" x="488.5" y="-44.5" font-family="Helvetica,sans-Serif" font-size="10.00">&lt; MAXNC &gt;</text>
</a>
</g>
</g>
<!-- Node9&#45;&gt;Node10 -->
<g id="edge10" class="edge">
<title>Node9&#45;&gt;Node10</title>
<path fill="none" stroke="#63b8ff" d="M377.28,-52.5C396.08,-52.5 416.52,-52.5 434.65,-52.5"/>
<polygon fill="#63b8ff" stroke="#63b8ff" points="377.34,-49 367.34,-52.5 377.34,-56 377.34,-49"/>
</g>
</g>
</svg>
