<?xml version="1.0" encoding="UTF-8" standalone="no"?>
<!DOCTYPE svg PUBLIC "-//W3C//DTD SVG 1.1//EN"
 "http://www.w3.org/Graphics/SVG/1.1/DTD/svg11.dtd">
<!-- Generated by graphviz version 7.0.5 (20221223.1930)
 -->
<!-- Title: IVMeterControl&lt; MAXNC &gt; Pages: 1 -->
<svg width="151pt" height="269pt"
 viewBox="0.00 0.00 150.50 269.00" xmlns="http://www.w3.org/2000/svg" xmlns:xlink="http://www.w3.org/1999/xlink">
<g id="graph0" class="graph" transform="scale(1 1) rotate(0) translate(4 265)">
<title>IVMeterControl&lt; MAXNC &gt;</title>
<!-- Node1 -->
<g id="node1" class="node">
<title>Node1</title>
<g id="a_node1"><a xlink:title="Vectorial multi&#45;channel capable meter control, linear or log response.">
<polygon fill="#999999" stroke="#666666" points="134,-151 0,-151 0,-132 134,-132 134,-151"/>
<text text-anchor="middle" x="67" y="-139" font-family="Helvetica,sans-Serif" font-size="10.00">IVMeterControl&lt; MAXNC &gt;</text>
</a>
</g>
</g>
<!-- Node5 -->
<g id="node5" class="node">
<title>Node5</title>
<g id="a_node5"><a xlink:href="class_i_v_peak_avg_meter_control.html" target="_top" xlink:title="Vectorial multi&#45;channel capable meter control, with log response, held&#45;peaks and filled&#45;average/rms R...">
<polygon fill="white" stroke="#666666" points="128,-96 6,-96 6,-66 128,-66 128,-96"/>
<text text-anchor="start" x="14" y="-84" font-family="Helvetica,sans-Serif" font-size="10.00">IVPeakAvgMeterControl</text>
<text text-anchor="middle" x="67" y="-73" font-family="Helvetica,sans-Serif" font-size="10.00">&lt; MAXNC &gt;</text>
</a>
</g>
</g>
<!-- Node1&#45;&gt;Node5 -->
<g id="edge4" class="edge">
<title>Node1&#45;&gt;Node5</title>
<path fill="none" stroke="#63b8ff" d="M67,-120.51C67,-112.49 67,-103.43 67,-96.11"/>
<polygon fill="#63b8ff" stroke="#63b8ff" points="63.5,-120.35 67,-130.35 70.5,-120.35 63.5,-120.35"/>
</g>
<!-- Node2 -->
<g id="node2" class="node">
<title>Node2</title>
<g id="a_node2"><a xlink:href="class_i_v_track_control_base.html" target="_top" xlink:title="A base class for mult&#45;strip/track controls, such as multi&#45;sliders, meters Track refers to the channel...">
<polygon fill="white" stroke="#666666" points="119,-206 15,-206 15,-187 119,-187 119,-206"/>
<text text-anchor="middle" x="67" y="-194" font-family="Helvetica,sans-Serif" font-size="10.00">IVTrackControlBase</text>
</a>
</g>
</g>
<!-- Node2&#45;&gt;Node1 -->
<g id="edge1" class="edge">
<title>Node2&#45;&gt;Node1</title>
<path fill="none" stroke="#63b8ff" d="M67,-175.35C67,-167.1 67,-157.97 67,-151.44"/>
<polygon fill="#63b8ff" stroke="#63b8ff" points="63.5,-175.23 67,-185.23 70.5,-175.23 63.5,-175.23"/>
</g>
<!-- Node3 -->
<g id="node3" class="node">
<title>Node3</title>
<g id="a_node3"><a xlink:href="class_i_control.html" target="_top" xlink:title="The lowest level base class of an IGraphics control.">
<polygon fill="white" stroke="#666666" points="53,-261 3,-261 3,-242 53,-242 53,-261"/>
<text text-anchor="middle" x="28" y="-249" font-family="Helvetica,sans-Serif" font-size="10.00">IControl</text>
</a>
</g>
</g>
<!-- Node3&#45;&gt;Node2 -->
<g id="edge2" class="edge">
<title>Node3&#45;&gt;Node2</title>
<path fill="none" stroke="#63b8ff" d="M41.14,-232.65C47.62,-223.84 55.16,-213.59 60.42,-206.44"/>
<polygon fill="#63b8ff" stroke="#63b8ff" points="38.44,-230.4 35.34,-240.53 44.08,-234.55 38.44,-230.4"/>
</g>
<!-- Node4 -->
<g id="node4" class="node">
<title>Node4</title>
<g id="a_node4"><a xlink:href="class_i_vector_base.html" target="_top" xlink:title="A base interface to be combined with IControl for vectorial controls &quot;IVControls&quot;,...">
<polygon fill="white" stroke="#666666" points="142.5,-261 71.5,-261 71.5,-242 142.5,-242 142.5,-261"/>
<text text-anchor="middle" x="107" y="-249" font-family="Helvetica,sans-Serif" font-size="10.00">IVectorBase</text>
</a>
</g>
</g>
<!-- Node4&#45;&gt;Node2 -->
<g id="edge3" class="edge">
<title>Node4&#45;&gt;Node2</title>
<path fill="none" stroke="#63b8ff" d="M93.53,-232.65C86.88,-223.84 79.14,-213.59 73.75,-206.44"/>
<polygon fill="#63b8ff" stroke="#63b8ff" points="90.67,-234.67 99.48,-240.54 96.25,-230.45 90.67,-234.67"/>
</g>
<!-- Node6 -->
<g id="node6" class="node">
<title>Node6</title>
<g id="a_node6"><a xlink:href="class_i_v_l_e_d_meter_control.html" target="_top" xlink:title="Vectorial multi&#45;channel capable meter control with segmented LEDs, log response.">
<polygon fill="white" stroke="#666666" points="120.5,-30 13.5,-30 13.5,0 120.5,0 120.5,-30"/>
<text text-anchor="start" x="21.5" y="-18" font-family="Helvetica,sans-Serif" font-size="10.00">IVLEDMeterControl&lt;</text>
<text text-anchor="middle" x="67" y="-7" font-family="Helvetica,sans-Serif" font-size="10.00"> MAXNC &gt;</text>
</a>
</g>
</g>
<!-- Node5&#45;&gt;Node6 -->
<g id="edge5" class="edge">
<title>Node5&#45;&gt;Node6</title>
<path fill="none" stroke="#63b8ff" d="M67,-54.39C67,-46.13 67,-37.28 67,-30.16"/>
<polygon fill="#63b8ff" stroke="#63b8ff" points="63.5,-54.28 67,-64.28 70.5,-54.28 63.5,-54.28"/>
</g>
</g>
</svg>
