<?xml version="1.0" encoding="UTF-8" standalone="no"?>
<!DOCTYPE svg PUBLIC "-//W3C//DTD SVG 1.1//EN"
 "http://www.w3.org/Graphics/SVG/1.1/DTD/svg11.dtd">
<!-- Generated by graphviz version 2.36.0 (20140111.2315)
 -->
<!-- Title: IPluginBase Pages: 1 -->
<!--zoomable 332 -->
<svg id="main" version="1.1" xmlns="http://www.w3.org/2000/svg" xmlns:xlink="http://www.w3.org/1999/xlink" xml:space="preserve" onload="init(evt)">
<style type="text/css"><![CDATA[
.edge:hover path { stroke: red; }
.edge:hover polygon { stroke: red; fill: red; }
]]></style>
<script type="text/javascript"><![CDATA[
var edges = document.getElementsByTagName('g');
if (edges && edges.length) {
  for (var i=0;i<edges.length;i++) {
    if (edges[i].id.substr(0,4)=='edge') {
      edges[i].setAttribute('class','edge');
    }
  }
}
]]></script>
        <defs>
                <circle id="rim" cx="0" cy="0" r="7"/>
                <circle id="rim2" cx="0" cy="0" r="3.5"/>
                <g id="zoomPlus">
                        <use xlink:href="#rim" fill="#404040">
                                <set attributeName="fill" to="#808080" begin="zoomplus.mouseover" end="zoomplus.mouseout"/>
                        </use>
                        <path d="M-4,0h8M0,-4v8" fill="none" stroke="white" stroke-width="1.5" pointer-events="none"/>
                </g>
                <g id="zoomMin">
                        <use xlink:href="#rim" fill="#404040">
                                <set attributeName="fill" to="#808080" begin="zoomminus.mouseover" end="zoomminus.mouseout"/>
                        </use>
                        <path d="M-4,0h8" fill="none" stroke="white" stroke-width="1.5" pointer-events="none"/>
                </g>
                <g id="dirArrow">
                        <path fill="none" stroke="white" stroke-width="1.5" d="M0,-3.0v7 M-2.5,-0.5L0,-3.0L2.5,-0.5"/>
                </g>
               <g id="resetDef">
                       <use xlink:href="#rim2" fill="#404040">
                               <set attributeName="fill" to="#808080" begin="reset.mouseover" end="reset.mouseout"/>
                       </use>
               </g>
        </defs>

<script type="text/javascript">
var viewWidth = 656;
var viewHeight = 332;
var sectionId = 'dynsection-0';
</script>
<script xlink:href="svgpan.js"/>
<svg id="graph" class="graph">
<g id="viewport">
<title>IPluginBase</title>
<polygon fill="white" stroke="none" points="-4,4 -4,-328 652,-328 652,4 -4,4"/>
<!-- Node1 -->
<g id="node1" class="node"><title>Node1</title>
<polygon fill="#bfbfbf" stroke="black" points="188.5,-152.5 188.5,-171.5 257.5,-171.5 257.5,-152.5 188.5,-152.5"/>
<text text-anchor="middle" x="223" y="-159.5" font-family="Helvetica,sans-Serif" font-size="10.00">IPluginBase</text>
</g>
<!-- Node3 -->
<g id="node3" class="node"><title>Node3</title>
<g id="a_node3"><a xlink:href="class_i_plug_a_p_i_base.html" target="_top" xlink:title="The base class of an IPlug plug&#45;in, which interacts with the different plug&#45;in APIs. ">
<polygon fill="white" stroke="black" points="294,-152.5 294,-171.5 372,-171.5 372,-152.5 294,-152.5"/>
<text text-anchor="middle" x="333" y="-159.5" font-family="Helvetica,sans-Serif" font-size="10.00">IPlugAPIBase</text>
</a>
</g>
</g>
<!-- Node1&#45;&gt;Node3 -->
<g id="edge2" class="edge"><title>Node1&#45;&gt;Node3</title>
<path fill="none" stroke="midnightblue" d="M267.585,-162C276.304,-162 285.4,-162 293.916,-162"/>
<polygon fill="midnightblue" stroke="midnightblue" points="267.58,-158.5 257.58,-162 267.58,-165.5 267.58,-158.5"/>
</g>
<!-- Node2 -->
<g id="node2" class="node"><title>Node2</title>
<g id="a_node2"><a xlink:href="class_i_editor_delegate.html" target="_top" xlink:title="This pure virtual interface delegates communication in both directions between a UI editor and someth...">
<polygon fill="white" stroke="black" points="0,-152.5 0,-171.5 152,-171.5 152,-152.5 0,-152.5"/>
<text text-anchor="middle" x="76" y="-159.5" font-family="Helvetica,sans-Serif" font-size="10.00">EDITOR_DELEGATE_CLASS</text>
</a>
</g>
</g>
<!-- Node2&#45;&gt;Node1 -->
<g id="edge1" class="edge"><title>Node2&#45;&gt;Node1</title>
<path fill="none" stroke="midnightblue" d="M162.129,-162C171.345,-162 180.279,-162 188.313,-162"/>
<polygon fill="midnightblue" stroke="midnightblue" points="162.048,-158.5 152.048,-162 162.048,-165.5 162.048,-158.5"/>
</g>
<!-- Node4 -->
<g id="node4" class="node"><title>Node4</title>
<g id="a_node4"><a xlink:href="class_i_plug_a_a_x.html" target="_top" xlink:title="AAX API base class for an IPlug plug&#45;in. ">
<polygon fill="white" stroke="black" points="432.5,-304.5 432.5,-323.5 491.5,-323.5 491.5,-304.5 432.5,-304.5"/>
<text text-anchor="middle" x="462" y="-311.5" font-family="Helvetica,sans-Serif" font-size="10.00">IPlugAAX</text>
</a>
</g>
</g>
<!-- Node3&#45;&gt;Node4 -->
<g id="edge3" class="edge"><title>Node3&#45;&gt;Node4</title>
<path fill="none" stroke="midnightblue" d="M339.818,-181.22C349.452,-209.922 371.376,-263.923 408,-295 414.931,-300.882 423.821,-304.997 432.332,-307.854"/>
<polygon fill="midnightblue" stroke="midnightblue" points="343.107,-180.015 336.723,-171.56 336.441,-182.151 343.107,-180.015"/>
</g>
<!-- Node5 -->
<g id="node5" class="node"><title>Node5</title>
<g id="a_node5"><a xlink:href="class_i_plug_a_p_p.html" target="_top" xlink:title="Standalone application base class for an IPlug plug&#45;in. ">
<polygon fill="white" stroke="black" points="432.5,-266.5 432.5,-285.5 491.5,-285.5 491.5,-266.5 432.5,-266.5"/>
<text text-anchor="middle" x="462" y="-273.5" font-family="Helvetica,sans-Serif" font-size="10.00">IPlugAPP</text>
</a>
</g>
</g>
<!-- Node3&#45;&gt;Node5 -->
<g id="edge4" class="edge"><title>Node3&#45;&gt;Node5</title>
<path fill="none" stroke="midnightblue" d="M344.06,-180.529C356.479,-201.787 379.493,-236.362 408,-257 415.205,-262.216 423.985,-266.125 432.309,-268.996"/>
<polygon fill="midnightblue" stroke="midnightblue" points="346.946,-178.522 338.978,-171.539 340.853,-181.967 346.946,-178.522"/>
</g>
<!-- Node6 -->
<g id="node6" class="node"><title>Node6</title>
<g id="a_node6"><a xlink:href="class_i_plug_a_u.html" target="_top" xlink:title="AudioUnit v2 API base class for an IPlug plug&#45;in. ">
<polygon fill="white" stroke="black" points="435.5,-228.5 435.5,-247.5 488.5,-247.5 488.5,-228.5 435.5,-228.5"/>
<text text-anchor="middle" x="462" y="-235.5" font-family="Helvetica,sans-Serif" font-size="10.00">IPlugAU</text>
</a>
</g>
</g>
<!-- Node3&#45;&gt;Node6 -->
<g id="edge5" class="edge"><title>Node3&#45;&gt;Node6</title>
<path fill="none" stroke="midnightblue" d="M351.901,-178.378C366.236,-190.827 387.303,-207.686 408,-219 416.577,-223.689 426.54,-227.614 435.498,-230.656"/>
<polygon fill="midnightblue" stroke="midnightblue" points="354.097,-175.647 344.293,-171.632 349.453,-180.885 354.097,-175.647"/>
</g>
<!-- Node7 -->
<g id="node7" class="node"><title>Node7</title>
<g id="a_node7"><a xlink:href="class_i_plug_v_s_t2.html" target="_top" xlink:title="VST2.4 API base class for an IPlug plug&#45;in. ">
<polygon fill="white" stroke="black" points="430,-190.5 430,-209.5 494,-209.5 494,-190.5 430,-190.5"/>
<text text-anchor="middle" x="462" y="-197.5" font-family="Helvetica,sans-Serif" font-size="10.00">IPlugVST2</text>
</a>
</g>
</g>
<!-- Node3&#45;&gt;Node7 -->
<g id="edge6" class="edge"><title>Node3&#45;&gt;Node7</title>
<path fill="none" stroke="midnightblue" d="M376.05,-174.582C393.605,-179.835 413.639,-185.829 429.841,-190.677"/>
<polygon fill="midnightblue" stroke="midnightblue" points="376.631,-171.103 366.047,-171.589 374.624,-177.809 376.631,-171.103"/>
</g>
<!-- Node9 -->
<g id="node9" class="node"><title>Node9</title>
<g id="a_node9"><a xlink:href="class_i_plug_v_s_t3.html" target="_top" xlink:title="VST3 base class for a non&#45;distributed IPlug VST3 plug&#45;in. ">
<polygon fill="white" stroke="black" points="430,-152.5 430,-171.5 494,-171.5 494,-152.5 430,-152.5"/>
<text text-anchor="middle" x="462" y="-159.5" font-family="Helvetica,sans-Serif" font-size="10.00">IPlugVST3</text>
</a>
</g>
</g>
<!-- Node3&#45;&gt;Node9 -->
<g id="edge8" class="edge"><title>Node3&#45;&gt;Node9</title>
<path fill="none" stroke="midnightblue" d="M382.314,-162C398.216,-162 415.468,-162 429.754,-162"/>
<polygon fill="midnightblue" stroke="midnightblue" points="382.104,-158.5 372.104,-162 382.104,-165.5 382.104,-158.5"/>
</g>
<!-- Node10 -->
<g id="node10" class="node"><title>Node10</title>
<g id="a_node10"><a xlink:href="class_i_plug_v_s_t3_controller.html" target="_top" xlink:title="VST3 Controller base class for a distributed IPlug VST3 plug&#45;in. ">
<polygon fill="white" stroke="black" points="409,-114.5 409,-133.5 515,-133.5 515,-114.5 409,-114.5"/>
<text text-anchor="middle" x="462" y="-121.5" font-family="Helvetica,sans-Serif" font-size="10.00">IPlugVST3Controller</text>
</a>
</g>
</g>
<!-- Node3&#45;&gt;Node10 -->
<g id="edge9" class="edge"><title>Node3&#45;&gt;Node10</title>
<path fill="none" stroke="midnightblue" d="M375.894,-149.465C393.171,-144.295 412.871,-138.401 428.963,-133.586"/>
<polygon fill="midnightblue" stroke="midnightblue" points="374.624,-146.191 366.047,-152.411 376.631,-152.897 374.624,-146.191"/>
</g>
<!-- Node11 -->
<g id="node11" class="node"><title>Node11</title>
<g id="a_node11"><a xlink:href="class_i_plug_v_s_t3_processor.html" target="_top" xlink:title="VST3 Processor base class for a distributed IPlug VST3 plug&#45;in. ">
<polygon fill="white" stroke="black" points="408,-76.5 408,-95.5 516,-95.5 516,-76.5 408,-76.5"/>
<text text-anchor="middle" x="462" y="-83.5" font-family="Helvetica,sans-Serif" font-size="10.00">IPlugVST3Processor</text>
</a>
</g>
</g>
<!-- Node3&#45;&gt;Node11 -->
<g id="edge10" class="edge"><title>Node3&#45;&gt;Node11</title>
<path fill="none" stroke="midnightblue" d="M351.901,-145.622C366.236,-133.173 387.303,-116.314 408,-105 414.604,-101.39 422.03,-98.2323 429.187,-95.582"/>
<polygon fill="midnightblue" stroke="midnightblue" points="349.453,-143.115 344.293,-152.368 354.097,-148.353 349.453,-143.115"/>
</g>
<!-- Node12 -->
<g id="node12" class="node"><title>Node12</title>
<g id="a_node12"><a xlink:href="class_i_plug_w_a_m.html" target="_top" xlink:title="WebAudioModule (WAM) API base class. ">
<polygon fill="white" stroke="black" points="430,-38.5 430,-57.5 494,-57.5 494,-38.5 430,-38.5"/>
<text text-anchor="middle" x="462" y="-45.5" font-family="Helvetica,sans-Serif" font-size="10.00">IPlugWAM</text>
</a>
</g>
</g>
<!-- Node3&#45;&gt;Node12 -->
<g id="edge11" class="edge"><title>Node3&#45;&gt;Node12</title>
<path fill="none" stroke="midnightblue" d="M344.06,-143.471C356.479,-122.213 379.493,-87.6379 408,-67 414.493,-62.2997 422.264,-58.6612 429.828,-55.8864"/>
<polygon fill="midnightblue" stroke="midnightblue" points="340.853,-142.033 338.978,-152.461 346.946,-145.478 340.853,-142.033"/>
</g>
<!-- Node13 -->
<g id="node13" class="node"><title>Node13</title>
<g id="a_node13"><a xlink:href="class_i_plug_web.html" target="_top" xlink:title="This is used for the UI &quot;editor&quot; &#45; controller side of a WAM or remote editors that communicate with d...">
<polygon fill="white" stroke="black" points="432.5,-0.5 432.5,-19.5 491.5,-19.5 491.5,-0.5 432.5,-0.5"/>
<text text-anchor="middle" x="462" y="-7.5" font-family="Helvetica,sans-Serif" font-size="10.00">IPlugWeb</text>
</a>
</g>
</g>
<!-- Node3&#45;&gt;Node13 -->
<g id="edge12" class="edge"><title>Node3&#45;&gt;Node13</title>
<path fill="none" stroke="midnightblue" d="M339.818,-142.78C349.452,-114.078 371.376,-60.0767 408,-29 414.931,-23.1184 423.821,-19.0027 432.332,-16.146"/>
<polygon fill="midnightblue" stroke="midnightblue" points="336.441,-141.849 336.723,-152.44 343.107,-143.985 336.441,-141.849"/>
</g>
<!-- Node8 -->
<g id="node8" class="node"><title>Node8</title>
<g id="a_node8"><a xlink:href="class_i_plug_reaper_v_s_t2.html" target="_top" xlink:title="Reaper specific VST2.4 API base class for an IPlug plug&#45;in. ">
<polygon fill="white" stroke="black" points="552.5,-190.5 552.5,-209.5 647.5,-209.5 647.5,-190.5 552.5,-190.5"/>
<text text-anchor="middle" x="600" y="-197.5" font-family="Helvetica,sans-Serif" font-size="10.00">IPlugReaperVST2</text>
</a>
</g>
</g>
<!-- Node7&#45;&gt;Node8 -->
<g id="edge7" class="edge"><title>Node7&#45;&gt;Node8</title>
<path fill="none" stroke="midnightblue" d="M504.336,-200C519.53,-200 536.834,-200 552.455,-200"/>
<polygon fill="midnightblue" stroke="midnightblue" points="504.201,-196.5 494.201,-200 504.201,-203.5 504.201,-196.5"/>
</g>
</g>
</svg>
        <g id="navigator" transform="translate(0 0)" fill="#404254">
                <rect fill="#f2f5e9" fill-opacity="0.5" stroke="#606060" stroke-width=".5" x="0" y="0" width="60" height="60"/>
                <use id="zoomplus" xlink:href="#zoomPlus" x="17" y="9" onmousedown="handleZoom(evt,'in')"/>
                <use id="zoomminus" xlink:href="#zoomMin" x="42" y="9" onmousedown="handleZoom(evt,'out')"/>
                <use id="reset" xlink:href="#resetDef" x="30" y="36" onmousedown="handleReset()"/>
                <g id="arrowUp" xlink:href="#dirArrow" transform="translate(30 24)" onmousedown="handlePan(0,-1)">
                  <use xlink:href="#rim" fill="#404040">
                        <set attributeName="fill" to="#808080" begin="arrowUp.mouseover" end="arrowUp.mouseout"/>
                  </use>
                  <path fill="none" stroke="white" stroke-width="1.5" d="M0,-3.0v7 M-2.5,-0.5L0,-3.0L2.5,-0.5"/>
                </g>
                <g id="arrowRight" xlink:href="#dirArrow" transform="rotate(90) translate(36 -43)" onmousedown="handlePan(1,0)">
                  <use xlink:href="#rim" fill="#404040">
                        <set attributeName="fill" to="#808080" begin="arrowRight.mouseover" end="arrowRight.mouseout"/>
                  </use>
                  <path fill="none" stroke="white" stroke-width="1.5" d="M0,-3.0v7 M-2.5,-0.5L0,-3.0L2.5,-0.5"/>
                </g>
                <g id="arrowDown" xlink:href="#dirArrow" transform="rotate(180) translate(-30 -48)" onmousedown="handlePan(0,1)">
                  <use xlink:href="#rim" fill="#404040">
                        <set attributeName="fill" to="#808080" begin="arrowDown.mouseover" end="arrowDown.mouseout"/>
                  </use>
                  <path fill="none" stroke="white" stroke-width="1.5" d="M0,-3.0v7 M-2.5,-0.5L0,-3.0L2.5,-0.5"/>
                </g>
                <g id="arrowLeft" xlink:href="#dirArrow" transform="rotate(270) translate(-36 17)" onmousedown="handlePan(-1,0)">
                  <use xlink:href="#rim" fill="#404040">
                        <set attributeName="fill" to="#808080" begin="arrowLeft.mouseover" end="arrowLeft.mouseout"/>
                  </use>
                  <path fill="none" stroke="white" stroke-width="1.5" d="M0,-3.0v7 M-2.5,-0.5L0,-3.0L2.5,-0.5"/>
                </g>
        </g>
        <svg viewBox="0 0 15 15" width="100%" height="30px" preserveAspectRatio="xMaxYMin meet">
         <g id="arrow_out" transform="scale(0.3 0.3)">
          <a xlink:href="class_i_plugin_base__inherit__graph_org.svg" target="_base">
           <rect id="button" ry="5" rx="5" y="6" x="6" height="38" width="38"
                fill="#f2f5e9" fill-opacity="0.5" stroke="#606060" stroke-width="1.0"/>
           <path id="arrow"
             d="M 11.500037,31.436501 C 11.940474,20.09759 22.043105,11.32322 32.158766,21.979434 L 37.068811,17.246167 C 37.068811,17.246167 37.088388,32 37.088388,32 L 22.160133,31.978069 C 22.160133,31.978069 26.997745,27.140456 26.997745,27.140456 C 18.528582,18.264221 13.291696,25.230495 11.500037,31.436501 z"
             style="fill:#404040;"/>
          </a>
         </g>
        </svg>
</svg>
