<?xml version="1.0" encoding="UTF-8" standalone="no"?>
<!DOCTYPE svg PUBLIC "-//W3C//DTD SVG 1.1//EN"
 "http://www.w3.org/Graphics/SVG/1.1/DTD/svg11.dtd">
<!-- Generated by graphviz version 2.36.0 (20140111.2315)
 -->
<!-- Title: IKnobControlBase Pages: 1 -->
<svg width="506pt" height="370pt"
 viewBox="0.00 0.00 506.00 370.00" xmlns="http://www.w3.org/2000/svg" xmlns:xlink="http://www.w3.org/1999/xlink">
<g id="graph0" class="graph" transform="scale(1 1) rotate(0) translate(4 366)">
<title>IKnobControlBase</title>
<polygon fill="white" stroke="none" points="-4,4 -4,-366 502,-366 502,4 -4,4"/>
<!-- Node1 -->
<g id="node1" class="node"><title>Node1</title>
<polygon fill="#bfbfbf" stroke="black" points="88,-171.5 88,-190.5 184,-190.5 184,-171.5 88,-171.5"/>
<text text-anchor="middle" x="136" y="-178.5" font-family="Helvetica,sans-Serif" font-size="10.00">IKnobControlBase</text>
</g>
<!-- Node3 -->
<g id="node3" class="node"><title>Node3</title>
<g id="a_node3"><a xlink:href="class_i_b_knob_control.html" target="_top" xlink:title="A bitmap knob/dial control that draws a frame from a stacked bitmap. ">
<polygon fill="white" stroke="black" points="244,-342.5 244,-361.5 324,-361.5 324,-342.5 244,-342.5"/>
<text text-anchor="middle" x="284" y="-349.5" font-family="Helvetica,sans-Serif" font-size="10.00">IBKnobControl</text>
</a>
</g>
</g>
<!-- Node1&#45;&gt;Node3 -->
<g id="edge2" class="edge"><title>Node1&#45;&gt;Node3</title>
<path fill="none" stroke="midnightblue" d="M142.345,-200.516C152.215,-232.878 176.379,-297.585 220,-333 226.829,-338.545 235.25,-342.473 243.687,-345.255"/>
<polygon fill="midnightblue" stroke="midnightblue" points="145.693,-199.494 139.539,-190.87 138.972,-201.45 145.693,-199.494"/>
</g>
<!-- Node5 -->
<g id="node5" class="node"><title>Node5</title>
<g id="a_node5"><a xlink:href="class_i_s_v_g_knob.html" target="_top" xlink:title="A vector knob/dial control which rotates an SVG image. ">
<polygon fill="white" stroke="black" points="252.5,-304.5 252.5,-323.5 315.5,-323.5 315.5,-304.5 252.5,-304.5"/>
<text text-anchor="middle" x="284" y="-311.5" font-family="Helvetica,sans-Serif" font-size="10.00">ISVGKnob</text>
</a>
</g>
</g>
<!-- Node1&#45;&gt;Node5 -->
<g id="edge4" class="edge"><title>Node1&#45;&gt;Node5</title>
<path fill="none" stroke="midnightblue" d="M145.812,-199.85C158.613,-225.197 184.73,-269.969 220,-295 229.503,-301.744 241.434,-306.13 252.351,-308.967"/>
<polygon fill="midnightblue" stroke="midnightblue" points="148.821,-198.034 141.29,-190.581 142.529,-201.103 148.821,-198.034"/>
</g>
<!-- Node6 -->
<g id="node6" class="node"><title>Node6</title>
<g id="a_node6"><a xlink:href="class_i_v_knob_control.html" target="_top" xlink:title="A vector knob control drawn using graphics primitves. ">
<polygon fill="white" stroke="black" points="244,-266.5 244,-285.5 324,-285.5 324,-266.5 244,-266.5"/>
<text text-anchor="middle" x="284" y="-273.5" font-family="Helvetica,sans-Serif" font-size="10.00">IVKnobControl</text>
</a>
</g>
</g>
<!-- Node1&#45;&gt;Node6 -->
<g id="edge5" class="edge"><title>Node1&#45;&gt;Node6</title>
<path fill="none" stroke="midnightblue" d="M151.596,-198.3C166.973,-215.494 192.708,-241.476 220,-257 227.348,-261.18 235.712,-264.531 243.891,-267.183"/>
<polygon fill="midnightblue" stroke="midnightblue" points="154.131,-195.882 144.917,-190.65 148.857,-200.485 154.131,-195.882"/>
</g>
<!-- Node7 -->
<g id="node7" class="node"><title>Node7</title>
<g id="a_node7"><a xlink:href="class_test_arc_control.html" target="_top" xlink:title="Control to test drawing arcs. ">
<polygon fill="white" stroke="black" points="242.5,-228.5 242.5,-247.5 325.5,-247.5 325.5,-228.5 242.5,-228.5"/>
<text text-anchor="middle" x="284" y="-235.5" font-family="Helvetica,sans-Serif" font-size="10.00">TestArcControl</text>
</a>
</g>
</g>
<!-- Node1&#45;&gt;Node7 -->
<g id="edge6" class="edge"><title>Node1&#45;&gt;Node7</title>
<path fill="none" stroke="midnightblue" d="M165.068,-195.01C180.961,-202.647 201.338,-211.951 220,-219 229.084,-222.431 239.081,-225.678 248.384,-228.486"/>
<polygon fill="midnightblue" stroke="midnightblue" points="166.331,-191.732 155.807,-190.505 163.269,-198.027 166.331,-191.732"/>
</g>
<!-- Node8 -->
<g id="node8" class="node"><title>Node8</title>
<g id="a_node8"><a xlink:href="class_test_blend_control.html" target="_top" xlink:title="Control to test blend methods. ">
<polygon fill="white" stroke="black" points="238,-190.5 238,-209.5 330,-209.5 330,-190.5 238,-190.5"/>
<text text-anchor="middle" x="284" y="-197.5" font-family="Helvetica,sans-Serif" font-size="10.00">TestBlendControl</text>
</a>
</g>
</g>
<!-- Node1&#45;&gt;Node8 -->
<g id="edge7" class="edge"><title>Node1&#45;&gt;Node8</title>
<path fill="none" stroke="midnightblue" d="M194.666,-188.504C209.008,-190.371 224.177,-192.345 237.822,-194.121"/>
<polygon fill="midnightblue" stroke="midnightblue" points="194.77,-184.989 184.402,-187.169 193.867,-191.93 194.77,-184.989"/>
</g>
<!-- Node9 -->
<g id="node9" class="node"><title>Node9</title>
<g id="a_node9"><a xlink:href="class_test_gradient_control.html" target="_top" xlink:title="Control to test drawing gradients with path based drawing backends. ">
<polygon fill="white" stroke="black" points="232,-152.5 232,-171.5 336,-171.5 336,-152.5 232,-152.5"/>
<text text-anchor="middle" x="284" y="-159.5" font-family="Helvetica,sans-Serif" font-size="10.00">TestGradientControl</text>
</a>
</g>
</g>
<!-- Node1&#45;&gt;Node9 -->
<g id="edge8" class="edge"><title>Node1&#45;&gt;Node9</title>
<path fill="none" stroke="midnightblue" d="M194.556,-173.51C206.855,-171.909 219.766,-170.229 231.806,-168.662"/>
<polygon fill="midnightblue" stroke="midnightblue" points="193.867,-170.07 184.402,-174.831 194.77,-177.011 193.867,-170.07"/>
</g>
<!-- Node10 -->
<g id="node10" class="node"><title>Node10</title>
<g id="a_node10"><a xlink:href="class_test_layer_control.html" target="_top" xlink:title="Control to test IGraphics layers. ">
<polygon fill="white" stroke="black" points="238,-114.5 238,-133.5 330,-133.5 330,-114.5 238,-114.5"/>
<text text-anchor="middle" x="284" y="-121.5" font-family="Helvetica,sans-Serif" font-size="10.00">TestLayerControl</text>
</a>
</g>
</g>
<!-- Node1&#45;&gt;Node10 -->
<g id="edge9" class="edge"><title>Node1&#45;&gt;Node10</title>
<path fill="none" stroke="midnightblue" d="M165.068,-166.99C180.961,-159.353 201.338,-150.049 220,-143 229.084,-139.569 239.081,-136.322 248.384,-133.514"/>
<polygon fill="midnightblue" stroke="midnightblue" points="163.269,-163.973 155.807,-171.495 166.331,-170.268 163.269,-163.973"/>
</g>
<!-- Node11 -->
<g id="node11" class="node"><title>Node11</title>
<g id="a_node11"><a xlink:href="class_test_multi_path_control.html" target="_top" xlink:title="Control to test drawing paths in path&#45;based drawing backends. ">
<polygon fill="white" stroke="black" points="229.5,-76.5 229.5,-95.5 338.5,-95.5 338.5,-76.5 229.5,-76.5"/>
<text text-anchor="middle" x="284" y="-83.5" font-family="Helvetica,sans-Serif" font-size="10.00">TestMultiPathControl</text>
</a>
</g>
</g>
<!-- Node1&#45;&gt;Node11 -->
<g id="edge10" class="edge"><title>Node1&#45;&gt;Node11</title>
<path fill="none" stroke="midnightblue" d="M151.596,-163.7C166.973,-146.506 192.708,-120.524 220,-105 226.653,-101.216 234.139,-98.1108 241.566,-95.5889"/>
<polygon fill="midnightblue" stroke="midnightblue" points="148.857,-161.515 144.917,-171.35 154.131,-166.118 148.857,-161.515"/>
</g>
<!-- Node12 -->
<g id="node12" class="node"><title>Node12</title>
<g id="a_node12"><a xlink:href="class_test_poly_control.html" target="_top" xlink:title="Control to test drawing polygons. ">
<polygon fill="white" stroke="black" points="240.5,-38.5 240.5,-57.5 327.5,-57.5 327.5,-38.5 240.5,-38.5"/>
<text text-anchor="middle" x="284" y="-45.5" font-family="Helvetica,sans-Serif" font-size="10.00">TestPolyControl</text>
</a>
</g>
</g>
<!-- Node1&#45;&gt;Node12 -->
<g id="edge11" class="edge"><title>Node1&#45;&gt;Node12</title>
<path fill="none" stroke="midnightblue" d="M145.812,-162.15C158.613,-136.803 184.73,-92.0305 220,-67 226.056,-62.7024 233.098,-59.3623 240.235,-56.7705"/>
<polygon fill="midnightblue" stroke="midnightblue" points="142.529,-160.897 141.29,-171.419 148.821,-163.966 142.529,-160.897"/>
</g>
<!-- Node13 -->
<g id="node13" class="node"><title>Node13</title>
<g id="a_node13"><a xlink:href="class_test_rotating_mask_control.html" target="_top" xlink:title="TestRotatingMaskControl">
<polygon fill="white" stroke="black" points="220,-0.5 220,-19.5 348,-19.5 348,-0.5 220,-0.5"/>
<text text-anchor="middle" x="284" y="-7.5" font-family="Helvetica,sans-Serif" font-size="10.00">TestRotatingMaskControl</text>
</a>
</g>
</g>
<!-- Node1&#45;&gt;Node13 -->
<g id="edge12" class="edge"><title>Node1&#45;&gt;Node13</title>
<path fill="none" stroke="midnightblue" d="M142.345,-161.484C152.215,-129.122 176.379,-64.4154 220,-29 224.789,-25.1116 230.361,-22.0183 236.173,-19.5575"/>
<polygon fill="midnightblue" stroke="midnightblue" points="138.972,-160.55 139.539,-171.13 145.693,-162.506 138.972,-160.55"/>
</g>
<!-- Node2 -->
<g id="node2" class="node"><title>Node2</title>
<g id="a_node2"><a xlink:href="class_i_control.html" target="_top" xlink:title="The lowest level base class of an IGraphics control. ">
<polygon fill="white" stroke="black" points="0.5,-171.5 0.5,-190.5 51.5,-190.5 51.5,-171.5 0.5,-171.5"/>
<text text-anchor="middle" x="26" y="-178.5" font-family="Helvetica,sans-Serif" font-size="10.00">IControl</text>
</a>
</g>
</g>
<!-- Node2&#45;&gt;Node1 -->
<g id="edge1" class="edge"><title>Node2&#45;&gt;Node1</title>
<path fill="none" stroke="midnightblue" d="M61.5595,-181C69.8495,-181 78.845,-181 87.6051,-181"/>
<polygon fill="midnightblue" stroke="midnightblue" points="61.5069,-177.5 51.5069,-181 61.5068,-184.5 61.5069,-177.5"/>
</g>
<!-- Node4 -->
<g id="node4" class="node"><title>Node4</title>
<g id="a_node4"><a xlink:href="class_i_b_knob_rotater_control.html" target="_top" xlink:title="A bitmap knob/dial control that rotates an image. ">
<polygon fill="white" stroke="black" points="384.5,-342.5 384.5,-361.5 497.5,-361.5 497.5,-342.5 384.5,-342.5"/>
<text text-anchor="middle" x="441" y="-349.5" font-family="Helvetica,sans-Serif" font-size="10.00">IBKnobRotaterControl</text>
</a>
</g>
</g>
<!-- Node3&#45;&gt;Node4 -->
<g id="edge3" class="edge"><title>Node3&#45;&gt;Node4</title>
<path fill="none" stroke="midnightblue" d="M334.259,-352C350.153,-352 367.882,-352 384.213,-352"/>
<polygon fill="midnightblue" stroke="midnightblue" points="334.113,-348.5 324.113,-352 334.113,-355.5 334.113,-348.5"/>
</g>
</g>
</svg>
