<?xml version="1.0" encoding="UTF-8" standalone="no"?>
<!DOCTYPE svg PUBLIC "-//W3C//DTD SVG 1.1//EN"
 "http://www.w3.org/Graphics/SVG/1.1/DTD/svg11.dtd">
<!-- Generated by graphviz version 2.36.0 (20140111.2315)
 -->
<!-- Title: IPlugVST3Processor Pages: 1 -->
<svg width="309pt" height="208pt"
 viewBox="0.00 0.00 309.00 208.00" xmlns="http://www.w3.org/2000/svg" xmlns:xlink="http://www.w3.org/1999/xlink">
<g id="graph0" class="graph" transform="scale(1 1) rotate(0) translate(4 204)">
<title>IPlugVST3Processor</title>
<polygon fill="white" stroke="none" points="-4,4 -4,-204 305,-204 305,4 -4,4"/>
<!-- Node1 -->
<g id="node1" class="node"><title>Node1</title>
<polygon fill="#bfbfbf" stroke="black" points="71,-0.5 71,-19.5 179,-19.5 179,-0.5 71,-0.5"/>
<text text-anchor="middle" x="125" y="-7.5" font-family="Helvetica,sans-Serif" font-size="10.00">IPlugVST3Processor</text>
</g>
<!-- Node2 -->
<g id="node2" class="node"><title>Node2</title>
<polygon fill="white" stroke="#bfbfbf" points="0,-62.5 0,-81.5 68,-81.5 68,-62.5 0,-62.5"/>
<text text-anchor="middle" x="34" y="-69.5" font-family="Helvetica,sans-Serif" font-size="10.00">AudioEffect</text>
</g>
<!-- Node2&#45;&gt;Node1 -->
<g id="edge1" class="edge"><title>Node2&#45;&gt;Node1</title>
<path fill="none" stroke="midnightblue" d="M55.5196,-56.8113C73.0628,-45.2443 97.2652,-29.2867 111.986,-19.5806"/>
<polygon fill="midnightblue" stroke="midnightblue" points="53.4601,-53.9768 47.0381,-62.4035 57.3133,-59.8209 53.4601,-53.9768"/>
</g>
<!-- Node3 -->
<g id="node3" class="node"><title>Node3</title>
<g id="a_node3"><a xlink:href="class_i_plug_a_p_i_base.html" target="_top" xlink:title="The base class of an IPlug plug&#45;in, which interacts with the different plug&#45;in APIs. ">
<polygon fill="white" stroke="black" points="86,-62.5 86,-81.5 164,-81.5 164,-62.5 86,-62.5"/>
<text text-anchor="middle" x="125" y="-69.5" font-family="Helvetica,sans-Serif" font-size="10.00">IPlugAPIBase</text>
</a>
</g>
</g>
<!-- Node3&#45;&gt;Node1 -->
<g id="edge2" class="edge"><title>Node3&#45;&gt;Node1</title>
<path fill="none" stroke="midnightblue" d="M125,-52.1595C125,-41.2482 125,-28.04 125,-19.5806"/>
<polygon fill="midnightblue" stroke="midnightblue" points="121.5,-52.4034 125,-62.4035 128.5,-52.4035 121.5,-52.4034"/>
</g>
<!-- Node4 -->
<g id="node4" class="node"><title>Node4</title>
<g id="a_node4"><a xlink:href="class_i_plugin_base.html" target="_top" xlink:title="Base class that contains plug&#45;in info and state manipulation methods. ">
<polygon fill="white" stroke="black" points="90.5,-124.5 90.5,-143.5 159.5,-143.5 159.5,-124.5 90.5,-124.5"/>
<text text-anchor="middle" x="125" y="-131.5" font-family="Helvetica,sans-Serif" font-size="10.00">IPluginBase</text>
</a>
</g>
</g>
<!-- Node4&#45;&gt;Node3 -->
<g id="edge3" class="edge"><title>Node4&#45;&gt;Node3</title>
<path fill="none" stroke="midnightblue" d="M125,-114.16C125,-103.248 125,-90.04 125,-81.5806"/>
<polygon fill="midnightblue" stroke="midnightblue" points="121.5,-114.403 125,-124.403 128.5,-114.403 121.5,-114.403"/>
</g>
<!-- Node5 -->
<g id="node5" class="node"><title>Node5</title>
<g id="a_node5"><a xlink:href="class_i_editor_delegate.html" target="_top" xlink:title="This pure virtual interface delegates communication in both directions between a UI editor and someth...">
<polygon fill="white" stroke="black" points="49,-180.5 49,-199.5 201,-199.5 201,-180.5 49,-180.5"/>
<text text-anchor="middle" x="125" y="-187.5" font-family="Helvetica,sans-Serif" font-size="10.00">EDITOR_DELEGATE_CLASS</text>
</a>
</g>
</g>
<!-- Node5&#45;&gt;Node4 -->
<g id="edge4" class="edge"><title>Node5&#45;&gt;Node4</title>
<path fill="none" stroke="midnightblue" d="M125,-169.805C125,-160.91 125,-150.78 125,-143.751"/>
<polygon fill="midnightblue" stroke="midnightblue" points="121.5,-170.083 125,-180.083 128.5,-170.083 121.5,-170.083"/>
</g>
<!-- Node6 -->
<g id="node6" class="node"><title>Node6</title>
<g id="a_node6"><a xlink:href="class_i_plug_processor.html" target="_top" xlink:title="IPlugProcessor\&lt; PLUG\l_SAMPLE_DST \&gt;">
<polygon fill="white" stroke="black" points="182.5,-57 182.5,-87 301.5,-87 301.5,-57 182.5,-57"/>
<text text-anchor="start" x="190.5" y="-75" font-family="Helvetica,sans-Serif" font-size="10.00">IPlugProcessor&lt; PLUG</text>
<text text-anchor="middle" x="242" y="-64" font-family="Helvetica,sans-Serif" font-size="10.00">_SAMPLE_DST &gt;</text>
</a>
</g>
</g>
<!-- Node6&#45;&gt;Node1 -->
<g id="edge5" class="edge"><title>Node6&#45;&gt;Node1</title>
<path fill="none" stroke="midnightblue" d="M205.457,-52.2598C184.158,-41.3376 158.318,-28.0862 141.77,-19.6"/>
<polygon fill="midnightblue" stroke="midnightblue" points="204.073,-55.4838 214.569,-56.9327 207.268,-49.2551 204.073,-55.4838"/>
</g>
</g>
</svg>
