<?xml version="1.0" encoding="UTF-8" standalone="no"?>
<!DOCTYPE svg PUBLIC "-//W3C//DTD SVG 1.1//EN"
 "http://www.w3.org/Graphics/SVG/1.1/DTD/svg11.dtd">
<!-- Generated by graphviz version 7.0.5 (20221223.1930)
 -->
<!-- Title: IAboutBoxControl Pages: 1 -->
<svg width="100pt" height="192pt"
 viewBox="0.00 0.00 100.00 192.00" xmlns="http://www.w3.org/2000/svg" xmlns:xlink="http://www.w3.org/1999/xlink">
<g id="graph0" class="graph" transform="scale(1 1) rotate(0) translate(4 188)">
<title>IAboutBoxControl</title>
<!-- Node1 -->
<g id="node1" class="node">
<title>Node1</title>
<g id="a_node1"><a xlink:title="A &quot;meta control&quot; which you can attach child controls to for &quot;about box&quot; info and optionally animate f...">
<polygon fill="#999999" stroke="#666666" points="92,-19 0,-19 0,0 92,0 92,-19"/>
<text text-anchor="middle" x="46" y="-7" font-family="Helvetica,sans-Serif" font-size="10.00">IAboutBoxControl</text>
</a>
</g>
</g>
<!-- Node2 -->
<g id="node2" class="node">
<title>Node2</title>
<g id="a_node2"><a xlink:href="class_i_panel_control.html" target="_top" xlink:title="A basic control to fill a rectangle with a color or gradient.">
<polygon fill="white" stroke="#666666" points="83.5,-74 8.5,-74 8.5,-55 83.5,-55 83.5,-74"/>
<text text-anchor="middle" x="46" y="-62" font-family="Helvetica,sans-Serif" font-size="10.00">IPanelControl</text>
</a>
</g>
</g>
<!-- Node2&#45;&gt;Node1 -->
<g id="edge1" class="edge">
<title>Node2&#45;&gt;Node1</title>
<path fill="none" stroke="#63b8ff" d="M46,-43.35C46,-35.1 46,-25.97 46,-19.44"/>
<polygon fill="#63b8ff" stroke="#63b8ff" points="42.5,-43.23 46,-53.23 49.5,-43.23 42.5,-43.23"/>
</g>
<!-- Node3 -->
<g id="node3" class="node">
<title>Node3</title>
<g id="a_node3"><a xlink:href="class_i_container_base.html" target="_top" xlink:title="IContainerBase allows a control to nest sub controls and it clips the drawing of those subcontrols In...">
<polygon fill="white" stroke="#666666" points="87.5,-129 4.5,-129 4.5,-110 87.5,-110 87.5,-129"/>
<text text-anchor="middle" x="46" y="-117" font-family="Helvetica,sans-Serif" font-size="10.00">IContainerBase</text>
</a>
</g>
</g>
<!-- Node3&#45;&gt;Node2 -->
<g id="edge2" class="edge">
<title>Node3&#45;&gt;Node2</title>
<path fill="none" stroke="#63b8ff" d="M46,-98.35C46,-90.1 46,-80.97 46,-74.44"/>
<polygon fill="#63b8ff" stroke="#63b8ff" points="42.5,-98.23 46,-108.23 49.5,-98.23 42.5,-98.23"/>
</g>
<!-- Node4 -->
<g id="node4" class="node">
<title>Node4</title>
<g id="a_node4"><a xlink:href="class_i_control.html" target="_top" xlink:title="The lowest level base class of an IGraphics control.">
<polygon fill="white" stroke="#666666" points="71,-184 21,-184 21,-165 71,-165 71,-184"/>
<text text-anchor="middle" x="46" y="-172" font-family="Helvetica,sans-Serif" font-size="10.00">IControl</text>
</a>
</g>
</g>
<!-- Node4&#45;&gt;Node3 -->
<g id="edge3" class="edge">
<title>Node4&#45;&gt;Node3</title>
<path fill="none" stroke="#63b8ff" d="M46,-153.35C46,-145.1 46,-135.97 46,-129.44"/>
<polygon fill="#63b8ff" stroke="#63b8ff" points="42.5,-153.23 46,-163.23 49.5,-153.23 42.5,-153.23"/>
</g>
</g>
</svg>
