<?xml version="1.0" encoding="UTF-8" standalone="no"?>
<!DOCTYPE svg PUBLIC "-//W3C//DTD SVG 1.1//EN"
 "http://www.w3.org/Graphics/SVG/1.1/DTD/svg11.dtd">
<!-- Generated by graphviz version 2.36.0 (20140111.2315)
 -->
<!-- Title: IPlugAAX Pages: 1 -->
<svg width="401pt" height="208pt"
 viewBox="0.00 0.00 401.00 208.00" xmlns="http://www.w3.org/2000/svg" xmlns:xlink="http://www.w3.org/1999/xlink">
<g id="graph0" class="graph" transform="scale(1 1) rotate(0) translate(4 204)">
<title>IPlugAAX</title>
<polygon fill="white" stroke="none" points="-4,4 -4,-204 397,-204 397,4 -4,4"/>
<!-- Node1 -->
<g id="node1" class="node"><title>Node1</title>
<polygon fill="#bfbfbf" stroke="black" points="163.5,-0.5 163.5,-19.5 222.5,-19.5 222.5,-0.5 163.5,-0.5"/>
<text text-anchor="middle" x="193" y="-7.5" font-family="Helvetica,sans-Serif" font-size="10.00">IPlugAAX</text>
</g>
<!-- Node2 -->
<g id="node2" class="node"><title>Node2</title>
<g id="a_node2"><a xlink:href="class_i_plug_a_p_i_base.html" target="_top" xlink:title="The base class of an IPlug plug&#45;in, which interacts with the different plug&#45;in APIs. ">
<polygon fill="white" stroke="black" points="37,-62.5 37,-81.5 115,-81.5 115,-62.5 37,-62.5"/>
<text text-anchor="middle" x="76" y="-69.5" font-family="Helvetica,sans-Serif" font-size="10.00">IPlugAPIBase</text>
</a>
</g>
</g>
<!-- Node2&#45;&gt;Node1 -->
<g id="edge1" class="edge"><title>Node2&#45;&gt;Node1</title>
<path fill="none" stroke="midnightblue" d="M101.826,-57.7561C124.501,-46.1274 156.82,-29.5538 176.268,-19.5806"/>
<polygon fill="midnightblue" stroke="midnightblue" points="100.064,-54.7259 92.7632,-62.4035 103.259,-60.9546 100.064,-54.7259"/>
</g>
<!-- Node3 -->
<g id="node3" class="node"><title>Node3</title>
<g id="a_node3"><a xlink:href="class_i_plugin_base.html" target="_top" xlink:title="Base class that contains plug&#45;in info and state manipulation methods. ">
<polygon fill="white" stroke="black" points="41.5,-124.5 41.5,-143.5 110.5,-143.5 110.5,-124.5 41.5,-124.5"/>
<text text-anchor="middle" x="76" y="-131.5" font-family="Helvetica,sans-Serif" font-size="10.00">IPluginBase</text>
</a>
</g>
</g>
<!-- Node3&#45;&gt;Node2 -->
<g id="edge2" class="edge"><title>Node3&#45;&gt;Node2</title>
<path fill="none" stroke="midnightblue" d="M76,-114.16C76,-103.248 76,-90.04 76,-81.5806"/>
<polygon fill="midnightblue" stroke="midnightblue" points="72.5001,-114.403 76,-124.403 79.5001,-114.403 72.5001,-114.403"/>
</g>
<!-- Node4 -->
<g id="node4" class="node"><title>Node4</title>
<g id="a_node4"><a xlink:href="class_i_editor_delegate.html" target="_top" xlink:title="This pure virtual interface delegates communication in both directions between a UI editor and someth...">
<polygon fill="white" stroke="black" points="0,-180.5 0,-199.5 152,-199.5 152,-180.5 0,-180.5"/>
<text text-anchor="middle" x="76" y="-187.5" font-family="Helvetica,sans-Serif" font-size="10.00">EDITOR_DELEGATE_CLASS</text>
</a>
</g>
</g>
<!-- Node4&#45;&gt;Node3 -->
<g id="edge3" class="edge"><title>Node4&#45;&gt;Node3</title>
<path fill="none" stroke="midnightblue" d="M76,-169.805C76,-160.91 76,-150.78 76,-143.751"/>
<polygon fill="midnightblue" stroke="midnightblue" points="72.5001,-170.083 76,-180.083 79.5001,-170.083 72.5001,-170.083"/>
</g>
<!-- Node5 -->
<g id="node5" class="node"><title>Node5</title>
<g id="a_node5"><a xlink:href="class_i_plug_processor.html" target="_top" xlink:title="IPlugProcessor\&lt; PLUG\l_SAMPLE_DST \&gt;">
<polygon fill="white" stroke="black" points="133.5,-57 133.5,-87 252.5,-87 252.5,-57 133.5,-57"/>
<text text-anchor="start" x="141.5" y="-75" font-family="Helvetica,sans-Serif" font-size="10.00">IPlugProcessor&lt; PLUG</text>
<text text-anchor="middle" x="193" y="-64" font-family="Helvetica,sans-Serif" font-size="10.00">_SAMPLE_DST &gt;</text>
</a>
</g>
</g>
<!-- Node5&#45;&gt;Node1 -->
<g id="edge4" class="edge"><title>Node5&#45;&gt;Node1</title>
<path fill="none" stroke="midnightblue" d="M193,-46.5858C193,-37.0743 193,-26.7864 193,-19.7305"/>
<polygon fill="midnightblue" stroke="midnightblue" points="189.5,-46.7808 193,-56.7808 196.5,-46.7809 189.5,-46.7808"/>
</g>
<!-- Node6 -->
<g id="node6" class="node"><title>Node6</title>
<polygon fill="white" stroke="#bfbfbf" points="271,-62.5 271,-81.5 393,-81.5 393,-62.5 271,-62.5"/>
<text text-anchor="middle" x="332" y="-69.5" font-family="Helvetica,sans-Serif" font-size="10.00">AAX_CIPlugParameters</text>
</g>
<!-- Node6&#45;&gt;Node1 -->
<g id="edge5" class="edge"><title>Node6&#45;&gt;Node1</title>
<path fill="none" stroke="midnightblue" d="M302.75,-58.3743C275.755,-46.7215 236.396,-29.7319 212.878,-19.5806"/>
<polygon fill="midnightblue" stroke="midnightblue" points="301.516,-61.6537 312.085,-62.4035 304.291,-55.2269 301.516,-61.6537"/>
</g>
</g>
</svg>
