<?xml version="1.0" encoding="UTF-8" standalone="no"?>
<!DOCTYPE svg PUBLIC "-//W3C//DTD SVG 1.1//EN"
 "http://www.w3.org/Graphics/SVG/1.1/DTD/svg11.dtd">
<!-- Generated by graphviz version 2.36.0 (20140111.2315)
 -->
<!-- Title: IControl Pages: 1 -->
<!--zoomable 1218 -->
<svg id="main" version="1.1" xmlns="http://www.w3.org/2000/svg" xmlns:xlink="http://www.w3.org/1999/xlink" xml:space="preserve" onload="init(evt)">
<style type="text/css"><![CDATA[
.edge:hover path { stroke: red; }
.edge:hover polygon { stroke: red; fill: red; }
]]></style>
<script type="text/javascript"><![CDATA[
var edges = document.getElementsByTagName('g');
if (edges && edges.length) {
  for (var i=0;i<edges.length;i++) {
    if (edges[i].id.substr(0,4)=='edge') {
      edges[i].setAttribute('class','edge');
    }
  }
}
]]></script>
        <defs>
                <circle id="rim" cx="0" cy="0" r="7"/>
                <circle id="rim2" cx="0" cy="0" r="3.5"/>
                <g id="zoomPlus">
                        <use xlink:href="#rim" fill="#404040">
                                <set attributeName="fill" to="#808080" begin="zoomplus.mouseover" end="zoomplus.mouseout"/>
                        </use>
                        <path d="M-4,0h8M0,-4v8" fill="none" stroke="white" stroke-width="1.5" pointer-events="none"/>
                </g>
                <g id="zoomMin">
                        <use xlink:href="#rim" fill="#404040">
                                <set attributeName="fill" to="#808080" begin="zoomminus.mouseover" end="zoomminus.mouseout"/>
                        </use>
                        <path d="M-4,0h8" fill="none" stroke="white" stroke-width="1.5" pointer-events="none"/>
                </g>
                <g id="dirArrow">
                        <path fill="none" stroke="white" stroke-width="1.5" d="M0,-3.0v7 M-2.5,-0.5L0,-3.0L2.5,-0.5"/>
                </g>
               <g id="resetDef">
                       <use xlink:href="#rim2" fill="#404040">
                               <set attributeName="fill" to="#808080" begin="reset.mouseover" end="reset.mouseout"/>
                       </use>
               </g>
        </defs>

<script type="text/javascript">
var viewWidth = 400;
var viewHeight = 1218;
var sectionId = 'dynsection-0';
</script>
<script xlink:href="svgpan.js"/>
<svg id="graph" class="graph">
<g id="viewport">
<title>IControl</title>
<polygon fill="white" stroke="none" points="-4,4 -4,-1214 396,-1214 396,4 -4,4"/>
<!-- Node1 -->
<g id="node1" class="node"><title>Node1</title>
<polygon fill="#bfbfbf" stroke="black" points="0.5,-563.5 0.5,-582.5 51.5,-582.5 51.5,-563.5 0.5,-563.5"/>
<text text-anchor="middle" x="26" y="-570.5" font-family="Helvetica,sans-Serif" font-size="10.00">IControl</text>
</g>
<!-- Node2 -->
<g id="node2" class="node"><title>Node2</title>
<g id="a_node2"><a xlink:href="class_i_bitmap_control.html" target="_top" xlink:title="A basic control to draw a bitmap, or one frame of a stacked bitmap depending on the current value...">
<polygon fill="white" stroke="black" points="117,-1171.5 117,-1190.5 199,-1190.5 199,-1171.5 117,-1171.5"/>
<text text-anchor="middle" x="158" y="-1178.5" font-family="Helvetica,sans-Serif" font-size="10.00">IBitmapControl</text>
</a>
</g>
</g>
<!-- Node1&#45;&gt;Node2 -->
<g id="edge1" class="edge"><title>Node1&#45;&gt;Node2</title>
<path fill="none" stroke="midnightblue" d="M26.7292,-592.932C25.8619,-682.823 26.2144,-1050.12 88,-1143 96.9379,-1156.44 112.296,-1165.56 126.257,-1171.49"/>
<polygon fill="midnightblue" stroke="midnightblue" points="30.2308,-592.797 26.8452,-582.757 23.2313,-592.717 30.2308,-592.797"/>
</g>
<!-- Node4 -->
<g id="node4" class="node"><title>Node4</title>
<g id="a_node4"><a xlink:href="class_i_button_control_base.html" target="_top" xlink:title="A base class for buttons/momentary switches &#45; cannot be linked to parameters. ">
<polygon fill="white" stroke="black" points="107,-1114.5 107,-1133.5 209,-1133.5 209,-1114.5 107,-1114.5"/>
<text text-anchor="middle" x="158" y="-1121.5" font-family="Helvetica,sans-Serif" font-size="10.00">IButtonControlBase</text>
</a>
</g>
</g>
<!-- Node1&#45;&gt;Node4 -->
<g id="edge3" class="edge"><title>Node1&#45;&gt;Node4</title>
<path fill="none" stroke="midnightblue" d="M27.53,-593.342C29.9711,-675.603 42.0598,-983.227 88,-1067 99.655,-1088.25 122.728,-1104.77 138.975,-1114.43"/>
<polygon fill="midnightblue" stroke="midnightblue" points="31.0161,-592.792 27.237,-582.894 24.0188,-592.988 31.0161,-592.792"/>
</g>
<!-- Node7 -->
<g id="node7" class="node"><title>Node7</title>
<g id="a_node7"><a xlink:href="class_i_color_picker_control.html" target="_top" xlink:title="A control for choosing a color. ">
<polygon fill="white" stroke="black" points="107,-1038.5 107,-1057.5 209,-1057.5 209,-1038.5 107,-1038.5"/>
<text text-anchor="middle" x="158" y="-1045.5" font-family="Helvetica,sans-Serif" font-size="10.00">IColorPickerControl</text>
</a>
</g>
</g>
<!-- Node1&#45;&gt;Node7 -->
<g id="edge6" class="edge"><title>Node1&#45;&gt;Node7</title>
<path fill="none" stroke="midnightblue" d="M26.8538,-592.887C26.6818,-671.908 30.0596,-962.61 88,-1029 93.0653,-1034.8 99.7243,-1038.91 106.908,-1041.8"/>
<polygon fill="midnightblue" stroke="midnightblue" points="30.354,-592.832 26.8988,-582.816 23.354,-592.8 30.354,-592.832"/>
</g>
<!-- Node8 -->
<g id="node8" class="node"><title>Node8</title>
<g id="a_node8"><a xlink:href="class_i_corner_resizer_control.html" target="_top" xlink:title="A control for resizing the plug&#45;in window by clicking and dragging in the bottom right&#45;hand corner Th...">
<polygon fill="white" stroke="black" points="101,-1000.5 101,-1019.5 215,-1019.5 215,-1000.5 101,-1000.5"/>
<text text-anchor="middle" x="158" y="-1007.5" font-family="Helvetica,sans-Serif" font-size="10.00">ICornerResizerControl</text>
</a>
</g>
</g>
<!-- Node1&#45;&gt;Node8 -->
<g id="edge7" class="edge"><title>Node1&#45;&gt;Node8</title>
<path fill="none" stroke="midnightblue" d="M27.1252,-593.11C28.004,-668.191 34.8867,-930.868 88,-991 91.6192,-995.097 96.0327,-998.348 100.86,-1000.92"/>
<polygon fill="midnightblue" stroke="midnightblue" points="30.6217,-592.698 27.0296,-582.73 23.622,-592.762 30.6217,-592.698"/>
</g>
<!-- Node9 -->
<g id="node9" class="node"><title>Node9</title>
<g id="a_node9"><a xlink:href="class_i_dir_browse_control_base.html" target="_top" xlink:title="An abstract IControl base class that you can inherit from in order to make a control that pops up a m...">
<polygon fill="white" stroke="black" points="98.5,-962.5 98.5,-981.5 217.5,-981.5 217.5,-962.5 98.5,-962.5"/>
<text text-anchor="middle" x="158" y="-969.5" font-family="Helvetica,sans-Serif" font-size="10.00">IDirBrowseControlBase</text>
</a>
</g>
</g>
<!-- Node1&#45;&gt;Node9 -->
<g id="edge8" class="edge"><title>Node1&#45;&gt;Node9</title>
<path fill="none" stroke="midnightblue" d="M27.4365,-592.626C29.3923,-662.648 39.5318,-898.909 88,-953 91.3996,-956.794 95.4801,-959.86 99.9362,-962.334"/>
<polygon fill="midnightblue" stroke="midnightblue" points="30.9332,-592.445 27.1808,-582.537 23.9354,-592.623 30.9332,-592.445"/>
</g>
<!-- Node11 -->
<g id="node11" class="node"><title>Node11</title>
<g id="a_node11"><a xlink:href="class_i_f_p_s_display_control.html" target="_top" xlink:title="Performance display meter, based on code from NanoVG This is a special control that lives outside the...">
<polygon fill="white" stroke="black" points="106,-924.5 106,-943.5 210,-943.5 210,-924.5 106,-924.5"/>
<text text-anchor="middle" x="158" y="-931.5" font-family="Helvetica,sans-Serif" font-size="10.00">IFPSDisplayControl</text>
</a>
</g>
</g>
<!-- Node1&#45;&gt;Node11 -->
<g id="edge10" class="edge"><title>Node1&#45;&gt;Node11</title>
<path fill="none" stroke="midnightblue" d="M27.8275,-592.742C30.9711,-658.262 44.2983,-867.071 88,-915 92.8555,-920.325 99.0527,-924.213 105.734,-927.041"/>
<polygon fill="midnightblue" stroke="midnightblue" points="31.3151,-592.387 27.367,-582.556 24.3223,-592.703 31.3151,-592.387"/>
</g>
<!-- Node12 -->
<g id="node12" class="node"><title>Node12</title>
<g id="a_node12"><a xlink:href="class_i_graphics_live_edit.html" target="_top" xlink:title="A control to enable live modification of control layout in an IGraphics context in debug builds This ...">
<polygon fill="white" stroke="black" points="111,-886.5 111,-905.5 205,-905.5 205,-886.5 111,-886.5"/>
<text text-anchor="middle" x="158" y="-893.5" font-family="Helvetica,sans-Serif" font-size="10.00">IGraphicsLiveEdit</text>
</a>
</g>
</g>
<!-- Node1&#45;&gt;Node12 -->
<g id="edge11" class="edge"><title>Node1&#45;&gt;Node12</title>
<path fill="none" stroke="midnightblue" d="M28.3196,-592.882C32.7474,-653.628 49.0454,-835.19 88,-877 94.0984,-883.545 102.224,-887.912 110.755,-890.807"/>
<polygon fill="midnightblue" stroke="midnightblue" points="31.7976,-592.444 27.6085,-582.712 24.8146,-592.932 31.7976,-592.444"/>
</g>
<!-- Node13 -->
<g id="node13" class="node"><title>Node13</title>
<g id="a_node13"><a xlink:href="class_i_knob_control_base.html" target="_top" xlink:title="A base class for knob/dial controls, to handle mouse action and ballistics. ">
<polygon fill="white" stroke="black" points="110,-848.5 110,-867.5 206,-867.5 206,-848.5 110,-848.5"/>
<text text-anchor="middle" x="158" y="-855.5" font-family="Helvetica,sans-Serif" font-size="10.00">IKnobControlBase</text>
</a>
</g>
</g>
<!-- Node1&#45;&gt;Node13 -->
<g id="edge12" class="edge"><title>Node1&#45;&gt;Node13</title>
<path fill="none" stroke="midnightblue" d="M28.9402,-592.89C34.7456,-648.391 53.7354,-803.219 88,-839 93.9296,-845.192 101.675,-849.426 109.828,-852.309"/>
<polygon fill="midnightblue" stroke="midnightblue" points="32.3912,-592.229 27.9007,-582.633 25.4269,-592.935 32.3912,-592.229"/>
</g>
<!-- Node24 -->
<g id="node24" class="node"><title>Node24</title>
<g id="a_node24"><a xlink:href="class_i_lambda_control.html" target="_top" xlink:title="A control that can be specialised with a lamda function, for quick experiments without making a custo...">
<polygon fill="white" stroke="black" points="115,-810.5 115,-829.5 201,-829.5 201,-810.5 115,-810.5"/>
<text text-anchor="middle" x="158" y="-817.5" font-family="Helvetica,sans-Serif" font-size="10.00">ILambdaControl</text>
</a>
</g>
</g>
<!-- Node1&#45;&gt;Node24 -->
<g id="edge23" class="edge"><title>Node1&#45;&gt;Node24</title>
<path fill="none" stroke="midnightblue" d="M26.1835,-593.137C25.5476,-637.247 30.4944,-743.074 88,-801 95.1781,-808.231 104.837,-812.778 114.651,-815.62"/>
<polygon fill="midnightblue" stroke="midnightblue" points="29.6893,-592.958 26.4542,-582.869 22.6918,-592.773 29.6893,-592.958"/>
</g>
<!-- Node25 -->
<g id="node25" class="node"><title>Node25</title>
<g id="a_node25"><a xlink:href="class_i_panel_control.html" target="_top" xlink:title="A basic control to fill a rectangle with a color or gradient. ">
<polygon fill="white" stroke="black" points="120,-772.5 120,-791.5 196,-791.5 196,-772.5 120,-772.5"/>
<text text-anchor="middle" x="158" y="-779.5" font-family="Helvetica,sans-Serif" font-size="10.00">IPanelControl</text>
</a>
</g>
</g>
<!-- Node1&#45;&gt;Node25 -->
<g id="edge24" class="edge"><title>Node1&#45;&gt;Node25</title>
<path fill="none" stroke="midnightblue" d="M27.4665,-592.887C29.4778,-631.41 39.5044,-716.498 88,-763 96.6094,-771.256 108.465,-775.991 119.921,-778.686"/>
<polygon fill="midnightblue" stroke="midnightblue" points="30.9495,-592.378 27.0659,-582.521 23.9547,-592.649 30.9495,-592.378"/>
</g>
<!-- Node26 -->
<g id="node26" class="node"><title>Node26</title>
<g id="a_node26"><a xlink:href="class_i_popup_menu_control.html" target="_top" xlink:title="A base control for a pop&#45;up menu/drop&#45;down list that stays within the bounds of the IGraphics context...">
<polygon fill="white" stroke="black" points="106.5,-734.5 106.5,-753.5 209.5,-753.5 209.5,-734.5 106.5,-734.5"/>
<text text-anchor="middle" x="158" y="-741.5" font-family="Helvetica,sans-Serif" font-size="10.00">IPopupMenuControl</text>
</a>
</g>
</g>
<!-- Node1&#45;&gt;Node26 -->
<g id="edge25" class="edge"><title>Node1&#45;&gt;Node26</title>
<path fill="none" stroke="midnightblue" d="M29.3349,-592.945C34.2153,-625.452 48.5379,-689.761 88,-725 93.2826,-729.717 99.6335,-733.276 106.315,-735.958"/>
<polygon fill="midnightblue" stroke="midnightblue" points="32.7817,-592.315 27.9767,-582.872 25.8445,-593.251 32.7817,-592.315"/>
</g>
<!-- Node27 -->
<g id="node27" class="node"><title>Node27</title>
<g id="a_node27"><a xlink:href="class_i_slider_control_base.html" target="_top" xlink:title="A base class for slider/fader controls, to handle mouse action and ballistics. ">
<polygon fill="white" stroke="black" points="109,-696.5 109,-715.5 207,-715.5 207,-696.5 109,-696.5"/>
<text text-anchor="middle" x="158" y="-703.5" font-family="Helvetica,sans-Serif" font-size="10.00">ISliderControlBase</text>
</a>
</g>
</g>
<!-- Node1&#45;&gt;Node27 -->
<g id="edge26" class="edge"><title>Node1&#45;&gt;Node27</title>
<path fill="none" stroke="midnightblue" d="M32.1219,-592.27C39.9015,-617.768 57.1564,-662.358 88,-687 94.1156,-691.886 101.4,-695.518 108.908,-698.217"/>
<polygon fill="midnightblue" stroke="midnightblue" points="35.477,-591.273 29.3559,-582.625 28.7482,-593.203 35.477,-591.273"/>
</g>
<!-- Node30 -->
<g id="node30" class="node"><title>Node30</title>
<g id="a_node30"><a xlink:href="class_i_s_v_g_control.html" target="_top" xlink:title="A basic control to draw an SVG image to the screen. ">
<polygon fill="white" stroke="black" points="122,-658.5 122,-677.5 194,-677.5 194,-658.5 122,-658.5"/>
<text text-anchor="middle" x="158" y="-665.5" font-family="Helvetica,sans-Serif" font-size="10.00">ISVGControl</text>
</a>
</g>
</g>
<!-- Node1&#45;&gt;Node30 -->
<g id="edge29" class="edge"><title>Node1&#45;&gt;Node30</title>
<path fill="none" stroke="midnightblue" d="M37.0292,-591.223C47.5198,-608.605 65.5747,-634.257 88,-649 98.0708,-655.621 110.416,-659.952 121.867,-662.778"/>
<polygon fill="midnightblue" stroke="midnightblue" points="40.0403,-589.439 31.9996,-582.54 33.9829,-592.947 40.0403,-589.439"/>
</g>
<!-- Node31 -->
<g id="node31" class="node"><title>Node31</title>
<g id="a_node31"><a xlink:href="class_i_switch_control_base.html" target="_top" xlink:title="A base class for switch controls. ">
<polygon fill="white" stroke="black" points="106,-620.5 106,-639.5 210,-639.5 210,-620.5 106,-620.5"/>
<text text-anchor="middle" x="158" y="-627.5" font-family="Helvetica,sans-Serif" font-size="10.00">ISwitchControlBase</text>
</a>
</g>
</g>
<!-- Node1&#45;&gt;Node31 -->
<g id="edge30" class="edge"><title>Node1&#45;&gt;Node31</title>
<path fill="none" stroke="midnightblue" d="M48.3182,-588.405C59.6651,-596.046 74.1127,-604.916 88,-611 96.4218,-614.69 105.74,-617.834 114.733,-620.439"/>
<polygon fill="midnightblue" stroke="midnightblue" points="50.168,-585.429 39.9528,-582.618 46.1855,-591.186 50.168,-585.429"/>
</g>
<!-- Node34 -->
<g id="node34" class="node"><title>Node34</title>
<g id="a_node34"><a xlink:href="class_i_text_control.html" target="_top" xlink:title="A basic control to display some text. ">
<polygon fill="white" stroke="red" points="122.5,-582.5 122.5,-601.5 193.5,-601.5 193.5,-582.5 122.5,-582.5"/>
<text text-anchor="middle" x="158" y="-589.5" font-family="Helvetica,sans-Serif" font-size="10.00">ITextControl</text>
</a>
</g>
</g>
<!-- Node1&#45;&gt;Node34 -->
<g id="edge33" class="edge"><title>Node1&#45;&gt;Node34</title>
<path fill="none" stroke="midnightblue" d="M61.8939,-578.1C80.5211,-580.822 103.382,-584.164 122.022,-586.888"/>
<polygon fill="midnightblue" stroke="midnightblue" points="62.1591,-574.602 51.758,-576.618 61.1467,-581.528 62.1591,-574.602"/>
</g>
<!-- Node35 -->
<g id="node35" class="node"><title>Node35</title>
<g id="a_node35"><a xlink:href="class_i_text_entry_control.html" target="_top" xlink:title="A Text entry widget drawn by IGraphics. ">
<polygon fill="white" stroke="black" points="111,-544.5 111,-563.5 205,-563.5 205,-544.5 111,-544.5"/>
<text text-anchor="middle" x="158" y="-551.5" font-family="Helvetica,sans-Serif" font-size="10.00">ITextEntryControl</text>
</a>
</g>
</g>
<!-- Node1&#45;&gt;Node35 -->
<g id="edge34" class="edge"><title>Node1&#45;&gt;Node35</title>
<path fill="none" stroke="midnightblue" d="M61.6804,-567.931C76.7381,-565.731 94.5934,-563.121 110.756,-560.759"/>
<polygon fill="midnightblue" stroke="midnightblue" points="61.1467,-564.472 51.758,-569.382 62.1591,-571.398 61.1467,-564.472"/>
</g>
<!-- Node36 -->
<g id="node36" class="node"><title>Node36</title>
<g id="a_node36"><a xlink:href="class_i_v_keyboard_control.html" target="_top" xlink:title="Vectorial keyboard control. ">
<polygon fill="white" stroke="black" points="108.5,-506.5 108.5,-525.5 207.5,-525.5 207.5,-506.5 108.5,-506.5"/>
<text text-anchor="middle" x="158" y="-513.5" font-family="Helvetica,sans-Serif" font-size="10.00">IVKeyboardControl</text>
</a>
</g>
</g>
<!-- Node1&#45;&gt;Node36 -->
<g id="edge35" class="edge"><title>Node1&#45;&gt;Node36</title>
<path fill="none" stroke="midnightblue" d="M48.3182,-557.595C59.6651,-549.954 74.1127,-541.084 88,-535 96.4218,-531.31 105.74,-528.166 114.733,-525.561"/>
<polygon fill="midnightblue" stroke="midnightblue" points="46.1855,-554.814 39.9528,-563.382 50.168,-560.571 46.1855,-554.814"/>
</g>
<!-- Node37 -->
<g id="node37" class="node"><title>Node37</title>
<g id="a_node37"><a xlink:href="class_i_v_scope_control.html" target="_top" xlink:title="Vectorial multichannel capable oscilloscope control. ">
<polygon fill="white" stroke="black" points="88,-457 88,-487 228,-487 228,-457 88,-457"/>
<text text-anchor="start" x="96" y="-475" font-family="Helvetica,sans-Serif" font-size="10.00">IVScopeControl&lt; MAXNC,</text>
<text text-anchor="middle" x="158" y="-464" font-family="Helvetica,sans-Serif" font-size="10.00"> MAXBUF, QUEUE_SIZE &gt;</text>
</a>
</g>
</g>
<!-- Node1&#45;&gt;Node37 -->
<g id="edge36" class="edge"><title>Node1&#45;&gt;Node37</title>
<path fill="none" stroke="midnightblue" d="M37.7597,-554.405C48.505,-537.322 66.4907,-512.389 88,-497 93.2847,-493.219 99.2023,-489.952 105.291,-487.145"/>
<polygon fill="midnightblue" stroke="midnightblue" points="34.4838,-553.058 32.2978,-563.425 40.4715,-556.684 34.4838,-553.058"/>
</g>
<!-- Node38 -->
<g id="node38" class="node"><title>Node38</title>
<g id="a_node38"><a xlink:href="class_i_v_track_control_base.html" target="_top" xlink:title="A base class for mult&#45;strip/track controls, such as multi&#45;sliders, meters. ">
<polygon fill="white" stroke="red" points="105.5,-418.5 105.5,-437.5 210.5,-437.5 210.5,-418.5 105.5,-418.5"/>
<text text-anchor="middle" x="158" y="-425.5" font-family="Helvetica,sans-Serif" font-size="10.00">IVTrackControlBase</text>
</a>
</g>
</g>
<!-- Node1&#45;&gt;Node38 -->
<g id="edge37" class="edge"><title>Node1&#45;&gt;Node38</title>
<path fill="none" stroke="midnightblue" d="M31.3281,-553.16C38.3886,-525.528 55.0329,-475.737 88,-448 93.1536,-443.664 99.2031,-440.267 105.541,-437.607"/>
<polygon fill="midnightblue" stroke="midnightblue" points="27.8483,-552.665 28.938,-563.203 34.6581,-554.285 27.8483,-552.665"/>
</g>
<!-- Node39 -->
<g id="node39" class="node"><title>Node39</title>
<g id="a_node39"><a xlink:href="class_test_animation_control.html" target="_top" xlink:title="Control to test animation. ">
<polygon fill="white" stroke="black" points="102.5,-380.5 102.5,-399.5 213.5,-399.5 213.5,-380.5 102.5,-380.5"/>
<text text-anchor="middle" x="158" y="-387.5" font-family="Helvetica,sans-Serif" font-size="10.00">TestAnimationControl</text>
</a>
</g>
</g>
<!-- Node1&#45;&gt;Node39 -->
<g id="edge38" class="edge"><title>Node1&#45;&gt;Node39</title>
<path fill="none" stroke="midnightblue" d="M28.6695,-552.97C32.6383,-518.446 45.7407,-447.719 88,-409 92.2142,-405.139 97.1417,-402.052 102.39,-399.586"/>
<polygon fill="midnightblue" stroke="midnightblue" points="25.1598,-552.893 27.6447,-563.192 32.1249,-553.591 25.1598,-552.893"/>
</g>
<!-- Node40 -->
<g id="node40" class="node"><title>Node40</title>
<g id="a_node40"><a xlink:href="class_test_color_control.html" target="_top" xlink:title="Control to colors. ">
<polygon fill="white" stroke="black" points="112.5,-342.5 112.5,-361.5 203.5,-361.5 203.5,-342.5 112.5,-342.5"/>
<text text-anchor="middle" x="158" y="-349.5" font-family="Helvetica,sans-Serif" font-size="10.00">TestColorControl</text>
</a>
</g>
</g>
<!-- Node1&#45;&gt;Node40 -->
<g id="edge39" class="edge"><title>Node1&#45;&gt;Node40</title>
<path fill="none" stroke="midnightblue" d="M27.0109,-553.24C28.1443,-513.011 36.5814,-421.171 88,-371 94.6698,-364.492 103.354,-360.167 112.299,-357.303"/>
<polygon fill="midnightblue" stroke="midnightblue" points="23.5098,-553.295 26.8549,-563.348 30.5089,-553.404 23.5098,-553.295"/>
</g>
<!-- Node41 -->
<g id="node41" class="node"><title>Node41</title>
<g id="a_node41"><a xlink:href="class_test_cursor_control.html" target="_top" xlink:title="Control to test changing the platform cursor. ">
<polygon fill="white" stroke="black" points="109.5,-304.5 109.5,-323.5 206.5,-323.5 206.5,-304.5 109.5,-304.5"/>
<text text-anchor="middle" x="158" y="-311.5" font-family="Helvetica,sans-Serif" font-size="10.00">TestCursorControl</text>
</a>
</g>
</g>
<!-- Node1&#45;&gt;Node41 -->
<g id="edge40" class="edge"><title>Node1&#45;&gt;Node41</title>
<path fill="none" stroke="midnightblue" d="M29.4853,-553.024C36.3137,-501.274 56.9413,-364.68 88,-333 93.8279,-327.055 101.332,-322.921 109.235,-320.057"/>
<polygon fill="midnightblue" stroke="midnightblue" points="25.9773,-552.863 28.1743,-563.228 32.9202,-553.755 25.9773,-552.863"/>
</g>
<!-- Node42 -->
<g id="node42" class="node"><title>Node42</title>
<g id="a_node42"><a xlink:href="class_test_draw_context_control.html" target="_top" xlink:title="Control to test obtaining a drawing API (NanoVG, LICE, Cairo, AGG etc) context and using that API wit...">
<polygon fill="white" stroke="black" points="95.5,-266.5 95.5,-285.5 220.5,-285.5 220.5,-266.5 95.5,-266.5"/>
<text text-anchor="middle" x="158" y="-273.5" font-family="Helvetica,sans-Serif" font-size="10.00">TestDrawContextControl</text>
</a>
</g>
</g>
<!-- Node1&#45;&gt;Node42 -->
<g id="edge41" class="edge"><title>Node1&#45;&gt;Node42</title>
<path fill="none" stroke="midnightblue" d="M28.7398,-552.969C34.1148,-495.644 52.2876,-332.646 88,-295 91.6771,-291.124 96.0656,-288.014 100.823,-285.522"/>
<polygon fill="midnightblue" stroke="midnightblue" points="25.2262,-552.961 27.8096,-563.236 32.1977,-553.593 25.2262,-552.961"/>
</g>
<!-- Node43 -->
<g id="node43" class="node"><title>Node43</title>
<g id="a_node43"><a xlink:href="class_test_drop_shadow_control.html" target="_top" xlink:title="Control to test layer drop shadows. ">
<polygon fill="white" stroke="black" points="96,-228.5 96,-247.5 220,-247.5 220,-228.5 96,-228.5"/>
<text text-anchor="middle" x="158" y="-235.5" font-family="Helvetica,sans-Serif" font-size="10.00">TestDropShadowControl</text>
</a>
</g>
</g>
<!-- Node1&#45;&gt;Node43 -->
<g id="edge42" class="edge"><title>Node1&#45;&gt;Node43</title>
<path fill="none" stroke="midnightblue" d="M28.1522,-553.147C32.1649,-490.842 47.5526,-300.733 88,-257 91.5433,-253.169 95.7813,-250.083 100.39,-247.602"/>
<polygon fill="midnightblue" stroke="midnightblue" points="24.6526,-553.033 27.5318,-563.229 31.6394,-553.463 24.6526,-553.033"/>
</g>
<!-- Node44 -->
<g id="node44" class="node"><title>Node44</title>
<g id="a_node44"><a xlink:href="class_test_image_control.html" target="_top" xlink:title="Control to test drawing bitmaps. ">
<polygon fill="white" stroke="black" points="110.5,-190.5 110.5,-209.5 205.5,-209.5 205.5,-190.5 110.5,-190.5"/>
<text text-anchor="middle" x="158" y="-197.5" font-family="Helvetica,sans-Serif" font-size="10.00">TestImageControl</text>
</a>
</g>
</g>
<!-- Node1&#45;&gt;Node44 -->
<g id="edge43" class="edge"><title>Node1&#45;&gt;Node44</title>
<path fill="none" stroke="midnightblue" d="M27.6892,-553.432C30.437,-486.62 42.7647,-268.904 88,-219 93.9247,-212.464 101.87,-208.092 110.261,-205.186"/>
<polygon fill="midnightblue" stroke="midnightblue" points="24.1908,-553.323 27.3039,-563.45 31.1857,-553.592 24.1908,-553.323"/>
</g>
<!-- Node45 -->
<g id="node45" class="node"><title>Node45</title>
<g id="a_node45"><a xlink:href="class_test_keyboard_control.html" target="_top" xlink:title="Control to test keyboard input. ">
<polygon fill="white" stroke="black" points="103.5,-152.5 103.5,-171.5 212.5,-171.5 212.5,-152.5 103.5,-152.5"/>
<text text-anchor="middle" x="158" y="-159.5" font-family="Helvetica,sans-Serif" font-size="10.00">TestKeyboardControl</text>
</a>
</g>
</g>
<!-- Node1&#45;&gt;Node45 -->
<g id="edge44" class="edge"><title>Node1&#45;&gt;Node45</title>
<path fill="none" stroke="midnightblue" d="M27.3438,-552.76C28.9825,-480.544 38.1729,-236.876 88,-181 92.2174,-176.271 97.493,-172.671 103.238,-169.94"/>
<polygon fill="midnightblue" stroke="midnightblue" points="23.8365,-553.096 27.1347,-563.164 30.8351,-553.237 23.8365,-553.096"/>
</g>
<!-- Node46 -->
<g id="node46" class="node"><title>Node46</title>
<g id="a_node46"><a xlink:href="class_test_shadow_gradient_control.html" target="_top" xlink:title="Control to test drawing shadows with gradients. ">
<polygon fill="white" stroke="black" points="88,-114.5 88,-133.5 228,-133.5 228,-114.5 88,-114.5"/>
<text text-anchor="middle" x="158" y="-121.5" font-family="Helvetica,sans-Serif" font-size="10.00">TestShadowGradientControl</text>
</a>
</g>
</g>
<!-- Node1&#45;&gt;Node46 -->
<g id="edge45" class="edge"><title>Node1&#45;&gt;Node46</title>
<path fill="none" stroke="midnightblue" d="M27.0315,-553.287C27.5566,-477.388 33.2861,-205.193 88,-143 91.3648,-139.175 95.4217,-136.088 99.8627,-133.601"/>
<polygon fill="midnightblue" stroke="midnightblue" points="23.5313,-553.353 26.9859,-563.369 30.5312,-553.385 23.5313,-553.353"/>
</g>
<!-- Node47 -->
<g id="node47" class="node"><title>Node47</title>
<g id="a_node47"><a xlink:href="class_test_size_control.html" target="_top" xlink:title="Control to display the size of a region. ">
<polygon fill="white" stroke="black" points="114.5,-76.5 114.5,-95.5 201.5,-95.5 201.5,-76.5 114.5,-76.5"/>
<text text-anchor="middle" x="158" y="-83.5" font-family="Helvetica,sans-Serif" font-size="10.00">TestSizeControl</text>
</a>
</g>
</g>
<!-- Node1&#45;&gt;Node47 -->
<g id="edge46" class="edge"><title>Node1&#45;&gt;Node47</title>
<path fill="none" stroke="midnightblue" d="M26.7777,-553.116C26.2897,-472.798 28.5481,-173.355 88,-105 94.7679,-97.2187 104.4,-92.4858 114.328,-89.6426"/>
<polygon fill="midnightblue" stroke="midnightblue" points="23.2795,-553.352 26.8632,-563.322 30.2793,-553.293 23.2795,-553.352"/>
</g>
<!-- Node48 -->
<g id="node48" class="node"><title>Node48</title>
<g id="a_node48"><a xlink:href="class_test_s_v_g_control.html" target="_top" xlink:title="Control to test drawing SVGs. ">
<polygon fill="white" stroke="black" points="113.5,-38.5 113.5,-57.5 202.5,-57.5 202.5,-38.5 113.5,-38.5"/>
<text text-anchor="middle" x="158" y="-45.5" font-family="Helvetica,sans-Serif" font-size="10.00">TestSVGControl</text>
</a>
</g>
</g>
<!-- Node1&#45;&gt;Node48 -->
<g id="edge47" class="edge"><title>Node1&#45;&gt;Node48</title>
<path fill="none" stroke="midnightblue" d="M26.5607,-553.143C25.1073,-468.853 23.7483,-141.596 88,-67 94.487,-59.4686 103.658,-54.7888 113.202,-51.9139"/>
<polygon fill="midnightblue" stroke="midnightblue" points="23.0658,-553.442 26.7596,-563.372 30.0645,-553.306 23.0658,-553.442"/>
</g>
<!-- Node49 -->
<g id="node49" class="node"><title>Node49</title>
<g id="a_node49"><a xlink:href="class_test_text_control.html" target="_top" xlink:title="Control to test drawing text. ">
<polygon fill="white" stroke="black" points="114.5,-0.5 114.5,-19.5 201.5,-19.5 201.5,-0.5 114.5,-0.5"/>
<text text-anchor="middle" x="158" y="-7.5" font-family="Helvetica,sans-Serif" font-size="10.00">TestTextControl</text>
</a>
</g>
</g>
<!-- Node1&#45;&gt;Node49 -->
<g id="edge48" class="edge"><title>Node1&#45;&gt;Node49</title>
<path fill="none" stroke="midnightblue" d="M27.9178,-553.238C32.4036,-460.323 53.2252,-69.7143 88,-29 94.6978,-21.1582 104.306,-16.4041 114.232,-13.5599"/>
<polygon fill="midnightblue" stroke="midnightblue" points="24.41,-553.321 27.432,-563.476 31.4022,-553.653 24.41,-553.321"/>
</g>
<!-- Node3 -->
<g id="node3" class="node"><title>Node3</title>
<g id="a_node3"><a xlink:href="class_i_b_switch_control.html" target="_top" xlink:title="A bitmap switch control. ">
<polygon fill="white" stroke="black" points="284,-1190.5 284,-1209.5 372,-1209.5 372,-1190.5 284,-1190.5"/>
<text text-anchor="middle" x="328" y="-1197.5" font-family="Helvetica,sans-Serif" font-size="10.00">IBSwitchControl</text>
</a>
</g>
</g>
<!-- Node2&#45;&gt;Node3 -->
<g id="edge2" class="edge"><title>Node2&#45;&gt;Node3</title>
<path fill="none" stroke="midnightblue" d="M209.455,-1186.71C233.166,-1189.39 261.144,-1192.55 283.854,-1195.12"/>
<polygon fill="midnightblue" stroke="midnightblue" points="209.57,-1183.2 199.24,-1185.55 208.783,-1190.15 209.57,-1183.2"/>
</g>
<!-- Node5 -->
<g id="node5" class="node"><title>Node5</title>
<g id="a_node5"><a xlink:href="class_i_b_button_control.html" target="_top" xlink:title="A bitmap button/momentary switch control. ">
<polygon fill="white" stroke="black" points="285,-1152.5 285,-1171.5 371,-1171.5 371,-1152.5 285,-1152.5"/>
<text text-anchor="middle" x="328" y="-1159.5" font-family="Helvetica,sans-Serif" font-size="10.00">IBButtonControl</text>
</a>
</g>
</g>
<!-- Node4&#45;&gt;Node5 -->
<g id="edge4" class="edge"><title>Node4&#45;&gt;Node5</title>
<path fill="none" stroke="midnightblue" d="M211.276,-1135.82C234.961,-1141.18 262.59,-1147.43 284.911,-1152.48"/>
<polygon fill="midnightblue" stroke="midnightblue" points="211.919,-1132.38 201.393,-1133.59 210.375,-1139.21 211.919,-1132.38"/>
</g>
<!-- Node6 -->
<g id="node6" class="node"><title>Node6</title>
<g id="a_node6"><a xlink:href="class_i_v_button_control.html" target="_top" xlink:title="A vector button/momentary switch control. ">
<polygon fill="white" stroke="black" points="285,-1114.5 285,-1133.5 371,-1133.5 371,-1114.5 285,-1114.5"/>
<text text-anchor="middle" x="328" y="-1121.5" font-family="Helvetica,sans-Serif" font-size="10.00">IVButtonControl</text>
</a>
</g>
</g>
<!-- Node4&#45;&gt;Node6 -->
<g id="edge5" class="edge"><title>Node4&#45;&gt;Node6</title>
<path fill="none" stroke="midnightblue" d="M219.498,-1124C241.153,-1124 265.073,-1124 284.842,-1124"/>
<polygon fill="midnightblue" stroke="midnightblue" points="219.406,-1120.5 209.406,-1124 219.406,-1127.5 219.406,-1120.5"/>
</g>
<!-- Node10 -->
<g id="node10" class="node"><title>Node10</title>
<g id="a_node10"><a xlink:href="class_test_dir_browse_control.html" target="_top" xlink:title="Control to test IDirBrowseControlBase. ">
<polygon fill="white" stroke="black" points="271.5,-1076.5 271.5,-1095.5 384.5,-1095.5 384.5,-1076.5 271.5,-1076.5"/>
<text text-anchor="middle" x="328" y="-1083.5" font-family="Helvetica,sans-Serif" font-size="10.00">TestDirBrowseControl</text>
</a>
</g>
</g>
<!-- Node9&#45;&gt;Node10 -->
<g id="edge9" class="edge"><title>Node9&#45;&gt;Node10</title>
<path fill="none" stroke="midnightblue" d="M221.632,-986.395C223.867,-987.791 226.002,-989.322 228,-991 256.621,-1015.04 235.672,-1042.62 264,-1067 268.502,-1070.88 273.775,-1073.96 279.319,-1076.42"/>
<polygon fill="midnightblue" stroke="midnightblue" points="223.069,-983.197 212.587,-981.65 219.817,-989.395 223.069,-983.197"/>
</g>
<!-- Node14 -->
<g id="node14" class="node"><title>Node14</title>
<g id="a_node14"><a xlink:href="class_i_b_knob_control.html" target="_top" xlink:title="A bitmap knob/dial control that draws a frame from a stacked bitmap. ">
<polygon fill="white" stroke="red" points="288,-1038.5 288,-1057.5 368,-1057.5 368,-1038.5 288,-1038.5"/>
<text text-anchor="middle" x="328" y="-1045.5" font-family="Helvetica,sans-Serif" font-size="10.00">IBKnobControl</text>
</a>
</g>
</g>
<!-- Node13&#45;&gt;Node14 -->
<g id="edge13" class="edge"><title>Node13&#45;&gt;Node14</title>
<path fill="none" stroke="midnightblue" d="M215.427,-867.751C220.076,-870.202 224.373,-873.24 228,-877 276.195,-926.97 216.413,-978.451 264,-1029 270.343,-1035.74 278.979,-1040.11 287.822,-1042.95"/>
<polygon fill="midnightblue" stroke="midnightblue" points="216.704,-864.49 206.137,-863.725 213.921,-870.913 216.704,-864.49"/>
</g>
<!-- Node15 -->
<g id="node15" class="node"><title>Node15</title>
<g id="a_node15"><a xlink:href="class_i_s_v_g_knob.html" target="_top" xlink:title="A vector knob/dial control which rotates an SVG image. ">
<polygon fill="white" stroke="black" points="296.5,-1000.5 296.5,-1019.5 359.5,-1019.5 359.5,-1000.5 296.5,-1000.5"/>
<text text-anchor="middle" x="328" y="-1007.5" font-family="Helvetica,sans-Serif" font-size="10.00">ISVGKnob</text>
</a>
</g>
</g>
<!-- Node13&#45;&gt;Node15 -->
<g id="edge14" class="edge"><title>Node13&#45;&gt;Node15</title>
<path fill="none" stroke="midnightblue" d="M215.348,-868.139C219.977,-870.514 224.292,-873.428 228,-877 266.263,-913.866 226.187,-953.674 264,-991 272.618,-999.507 284.901,-1004.23 296.335,-1006.84"/>
<polygon fill="midnightblue" stroke="midnightblue" points="216.708,-864.914 206.137,-864.206 213.959,-871.352 216.708,-864.914"/>
</g>
<!-- Node16 -->
<g id="node16" class="node"><title>Node16</title>
<g id="a_node16"><a xlink:href="class_i_v_knob_control.html" target="_top" xlink:title="A vector knob control drawn using graphics primitves. ">
<polygon fill="white" stroke="black" points="288,-962.5 288,-981.5 368,-981.5 368,-962.5 288,-962.5"/>
<text text-anchor="middle" x="328" y="-969.5" font-family="Helvetica,sans-Serif" font-size="10.00">IVKnobControl</text>
</a>
</g>
</g>
<!-- Node13&#45;&gt;Node16 -->
<g id="edge15" class="edge"><title>Node13&#45;&gt;Node16</title>
<path fill="none" stroke="midnightblue" d="M215.621,-869.062C220.068,-871.251 224.271,-873.869 228,-877 256.621,-901.037 235.672,-928.618 264,-953 270.754,-958.813 279.24,-962.847 287.777,-965.648"/>
<polygon fill="midnightblue" stroke="midnightblue" points="216.806,-865.764 206.229,-865.147 214.112,-872.225 216.806,-865.764"/>
</g>
<!-- Node17 -->
<g id="node17" class="node"><title>Node17</title>
<g id="a_node17"><a xlink:href="class_test_arc_control.html" target="_top" xlink:title="Control to test drawing arcs. ">
<polygon fill="white" stroke="black" points="286.5,-924.5 286.5,-943.5 369.5,-943.5 369.5,-924.5 286.5,-924.5"/>
<text text-anchor="middle" x="328" y="-931.5" font-family="Helvetica,sans-Serif" font-size="10.00">TestArcControl</text>
</a>
</g>
</g>
<!-- Node13&#45;&gt;Node17 -->
<g id="edge16" class="edge"><title>Node13&#45;&gt;Node17</title>
<path fill="none" stroke="midnightblue" d="M215.643,-870.816C219.947,-872.62 224.12,-874.671 228,-877 247.947,-888.972 244.199,-902.787 264,-915 270.806,-919.198 278.601,-922.521 286.334,-925.133"/>
<polygon fill="midnightblue" stroke="midnightblue" points="216.669,-867.463 206.076,-867.246 214.221,-874.021 216.669,-867.463"/>
</g>
<!-- Node18 -->
<g id="node18" class="node"><title>Node18</title>
<g id="a_node18"><a xlink:href="class_test_blend_control.html" target="_top" xlink:title="Control to test blend methods. ">
<polygon fill="white" stroke="black" points="282,-886.5 282,-905.5 374,-905.5 374,-886.5 282,-886.5"/>
<text text-anchor="middle" x="328" y="-893.5" font-family="Helvetica,sans-Serif" font-size="10.00">TestBlendControl</text>
</a>
</g>
</g>
<!-- Node13&#45;&gt;Node18 -->
<g id="edge17" class="edge"><title>Node13&#45;&gt;Node18</title>
<path fill="none" stroke="midnightblue" d="M211.276,-869.824C234.961,-875.182 262.59,-881.431 284.911,-886.48"/>
<polygon fill="midnightblue" stroke="midnightblue" points="211.919,-866.381 201.393,-867.589 210.375,-873.209 211.919,-866.381"/>
</g>
<!-- Node19 -->
<g id="node19" class="node"><title>Node19</title>
<g id="a_node19"><a xlink:href="class_test_gradient_control.html" target="_top" xlink:title="Control to test drawing gradients with path based drawing backends. ">
<polygon fill="white" stroke="black" points="276,-848.5 276,-867.5 380,-867.5 380,-848.5 276,-848.5"/>
<text text-anchor="middle" x="328" y="-855.5" font-family="Helvetica,sans-Serif" font-size="10.00">TestGradientControl</text>
</a>
</g>
</g>
<!-- Node13&#45;&gt;Node19 -->
<g id="edge18" class="edge"><title>Node13&#45;&gt;Node19</title>
<path fill="none" stroke="midnightblue" d="M216.438,-858C235.77,-858 257.194,-858 275.996,-858"/>
<polygon fill="midnightblue" stroke="midnightblue" points="216.244,-854.5 206.244,-858 216.244,-861.5 216.244,-854.5"/>
</g>
<!-- Node20 -->
<g id="node20" class="node"><title>Node20</title>
<g id="a_node20"><a xlink:href="class_test_layer_control.html" target="_top" xlink:title="Control to test IGraphics layers. ">
<polygon fill="white" stroke="black" points="282,-810.5 282,-829.5 374,-829.5 374,-810.5 282,-810.5"/>
<text text-anchor="middle" x="328" y="-817.5" font-family="Helvetica,sans-Serif" font-size="10.00">TestLayerControl</text>
</a>
</g>
</g>
<!-- Node13&#45;&gt;Node20 -->
<g id="edge19" class="edge"><title>Node13&#45;&gt;Node20</title>
<path fill="none" stroke="midnightblue" d="M211.276,-846.176C234.961,-840.818 262.59,-834.569 284.911,-829.52"/>
<polygon fill="midnightblue" stroke="midnightblue" points="210.375,-842.791 201.393,-848.411 211.919,-849.619 210.375,-842.791"/>
</g>
<!-- Node21 -->
<g id="node21" class="node"><title>Node21</title>
<g id="a_node21"><a xlink:href="class_test_multi_path_control.html" target="_top" xlink:title="Control to test drawing paths in path&#45;based drawing backends. ">
<polygon fill="white" stroke="black" points="273.5,-772.5 273.5,-791.5 382.5,-791.5 382.5,-772.5 273.5,-772.5"/>
<text text-anchor="middle" x="328" y="-779.5" font-family="Helvetica,sans-Serif" font-size="10.00">TestMultiPathControl</text>
</a>
</g>
</g>
<!-- Node13&#45;&gt;Node21 -->
<g id="edge20" class="edge"><title>Node13&#45;&gt;Node21</title>
<path fill="none" stroke="midnightblue" d="M215.643,-845.184C219.947,-843.38 224.12,-841.329 228,-839 247.947,-827.028 244.199,-813.213 264,-801 270.223,-797.162 277.272,-794.055 284.345,-791.554"/>
<polygon fill="midnightblue" stroke="midnightblue" points="214.221,-841.979 206.076,-848.754 216.669,-848.537 214.221,-841.979"/>
</g>
<!-- Node22 -->
<g id="node22" class="node"><title>Node22</title>
<g id="a_node22"><a xlink:href="class_test_poly_control.html" target="_top" xlink:title="Control to test drawing polygons. ">
<polygon fill="white" stroke="black" points="284.5,-734.5 284.5,-753.5 371.5,-753.5 371.5,-734.5 284.5,-734.5"/>
<text text-anchor="middle" x="328" y="-741.5" font-family="Helvetica,sans-Serif" font-size="10.00">TestPolyControl</text>
</a>
</g>
</g>
<!-- Node13&#45;&gt;Node22 -->
<g id="edge21" class="edge"><title>Node13&#45;&gt;Node22</title>
<path fill="none" stroke="midnightblue" d="M215.621,-846.938C220.068,-844.749 224.271,-842.131 228,-839 256.621,-814.963 235.672,-787.382 264,-763 269.888,-757.932 277.093,-754.216 284.5,-751.491"/>
<polygon fill="midnightblue" stroke="midnightblue" points="214.112,-843.775 206.229,-850.853 216.806,-850.236 214.112,-843.775"/>
</g>
<!-- Node23 -->
<g id="node23" class="node"><title>Node23</title>
<g id="a_node23"><a xlink:href="class_test_rotating_mask_control.html" target="_top" xlink:title="TestRotatingMaskControl">
<polygon fill="white" stroke="black" points="264,-696.5 264,-715.5 392,-715.5 392,-696.5 264,-696.5"/>
<text text-anchor="middle" x="328" y="-703.5" font-family="Helvetica,sans-Serif" font-size="10.00">TestRotatingMaskControl</text>
</a>
</g>
</g>
<!-- Node13&#45;&gt;Node23 -->
<g id="edge22" class="edge"><title>Node13&#45;&gt;Node23</title>
<path fill="none" stroke="midnightblue" d="M215.348,-847.861C219.977,-845.486 224.292,-842.572 228,-839 266.263,-802.134 226.187,-762.326 264,-725 267.903,-721.148 272.556,-718.072 277.543,-715.617"/>
<polygon fill="midnightblue" stroke="midnightblue" points="213.959,-844.648 206.137,-851.794 216.708,-851.086 213.959,-844.648"/>
</g>
<!-- Node28 -->
<g id="node28" class="node"><title>Node28</title>
<g id="a_node28"><a xlink:href="class_i_b_slider_control.html" target="_top" xlink:title="A bitmap slider/fader control. ">
<polygon fill="white" stroke="black" points="286.5,-658.5 286.5,-677.5 369.5,-677.5 369.5,-658.5 286.5,-658.5"/>
<text text-anchor="middle" x="328" y="-665.5" font-family="Helvetica,sans-Serif" font-size="10.00">IBSliderControl</text>
</a>
</g>
</g>
<!-- Node27&#45;&gt;Node28 -->
<g id="edge27" class="edge"><title>Node27&#45;&gt;Node28</title>
<path fill="none" stroke="midnightblue" d="M211.469,-694.132C235.626,-688.668 263.853,-682.283 286.359,-677.193"/>
<polygon fill="midnightblue" stroke="midnightblue" points="210.375,-690.791 201.393,-696.411 211.919,-697.619 210.375,-690.791"/>
</g>
<!-- Node29 -->
<g id="node29" class="node"><title>Node29</title>
<g id="a_node29"><a xlink:href="class_i_v_slider_control.html" target="_top" xlink:title="A vector slider control. ">
<polygon fill="white" stroke="black" points="286.5,-620.5 286.5,-639.5 369.5,-639.5 369.5,-620.5 286.5,-620.5"/>
<text text-anchor="middle" x="328" y="-627.5" font-family="Helvetica,sans-Serif" font-size="10.00">IVSliderControl</text>
</a>
</g>
</g>
<!-- Node27&#45;&gt;Node29 -->
<g id="edge28" class="edge"><title>Node27&#45;&gt;Node29</title>
<path fill="none" stroke="midnightblue" d="M216.588,-692.783C220.558,-691.077 224.404,-689.158 228,-687 247.947,-675.028 244.199,-661.213 264,-649 270.806,-644.802 278.601,-641.479 286.334,-638.867"/>
<polygon fill="midnightblue" stroke="midnightblue" points="215.254,-689.546 207.165,-696.388 217.756,-696.084 215.254,-689.546"/>
</g>
<!-- Node32 -->
<g id="node32" class="node"><title>Node32</title>
<g id="a_node32"><a xlink:href="class_i_v_radio_button_control.html" target="_top" xlink:title="A vector switch control. ">
<polygon fill="white" stroke="black" points="272,-582.5 272,-601.5 384,-601.5 384,-582.5 272,-582.5"/>
<text text-anchor="middle" x="328" y="-589.5" font-family="Helvetica,sans-Serif" font-size="10.00">IVRadioButtonControl</text>
</a>
</g>
</g>
<!-- Node31&#45;&gt;Node32 -->
<g id="edge31" class="edge"><title>Node31&#45;&gt;Node32</title>
<path fill="none" stroke="midnightblue" d="M211.276,-618.176C234.961,-612.818 262.59,-606.569 284.911,-601.52"/>
<polygon fill="midnightblue" stroke="midnightblue" points="210.375,-614.791 201.393,-620.411 211.919,-621.619 210.375,-614.791"/>
</g>
<!-- Node33 -->
<g id="node33" class="node"><title>Node33</title>
<g id="a_node33"><a xlink:href="class_i_v_switch_control.html" target="_top" xlink:title="A vector switch control. ">
<polygon fill="white" stroke="black" points="284,-544.5 284,-563.5 372,-563.5 372,-544.5 284,-544.5"/>
<text text-anchor="middle" x="328" y="-551.5" font-family="Helvetica,sans-Serif" font-size="10.00">IVSwitchControl</text>
</a>
</g>
</g>
<!-- Node31&#45;&gt;Node33 -->
<g id="edge32" class="edge"><title>Node31&#45;&gt;Node33</title>
<path fill="none" stroke="midnightblue" d="M216.588,-616.783C220.558,-615.077 224.404,-613.158 228,-611 247.947,-599.028 244.199,-585.213 264,-573 270.223,-569.162 277.272,-566.055 284.345,-563.554"/>
<polygon fill="midnightblue" stroke="midnightblue" points="215.254,-613.546 207.165,-620.388 217.756,-620.084 215.254,-613.546"/>
</g>
</g>
</svg>
        <g id="navigator" transform="translate(0 0)" fill="#404254">
                <rect fill="#f2f5e9" fill-opacity="0.5" stroke="#606060" stroke-width=".5" x="0" y="0" width="60" height="60"/>
                <use id="zoomplus" xlink:href="#zoomPlus" x="17" y="9" onmousedown="handleZoom(evt,'in')"/>
                <use id="zoomminus" xlink:href="#zoomMin" x="42" y="9" onmousedown="handleZoom(evt,'out')"/>
                <use id="reset" xlink:href="#resetDef" x="30" y="36" onmousedown="handleReset()"/>
                <g id="arrowUp" xlink:href="#dirArrow" transform="translate(30 24)" onmousedown="handlePan(0,-1)">
                  <use xlink:href="#rim" fill="#404040">
                        <set attributeName="fill" to="#808080" begin="arrowUp.mouseover" end="arrowUp.mouseout"/>
                  </use>
                  <path fill="none" stroke="white" stroke-width="1.5" d="M0,-3.0v7 M-2.5,-0.5L0,-3.0L2.5,-0.5"/>
                </g>
                <g id="arrowRight" xlink:href="#dirArrow" transform="rotate(90) translate(36 -43)" onmousedown="handlePan(1,0)">
                  <use xlink:href="#rim" fill="#404040">
                        <set attributeName="fill" to="#808080" begin="arrowRight.mouseover" end="arrowRight.mouseout"/>
                  </use>
                  <path fill="none" stroke="white" stroke-width="1.5" d="M0,-3.0v7 M-2.5,-0.5L0,-3.0L2.5,-0.5"/>
                </g>
                <g id="arrowDown" xlink:href="#dirArrow" transform="rotate(180) translate(-30 -48)" onmousedown="handlePan(0,1)">
                  <use xlink:href="#rim" fill="#404040">
                        <set attributeName="fill" to="#808080" begin="arrowDown.mouseover" end="arrowDown.mouseout"/>
                  </use>
                  <path fill="none" stroke="white" stroke-width="1.5" d="M0,-3.0v7 M-2.5,-0.5L0,-3.0L2.5,-0.5"/>
                </g>
                <g id="arrowLeft" xlink:href="#dirArrow" transform="rotate(270) translate(-36 17)" onmousedown="handlePan(-1,0)">
                  <use xlink:href="#rim" fill="#404040">
                        <set attributeName="fill" to="#808080" begin="arrowLeft.mouseover" end="arrowLeft.mouseout"/>
                  </use>
                  <path fill="none" stroke="white" stroke-width="1.5" d="M0,-3.0v7 M-2.5,-0.5L0,-3.0L2.5,-0.5"/>
                </g>
        </g>
        <svg viewBox="0 0 15 15" width="100%" height="30px" preserveAspectRatio="xMaxYMin meet">
         <g id="arrow_out" transform="scale(0.3 0.3)">
          <a xlink:href="class_i_control__inherit__graph_org.svg" target="_base">
           <rect id="button" ry="5" rx="5" y="6" x="6" height="38" width="38"
                fill="#f2f5e9" fill-opacity="0.5" stroke="#606060" stroke-width="1.0"/>
           <path id="arrow"
             d="M 11.500037,31.436501 C 11.940474,20.09759 22.043105,11.32322 32.158766,21.979434 L 37.068811,17.246167 C 37.068811,17.246167 37.088388,32 37.088388,32 L 22.160133,31.978069 C 22.160133,31.978069 26.997745,27.140456 26.997745,27.140456 C 18.528582,18.264221 13.291696,25.230495 11.500037,31.436501 z"
             style="fill:#404040;"/>
          </a>
         </g>
        </svg>
</svg>
