<?xml version="1.0" encoding="UTF-8" standalone="no"?>
<!DOCTYPE svg PUBLIC "-//W3C//DTD SVG 1.1//EN"
 "http://www.w3.org/Graphics/SVG/1.1/DTD/svg11.dtd">
<!-- Generated by graphviz version 7.0.5 (20221223.1930)
 -->
<!-- Title: IEditorDelegate Pages: 1 -->
<svg width="363pt" height="82pt"
 viewBox="0.00 0.00 363.00 82.00" xmlns="http://www.w3.org/2000/svg" xmlns:xlink="http://www.w3.org/1999/xlink">
<g id="graph0" class="graph" transform="scale(1 1) rotate(0) translate(4 78)">
<title>IEditorDelegate</title>
<!-- Node1 -->
<g id="node1" class="node">
<title>Node1</title>
<g id="a_node1"><a xlink:title="This pure virtual interface delegates communication in both directions between a UI editor and someth...">
<polygon fill="#999999" stroke="#666666" points="212,-74 129,-74 129,-55 212,-55 212,-74"/>
<text text-anchor="middle" x="170.5" y="-62" font-family="Helvetica,sans-Serif" font-size="10.00">IEditorDelegate</text>
</a>
</g>
</g>
<!-- Node2 -->
<g id="node2" class="node">
<title>Node2</title>
<g id="a_node2"><a xlink:href="class_cocoa_editor_delegate.html" target="_top" xlink:title="This EditorDelegate communicates...">
<polygon fill="white" stroke="#666666" points="107,-19 0,-19 0,0 107,0 107,-19"/>
<text text-anchor="middle" x="53.5" y="-7" font-family="Helvetica,sans-Serif" font-size="10.00">CocoaEditorDelegate</text>
</a>
</g>
</g>
<!-- Node1&#45;&gt;Node2 -->
<g id="edge1" class="edge">
<title>Node1&#45;&gt;Node2</title>
<path fill="none" stroke="#63b8ff" d="M140.25,-49.8C119.07,-40.2 91.39,-27.66 73.05,-19.36"/>
<polygon fill="#63b8ff" stroke="#63b8ff" points="138.72,-52.95 149.27,-53.88 141.61,-46.57 138.72,-52.95"/>
</g>
<!-- Node3 -->
<g id="node3" class="node">
<title>Node3</title>
<g id="a_node3"><a xlink:href="class_i_g_editor_delegate.html" target="_top" xlink:title="An editor delegate base class for a SOMETHING that uses IGraphics for it&#39;s UI.">
<polygon fill="white" stroke="#666666" points="215.5,-19 125.5,-19 125.5,0 215.5,0 215.5,-19"/>
<text text-anchor="middle" x="170.5" y="-7" font-family="Helvetica,sans-Serif" font-size="10.00">IGEditorDelegate</text>
</a>
</g>
</g>
<!-- Node1&#45;&gt;Node3 -->
<g id="edge2" class="edge">
<title>Node1&#45;&gt;Node3</title>
<path fill="none" stroke="#63b8ff" d="M170.5,-43.35C170.5,-35.1 170.5,-25.97 170.5,-19.44"/>
<polygon fill="#63b8ff" stroke="#63b8ff" points="167,-43.23 170.5,-53.23 174,-43.23 167,-43.23"/>
</g>
<!-- Node4 -->
<g id="node4" class="node">
<title>Node4</title>
<g id="a_node4"><a xlink:href="class_web_view_editor_delegate.html" target="_top" xlink:title="This Editor Delegate allows using a platform native web view as the UI for an iPlug plugin.">
<polygon fill="white" stroke="#666666" points="355,-19 234,-19 234,0 355,0 355,-19"/>
<text text-anchor="middle" x="294.5" y="-7" font-family="Helvetica,sans-Serif" font-size="10.00">WebViewEditorDelegate</text>
</a>
</g>
</g>
<!-- Node1&#45;&gt;Node4 -->
<g id="edge3" class="edge">
<title>Node1&#45;&gt;Node4</title>
<path fill="none" stroke="#63b8ff" d="M201.94,-50.06C224.47,-40.43 254.17,-27.74 273.78,-19.36"/>
<polygon fill="#63b8ff" stroke="#63b8ff" points="200.75,-46.77 192.93,-53.91 203.5,-53.2 200.75,-46.77"/>
</g>
</g>
</svg>
