<?xml version="1.0" encoding="UTF-8" standalone="no"?>
<!DOCTYPE svg PUBLIC "-//W3C//DTD SVG 1.1//EN"
 "http://www.w3.org/Graphics/SVG/1.1/DTD/svg11.dtd">
<!-- Generated by graphviz version 7.0.5 (20221223.1930)
 -->
<!-- Title: IButtonControlBase Pages: 1 -->
<svg width="450pt" height="137pt"
 viewBox="0.00 0.00 450.00 137.00" xmlns="http://www.w3.org/2000/svg" xmlns:xlink="http://www.w3.org/1999/xlink">
<g id="graph0" class="graph" transform="scale(1 1) rotate(0) translate(4 133)">
<title>IButtonControlBase</title>
<!-- Node1 -->
<g id="node1" class="node">
<title>Node1</title>
<g id="a_node1"><a xlink:title="A base class for buttons/momentary switches &#45; cannot be linked to parameters.">
<polygon fill="#999999" stroke="#666666" points="275.5,-74 174.5,-74 174.5,-55 275.5,-55 275.5,-74"/>
<text text-anchor="middle" x="225" y="-62" font-family="Helvetica,sans-Serif" font-size="10.00">IButtonControlBase</text>
</a>
</g>
</g>
<!-- Node3 -->
<g id="node3" class="node">
<title>Node3</title>
<g id="a_node3"><a xlink:href="class_i_b_button_control.html" target="_top" xlink:title="A bitmap button/momentary switch control.">
<polygon fill="white" stroke="#666666" points="86,-19 0,-19 0,0 86,0 86,-19"/>
<text text-anchor="middle" x="43" y="-7" font-family="Helvetica,sans-Serif" font-size="10.00">IBButtonControl</text>
</a>
</g>
</g>
<!-- Node1&#45;&gt;Node3 -->
<g id="edge2" class="edge">
<title>Node1&#45;&gt;Node3</title>
<path fill="none" stroke="#63b8ff" d="M183.33,-51.36C149.93,-41.64 103.83,-28.21 73.72,-19.45"/>
<polygon fill="#63b8ff" stroke="#63b8ff" points="182.09,-54.65 192.67,-54.09 184.05,-47.93 182.09,-54.65"/>
</g>
<!-- Node4 -->
<g id="node4" class="node">
<title>Node4</title>
<g id="a_node4"><a xlink:href="class_i_invisible_button_control.html" target="_top" xlink:title=" ">
<polygon fill="white" stroke="#bfbfbf" points="219.5,-19 104.5,-19 104.5,0 219.5,0 219.5,-19"/>
<text text-anchor="middle" x="162" y="-7" font-family="Helvetica,sans-Serif" font-size="10.00">IInvisibleButtonControl</text>
</a>
</g>
</g>
<!-- Node1&#45;&gt;Node4 -->
<g id="edge3" class="edge">
<title>Node1&#45;&gt;Node4</title>
<path fill="none" stroke="#63b8ff" d="M205.82,-47.37C194.88,-38.16 181.59,-26.98 172.53,-19.36"/>
<polygon fill="#63b8ff" stroke="#63b8ff" points="203.25,-49.78 213.15,-53.53 207.76,-44.42 203.25,-49.78"/>
</g>
<!-- Node5 -->
<g id="node5" class="node">
<title>Node5</title>
<g id="a_node5"><a xlink:href="class_i_s_v_g_button_control.html" target="_top" xlink:title="A vector button/momentary switch control which shows two SVG states.">
<polygon fill="white" stroke="#666666" points="338,-19 238,-19 238,0 338,0 338,-19"/>
<text text-anchor="middle" x="288" y="-7" font-family="Helvetica,sans-Serif" font-size="10.00">ISVGButtonControl</text>
</a>
</g>
</g>
<!-- Node1&#45;&gt;Node5 -->
<g id="edge4" class="edge">
<title>Node1&#45;&gt;Node5</title>
<path fill="none" stroke="#63b8ff" d="M244.18,-47.37C255.12,-38.16 268.41,-26.98 277.47,-19.36"/>
<polygon fill="#63b8ff" stroke="#63b8ff" points="242.24,-44.42 236.85,-53.53 246.75,-49.78 242.24,-44.42"/>
</g>
<!-- Node6 -->
<g id="node6" class="node">
<title>Node6</title>
<g id="a_node6"><a xlink:href="class_i_v_button_control.html" target="_top" xlink:title="A vector button/momentary switch control.">
<polygon fill="white" stroke="#666666" points="442,-19 356,-19 356,0 442,0 442,-19"/>
<text text-anchor="middle" x="399" y="-7" font-family="Helvetica,sans-Serif" font-size="10.00">IVButtonControl</text>
</a>
</g>
</g>
<!-- Node1&#45;&gt;Node6 -->
<g id="edge5" class="edge">
<title>Node1&#45;&gt;Node6</title>
<path fill="none" stroke="#63b8ff" d="M265.26,-51.24C297.15,-41.52 340.97,-28.18 369.63,-19.45"/>
<polygon fill="#63b8ff" stroke="#63b8ff" points="264.51,-47.81 255.96,-54.07 266.55,-54.5 264.51,-47.81"/>
</g>
<!-- Node2 -->
<g id="node2" class="node">
<title>Node2</title>
<g id="a_node2"><a xlink:href="class_i_control.html" target="_top" xlink:title="The lowest level base class of an IGraphics control.">
<polygon fill="white" stroke="#666666" points="250,-129 200,-129 200,-110 250,-110 250,-129"/>
<text text-anchor="middle" x="225" y="-117" font-family="Helvetica,sans-Serif" font-size="10.00">IControl</text>
</a>
</g>
</g>
<!-- Node2&#45;&gt;Node1 -->
<g id="edge1" class="edge">
<title>Node2&#45;&gt;Node1</title>
<path fill="none" stroke="#63b8ff" d="M225,-98.35C225,-90.1 225,-80.97 225,-74.44"/>
<polygon fill="#63b8ff" stroke="#63b8ff" points="221.5,-98.23 225,-108.23 228.5,-98.23 221.5,-98.23"/>
</g>
</g>
</svg>
