<?xml version="1.0" encoding="UTF-8" standalone="no"?>
<!DOCTYPE svg PUBLIC "-//W3C//DTD SVG 1.1//EN"
 "http://www.w3.org/Graphics/SVG/1.1/DTD/svg11.dtd">
<!-- Generated by graphviz version 7.0.5 (20221223.1930)
 -->
<!-- Title: IVectorBase Pages: 1 -->
<!--zoomable 828 -->
<svg id="main" version="1.1" xmlns="http://www.w3.org/2000/svg" xmlns:xlink="http://www.w3.org/1999/xlink" xml:space="preserve" onload="init(evt)">
<style type="text/css"><![CDATA[
.edge:hover path { stroke: red; }
.edge:hover polygon { stroke: red; fill: red; }
]]></style>
<script type="text/javascript"><![CDATA[
var edges = document.getElementsByTagName('g');
if (edges && edges.length) {
  for (var i=0;i<edges.length;i++) {
    if (edges[i].id.substr(0,4)=='edge') {
      edges[i].setAttribute('class','edge');
    }
  }
}
]]></script>
        <defs>
                <circle id="rim" cx="0" cy="0" r="7"/>
                <circle id="rim2" cx="0" cy="0" r="3.5"/>
                <g id="zoomPlus">
                        <use xlink:href="#rim" fill="#404040">
                                <set attributeName="fill" to="#808080" begin="zoomplus.mouseover" end="zoomplus.mouseout"/>
                        </use>
                        <path d="M-4,0h8M0,-4v8" fill="none" stroke="white" stroke-width="1.5" pointer-events="none"/>
                </g>
                <g id="zoomMin">
                        <use xlink:href="#rim" fill="#404040">
                                <set attributeName="fill" to="#808080" begin="zoomminus.mouseover" end="zoomminus.mouseout"/>
                        </use>
                        <path d="M-4,0h8" fill="none" stroke="white" stroke-width="1.5" pointer-events="none"/>
                </g>
                <g id="dirArrow">
                        <path fill="none" stroke="white" stroke-width="1.5" d="M0,-3.0v7 M-2.5,-0.5L0,-3.0L2.5,-0.5"/>
                </g>
               <g id="resetDef">
                       <use xlink:href="#rim2" fill="#404040">
                               <set attributeName="fill" to="#808080" begin="reset.mouseover" end="reset.mouseout"/>
                       </use>
               </g>
        </defs>

<script type="text/javascript">
var viewWidth = 615;
var viewHeight = 828;
var sectionId = 'dynsection-0';
</script>
<script xlink:href="svgpan.js"/>
<svg id="graph" class="graph">
<g id="viewport">
<title>IVectorBase</title>
<!-- Node1 -->
<g id="node1" class="node">
<title>Node1</title>
<g id="a_node1"><a xlink:title="A base interface to be combined with IControl for vectorial controls &quot;IVControls&quot;,...">
<polygon fill="#999999" stroke="#666666" points="71,-468 0,-468 0,-449 71,-449 71,-468"/>
<text text-anchor="middle" x="35.5" y="-456" font-family="Helvetica,sans-Serif" font-size="10.00">IVectorBase</text>
</a>
</g>
</g>
<!-- Node2 -->
<g id="node2" class="node">
<title>Node2</title>
<g id="a_node2"><a xlink:href="class_i_f_p_s_display_control.html" target="_top" xlink:title="Performance display meter, based on code from NanoVG This is a special control that lives outside the...">
<polygon fill="white" stroke="#666666" points="233,-820 132,-820 132,-801 233,-801 233,-820"/>
<text text-anchor="middle" x="182.5" y="-808" font-family="Helvetica,sans-Serif" font-size="10.00">IFPSDisplayControl</text>
</a>
</g>
</g>
<!-- Node1&#45;&gt;Node2 -->
<g id="edge1" class="edge">
<title>Node1&#45;&gt;Node2</title>
<path fill="none" stroke="#63b8ff" d="M38.06,-479.51C43.37,-545.54 62.97,-747.17 107,-792.5 113.68,-799.37 122.49,-803.8 131.71,-806.62"/>
<polygon fill="#63b8ff" stroke="#63b8ff" points="41.56,-479.41 37.3,-469.71 34.58,-479.95 41.56,-479.41"/>
</g>
<!-- Node3 -->
<g id="node3" class="node">
<title>Node3</title>
<g id="a_node3"><a xlink:href="class_i_v_baked_preset_manager_control.html" target="_top" xlink:title="A &quot;meta control&quot; for a &quot;preset manager&quot; for &quot;baked in&quot; factory presets It adds several child buttons.">
<polygon fill="white" stroke="#666666" points="258,-783 107,-783 107,-764 258,-764 258,-783"/>
<text text-anchor="middle" x="182.5" y="-771" font-family="Helvetica,sans-Serif" font-size="10.00">IVBakedPresetManagerControl</text>
</a>
</g>
</g>
<!-- Node1&#45;&gt;Node3 -->
<g id="edge2" class="edge">
<title>Node1&#45;&gt;Node3</title>
<path fill="none" stroke="#63b8ff" d="M38.66,-479.54C45.34,-540.6 67.63,-715.98 107,-755.5 110.19,-758.71 113.85,-761.38 117.8,-763.6"/>
<polygon fill="#63b8ff" stroke="#63b8ff" points="42.16,-479.42 37.63,-469.85 35.2,-480.16 42.16,-479.42"/>
</g>
<!-- Node4 -->
<g id="node4" class="node">
<title>Node4</title>
<g id="a_node4"><a xlink:href="class_i_v_button_control.html" target="_top" xlink:title="A vector button/momentary switch control.">
<polygon fill="white" stroke="#666666" points="225.5,-746 139.5,-746 139.5,-727 225.5,-727 225.5,-746"/>
<text text-anchor="middle" x="182.5" y="-734" font-family="Helvetica,sans-Serif" font-size="10.00">IVButtonControl</text>
</a>
</g>
</g>
<!-- Node1&#45;&gt;Node4 -->
<g id="edge3" class="edge">
<title>Node1&#45;&gt;Node4</title>
<path fill="none" stroke="#63b8ff" d="M39.4,-479.44C47.54,-535.08 72.24,-684.69 107,-718.5 115.68,-726.94 127.6,-731.66 139.37,-734.23"/>
<polygon fill="#63b8ff" stroke="#63b8ff" points="42.9,-479.15 38.02,-469.74 35.97,-480.14 42.9,-479.15"/>
</g>
<!-- Node5 -->
<g id="node5" class="node">
<title>Node5</title>
<g id="a_node5"><a xlink:href="class_i_v_color_swatch_control.html" target="_top" xlink:title="A control to show a color swatch of up to 9 colors.">
<polygon fill="white" stroke="#666666" points="239,-709 126,-709 126,-690 239,-690 239,-709"/>
<text text-anchor="middle" x="182.5" y="-697" font-family="Helvetica,sans-Serif" font-size="10.00">IVColorSwatchControl</text>
</a>
</g>
</g>
<!-- Node1&#45;&gt;Node5 -->
<g id="edge4" class="edge">
<title>Node1&#45;&gt;Node5</title>
<path fill="none" stroke="#63b8ff" d="M36.68,-479.54C38.24,-523.76 48.37,-626.79 107,-681.5 112.35,-686.49 118.84,-690.17 125.73,-692.87"/>
<polygon fill="#63b8ff" stroke="#63b8ff" points="40.18,-479.7 36.46,-469.78 33.18,-479.85 40.18,-479.7"/>
</g>
<!-- Node6 -->
<g id="node6" class="node">
<title>Node6</title>
<g id="a_node6"><a xlink:href="class_i_v_display_control.html" target="_top" xlink:title="A control to display a rolling graphics of historical values.">
<polygon fill="white" stroke="#666666" points="227,-672 138,-672 138,-653 227,-653 227,-672"/>
<text text-anchor="middle" x="182.5" y="-660" font-family="Helvetica,sans-Serif" font-size="10.00">IVDisplayControl</text>
</a>
</g>
</g>
<!-- Node1&#45;&gt;Node6 -->
<g id="edge5" class="edge">
<title>Node1&#45;&gt;Node6</title>
<path fill="none" stroke="#63b8ff" d="M38.23,-479.72C42.58,-518.49 57.44,-600.79 107,-644.5 115.48,-651.98 126.55,-656.48 137.54,-659.15"/>
<polygon fill="#63b8ff" stroke="#63b8ff" points="41.73,-479.48 37.28,-469.87 34.76,-480.16 41.73,-479.48"/>
</g>
<!-- Node7 -->
<g id="node7" class="node">
<title>Node7</title>
<g id="a_node7"><a xlink:href="class_i_v_group_control.html" target="_top" xlink:title="A control to draw a rectangle around a named IControl group.">
<polygon fill="white" stroke="#666666" points="224,-635 141,-635 141,-616 224,-616 224,-635"/>
<text text-anchor="middle" x="182.5" y="-623" font-family="Helvetica,sans-Serif" font-size="10.00">IVGroupControl</text>
</a>
</g>
</g>
<!-- Node1&#45;&gt;Node7 -->
<g id="edge6" class="edge">
<title>Node1&#45;&gt;Node7</title>
<path fill="none" stroke="#63b8ff" d="M40.44,-479.54C47.68,-512.09 66.24,-574.34 107,-607.5 116.5,-615.23 128.79,-619.72 140.64,-622.32"/>
<polygon fill="#63b8ff" stroke="#63b8ff" points="43.88,-478.86 38.44,-469.77 37.02,-480.27 43.88,-478.86"/>
</g>
<!-- Node8 -->
<g id="node8" class="node">
<title>Node8</title>
<g id="a_node8"><a xlink:href="class_i_v_knob_control.html" target="_top" xlink:title="A vector knob control drawn using graphics primitives.">
<polygon fill="white" stroke="#666666" points="222.5,-598 142.5,-598 142.5,-579 222.5,-579 222.5,-598"/>
<text text-anchor="middle" x="182.5" y="-586" font-family="Helvetica,sans-Serif" font-size="10.00">IVKnobControl</text>
</a>
</g>
</g>
<!-- Node1&#45;&gt;Node8 -->
<g id="edge7" class="edge">
<title>Node1&#45;&gt;Node8</title>
<path fill="none" stroke="#63b8ff" d="M43.81,-479.02C53.96,-504.48 74.78,-547.35 107,-570.5 117.27,-577.88 130.17,-582.26 142.35,-584.85"/>
<polygon fill="#63b8ff" stroke="#63b8ff" points="47.13,-477.92 40.32,-469.8 40.58,-480.39 47.13,-477.92"/>
</g>
<!-- Node9 -->
<g id="node9" class="node">
<title>Node9</title>
<g id="a_node9"><a xlink:href="class_i_v_label_control.html" target="_top" xlink:title="A vector label control that can display text with a shadow.">
<polygon fill="white" stroke="#666666" points="223,-561 142,-561 142,-542 223,-542 223,-561"/>
<text text-anchor="middle" x="182.5" y="-549" font-family="Helvetica,sans-Serif" font-size="10.00">IVLabelControl</text>
</a>
</g>
</g>
<!-- Node1&#45;&gt;Node9 -->
<g id="edge8" class="edge">
<title>Node1&#45;&gt;Node9</title>
<path fill="none" stroke="#63b8ff" d="M49.26,-477.37C61.91,-494.6 82.85,-519.46 107,-533.5 117.47,-539.59 129.91,-543.62 141.59,-546.29"/>
<polygon fill="#63b8ff" stroke="#63b8ff" points="52.31,-475.63 43.68,-469.48 46.6,-479.67 52.31,-475.63"/>
</g>
<!-- Node10 -->
<g id="node10" class="node">
<title>Node10</title>
<g id="a_node10"><a xlink:href="class_i_v_menu_button_control.html" target="_top" xlink:title="A vector button that pops up a menu.">
<polygon fill="white" stroke="#666666" points="237.5,-524 127.5,-524 127.5,-505 237.5,-505 237.5,-524"/>
<text text-anchor="middle" x="182.5" y="-512" font-family="Helvetica,sans-Serif" font-size="10.00">IVMenuButtonControl</text>
</a>
</g>
</g>
<!-- Node1&#45;&gt;Node10 -->
<g id="edge9" class="edge">
<title>Node1&#45;&gt;Node10</title>
<path fill="none" stroke="#63b8ff" d="M61.88,-474.24C74.97,-481.82 91.43,-490.54 107,-496.5 115.08,-499.59 123.86,-502.28 132.46,-504.56"/>
<polygon fill="#63b8ff" stroke="#63b8ff" points="63.87,-471.35 53.48,-469.25 60.29,-477.37 63.87,-471.35"/>
</g>
<!-- Node11 -->
<g id="node11" class="node">
<title>Node11</title>
<g id="a_node11"><a xlink:href="class_i_v_number_box_control.html" target="_top" xlink:title="A &quot;meta control&quot; for a number box with an Inc/Dec button It adds several child buttons if buttons = t...">
<polygon fill="white" stroke="#666666" points="236.5,-487 128.5,-487 128.5,-468 236.5,-468 236.5,-487"/>
<text text-anchor="middle" x="182.5" y="-475" font-family="Helvetica,sans-Serif" font-size="10.00">IVNumberBoxControl</text>
</a>
</g>
</g>
<!-- Node1&#45;&gt;Node11 -->
<g id="edge10" class="edge">
<title>Node1&#45;&gt;Node11</title>
<path fill="none" stroke="#63b8ff" d="M82.45,-464.52C96.95,-466.42 113.1,-468.54 128.07,-470.5"/>
<polygon fill="#63b8ff" stroke="#63b8ff" points="83.1,-461.08 72.73,-463.25 82.19,-468.02 83.1,-461.08"/>
</g>
<!-- Node12 -->
<g id="node12" class="node">
<title>Node12</title>
<g id="a_node12"><a xlink:href="class_i_v_panel_control.html" target="_top" xlink:title="A panel control which can be styled with emboss etc.">
<polygon fill="white" stroke="#666666" points="223.5,-450 141.5,-450 141.5,-431 223.5,-431 223.5,-450"/>
<text text-anchor="middle" x="182.5" y="-438" font-family="Helvetica,sans-Serif" font-size="10.00">IVPanelControl</text>
</a>
</g>
</g>
<!-- Node1&#45;&gt;Node12 -->
<g id="edge11" class="edge">
<title>Node1&#45;&gt;Node12</title>
<path fill="none" stroke="#63b8ff" d="M82.54,-452.78C101.37,-450.45 122.95,-447.77 141.14,-445.51"/>
<polygon fill="#63b8ff" stroke="#63b8ff" points="82.23,-449.3 72.73,-454 83.09,-456.24 82.23,-449.3"/>
</g>
<!-- Node13 -->
<g id="node13" class="node">
<title>Node13</title>
<g id="a_node13"><a xlink:href="class_i_v_plot_control.html" target="_top" xlink:title="A vector plot to display functions and waveforms.">
<polygon fill="white" stroke="#666666" points="219.5,-413 145.5,-413 145.5,-394 219.5,-394 219.5,-413"/>
<text text-anchor="middle" x="182.5" y="-401" font-family="Helvetica,sans-Serif" font-size="10.00">IVPlotControl</text>
</a>
</g>
</g>
<!-- Node1&#45;&gt;Node13 -->
<g id="edge12" class="edge">
<title>Node1&#45;&gt;Node13</title>
<path fill="none" stroke="#63b8ff" d="M63.44,-442.96C76.31,-436 92.13,-428.11 107,-422.5 119.11,-417.93 132.74,-414.09 145,-411.09"/>
<polygon fill="#63b8ff" stroke="#63b8ff" points="61.77,-439.88 54.72,-447.79 65.16,-446 61.77,-439.88"/>
</g>
<!-- Node14 -->
<g id="node14" class="node">
<title>Node14</title>
<g id="a_node14"><a xlink:href="class_i_v_scope_control.html" target="_top" xlink:title="Vectorial multi&#45;channel capable oscilloscope control.">
<polygon fill="white" stroke="#666666" points="248.5,-375.5 116.5,-375.5 116.5,-345.5 248.5,-345.5 248.5,-375.5"/>
<text text-anchor="start" x="124.5" y="-363.5" font-family="Helvetica,sans-Serif" font-size="10.00">IVScopeControl&lt; MAXNC,</text>
<text text-anchor="middle" x="182.5" y="-352.5" font-family="Helvetica,sans-Serif" font-size="10.00"> MAXBUF &gt;</text>
</a>
</g>
</g>
<!-- Node1&#45;&gt;Node14 -->
<g id="edge13" class="edge">
<title>Node1&#45;&gt;Node14</title>
<path fill="none" stroke="#63b8ff" d="M50.28,-439.81C63.26,-423.41 84.09,-399.97 107,-385.5 112.77,-381.86 119.12,-378.68 125.62,-375.94"/>
<polygon fill="#63b8ff" stroke="#63b8ff" points="47.82,-437.27 44.51,-447.33 53.37,-441.53 47.82,-437.27"/>
</g>
<!-- Node15 -->
<g id="node15" class="node">
<title>Node15</title>
<g id="a_node15"><a xlink:href="class_i_v_slider_control.html" target="_top" xlink:title="A vector slider control.">
<polygon fill="white" stroke="#666666" points="223.5,-327 141.5,-327 141.5,-308 223.5,-308 223.5,-327"/>
<text text-anchor="middle" x="182.5" y="-315" font-family="Helvetica,sans-Serif" font-size="10.00">IVSliderControl</text>
</a>
</g>
</g>
<!-- Node1&#45;&gt;Node15 -->
<g id="edge14" class="edge">
<title>Node1&#45;&gt;Node15</title>
<path fill="none" stroke="#63b8ff" d="M42.66,-438.21C52.03,-410.87 72.52,-362.62 107,-336.5 116.79,-329.09 129.16,-324.55 141,-321.77"/>
<polygon fill="#63b8ff" stroke="#63b8ff" points="39.44,-436.8 39.69,-447.39 46.1,-438.96 39.44,-436.8"/>
</g>
<!-- Node16 -->
<g id="node16" class="node">
<title>Node16</title>
<g id="a_node16"><a xlink:href="class_i_v_switch_control.html" target="_top" xlink:title="A vector switch control.">
<polygon fill="white" stroke="#666666" points="226,-290 139,-290 139,-271 226,-271 226,-290"/>
<text text-anchor="middle" x="182.5" y="-278" font-family="Helvetica,sans-Serif" font-size="10.00">IVSwitchControl</text>
</a>
</g>
</g>
<!-- Node1&#45;&gt;Node16 -->
<g id="edge15" class="edge">
<title>Node1&#45;&gt;Node16</title>
<path fill="none" stroke="#63b8ff" d="M39.79,-437.55C46.3,-403.36 64.07,-335.78 107,-299.5 115.87,-292 127.32,-287.41 138.56,-284.61"/>
<polygon fill="#63b8ff" stroke="#63b8ff" points="36.41,-436.57 38.14,-447.02 43.31,-437.77 36.41,-436.57"/>
</g>
<!-- Node19 -->
<g id="node19" class="node">
<title>Node19</title>
<g id="a_node19"><a xlink:href="class_i_v_tab_page.html" target="_top" xlink:title="A control used as the base class for a tabbed page of subcontrols.">
<polygon fill="white" stroke="#666666" points="215,-253 150,-253 150,-234 215,-234 215,-253"/>
<text text-anchor="middle" x="182.5" y="-241" font-family="Helvetica,sans-Serif" font-size="10.00">IVTabPage</text>
</a>
</g>
</g>
<!-- Node1&#45;&gt;Node19 -->
<g id="edge18" class="edge">
<title>Node1&#45;&gt;Node19</title>
<path fill="none" stroke="#63b8ff" d="M37.82,-437.32C41.49,-397.1 55.32,-309.46 107,-262.5 118.56,-252 135.11,-247.13 149.68,-244.93"/>
<polygon fill="#63b8ff" stroke="#63b8ff" points="34.34,-436.86 37.06,-447.1 41.32,-437.4 34.34,-436.86"/>
</g>
<!-- Node20 -->
<g id="node20" class="node">
<title>Node20</title>
<g id="a_node20"><a xlink:href="class_i_v_tab_switch_control.html" target="_top" xlink:title="A vector &quot;tab&quot; multi switch control.">
<polygon fill="white" stroke="#666666" points="234.5,-216 130.5,-216 130.5,-197 234.5,-197 234.5,-216"/>
<text text-anchor="middle" x="182.5" y="-204" font-family="Helvetica,sans-Serif" font-size="10.00">IVTabSwitchControl</text>
</a>
</g>
</g>
<!-- Node1&#45;&gt;Node20 -->
<g id="edge19" class="edge">
<title>Node1&#45;&gt;Node20</title>
<path fill="none" stroke="#63b8ff" d="M36.39,-437.53C37.35,-392.01 46.28,-283.6 107,-225.5 113.46,-219.32 121.64,-215.07 130.2,-212.17"/>
<polygon fill="#63b8ff" stroke="#63b8ff" points="32.9,-437.29 36.31,-447.32 39.9,-437.35 32.9,-437.29"/>
</g>
<!-- Node22 -->
<g id="node22" class="node">
<title>Node22</title>
<g id="a_node22"><a xlink:href="class_i_v_tabbed_pages_control.html" target="_top" xlink:title="A control to manage tabbed pages of sub controls Basic usage example:">
<polygon fill="white" stroke="#666666" points="241,-179 124,-179 124,-160 241,-160 241,-179"/>
<text text-anchor="middle" x="182.5" y="-167" font-family="Helvetica,sans-Serif" font-size="10.00">IVTabbedPagesControl</text>
</a>
</g>
</g>
<!-- Node1&#45;&gt;Node22 -->
<g id="edge21" class="edge">
<title>Node1&#45;&gt;Node22</title>
<path fill="none" stroke="#63b8ff" d="M39.21,-437.54C47,-380.44 71.23,-224.07 107,-188.5 111.73,-183.79 117.46,-180.2 123.61,-177.47"/>
<polygon fill="#63b8ff" stroke="#63b8ff" points="35.77,-436.82 37.93,-447.19 42.71,-437.74 35.77,-436.82"/>
</g>
<!-- Node23 -->
<g id="node23" class="node">
<title>Node23</title>
<g id="a_node23"><a xlink:href="class_i_v_track_control_base.html" target="_top" xlink:title="A base class for mult&#45;strip/track controls, such as multi&#45;sliders, meters Track refers to the channel...">
<polygon fill="white" stroke="#666666" points="234.5,-142 130.5,-142 130.5,-123 234.5,-123 234.5,-142"/>
<text text-anchor="middle" x="182.5" y="-130" font-family="Helvetica,sans-Serif" font-size="10.00">IVTrackControlBase</text>
</a>
</g>
</g>
<!-- Node1&#45;&gt;Node23 -->
<g id="edge22" class="edge">
<title>Node1&#45;&gt;Node23</title>
<path fill="none" stroke="#63b8ff" d="M38.49,-437.59C44.85,-375.32 66.61,-192.87 107,-151.5 113.34,-145.01 121.57,-140.62 130.24,-137.68"/>
<polygon fill="#63b8ff" stroke="#63b8ff" points="35.05,-436.86 37.55,-447.16 42.02,-437.55 35.05,-436.86"/>
</g>
<!-- Node32 -->
<g id="node32" class="node">
<title>Node32</title>
<g id="a_node32"><a xlink:href="class_i_v_x_y_pad_control.html" target="_top" xlink:title="A vector XY Pad slider control.">
<polygon fill="white" stroke="#666666" points="226.5,-105 138.5,-105 138.5,-86 226.5,-86 226.5,-105"/>
<text text-anchor="middle" x="182.5" y="-93" font-family="Helvetica,sans-Serif" font-size="10.00">IVXYPadControl</text>
</a>
</g>
</g>
<!-- Node1&#45;&gt;Node32 -->
<g id="edge32" class="edge">
<title>Node1&#45;&gt;Node32</title>
<path fill="none" stroke="#63b8ff" d="M37.95,-437.31C43.01,-369.84 62.04,-161.65 107,-114.5 115.2,-105.9 126.7,-100.99 138.22,-98.23"/>
<polygon fill="#63b8ff" stroke="#63b8ff" points="34.48,-436.79 37.26,-447.02 41.47,-437.29 34.48,-436.79"/>
</g>
<!-- Node17 -->
<g id="node17" class="node">
<title>Node17</title>
<g id="a_node17"><a xlink:href="class_i_v_slide_switch_control.html" target="_top" xlink:title="A switch with a slide animation when clicked.">
<polygon fill="white" stroke="#666666" points="415.5,-327 306.5,-327 306.5,-308 415.5,-308 415.5,-327"/>
<text text-anchor="middle" x="361" y="-315" font-family="Helvetica,sans-Serif" font-size="10.00">IVSlideSwitchControl</text>
</a>
</g>
</g>
<!-- Node16&#45;&gt;Node17 -->
<g id="edge16" class="edge">
<title>Node16&#45;&gt;Node17</title>
<path fill="none" stroke="#63b8ff" d="M237.27,-291.77C261.22,-296.79 289.2,-302.66 312.39,-307.52"/>
<polygon fill="#63b8ff" stroke="#63b8ff" points="238.21,-288.39 227.71,-289.77 236.78,-295.24 238.21,-288.39"/>
</g>
<!-- Node18 -->
<g id="node18" class="node">
<title>Node18</title>
<g id="a_node18"><a xlink:href="class_i_v_toggle_control.html" target="_top" xlink:title="A vector toggle control.">
<polygon fill="white" stroke="#666666" points="404,-290 318,-290 318,-271 404,-271 404,-290"/>
<text text-anchor="middle" x="361" y="-278" font-family="Helvetica,sans-Serif" font-size="10.00">IVToggleControl</text>
</a>
</g>
</g>
<!-- Node16&#45;&gt;Node18 -->
<g id="edge17" class="edge">
<title>Node16&#45;&gt;Node18</title>
<path fill="none" stroke="#63b8ff" d="M237.68,-280.5C263.4,-280.5 293.67,-280.5 317.67,-280.5"/>
<polygon fill="#63b8ff" stroke="#63b8ff" points="237.74,-277 227.74,-280.5 237.74,-284 237.74,-277"/>
</g>
<!-- Node21 -->
<g id="node21" class="node">
<title>Node21</title>
<g id="a_node21"><a xlink:href="class_i_v_radio_button_control.html" target="_top" xlink:title="A vector &quot;radio buttons&quot; switch control.">
<polygon fill="white" stroke="#666666" points="416,-253 306,-253 306,-234 416,-234 416,-253"/>
<text text-anchor="middle" x="361" y="-241" font-family="Helvetica,sans-Serif" font-size="10.00">IVRadioButtonControl</text>
</a>
</g>
</g>
<!-- Node20&#45;&gt;Node21 -->
<g id="edge20" class="edge">
<title>Node20&#45;&gt;Node21</title>
<path fill="none" stroke="#63b8ff" d="M241.79,-218.72C264.76,-223.53 290.79,-228.99 312.57,-233.56"/>
<polygon fill="#63b8ff" stroke="#63b8ff" points="242.79,-215.35 232.28,-216.73 241.35,-222.2 242.79,-215.35"/>
</g>
<!-- Node24 -->
<g id="node24" class="node">
<title>Node24</title>
<g id="a_node24"><a xlink:href="class_i_v_meter_control.html" target="_top" xlink:title=" ">
<polygon fill="white" stroke="#666666" points="428,-216 294,-216 294,-197 428,-197 428,-216"/>
<text text-anchor="middle" x="361" y="-204" font-family="Helvetica,sans-Serif" font-size="10.00">IVMeterControl&lt; MAXNC &gt;</text>
</a>
</g>
</g>
<!-- Node23&#45;&gt;Node24 -->
<g id="edge23" class="edge">
<title>Node23&#45;&gt;Node24</title>
<path fill="none" stroke="#63b8ff" d="M245.21,-145.32C249.66,-147.12 253.97,-149.17 258,-151.5 277.86,-162.99 274.23,-176.85 294,-188.5 299.42,-191.7 305.43,-194.34 311.54,-196.53"/>
<polygon fill="#63b8ff" stroke="#63b8ff" points="246.69,-142.13 236.09,-142.07 244.33,-148.72 246.69,-142.13"/>
</g>
<!-- Node26 -->
<g id="node26" class="node">
<title>Node26</title>
<g id="a_node26"><a xlink:href="class_i_v_meter_control.html" target="_top" xlink:title=" ">
<polygon fill="white" stroke="#666666" points="413,-179 309,-179 309,-160 413,-160 413,-179"/>
<text text-anchor="middle" x="361" y="-167" font-family="Helvetica,sans-Serif" font-size="10.00">IVMeterControl&lt; 1 &gt;</text>
</a>
</g>
</g>
<!-- Node23&#45;&gt;Node26 -->
<g id="edge25" class="edge">
<title>Node23&#45;&gt;Node26</title>
<path fill="none" stroke="#63b8ff" d="M241.79,-144.72C264.76,-149.53 290.79,-154.99 312.57,-159.56"/>
<polygon fill="#63b8ff" stroke="#63b8ff" points="242.79,-141.35 232.28,-142.73 241.35,-148.2 242.79,-141.35"/>
</g>
<!-- Node27 -->
<g id="node27" class="node">
<title>Node27</title>
<g id="a_node27"><a xlink:href="class_i_v_multi_slider_control.html" target="_top" xlink:title=" ">
<polygon fill="white" stroke="#666666" points="423.5,-142 298.5,-142 298.5,-123 423.5,-123 423.5,-142"/>
<text text-anchor="middle" x="361" y="-130" font-family="Helvetica,sans-Serif" font-size="10.00">IVMultiSliderControl&lt; 1 &gt;</text>
</a>
</g>
</g>
<!-- Node23&#45;&gt;Node27 -->
<g id="edge26" class="edge">
<title>Node23&#45;&gt;Node27</title>
<path fill="none" stroke="#63b8ff" d="M246.01,-132.5C262.93,-132.5 281.23,-132.5 298.11,-132.5"/>
<polygon fill="#63b8ff" stroke="#63b8ff" points="246.06,-129 236.06,-132.5 246.06,-136 246.06,-129"/>
</g>
<!-- Node28 -->
<g id="node28" class="node">
<title>Node28</title>
<g id="a_node28"><a xlink:href="class_i_v_meter_control.html" target="_top" xlink:title="Vectorial multi&#45;channel capable meter control, linear or log response.">
<polygon fill="white" stroke="#666666" points="428,-105 294,-105 294,-86 428,-86 428,-105"/>
<text text-anchor="middle" x="361" y="-93" font-family="Helvetica,sans-Serif" font-size="10.00">IVMeterControl&lt; MAXNC &gt;</text>
</a>
</g>
</g>
<!-- Node23&#45;&gt;Node28 -->
<g id="edge27" class="edge">
<title>Node23&#45;&gt;Node28</title>
<path fill="none" stroke="#63b8ff" d="M241.79,-120.28C264.76,-115.47 290.79,-110.01 312.57,-105.44"/>
<polygon fill="#63b8ff" stroke="#63b8ff" points="241.35,-116.8 232.28,-122.27 242.79,-123.65 241.35,-116.8"/>
</g>
<!-- Node29 -->
<g id="node29" class="node">
<title>Node29</title>
<g id="a_node29"><a xlink:href="class_i_v_multi_slider_control.html" target="_top" xlink:title="A vectorial multi&#45;slider control.">
<polygon fill="white" stroke="#666666" points="412.5,-67.5 309.5,-67.5 309.5,-37.5 412.5,-37.5 412.5,-67.5"/>
<text text-anchor="start" x="317.5" y="-55.5" font-family="Helvetica,sans-Serif" font-size="10.00">IVMultiSliderControl</text>
<text text-anchor="middle" x="361" y="-44.5" font-family="Helvetica,sans-Serif" font-size="10.00">&lt; MAXNC &gt;</text>
</a>
</g>
</g>
<!-- Node23&#45;&gt;Node29 -->
<g id="edge29" class="edge">
<title>Node23&#45;&gt;Node29</title>
<path fill="none" stroke="#63b8ff" d="M245.24,-120.61C249.68,-118.85 253.98,-116.82 258,-114.5 278.13,-102.84 274.55,-89.26 294,-76.5 298.89,-73.29 304.27,-70.44 309.78,-67.93"/>
<polygon fill="#63b8ff" stroke="#63b8ff" points="244.43,-117.19 236.14,-123.78 246.73,-123.8 244.43,-117.19"/>
</g>
<!-- Node31 -->
<g id="node31" class="node">
<title>Node31</title>
<g id="a_node31"><a xlink:href="class_i_v_range_slider_control.html" target="_top" xlink:title="A vector range slider control, with two handles.">
<polygon fill="white" stroke="#666666" points="416,-19 306,-19 306,0 416,0 416,-19"/>
<text text-anchor="middle" x="361" y="-7" font-family="Helvetica,sans-Serif" font-size="10.00">IVRangeSliderControl</text>
</a>
</g>
</g>
<!-- Node23&#45;&gt;Node31 -->
<g id="edge31" class="edge">
<title>Node23&#45;&gt;Node31</title>
<path fill="none" stroke="#63b8ff" d="M245.13,-122.73C249.77,-120.5 254.14,-117.79 258,-114.5 289.54,-87.63 263.05,-56.05 294,-28.5 298.19,-24.77 303.06,-21.78 308.23,-19.36"/>
<polygon fill="#63b8ff" stroke="#63b8ff" points="244.07,-119.39 236.06,-126.33 246.64,-125.9 244.07,-119.39"/>
</g>
<!-- Node25 -->
<g id="node25" class="node">
<title>Node25</title>
<g id="a_node25"><a xlink:href="class_i_v_peak_avg_meter_control.html" target="_top" xlink:title=" ">
<polygon fill="white" stroke="#666666" points="607,-160 464,-160 464,-141 607,-141 607,-160"/>
<text text-anchor="middle" x="535.5" y="-148" font-family="Helvetica,sans-Serif" font-size="10.00">IVPeakAvgMeterControl&lt; 1 &gt;</text>
</a>
</g>
</g>
<!-- Node24&#45;&gt;Node25 -->
<g id="edge24" class="edge">
<title>Node24&#45;&gt;Node25</title>
<path fill="none" stroke="#63b8ff" d="M411.31,-193.5C416.95,-191.88 422.61,-190.19 428,-188.5 455.72,-179.79 486.98,-168.45 508.43,-160.43"/>
<polygon fill="#63b8ff" stroke="#63b8ff" points="410.67,-190.04 401.99,-196.11 412.57,-196.78 410.67,-190.04"/>
</g>
<!-- Node28&#45;&gt;Node25 -->
<g id="edge28" class="edge">
<title>Node28&#45;&gt;Node25</title>
<path fill="none" stroke="#63b8ff" d="M408.56,-108.62C415.1,-110.54 421.73,-112.54 428,-114.5 454.64,-122.83 484.75,-133.09 506.14,-140.52"/>
<polygon fill="#63b8ff" stroke="#63b8ff" points="409.74,-105.31 399.17,-105.88 407.79,-112.04 409.74,-105.31"/>
</g>
<!-- Node30 -->
<g id="node30" class="node">
<title>Node30</title>
<g id="a_node30"><a xlink:href="class_i_v_multi_toggle_control.html" target="_top" xlink:title="A vectorial multi&#45;toggle control, could be used for a trigger in a step sequencer or tarnce gate.">
<polygon fill="white" stroke="#666666" points="589,-67.5 482,-67.5 482,-37.5 589,-37.5 589,-67.5"/>
<text text-anchor="start" x="490" y="-55.5" font-family="Helvetica,sans-Serif" font-size="10.00">IVMultiToggleControl</text>
<text text-anchor="middle" x="535.5" y="-44.5" font-family="Helvetica,sans-Serif" font-size="10.00">&lt; MAXNC &gt;</text>
</a>
</g>
</g>
<!-- Node29&#45;&gt;Node30 -->
<g id="edge30" class="edge">
<title>Node29&#45;&gt;Node30</title>
<path fill="none" stroke="#63b8ff" d="M424.28,-52.5C443.08,-52.5 463.52,-52.5 481.65,-52.5"/>
<polygon fill="#63b8ff" stroke="#63b8ff" points="424.34,-49 414.34,-52.5 424.34,-56 424.34,-49"/>
</g>
</g>
</svg>
        <g id="navigator" transform="translate(0 0)" fill="#404254">
                <rect fill="#f2f5e9" fill-opacity="0.5" stroke="#606060" stroke-width=".5" x="0" y="0" width="60" height="60"/>
                <use id="zoomplus" xlink:href="#zoomPlus" x="17" y="9" onmousedown="handleZoom(evt,'in')"/>
                <use id="zoomminus" xlink:href="#zoomMin" x="42" y="9" onmousedown="handleZoom(evt,'out')"/>
                <use id="reset" xlink:href="#resetDef" x="30" y="36" onmousedown="handleReset()"/>
                <g id="arrowUp" xlink:href="#dirArrow" transform="translate(30 24)" onmousedown="handlePan(0,-1)">
                  <use xlink:href="#rim" fill="#404040">
                        <set attributeName="fill" to="#808080" begin="arrowUp.mouseover" end="arrowUp.mouseout"/>
                  </use>
                  <path fill="none" stroke="white" stroke-width="1.5" d="M0,-3.0v7 M-2.5,-0.5L0,-3.0L2.5,-0.5"/>
                </g>
                <g id="arrowRight" xlink:href="#dirArrow" transform="rotate(90) translate(36 -43)" onmousedown="handlePan(1,0)">
                  <use xlink:href="#rim" fill="#404040">
                        <set attributeName="fill" to="#808080" begin="arrowRight.mouseover" end="arrowRight.mouseout"/>
                  </use>
                  <path fill="none" stroke="white" stroke-width="1.5" d="M0,-3.0v7 M-2.5,-0.5L0,-3.0L2.5,-0.5"/>
                </g>
                <g id="arrowDown" xlink:href="#dirArrow" transform="rotate(180) translate(-30 -48)" onmousedown="handlePan(0,1)">
                  <use xlink:href="#rim" fill="#404040">
                        <set attributeName="fill" to="#808080" begin="arrowDown.mouseover" end="arrowDown.mouseout"/>
                  </use>
                  <path fill="none" stroke="white" stroke-width="1.5" d="M0,-3.0v7 M-2.5,-0.5L0,-3.0L2.5,-0.5"/>
                </g>
                <g id="arrowLeft" xlink:href="#dirArrow" transform="rotate(270) translate(-36 17)" onmousedown="handlePan(-1,0)">
                  <use xlink:href="#rim" fill="#404040">
                        <set attributeName="fill" to="#808080" begin="arrowLeft.mouseover" end="arrowLeft.mouseout"/>
                  </use>
                  <path fill="none" stroke="white" stroke-width="1.5" d="M0,-3.0v7 M-2.5,-0.5L0,-3.0L2.5,-0.5"/>
                </g>
        </g>
        <svg viewBox="0 0 15 15" width="100%" height="30px" preserveAspectRatio="xMaxYMin meet">
         <g id="arrow_out" transform="scale(0.3 0.3)">
          <a xlink:href="class_i_vector_base__inherit__graph_org.svg" target="_base">
           <rect id="button" ry="5" rx="5" y="6" x="6" height="38" width="38"
                fill="#f2f5e9" fill-opacity="0.5" stroke="#606060" stroke-width="1.0"/>
           <path id="arrow"
             d="M 11.500037,31.436501 C 11.940474,20.09759 22.043105,11.32322 32.158766,21.979434 L 37.068811,17.246167 C 37.068811,17.246167 37.088388,32 37.088388,32 L 22.160133,31.978069 C 22.160133,31.978069 26.997745,27.140456 26.997745,27.140456 C 18.528582,18.264221 13.291696,25.230495 11.500037,31.436501 z"
             style="fill:#404040;"/>
          </a>
         </g>
        </svg>
</svg>
