<?xml version="1.0" encoding="UTF-8" standalone="no"?>
<!DOCTYPE svg PUBLIC "-//W3C//DTD SVG 1.1//EN"
 "http://www.w3.org/Graphics/SVG/1.1/DTD/svg11.dtd">
<!-- Generated by graphviz version 7.0.5 (20221223.1930)
 -->
<!-- Title: IContainerBase Pages: 1 -->
<svg width="543pt" height="230pt"
 viewBox="0.00 0.00 543.00 230.00" xmlns="http://www.w3.org/2000/svg" xmlns:xlink="http://www.w3.org/1999/xlink">
<g id="graph0" class="graph" transform="scale(1 1) rotate(0) translate(4 226)">
<title>IContainerBase</title>
<!-- Node1 -->
<g id="node1" class="node">
<title>Node1</title>
<g id="a_node1"><a xlink:title="IContainerBase allows a control to nest sub controls and it clips the drawing of those subcontrols In...">
<polygon fill="#999999" stroke="#666666" points="169,-111 86,-111 86,-92 169,-92 169,-111"/>
<text text-anchor="middle" x="127.5" y="-99" font-family="Helvetica,sans-Serif" font-size="10.00">IContainerBase</text>
</a>
</g>
</g>
<!-- Node3 -->
<g id="node3" class="node">
<title>Node3</title>
<g id="a_node3"><a xlink:href="class_i_dir_browse_control_base.html" target="_top" xlink:title="An abstract IControl base class that you can inherit from in order to make a control that pops up a m...">
<polygon fill="white" stroke="#666666" points="339.5,-204 221.5,-204 221.5,-185 339.5,-185 339.5,-204"/>
<text text-anchor="middle" x="280.5" y="-192" font-family="Helvetica,sans-Serif" font-size="10.00">IDirBrowseControlBase</text>
</a>
</g>
</g>
<!-- Node1&#45;&gt;Node3 -->
<g id="edge2" class="edge">
<title>Node1&#45;&gt;Node3</title>
<path fill="none" stroke="#63b8ff" d="M142.63,-119.82C156.65,-136.75 179.68,-161.36 205,-175.5 211.53,-179.14 218.76,-182.1 226.09,-184.5"/>
<polygon fill="#63b8ff" stroke="#63b8ff" points="145.74,-118.1 136.75,-112.49 140.28,-122.48 145.74,-118.1"/>
</g>
<!-- Node6 -->
<g id="node6" class="node">
<title>Node6</title>
<g id="a_node6"><a xlink:href="class_i_panel_control.html" target="_top" xlink:title="A basic control to fill a rectangle with a color or gradient.">
<polygon fill="white" stroke="#666666" points="318,-167 243,-167 243,-148 318,-148 318,-167"/>
<text text-anchor="middle" x="280.5" y="-155" font-family="Helvetica,sans-Serif" font-size="10.00">IPanelControl</text>
</a>
</g>
</g>
<!-- Node1&#45;&gt;Node6 -->
<g id="edge5" class="edge">
<title>Node1&#45;&gt;Node6</title>
<path fill="none" stroke="#63b8ff" d="M156.42,-116.68C170.66,-123.98 188.44,-132.45 205,-138.5 217.04,-142.9 230.52,-146.67 242.68,-149.66"/>
<polygon fill="#63b8ff" stroke="#63b8ff" points="158.12,-113.62 147.63,-112.08 154.87,-119.82 158.12,-113.62"/>
</g>
<!-- Node7 -->
<g id="node7" class="node">
<title>Node7</title>
<g id="a_node7"><a xlink:href="class_i_v_baked_preset_manager_control.html" target="_top" xlink:title="A &quot;meta control&quot; for a &quot;preset manager&quot; for &quot;baked in&quot; factory presets It adds several child buttons.">
<polygon fill="white" stroke="#666666" points="356,-130 205,-130 205,-111 356,-111 356,-130"/>
<text text-anchor="middle" x="280.5" y="-118" font-family="Helvetica,sans-Serif" font-size="10.00">IVBakedPresetManagerControl</text>
</a>
</g>
</g>
<!-- Node1&#45;&gt;Node7 -->
<g id="edge6" class="edge">
<title>Node1&#45;&gt;Node7</title>
<path fill="none" stroke="#63b8ff" d="M180.74,-108.07C188.44,-109.04 196.51,-110.06 204.56,-111.07"/>
<polygon fill="#63b8ff" stroke="#63b8ff" points="181.22,-104.61 170.86,-106.83 180.35,-111.55 181.22,-104.61"/>
</g>
<!-- Node8 -->
<g id="node8" class="node">
<title>Node8</title>
<g id="a_node8"><a xlink:href="class_i_v_menu_button_control.html" target="_top" xlink:title="A vector button that pops up a menu.">
<polygon fill="white" stroke="#666666" points="335.5,-93 225.5,-93 225.5,-74 335.5,-74 335.5,-93"/>
<text text-anchor="middle" x="280.5" y="-81" font-family="Helvetica,sans-Serif" font-size="10.00">IVMenuButtonControl</text>
</a>
</g>
</g>
<!-- Node1&#45;&gt;Node8 -->
<g id="edge7" class="edge">
<title>Node1&#45;&gt;Node8</title>
<path fill="none" stroke="#63b8ff" d="M180.61,-95.29C195.04,-93.57 210.73,-91.7 225.27,-89.96"/>
<polygon fill="#63b8ff" stroke="#63b8ff" points="180.38,-91.79 170.87,-96.45 181.21,-98.74 180.38,-91.79"/>
</g>
<!-- Node9 -->
<g id="node9" class="node">
<title>Node9</title>
<g id="a_node9"><a xlink:href="class_i_v_number_box_control.html" target="_top" xlink:title="A &quot;meta control&quot; for a number box with an Inc/Dec button It adds several child buttons if buttons = t...">
<polygon fill="white" stroke="#666666" points="334.5,-56 226.5,-56 226.5,-37 334.5,-37 334.5,-56"/>
<text text-anchor="middle" x="280.5" y="-44" font-family="Helvetica,sans-Serif" font-size="10.00">IVNumberBoxControl</text>
</a>
</g>
</g>
<!-- Node1&#45;&gt;Node9 -->
<g id="edge8" class="edge">
<title>Node1&#45;&gt;Node9</title>
<path fill="none" stroke="#63b8ff" d="M156.39,-86.23C170.62,-78.9 188.4,-70.44 205,-64.5 213.52,-61.45 222.77,-58.75 231.76,-56.43"/>
<polygon fill="#63b8ff" stroke="#63b8ff" points="154.83,-83.1 147.61,-90.85 158.09,-89.29 154.83,-83.1"/>
</g>
<!-- Node10 -->
<g id="node10" class="node">
<title>Node10</title>
<g id="a_node10"><a xlink:href="class_i_v_panel_control.html" target="_top" xlink:title="A panel control which can be styled with emboss etc.">
<polygon fill="white" stroke="#666666" points="321.5,-19 239.5,-19 239.5,0 321.5,0 321.5,-19"/>
<text text-anchor="middle" x="280.5" y="-7" font-family="Helvetica,sans-Serif" font-size="10.00">IVPanelControl</text>
</a>
</g>
</g>
<!-- Node1&#45;&gt;Node10 -->
<g id="edge9" class="edge">
<title>Node1&#45;&gt;Node10</title>
<path fill="none" stroke="#63b8ff" d="M142.59,-83.11C156.59,-66.13 179.59,-41.48 205,-27.5 215.49,-21.73 227.82,-17.79 239.39,-15.11"/>
<polygon fill="#63b8ff" stroke="#63b8ff" points="140.22,-80.46 136.72,-90.46 145.69,-84.83 140.22,-80.46"/>
</g>
<!-- Node2 -->
<g id="node2" class="node">
<title>Node2</title>
<g id="a_node2"><a xlink:href="class_i_control.html" target="_top" xlink:title="The lowest level base class of an IGraphics control.">
<polygon fill="white" stroke="#666666" points="50,-111 0,-111 0,-92 50,-92 50,-111"/>
<text text-anchor="middle" x="25" y="-99" font-family="Helvetica,sans-Serif" font-size="10.00">IControl</text>
</a>
</g>
</g>
<!-- Node2&#45;&gt;Node1 -->
<g id="edge1" class="edge">
<title>Node2&#45;&gt;Node1</title>
<path fill="none" stroke="#63b8ff" d="M61.59,-101.5C69.34,-101.5 77.6,-101.5 85.54,-101.5"/>
<polygon fill="#63b8ff" stroke="#63b8ff" points="61.84,-98 51.84,-101.5 61.84,-105 61.84,-98"/>
</g>
<!-- Node4 -->
<g id="node4" class="node">
<title>Node4</title>
<g id="a_node4"><a xlink:href="class_i_v_disk_preset_manager_control.html" target="_top" xlink:title="A &quot;meta control&quot; for a &quot;preset manager&quot; for disk&#45;based preset files It adds several child buttons.">
<polygon fill="white" stroke="#666666" points="535,-222 392,-222 392,-203 535,-203 535,-222"/>
<text text-anchor="middle" x="463.5" y="-210" font-family="Helvetica,sans-Serif" font-size="10.00">IVDiskPresetManagerControl</text>
</a>
</g>
</g>
<!-- Node3&#45;&gt;Node4 -->
<g id="edge3" class="edge">
<title>Node3&#45;&gt;Node4</title>
<path fill="none" stroke="#63b8ff" d="M350.83,-201.39C364.21,-202.73 378.25,-204.12 391.68,-205.46"/>
<polygon fill="#63b8ff" stroke="#63b8ff" points="351.57,-197.95 341.27,-200.44 350.88,-204.92 351.57,-197.95"/>
</g>
<!-- Node5 -->
<g id="node5" class="node">
<title>Node5</title>
<g id="a_node5"><a xlink:href="class_test_dir_browse_control.html" target="_top" xlink:title="Control to test IDirBrowseControlBase.">
<polygon fill="white" stroke="#666666" points="519.5,-185 407.5,-185 407.5,-166 519.5,-166 519.5,-185"/>
<text text-anchor="middle" x="463.5" y="-173" font-family="Helvetica,sans-Serif" font-size="10.00">TestDirBrowseControl</text>
</a>
</g>
</g>
<!-- Node3&#45;&gt;Node5 -->
<g id="edge4" class="edge">
<title>Node3&#45;&gt;Node5</title>
<path fill="none" stroke="#63b8ff" d="M351.12,-187.19C369.67,-185.24 389.45,-183.17 407.12,-181.31"/>
<polygon fill="#63b8ff" stroke="#63b8ff" points="350.85,-183.7 341.27,-188.23 351.58,-190.66 350.85,-183.7"/>
</g>
</g>
</svg>
