<?xml version="1.0" encoding="UTF-8" standalone="no"?>
<!DOCTYPE svg PUBLIC "-//W3C//DTD SVG 1.1//EN"
 "http://www.w3.org/Graphics/SVG/1.1/DTD/svg11.dtd">
<!-- Generated by graphviz version 2.36.0 (20140111.2315)
 -->
<!-- Title: IVectorBase Pages: 1 -->
<svg width="424pt" height="373pt"
 viewBox="0.00 0.00 424.00 373.00" xmlns="http://www.w3.org/2000/svg" xmlns:xlink="http://www.w3.org/1999/xlink">
<g id="graph0" class="graph" transform="scale(1 1) rotate(0) translate(4 369)">
<title>IVectorBase</title>
<polygon fill="white" stroke="none" points="-4,4 -4,-369 420,-369 420,4 -4,4"/>
<!-- Node1 -->
<g id="node1" class="node"><title>Node1</title>
<polygon fill="#bfbfbf" stroke="black" points="0.5,-193.5 0.5,-212.5 71.5,-212.5 71.5,-193.5 0.5,-193.5"/>
<text text-anchor="middle" x="36" y="-200.5" font-family="Helvetica,sans-Serif" font-size="10.00">IVectorBase</text>
</g>
<!-- Node2 -->
<g id="node2" class="node"><title>Node2</title>
<g id="a_node2"><a xlink:href="class_i_f_p_s_display_control.html" target="_top" xlink:title="Performance display meter, based on code from NanoVG This is a special control that lives outside the...">
<polygon fill="white" stroke="black" points="126,-345.5 126,-364.5 230,-364.5 230,-345.5 126,-345.5"/>
<text text-anchor="middle" x="178" y="-352.5" font-family="Helvetica,sans-Serif" font-size="10.00">IFPSDisplayControl</text>
</a>
</g>
</g>
<!-- Node1&#45;&gt;Node2 -->
<g id="edge1" class="edge"><title>Node1&#45;&gt;Node2</title>
<path fill="none" stroke="midnightblue" d="M42.0735,-222.563C50.6555,-251.71 70.842,-306.284 108,-336 113.24,-340.191 119.339,-343.459 125.703,-346.007"/>
<polygon fill="midnightblue" stroke="midnightblue" points="45.3936,-221.438 39.3414,-212.742 38.6496,-223.314 45.3936,-221.438"/>
</g>
<!-- Node3 -->
<g id="node3" class="node"><title>Node3</title>
<g id="a_node3"><a xlink:href="class_i_v_button_control.html" target="_top" xlink:title="A vector button/momentary switch control. ">
<polygon fill="white" stroke="black" points="135,-307.5 135,-326.5 221,-326.5 221,-307.5 135,-307.5"/>
<text text-anchor="middle" x="178" y="-314.5" font-family="Helvetica,sans-Serif" font-size="10.00">IVButtonControl</text>
</a>
</g>
</g>
<!-- Node1&#45;&gt;Node3 -->
<g id="edge2" class="edge"><title>Node1&#45;&gt;Node3</title>
<path fill="none" stroke="midnightblue" d="M46.2027,-221.916C57.6918,-243.54 79.3698,-278.462 108,-298 116.005,-303.463 125.538,-307.361 134.924,-310.14"/>
<polygon fill="midnightblue" stroke="midnightblue" points="49.1896,-220.069 41.5236,-212.756 42.9559,-223.254 49.1896,-220.069"/>
</g>
<!-- Node4 -->
<g id="node4" class="node"><title>Node4</title>
<g id="a_node4"><a xlink:href="class_i_v_keyboard_control.html" target="_top" xlink:title="Vectorial keyboard control. ">
<polygon fill="white" stroke="black" points="128.5,-269.5 128.5,-288.5 227.5,-288.5 227.5,-269.5 128.5,-269.5"/>
<text text-anchor="middle" x="178" y="-276.5" font-family="Helvetica,sans-Serif" font-size="10.00">IVKeyboardControl</text>
</a>
</g>
</g>
<!-- Node1&#45;&gt;Node4 -->
<g id="edge3" class="edge"><title>Node1&#45;&gt;Node4</title>
<path fill="none" stroke="midnightblue" d="M53.7489,-219.775C67.3167,-232.491 87.4862,-249.513 108,-260 115.412,-263.789 123.671,-266.897 131.825,-269.419"/>
<polygon fill="midnightblue" stroke="midnightblue" points="55.8395,-216.929 46.21,-212.51 50.9823,-221.969 55.8395,-216.929"/>
</g>
<!-- Node5 -->
<g id="node5" class="node"><title>Node5</title>
<g id="a_node5"><a xlink:href="class_i_v_knob_control.html" target="_top" xlink:title="A vector knob control drawn using graphics primitves. ">
<polygon fill="white" stroke="black" points="138,-231.5 138,-250.5 218,-250.5 218,-231.5 138,-231.5"/>
<text text-anchor="middle" x="178" y="-238.5" font-family="Helvetica,sans-Serif" font-size="10.00">IVKnobControl</text>
</a>
</g>
</g>
<!-- Node1&#45;&gt;Node5 -->
<g id="edge4" class="edge"><title>Node1&#45;&gt;Node5</title>
<path fill="none" stroke="midnightblue" d="M81.4824,-215.074C100.975,-220.365 123.525,-226.485 141.819,-231.451"/>
<polygon fill="midnightblue" stroke="midnightblue" points="82.1744,-211.635 71.6068,-212.393 80.3407,-218.391 82.1744,-211.635"/>
</g>
<!-- Node6 -->
<g id="node6" class="node"><title>Node6</title>
<g id="a_node6"><a xlink:href="class_i_v_radio_button_control.html" target="_top" xlink:title="A vector switch control. ">
<polygon fill="white" stroke="black" points="122,-193.5 122,-212.5 234,-212.5 234,-193.5 122,-193.5"/>
<text text-anchor="middle" x="178" y="-200.5" font-family="Helvetica,sans-Serif" font-size="10.00">IVRadioButtonControl</text>
</a>
</g>
</g>
<!-- Node1&#45;&gt;Node6 -->
<g id="edge5" class="edge"><title>Node1&#45;&gt;Node6</title>
<path fill="none" stroke="midnightblue" d="M81.93,-203C94.627,-203 108.592,-203 121.817,-203"/>
<polygon fill="midnightblue" stroke="midnightblue" points="81.6068,-199.5 71.6068,-203 81.6067,-206.5 81.6068,-199.5"/>
</g>
<!-- Node7 -->
<g id="node7" class="node"><title>Node7</title>
<g id="a_node7"><a xlink:href="class_i_v_scope_control.html" target="_top" xlink:title="Vectorial multichannel capable oscilloscope control. ">
<polygon fill="white" stroke="black" points="108,-144 108,-174 248,-174 248,-144 108,-144"/>
<text text-anchor="start" x="116" y="-162" font-family="Helvetica,sans-Serif" font-size="10.00">IVScopeControl&lt; MAXNC,</text>
<text text-anchor="middle" x="178" y="-151" font-family="Helvetica,sans-Serif" font-size="10.00"> MAXBUF, QUEUE_SIZE &gt;</text>
</a>
</g>
</g>
<!-- Node1&#45;&gt;Node7 -->
<g id="edge6" class="edge"><title>Node1&#45;&gt;Node7</title>
<path fill="none" stroke="midnightblue" d="M77.0884,-190.401C93.2962,-185.307 112.139,-179.385 129.065,-174.065"/>
<polygon fill="midnightblue" stroke="midnightblue" points="75.8684,-187.115 67.3779,-193.453 77.9673,-193.793 75.8684,-187.115"/>
</g>
<!-- Node8 -->
<g id="node8" class="node"><title>Node8</title>
<g id="a_node8"><a xlink:href="class_i_v_slider_control.html" target="_top" xlink:title="A vector slider control. ">
<polygon fill="white" stroke="black" points="136.5,-105.5 136.5,-124.5 219.5,-124.5 219.5,-105.5 136.5,-105.5"/>
<text text-anchor="middle" x="178" y="-112.5" font-family="Helvetica,sans-Serif" font-size="10.00">IVSliderControl</text>
</a>
</g>
</g>
<!-- Node1&#45;&gt;Node8 -->
<g id="edge7" class="edge"><title>Node1&#45;&gt;Node8</title>
<path fill="none" stroke="midnightblue" d="M51.0998,-185.338C64.2806,-169.944 85.2934,-148.091 108,-135 116.644,-130.017 126.624,-126.195 136.261,-123.295"/>
<polygon fill="midnightblue" stroke="midnightblue" points="48.3243,-183.201 44.622,-193.128 53.7067,-187.677 48.3243,-183.201"/>
</g>
<!-- Node9 -->
<g id="node9" class="node"><title>Node9</title>
<g id="a_node9"><a xlink:href="class_i_v_switch_control.html" target="_top" xlink:title="A vector switch control. ">
<polygon fill="white" stroke="black" points="134,-67.5 134,-86.5 222,-86.5 222,-67.5 134,-67.5"/>
<text text-anchor="middle" x="178" y="-74.5" font-family="Helvetica,sans-Serif" font-size="10.00">IVSwitchControl</text>
</a>
</g>
</g>
<!-- Node1&#45;&gt;Node9 -->
<g id="edge8" class="edge"><title>Node1&#45;&gt;Node9</title>
<path fill="none" stroke="midnightblue" d="M44.6362,-183.83C55.2347,-159.699 76.7008,-118.669 108,-96 115.648,-90.4609 124.836,-86.5361 133.976,-83.7553"/>
<polygon fill="midnightblue" stroke="midnightblue" points="41.2963,-182.744 40.6483,-193.319 47.7495,-185.456 41.2963,-182.744"/>
</g>
<!-- Node10 -->
<g id="node10" class="node"><title>Node10</title>
<g id="a_node10"><a xlink:href="class_i_v_track_control_base.html" target="_top" xlink:title="A base class for mult&#45;strip/track controls, such as multi&#45;sliders, meters. ">
<polygon fill="white" stroke="black" points="125.5,-29.5 125.5,-48.5 230.5,-48.5 230.5,-29.5 125.5,-29.5"/>
<text text-anchor="middle" x="178" y="-36.5" font-family="Helvetica,sans-Serif" font-size="10.00">IVTrackControlBase</text>
</a>
</g>
</g>
<!-- Node1&#45;&gt;Node10 -->
<g id="edge9" class="edge"><title>Node1&#45;&gt;Node10</title>
<path fill="none" stroke="midnightblue" d="M41.2215,-183.036C48.9102,-151.656 68.2144,-90.9759 108,-58 113.07,-53.7977 118.998,-50.521 125.212,-47.9668"/>
<polygon fill="midnightblue" stroke="midnightblue" points="37.7224,-182.637 38.898,-193.166 44.5452,-184.202 37.7224,-182.637"/>
</g>
<!-- Node11 -->
<g id="node11" class="node"><title>Node11</title>
<g id="a_node11"><a xlink:href="class_i_v_meter_control.html" target="_top" xlink:title="Vectorial multichannel capable meter control. ">
<polygon fill="white" stroke="black" points="284.5,-49 284.5,-79 415.5,-79 415.5,-49 284.5,-49"/>
<text text-anchor="start" x="292.5" y="-67" font-family="Helvetica,sans-Serif" font-size="10.00">IVMeterControl&lt; MAXNC,</text>
<text text-anchor="middle" x="350" y="-56" font-family="Helvetica,sans-Serif" font-size="10.00"> QUEUE_SIZE &gt;</text>
</a>
</g>
</g>
<!-- Node10&#45;&gt;Node11 -->
<g id="edge10" class="edge"><title>Node10&#45;&gt;Node11</title>
<path fill="none" stroke="midnightblue" d="M241.039,-48.1233C255.179,-50.2028 270.235,-52.417 284.477,-54.5113"/>
<polygon fill="midnightblue" stroke="midnightblue" points="241.332,-44.6289 230.929,-46.6367 240.314,-51.5544 241.332,-44.6289"/>
</g>
<!-- Node12 -->
<g id="node12" class="node"><title>Node12</title>
<g id="a_node12"><a xlink:href="class_i_v_multi_slider_control.html" target="_top" xlink:title="A vectorial multi&#45;slider control. ">
<polygon fill="white" stroke="black" points="298,-0 298,-30 402,-30 402,-0 298,-0"/>
<text text-anchor="start" x="306" y="-18" font-family="Helvetica,sans-Serif" font-size="10.00">IVMultiSliderControl</text>
<text text-anchor="middle" x="350" y="-7" font-family="Helvetica,sans-Serif" font-size="10.00">&lt; MAXNC &gt;</text>
</a>
</g>
</g>
<!-- Node10&#45;&gt;Node12 -->
<g id="edge11" class="edge"><title>Node10&#45;&gt;Node12</title>
<path fill="none" stroke="midnightblue" d="M240.863,-30.2665C259.622,-27.6181 280.009,-24.7399 297.973,-22.2038"/>
<polygon fill="midnightblue" stroke="midnightblue" points="240.342,-26.8052 230.929,-31.6688 241.32,-33.7364 240.342,-26.8052"/>
</g>
</g>
</svg>
