<?xml version="1.0" encoding="UTF-8" standalone="no"?>
<!DOCTYPE svg PUBLIC "-//W3C//DTD SVG 1.1//EN"
 "http://www.w3.org/Graphics/SVG/1.1/DTD/svg11.dtd">
<!-- Generated by graphviz version 2.36.0 (20140111.2315)
 -->
<!-- Title: IVMeterControl&lt; MAXNC, QUEUE_SIZE &gt; Pages: 1 -->
<svg width="148pt" height="152pt"
 viewBox="0.00 0.00 148.00 152.00" xmlns="http://www.w3.org/2000/svg" xmlns:xlink="http://www.w3.org/1999/xlink">
<g id="graph0" class="graph" transform="scale(1 1) rotate(0) translate(4 148)">
<title>IVMeterControl&lt; MAXNC, QUEUE_SIZE &gt;</title>
<polygon fill="white" stroke="none" points="-4,4 -4,-148 144,-148 144,4 -4,4"/>
<!-- Node1 -->
<g id="node1" class="node"><title>Node1</title>
<polygon fill="#bfbfbf" stroke="black" points="-0.5,-1 -0.5,-31 130.5,-31 130.5,-1 -0.5,-1"/>
<text text-anchor="start" x="7.5" y="-19" font-family="Helvetica,sans-Serif" font-size="10.00">IVMeterControl&lt; MAXNC,</text>
<text text-anchor="middle" x="65" y="-8" font-family="Helvetica,sans-Serif" font-size="10.00"> QUEUE_SIZE &gt;</text>
</g>
<!-- Node2 -->
<g id="node2" class="node"><title>Node2</title>
<g id="a_node2"><a xlink:href="class_i_v_track_control_base.html" target="_top" xlink:title="A base class for mult&#45;strip/track controls, such as multi&#45;sliders, meters. ">
<polygon fill="white" stroke="black" points="12.5,-68.5 12.5,-87.5 117.5,-87.5 117.5,-68.5 12.5,-68.5"/>
<text text-anchor="middle" x="65" y="-75.5" font-family="Helvetica,sans-Serif" font-size="10.00">IVTrackControlBase</text>
</a>
</g>
</g>
<!-- Node2&#45;&gt;Node1 -->
<g id="edge1" class="edge"><title>Node2&#45;&gt;Node1</title>
<path fill="none" stroke="midnightblue" d="M65,-58.3707C65,-49.5849 65,-39.2721 65,-31.1408"/>
<polygon fill="midnightblue" stroke="midnightblue" points="61.5001,-58.4034 65,-68.4035 68.5001,-58.4035 61.5001,-58.4034"/>
</g>
<!-- Node3 -->
<g id="node3" class="node"><title>Node3</title>
<g id="a_node3"><a xlink:href="class_i_control.html" target="_top" xlink:title="The lowest level base class of an IGraphics control. ">
<polygon fill="white" stroke="black" points="0.5,-124.5 0.5,-143.5 51.5,-143.5 51.5,-124.5 0.5,-124.5"/>
<text text-anchor="middle" x="26" y="-131.5" font-family="Helvetica,sans-Serif" font-size="10.00">IControl</text>
</a>
</g>
</g>
<!-- Node3&#45;&gt;Node2 -->
<g id="edge2" class="edge"><title>Node3&#45;&gt;Node2</title>
<path fill="none" stroke="midnightblue" d="M38.3822,-115.855C45.1354,-106.505 53.2086,-95.3265 58.6798,-87.7511"/>
<polygon fill="midnightblue" stroke="midnightblue" points="35.4576,-113.927 32.4401,-124.083 41.1324,-118.025 35.4576,-113.927"/>
</g>
<!-- Node4 -->
<g id="node4" class="node"><title>Node4</title>
<g id="a_node4"><a xlink:href="class_i_vector_base.html" target="_top" xlink:title="A base interface to be combined with IControl for vectorial controls &quot;IVControls&quot;, in order for them to share a common set of colors. ">
<polygon fill="white" stroke="black" points="69.5,-124.5 69.5,-143.5 140.5,-143.5 140.5,-124.5 69.5,-124.5"/>
<text text-anchor="middle" x="105" y="-131.5" font-family="Helvetica,sans-Serif" font-size="10.00">IVectorBase</text>
</a>
</g>
</g>
<!-- Node4&#45;&gt;Node2 -->
<g id="edge3" class="edge"><title>Node4&#45;&gt;Node2</title>
<path fill="none" stroke="midnightblue" d="M92.3003,-115.855C85.374,-106.505 77.0937,-95.3265 71.4823,-87.7511"/>
<polygon fill="midnightblue" stroke="midnightblue" points="89.63,-118.131 98.3948,-124.083 95.255,-113.964 89.63,-118.131"/>
</g>
</g>
</svg>
