<?xml version="1.0" encoding="UTF-8" standalone="no"?>
<!DOCTYPE svg PUBLIC "-//W3C//DTD SVG 1.1//EN"
 "http://www.w3.org/Graphics/SVG/1.1/DTD/svg11.dtd">
<!-- Generated by graphviz version 7.0.5 (20221223.1930)
 -->
<!-- Title: IBitmapControl Pages: 1 -->
<svg width="200pt" height="137pt"
 viewBox="0.00 0.00 199.50 137.00" xmlns="http://www.w3.org/2000/svg" xmlns:xlink="http://www.w3.org/1999/xlink">
<g id="graph0" class="graph" transform="scale(1 1) rotate(0) translate(4 133)">
<title>IBitmapControl</title>
<!-- Node1 -->
<g id="node1" class="node">
<title>Node1</title>
<g id="a_node1"><a xlink:title="A basic control to draw a bitmap, or one frame of a stacked bitmap depending on the current value.">
<polygon fill="#999999" stroke="#666666" points="133.5,-74 52.5,-74 52.5,-55 133.5,-55 133.5,-74"/>
<text text-anchor="middle" x="93" y="-62" font-family="Helvetica,sans-Serif" font-size="10.00">IBitmapControl</text>
</a>
</g>
</g>
<!-- Node4 -->
<g id="node4" class="node">
<title>Node4</title>
<g id="a_node4"><a xlink:href="class_i_b_meter_control.html" target="_top" xlink:title="A bitmap meter control, that can be used for VUMeters.">
<polygon fill="white" stroke="#666666" points="82,-19 0,-19 0,0 82,0 82,-19"/>
<text text-anchor="middle" x="41" y="-7" font-family="Helvetica,sans-Serif" font-size="10.00">IBMeterControl</text>
</a>
</g>
</g>
<!-- Node1&#45;&gt;Node4 -->
<g id="edge3" class="edge">
<title>Node1&#45;&gt;Node4</title>
<path fill="none" stroke="#63b8ff" d="M76.59,-46.78C67.71,-37.72 57.09,-26.9 49.77,-19.44"/>
<polygon fill="#63b8ff" stroke="#63b8ff" points="73.85,-48.98 83.35,-53.67 78.85,-44.08 73.85,-48.98"/>
</g>
<!-- Node5 -->
<g id="node5" class="node">
<title>Node5</title>
<g id="a_node5"><a xlink:href="class_test_mask_control.html" target="_top" xlink:title="Control to display the size of a region.">
<polygon fill="white" stroke="#666666" points="191.5,-19 100.5,-19 100.5,0 191.5,0 191.5,-19"/>
<text text-anchor="middle" x="146" y="-7" font-family="Helvetica,sans-Serif" font-size="10.00">TestMaskControl</text>
</a>
</g>
</g>
<!-- Node1&#45;&gt;Node5 -->
<g id="edge4" class="edge">
<title>Node1&#45;&gt;Node5</title>
<path fill="none" stroke="#63b8ff" d="M109.72,-46.78C118.78,-37.72 129.6,-26.9 137.06,-19.44"/>
<polygon fill="#63b8ff" stroke="#63b8ff" points="107.42,-44.13 102.82,-53.68 112.37,-49.08 107.42,-44.13"/>
</g>
<!-- Node2 -->
<g id="node2" class="node">
<title>Node2</title>
<g id="a_node2"><a xlink:href="class_i_control.html" target="_top" xlink:title="The lowest level base class of an IGraphics control.">
<polygon fill="white" stroke="#666666" points="78,-129 28,-129 28,-110 78,-110 78,-129"/>
<text text-anchor="middle" x="53" y="-117" font-family="Helvetica,sans-Serif" font-size="10.00">IControl</text>
</a>
</g>
</g>
<!-- Node2&#45;&gt;Node1 -->
<g id="edge1" class="edge">
<title>Node2&#45;&gt;Node1</title>
<path fill="none" stroke="#63b8ff" d="M66.47,-100.65C73.12,-91.84 80.86,-81.59 86.25,-74.44"/>
<polygon fill="#63b8ff" stroke="#63b8ff" points="63.75,-98.45 60.52,-108.54 69.33,-102.67 63.75,-98.45"/>
</g>
<!-- Node3 -->
<g id="node3" class="node">
<title>Node3</title>
<g id="a_node3"><a xlink:href="class_i_bitmap_base.html" target="_top" xlink:title="A base interface to be combined with IControl for bitmap&#45;based controls &quot;IBControls&quot;,...">
<polygon fill="white" stroke="#666666" points="169.5,-129 96.5,-129 96.5,-110 169.5,-110 169.5,-129"/>
<text text-anchor="middle" x="133" y="-117" font-family="Helvetica,sans-Serif" font-size="10.00">IBitmapBase</text>
</a>
</g>
</g>
<!-- Node3&#45;&gt;Node1 -->
<g id="edge2" class="edge">
<title>Node3&#45;&gt;Node1</title>
<path fill="none" stroke="#63b8ff" d="M119.53,-100.65C112.88,-91.84 105.14,-81.59 99.75,-74.44"/>
<polygon fill="#63b8ff" stroke="#63b8ff" points="116.67,-102.67 125.48,-108.54 122.25,-98.45 116.67,-102.67"/>
</g>
</g>
</svg>
