<?xml version="1.0" encoding="UTF-8" standalone="no"?>
<!DOCTYPE svg PUBLIC "-//W3C//DTD SVG 1.1//EN"
 "http://www.w3.org/Graphics/SVG/1.1/DTD/svg11.dtd">
<!-- Generated by graphviz version 7.0.5 (20221223.1930)
 -->
<!-- Title: IVMultiToggleControl&lt; MAXNC &gt; Pages: 1 -->
<svg width="148pt" height="214pt"
 viewBox="0.00 0.00 147.50 214.00" xmlns="http://www.w3.org/2000/svg" xmlns:xlink="http://www.w3.org/1999/xlink">
<g id="graph0" class="graph" transform="scale(1 1) rotate(0) translate(4 210)">
<title>IVMultiToggleControl&lt; MAXNC &gt;</title>
<!-- Node1 -->
<g id="node1" class="node">
<title>Node1</title>
<g id="a_node1"><a xlink:title="A vectorial multi&#45;toggle control, could be used for a trigger in a step sequencer or tarnce gate.">
<polygon fill="#999999" stroke="#666666" points="117.5,-30 10.5,-30 10.5,0 117.5,0 117.5,-30"/>
<text text-anchor="start" x="18.5" y="-18" font-family="Helvetica,sans-Serif" font-size="10.00">IVMultiToggleControl</text>
<text text-anchor="middle" x="64" y="-7" font-family="Helvetica,sans-Serif" font-size="10.00">&lt; MAXNC &gt;</text>
</a>
</g>
</g>
<!-- Node2 -->
<g id="node2" class="node">
<title>Node2</title>
<g id="a_node2"><a xlink:href="class_i_v_multi_slider_control.html" target="_top" xlink:title="A vectorial multi&#45;slider control.">
<polygon fill="white" stroke="#666666" points="115.5,-96 12.5,-96 12.5,-66 115.5,-66 115.5,-96"/>
<text text-anchor="start" x="20.5" y="-84" font-family="Helvetica,sans-Serif" font-size="10.00">IVMultiSliderControl</text>
<text text-anchor="middle" x="64" y="-73" font-family="Helvetica,sans-Serif" font-size="10.00">&lt; MAXNC &gt;</text>
</a>
</g>
</g>
<!-- Node2&#45;&gt;Node1 -->
<g id="edge1" class="edge">
<title>Node2&#45;&gt;Node1</title>
<path fill="none" stroke="#63b8ff" d="M64,-54.39C64,-46.13 64,-37.28 64,-30.16"/>
<polygon fill="#63b8ff" stroke="#63b8ff" points="60.5,-54.28 64,-64.28 67.5,-54.28 60.5,-54.28"/>
</g>
<!-- Node3 -->
<g id="node3" class="node">
<title>Node3</title>
<g id="a_node3"><a xlink:href="class_i_v_track_control_base.html" target="_top" xlink:title="A base class for mult&#45;strip/track controls, such as multi&#45;sliders, meters Track refers to the channel...">
<polygon fill="white" stroke="#666666" points="116,-151 12,-151 12,-132 116,-132 116,-151"/>
<text text-anchor="middle" x="64" y="-139" font-family="Helvetica,sans-Serif" font-size="10.00">IVTrackControlBase</text>
</a>
</g>
</g>
<!-- Node3&#45;&gt;Node2 -->
<g id="edge2" class="edge">
<title>Node3&#45;&gt;Node2</title>
<path fill="none" stroke="#63b8ff" d="M64,-120.51C64,-112.49 64,-103.43 64,-96.11"/>
<polygon fill="#63b8ff" stroke="#63b8ff" points="60.5,-120.35 64,-130.35 67.5,-120.35 60.5,-120.35"/>
</g>
<!-- Node4 -->
<g id="node4" class="node">
<title>Node4</title>
<g id="a_node4"><a xlink:href="class_i_control.html" target="_top" xlink:title="The lowest level base class of an IGraphics control.">
<polygon fill="white" stroke="#666666" points="50,-206 0,-206 0,-187 50,-187 50,-206"/>
<text text-anchor="middle" x="25" y="-194" font-family="Helvetica,sans-Serif" font-size="10.00">IControl</text>
</a>
</g>
</g>
<!-- Node4&#45;&gt;Node3 -->
<g id="edge3" class="edge">
<title>Node4&#45;&gt;Node3</title>
<path fill="none" stroke="#63b8ff" d="M38.14,-177.65C44.62,-168.84 52.16,-158.59 57.42,-151.44"/>
<polygon fill="#63b8ff" stroke="#63b8ff" points="35.44,-175.4 32.34,-185.53 41.08,-179.55 35.44,-175.4"/>
</g>
<!-- Node5 -->
<g id="node5" class="node">
<title>Node5</title>
<g id="a_node5"><a xlink:href="class_i_vector_base.html" target="_top" xlink:title="A base interface to be combined with IControl for vectorial controls &quot;IVControls&quot;,...">
<polygon fill="white" stroke="#666666" points="139.5,-206 68.5,-206 68.5,-187 139.5,-187 139.5,-206"/>
<text text-anchor="middle" x="104" y="-194" font-family="Helvetica,sans-Serif" font-size="10.00">IVectorBase</text>
</a>
</g>
</g>
<!-- Node5&#45;&gt;Node3 -->
<g id="edge4" class="edge">
<title>Node5&#45;&gt;Node3</title>
<path fill="none" stroke="#63b8ff" d="M90.53,-177.65C83.88,-168.84 76.14,-158.59 70.75,-151.44"/>
<polygon fill="#63b8ff" stroke="#63b8ff" points="87.67,-179.67 96.48,-185.54 93.25,-175.45 87.67,-179.67"/>
</g>
</g>
</svg>
