<?xml version="1.0" encoding="UTF-8" standalone="no"?>
<!DOCTYPE svg PUBLIC "-//W3C//DTD SVG 1.1//EN"
 "http://www.w3.org/Graphics/SVG/1.1/DTD/svg11.dtd">
<!-- Generated by graphviz version 2.36.0 (20140111.2315)
 -->
<!-- Title: IVSwitchControl Pages: 1 -->
<svg width="201pt" height="140pt"
 viewBox="0.00 0.00 201.00 140.00" xmlns="http://www.w3.org/2000/svg" xmlns:xlink="http://www.w3.org/1999/xlink">
<g id="graph0" class="graph" transform="scale(1 1) rotate(0) translate(4 136)">
<title>IVSwitchControl</title>
<polygon fill="white" stroke="none" points="-4,4 -4,-136 197,-136 197,4 -4,4"/>
<!-- Node1 -->
<g id="node1" class="node"><title>Node1</title>
<polygon fill="#bfbfbf" stroke="black" points="61,-0.5 61,-19.5 149,-19.5 149,-0.5 61,-0.5"/>
<text text-anchor="middle" x="105" y="-7.5" font-family="Helvetica,sans-Serif" font-size="10.00">IVSwitchControl</text>
</g>
<!-- Node2 -->
<g id="node2" class="node"><title>Node2</title>
<g id="a_node2"><a xlink:href="class_i_switch_control_base.html" target="_top" xlink:title="A base class for switch controls. ">
<polygon fill="white" stroke="black" points="0,-56.5 0,-75.5 104,-75.5 104,-56.5 0,-56.5"/>
<text text-anchor="middle" x="52" y="-63.5" font-family="Helvetica,sans-Serif" font-size="10.00">ISwitchControlBase</text>
</a>
</g>
</g>
<!-- Node2&#45;&gt;Node1 -->
<g id="edge1" class="edge"><title>Node2&#45;&gt;Node1</title>
<path fill="none" stroke="midnightblue" d="M67.9809,-48.7175C77.3225,-39.1997 88.7459,-27.5608 96.411,-19.7511"/>
<polygon fill="midnightblue" stroke="midnightblue" points="65.2587,-46.4945 60.7519,-56.083 70.2545,-51.3978 65.2587,-46.4945"/>
</g>
<!-- Node3 -->
<g id="node3" class="node"><title>Node3</title>
<g id="a_node3"><a xlink:href="class_i_control.html" target="_top" xlink:title="The lowest level base class of an IGraphics control. ">
<polygon fill="white" stroke="black" points="26.5,-112.5 26.5,-131.5 77.5,-131.5 77.5,-112.5 26.5,-112.5"/>
<text text-anchor="middle" x="52" y="-119.5" font-family="Helvetica,sans-Serif" font-size="10.00">IControl</text>
</a>
</g>
</g>
<!-- Node3&#45;&gt;Node2 -->
<g id="edge2" class="edge"><title>Node3&#45;&gt;Node2</title>
<path fill="none" stroke="midnightblue" d="M52,-101.805C52,-92.9102 52,-82.7798 52,-75.7511"/>
<polygon fill="midnightblue" stroke="midnightblue" points="48.5001,-102.083 52,-112.083 55.5001,-102.083 48.5001,-102.083"/>
</g>
<!-- Node4 -->
<g id="node4" class="node"><title>Node4</title>
<g id="a_node4"><a xlink:href="class_i_vector_base.html" target="_top" xlink:title="A base interface to be combined with IControl for vectorial controls &quot;IVControls&quot;, in order for them to share a common set of colors. ">
<polygon fill="white" stroke="black" points="122.5,-56.5 122.5,-75.5 193.5,-75.5 193.5,-56.5 122.5,-56.5"/>
<text text-anchor="middle" x="158" y="-63.5" font-family="Helvetica,sans-Serif" font-size="10.00">IVectorBase</text>
</a>
</g>
</g>
<!-- Node4&#45;&gt;Node1 -->
<g id="edge3" class="edge"><title>Node4&#45;&gt;Node1</title>
<path fill="none" stroke="midnightblue" d="M142.019,-48.7175C132.678,-39.1997 121.254,-27.5608 113.589,-19.7511"/>
<polygon fill="midnightblue" stroke="midnightblue" points="139.746,-51.3978 149.248,-56.083 144.741,-46.4945 139.746,-51.3978"/>
</g>
</g>
</svg>
