<?xml version="1.0" encoding="UTF-8" standalone="no"?>
<!DOCTYPE svg PUBLIC "-//W3C//DTD SVG 1.1//EN"
 "http://www.w3.org/Graphics/SVG/1.1/DTD/svg11.dtd">
<!-- Generated by graphviz version 7.0.5 (20221223.1930)
 -->
<!-- Title: IVSpectrumAnalyzerControl&lt; MAXNC, MAX_FFT_SIZE &gt; Pages: 1 -->
<svg width="157pt" height="93pt"
 viewBox="0.00 0.00 156.50 93.00" xmlns="http://www.w3.org/2000/svg" xmlns:xlink="http://www.w3.org/1999/xlink">
<g id="graph0" class="graph" transform="scale(1 1) rotate(0) translate(4 89)">
<title>IVSpectrumAnalyzerControl&lt; MAXNC, MAX_FFT_SIZE &gt;</title>
<!-- Node1 -->
<g id="node1" class="node">
<title>Node1</title>
<g id="a_node1"><a xlink:title="Vectorial multi&#45;channel capable spectrum analyzer controlDerived from work by Alex Harker and Matthew...">
<polygon fill="#999999" stroke="#666666" points="146,-30 0,-30 0,0 146,0 146,-30"/>
<text text-anchor="start" x="8" y="-18" font-family="Helvetica,sans-Serif" font-size="10.00">IVSpectrumAnalyzerControl</text>
<text text-anchor="middle" x="73" y="-7" font-family="Helvetica,sans-Serif" font-size="10.00">&lt; MAXNC, MAX_FFT_SIZE &gt;</text>
</a>
</g>
</g>
<!-- Node2 -->
<g id="node2" class="node">
<title>Node2</title>
<g id="a_node2"><a xlink:href="class_i_control.html" target="_top" xlink:title="The lowest level base class of an IGraphics control.">
<polygon fill="white" stroke="#666666" points="59,-85 9,-85 9,-66 59,-66 59,-85"/>
<text text-anchor="middle" x="34" y="-73" font-family="Helvetica,sans-Serif" font-size="10.00">IControl</text>
</a>
</g>
</g>
<!-- Node2&#45;&gt;Node1 -->
<g id="edge1" class="edge">
<title>Node2&#45;&gt;Node1</title>
<path fill="none" stroke="#63b8ff" d="M46,-56.5C51.66,-48.01 58.31,-38.04 63.59,-30.11"/>
<polygon fill="#63b8ff" stroke="#63b8ff" points="43.23,-54.35 40.59,-64.61 49.05,-58.23 43.23,-54.35"/>
</g>
<!-- Node3 -->
<g id="node3" class="node">
<title>Node3</title>
<g id="a_node3"><a xlink:href="class_i_vector_base.html" target="_top" xlink:title="A base interface to be combined with IControl for vectorial controls &quot;IVControls&quot;,...">
<polygon fill="white" stroke="#666666" points="148.5,-85 77.5,-85 77.5,-66 148.5,-66 148.5,-85"/>
<text text-anchor="middle" x="113" y="-73" font-family="Helvetica,sans-Serif" font-size="10.00">IVectorBase</text>
</a>
</g>
</g>
<!-- Node3&#45;&gt;Node1 -->
<g id="edge2" class="edge">
<title>Node3&#45;&gt;Node1</title>
<path fill="none" stroke="#63b8ff" d="M100.69,-56.5C94.89,-48.01 88.07,-38.04 82.65,-30.11"/>
<polygon fill="#63b8ff" stroke="#63b8ff" points="97.71,-58.34 106.24,-64.62 103.49,-54.39 97.71,-58.34"/>
</g>
</g>
</svg>
