<?xml version="1.0" encoding="UTF-8" standalone="no"?>
<!DOCTYPE svg PUBLIC "-//W3C//DTD SVG 1.1//EN"
 "http://www.w3.org/Graphics/SVG/1.1/DTD/svg11.dtd">
<!-- Generated by graphviz version 7.0.5 (20221223.1930)
 -->
<!-- Title: ITextControl Pages: 1 -->
<svg width="345pt" height="360pt"
 viewBox="0.00 0.00 345.00 360.00" xmlns="http://www.w3.org/2000/svg" xmlns:xlink="http://www.w3.org/1999/xlink">
<g id="graph0" class="graph" transform="scale(1 1) rotate(0) translate(4 356)">
<title>ITextControl</title>
<!-- Node1 -->
<g id="node1" class="node">
<title>Node1</title>
<g id="a_node1"><a xlink:title="A basic control to display some text.">
<polygon fill="#999999" stroke="#666666" points="155,-185 86,-185 86,-166 155,-166 155,-185"/>
<text text-anchor="middle" x="120.5" y="-173" font-family="Helvetica,sans-Serif" font-size="10.00">ITextControl</text>
</a>
</g>
</g>
<!-- Node3 -->
<g id="node3" class="node">
<title>Node3</title>
<g id="a_node3"><a xlink:href="class_i_b_text_control.html" target="_top" xlink:title="A control to display text using a monospace bitmap font.">
<polygon fill="white" stroke="#666666" points="302,-352 226,-352 226,-333 302,-333 302,-352"/>
<text text-anchor="middle" x="264" y="-340" font-family="Helvetica,sans-Serif" font-size="10.00">IBTextControl</text>
</a>
</g>
</g>
<!-- Node1&#45;&gt;Node3 -->
<g id="edge2" class="edge">
<title>Node1&#45;&gt;Node3</title>
<path fill="none" stroke="#63b8ff" d="M125.33,-196.5C132.38,-228.98 150.57,-291.15 191,-324.5 200.74,-332.53 213.58,-337.06 225.71,-339.58"/>
<polygon fill="#63b8ff" stroke="#63b8ff" points="128.77,-195.87 123.38,-186.75 121.91,-197.24 128.77,-195.87"/>
</g>
<!-- Node4 -->
<g id="node4" class="node">
<title>Node4</title>
<g id="a_node4"><a xlink:href="class_i_caption_control.html" target="_top" xlink:title="A control to display the textual representation of a parameter.">
<polygon fill="white" stroke="#666666" points="305.5,-315 222.5,-315 222.5,-296 305.5,-296 305.5,-315"/>
<text text-anchor="middle" x="264" y="-303" font-family="Helvetica,sans-Serif" font-size="10.00">ICaptionControl</text>
</a>
</g>
</g>
<!-- Node1&#45;&gt;Node4 -->
<g id="edge3" class="edge">
<title>Node1&#45;&gt;Node4</title>
<path fill="none" stroke="#63b8ff" d="M128.65,-195.98C138.6,-221.39 159.08,-264.22 191,-287.5 200.06,-294.11 211.27,-298.3 222.14,-300.96"/>
<polygon fill="#63b8ff" stroke="#63b8ff" points="132,-194.94 125.24,-186.78 125.44,-197.37 132,-194.94"/>
</g>
<!-- Node5 -->
<g id="node5" class="node">
<title>Node5</title>
<g id="a_node5"><a xlink:href="class_i_editable_text_control.html" target="_top" xlink:title="A basic control to display some editable text.">
<polygon fill="white" stroke="#666666" points="316,-278 212,-278 212,-259 316,-259 316,-278"/>
<text text-anchor="middle" x="264" y="-266" font-family="Helvetica,sans-Serif" font-size="10.00">IEditableTextControl</text>
</a>
</g>
</g>
<!-- Node1&#45;&gt;Node5 -->
<g id="edge4" class="edge">
<title>Node1&#45;&gt;Node5</title>
<path fill="none" stroke="#63b8ff" d="M134.24,-194.61C146.71,-211.8 167.24,-236.45 191,-250.5 197.32,-254.24 204.4,-257.21 211.58,-259.56"/>
<polygon fill="#63b8ff" stroke="#63b8ff" points="137.33,-192.92 128.74,-186.73 131.59,-196.93 137.33,-192.92"/>
</g>
<!-- Node6 -->
<g id="node6" class="node">
<title>Node6</title>
<g id="a_node6"><a xlink:href="class_i_multi_line_text_control.html" target="_top" xlink:title="A basic control to display some text that needs to span multiple lines.">
<polygon fill="white" stroke="#666666" points="318.5,-241 209.5,-241 209.5,-222 318.5,-222 318.5,-241"/>
<text text-anchor="middle" x="264" y="-229" font-family="Helvetica,sans-Serif" font-size="10.00">IMultiLineTextControl</text>
</a>
</g>
</g>
<!-- Node1&#45;&gt;Node6 -->
<g id="edge5" class="edge">
<title>Node1&#45;&gt;Node6</title>
<path fill="none" stroke="#63b8ff" d="M146.51,-191.2C159.42,-198.78 175.64,-207.49 191,-213.5 198.92,-216.6 207.54,-219.29 215.98,-221.59"/>
<polygon fill="#63b8ff" stroke="#63b8ff" points="148.62,-188.39 138.25,-186.23 145.01,-194.39 148.62,-188.39"/>
</g>
<!-- Node7 -->
<g id="node7" class="node">
<title>Node7</title>
<g id="a_node7"><a xlink:href="class_i_r_t_text_control.html" target="_top" xlink:title="A control to display some text in the UI, driven by values in the RT audio thread.">
<polygon fill="white" stroke="#666666" points="337,-204 191,-204 191,-185 337,-185 337,-204"/>
<text text-anchor="middle" x="264" y="-192" font-family="Helvetica,sans-Serif" font-size="10.00">IRTTextControl&lt; MAXNC, T &gt;</text>
</a>
</g>
</g>
<!-- Node1&#45;&gt;Node7 -->
<g id="edge6" class="edge">
<title>Node1&#45;&gt;Node7</title>
<path fill="none" stroke="#63b8ff" d="M166.66,-181.56C174.36,-182.6 182.52,-183.69 190.71,-184.79"/>
<polygon fill="#63b8ff" stroke="#63b8ff" points="167.27,-178.11 156.89,-180.25 166.34,-185.05 167.27,-178.11"/>
</g>
<!-- Node8 -->
<g id="node8" class="node">
<title>Node8</title>
<g id="a_node8"><a xlink:href="class_i_text_toggle_control.html" target="_top" xlink:title="A control to toggle between two text strings on click.">
<polygon fill="white" stroke="#666666" points="313,-167 215,-167 215,-148 313,-148 313,-167"/>
<text text-anchor="middle" x="264" y="-155" font-family="Helvetica,sans-Serif" font-size="10.00">ITextToggleControl</text>
</a>
</g>
</g>
<!-- Node1&#45;&gt;Node8 -->
<g id="edge7" class="edge">
<title>Node1&#45;&gt;Node8</title>
<path fill="none" stroke="#63b8ff" d="M166.68,-169.75C181.98,-167.81 199.13,-165.63 214.67,-163.65"/>
<polygon fill="#63b8ff" stroke="#63b8ff" points="166.37,-166.26 156.89,-171 167.26,-173.21 166.37,-166.26"/>
</g>
<!-- Node9 -->
<g id="node9" class="node">
<title>Node9</title>
<g id="a_node9"><a xlink:href="class_i_u_r_l_control.html" target="_top" xlink:title="A control to show a clickable URL, that changes color after clicking.">
<polygon fill="white" stroke="#666666" points="299.5,-130 228.5,-130 228.5,-111 299.5,-111 299.5,-130"/>
<text text-anchor="middle" x="264" y="-118" font-family="Helvetica,sans-Serif" font-size="10.00">IURLControl</text>
</a>
</g>
</g>
<!-- Node1&#45;&gt;Node9 -->
<g id="edge8" class="edge">
<title>Node1&#45;&gt;Node9</title>
<path fill="none" stroke="#63b8ff" d="M147.45,-159.73C160.22,-152.49 176.05,-144.25 191,-138.5 202.79,-133.97 216.1,-130.27 228.04,-127.43"/>
<polygon fill="#63b8ff" stroke="#63b8ff" points="145.72,-156.69 138.84,-164.75 149.25,-162.74 145.72,-156.69"/>
</g>
<!-- Node10 -->
<g id="node10" class="node">
<title>Node10</title>
<g id="a_node10"><a xlink:href="class_i_v_label_control.html" target="_top" xlink:title="A vector label control that can display text with a shadow.">
<polygon fill="white" stroke="#666666" points="304.5,-93 223.5,-93 223.5,-74 304.5,-74 304.5,-93"/>
<text text-anchor="middle" x="264" y="-81" font-family="Helvetica,sans-Serif" font-size="10.00">IVLabelControl</text>
</a>
</g>
</g>
<!-- Node1&#45;&gt;Node10 -->
<g id="edge9" class="edge">
<title>Node1&#45;&gt;Node10</title>
<path fill="none" stroke="#63b8ff" d="M134.3,-156.65C146.8,-139.69 167.37,-115.37 191,-101.5 200.78,-95.76 212.34,-91.84 223.31,-89.16"/>
<polygon fill="#63b8ff" stroke="#63b8ff" points="131.72,-154.24 128.78,-164.42 137.43,-158.29 131.72,-154.24"/>
</g>
<!-- Node11 -->
<g id="node11" class="node">
<title>Node11</title>
<g id="a_node11"><a xlink:href="class_place_holder.html" target="_top" xlink:title="A control to use as a placeholder during development.">
<polygon fill="white" stroke="#666666" points="299,-56 229,-56 229,-37 299,-37 299,-56"/>
<text text-anchor="middle" x="264" y="-44" font-family="Helvetica,sans-Serif" font-size="10.00">PlaceHolder</text>
</a>
</g>
</g>
<!-- Node1&#45;&gt;Node11 -->
<g id="edge10" class="edge">
<title>Node1&#45;&gt;Node11</title>
<path fill="none" stroke="#63b8ff" d="M128.7,-155.2C138.71,-130.01 159.24,-87.57 191,-64.5 201.95,-56.55 216.03,-52.09 228.83,-49.6"/>
<polygon fill="#63b8ff" stroke="#63b8ff" points="125.52,-153.72 125.27,-164.31 132.07,-156.18 125.52,-153.72"/>
</g>
<!-- Node12 -->
<g id="node12" class="node">
<title>Node12</title>
<g id="a_node12"><a xlink:href="class_test_gestures_control.html" target="_top" xlink:title="Control to test multi gesture recognizers.">
<polygon fill="white" stroke="#666666" points="317.5,-19 210.5,-19 210.5,0 317.5,0 317.5,-19"/>
<text text-anchor="middle" x="264" y="-7" font-family="Helvetica,sans-Serif" font-size="10.00">TestGesturesControl</text>
</a>
</g>
</g>
<!-- Node1&#45;&gt;Node12 -->
<g id="edge11" class="edge">
<title>Node1&#45;&gt;Node12</title>
<path fill="none" stroke="#63b8ff" d="M125.37,-154.64C132.48,-122.37 150.75,-60.61 191,-27.5 196.57,-22.92 203.15,-19.48 210.03,-16.9"/>
<polygon fill="#63b8ff" stroke="#63b8ff" points="121.97,-153.82 123.41,-164.31 128.83,-155.21 121.97,-153.82"/>
</g>
<!-- Node2 -->
<g id="node2" class="node">
<title>Node2</title>
<g id="a_node2"><a xlink:href="class_i_control.html" target="_top" xlink:title="The lowest level base class of an IGraphics control.">
<polygon fill="white" stroke="#666666" points="50,-185 0,-185 0,-166 50,-166 50,-185"/>
<text text-anchor="middle" x="25" y="-173" font-family="Helvetica,sans-Serif" font-size="10.00">IControl</text>
</a>
</g>
</g>
<!-- Node2&#45;&gt;Node1 -->
<g id="edge1" class="edge">
<title>Node2&#45;&gt;Node1</title>
<path fill="none" stroke="#63b8ff" d="M61.58,-175.5C69.47,-175.5 77.82,-175.5 85.64,-175.5"/>
<polygon fill="#63b8ff" stroke="#63b8ff" points="61.59,-172 51.59,-175.5 61.59,-179 61.59,-172"/>
</g>
</g>
</svg>
