<?xml version="1.0" encoding="UTF-8" standalone="no"?>
<!DOCTYPE svg PUBLIC "-//W3C//DTD SVG 1.1//EN"
 "http://www.w3.org/Graphics/SVG/1.1/DTD/svg11.dtd">
<!-- Generated by graphviz version 2.36.0 (20140111.2315)
 -->
<!-- Title: IGraphics Pages: 1 -->
<svg width="249pt" height="204pt"
 viewBox="0.00 0.00 249.00 204.00" xmlns="http://www.w3.org/2000/svg" xmlns:xlink="http://www.w3.org/1999/xlink">
<g id="graph0" class="graph" transform="scale(1 1) rotate(0) translate(4 200)">
<title>IGraphics</title>
<polygon fill="white" stroke="none" points="-4,4 -4,-200 245,-200 245,4 -4,4"/>
<g id="clust1" class="cluster"><title>clusterdir_c70994b0d9919a11b368e677cb7f323c</title>
<g id="a_clust1"><a xlink:href="dir_c70994b0d9919a11b368e677cb7f323c.html" target="_top">
<polygon fill="#eeeeff" stroke="black" points="8,-64 8,-188 233,-188 233,-64 8,-64"/>
</a>
</g>
</g>
<!-- dir_c70994b0d9919a11b368e677cb7f323c -->
<g id="node1" class="node"><title>dir_c70994b0d9919a11b368e677cb7f323c</title>
<text text-anchor="middle" x="195" y="-159.5" font-family="Helvetica,sans-Serif" font-size="10.00">IGraphics</text>
</g>
<!-- dir_b13fc9fb79eb1e19d3aa0747e2e621c7 -->
<g id="node2" class="node"><title>dir_b13fc9fb79eb1e19d3aa0747e2e621c7</title>
<g id="a_node2"><a xlink:href="dir_b13fc9fb79eb1e19d3aa0747e2e621c7.html" target="_top" xlink:title="Controls">
<polygon fill="white" stroke="red" points="70,-108 16,-108 16,-72 70,-72 70,-108"/>
<text text-anchor="middle" x="43" y="-87.5" font-family="Helvetica,sans-Serif" font-size="10.00">Controls</text>
</a>
</g>
</g>
<!-- dir_a8a4892678035c62db3a4af7d9811050 -->
<g id="node5" class="node"><title>dir_a8a4892678035c62db3a4af7d9811050</title>
<g id="a_node5"><a xlink:href="dir_a8a4892678035c62db3a4af7d9811050.html" target="_top" xlink:title="IPlug">
<polygon fill="white" stroke="red" points="125,-36 71,-36 71,-0 125,-0 125,-36"/>
<text text-anchor="middle" x="98" y="-15.5" font-family="Helvetica,sans-Serif" font-size="10.00">IPlug</text>
</a>
</g>
</g>
<!-- dir_b13fc9fb79eb1e19d3aa0747e2e621c7&#45;&gt;dir_a8a4892678035c62db3a4af7d9811050 -->
<g id="edge5" class="edge"><title>dir_b13fc9fb79eb1e19d3aa0747e2e621c7&#45;&gt;dir_a8a4892678035c62db3a4af7d9811050</title>
<path fill="none" stroke="black" d="M56.5955,-71.6966C63.1227,-63.3893 71.068,-53.2771 78.2466,-44.1407"/>
<polygon fill="black" stroke="black" points="81.1347,-46.1299 84.5609,-36.1043 75.6305,-41.8051 81.1347,-46.1299"/>
<g id="a_edge5&#45;headlabel"><a xlink:href="dir_000001_000004.html" target="_top" xlink:title="5">
<text text-anchor="middle" x="81.1465" y="-48.2106" font-family="Helvetica,sans-Serif" font-size="10.00">5</text>
</a>
</g>
</g>
<!-- dir_c649c2f2597c2abb2195531ee49800c5 -->
<g id="node3" class="node"><title>dir_c649c2f2597c2abb2195531ee49800c5</title>
<g id="a_node3"><a xlink:href="dir_c649c2f2597c2abb2195531ee49800c5.html" target="_top" xlink:title="Drawing">
<polygon fill="white" stroke="black" points="70,-180 16,-180 16,-144 70,-144 70,-180"/>
<text text-anchor="middle" x="43" y="-159.5" font-family="Helvetica,sans-Serif" font-size="10.00">Drawing</text>
</a>
</g>
</g>
<!-- dir_c649c2f2597c2abb2195531ee49800c5&#45;&gt;dir_b13fc9fb79eb1e19d3aa0747e2e621c7 -->
<g id="edge4" class="edge"><title>dir_c649c2f2597c2abb2195531ee49800c5&#45;&gt;dir_b13fc9fb79eb1e19d3aa0747e2e621c7</title>
<path fill="none" stroke="black" d="M43,-143.697C43,-135.983 43,-126.712 43,-118.112"/>
<polygon fill="black" stroke="black" points="46.5001,-118.104 43,-108.104 39.5001,-118.104 46.5001,-118.104"/>
<g id="a_edge4&#45;headlabel"><a xlink:href="dir_000002_000001.html" target="_top" xlink:title="3">
<text text-anchor="middle" x="49.3393" y="-119.199" font-family="Helvetica,sans-Serif" font-size="10.00">3</text>
</a>
</g>
</g>
<!-- dir_c649c2f2597c2abb2195531ee49800c5&#45;&gt;dir_a8a4892678035c62db3a4af7d9811050 -->
<g id="edge3" class="edge"><title>dir_c649c2f2597c2abb2195531ee49800c5&#45;&gt;dir_a8a4892678035c62db3a4af7d9811050</title>
<path fill="none" stroke="black" d="M57.1647,-143.851C64.6902,-133.93 73.4971,-120.89 79,-108 87.4132,-88.2932 92.2447,-64.4881 94.9283,-46.4579"/>
<polygon fill="black" stroke="black" points="98.4267,-46.7052 96.3028,-36.3255 91.4903,-45.7643 98.4267,-46.7052"/>
<g id="a_edge3&#45;headlabel"><a xlink:href="dir_000002_000004.html" target="_top" xlink:title="4">
<text text-anchor="middle" x="100.757" y="-48.1489" font-family="Helvetica,sans-Serif" font-size="10.00">4</text>
</a>
</g>
</g>
<!-- dir_e4d4be9d96bdd22d6611b01668e2ff02 -->
<g id="node4" class="node"><title>dir_e4d4be9d96bdd22d6611b01668e2ff02</title>
<g id="a_node4"><a xlink:href="dir_e4d4be9d96bdd22d6611b01668e2ff02.html" target="_top" xlink:title="Platforms">
<polygon fill="white" stroke="black" points="147.25,-180 88.75,-180 88.75,-144 147.25,-144 147.25,-180"/>
<text text-anchor="middle" x="118" y="-159.5" font-family="Helvetica,sans-Serif" font-size="10.00">Platforms</text>
</a>
</g>
</g>
<!-- dir_e4d4be9d96bdd22d6611b01668e2ff02&#45;&gt;dir_b13fc9fb79eb1e19d3aa0747e2e621c7 -->
<g id="edge2" class="edge"><title>dir_e4d4be9d96bdd22d6611b01668e2ff02&#45;&gt;dir_b13fc9fb79eb1e19d3aa0747e2e621c7</title>
<path fill="none" stroke="black" d="M99.4607,-143.697C90.1967,-135.05 78.8377,-124.449 68.7433,-115.027"/>
<polygon fill="black" stroke="black" points="71.0248,-112.369 61.3261,-108.104 66.2485,-117.486 71.0248,-112.369"/>
<g id="a_edge2&#45;headlabel"><a xlink:href="dir_000003_000001.html" target="_top" xlink:title="2">
<text text-anchor="middle" x="75.5899" y="-110.246" font-family="Helvetica,sans-Serif" font-size="10.00">2</text>
</a>
</g>
</g>
<!-- dir_e4d4be9d96bdd22d6611b01668e2ff02&#45;&gt;dir_a8a4892678035c62db3a4af7d9811050 -->
<g id="edge1" class="edge"><title>dir_e4d4be9d96bdd22d6611b01668e2ff02&#45;&gt;dir_a8a4892678035c62db3a4af7d9811050</title>
<path fill="none" stroke="black" d="M118.173,-143.677C118.081,-124.155 117.061,-91.5472 112,-64 110.928,-58.1658 109.34,-52.027 107.615,-46.2239"/>
<polygon fill="black" stroke="black" points="110.817,-44.7427 104.443,-36.2795 104.148,-46.8703 110.817,-44.7427"/>
<g id="a_edge1&#45;headlabel"><a xlink:href="dir_000003_000004.html" target="_top" xlink:title="3">
<text text-anchor="middle" x="114.614" y="-44.8043" font-family="Helvetica,sans-Serif" font-size="10.00">3</text>
</a>
</g>
</g>
</g>
</svg>
