<?xml version="1.0" encoding="UTF-8" standalone="no"?>
<!DOCTYPE svg PUBLIC "-//W3C//DTD SVG 1.1//EN"
 "http://www.w3.org/Graphics/SVG/1.1/DTD/svg11.dtd">
<!-- Generated by graphviz version 2.36.0 (20140111.2315)
 -->
<!-- Title: Platforms Pages: 1 -->
<svg width="109pt" height="223pt"
 viewBox="0.00 0.00 109.00 223.00" xmlns="http://www.w3.org/2000/svg" xmlns:xlink="http://www.w3.org/1999/xlink">
<g id="graph0" class="graph" transform="scale(1 1) rotate(0) translate(4 219)">
<title>Platforms</title>
<polygon fill="white" stroke="none" points="-4,4 -4,-219 105,-219 105,4 -4,4"/>
<g id="clust1" class="cluster"><title>clusterdir_c70994b0d9919a11b368e677cb7f323c</title>
<g id="a_clust1"><a xlink:href="dir_c70994b0d9919a11b368e677cb7f323c.html" target="_top" xlink:title="IGraphics">
<polygon fill="#ddddee" stroke="black" points="8,-136 8,-207 84,-207 84,-136 8,-136"/>
<text text-anchor="middle" x="46" y="-195" font-family="Helvetica,sans-Serif" font-size="10.00">IGraphics</text>
</a>
</g>
</g>
<!-- dir_e4d4be9d96bdd22d6611b01668e2ff02 -->
<g id="node1" class="node"><title>dir_e4d4be9d96bdd22d6611b01668e2ff02</title>
<g id="a_node1"><a xlink:href="dir_e4d4be9d96bdd22d6611b01668e2ff02.html" target="_top" xlink:title="Platforms">
<polygon fill="#eeeeff" stroke="black" points="75.25,-180 16.75,-180 16.75,-144 75.25,-144 75.25,-180"/>
<text text-anchor="middle" x="46" y="-159.5" font-family="Helvetica,sans-Serif" font-size="10.00">Platforms</text>
</a>
</g>
</g>
<!-- dir_a8a4892678035c62db3a4af7d9811050 -->
<g id="node2" class="node"><title>dir_a8a4892678035c62db3a4af7d9811050</title>
<g id="a_node2"><a xlink:href="dir_a8a4892678035c62db3a4af7d9811050.html" target="_top" xlink:title="IPlug">
<polygon fill="white" stroke="red" points="73,-36 19,-36 19,-0 73,-0 73,-36"/>
<text text-anchor="middle" x="46" y="-15.5" font-family="Helvetica,sans-Serif" font-size="10.00">IPlug</text>
</a>
</g>
</g>
<!-- dir_e4d4be9d96bdd22d6611b01668e2ff02&#45;&gt;dir_a8a4892678035c62db3a4af7d9811050 -->
<g id="edge1" class="edge"><title>dir_e4d4be9d96bdd22d6611b01668e2ff02&#45;&gt;dir_a8a4892678035c62db3a4af7d9811050</title>
<path fill="none" stroke="black" d="M42.7517,-143.888C40.9542,-133.542 38.9053,-120.063 38,-108 36.8026,-92.0449 36.8026,-87.9551 38,-72 38.6366,-63.5179 39.8384,-54.3361 41.1208,-46.0356"/>
<polygon fill="black" stroke="black" points="44.5836,-46.5472 42.7517,-36.1119 37.6763,-45.412 44.5836,-46.5472"/>
<g id="a_edge1&#45;headlabel"><a xlink:href="dir_000003_000004.html" target="_top" xlink:title="3">
<text text-anchor="middle" x="46.8024" y="-48.0546" font-family="Helvetica,sans-Serif" font-size="10.00">3</text>
</a>
</g>
</g>
<!-- dir_b13fc9fb79eb1e19d3aa0747e2e621c7 -->
<g id="node3" class="node"><title>dir_b13fc9fb79eb1e19d3aa0747e2e621c7</title>
<g id="a_node3"><a xlink:href="dir_b13fc9fb79eb1e19d3aa0747e2e621c7.html" target="_top" xlink:title="Controls">
<polygon fill="white" stroke="red" points="101,-108 47,-108 47,-72 101,-72 101,-108"/>
<text text-anchor="middle" x="74" y="-87.5" font-family="Helvetica,sans-Serif" font-size="10.00">Controls</text>
</a>
</g>
</g>
<!-- dir_e4d4be9d96bdd22d6611b01668e2ff02&#45;&gt;dir_b13fc9fb79eb1e19d3aa0747e2e621c7 -->
<g id="edge2" class="edge"><title>dir_e4d4be9d96bdd22d6611b01668e2ff02&#45;&gt;dir_b13fc9fb79eb1e19d3aa0747e2e621c7</title>
<path fill="none" stroke="black" d="M52.9214,-143.697C56.0747,-135.813 59.8783,-126.304 63.3814,-117.546"/>
<polygon fill="black" stroke="black" points="66.694,-118.689 67.1583,-108.104 60.1946,-116.089 66.694,-118.689"/>
<g id="a_edge2&#45;headlabel"><a xlink:href="dir_000003_000001.html" target="_top" xlink:title="2">
<text text-anchor="middle" x="67.9952" y="-120.581" font-family="Helvetica,sans-Serif" font-size="10.00">2</text>
</a>
</g>
</g>
<!-- dir_b13fc9fb79eb1e19d3aa0747e2e621c7&#45;&gt;dir_a8a4892678035c62db3a4af7d9811050 -->
<g id="edge3" class="edge"><title>dir_b13fc9fb79eb1e19d3aa0747e2e621c7&#45;&gt;dir_a8a4892678035c62db3a4af7d9811050</title>
<path fill="none" stroke="black" d="M67.0786,-71.6966C63.9253,-63.8132 60.1217,-54.3042 56.6186,-45.5464"/>
<polygon fill="black" stroke="black" points="59.8054,-44.0892 52.8417,-36.1043 53.306,-46.689 59.8054,-44.0892"/>
<g id="a_edge3&#45;headlabel"><a xlink:href="dir_000001_000004.html" target="_top" xlink:title="5">
<text text-anchor="middle" x="63.7765" y="-43.8723" font-family="Helvetica,sans-Serif" font-size="10.00">5</text>
</a>
</g>
</g>
</g>
</svg>
