<?xml version="1.0" encoding="UTF-8" standalone="no"?>
<!DOCTYPE svg PUBLIC "-//W3C//DTD SVG 1.1//EN"
 "http://www.w3.org/Graphics/SVG/1.1/DTD/svg11.dtd">
<!-- Generated by graphviz version 2.36.0 (20140111.2315)
 -->
<!-- Title: Graphical Class Hierarchy Pages: 1 -->
<svg width="338pt" height="142pt"
 viewBox="0.00 0.00 338.00 142.00" xmlns="http://www.w3.org/2000/svg" xmlns:xlink="http://www.w3.org/1999/xlink">
<g id="graph0" class="graph" transform="scale(1 1) rotate(0) translate(4 138)">
<title>Graphical Class Hierarchy</title>
<polygon fill="white" stroke="none" points="-4,4 -4,-138 334,-138 334,4 -4,4"/>
<!-- Node1 -->
<g id="node1" class="node"><title>Node1</title>
<g id="a_node1"><a xlink:href="class_i_graphics.html" target="_top" xlink:title="The lowest level base class of an IGraphics context. ">
<polygon fill="white" stroke="black" points="0.5,-76.5 0.5,-95.5 59.5,-95.5 59.5,-76.5 0.5,-76.5"/>
<text text-anchor="middle" x="30" y="-83.5" font-family="Helvetica,sans-Serif" font-size="10.00">IGraphics</text>
</a>
</g>
</g>
<!-- Node2 -->
<g id="node2" class="node"><title>Node2</title>
<g id="a_node2"><a xlink:href="class_i_graphics_lice.html" target="_top" xlink:title="IGraphics draw class using Cockos&#39; LICE. ">
<polygon fill="white" stroke="black" points="108.5,-95.5 108.5,-114.5 185.5,-114.5 185.5,-95.5 108.5,-95.5"/>
<text text-anchor="middle" x="147" y="-102.5" font-family="Helvetica,sans-Serif" font-size="10.00">IGraphicsLice</text>
</a>
</g>
</g>
<!-- Node1&#45;&gt;Node2 -->
<g id="edge1" class="edge"><title>Node1&#45;&gt;Node2</title>
<path fill="none" stroke="midnightblue" d="M69.7503,-92.4022C82.1217,-94.4462 95.7933,-96.705 108.103,-98.7388"/>
<polygon fill="midnightblue" stroke="midnightblue" points="70.1595,-88.9225 59.7227,-90.7455 69.0184,-95.8288 70.1595,-88.9225"/>
</g>
<!-- Node3 -->
<g id="node3" class="node"><title>Node3</title>
<g id="a_node3"><a xlink:href="class_i_graphics_path_base.html" target="_top" xlink:title="A base class to share implementations of IGraphics.h functionality across different path based graphi...">
<polygon fill="white" stroke="black" points="96.5,-57.5 96.5,-76.5 197.5,-76.5 197.5,-57.5 96.5,-57.5"/>
<text text-anchor="middle" x="147" y="-64.5" font-family="Helvetica,sans-Serif" font-size="10.00">IGraphicsPathBase</text>
</a>
</g>
</g>
<!-- Node1&#45;&gt;Node3 -->
<g id="edge2" class="edge"><title>Node1&#45;&gt;Node3</title>
<path fill="none" stroke="midnightblue" d="M69.72,-79.6028C78.2131,-78.1996 87.3203,-76.6949 96.1799,-75.2312"/>
<polygon fill="midnightblue" stroke="midnightblue" points="69.0184,-76.1712 59.7227,-81.2545 70.1595,-83.0775 69.0184,-76.1712"/>
</g>
<!-- Node4 -->
<g id="node4" class="node"><title>Node4</title>
<g id="a_node4"><a xlink:href="class_i_graphics_a_g_g.html" target="_top" xlink:title="IGraphics draw class using Antigrain Geometry. ">
<polygon fill="white" stroke="black" points="242,-114.5 242,-133.5 322,-133.5 322,-114.5 242,-114.5"/>
<text text-anchor="middle" x="282" y="-121.5" font-family="Helvetica,sans-Serif" font-size="10.00">IGraphicsAGG</text>
</a>
</g>
</g>
<!-- Node3&#45;&gt;Node4 -->
<g id="edge3" class="edge"><title>Node3&#45;&gt;Node4</title>
<path fill="none" stroke="midnightblue" d="M184.359,-80.2159C188.986,-82.0732 193.629,-84.0248 198,-86 214.487,-93.4494 217.592,-97.3777 234,-105 241.024,-108.263 248.773,-111.528 255.918,-114.408"/>
<polygon fill="midnightblue" stroke="midnightblue" points="185.564,-76.9293 174.975,-76.5591 183.022,-83.4515 185.564,-76.9293"/>
</g>
<!-- Node5 -->
<g id="node5" class="node"><title>Node5</title>
<g id="a_node5"><a xlink:href="class_i_graphics_cairo.html" target="_top" xlink:title="IGraphics draw class using Cairo. ">
<polygon fill="white" stroke="black" points="241,-76.5 241,-95.5 323,-95.5 323,-76.5 241,-76.5"/>
<text text-anchor="middle" x="282" y="-83.5" font-family="Helvetica,sans-Serif" font-size="10.00">IGraphicsCairo</text>
</a>
</g>
</g>
<!-- Node3&#45;&gt;Node5 -->
<g id="edge4" class="edge"><title>Node3&#45;&gt;Node5</title>
<path fill="none" stroke="midnightblue" d="M207.747,-75.5353C218.999,-77.1426 230.511,-78.7873 240.977,-80.2825"/>
<polygon fill="midnightblue" stroke="midnightblue" points="207.919,-72.0244 197.524,-74.0749 206.929,-78.954 207.919,-72.0244"/>
</g>
<!-- Node6 -->
<g id="node6" class="node"><title>Node6</title>
<g id="a_node6"><a xlink:href="class_i_graphics_canvas.html" target="_top" xlink:title="IGraphics draw class HTML5 canvas. ">
<polygon fill="white" stroke="black" points="236,-38.5 236,-57.5 328,-57.5 328,-38.5 236,-38.5"/>
<text text-anchor="middle" x="282" y="-45.5" font-family="Helvetica,sans-Serif" font-size="10.00">IGraphicsCanvas</text>
</a>
</g>
</g>
<!-- Node3&#45;&gt;Node6 -->
<g id="edge5" class="edge"><title>Node3&#45;&gt;Node6</title>
<path fill="none" stroke="midnightblue" d="M207.676,-58.4749C217.132,-57.124 226.775,-55.7465 235.827,-54.4532"/>
<polygon fill="midnightblue" stroke="midnightblue" points="206.929,-55.046 197.524,-59.9251 207.919,-61.9756 206.929,-55.046"/>
</g>
<!-- Node7 -->
<g id="node7" class="node"><title>Node7</title>
<g id="a_node7"><a xlink:href="class_i_graphics_nano_v_g.html" target="_top" xlink:title="IGraphics draw class using NanoVG. ">
<polygon fill="white" stroke="black" points="234,-0.5 234,-19.5 330,-19.5 330,-0.5 234,-0.5"/>
<text text-anchor="middle" x="282" y="-7.5" font-family="Helvetica,sans-Serif" font-size="10.00">IGraphicsNanoVG</text>
</a>
</g>
</g>
<!-- Node3&#45;&gt;Node7 -->
<g id="edge6" class="edge"><title>Node3&#45;&gt;Node7</title>
<path fill="none" stroke="midnightblue" d="M178.258,-53.3482C194.692,-46.0046 215.4,-36.8664 234,-29 241.458,-25.846 249.625,-22.505 257.029,-19.5189"/>
<polygon fill="midnightblue" stroke="midnightblue" points="176.818,-50.158 169.124,-57.4414 179.681,-56.5459 176.818,-50.158"/>
</g>
</g>
</svg>
