<?xml version="1.0" encoding="UTF-8" standalone="no"?>
<!DOCTYPE svg PUBLIC "-//W3C//DTD SVG 1.1//EN"
 "http://www.w3.org/Graphics/SVG/1.1/DTD/svg11.dtd">
<!-- Generated by graphviz version 7.0.5 (20221223.1930)
 -->
<!-- Title: Graphical Class Hierarchy Pages: 1 -->
<svg width="199pt" height="101pt"
 viewBox="0.00 0.00 199.00 101.00" xmlns="http://www.w3.org/2000/svg" xmlns:xlink="http://www.w3.org/1999/xlink">
<g id="graph0" class="graph" transform="scale(1 1) rotate(0) translate(4 97)">
<title>Graphical Class Hierarchy</title>
<!-- Node0 -->
<g id="node1" class="node">
<title>Node0</title>
<g id="a_node1"><a xlink:href="class_i_graphics.html" target="_top" xlink:title="The lowest level base class of an IGraphics context.">
<polygon fill="white" stroke="#666666" points="59,-56 0,-56 0,-37 59,-37 59,-56"/>
<text text-anchor="middle" x="29.5" y="-44" font-family="Helvetica,sans-Serif" font-size="10.00">IGraphics</text>
</a>
</g>
</g>
<!-- Node1 -->
<g id="node2" class="node">
<title>Node1</title>
<g id="a_node2"><a xlink:href="class_i_graphics_canvas.html" target="_top" xlink:title="IGraphics draw class HTML5 canvas.">
<polygon fill="white" stroke="#666666" points="189,-93 97,-93 97,-74 189,-74 189,-93"/>
<text text-anchor="middle" x="143" y="-81" font-family="Helvetica,sans-Serif" font-size="10.00">IGraphicsCanvas</text>
</a>
</g>
</g>
<!-- Node0&#45;&gt;Node1 -->
<g id="edge1" class="edge">
<title>Node0&#45;&gt;Node1</title>
<path fill="none" stroke="#63b8ff" d="M69.97,-59.6C83.87,-64.21 99.25,-69.31 112.22,-73.62"/>
<polygon fill="#63b8ff" stroke="#63b8ff" points="71.24,-56.33 60.65,-56.51 69.04,-62.98 71.24,-56.33"/>
</g>
<!-- Node2 -->
<g id="node3" class="node">
<title>Node2</title>
<g id="a_node3"><a xlink:href="class_i_graphics_nano_v_g.html" target="_top" xlink:title="IGraphics draw class using NanoVG.">
<polygon fill="white" stroke="#666666" points="191,-56 95,-56 95,-37 191,-37 191,-56"/>
<text text-anchor="middle" x="143" y="-44" font-family="Helvetica,sans-Serif" font-size="10.00">IGraphicsNanoVG</text>
</a>
</g>
</g>
<!-- Node0&#45;&gt;Node2 -->
<g id="edge2" class="edge">
<title>Node0&#45;&gt;Node2</title>
<path fill="none" stroke="#63b8ff" d="M70.66,-46.5C78.48,-46.5 86.76,-46.5 94.78,-46.5"/>
<polygon fill="#63b8ff" stroke="#63b8ff" points="70.73,-43 60.73,-46.5 70.73,-50 70.73,-43"/>
</g>
<!-- Node3 -->
<g id="node4" class="node">
<title>Node3</title>
<g id="a_node4"><a xlink:href="class_i_graphics_skia.html" target="_top" xlink:title="IGraphics draw class using Skia.">
<polygon fill="white" stroke="#666666" points="182,-19 104,-19 104,0 182,0 182,-19"/>
<text text-anchor="middle" x="143" y="-7" font-family="Helvetica,sans-Serif" font-size="10.00">IGraphicsSkia</text>
</a>
</g>
</g>
<!-- Node0&#45;&gt;Node3 -->
<g id="edge3" class="edge">
<title>Node0&#45;&gt;Node3</title>
<path fill="none" stroke="#63b8ff" d="M69.97,-33.4C83.87,-28.79 99.25,-23.69 112.22,-19.38"/>
<polygon fill="#63b8ff" stroke="#63b8ff" points="69.04,-30.02 60.65,-36.49 71.24,-36.67 69.04,-30.02"/>
</g>
</g>
</svg>
