<?xml version="1.0" encoding="UTF-8" standalone="no"?>
<!DOCTYPE svg PUBLIC "-//W3C//DTD SVG 1.1//EN"
 "http://www.w3.org/Graphics/SVG/1.1/DTD/svg11.dtd">
<!-- Generated by graphviz version 7.0.5 (20221223.1930)
 -->
<!-- Title: Graphical Class Hierarchy Pages: 1 -->
<svg width="320pt" height="64pt"
 viewBox="0.00 0.00 320.00 64.00" xmlns="http://www.w3.org/2000/svg" xmlns:xlink="http://www.w3.org/1999/xlink">
<g id="graph0" class="graph" transform="scale(1 1) rotate(0) translate(4 60)">
<title>Graphical Class Hierarchy</title>
<!-- Node0 -->
<g id="node1" class="node">
<title>Node0</title>
<g id="a_node1"><a xlink:title=" ">
<polygon fill="#e0e0e0" stroke="#999999" points="118,-56 0,-56 0,-37 118,-37 118,-56"/>
<text text-anchor="middle" x="59" y="-44" font-family="Helvetica,sans-Serif" font-size="10.00">&lt;AUAudioUnitFactory&gt;</text>
</a>
</g>
</g>
<!-- Node1 -->
<g id="node2" class="node">
<title>Node1</title>
<g id="a_node2"><a xlink:href="interface_i_p_l_u_g___a_u_v_i_e_w_c_o_n_t_r_o_l_l_e_r.html" target="_top" xlink:title=" ">
<polygon fill="white" stroke="#666666" points="312,-37 154,-37 154,-18 312,-18 312,-37"/>
<text text-anchor="middle" x="233" y="-25" font-family="Helvetica,sans-Serif" font-size="10.00">IPLUG_AUVIEWCONTROLLER</text>
</a>
</g>
</g>
<!-- Node0&#45;&gt;Node1 -->
<g id="edge1" class="edge">
<title>Node0&#45;&gt;Node1</title>
<path fill="none" stroke="#63b8ff" d="M129.66,-38.81C137.57,-37.93 145.68,-37.04 153.7,-36.15"/>
<polygon fill="#63b8ff" stroke="#63b8ff" points="129.29,-35.32 119.74,-39.9 130.06,-42.28 129.29,-35.32"/>
</g>
<!-- Node2 -->
<g id="node3" class="node">
<title>Node2</title>
<g id="a_node3"><a xlink:title=" ">
<polygon fill="#e0e0e0" stroke="#999999" points="106,-19 12,-19 12,0 106,0 106,-19"/>
<text text-anchor="middle" x="59" y="-7" font-family="Helvetica,sans-Serif" font-size="10.00">AUViewController</text>
</a>
</g>
</g>
<!-- Node2&#45;&gt;Node1 -->
<g id="edge2" class="edge">
<title>Node2&#45;&gt;Node1</title>
<path fill="none" stroke="#63b8ff" d="M117.4,-15.51C129,-16.72 141.39,-18.02 153.57,-19.29"/>
<polygon fill="#63b8ff" stroke="#63b8ff" points="117.91,-12.04 107.6,-14.48 117.18,-19 117.91,-12.04"/>
</g>
</g>
</svg>
