<?xml version="1.0" encoding="UTF-8" standalone="no"?>
<!DOCTYPE svg PUBLIC "-//W3C//DTD SVG 1.1//EN"
 "http://www.w3.org/Graphics/SVG/1.1/DTD/svg11.dtd">
<!-- Generated by graphviz version 7.0.5 (20221223.1930)
 -->
<!-- Title: Graphical Class Hierarchy Pages: 1 -->
<svg width="270pt" height="175pt"
 viewBox="0.00 0.00 270.00 175.00" xmlns="http://www.w3.org/2000/svg" xmlns:xlink="http://www.w3.org/1999/xlink">
<g id="graph0" class="graph" transform="scale(1 1) rotate(0) translate(4 171)">
<title>Graphical Class Hierarchy</title>
<!-- Node0 -->
<g id="node1" class="node">
<title>Node0</title>
<g id="a_node1"><a xlink:title=" ">
<polygon fill="#e0e0e0" stroke="#999999" points="144,-93 0,-93 0,-74 144,-74 144,-93"/>
<text text-anchor="middle" x="72" y="-81" font-family="Helvetica,sans-Serif" font-size="10.00">IGRAPHICS_DRAW_CLASS</text>
</a>
</g>
</g>
<!-- Node1 -->
<g id="node2" class="node">
<title>Node1</title>
<g id="a_node2"><a xlink:href="class_i_graphics_i_o_s.html" target="_top" xlink:title="IGraphics platform class for IOS.">
<polygon fill="white" stroke="#666666" points="259,-167 183,-167 183,-148 259,-148 259,-167"/>
<text text-anchor="middle" x="221" y="-155" font-family="Helvetica,sans-Serif" font-size="10.00">IGraphicsIOS</text>
</a>
</g>
</g>
<!-- Node0&#45;&gt;Node1 -->
<g id="edge1" class="edge">
<title>Node0&#45;&gt;Node1</title>
<path fill="none" stroke="#63b8ff" d="M101.05,-98.76C122.5,-110.29 152.9,-126.33 180,-139.5 185.62,-142.23 191.74,-145.06 197.47,-147.64"/>
<polygon fill="#63b8ff" stroke="#63b8ff" points="102.8,-95.73 92.34,-94.06 99.48,-101.89 102.8,-95.73"/>
</g>
<!-- Node2 -->
<g id="node3" class="node">
<title>Node2</title>
<g id="a_node3"><a xlink:href="class_i_graphics_linux.html" target="_top" xlink:title="IGraphics platform class for linux.">
<polygon fill="white" stroke="#666666" points="262,-130 180,-130 180,-111 262,-111 262,-130"/>
<text text-anchor="middle" x="221" y="-118" font-family="Helvetica,sans-Serif" font-size="10.00">IGraphicsLinux</text>
</a>
</g>
</g>
<!-- Node0&#45;&gt;Node2 -->
<g id="edge2" class="edge">
<title>Node0&#45;&gt;Node2</title>
<path fill="none" stroke="#63b8ff" d="M123.38,-96.18C142.05,-100.88 162.94,-106.14 180.5,-110.56"/>
<polygon fill="#63b8ff" stroke="#63b8ff" points="124.41,-92.83 113.86,-93.78 122.7,-99.62 124.41,-92.83"/>
</g>
<!-- Node3 -->
<g id="node4" class="node">
<title>Node3</title>
<g id="a_node4"><a xlink:href="class_i_graphics_mac.html" target="_top" xlink:title="IGraphics platform class for macOS.">
<polygon fill="white" stroke="#666666" points="259.5,-93 182.5,-93 182.5,-74 259.5,-74 259.5,-93"/>
<text text-anchor="middle" x="221" y="-81" font-family="Helvetica,sans-Serif" font-size="10.00">IGraphicsMac</text>
</a>
</g>
</g>
<!-- Node0&#45;&gt;Node3 -->
<g id="edge3" class="edge">
<title>Node0&#45;&gt;Node3</title>
<path fill="none" stroke="#63b8ff" d="M155.62,-83.5C164.82,-83.5 173.82,-83.5 182.04,-83.5"/>
<polygon fill="#63b8ff" stroke="#63b8ff" points="155.86,-80 145.86,-83.5 155.86,-87 155.86,-80"/>
</g>
<!-- Node4 -->
<g id="node5" class="node">
<title>Node4</title>
<g id="a_node5"><a xlink:href="class_i_graphics_web.html" target="_top" xlink:title="IGraphics platform class for the web.">
<polygon fill="white" stroke="#666666" points="260,-56 182,-56 182,-37 260,-37 260,-56"/>
<text text-anchor="middle" x="221" y="-44" font-family="Helvetica,sans-Serif" font-size="10.00">IGraphicsWeb</text>
</a>
</g>
</g>
<!-- Node0&#45;&gt;Node4 -->
<g id="edge4" class="edge">
<title>Node0&#45;&gt;Node4</title>
<path fill="none" stroke="#63b8ff" d="M123.3,-70.84C142.35,-66.04 163.72,-60.67 181.52,-56.19"/>
<polygon fill="#63b8ff" stroke="#63b8ff" points="122.7,-67.38 113.86,-73.22 124.41,-74.17 122.7,-67.38"/>
</g>
<!-- Node5 -->
<g id="node6" class="node">
<title>Node5</title>
<g id="a_node6"><a xlink:href="class_i_graphics_win.html" target="_top" xlink:title="IGraphics platform class for Windows.">
<polygon fill="white" stroke="#666666" points="258.5,-19 183.5,-19 183.5,0 258.5,0 258.5,-19"/>
<text text-anchor="middle" x="221" y="-7" font-family="Helvetica,sans-Serif" font-size="10.00">IGraphicsWin</text>
</a>
</g>
</g>
<!-- Node0&#45;&gt;Node5 -->
<g id="edge5" class="edge">
<title>Node0&#45;&gt;Node5</title>
<path fill="none" stroke="#63b8ff" d="M101.94,-68.31C123.4,-57.13 153.41,-41.64 180,-28.5 186.06,-25.5 192.69,-22.32 198.77,-19.43"/>
<polygon fill="#63b8ff" stroke="#63b8ff" points="100.44,-65.15 93.19,-72.88 103.68,-71.35 100.44,-65.15"/>
</g>
</g>
</svg>
