<?xml version="1.0" encoding="UTF-8" standalone="no"?>
<!DOCTYPE svg PUBLIC "-//W3C//DTD SVG 1.1//EN"
 "http://www.w3.org/Graphics/SVG/1.1/DTD/svg11.dtd">
<!-- Generated by graphviz version 7.0.5 (20221223.1930)
 -->
<!-- Title: Graphical Class Hierarchy Pages: 1 -->
<svg width="241pt" height="101pt"
 viewBox="0.00 0.00 241.00 101.00" xmlns="http://www.w3.org/2000/svg" xmlns:xlink="http://www.w3.org/1999/xlink">
<g id="graph0" class="graph" transform="scale(1 1) rotate(0) translate(4 97)">
<title>Graphical Class Hierarchy</title>
<!-- Node0 -->
<g id="node1" class="node">
<title>Node0</title>
<g id="a_node1"><a xlink:href="class_i_oscillator.html" target="_top" xlink:title=" ">
<polygon fill="white" stroke="#666666" points="83,-56 0,-56 0,-37 83,-37 83,-56"/>
<text text-anchor="middle" x="41.5" y="-44" font-family="Helvetica,sans-Serif" font-size="10.00">IOscillator&lt; T &gt;</text>
</a>
</g>
</g>
<!-- Node1 -->
<g id="node2" class="node">
<title>Node1</title>
<g id="a_node2"><a xlink:href="class_fast_sin_oscillator.html" target="_top" xlink:title=" ">
<polygon fill="white" stroke="#666666" points="233,-93 119,-93 119,-74 233,-74 233,-93"/>
<text text-anchor="middle" x="176" y="-81" font-family="Helvetica,sans-Serif" font-size="10.00">FastSinOscillator&lt; T &gt;</text>
</a>
</g>
</g>
<!-- Node0&#45;&gt;Node1 -->
<g id="edge1" class="edge">
<title>Node0&#45;&gt;Node1</title>
<path fill="none" stroke="#63b8ff" d="M88.63,-59.38C105.27,-64.03 123.79,-69.2 139.39,-73.56"/>
<polygon fill="#63b8ff" stroke="#63b8ff" points="90.04,-56.14 79.47,-56.82 88.16,-62.88 90.04,-56.14"/>
</g>
<!-- Node2 -->
<g id="node3" class="node">
<title>Node2</title>
<g id="a_node3"><a xlink:href="class_l_f_o.html" target="_top" xlink:title=" ">
<polygon fill="white" stroke="#666666" points="205.5,-56 146.5,-56 146.5,-37 205.5,-37 205.5,-56"/>
<text text-anchor="middle" x="176" y="-44" font-family="Helvetica,sans-Serif" font-size="10.00">LFO&lt; T &gt;</text>
</a>
</g>
</g>
<!-- Node0&#45;&gt;Node2 -->
<g id="edge2" class="edge">
<title>Node0&#45;&gt;Node2</title>
<path fill="none" stroke="#63b8ff" d="M94.63,-46.5C112.21,-46.5 131.18,-46.5 146.27,-46.5"/>
<polygon fill="#63b8ff" stroke="#63b8ff" points="94.85,-43 84.85,-46.5 94.85,-50 94.85,-43"/>
</g>
<!-- Node3 -->
<g id="node4" class="node">
<title>Node3</title>
<g id="a_node4"><a xlink:href="class_sin_oscillator.html" target="_top" xlink:title=" ">
<polygon fill="white" stroke="#666666" points="223.5,-19 128.5,-19 128.5,0 223.5,0 223.5,-19"/>
<text text-anchor="middle" x="176" y="-7" font-family="Helvetica,sans-Serif" font-size="10.00">SinOscillator&lt; T &gt;</text>
</a>
</g>
</g>
<!-- Node0&#45;&gt;Node3 -->
<g id="edge3" class="edge">
<title>Node0&#45;&gt;Node3</title>
<path fill="none" stroke="#63b8ff" d="M88.63,-33.62C105.27,-28.97 123.79,-23.8 139.39,-19.44"/>
<polygon fill="#63b8ff" stroke="#63b8ff" points="88.16,-30.12 79.47,-36.18 90.04,-36.86 88.16,-30.12"/>
</g>
</g>
</svg>
