<?xml version="1.0" encoding="UTF-8" standalone="no"?>
<!DOCTYPE svg PUBLIC "-//W3C//DTD SVG 1.1//EN"
 "http://www.w3.org/Graphics/SVG/1.1/DTD/svg11.dtd">
<!-- Generated by graphviz version 7.0.5 (20221223.1930)
 -->
<!-- Title: Graphical Class Hierarchy Pages: 1 -->
<svg width="770pt" height="754pt"
 viewBox="0.00 0.00 770.00 754.16" xmlns="http://www.w3.org/2000/svg" xmlns:xlink="http://www.w3.org/1999/xlink">
<g id="graph0" class="graph" transform="scale(1 1) rotate(0) translate(4 750.16)">
<title>Graphical Class Hierarchy</title>
<!-- Node0 -->
<g id="node1" class="node">
<title>Node0</title>
<g id="a_node1"><a xlink:title=" ">
<polygon fill="#e0e0e0" stroke="#999999" points="424,-672.16 302,-672.16 302,-653.16 424,-653.16 424,-672.16"/>
<text text-anchor="middle" x="363" y="-660.16" font-family="Helvetica,sans-Serif" font-size="10.00">AAX_CIPlugParameters</text>
</a>
</g>
</g>
<!-- Node1 -->
<g id="node2" class="node">
<title>Node1</title>
<g id="a_node2"><a xlink:href="class_i_plug_a_a_x.html" target="_top" xlink:title="AAX API base class for an IPlug plug&#45;in.">
<polygon fill="white" stroke="#666666" points="568.5,-672.16 509.5,-672.16 509.5,-653.16 568.5,-653.16 568.5,-672.16"/>
<text text-anchor="middle" x="539" y="-660.16" font-family="Helvetica,sans-Serif" font-size="10.00">IPlugAAX</text>
</a>
</g>
</g>
<!-- Node0&#45;&gt;Node1 -->
<g id="edge1" class="edge">
<title>Node0&#45;&gt;Node1</title>
<path fill="none" stroke="#63b8ff" d="M435.71,-662.66C461.61,-662.66 489.38,-662.66 509.44,-662.66"/>
<polygon fill="#63b8ff" stroke="#63b8ff" points="435.88,-659.16 425.88,-662.66 435.88,-666.16 435.88,-659.16"/>
</g>
<!-- Node19 -->
<g id="node3" class="node">
<title>Node19</title>
<g id="a_node3"><a xlink:title=" ">
<polygon fill="#e0e0e0" stroke="#999999" points="604.5,-53.16 473.5,-53.16 473.5,-34.16 604.5,-34.16 604.5,-53.16"/>
<text text-anchor="middle" x="539" y="-41.16" font-family="Helvetica,sans-Serif" font-size="10.00">Steinberg::Vst::AudioEffect</text>
</a>
</g>
</g>
<!-- Node18 -->
<g id="node4" class="node">
<title>Node18</title>
<g id="a_node4"><a xlink:href="class_i_plug_v_s_t3_processor.html" target="_top" xlink:title="VST3 Processor API&#45;base class for a distributed IPlug VST3 plug&#45;in.">
<polygon fill="white" stroke="#666666" points="762,-53.16 654,-53.16 654,-34.16 762,-34.16 762,-53.16"/>
<text text-anchor="middle" x="708" y="-41.16" font-family="Helvetica,sans-Serif" font-size="10.00">IPlugVST3Processor</text>
</a>
</g>
</g>
<!-- Node19&#45;&gt;Node18 -->
<g id="edge2" class="edge">
<title>Node19&#45;&gt;Node18</title>
<path fill="none" stroke="#63b8ff" d="M615.73,-43.66C628.55,-43.66 641.61,-43.66 653.69,-43.66"/>
<polygon fill="#63b8ff" stroke="#63b8ff" points="616.08,-40.16 606.08,-43.66 616.08,-47.16 616.08,-40.16"/>
</g>
<!-- Node8 -->
<g id="node5" class="node">
<title>Node8</title>
<g id="a_node5"><a xlink:title=" ">
<polygon fill="#e0e0e0" stroke="#999999" points="409,-746.16 317,-746.16 317,-727.16 409,-727.16 409,-746.16"/>
<text text-anchor="middle" x="363" y="-734.16" font-family="Helvetica,sans-Serif" font-size="10.00">ClapPluginHelper</text>
</a>
</g>
</g>
<!-- Node7 -->
<g id="node6" class="node">
<title>Node7</title>
<g id="a_node6"><a xlink:href="class_i_plug_c_l_a_p.html" target="_top" xlink:title="CLAP API base class for an IPlug plug&#45;in.">
<polygon fill="white" stroke="#666666" points="571.5,-746.16 506.5,-746.16 506.5,-727.16 571.5,-727.16 571.5,-746.16"/>
<text text-anchor="middle" x="539" y="-734.16" font-family="Helvetica,sans-Serif" font-size="10.00">IPlugCLAP</text>
</a>
</g>
</g>
<!-- Node8&#45;&gt;Node7 -->
<g id="edge3" class="edge">
<title>Node8&#45;&gt;Node7</title>
<path fill="none" stroke="#63b8ff" d="M420.66,-736.66C449.02,-736.66 482.28,-736.66 506.14,-736.66"/>
<polygon fill="#63b8ff" stroke="#63b8ff" points="420.78,-733.16 410.78,-736.66 420.78,-740.16 420.78,-733.16"/>
</g>
<!-- Node14 -->
<g id="node7" class="node">
<title>Node14</title>
<g id="a_node7"><a xlink:title=" ">
<polygon fill="#e0e0e0" stroke="#999999" points="616.5,-709.16 461.5,-709.16 461.5,-690.16 616.5,-690.16 616.5,-709.16"/>
<text text-anchor="middle" x="539" y="-697.16" font-family="Helvetica,sans-Serif" font-size="10.00">Steinberg::Vst::EditControllerEx1</text>
</a>
</g>
</g>
<!-- Node13 -->
<g id="node8" class="node">
<title>Node13</title>
<g id="a_node8"><a xlink:href="class_i_plug_v_s_t3_controller.html" target="_top" xlink:title="VST3 Controller API&#45;base class for a distributed IPlug VST3 plug&#45;in.">
<polygon fill="white" stroke="#666666" points="760.5,-561.16 655.5,-561.16 655.5,-542.16 760.5,-542.16 760.5,-561.16"/>
<text text-anchor="middle" x="708" y="-549.16" font-family="Helvetica,sans-Serif" font-size="10.00">IPlugVST3Controller</text>
</a>
</g>
</g>
<!-- Node14&#45;&gt;Node13 -->
<g id="edge4" class="edge">
<title>Node14&#45;&gt;Node13</title>
<path fill="none" stroke="#63b8ff" d="M612.98,-684.78C614.71,-683.8 616.38,-682.77 618,-681.66 664.32,-650.07 693.53,-585.71 703.33,-561.32"/>
<polygon fill="#63b8ff" stroke="#63b8ff" points="611.56,-681.58 604.04,-689.04 614.58,-687.89 611.56,-681.58"/>
</g>
<!-- Node26 -->
<g id="node9" class="node">
<title>Node26</title>
<g id="a_node9"><a xlink:title=" ">
<polygon fill="#e0e0e0" stroke="#999999" points="147,-308.16 0,-308.16 0,-289.16 147,-289.16 147,-308.16"/>
<text text-anchor="middle" x="73.5" y="-296.16" font-family="Helvetica,sans-Serif" font-size="10.00">EDITOR_DELEGATE_CLASS</text>
</a>
</g>
</g>
<!-- Node25 -->
<g id="node10" class="node">
<title>Node25</title>
<g id="a_node10"><a xlink:href="class_i_plugin_base.html" target="_top" xlink:title="Base class that contains plug&#45;in info and state manipulation methods.">
<polygon fill="white" stroke="#666666" points="259,-327.16 190,-327.16 190,-308.16 259,-308.16 259,-327.16"/>
<text text-anchor="middle" x="224.5" y="-315.16" font-family="Helvetica,sans-Serif" font-size="10.00">IPluginBase</text>
</a>
</g>
</g>
<!-- Node26&#45;&gt;Node25 -->
<g id="edge5" class="edge">
<title>Node26&#45;&gt;Node25</title>
<path fill="none" stroke="#63b8ff" d="M158.66,-309.39C169.55,-310.78 180.15,-312.14 189.53,-313.33"/>
<polygon fill="#63b8ff" stroke="#63b8ff" points="159.12,-305.92 148.76,-308.13 158.23,-312.87 159.12,-305.92"/>
</g>
<!-- Node27 -->
<g id="node21" class="node">
<title>Node27</title>
<g id="a_node21"><a xlink:href="class_reaper_ext_base.html" target="_top" xlink:title="Reaper extension base class interface.">
<polygon fill="white" stroke="#666666" points="266,-290.16 183,-290.16 183,-271.16 266,-271.16 266,-290.16"/>
<text text-anchor="middle" x="224.5" y="-278.16" font-family="Helvetica,sans-Serif" font-size="10.00">ReaperExtBase</text>
</a>
</g>
</g>
<!-- Node26&#45;&gt;Node27 -->
<g id="edge20" class="edge">
<title>Node26&#45;&gt;Node27</title>
<path fill="none" stroke="#63b8ff" d="M158.59,-288.5C166.86,-287.51 174.97,-286.53 182.5,-285.62"/>
<polygon fill="#63b8ff" stroke="#63b8ff" points="158.26,-285.02 148.76,-289.69 159.1,-291.97 158.26,-285.02"/>
</g>
<!-- Node2 -->
<g id="node11" class="node">
<title>Node2</title>
<g id="a_node11"><a xlink:href="class_i_plug_a_p_i_base.html" target="_top" xlink:title="The base class of an IPlug plug&#45;in, which interacts with the different plug&#45;in APIs.">
<polygon fill="white" stroke="#666666" points="402,-327.16 324,-327.16 324,-308.16 402,-308.16 402,-327.16"/>
<text text-anchor="middle" x="363" y="-315.16" font-family="Helvetica,sans-Serif" font-size="10.00">IPlugAPIBase</text>
</a>
</g>
</g>
<!-- Node25&#45;&gt;Node2 -->
<g id="edge6" class="edge">
<title>Node25&#45;&gt;Node2</title>
<path fill="none" stroke="#63b8ff" d="M270.73,-317.66C287.94,-317.66 307.35,-317.66 323.83,-317.66"/>
<polygon fill="#63b8ff" stroke="#63b8ff" points="270.76,-314.16 260.76,-317.66 270.76,-321.16 270.76,-314.16"/>
</g>
<!-- Node2&#45;&gt;Node1 -->
<g id="edge7" class="edge">
<title>Node2&#45;&gt;Node1</title>
<path fill="none" stroke="#63b8ff" d="M379.42,-336.29C393.38,-354.2 413.36,-382.62 424,-410.66 461.34,-509.04 388.4,-567.55 460,-644.66 472.39,-658 492.52,-662.41 509.23,-663.52"/>
<polygon fill="#63b8ff" stroke="#63b8ff" points="382.3,-334.29 373.32,-328.67 376.84,-338.66 382.3,-334.29"/>
</g>
<!-- Node2&#45;&gt;Node18 -->
<g id="edge15" class="edge">
<title>Node2&#45;&gt;Node18</title>
<path fill="none" stroke="#63b8ff" d="M363.34,-296.62C362.89,-240.95 370.33,-89.65 460,-24.66 529.3,25.56 640.11,-13.78 686.02,-33.79"/>
<polygon fill="#63b8ff" stroke="#63b8ff" points="359.84,-296.36 363.53,-306.29 366.84,-296.23 359.84,-296.36"/>
</g>
<!-- Node2&#45;&gt;Node7 -->
<g id="edge11" class="edge">
<title>Node2&#45;&gt;Node7</title>
<path fill="none" stroke="#63b8ff" d="M379.65,-336.2C393.78,-354.05 413.87,-382.43 424,-410.66 447.28,-475.52 414.04,-667.32 460,-718.66 471.49,-731.5 490.15,-736.13 506.34,-737.48"/>
<polygon fill="#63b8ff" stroke="#63b8ff" points="382.5,-334.15 373.47,-328.61 377.07,-338.57 382.5,-334.15"/>
</g>
<!-- Node2&#45;&gt;Node13 -->
<g id="edge14" class="edge">
<title>Node2&#45;&gt;Node13</title>
<path fill="none" stroke="#63b8ff" d="M386.84,-301.31C435.48,-268.64 550.35,-203.26 618,-261.66 700.98,-333.29 601.33,-409.53 654,-505.66 662.43,-521.05 678.15,-533.68 690.28,-541.79"/>
<polygon fill="#63b8ff" stroke="#63b8ff" points="385.01,-298.32 378.76,-306.87 388.98,-304.08 385.01,-298.32"/>
</g>
<!-- Node3 -->
<g id="node12" class="node">
<title>Node3</title>
<g id="a_node12"><a xlink:href="class_i_plug_a_p_p.html" target="_top" xlink:title="Standalone application base class for an IPlug plug&#45;in.">
<polygon fill="white" stroke="#666666" points="568.5,-327.16 509.5,-327.16 509.5,-308.16 568.5,-308.16 568.5,-327.16"/>
<text text-anchor="middle" x="539" y="-315.16" font-family="Helvetica,sans-Serif" font-size="10.00">IPlugAPP</text>
</a>
</g>
</g>
<!-- Node2&#45;&gt;Node3 -->
<g id="edge8" class="edge">
<title>Node2&#45;&gt;Node3</title>
<path fill="none" stroke="#63b8ff" d="M413.6,-317.66C444.48,-317.66 483.13,-317.66 509.08,-317.66"/>
<polygon fill="#63b8ff" stroke="#63b8ff" points="413.7,-314.16 403.7,-317.66 413.7,-321.16 413.7,-314.16"/>
</g>
<!-- Node5 -->
<g id="node13" class="node">
<title>Node5</title>
<g id="a_node13"><a xlink:href="class_i_plug_a_u.html" target="_top" xlink:title="AudioUnit v2 API base class for an IPlug plug&#45;in.">
<polygon fill="white" stroke="#666666" points="565.5,-290.16 512.5,-290.16 512.5,-271.16 565.5,-271.16 565.5,-290.16"/>
<text text-anchor="middle" x="539" y="-278.16" font-family="Helvetica,sans-Serif" font-size="10.00">IPlugAU</text>
</a>
</g>
</g>
<!-- Node2&#45;&gt;Node5 -->
<g id="edge9" class="edge">
<title>Node2&#45;&gt;Node5</title>
<path fill="none" stroke="#63b8ff" d="M413.16,-307.21C445.3,-300.38 486,-291.72 512.02,-286.19"/>
<polygon fill="#63b8ff" stroke="#63b8ff" points="412.72,-303.72 403.67,-309.23 414.17,-310.57 412.72,-303.72"/>
</g>
<!-- Node6 -->
<g id="node14" class="node">
<title>Node6</title>
<g id="a_node14"><a xlink:href="class_i_plug_a_uv3.html" target="_top" xlink:title="AudioUnit v3 API base class for an IPlug plug&#45;in.">
<polygon fill="white" stroke="#666666" points="571,-438.16 507,-438.16 507,-419.16 571,-419.16 571,-438.16"/>
<text text-anchor="middle" x="539" y="-426.16" font-family="Helvetica,sans-Serif" font-size="10.00">IPlugAUv3</text>
</a>
</g>
</g>
<!-- Node2&#45;&gt;Node6 -->
<g id="edge10" class="edge">
<title>Node2&#45;&gt;Node6</title>
<path fill="none" stroke="#63b8ff" d="M378.25,-336.67C395.3,-358.02 425.86,-392.09 460,-410.66 474.28,-418.43 491.8,-422.86 506.62,-425.38"/>
<polygon fill="#63b8ff" stroke="#63b8ff" points="381.03,-334.55 372.13,-328.8 375.5,-338.84 381.03,-334.55"/>
</g>
<!-- Node9 -->
<g id="node15" class="node">
<title>Node9</title>
<g id="a_node15"><a xlink:href="class_i_plug_v_s_t2.html" target="_top" xlink:title="VST2.4 API base class for an IPlug plug&#45;in.">
<polygon fill="white" stroke="#666666" points="571,-401.16 507,-401.16 507,-382.16 571,-382.16 571,-401.16"/>
<text text-anchor="middle" x="539" y="-389.16" font-family="Helvetica,sans-Serif" font-size="10.00">IPlugVST2</text>
</a>
</g>
</g>
<!-- Node2&#45;&gt;Node9 -->
<g id="edge12" class="edge">
<title>Node2&#45;&gt;Node9</title>
<path fill="none" stroke="#63b8ff" d="M387.45,-334.05C406.28,-346.53 433.82,-363.28 460,-373.66 474.86,-379.55 492.11,-383.78 506.6,-386.66"/>
<polygon fill="#63b8ff" stroke="#63b8ff" points="389.44,-331.18 379.2,-328.47 385.52,-336.98 389.44,-331.18"/>
</g>
<!-- Node11 -->
<g id="node16" class="node">
<title>Node11</title>
<g id="a_node16"><a xlink:href="class_i_plug_v_s_t3.html" target="_top" xlink:title="VST3 base class for a non&#45;distributed IPlug VST3 plug&#45;in.">
<polygon fill="white" stroke="#666666" points="740,-496.16 676,-496.16 676,-477.16 740,-477.16 740,-496.16"/>
<text text-anchor="middle" x="708" y="-484.16" font-family="Helvetica,sans-Serif" font-size="10.00">IPlugVST3</text>
</a>
</g>
</g>
<!-- Node2&#45;&gt;Node11 -->
<g id="edge13" class="edge">
<title>Node2&#45;&gt;Node11</title>
<path fill="none" stroke="#63b8ff" d="M377.53,-298.42C394.1,-276.71 424.38,-242.63 460,-228.66 525.37,-203.02 560.82,-187.9 618,-228.66 703.27,-289.45 707.64,-437.56 707.25,-476.92"/>
<polygon fill="#63b8ff" stroke="#63b8ff" points="374.73,-296.32 371.62,-306.45 380.37,-300.47 374.73,-296.32"/>
</g>
<!-- Node20 -->
<g id="node17" class="node">
<title>Node20</title>
<g id="a_node17"><a xlink:href="class_i_plug_w_a_m.html" target="_top" xlink:title="WebAudioModule (WAM) API base class.">
<polygon fill="white" stroke="#666666" points="570.5,-635.16 507.5,-635.16 507.5,-616.16 570.5,-616.16 570.5,-635.16"/>
<text text-anchor="middle" x="539" y="-623.16" font-family="Helvetica,sans-Serif" font-size="10.00">IPlugWAM</text>
</a>
</g>
</g>
<!-- Node2&#45;&gt;Node20 -->
<g id="edge16" class="edge">
<title>Node2&#45;&gt;Node20</title>
<path fill="none" stroke="#63b8ff" d="M379.24,-336.36C393.08,-354.32 412.96,-382.78 424,-410.66 456.75,-493.42 398.53,-543.29 460,-607.66 472,-620.23 490.88,-624.81 507.05,-626.22"/>
<polygon fill="#63b8ff" stroke="#63b8ff" points="382.15,-334.4 373.2,-328.72 376.66,-338.73 382.15,-334.4"/>
</g>
<!-- Node22 -->
<g id="node18" class="node">
<title>Node22</title>
<g id="a_node18"><a xlink:href="class_i_plug_wasm_d_s_p.html" target="_top" xlink:title="Hybrid DSP class &#45; AudioWorklet processor for split DSP/UI builds.">
<polygon fill="white" stroke="#666666" points="582.5,-364.16 495.5,-364.16 495.5,-345.16 582.5,-345.16 582.5,-364.16"/>
<text text-anchor="middle" x="539" y="-352.16" font-family="Helvetica,sans-Serif" font-size="10.00">IPlugWasmDSP</text>
</a>
</g>
</g>
<!-- Node2&#45;&gt;Node22 -->
<g id="edge17" class="edge">
<title>Node2&#45;&gt;Node22</title>
<path fill="none" stroke="#63b8ff" d="M413.22,-328.13C438.99,-333.61 470.23,-340.25 495.01,-345.52"/>
<polygon fill="#63b8ff" stroke="#63b8ff" points="414.17,-324.75 403.67,-326.1 412.72,-331.6 414.17,-324.75"/>
</g>
<!-- Node23 -->
<g id="node19" class="node">
<title>Node23</title>
<g id="a_node19"><a xlink:href="class_i_plug_wasm_u_i.html" target="_top" xlink:title="Hybrid UI class &#45; IGraphics side for split DSP/UI builds.">
<polygon fill="white" stroke="#666666" points="577.5,-176.16 500.5,-176.16 500.5,-157.16 577.5,-157.16 577.5,-176.16"/>
<text text-anchor="middle" x="539" y="-164.16" font-family="Helvetica,sans-Serif" font-size="10.00">IPlugWasmUI</text>
</a>
</g>
</g>
<!-- Node2&#45;&gt;Node23 -->
<g id="edge18" class="edge">
<title>Node2&#45;&gt;Node23</title>
<path fill="none" stroke="#63b8ff" d="M373.98,-297.54C388.89,-269.5 419.61,-218.95 460,-190.66 471.84,-182.37 486.62,-176.88 500.13,-173.27"/>
<polygon fill="#63b8ff" stroke="#63b8ff" points="370.89,-295.89 369.42,-306.38 377.11,-299.09 370.89,-295.89"/>
</g>
<!-- Node24 -->
<g id="node20" class="node">
<title>Node24</title>
<g id="a_node20"><a xlink:href="class_i_plug_web.html" target="_top" xlink:title="This is used for the UI &quot;editor&quot; &#45; controller side of a WAM or remote editors that communicate with d...">
<polygon fill="white" stroke="#666666" points="568.5,-90.16 509.5,-90.16 509.5,-71.16 568.5,-71.16 568.5,-90.16"/>
<text text-anchor="middle" x="539" y="-78.16" font-family="Helvetica,sans-Serif" font-size="10.00">IPlugWeb</text>
</a>
</g>
</g>
<!-- Node2&#45;&gt;Node24 -->
<g id="edge19" class="edge">
<title>Node2&#45;&gt;Node24</title>
<path fill="none" stroke="#63b8ff" d="M366.94,-296.93C374.25,-253.39 397.4,-152.12 460,-99.66 473.67,-88.2 493.17,-83.45 509.26,-81.57"/>
<polygon fill="#63b8ff" stroke="#63b8ff" points="363.52,-296.12 365.45,-306.54 370.44,-297.2 363.52,-296.12"/>
</g>
<!-- Node12 -->
<g id="node22" class="node">
<title>Node12</title>
<g id="a_node22"><a xlink:title=" ">
<polygon fill="#e0e0e0" stroke="#999999" points="614,-523.66 464,-523.66 464,-493.66 614,-493.66 614,-523.66"/>
<text text-anchor="start" x="472" y="-511.66" font-family="Helvetica,sans-Serif" font-size="10.00">Steinberg::Vst::ChannelContext</text>
<text text-anchor="middle" x="539" y="-500.66" font-family="Helvetica,sans-Serif" font-size="10.00">::IInfoListener</text>
</a>
</g>
</g>
<!-- Node12&#45;&gt;Node13 -->
<g id="edge22" class="edge">
<title>Node12&#45;&gt;Node13</title>
<path fill="none" stroke="#63b8ff" d="M610.91,-526.92C630.54,-531.97 651.11,-537.27 668.16,-541.66"/>
<polygon fill="#63b8ff" stroke="#63b8ff" points="611.84,-523.55 601.28,-524.44 610.1,-530.33 611.84,-523.55"/>
</g>
<!-- Node12&#45;&gt;Node11 -->
<g id="edge21" class="edge">
<title>Node12&#45;&gt;Node11</title>
<path fill="none" stroke="#63b8ff" d="M625.41,-497.41C643.39,-495.04 661.26,-492.69 675.67,-490.79"/>
<polygon fill="#63b8ff" stroke="#63b8ff" points="625.18,-493.91 615.72,-498.69 626.09,-500.85 625.18,-493.91"/>
</g>
<!-- Node15 -->
<g id="node23" class="node">
<title>Node15</title>
<g id="a_node23"><a xlink:title=" ">
<polygon fill="#e0e0e0" stroke="#999999" points="609,-598.16 469,-598.16 469,-579.16 609,-579.16 609,-598.16"/>
<text text-anchor="middle" x="539" y="-586.16" font-family="Helvetica,sans-Serif" font-size="10.00">Steinberg::Vst::IMidiMapping</text>
</a>
</g>
</g>
<!-- Node15&#45;&gt;Node13 -->
<g id="edge24" class="edge">
<title>Node15&#45;&gt;Node13</title>
<path fill="none" stroke="#63b8ff" d="M595.75,-576.31C617.33,-571.53 641.7,-566.13 662.12,-561.61"/>
<polygon fill="#63b8ff" stroke="#63b8ff" points="595.24,-572.84 586.23,-578.42 596.75,-579.67 595.24,-572.84"/>
</g>
<!-- Node15&#45;&gt;Node11 -->
<g id="edge23" class="edge">
<title>Node15&#45;&gt;Node11</title>
<path fill="none" stroke="#63b8ff" d="M610.25,-574.55C612.92,-573.36 615.51,-572.07 618,-570.66 637.99,-559.4 637.41,-549.51 654,-533.66 667.88,-520.41 684.52,-505.86 695.41,-496.51"/>
<polygon fill="#63b8ff" stroke="#63b8ff" points="609.15,-571.22 601.11,-578.12 611.7,-577.75 609.15,-571.22"/>
</g>
<!-- Node4 -->
<g id="node24" class="node">
<title>Node4</title>
<g id="a_node24"><a xlink:href="class_i_plug_processor.html" target="_top" xlink:title="The base class for IPlug Audio Processing.">
<polygon fill="white" stroke="#666666" points="404.5,-438.16 321.5,-438.16 321.5,-419.16 404.5,-419.16 404.5,-438.16"/>
<text text-anchor="middle" x="363" y="-426.16" font-family="Helvetica,sans-Serif" font-size="10.00">IPlugProcessor</text>
</a>
</g>
</g>
<!-- Node4&#45;&gt;Node1 -->
<g id="edge25" class="edge">
<title>Node4&#45;&gt;Node1</title>
<path fill="none" stroke="#63b8ff" d="M367,-449.54C374.39,-492.96 397.61,-593.2 460,-644.66 473.72,-655.98 493.22,-660.48 509.29,-662.15"/>
<polygon fill="#63b8ff" stroke="#63b8ff" points="370.47,-449.06 365.46,-439.72 363.55,-450.15 370.47,-449.06"/>
</g>
<!-- Node4&#45;&gt;Node7 -->
<g id="edge29" class="edge">
<title>Node4&#45;&gt;Node7</title>
<path fill="none" stroke="#63b8ff" d="M370.86,-448.91C382.07,-482.06 404.99,-550 424,-607.66 440.24,-656.92 421.77,-683.62 460,-718.66 472.4,-730.03 490.5,-734.67 506.15,-736.41"/>
<polygon fill="#63b8ff" stroke="#63b8ff" points="374.29,-448.14 367.77,-439.79 367.66,-450.38 374.29,-448.14"/>
</g>
<!-- Node4&#45;&gt;Node3 -->
<g id="edge26" class="edge">
<title>Node4&#45;&gt;Node3</title>
<path fill="none" stroke="#63b8ff" d="M378.34,-409.94C395.47,-388.89 426.1,-355.25 460,-336.66 475.15,-328.35 493.93,-323.64 509.26,-320.98"/>
<polygon fill="#63b8ff" stroke="#63b8ff" points="375.66,-407.68 372.2,-417.69 381.15,-412.03 375.66,-407.68"/>
</g>
<!-- Node4&#45;&gt;Node5 -->
<g id="edge27" class="edge">
<title>Node4&#45;&gt;Node5</title>
<path fill="none" stroke="#63b8ff" d="M375.86,-409.39C396.25,-376.86 437.88,-313.18 460,-298.66 475.57,-288.45 496.21,-283.99 512.35,-282.07"/>
<polygon fill="#63b8ff" stroke="#63b8ff" points="373.15,-407.13 370.84,-417.47 379.09,-410.82 373.15,-407.13"/>
</g>
<!-- Node4&#45;&gt;Node6 -->
<g id="edge28" class="edge">
<title>Node4&#45;&gt;Node6</title>
<path fill="none" stroke="#63b8ff" d="M416.16,-428.66C445.65,-428.66 481.54,-428.66 506.7,-428.66"/>
<polygon fill="#63b8ff" stroke="#63b8ff" points="416.31,-425.16 406.31,-428.66 416.31,-432.16 416.31,-425.16"/>
</g>
<!-- Node4&#45;&gt;Node9 -->
<g id="edge30" class="edge">
<title>Node4&#45;&gt;Node9</title>
<path fill="none" stroke="#63b8ff" d="M415.77,-417.65C445.33,-411.37 481.43,-403.69 506.7,-398.32"/>
<polygon fill="#63b8ff" stroke="#63b8ff" points="415.33,-414.17 406.28,-419.67 416.79,-421.02 415.33,-414.17"/>
</g>
<!-- Node4&#45;&gt;Node20 -->
<g id="edge34" class="edge">
<title>Node4&#45;&gt;Node20</title>
<path fill="none" stroke="#63b8ff" d="M369.02,-449.29C379.28,-486.94 406.39,-566.68 460,-607.66 473.47,-617.96 491.82,-622.53 507.33,-624.49"/>
<polygon fill="#63b8ff" stroke="#63b8ff" points="372.43,-448.53 366.54,-439.72 365.66,-450.28 372.43,-448.53"/>
</g>
<!-- Node4&#45;&gt;Node22 -->
<g id="edge35" class="edge">
<title>Node4&#45;&gt;Node22</title>
<path fill="none" stroke="#63b8ff" d="M387.85,-412.46C406.72,-400.29 434.11,-383.99 460,-373.66 471.13,-369.22 483.59,-365.62 495.22,-362.79"/>
<polygon fill="#63b8ff" stroke="#63b8ff" points="386.01,-409.49 379.58,-417.91 389.86,-415.33 386.01,-409.49"/>
</g>
<!-- Node10 -->
<g id="node25" class="node">
<title>Node10</title>
<g id="a_node25"><a xlink:href="class_i_plug_v_s_t3_processor_base.html" target="_top" xlink:title="Shared VST3 processor code.">
<polygon fill="white" stroke="#666666" points="604.5,-475.16 473.5,-475.16 473.5,-456.16 604.5,-456.16 604.5,-475.16"/>
<text text-anchor="middle" x="539" y="-463.16" font-family="Helvetica,sans-Serif" font-size="10.00">IPlugVST3ProcessorBase</text>
</a>
</g>
</g>
<!-- Node4&#45;&gt;Node10 -->
<g id="edge31" class="edge">
<title>Node4&#45;&gt;Node10</title>
<path fill="none" stroke="#63b8ff" d="M415.78,-439.67C439.64,-444.75 467.75,-450.73 491,-455.67"/>
<polygon fill="#63b8ff" stroke="#63b8ff" points="416.79,-436.31 406.28,-437.65 415.33,-443.16 416.79,-436.31"/>
</g>
<!-- Node10&#45;&gt;Node18 -->
<g id="edge33" class="edge">
<title>Node10&#45;&gt;Node18</title>
<path fill="none" stroke="#63b8ff" d="M614.24,-451.06C615.55,-450 616.81,-448.87 618,-447.66 676.11,-388.97 701.64,-109.64 706.23,-53.5"/>
<polygon fill="#63b8ff" stroke="#63b8ff" points="612.67,-447.9 606.17,-456.27 616.47,-453.78 612.67,-447.9"/>
</g>
<!-- Node10&#45;&gt;Node11 -->
<g id="edge32" class="edge">
<title>Node10&#45;&gt;Node11</title>
<path fill="none" stroke="#63b8ff" d="M615.85,-475.2C636.96,-477.86 658.72,-480.59 675.69,-482.73"/>
<polygon fill="#63b8ff" stroke="#63b8ff" points="616.43,-471.75 606.07,-473.97 615.55,-478.69 616.43,-471.75"/>
</g>
<!-- Node16 -->
<g id="node26" class="node">
<title>Node16</title>
<g id="a_node26"><a xlink:href="class_i_plug_v_s_t3_controller_base.html" target="_top" xlink:title="Shared VST3 controller code.">
<polygon fill="white" stroke="#666666" points="603,-561.16 475,-561.16 475,-542.16 603,-542.16 603,-561.16"/>
<text text-anchor="middle" x="539" y="-549.16" font-family="Helvetica,sans-Serif" font-size="10.00">IPlugVST3ControllerBase</text>
</a>
</g>
</g>
<!-- Node16&#45;&gt;Node13 -->
<g id="edge37" class="edge">
<title>Node16&#45;&gt;Node13</title>
<path fill="none" stroke="#63b8ff" d="M614.55,-551.66C628.28,-551.66 642.32,-551.66 655.19,-551.66"/>
<polygon fill="#63b8ff" stroke="#63b8ff" points="614.65,-548.16 604.65,-551.66 614.65,-555.16 614.65,-548.16"/>
</g>
<!-- Node16&#45;&gt;Node11 -->
<g id="edge36" class="edge">
<title>Node16&#45;&gt;Node11</title>
<path fill="none" stroke="#63b8ff" d="M599.91,-538.62C606.08,-536.82 612.21,-534.83 618,-532.66 644.55,-522.73 673.37,-506.8 690.81,-496.53"/>
<polygon fill="#63b8ff" stroke="#63b8ff" points="598.98,-535.24 590.27,-541.27 600.84,-541.99 598.98,-535.24"/>
</g>
<!-- Node21 -->
<g id="node27" class="node">
<title>Node21</title>
<g id="a_node27"><a xlink:title=" ">
<polygon fill="#e0e0e0" stroke="#999999" points="393.5,-635.16 332.5,-635.16 332.5,-616.16 393.5,-616.16 393.5,-635.16"/>
<text text-anchor="middle" x="363" y="-623.16" font-family="Helvetica,sans-Serif" font-size="10.00">Processor</text>
</a>
</g>
</g>
<!-- Node21&#45;&gt;Node20 -->
<g id="edge38" class="edge">
<title>Node21&#45;&gt;Node20</title>
<path fill="none" stroke="#63b8ff" d="M405.28,-625.66C436.49,-625.66 478.66,-625.66 507.02,-625.66"/>
<polygon fill="#63b8ff" stroke="#63b8ff" points="405.43,-622.16 395.43,-625.66 405.43,-629.16 405.43,-622.16"/>
</g>
<!-- Node17 -->
<g id="node28" class="node">
<title>Node17</title>
<g id="a_node28"><a xlink:title=" ">
<polygon fill="#e0e0e0" stroke="#999999" points="618,-138.66 460,-138.66 460,-108.66 618,-108.66 618,-138.66"/>
<text text-anchor="start" x="468" y="-126.66" font-family="Helvetica,sans-Serif" font-size="10.00">Steinberg::Vst::SingleComponent</text>
<text text-anchor="middle" x="539" y="-115.66" font-family="Helvetica,sans-Serif" font-size="10.00">Effect</text>
</a>
</g>
</g>
<!-- Node17&#45;&gt;Node11 -->
<g id="edge39" class="edge">
<title>Node17&#45;&gt;Node11</title>
<path fill="none" stroke="#63b8ff" d="M616.5,-146.16C617.01,-146.65 617.51,-147.15 618,-147.66 665.91,-197.62 698.95,-426.51 705.72,-476.85"/>
<polygon fill="#63b8ff" stroke="#63b8ff" points="618.68,-143.42 608.63,-140.05 614.38,-148.95 618.68,-143.42"/>
</g>
</g>
</svg>
