<?xml version="1.0" encoding="UTF-8" standalone="no"?>
<!DOCTYPE svg PUBLIC "-//W3C//DTD SVG 1.1//EN"
 "http://www.w3.org/Graphics/SVG/1.1/DTD/svg11.dtd">
<!-- Generated by graphviz version 7.0.5 (20221223.1930)
 -->
<!-- Title: Graphical Class Hierarchy Pages: 1 -->
<svg width="770pt" height="685pt"
 viewBox="0.00 0.00 770.00 685.00" xmlns="http://www.w3.org/2000/svg" xmlns:xlink="http://www.w3.org/1999/xlink">
<g id="graph0" class="graph" transform="scale(1 1) rotate(0) translate(4 681)">
<title>Graphical Class Hierarchy</title>
<!-- Node0 -->
<g id="node1" class="node">
<title>Node0</title>
<g id="a_node1"><a xlink:title=" ">
<polygon fill="#e0e0e0" stroke="#999999" points="424,-677 302,-677 302,-658 424,-658 424,-677"/>
<text text-anchor="middle" x="363" y="-665" font-family="Helvetica,sans-Serif" font-size="10.00">AAX_CIPlugParameters</text>
</a>
</g>
</g>
<!-- Node1 -->
<g id="node2" class="node">
<title>Node1</title>
<g id="a_node2"><a xlink:href="class_i_plug_a_a_x.html" target="_top" xlink:title="AAX API base class for an IPlug plug&#45;in.">
<polygon fill="white" stroke="#666666" points="568.5,-677 509.5,-677 509.5,-658 568.5,-658 568.5,-677"/>
<text text-anchor="middle" x="539" y="-665" font-family="Helvetica,sans-Serif" font-size="10.00">IPlugAAX</text>
</a>
</g>
</g>
<!-- Node0&#45;&gt;Node1 -->
<g id="edge1" class="edge">
<title>Node0&#45;&gt;Node1</title>
<path fill="none" stroke="#63b8ff" d="M435.71,-667.5C461.61,-667.5 489.38,-667.5 509.44,-667.5"/>
<polygon fill="#63b8ff" stroke="#63b8ff" points="435.88,-664 425.88,-667.5 435.88,-671 435.88,-664"/>
</g>
<!-- Node19 -->
<g id="node3" class="node">
<title>Node19</title>
<g id="a_node3"><a xlink:title=" ">
<polygon fill="#e0e0e0" stroke="#999999" points="604.5,-19 473.5,-19 473.5,0 604.5,0 604.5,-19"/>
<text text-anchor="middle" x="539" y="-7" font-family="Helvetica,sans-Serif" font-size="10.00">Steinberg::Vst::AudioEffect</text>
</a>
</g>
</g>
<!-- Node18 -->
<g id="node4" class="node">
<title>Node18</title>
<g id="a_node4"><a xlink:href="class_i_plug_v_s_t3_processor.html" target="_top" xlink:title="VST3 Processor API&#45;base class for a distributed IPlug VST3 plug&#45;in.">
<polygon fill="white" stroke="#666666" points="762,-56 654,-56 654,-37 762,-37 762,-56"/>
<text text-anchor="middle" x="708" y="-44" font-family="Helvetica,sans-Serif" font-size="10.00">IPlugVST3Processor</text>
</a>
</g>
</g>
<!-- Node19&#45;&gt;Node18 -->
<g id="edge2" class="edge">
<title>Node19&#45;&gt;Node18</title>
<path fill="none" stroke="#63b8ff" d="M595.75,-21.85C617.33,-26.63 641.7,-32.03 662.12,-36.56"/>
<polygon fill="#63b8ff" stroke="#63b8ff" points="596.75,-18.49 586.23,-19.74 595.24,-25.32 596.75,-18.49"/>
</g>
<!-- Node8 -->
<g id="node5" class="node">
<title>Node8</title>
<g id="a_node5"><a xlink:title=" ">
<polygon fill="#e0e0e0" stroke="#999999" points="409,-441 317,-441 317,-422 409,-422 409,-441"/>
<text text-anchor="middle" x="363" y="-429" font-family="Helvetica,sans-Serif" font-size="10.00">ClapPluginHelper</text>
</a>
</g>
</g>
<!-- Node7 -->
<g id="node6" class="node">
<title>Node7</title>
<g id="a_node6"><a xlink:href="class_i_plug_c_l_a_p.html" target="_top" xlink:title="CLAP API base class for an IPlug plug&#45;in.">
<polygon fill="white" stroke="#666666" points="571.5,-441 506.5,-441 506.5,-422 571.5,-422 571.5,-441"/>
<text text-anchor="middle" x="539" y="-429" font-family="Helvetica,sans-Serif" font-size="10.00">IPlugCLAP</text>
</a>
</g>
</g>
<!-- Node8&#45;&gt;Node7 -->
<g id="edge3" class="edge">
<title>Node8&#45;&gt;Node7</title>
<path fill="none" stroke="#63b8ff" d="M420.66,-431.5C449.02,-431.5 482.28,-431.5 506.14,-431.5"/>
<polygon fill="#63b8ff" stroke="#63b8ff" points="420.78,-428 410.78,-431.5 420.78,-435 420.78,-428"/>
</g>
<!-- Node14 -->
<g id="node7" class="node">
<title>Node14</title>
<g id="a_node7"><a xlink:title=" ">
<polygon fill="#e0e0e0" stroke="#999999" points="616.5,-640 461.5,-640 461.5,-621 616.5,-621 616.5,-640"/>
<text text-anchor="middle" x="539" y="-628" font-family="Helvetica,sans-Serif" font-size="10.00">Steinberg::Vst::EditControllerEx1</text>
</a>
</g>
</g>
<!-- Node13 -->
<g id="node8" class="node">
<title>Node13</title>
<g id="a_node8"><a xlink:href="class_i_plug_v_s_t3_controller.html" target="_top" xlink:title="VST3 Controller API&#45;base class for a distributed IPlug VST3 plug&#45;in.">
<polygon fill="white" stroke="#666666" points="760.5,-564 655.5,-564 655.5,-545 760.5,-545 760.5,-564"/>
<text text-anchor="middle" x="708" y="-552" font-family="Helvetica,sans-Serif" font-size="10.00">IPlugVST3Controller</text>
</a>
</g>
</g>
<!-- Node14&#45;&gt;Node13 -->
<g id="edge4" class="edge">
<title>Node14&#45;&gt;Node13</title>
<path fill="none" stroke="#63b8ff" d="M589.42,-617.18C599.04,-614.06 608.95,-610.47 618,-606.5 645.53,-594.42 675.26,-575.8 692.44,-564.43"/>
<polygon fill="#63b8ff" stroke="#63b8ff" points="588.68,-613.74 580.17,-620.05 590.76,-620.43 588.68,-613.74"/>
</g>
<!-- Node24 -->
<g id="node9" class="node">
<title>Node24</title>
<g id="a_node9"><a xlink:title=" ">
<polygon fill="#e0e0e0" stroke="#999999" points="147,-260 0,-260 0,-241 147,-241 147,-260"/>
<text text-anchor="middle" x="73.5" y="-248" font-family="Helvetica,sans-Serif" font-size="10.00">EDITOR_DELEGATE_CLASS</text>
</a>
</g>
</g>
<!-- Node23 -->
<g id="node10" class="node">
<title>Node23</title>
<g id="a_node10"><a xlink:href="class_i_plugin_base.html" target="_top" xlink:title="Base class that contains plug&#45;in info and state manipulation methods.">
<polygon fill="white" stroke="#666666" points="259,-279 190,-279 190,-260 259,-260 259,-279"/>
<text text-anchor="middle" x="224.5" y="-267" font-family="Helvetica,sans-Serif" font-size="10.00">IPluginBase</text>
</a>
</g>
</g>
<!-- Node24&#45;&gt;Node23 -->
<g id="edge5" class="edge">
<title>Node24&#45;&gt;Node23</title>
<path fill="none" stroke="#63b8ff" d="M158.66,-261.23C169.55,-262.62 180.15,-263.97 189.53,-265.17"/>
<polygon fill="#63b8ff" stroke="#63b8ff" points="159.12,-257.76 148.76,-259.97 158.23,-264.71 159.12,-257.76"/>
</g>
<!-- Node25 -->
<g id="node19" class="node">
<title>Node25</title>
<g id="a_node19"><a xlink:href="class_reaper_ext_base.html" target="_top" xlink:title="Reaper extension base class interface.">
<polygon fill="white" stroke="#666666" points="266,-242 183,-242 183,-223 266,-223 266,-242"/>
<text text-anchor="middle" x="224.5" y="-230" font-family="Helvetica,sans-Serif" font-size="10.00">ReaperExtBase</text>
</a>
</g>
</g>
<!-- Node24&#45;&gt;Node25 -->
<g id="edge18" class="edge">
<title>Node24&#45;&gt;Node25</title>
<path fill="none" stroke="#63b8ff" d="M158.59,-240.34C166.86,-239.34 174.97,-238.36 182.5,-237.45"/>
<polygon fill="#63b8ff" stroke="#63b8ff" points="158.26,-236.86 148.76,-241.53 159.1,-243.8 158.26,-236.86"/>
</g>
<!-- Node2 -->
<g id="node11" class="node">
<title>Node2</title>
<g id="a_node11"><a xlink:href="class_i_plug_a_p_i_base.html" target="_top" xlink:title="The base class of an IPlug plug&#45;in, which interacts with the different plug&#45;in APIs.">
<polygon fill="white" stroke="#666666" points="402,-279 324,-279 324,-260 402,-260 402,-279"/>
<text text-anchor="middle" x="363" y="-267" font-family="Helvetica,sans-Serif" font-size="10.00">IPlugAPIBase</text>
</a>
</g>
</g>
<!-- Node23&#45;&gt;Node2 -->
<g id="edge6" class="edge">
<title>Node23&#45;&gt;Node2</title>
<path fill="none" stroke="#63b8ff" d="M270.73,-269.5C287.94,-269.5 307.35,-269.5 323.83,-269.5"/>
<polygon fill="#63b8ff" stroke="#63b8ff" points="270.76,-266 260.76,-269.5 270.76,-273 270.76,-266"/>
</g>
<!-- Node2&#45;&gt;Node1 -->
<g id="edge7" class="edge">
<title>Node2&#45;&gt;Node1</title>
<path fill="none" stroke="#63b8ff" d="M374.18,-289.51C387.64,-316.82 411.15,-367.63 424,-413.5 452.62,-515.67 387.86,-571.7 460,-649.5 472.38,-662.85 492.51,-667.25 509.22,-668.36"/>
<polygon fill="#63b8ff" stroke="#63b8ff" points="377.37,-288.06 369.76,-280.68 371.1,-291.19 377.37,-288.06"/>
</g>
<!-- Node2&#45;&gt;Node18 -->
<g id="edge15" class="edge">
<title>Node2&#45;&gt;Node18</title>
<path fill="none" stroke="#63b8ff" d="M413.74,-279.57C468.93,-287.82 558.09,-292.1 618,-249.5 685.74,-201.33 702.53,-89.93 706.12,-56.29"/>
<polygon fill="#63b8ff" stroke="#63b8ff" points="414.42,-276.14 403.99,-278.01 413.31,-283.05 414.42,-276.14"/>
</g>
<!-- Node2&#45;&gt;Node7 -->
<g id="edge11" class="edge">
<title>Node2&#45;&gt;Node7</title>
<path fill="none" stroke="#63b8ff" d="M372.71,-289.64C386.73,-319.73 417.14,-376.2 460,-407.5 473.5,-417.36 491.13,-423.23 506.21,-426.69"/>
<polygon fill="#63b8ff" stroke="#63b8ff" points="375.91,-288.24 368.62,-280.56 369.53,-291.11 375.91,-288.24"/>
</g>
<!-- Node2&#45;&gt;Node13 -->
<g id="edge14" class="edge">
<title>Node2&#45;&gt;Node13</title>
<path fill="none" stroke="#63b8ff" d="M373.71,-289.65C386.64,-317.12 409.56,-368.11 424,-413.5 446.1,-482.96 403.08,-527.97 460,-573.5 527.34,-627.37 640.71,-585.2 686.7,-564.39"/>
<polygon fill="#63b8ff" stroke="#63b8ff" points="376.94,-288.29 369.48,-280.77 370.62,-291.3 376.94,-288.29"/>
</g>
<!-- Node3 -->
<g id="node12" class="node">
<title>Node3</title>
<g id="a_node12"><a xlink:href="class_i_plug_a_p_p.html" target="_top" xlink:title="Standalone application base class for an IPlug plug&#45;in.">
<polygon fill="white" stroke="#666666" points="568.5,-130 509.5,-130 509.5,-111 568.5,-111 568.5,-130"/>
<text text-anchor="middle" x="539" y="-118" font-family="Helvetica,sans-Serif" font-size="10.00">IPlugAPP</text>
</a>
</g>
</g>
<!-- Node2&#45;&gt;Node3 -->
<g id="edge8" class="edge">
<title>Node2&#45;&gt;Node3</title>
<path fill="none" stroke="#63b8ff" d="M379.35,-251.01C391.76,-235.84 409.5,-213.65 424,-193.5 441.07,-169.79 436.04,-155.21 460,-138.5 474.36,-128.48 493.48,-123.97 509.2,-121.96"/>
<polygon fill="#63b8ff" stroke="#63b8ff" points="376.67,-248.76 373.01,-258.71 382.07,-253.21 376.67,-248.76"/>
</g>
<!-- Node5 -->
<g id="node13" class="node">
<title>Node5</title>
<g id="a_node13"><a xlink:href="class_i_plug_a_u.html" target="_top" xlink:title="AudioUnit v2 API base class for an IPlug plug&#45;in.">
<polygon fill="white" stroke="#666666" points="565.5,-241 512.5,-241 512.5,-222 565.5,-222 565.5,-241"/>
<text text-anchor="middle" x="539" y="-229" font-family="Helvetica,sans-Serif" font-size="10.00">IPlugAU</text>
</a>
</g>
</g>
<!-- Node2&#45;&gt;Node5 -->
<g id="edge9" class="edge">
<title>Node2&#45;&gt;Node5</title>
<path fill="none" stroke="#63b8ff" d="M413.16,-258.76C445.3,-251.75 486,-242.86 512.02,-237.17"/>
<polygon fill="#63b8ff" stroke="#63b8ff" points="412.69,-255.28 403.66,-260.84 414.18,-262.12 412.69,-255.28"/>
</g>
<!-- Node6 -->
<g id="node14" class="node">
<title>Node6</title>
<g id="a_node14"><a xlink:href="class_i_plug_a_uv3.html" target="_top" xlink:title="AudioUnit v3 API base class for an IPlug plug&#45;in.">
<polygon fill="white" stroke="#666666" points="571,-204 507,-204 507,-185 571,-185 571,-204"/>
<text text-anchor="middle" x="539" y="-192" font-family="Helvetica,sans-Serif" font-size="10.00">IPlugAUv3</text>
</a>
</g>
</g>
<!-- Node2&#45;&gt;Node6 -->
<g id="edge10" class="edge">
<title>Node2&#45;&gt;Node6</title>
<path fill="none" stroke="#63b8ff" d="M386.82,-253.19C405.64,-240.44 433.46,-223.14 460,-212.5 474.83,-206.55 492.08,-202.32 506.58,-199.45"/>
<polygon fill="#63b8ff" stroke="#63b8ff" points="385.08,-250.14 378.85,-258.7 389.06,-255.9 385.08,-250.14"/>
</g>
<!-- Node9 -->
<g id="node15" class="node">
<title>Node9</title>
<g id="a_node15"><a xlink:href="class_i_plug_v_s_t2.html" target="_top" xlink:title="VST2.4 API base class for an IPlug plug&#45;in.">
<polygon fill="white" stroke="#666666" points="571,-167 507,-167 507,-148 571,-148 571,-167"/>
<text text-anchor="middle" x="539" y="-155" font-family="Helvetica,sans-Serif" font-size="10.00">IPlugVST2</text>
</a>
</g>
</g>
<!-- Node2&#45;&gt;Node9 -->
<g id="edge12" class="edge">
<title>Node2&#45;&gt;Node9</title>
<path fill="none" stroke="#63b8ff" d="M377.94,-250.62C394.9,-229.06 425.56,-194.35 460,-175.5 474.26,-167.69 491.78,-163.26 506.6,-160.75"/>
<polygon fill="#63b8ff" stroke="#63b8ff" points="375.17,-248.48 371.88,-258.55 380.73,-252.73 375.17,-248.48"/>
</g>
<!-- Node11 -->
<g id="node16" class="node">
<title>Node11</title>
<g id="a_node16"><a xlink:href="class_i_plug_v_s_t3.html" target="_top" xlink:title="VST3 base class for a non&#45;distributed IPlug VST3 plug&#45;in.">
<polygon fill="white" stroke="#666666" points="740,-443 676,-443 676,-424 740,-424 740,-443"/>
<text text-anchor="middle" x="708" y="-431" font-family="Helvetica,sans-Serif" font-size="10.00">IPlugVST3</text>
</a>
</g>
</g>
<!-- Node2&#45;&gt;Node11 -->
<g id="edge13" class="edge">
<title>Node2&#45;&gt;Node11</title>
<path fill="none" stroke="#63b8ff" d="M376.27,-288.83C392.47,-312.73 423.29,-352.88 460,-374.5 464.71,-377.28 610.62,-411.22 675.93,-426.33"/>
<polygon fill="#63b8ff" stroke="#63b8ff" points="379.31,-287.1 370.89,-280.67 373.47,-290.95 379.31,-287.1"/>
</g>
<!-- Node20 -->
<g id="node17" class="node">
<title>Node20</title>
<g id="a_node17"><a xlink:href="class_i_plug_w_a_m.html" target="_top" xlink:title="WebAudioModule (WAM) API base class.">
<polygon fill="white" stroke="#666666" points="570.5,-93 507.5,-93 507.5,-74 570.5,-74 570.5,-93"/>
<text text-anchor="middle" x="539" y="-81" font-family="Helvetica,sans-Serif" font-size="10.00">IPlugWAM</text>
</a>
</g>
</g>
<!-- Node2&#45;&gt;Node20 -->
<g id="edge16" class="edge">
<title>Node2&#45;&gt;Node20</title>
<path fill="none" stroke="#63b8ff" d="M380.58,-251.68C393.65,-236.94 411.67,-215 424,-193.5 445.84,-155.41 426.77,-130.2 460,-101.5 472.94,-90.33 491.45,-85.74 507.19,-83.98"/>
<polygon fill="#63b8ff" stroke="#63b8ff" points="378.3,-248.98 374.19,-258.74 383.49,-253.67 378.3,-248.98"/>
</g>
<!-- Node22 -->
<g id="node18" class="node">
<title>Node22</title>
<g id="a_node18"><a xlink:href="class_i_plug_web.html" target="_top" xlink:title="This is used for the UI &quot;editor&quot; &#45; controller side of a WAM or remote editors that communicate with d...">
<polygon fill="white" stroke="#666666" points="568.5,-317 509.5,-317 509.5,-298 568.5,-298 568.5,-317"/>
<text text-anchor="middle" x="539" y="-305" font-family="Helvetica,sans-Serif" font-size="10.00">IPlugWeb</text>
</a>
</g>
</g>
<!-- Node2&#45;&gt;Node22 -->
<g id="edge17" class="edge">
<title>Node2&#45;&gt;Node22</title>
<path fill="none" stroke="#63b8ff" d="M413.19,-280.24C444.14,-287 483.01,-295.49 509.08,-301.18"/>
<polygon fill="#63b8ff" stroke="#63b8ff" points="414.18,-276.88 403.66,-278.16 412.69,-283.72 414.18,-276.88"/>
</g>
<!-- Node12 -->
<g id="node20" class="node">
<title>Node12</title>
<g id="a_node20"><a xlink:title=" ">
<polygon fill="#e0e0e0" stroke="#999999" points="614,-489.5 464,-489.5 464,-459.5 614,-459.5 614,-489.5"/>
<text text-anchor="start" x="472" y="-477.5" font-family="Helvetica,sans-Serif" font-size="10.00">Steinberg::Vst::ChannelContext</text>
<text text-anchor="middle" x="539" y="-466.5" font-family="Helvetica,sans-Serif" font-size="10.00">::IInfoListener</text>
</a>
</g>
</g>
<!-- Node12&#45;&gt;Node13 -->
<g id="edge20" class="edge">
<title>Node12&#45;&gt;Node13</title>
<path fill="none" stroke="#63b8ff" d="M604.67,-493.86C609.23,-495.64 613.71,-497.52 618,-499.5 646.21,-512.5 676.44,-532.67 693.41,-544.64"/>
<polygon fill="#63b8ff" stroke="#63b8ff" points="605.96,-490.6 595.36,-490.42 603.53,-497.17 605.96,-490.6"/>
</g>
<!-- Node12&#45;&gt;Node11 -->
<g id="edge19" class="edge">
<title>Node12&#45;&gt;Node11</title>
<path fill="none" stroke="#63b8ff" d="M613.63,-456.42C635.49,-451.06 658.27,-445.46 675.85,-441.15"/>
<polygon fill="#63b8ff" stroke="#63b8ff" points="613.01,-452.97 604.13,-458.76 614.68,-459.77 613.01,-452.97"/>
</g>
<!-- Node15 -->
<g id="node21" class="node">
<title>Node15</title>
<g id="a_node21"><a xlink:title=" ">
<polygon fill="#e0e0e0" stroke="#999999" points="609,-564 469,-564 469,-545 609,-545 609,-564"/>
<text text-anchor="middle" x="539" y="-552" font-family="Helvetica,sans-Serif" font-size="10.00">Steinberg::Vst::IMidiMapping</text>
</a>
</g>
</g>
<!-- Node15&#45;&gt;Node13 -->
<g id="edge22" class="edge">
<title>Node15&#45;&gt;Node13</title>
<path fill="none" stroke="#63b8ff" d="M620.59,-554.5C632.35,-554.5 644.18,-554.5 655.16,-554.5"/>
<polygon fill="#63b8ff" stroke="#63b8ff" points="620.89,-551 610.89,-554.5 620.89,-558 620.89,-551"/>
</g>
<!-- Node15&#45;&gt;Node11 -->
<g id="edge21" class="edge">
<title>Node15&#45;&gt;Node11</title>
<path fill="none" stroke="#63b8ff" d="M611.23,-540.16C613.56,-539.03 615.82,-537.81 618,-536.5 658.07,-512.34 689.4,-463.94 701.54,-443.25"/>
<polygon fill="#63b8ff" stroke="#63b8ff" points="609.98,-536.89 602.1,-543.97 612.67,-543.35 609.98,-536.89"/>
</g>
<!-- Node4 -->
<g id="node22" class="node">
<title>Node4</title>
<g id="a_node22"><a xlink:href="class_i_plug_processor.html" target="_top" xlink:title="The base class for IPlug Audio Processing.">
<polygon fill="white" stroke="#666666" points="404.5,-185 321.5,-185 321.5,-166 404.5,-166 404.5,-185"/>
<text text-anchor="middle" x="363" y="-173" font-family="Helvetica,sans-Serif" font-size="10.00">IPlugProcessor</text>
</a>
</g>
</g>
<!-- Node4&#45;&gt;Node1 -->
<g id="edge23" class="edge">
<title>Node4&#45;&gt;Node1</title>
<path fill="none" stroke="#63b8ff" d="M383.23,-193.19C397.15,-207.25 415.04,-228.21 424,-250.5 457.22,-333.1 401.5,-582.39 460,-649.5 472.05,-663.33 492.42,-667.68 509.31,-668.65"/>
<polygon fill="#63b8ff" stroke="#63b8ff" points="385.89,-190.89 376.28,-186.42 381.01,-195.9 385.89,-190.89"/>
</g>
<!-- Node4&#45;&gt;Node7 -->
<g id="edge27" class="edge">
<title>Node4&#45;&gt;Node7</title>
<path fill="none" stroke="#63b8ff" d="M381.57,-193.25C394.91,-207.61 412.81,-228.93 424,-250.5 450.43,-301.44 427.07,-327.5 460,-374.5 474.82,-395.65 500.04,-411.98 517.78,-421.64"/>
<polygon fill="#63b8ff" stroke="#63b8ff" points="384.44,-191.18 375,-186.36 379.37,-196.01 384.44,-191.18"/>
</g>
<!-- Node4&#45;&gt;Node3 -->
<g id="edge24" class="edge">
<title>Node4&#45;&gt;Node3</title>
<path fill="none" stroke="#63b8ff" d="M397.37,-161.3C415.65,-153.87 438.83,-144.99 460,-138.5 476.08,-133.57 494.38,-129.28 509.22,-126.13"/>
<polygon fill="#63b8ff" stroke="#63b8ff" points="396.27,-157.97 388.36,-165.02 398.94,-164.44 396.27,-157.97"/>
</g>
<!-- Node4&#45;&gt;Node5 -->
<g id="edge25" class="edge">
<title>Node4&#45;&gt;Node5</title>
<path fill="none" stroke="#63b8ff" d="M397.77,-189.74C416,-197.12 439.01,-205.93 460,-212.5 477.16,-217.87 496.83,-222.65 512.13,-226.08"/>
<polygon fill="#63b8ff" stroke="#63b8ff" points="399.35,-186.61 388.77,-186.06 396.7,-193.09 399.35,-186.61"/>
</g>
<!-- Node4&#45;&gt;Node6 -->
<g id="edge26" class="edge">
<title>Node4&#45;&gt;Node6</title>
<path fill="none" stroke="#63b8ff" d="M416.16,-181.2C445.65,-184.42 481.54,-188.33 506.7,-191.08"/>
<polygon fill="#63b8ff" stroke="#63b8ff" points="416.62,-177.73 406.3,-180.12 415.86,-184.68 416.62,-177.73"/>
</g>
<!-- Node4&#45;&gt;Node9 -->
<g id="edge28" class="edge">
<title>Node4&#45;&gt;Node9</title>
<path fill="none" stroke="#63b8ff" d="M416.16,-170.1C445.65,-167.05 481.54,-163.34 506.7,-160.74"/>
<polygon fill="#63b8ff" stroke="#63b8ff" points="415.89,-166.61 406.3,-171.12 416.61,-173.58 415.89,-166.61"/>
</g>
<!-- Node4&#45;&gt;Node20 -->
<g id="edge32" class="edge">
<title>Node4&#45;&gt;Node20</title>
<path fill="none" stroke="#63b8ff" d="M381.59,-158.11C399.73,-141.15 429.59,-115.88 460,-101.5 474.82,-94.49 492.56,-90.12 507.36,-87.44"/>
<polygon fill="#63b8ff" stroke="#63b8ff" points="379.57,-155.19 374.76,-164.63 384.41,-160.25 379.57,-155.19"/>
</g>
<!-- Node10 -->
<g id="node23" class="node">
<title>Node10</title>
<g id="a_node23"><a xlink:href="class_i_plug_v_s_t3_processor_base.html" target="_top" xlink:title="Shared VST3 processor code.">
<polygon fill="white" stroke="#666666" points="604.5,-56 473.5,-56 473.5,-37 604.5,-37 604.5,-56"/>
<text text-anchor="middle" x="539" y="-44" font-family="Helvetica,sans-Serif" font-size="10.00">IPlugVST3ProcessorBase</text>
</a>
</g>
</g>
<!-- Node4&#45;&gt;Node10 -->
<g id="edge29" class="edge">
<title>Node4&#45;&gt;Node10</title>
<path fill="none" stroke="#63b8ff" d="M379.02,-156.89C403.38,-126.91 449.81,-70.64 460,-64.5 465.36,-61.27 471.24,-58.62 477.3,-56.45"/>
<polygon fill="#63b8ff" stroke="#63b8ff" points="376.49,-154.46 372.92,-164.43 381.93,-158.86 376.49,-154.46"/>
</g>
<!-- Node10&#45;&gt;Node18 -->
<g id="edge31" class="edge">
<title>Node10&#45;&gt;Node18</title>
<path fill="none" stroke="#63b8ff" d="M615.73,-46.5C628.55,-46.5 641.61,-46.5 653.69,-46.5"/>
<polygon fill="#63b8ff" stroke="#63b8ff" points="616.08,-43 606.08,-46.5 616.08,-50 616.08,-43"/>
</g>
<!-- Node10&#45;&gt;Node11 -->
<g id="edge30" class="edge">
<title>Node10&#45;&gt;Node11</title>
<path fill="none" stroke="#63b8ff" d="M614.21,-61.14C615.53,-62.19 616.8,-63.31 618,-64.5 671.62,-117.59 700.53,-370.97 706.03,-423.82"/>
<polygon fill="#63b8ff" stroke="#63b8ff" points="616.41,-58.39 606.1,-55.97 612.65,-64.29 616.41,-58.39"/>
</g>
<!-- Node16 -->
<g id="node24" class="node">
<title>Node16</title>
<g id="a_node24"><a xlink:href="class_i_plug_v_s_t3_controller_base.html" target="_top" xlink:title="Shared VST3 controller code.">
<polygon fill="white" stroke="#666666" points="603,-527 475,-527 475,-508 603,-508 603,-527"/>
<text text-anchor="middle" x="539" y="-515" font-family="Helvetica,sans-Serif" font-size="10.00">IPlugVST3ControllerBase</text>
</a>
</g>
</g>
<!-- Node16&#45;&gt;Node13 -->
<g id="edge34" class="edge">
<title>Node16&#45;&gt;Node13</title>
<path fill="none" stroke="#63b8ff" d="M595.75,-529.85C617.33,-534.63 641.7,-540.03 662.12,-544.56"/>
<polygon fill="#63b8ff" stroke="#63b8ff" points="596.75,-526.49 586.23,-527.74 595.24,-533.32 596.75,-526.49"/>
</g>
<!-- Node16&#45;&gt;Node11 -->
<g id="edge33" class="edge">
<title>Node16&#45;&gt;Node11</title>
<path fill="none" stroke="#63b8ff" d="M603.79,-504.18C608.68,-502.49 613.47,-500.6 618,-498.5 649.23,-483.99 680.55,-457.75 696.38,-443.45"/>
<polygon fill="#63b8ff" stroke="#63b8ff" points="602.92,-500.79 594.43,-507.12 605.02,-507.46 602.92,-500.79"/>
</g>
<!-- Node21 -->
<g id="node25" class="node">
<title>Node21</title>
<g id="a_node25"><a xlink:title=" ">
<polygon fill="#e0e0e0" stroke="#999999" points="393.5,-93 332.5,-93 332.5,-74 393.5,-74 393.5,-93"/>
<text text-anchor="middle" x="363" y="-81" font-family="Helvetica,sans-Serif" font-size="10.00">Processor</text>
</a>
</g>
</g>
<!-- Node21&#45;&gt;Node20 -->
<g id="edge35" class="edge">
<title>Node21&#45;&gt;Node20</title>
<path fill="none" stroke="#63b8ff" d="M405.28,-83.5C436.49,-83.5 478.66,-83.5 507.02,-83.5"/>
<polygon fill="#63b8ff" stroke="#63b8ff" points="405.43,-80 395.43,-83.5 405.43,-87 405.43,-80"/>
</g>
<!-- Node17 -->
<g id="node26" class="node">
<title>Node17</title>
<g id="a_node26"><a xlink:title=" ">
<polygon fill="#e0e0e0" stroke="#999999" points="618,-365.5 460,-365.5 460,-335.5 618,-335.5 618,-365.5"/>
<text text-anchor="start" x="468" y="-353.5" font-family="Helvetica,sans-Serif" font-size="10.00">Steinberg::Vst::SingleComponent</text>
<text text-anchor="middle" x="539" y="-342.5" font-family="Helvetica,sans-Serif" font-size="10.00">Effect</text>
</a>
</g>
</g>
<!-- Node17&#45;&gt;Node11 -->
<g id="edge36" class="edge">
<title>Node17&#45;&gt;Node11</title>
<path fill="none" stroke="#63b8ff" d="M596.6,-370.09C603.89,-373.04 611.18,-376.2 618,-379.5 645.49,-392.8 675.47,-412.08 692.68,-423.64"/>
<polygon fill="#63b8ff" stroke="#63b8ff" points="597.97,-366.87 587.39,-366.5 595.43,-373.39 597.97,-366.87"/>
</g>
</g>
</svg>
