<?xml version="1.0" encoding="UTF-8" standalone="no"?>
<!DOCTYPE svg PUBLIC "-//W3C//DTD SVG 1.1//EN"
 "http://www.w3.org/Graphics/SVG/1.1/DTD/svg11.dtd">
<!-- Generated by graphviz version 7.0.5 (20221223.1930)
 -->
<!-- Title: Graphical Class Hierarchy Pages: 1 -->
<svg width="392pt" height="64pt"
 viewBox="0.00 0.00 392.00 64.00" xmlns="http://www.w3.org/2000/svg" xmlns:xlink="http://www.w3.org/1999/xlink">
<g id="graph0" class="graph" transform="scale(1 1) rotate(0) translate(4 60)">
<title>Graphical Class Hierarchy</title>
<!-- Node0 -->
<g id="node1" class="node">
<title>Node0</title>
<g id="a_node1"><a xlink:title=" ">
<polygon fill="#e0e0e0" stroke="#999999" points="73,-37 0,-37 0,-18 73,-18 73,-37"/>
<text text-anchor="middle" x="36.5" y="-25" font-family="Helvetica,sans-Serif" font-size="10.00">PlatformFont</text>
</a>
</g>
</g>
<!-- Node1 -->
<g id="node2" class="node">
<title>Node1</title>
<g id="a_node2"><a xlink:title=" ">
<polygon fill="#e0e0e0" stroke="#999999" points="211,-37 109,-37 109,-18 211,-18 211,-37"/>
<text text-anchor="middle" x="160" y="-25" font-family="Helvetica,sans-Serif" font-size="10.00">IGraphicsWeb::Font</text>
</a>
</g>
</g>
<!-- Node0&#45;&gt;Node1 -->
<g id="edge1" class="edge">
<title>Node0&#45;&gt;Node1</title>
<path fill="none" stroke="#63b8ff" d="M84.55,-27.5C92.43,-27.5 100.64,-27.5 108.61,-27.5"/>
<polygon fill="#63b8ff" stroke="#63b8ff" points="84.81,-24 74.81,-27.5 84.81,-31 84.81,-24"/>
</g>
<!-- Node2 -->
<g id="node3" class="node">
<title>Node2</title>
<g id="a_node3"><a xlink:href="class_i_graphics_web_1_1_file_font.html" target="_top" xlink:title=" ">
<polygon fill="white" stroke="#666666" points="374.5,-56 256.5,-56 256.5,-37 374.5,-37 374.5,-56"/>
<text text-anchor="middle" x="315.5" y="-44" font-family="Helvetica,sans-Serif" font-size="10.00">IGraphicsWeb::FileFont</text>
</a>
</g>
</g>
<!-- Node1&#45;&gt;Node2 -->
<g id="edge2" class="edge">
<title>Node1&#45;&gt;Node2</title>
<path fill="none" stroke="#63b8ff" d="M222.59,-35.12C233.66,-36.49 245.16,-37.92 256.13,-39.27"/>
<polygon fill="#63b8ff" stroke="#63b8ff" points="223.12,-31.66 212.76,-33.91 222.26,-38.61 223.12,-31.66"/>
</g>
<!-- Node3 -->
<g id="node4" class="node">
<title>Node3</title>
<g id="a_node4"><a xlink:href="class_i_graphics_web_1_1_memory_font.html" target="_top" xlink:title=" ">
<polygon fill="white" stroke="#666666" points="384,-19 247,-19 247,0 384,0 384,-19"/>
<text text-anchor="middle" x="315.5" y="-7" font-family="Helvetica,sans-Serif" font-size="10.00">IGraphicsWeb::MemoryFont</text>
</a>
</g>
</g>
<!-- Node1&#45;&gt;Node3 -->
<g id="edge3" class="edge">
<title>Node1&#45;&gt;Node3</title>
<path fill="none" stroke="#63b8ff" d="M222.6,-20.28C230.48,-19.35 238.58,-18.4 246.55,-17.47"/>
<polygon fill="#63b8ff" stroke="#63b8ff" points="222.29,-16.79 212.76,-21.43 223.1,-23.74 222.29,-16.79"/>
</g>
</g>
</svg>
