<?xml version="1.0" encoding="UTF-8" standalone="no"?>
<!DOCTYPE svg PUBLIC "-//W3C//DTD SVG 1.1//EN"
 "http://www.w3.org/Graphics/SVG/1.1/DTD/svg11.dtd">
<!-- Generated by graphviz version 7.0.5 (20221223.1930)
 -->
<!-- Title: Graphical Class Hierarchy Pages: 1 -->
<svg width="770pt" height="685pt"
 viewBox="0.00 0.00 770.00 685.00" xmlns="http://www.w3.org/2000/svg" xmlns:xlink="http://www.w3.org/1999/xlink">
<g id="graph0" class="graph" transform="scale(1 1) rotate(0) translate(4 681)">
<title>Graphical Class Hierarchy</title>
<!-- Node0 -->
<g id="node1" class="node">
<title>Node0</title>
<g id="a_node1"><a xlink:title=" ">
<polygon fill="#e0e0e0" stroke="#999999" points="424,-677 302,-677 302,-658 424,-658 424,-677"/>
<text text-anchor="middle" x="363" y="-665" font-family="Helvetica,sans-Serif" font-size="10.00">AAX_CIPlugParameters</text>
</a>
</g>
</g>
<!-- Node1 -->
<g id="node2" class="node">
<title>Node1</title>
<g id="a_node2"><a xlink:href="class_i_plug_a_a_x.html" target="_top" xlink:title="AAX API base class for an IPlug plug&#45;in.">
<polygon fill="white" stroke="#666666" points="568.5,-677 509.5,-677 509.5,-658 568.5,-658 568.5,-677"/>
<text text-anchor="middle" x="539" y="-665" font-family="Helvetica,sans-Serif" font-size="10.00">IPlugAAX</text>
</a>
</g>
</g>
<!-- Node0&#45;&gt;Node1 -->
<g id="edge1" class="edge">
<title>Node0&#45;&gt;Node1</title>
<path fill="none" stroke="#63b8ff" d="M435.71,-667.5C461.61,-667.5 489.38,-667.5 509.44,-667.5"/>
<polygon fill="#63b8ff" stroke="#63b8ff" points="435.88,-664 425.88,-667.5 435.88,-671 435.88,-664"/>
</g>
<!-- Node20 -->
<g id="node3" class="node">
<title>Node20</title>
<g id="a_node3"><a xlink:title=" ">
<polygon fill="#e0e0e0" stroke="#999999" points="604.5,-19 473.5,-19 473.5,0 604.5,0 604.5,-19"/>
<text text-anchor="middle" x="539" y="-7" font-family="Helvetica,sans-Serif" font-size="10.00">Steinberg::Vst::AudioEffect</text>
</a>
</g>
</g>
<!-- Node19 -->
<g id="node4" class="node">
<title>Node19</title>
<g id="a_node4"><a xlink:href="class_i_plug_v_s_t3_processor.html" target="_top" xlink:title="VST3 Processor API&#45;base class for a distributed IPlug VST3 plug&#45;in.">
<polygon fill="white" stroke="#666666" points="762,-56 654,-56 654,-37 762,-37 762,-56"/>
<text text-anchor="middle" x="708" y="-44" font-family="Helvetica,sans-Serif" font-size="10.00">IPlugVST3Processor</text>
</a>
</g>
</g>
<!-- Node20&#45;&gt;Node19 -->
<g id="edge2" class="edge">
<title>Node20&#45;&gt;Node19</title>
<path fill="none" stroke="#63b8ff" d="M595.75,-21.85C617.33,-26.63 641.7,-32.03 662.12,-36.56"/>
<polygon fill="#63b8ff" stroke="#63b8ff" points="596.75,-18.49 586.23,-19.74 595.24,-25.32 596.75,-18.49"/>
</g>
<!-- Node8 -->
<g id="node5" class="node">
<title>Node8</title>
<g id="a_node5"><a xlink:title=" ">
<polygon fill="#e0e0e0" stroke="#999999" points="409,-403 317,-403 317,-384 409,-384 409,-403"/>
<text text-anchor="middle" x="363" y="-391" font-family="Helvetica,sans-Serif" font-size="10.00">ClapPluginHelper</text>
</a>
</g>
</g>
<!-- Node7 -->
<g id="node6" class="node">
<title>Node7</title>
<g id="a_node6"><a xlink:href="class_i_plug_c_l_a_p.html" target="_top" xlink:title="CLAP API base class for an IPlug plug&#45;in.">
<polygon fill="white" stroke="#666666" points="571.5,-403 506.5,-403 506.5,-384 571.5,-384 571.5,-403"/>
<text text-anchor="middle" x="539" y="-391" font-family="Helvetica,sans-Serif" font-size="10.00">IPlugCLAP</text>
</a>
</g>
</g>
<!-- Node8&#45;&gt;Node7 -->
<g id="edge3" class="edge">
<title>Node8&#45;&gt;Node7</title>
<path fill="none" stroke="#63b8ff" d="M420.66,-393.5C449.02,-393.5 482.28,-393.5 506.14,-393.5"/>
<polygon fill="#63b8ff" stroke="#63b8ff" points="420.78,-390 410.78,-393.5 420.78,-397 420.78,-390"/>
</g>
<!-- Node15 -->
<g id="node7" class="node">
<title>Node15</title>
<g id="a_node7"><a xlink:title=" ">
<polygon fill="#e0e0e0" stroke="#999999" points="616.5,-640 461.5,-640 461.5,-621 616.5,-621 616.5,-640"/>
<text text-anchor="middle" x="539" y="-628" font-family="Helvetica,sans-Serif" font-size="10.00">Steinberg::Vst::EditControllerEx1</text>
</a>
</g>
</g>
<!-- Node14 -->
<g id="node8" class="node">
<title>Node14</title>
<g id="a_node8"><a xlink:href="class_i_plug_v_s_t3_controller.html" target="_top" xlink:title="VST3 Controller API&#45;base class for a distributed IPlug VST3 plug&#45;in.">
<polygon fill="white" stroke="#666666" points="760.5,-564 655.5,-564 655.5,-545 760.5,-545 760.5,-564"/>
<text text-anchor="middle" x="708" y="-552" font-family="Helvetica,sans-Serif" font-size="10.00">IPlugVST3Controller</text>
</a>
</g>
</g>
<!-- Node15&#45;&gt;Node14 -->
<g id="edge4" class="edge">
<title>Node15&#45;&gt;Node14</title>
<path fill="none" stroke="#63b8ff" d="M589.42,-617.18C599.04,-614.06 608.95,-610.47 618,-606.5 645.53,-594.42 675.26,-575.8 692.44,-564.43"/>
<polygon fill="#63b8ff" stroke="#63b8ff" points="588.68,-613.74 580.17,-620.05 590.76,-620.43 588.68,-613.74"/>
</g>
<!-- Node25 -->
<g id="node9" class="node">
<title>Node25</title>
<g id="a_node9"><a xlink:title=" ">
<polygon fill="#e0e0e0" stroke="#999999" points="147,-260 0,-260 0,-241 147,-241 147,-260"/>
<text text-anchor="middle" x="73.5" y="-248" font-family="Helvetica,sans-Serif" font-size="10.00">EDITOR_DELEGATE_CLASS</text>
</a>
</g>
</g>
<!-- Node24 -->
<g id="node10" class="node">
<title>Node24</title>
<g id="a_node10"><a xlink:href="class_i_plugin_base.html" target="_top" xlink:title="Base class that contains plug&#45;in info and state manipulation methods.">
<polygon fill="white" stroke="#666666" points="259,-279 190,-279 190,-260 259,-260 259,-279"/>
<text text-anchor="middle" x="224.5" y="-267" font-family="Helvetica,sans-Serif" font-size="10.00">IPluginBase</text>
</a>
</g>
</g>
<!-- Node25&#45;&gt;Node24 -->
<g id="edge5" class="edge">
<title>Node25&#45;&gt;Node24</title>
<path fill="none" stroke="#63b8ff" d="M158.66,-261.23C169.55,-262.62 180.15,-263.97 189.53,-265.17"/>
<polygon fill="#63b8ff" stroke="#63b8ff" points="159.12,-257.76 148.76,-259.97 158.23,-264.71 159.12,-257.76"/>
</g>
<!-- Node26 -->
<g id="node20" class="node">
<title>Node26</title>
<g id="a_node20"><a xlink:href="class_reaper_ext_base.html" target="_top" xlink:title="Reaper extension base class interface.">
<polygon fill="white" stroke="#666666" points="266,-242 183,-242 183,-223 266,-223 266,-242"/>
<text text-anchor="middle" x="224.5" y="-230" font-family="Helvetica,sans-Serif" font-size="10.00">ReaperExtBase</text>
</a>
</g>
</g>
<!-- Node25&#45;&gt;Node26 -->
<g id="edge19" class="edge">
<title>Node25&#45;&gt;Node26</title>
<path fill="none" stroke="#63b8ff" d="M158.59,-240.34C166.86,-239.34 174.97,-238.36 182.5,-237.45"/>
<polygon fill="#63b8ff" stroke="#63b8ff" points="158.26,-236.86 148.76,-241.53 159.1,-243.8 158.26,-236.86"/>
</g>
<!-- Node2 -->
<g id="node11" class="node">
<title>Node2</title>
<g id="a_node11"><a xlink:href="class_i_plug_a_p_i_base.html" target="_top" xlink:title="The base class of an IPlug plug&#45;in, which interacts with the different plug&#45;in APIs.">
<polygon fill="white" stroke="#666666" points="402,-279 324,-279 324,-260 402,-260 402,-279"/>
<text text-anchor="middle" x="363" y="-267" font-family="Helvetica,sans-Serif" font-size="10.00">IPlugAPIBase</text>
</a>
</g>
</g>
<!-- Node24&#45;&gt;Node2 -->
<g id="edge6" class="edge">
<title>Node24&#45;&gt;Node2</title>
<path fill="none" stroke="#63b8ff" d="M270.73,-269.5C287.94,-269.5 307.35,-269.5 323.83,-269.5"/>
<polygon fill="#63b8ff" stroke="#63b8ff" points="270.76,-266 260.76,-269.5 270.76,-273 270.76,-266"/>
</g>
<!-- Node2&#45;&gt;Node1 -->
<g id="edge7" class="edge">
<title>Node2&#45;&gt;Node1</title>
<path fill="none" stroke="#63b8ff" d="M377.98,-288.82C392.04,-309.28 413.14,-343.05 424,-375.5 443.48,-433.74 418.71,-604.04 460,-649.5 472.24,-662.98 492.38,-667.37 509.13,-668.46"/>
<polygon fill="#63b8ff" stroke="#63b8ff" points="380.85,-286.81 372.24,-280.64 375.13,-290.84 380.85,-286.81"/>
</g>
<!-- Node2&#45;&gt;Node19 -->
<g id="edge16" class="edge">
<title>Node2&#45;&gt;Node19</title>
<path fill="none" stroke="#63b8ff" d="M413.74,-279.57C468.93,-287.82 558.09,-292.1 618,-249.5 626.68,-243.33 686.97,-95.86 703.06,-56.23"/>
<polygon fill="#63b8ff" stroke="#63b8ff" points="414.42,-276.14 403.99,-278.01 413.31,-283.05 414.42,-276.14"/>
</g>
<!-- Node2&#45;&gt;Node7 -->
<g id="edge11" class="edge">
<title>Node2&#45;&gt;Node7</title>
<path fill="none" stroke="#63b8ff" d="M376.28,-288.81C392.5,-312.68 423.34,-352.8 460,-374.5 473.91,-382.74 491.23,-387.41 506.01,-390.06"/>
<polygon fill="#63b8ff" stroke="#63b8ff" points="379.33,-287.07 370.9,-280.65 373.49,-290.93 379.33,-287.07"/>
</g>
<!-- Node2&#45;&gt;Node14 -->
<g id="edge15" class="edge">
<title>Node2&#45;&gt;Node14</title>
<path fill="none" stroke="#63b8ff" d="M377.66,-288.93C391.46,-309.48 412.35,-343.33 424,-375.5 454.46,-459.6 391.33,-516.19 460,-573.5 526.37,-628.89 640.79,-585.59 686.89,-564.42"/>
<polygon fill="#63b8ff" stroke="#63b8ff" points="380.58,-286.99 372.04,-280.72 374.8,-290.95 380.58,-286.99"/>
</g>
<!-- Node3 -->
<g id="node12" class="node">
<title>Node3</title>
<g id="a_node12"><a xlink:href="class_i_plug_a_p_p.html" target="_top" xlink:title="Standalone application base class for an IPlug plug&#45;in.">
<polygon fill="white" stroke="#666666" points="568.5,-130 509.5,-130 509.5,-111 568.5,-111 568.5,-130"/>
<text text-anchor="middle" x="539" y="-118" font-family="Helvetica,sans-Serif" font-size="10.00">IPlugAPP</text>
</a>
</g>
</g>
<!-- Node2&#45;&gt;Node3 -->
<g id="edge8" class="edge">
<title>Node2&#45;&gt;Node3</title>
<path fill="none" stroke="#63b8ff" d="M379.35,-251.01C391.76,-235.84 409.5,-213.65 424,-193.5 441.07,-169.79 436.04,-155.21 460,-138.5 474.36,-128.48 493.48,-123.97 509.2,-121.96"/>
<polygon fill="#63b8ff" stroke="#63b8ff" points="376.67,-248.76 373.01,-258.71 382.07,-253.21 376.67,-248.76"/>
</g>
<!-- Node5 -->
<g id="node13" class="node">
<title>Node5</title>
<g id="a_node13"><a xlink:href="class_i_plug_a_u.html" target="_top" xlink:title="AudioUnit v2 API base class for an IPlug plug&#45;in.">
<polygon fill="white" stroke="#666666" points="565.5,-241 512.5,-241 512.5,-222 565.5,-222 565.5,-241"/>
<text text-anchor="middle" x="539" y="-229" font-family="Helvetica,sans-Serif" font-size="10.00">IPlugAU</text>
</a>
</g>
</g>
<!-- Node2&#45;&gt;Node5 -->
<g id="edge9" class="edge">
<title>Node2&#45;&gt;Node5</title>
<path fill="none" stroke="#63b8ff" d="M413.16,-258.76C445.3,-251.75 486,-242.86 512.02,-237.17"/>
<polygon fill="#63b8ff" stroke="#63b8ff" points="412.69,-255.28 403.66,-260.84 414.18,-262.12 412.69,-255.28"/>
</g>
<!-- Node6 -->
<g id="node14" class="node">
<title>Node6</title>
<g id="a_node14"><a xlink:href="class_i_plug_a_uv3.html" target="_top" xlink:title="AudioUnit v3 API base class for an IPlug plug&#45;in.">
<polygon fill="white" stroke="#666666" points="571,-167 507,-167 507,-148 571,-148 571,-167"/>
<text text-anchor="middle" x="539" y="-155" font-family="Helvetica,sans-Serif" font-size="10.00">IPlugAUv3</text>
</a>
</g>
</g>
<!-- Node2&#45;&gt;Node6 -->
<g id="edge10" class="edge">
<title>Node2&#45;&gt;Node6</title>
<path fill="none" stroke="#63b8ff" d="M377.94,-250.62C394.9,-229.06 425.56,-194.35 460,-175.5 474.26,-167.69 491.78,-163.26 506.6,-160.75"/>
<polygon fill="#63b8ff" stroke="#63b8ff" points="375.17,-248.48 371.88,-258.55 380.73,-252.73 375.17,-248.48"/>
</g>
<!-- Node9 -->
<g id="node15" class="node">
<title>Node9</title>
<g id="a_node15"><a xlink:href="class_i_plug_v_s_t2.html" target="_top" xlink:title="VST2.4 API base class for an IPlug plug&#45;in.">
<polygon fill="white" stroke="#666666" points="571,-204 507,-204 507,-185 571,-185 571,-204"/>
<text text-anchor="middle" x="539" y="-192" font-family="Helvetica,sans-Serif" font-size="10.00">IPlugVST2</text>
</a>
</g>
</g>
<!-- Node2&#45;&gt;Node9 -->
<g id="edge12" class="edge">
<title>Node2&#45;&gt;Node9</title>
<path fill="none" stroke="#63b8ff" d="M386.82,-253.19C405.64,-240.44 433.46,-223.14 460,-212.5 474.83,-206.55 492.08,-202.32 506.58,-199.45"/>
<polygon fill="#63b8ff" stroke="#63b8ff" points="385.08,-250.14 378.85,-258.7 389.06,-255.9 385.08,-250.14"/>
</g>
<!-- Node12 -->
<g id="node17" class="node">
<title>Node12</title>
<g id="a_node17"><a xlink:href="class_i_plug_v_s_t3.html" target="_top" xlink:title="VST3 base class for a non&#45;distributed IPlug VST3 plug&#45;in.">
<polygon fill="white" stroke="#666666" points="740,-462 676,-462 676,-443 740,-443 740,-462"/>
<text text-anchor="middle" x="708" y="-450" font-family="Helvetica,sans-Serif" font-size="10.00">IPlugVST3</text>
</a>
</g>
</g>
<!-- Node2&#45;&gt;Node12 -->
<g id="edge14" class="edge">
<title>Node2&#45;&gt;Node12</title>
<path fill="none" stroke="#63b8ff" d="M374.43,-288.87C393.86,-324.22 435.82,-397 460,-412.5 495.29,-435.12 617.76,-446.37 675.9,-450.54"/>
<polygon fill="#63b8ff" stroke="#63b8ff" points="377.75,-287.64 369.89,-280.53 371.6,-290.99 377.75,-287.64"/>
</g>
<!-- Node21 -->
<g id="node18" class="node">
<title>Node21</title>
<g id="a_node18"><a xlink:href="class_i_plug_w_a_m.html" target="_top" xlink:title="WebAudioModule (WAM) API base class.">
<polygon fill="white" stroke="#666666" points="570.5,-93 507.5,-93 507.5,-74 570.5,-74 570.5,-93"/>
<text text-anchor="middle" x="539" y="-81" font-family="Helvetica,sans-Serif" font-size="10.00">IPlugWAM</text>
</a>
</g>
</g>
<!-- Node2&#45;&gt;Node21 -->
<g id="edge17" class="edge">
<title>Node2&#45;&gt;Node21</title>
<path fill="none" stroke="#63b8ff" d="M380.58,-251.68C393.65,-236.94 411.67,-215 424,-193.5 445.84,-155.41 426.77,-130.2 460,-101.5 472.94,-90.33 491.45,-85.74 507.19,-83.98"/>
<polygon fill="#63b8ff" stroke="#63b8ff" points="378.3,-248.98 374.19,-258.74 383.49,-253.67 378.3,-248.98"/>
</g>
<!-- Node23 -->
<g id="node19" class="node">
<title>Node23</title>
<g id="a_node19"><a xlink:href="class_i_plug_web.html" target="_top" xlink:title="This is used for the UI &quot;editor&quot; &#45; controller side of a WAM or remote editors that communicate with d...">
<polygon fill="white" stroke="#666666" points="568.5,-317 509.5,-317 509.5,-298 568.5,-298 568.5,-317"/>
<text text-anchor="middle" x="539" y="-305" font-family="Helvetica,sans-Serif" font-size="10.00">IPlugWeb</text>
</a>
</g>
</g>
<!-- Node2&#45;&gt;Node23 -->
<g id="edge18" class="edge">
<title>Node2&#45;&gt;Node23</title>
<path fill="none" stroke="#63b8ff" d="M413.19,-280.24C444.14,-287 483.01,-295.49 509.08,-301.18"/>
<polygon fill="#63b8ff" stroke="#63b8ff" points="414.18,-276.88 403.66,-278.16 412.69,-283.72 414.18,-276.88"/>
</g>
<!-- Node10 -->
<g id="node16" class="node">
<title>Node10</title>
<g id="a_node16"><a xlink:href="class_i_plug_reaper_v_s_t2.html" target="_top" xlink:title="Reaper specific VST2.4 API base class for an IPlug plug&#45;in.">
<polygon fill="white" stroke="#666666" points="755.5,-204 660.5,-204 660.5,-185 755.5,-185 755.5,-204"/>
<text text-anchor="middle" x="708" y="-192" font-family="Helvetica,sans-Serif" font-size="10.00">IPlugReaperVST2</text>
</a>
</g>
</g>
<!-- Node9&#45;&gt;Node10 -->
<g id="edge13" class="edge">
<title>Node9&#45;&gt;Node10</title>
<path fill="none" stroke="#63b8ff" d="M582.87,-194.5C606.55,-194.5 635.99,-194.5 660.26,-194.5"/>
<polygon fill="#63b8ff" stroke="#63b8ff" points="582.92,-191 572.92,-194.5 582.92,-198 582.92,-191"/>
</g>
<!-- Node13 -->
<g id="node21" class="node">
<title>Node13</title>
<g id="a_node21"><a xlink:title=" ">
<polygon fill="#e0e0e0" stroke="#999999" points="614,-489.5 464,-489.5 464,-459.5 614,-459.5 614,-489.5"/>
<text text-anchor="start" x="472" y="-477.5" font-family="Helvetica,sans-Serif" font-size="10.00">Steinberg::Vst::ChannelContext</text>
<text text-anchor="middle" x="539" y="-466.5" font-family="Helvetica,sans-Serif" font-size="10.00">::IInfoListener</text>
</a>
</g>
</g>
<!-- Node13&#45;&gt;Node14 -->
<g id="edge21" class="edge">
<title>Node13&#45;&gt;Node14</title>
<path fill="none" stroke="#63b8ff" d="M604.67,-493.86C609.23,-495.64 613.71,-497.52 618,-499.5 646.21,-512.5 676.44,-532.67 693.41,-544.64"/>
<polygon fill="#63b8ff" stroke="#63b8ff" points="605.96,-490.6 595.36,-490.42 603.53,-497.17 605.96,-490.6"/>
</g>
<!-- Node13&#45;&gt;Node12 -->
<g id="edge20" class="edge">
<title>Node13&#45;&gt;Node12</title>
<path fill="none" stroke="#63b8ff" d="M625.41,-463.25C643.39,-460.88 661.26,-458.53 675.67,-456.63"/>
<polygon fill="#63b8ff" stroke="#63b8ff" points="625.18,-459.75 615.72,-464.52 626.09,-466.69 625.18,-459.75"/>
</g>
<!-- Node16 -->
<g id="node22" class="node">
<title>Node16</title>
<g id="a_node22"><a xlink:title=" ">
<polygon fill="#e0e0e0" stroke="#999999" points="609,-564 469,-564 469,-545 609,-545 609,-564"/>
<text text-anchor="middle" x="539" y="-552" font-family="Helvetica,sans-Serif" font-size="10.00">Steinberg::Vst::IMidiMapping</text>
</a>
</g>
</g>
<!-- Node16&#45;&gt;Node14 -->
<g id="edge23" class="edge">
<title>Node16&#45;&gt;Node14</title>
<path fill="none" stroke="#63b8ff" d="M620.59,-554.5C632.35,-554.5 644.18,-554.5 655.16,-554.5"/>
<polygon fill="#63b8ff" stroke="#63b8ff" points="620.89,-551 610.89,-554.5 620.89,-558 620.89,-551"/>
</g>
<!-- Node16&#45;&gt;Node12 -->
<g id="edge22" class="edge">
<title>Node16&#45;&gt;Node12</title>
<path fill="none" stroke="#63b8ff" d="M609.54,-540.53C612.44,-539.3 615.28,-537.96 618,-536.5 653.77,-517.34 685.71,-480.01 699.62,-462.29"/>
<polygon fill="#63b8ff" stroke="#63b8ff" points="608.32,-537.24 600.16,-544.01 610.76,-543.81 608.32,-537.24"/>
</g>
<!-- Node4 -->
<g id="node23" class="node">
<title>Node4</title>
<g id="a_node23"><a xlink:href="class_i_plug_processor.html" target="_top" xlink:title="The base class for IPlug Audio Processing.">
<polygon fill="white" stroke="#666666" points="404.5,-185 321.5,-185 321.5,-166 404.5,-166 404.5,-185"/>
<text text-anchor="middle" x="363" y="-173" font-family="Helvetica,sans-Serif" font-size="10.00">IPlugProcessor</text>
</a>
</g>
</g>
<!-- Node4&#45;&gt;Node1 -->
<g id="edge24" class="edge">
<title>Node4&#45;&gt;Node1</title>
<path fill="none" stroke="#63b8ff" d="M383.23,-193.19C397.15,-207.25 415.04,-228.21 424,-250.5 457.22,-333.1 401.5,-582.39 460,-649.5 472.05,-663.33 492.42,-667.68 509.31,-668.65"/>
<polygon fill="#63b8ff" stroke="#63b8ff" points="385.89,-190.89 376.28,-186.42 381.01,-195.9 385.89,-190.89"/>
</g>
<!-- Node4&#45;&gt;Node7 -->
<g id="edge28" class="edge">
<title>Node4&#45;&gt;Node7</title>
<path fill="none" stroke="#63b8ff" d="M381.57,-193.25C394.91,-207.61 412.81,-228.93 424,-250.5 450.43,-301.44 418.55,-334.82 460,-374.5 472.28,-386.26 490.57,-391.12 506.36,-393"/>
<polygon fill="#63b8ff" stroke="#63b8ff" points="384.44,-191.18 375,-186.36 379.37,-196.01 384.44,-191.18"/>
</g>
<!-- Node4&#45;&gt;Node3 -->
<g id="edge25" class="edge">
<title>Node4&#45;&gt;Node3</title>
<path fill="none" stroke="#63b8ff" d="M397.37,-161.3C415.65,-153.87 438.83,-144.99 460,-138.5 476.08,-133.57 494.38,-129.28 509.22,-126.13"/>
<polygon fill="#63b8ff" stroke="#63b8ff" points="396.27,-157.97 388.36,-165.02 398.94,-164.44 396.27,-157.97"/>
</g>
<!-- Node4&#45;&gt;Node5 -->
<g id="edge26" class="edge">
<title>Node4&#45;&gt;Node5</title>
<path fill="none" stroke="#63b8ff" d="M397.77,-189.74C416,-197.12 439.01,-205.93 460,-212.5 477.16,-217.87 496.83,-222.65 512.13,-226.08"/>
<polygon fill="#63b8ff" stroke="#63b8ff" points="399.35,-186.61 388.77,-186.06 396.7,-193.09 399.35,-186.61"/>
</g>
<!-- Node4&#45;&gt;Node6 -->
<g id="edge27" class="edge">
<title>Node4&#45;&gt;Node6</title>
<path fill="none" stroke="#63b8ff" d="M416.16,-170.1C445.65,-167.05 481.54,-163.34 506.7,-160.74"/>
<polygon fill="#63b8ff" stroke="#63b8ff" points="415.89,-166.61 406.3,-171.12 416.61,-173.58 415.89,-166.61"/>
</g>
<!-- Node4&#45;&gt;Node9 -->
<g id="edge29" class="edge">
<title>Node4&#45;&gt;Node9</title>
<path fill="none" stroke="#63b8ff" d="M416.16,-181.2C445.65,-184.42 481.54,-188.33 506.7,-191.08"/>
<polygon fill="#63b8ff" stroke="#63b8ff" points="416.62,-177.73 406.3,-180.12 415.86,-184.68 416.62,-177.73"/>
</g>
<!-- Node4&#45;&gt;Node21 -->
<g id="edge33" class="edge">
<title>Node4&#45;&gt;Node21</title>
<path fill="none" stroke="#63b8ff" d="M381.59,-158.11C399.73,-141.15 429.59,-115.88 460,-101.5 474.82,-94.49 492.56,-90.12 507.36,-87.44"/>
<polygon fill="#63b8ff" stroke="#63b8ff" points="379.57,-155.19 374.76,-164.63 384.41,-160.25 379.57,-155.19"/>
</g>
<!-- Node11 -->
<g id="node24" class="node">
<title>Node11</title>
<g id="a_node24"><a xlink:href="class_i_plug_v_s_t3_processor_base.html" target="_top" xlink:title="Shared VST3 processor code.">
<polygon fill="white" stroke="#666666" points="604.5,-56 473.5,-56 473.5,-37 604.5,-37 604.5,-56"/>
<text text-anchor="middle" x="539" y="-44" font-family="Helvetica,sans-Serif" font-size="10.00">IPlugVST3ProcessorBase</text>
</a>
</g>
</g>
<!-- Node4&#45;&gt;Node11 -->
<g id="edge30" class="edge">
<title>Node4&#45;&gt;Node11</title>
<path fill="none" stroke="#63b8ff" d="M379.02,-156.89C403.38,-126.91 449.81,-70.64 460,-64.5 465.36,-61.27 471.24,-58.62 477.3,-56.45"/>
<polygon fill="#63b8ff" stroke="#63b8ff" points="376.49,-154.46 372.92,-164.43 381.93,-158.86 376.49,-154.46"/>
</g>
<!-- Node11&#45;&gt;Node19 -->
<g id="edge32" class="edge">
<title>Node11&#45;&gt;Node19</title>
<path fill="none" stroke="#63b8ff" d="M615.73,-46.5C628.55,-46.5 641.61,-46.5 653.69,-46.5"/>
<polygon fill="#63b8ff" stroke="#63b8ff" points="616.08,-43 606.08,-46.5 616.08,-50 616.08,-43"/>
</g>
<!-- Node11&#45;&gt;Node12 -->
<g id="edge31" class="edge">
<title>Node11&#45;&gt;Node12</title>
<path fill="none" stroke="#63b8ff" d="M614.23,-61.12C615.54,-62.18 616.8,-63.3 618,-64.5 621.53,-68.04 691.46,-382.47 704.81,-442.62"/>
<polygon fill="#63b8ff" stroke="#63b8ff" points="616.44,-58.38 606.14,-55.93 612.66,-64.27 616.44,-58.38"/>
</g>
<!-- Node17 -->
<g id="node25" class="node">
<title>Node17</title>
<g id="a_node25"><a xlink:href="class_i_plug_v_s_t3_controller_base.html" target="_top" xlink:title="Shared VST3 controller code.">
<polygon fill="white" stroke="#666666" points="603,-527 475,-527 475,-508 603,-508 603,-527"/>
<text text-anchor="middle" x="539" y="-515" font-family="Helvetica,sans-Serif" font-size="10.00">IPlugVST3ControllerBase</text>
</a>
</g>
</g>
<!-- Node17&#45;&gt;Node14 -->
<g id="edge35" class="edge">
<title>Node17&#45;&gt;Node14</title>
<path fill="none" stroke="#63b8ff" d="M595.75,-529.85C617.33,-534.63 641.7,-540.03 662.12,-544.56"/>
<polygon fill="#63b8ff" stroke="#63b8ff" points="596.75,-526.49 586.23,-527.74 595.24,-533.32 596.75,-526.49"/>
</g>
<!-- Node17&#45;&gt;Node12 -->
<g id="edge34" class="edge">
<title>Node17&#45;&gt;Node12</title>
<path fill="none" stroke="#63b8ff" d="M599.91,-504.46C606.08,-502.65 612.21,-500.67 618,-498.5 644.55,-488.57 673.37,-472.63 690.81,-462.37"/>
<polygon fill="#63b8ff" stroke="#63b8ff" points="598.98,-501.08 590.27,-507.11 600.84,-507.83 598.98,-501.08"/>
</g>
<!-- Node22 -->
<g id="node26" class="node">
<title>Node22</title>
<g id="a_node26"><a xlink:title=" ">
<polygon fill="#e0e0e0" stroke="#999999" points="393.5,-93 332.5,-93 332.5,-74 393.5,-74 393.5,-93"/>
<text text-anchor="middle" x="363" y="-81" font-family="Helvetica,sans-Serif" font-size="10.00">Processor</text>
</a>
</g>
</g>
<!-- Node22&#45;&gt;Node21 -->
<g id="edge36" class="edge">
<title>Node22&#45;&gt;Node21</title>
<path fill="none" stroke="#63b8ff" d="M405.28,-83.5C436.49,-83.5 478.66,-83.5 507.02,-83.5"/>
<polygon fill="#63b8ff" stroke="#63b8ff" points="405.43,-80 395.43,-83.5 405.43,-87 405.43,-80"/>
</g>
<!-- Node18 -->
<g id="node27" class="node">
<title>Node18</title>
<g id="a_node27"><a xlink:title=" ">
<polygon fill="#e0e0e0" stroke="#999999" points="618,-365.5 460,-365.5 460,-335.5 618,-335.5 618,-365.5"/>
<text text-anchor="start" x="468" y="-353.5" font-family="Helvetica,sans-Serif" font-size="10.00">Steinberg::Vst::SingleComponent</text>
<text text-anchor="middle" x="539" y="-342.5" font-family="Helvetica,sans-Serif" font-size="10.00">Effect</text>
</a>
</g>
</g>
<!-- Node18&#45;&gt;Node12 -->
<g id="edge37" class="edge">
<title>Node18&#45;&gt;Node12</title>
<path fill="none" stroke="#63b8ff" d="M607.94,-370.39C611.4,-371.99 614.78,-373.69 618,-375.5 651.14,-394.11 683.1,-426.32 698.11,-442.55"/>
<polygon fill="#63b8ff" stroke="#63b8ff" points="609.34,-367.18 598.76,-366.52 606.61,-373.63 609.34,-367.18"/>
</g>
</g>
</svg>
