<?xml version="1.0" encoding="UTF-8" standalone="no"?>
<!DOCTYPE svg PUBLIC "-//W3C//DTD SVG 1.1//EN"
 "http://www.w3.org/Graphics/SVG/1.1/DTD/svg11.dtd">
<!-- Generated by graphviz version 2.36.0 (20140111.2315)
 -->
<!-- Title: Graphical Class Hierarchy Pages: 1 -->
<svg width="654pt" height="370pt"
 viewBox="0.00 0.00 654.00 370.00" xmlns="http://www.w3.org/2000/svg" xmlns:xlink="http://www.w3.org/1999/xlink">
<g id="graph0" class="graph" transform="scale(1 1) rotate(0) translate(4 366)">
<title>Graphical Class Hierarchy</title>
<polygon fill="white" stroke="none" points="-4,4 -4,-366 650,-366 650,4 -4,4"/>
<!-- Node1 -->
<g id="node1" class="node"><title>Node1</title>
<polygon fill="white" stroke="#bfbfbf" points="248,-304.5 248,-323.5 370,-323.5 370,-304.5 248,-304.5"/>
<text text-anchor="middle" x="309" y="-311.5" font-family="Helvetica,sans-Serif" font-size="10.00">AAX_CIPlugParameters</text>
</g>
<!-- Node2 -->
<g id="node2" class="node"><title>Node2</title>
<g id="a_node2"><a xlink:href="class_i_plug_a_a_x.html" target="_top" xlink:title="AAX API base class for an IPlug plug&#45;in. ">
<polygon fill="white" stroke="black" points="430.5,-304.5 430.5,-323.5 489.5,-323.5 489.5,-304.5 430.5,-304.5"/>
<text text-anchor="middle" x="460" y="-311.5" font-family="Helvetica,sans-Serif" font-size="10.00">IPlugAAX</text>
</a>
</g>
</g>
<!-- Node1&#45;&gt;Node2 -->
<g id="edge1" class="edge"><title>Node1&#45;&gt;Node2</title>
<path fill="none" stroke="midnightblue" d="M380.526,-314C398.217,-314 416.208,-314 430.493,-314"/>
<polygon fill="midnightblue" stroke="midnightblue" points="380.175,-310.5 370.175,-314 380.174,-317.5 380.175,-310.5"/>
</g>
<!-- Node3 -->
<g id="node3" class="node"><title>Node3</title>
<polygon fill="white" stroke="#bfbfbf" points="275,-342.5 275,-361.5 343,-361.5 343,-342.5 275,-342.5"/>
<text text-anchor="middle" x="309" y="-349.5" font-family="Helvetica,sans-Serif" font-size="10.00">AudioEffect</text>
</g>
<!-- Node4 -->
<g id="node4" class="node"><title>Node4</title>
<g id="a_node4"><a xlink:href="class_i_plug_v_s_t3_processor.html" target="_top" xlink:title="VST3 Processor base class for a distributed IPlug VST3 plug&#45;in. ">
<polygon fill="white" stroke="black" points="406,-342.5 406,-361.5 514,-361.5 514,-342.5 406,-342.5"/>
<text text-anchor="middle" x="460" y="-349.5" font-family="Helvetica,sans-Serif" font-size="10.00">IPlugVST3Processor</text>
</a>
</g>
</g>
<!-- Node3&#45;&gt;Node4 -->
<g id="edge2" class="edge"><title>Node3&#45;&gt;Node4</title>
<path fill="none" stroke="midnightblue" d="M353.442,-352C369.829,-352 388.659,-352 405.835,-352"/>
<polygon fill="midnightblue" stroke="midnightblue" points="353.068,-348.5 343.068,-352 353.068,-355.5 353.068,-348.5"/>
</g>
<!-- Node5 -->
<g id="node5" class="node"><title>Node5</title>
<polygon fill="white" stroke="#bfbfbf" points="262.5,-76.5 262.5,-95.5 355.5,-95.5 355.5,-76.5 262.5,-76.5"/>
<text text-anchor="middle" x="309" y="-83.5" font-family="Helvetica,sans-Serif" font-size="10.00">EditControllerEx1</text>
</g>
<!-- Node6 -->
<g id="node6" class="node"><title>Node6</title>
<g id="a_node6"><a xlink:href="class_i_plug_v_s_t3_controller.html" target="_top" xlink:title="VST3 Controller base class for a distributed IPlug VST3 plug&#45;in. ">
<polygon fill="white" stroke="black" points="407,-76.5 407,-95.5 513,-95.5 513,-76.5 407,-76.5"/>
<text text-anchor="middle" x="460" y="-83.5" font-family="Helvetica,sans-Serif" font-size="10.00">IPlugVST3Controller</text>
</a>
</g>
</g>
<!-- Node5&#45;&gt;Node6 -->
<g id="edge3" class="edge"><title>Node5&#45;&gt;Node6</title>
<path fill="none" stroke="midnightblue" d="M365.661,-86C379.199,-86 393.624,-86 406.985,-86"/>
<polygon fill="midnightblue" stroke="midnightblue" points="365.515,-82.5001 355.515,-86 365.514,-89.5001 365.515,-82.5001"/>
</g>
<!-- Node7 -->
<g id="node7" class="node"><title>Node7</title>
<g id="a_node7"><a xlink:href="class_i_editor_delegate.html" target="_top" xlink:title="This pure virtual interface delegates communication in both directions between a UI editor and someth...">
<polygon fill="white" stroke="black" points="0,-171.5 0,-190.5 84,-190.5 84,-171.5 0,-171.5"/>
<text text-anchor="middle" x="42" y="-178.5" font-family="Helvetica,sans-Serif" font-size="10.00">IEditorDelegate</text>
</a>
</g>
</g>
<!-- Node8 -->
<g id="node8" class="node"><title>Node8</title>
<g id="a_node8"><a xlink:href="class_i_g_editor_delegate.html" target="_top" xlink:title="An editor delgate base class for a SOMETHING that uses IGraphics for it&#39;s UI. ">
<polygon fill="white" stroke="black" points="120,-152.5 120,-171.5 212,-171.5 212,-152.5 120,-152.5"/>
<text text-anchor="middle" x="166" y="-159.5" font-family="Helvetica,sans-Serif" font-size="10.00">IGEditorDelegate</text>
</a>
</g>
</g>
<!-- Node7&#45;&gt;Node8 -->
<g id="edge4" class="edge"><title>Node7&#45;&gt;Node8</title>
<path fill="none" stroke="midnightblue" d="M94.1911,-173.028C102.753,-171.694 111.58,-170.32 119.972,-169.012"/>
<polygon fill="midnightblue" stroke="midnightblue" points="93.6459,-169.57 84.3036,-174.567 94.7231,-176.487 93.6459,-169.57"/>
</g>
<!-- Node9 -->
<g id="node9" class="node"><title>Node9</title>
<g id="a_node9"><a xlink:href="class_i_plugin_base.html" target="_top" xlink:title="Base class that contains plug&#45;in info and state manipulation methods. ">
<polygon fill="white" stroke="black" points="131.5,-190.5 131.5,-209.5 200.5,-209.5 200.5,-190.5 131.5,-190.5"/>
<text text-anchor="middle" x="166" y="-197.5" font-family="Helvetica,sans-Serif" font-size="10.00">IPluginBase</text>
</a>
</g>
</g>
<!-- Node7&#45;&gt;Node9 -->
<g id="edge5" class="edge"><title>Node7&#45;&gt;Node9</title>
<path fill="none" stroke="midnightblue" d="M94.2214,-188.977C106.793,-190.935 119.933,-192.981 131.431,-194.772"/>
<polygon fill="midnightblue" stroke="midnightblue" points="94.7231,-185.513 84.3036,-187.433 93.6459,-192.43 94.7231,-185.513"/>
</g>
<!-- Node10 -->
<g id="node10" class="node"><title>Node10</title>
<g id="a_node10"><a xlink:href="class_i_plug_a_p_i_base.html" target="_top" xlink:title="The base class of an IPlug plug&#45;in, which interacts with the different plug&#45;in APIs. ">
<polygon fill="white" stroke="black" points="270,-190.5 270,-209.5 348,-209.5 348,-190.5 270,-190.5"/>
<text text-anchor="middle" x="309" y="-197.5" font-family="Helvetica,sans-Serif" font-size="10.00">IPlugAPIBase</text>
</a>
</g>
</g>
<!-- Node9&#45;&gt;Node10 -->
<g id="edge6" class="edge"><title>Node9&#45;&gt;Node10</title>
<path fill="none" stroke="midnightblue" d="M210.902,-200C229.76,-200 251.594,-200 269.776,-200"/>
<polygon fill="midnightblue" stroke="midnightblue" points="210.773,-196.5 200.773,-200 210.773,-203.5 210.773,-196.5"/>
</g>
<!-- Node10&#45;&gt;Node2 -->
<g id="edge7" class="edge"><title>Node10&#45;&gt;Node2</title>
<path fill="none" stroke="midnightblue" d="M344.34,-214.096C353.378,-218.879 362.646,-224.858 370,-232 393.134,-254.468 381.292,-274.276 406,-295 412.965,-300.842 421.864,-304.947 430.373,-307.806"/>
<polygon fill="midnightblue" stroke="midnightblue" points="345.612,-210.821 335.094,-209.546 342.521,-217.102 345.612,-210.821"/>
</g>
<!-- Node10&#45;&gt;Node4 -->
<g id="edge14" class="edge"><title>Node10&#45;&gt;Node4</title>
<path fill="none" stroke="midnightblue" d="M346.865,-214.176C355.35,-218.821 363.715,-224.712 370,-232 401.122,-268.09 372.333,-299.272 406,-333 409.867,-336.874 414.578,-339.963 419.58,-342.424"/>
<polygon fill="midnightblue" stroke="midnightblue" points="348.217,-210.939 337.705,-209.618 345.098,-217.206 348.217,-210.939"/>
</g>
<!-- Node10&#45;&gt;Node6 -->
<g id="edge13" class="edge"><title>Node10&#45;&gt;Node6</title>
<path fill="none" stroke="midnightblue" d="M357.681,-189.074C362.128,-186.861 366.334,-184.199 370,-181 398.16,-156.424 378.307,-130.1 406,-105 410.273,-101.127 415.392,-98.03 420.739,-95.557"/>
<polygon fill="midnightblue" stroke="midnightblue" points="356.168,-185.913 348.309,-193.018 358.883,-192.365 356.168,-185.913"/>
</g>
<!-- Node11 -->
<g id="node11" class="node"><title>Node11</title>
<g id="a_node11"><a xlink:href="class_i_plug_a_p_p.html" target="_top" xlink:title="Standalone application base class for an IPlug plug&#45;in. ">
<polygon fill="white" stroke="black" points="430.5,-266.5 430.5,-285.5 489.5,-285.5 489.5,-266.5 430.5,-266.5"/>
<text text-anchor="middle" x="460" y="-273.5" font-family="Helvetica,sans-Serif" font-size="10.00">IPlugAPP</text>
</a>
</g>
</g>
<!-- Node10&#45;&gt;Node11 -->
<g id="edge8" class="edge"><title>Node10&#45;&gt;Node11</title>
<path fill="none" stroke="midnightblue" d="M338.143,-214.14C348.326,-219.483 359.819,-225.779 370,-232 386.622,-242.156 388.682,-248.081 406,-257 413.647,-260.939 422.3,-264.414 430.363,-267.28"/>
<polygon fill="midnightblue" stroke="midnightblue" points="339.725,-211.018 329.235,-209.531 336.508,-217.235 339.725,-211.018"/>
</g>
<!-- Node12 -->
<g id="node12" class="node"><title>Node12</title>
<g id="a_node12"><a xlink:href="class_i_plug_a_u.html" target="_top" xlink:title="AudioUnit v2 API base class for an IPlug plug&#45;in. ">
<polygon fill="white" stroke="black" points="433.5,-228.5 433.5,-247.5 486.5,-247.5 486.5,-228.5 433.5,-228.5"/>
<text text-anchor="middle" x="460" y="-235.5" font-family="Helvetica,sans-Serif" font-size="10.00">IPlugAU</text>
</a>
</g>
</g>
<!-- Node10&#45;&gt;Node12 -->
<g id="edge9" class="edge"><title>Node10&#45;&gt;Node12</title>
<path fill="none" stroke="midnightblue" d="M357.312,-212.066C382.416,-218.468 412.293,-226.088 433.142,-231.405"/>
<polygon fill="midnightblue" stroke="midnightblue" points="358.154,-208.669 347.599,-209.589 356.424,-215.452 358.154,-208.669"/>
</g>
<!-- Node13 -->
<g id="node13" class="node"><title>Node13</title>
<g id="a_node13"><a xlink:href="class_i_plug_v_s_t2.html" target="_top" xlink:title="VST2.4 API base class for an IPlug plug&#45;in. ">
<polygon fill="white" stroke="black" points="428,-190.5 428,-209.5 492,-209.5 492,-190.5 428,-190.5"/>
<text text-anchor="middle" x="460" y="-197.5" font-family="Helvetica,sans-Serif" font-size="10.00">IPlugVST2</text>
</a>
</g>
</g>
<!-- Node10&#45;&gt;Node13 -->
<g id="edge10" class="edge"><title>Node10&#45;&gt;Node13</title>
<path fill="none" stroke="midnightblue" d="M358.529,-200C381.283,-200 407.731,-200 427.779,-200"/>
<polygon fill="midnightblue" stroke="midnightblue" points="358.371,-196.5 348.371,-200 358.371,-203.5 358.371,-196.5"/>
</g>
<!-- Node15 -->
<g id="node15" class="node"><title>Node15</title>
<g id="a_node15"><a xlink:href="class_i_plug_v_s_t3.html" target="_top" xlink:title="VST3 base class for a non&#45;distributed IPlug VST3 plug&#45;in. ">
<polygon fill="white" stroke="black" points="428,-152.5 428,-171.5 492,-171.5 492,-152.5 428,-152.5"/>
<text text-anchor="middle" x="460" y="-159.5" font-family="Helvetica,sans-Serif" font-size="10.00">IPlugVST3</text>
</a>
</g>
</g>
<!-- Node10&#45;&gt;Node15 -->
<g id="edge12" class="edge"><title>Node10&#45;&gt;Node15</title>
<path fill="none" stroke="midnightblue" d="M357.531,-187.878C380.569,-182.002 407.585,-175.113 427.946,-169.92"/>
<polygon fill="midnightblue" stroke="midnightblue" points="356.424,-184.548 347.599,-190.411 358.154,-191.331 356.424,-184.548"/>
</g>
<!-- Node16 -->
<g id="node16" class="node"><title>Node16</title>
<g id="a_node16"><a xlink:href="class_i_plug_w_a_m.html" target="_top" xlink:title="WebAudioModule (WAM) API base class. ">
<polygon fill="white" stroke="black" points="428,-38.5 428,-57.5 492,-57.5 492,-38.5 428,-38.5"/>
<text text-anchor="middle" x="460" y="-45.5" font-family="Helvetica,sans-Serif" font-size="10.00">IPlugWAM</text>
</a>
</g>
</g>
<!-- Node10&#45;&gt;Node16 -->
<g id="edge15" class="edge"><title>Node10&#45;&gt;Node16</title>
<path fill="none" stroke="midnightblue" d="M357.796,-189.754C362.286,-187.411 366.469,-184.534 370,-181 407.556,-143.414 369.156,-105.284 406,-67 411.897,-60.8726 419.907,-56.7155 427.913,-53.8972"/>
<polygon fill="midnightblue" stroke="midnightblue" points="356.065,-186.688 348.259,-193.852 358.828,-193.12 356.065,-186.688"/>
</g>
<!-- Node17 -->
<g id="node17" class="node"><title>Node17</title>
<g id="a_node17"><a xlink:href="class_i_plug_web.html" target="_top" xlink:title="This is used for the UI &quot;editor&quot; &#45; controller side of a WAM or remote editors that communicate with d...">
<polygon fill="white" stroke="black" points="430.5,-114.5 430.5,-133.5 489.5,-133.5 489.5,-114.5 430.5,-114.5"/>
<text text-anchor="middle" x="460" y="-121.5" font-family="Helvetica,sans-Serif" font-size="10.00">IPlugWeb</text>
</a>
</g>
</g>
<!-- Node10&#45;&gt;Node17 -->
<g id="edge16" class="edge"><title>Node10&#45;&gt;Node17</title>
<path fill="none" stroke="midnightblue" d="M357.648,-187.422C361.958,-185.546 366.145,-183.414 370,-181 389.717,-168.651 386.519,-155.717 406,-143 413.367,-138.191 422.104,-134.415 430.338,-131.54"/>
<polygon fill="midnightblue" stroke="midnightblue" points="356.15,-184.249 348.098,-191.135 358.687,-190.774 356.15,-184.249"/>
</g>
<!-- Node14 -->
<g id="node14" class="node"><title>Node14</title>
<g id="a_node14"><a xlink:href="class_i_plug_reaper_v_s_t2.html" target="_top" xlink:title="Reaper specific VST2.4 API base class for an IPlug plug&#45;in. ">
<polygon fill="white" stroke="black" points="550.5,-190.5 550.5,-209.5 645.5,-209.5 645.5,-190.5 550.5,-190.5"/>
<text text-anchor="middle" x="598" y="-197.5" font-family="Helvetica,sans-Serif" font-size="10.00">IPlugReaperVST2</text>
</a>
</g>
</g>
<!-- Node13&#45;&gt;Node14 -->
<g id="edge11" class="edge"><title>Node13&#45;&gt;Node14</title>
<path fill="none" stroke="midnightblue" d="M502.336,-200C517.53,-200 534.834,-200 550.455,-200"/>
<polygon fill="midnightblue" stroke="midnightblue" points="502.201,-196.5 492.201,-200 502.201,-203.5 502.201,-196.5"/>
</g>
<!-- Node18 -->
<g id="node18" class="node"><title>Node18</title>
<polygon fill="white" stroke="#bfbfbf" points="272,-114.5 272,-133.5 346,-133.5 346,-114.5 272,-114.5"/>
<text text-anchor="middle" x="309" y="-121.5" font-family="Helvetica,sans-Serif" font-size="10.00">IMidiMapping</text>
</g>
<!-- Node18&#45;&gt;Node6 -->
<g id="edge17" class="edge"><title>Node18&#45;&gt;Node6</title>
<path fill="none" stroke="midnightblue" d="M355.806,-112.318C376.948,-106.926 401.729,-100.606 421.707,-95.5109"/>
<polygon fill="midnightblue" stroke="midnightblue" points="354.894,-108.939 346.069,-114.801 356.624,-115.721 354.894,-108.939"/>
</g>
<!-- Node19 -->
<g id="node19" class="node"><title>Node19</title>
<g id="a_node19"><a xlink:href="class_i_plug_processor.html" target="_top" xlink:title="IPlugProcessor\&lt; float \&gt;">
<polygon fill="white" stroke="black" points="249,-0.5 249,-19.5 369,-19.5 369,-0.5 249,-0.5"/>
<text text-anchor="middle" x="309" y="-7.5" font-family="Helvetica,sans-Serif" font-size="10.00">IPlugProcessor&lt; float &gt;</text>
</a>
</g>
</g>
<!-- Node19&#45;&gt;Node16 -->
<g id="edge18" class="edge"><title>Node19&#45;&gt;Node16</title>
<path fill="none" stroke="midnightblue" d="M357.531,-22.122C380.569,-27.9975 407.585,-34.8875 427.946,-40.0802"/>
<polygon fill="midnightblue" stroke="midnightblue" points="358.154,-18.6689 347.599,-19.589 356.424,-25.4518 358.154,-18.6689"/>
</g>
<!-- Node20 -->
<g id="node20" class="node"><title>Node20</title>
<g id="a_node20"><a xlink:href="class_i_plug_processor.html" target="_top" xlink:title="IPlugProcessor\&lt; PLUG\l_SAMPLE_DST \&gt;">
<polygon fill="white" stroke="black" points="249.5,-242 249.5,-272 368.5,-272 368.5,-242 249.5,-242"/>
<text text-anchor="start" x="257.5" y="-260" font-family="Helvetica,sans-Serif" font-size="10.00">IPlugProcessor&lt; PLUG</text>
<text text-anchor="middle" x="309" y="-249" font-family="Helvetica,sans-Serif" font-size="10.00">_SAMPLE_DST &gt;</text>
</a>
</g>
</g>
<!-- Node20&#45;&gt;Node2 -->
<g id="edge19" class="edge"><title>Node20&#45;&gt;Node2</title>
<path fill="none" stroke="midnightblue" d="M356.726,-275.85C372.35,-282.059 389.888,-288.925 406,-295 414.323,-298.138 423.426,-301.446 431.703,-304.407"/>
<polygon fill="midnightblue" stroke="midnightblue" points="357.859,-272.534 347.274,-272.082 355.267,-279.037 357.859,-272.534"/>
</g>
<!-- Node20&#45;&gt;Node4 -->
<g id="edge24" class="edge"><title>Node20&#45;&gt;Node4</title>
<path fill="none" stroke="midnightblue" d="M345.468,-277.418C353.795,-282.76 362.439,-288.779 370,-295 387.965,-309.782 386.519,-320.283 406,-333 411.73,-336.74 418.289,-339.855 424.795,-342.408"/>
<polygon fill="midnightblue" stroke="midnightblue" points="347.3,-274.436 336.963,-272.115 343.597,-280.376 347.3,-274.436"/>
</g>
<!-- Node20&#45;&gt;Node11 -->
<g id="edge20" class="edge"><title>Node20&#45;&gt;Node11</title>
<path fill="none" stroke="midnightblue" d="M378.904,-265.786C397.063,-268.102 415.668,-270.474 430.371,-272.349"/>
<polygon fill="midnightblue" stroke="midnightblue" points="379.251,-262.302 368.889,-264.509 378.366,-269.246 379.251,-262.302"/>
</g>
<!-- Node20&#45;&gt;Node12 -->
<g id="edge21" class="edge"><title>Node20&#45;&gt;Node12</title>
<path fill="none" stroke="midnightblue" d="M378.915,-248.212C398.23,-245.749 418.047,-243.222 433.137,-241.298"/>
<polygon fill="midnightblue" stroke="midnightblue" points="378.366,-244.754 368.889,-249.491 379.251,-251.698 378.366,-244.754"/>
</g>
<!-- Node20&#45;&gt;Node13 -->
<g id="edge22" class="edge"><title>Node20&#45;&gt;Node13</title>
<path fill="none" stroke="midnightblue" d="M356.726,-238.15C372.35,-231.941 389.888,-225.075 406,-219 414.323,-215.862 423.426,-212.554 431.703,-209.593"/>
<polygon fill="midnightblue" stroke="midnightblue" points="355.267,-234.963 347.274,-241.918 357.859,-241.466 355.267,-234.963"/>
</g>
<!-- Node20&#45;&gt;Node15 -->
<g id="edge23" class="edge"><title>Node20&#45;&gt;Node15</title>
<path fill="none" stroke="midnightblue" d="M345.468,-236.582C353.795,-231.24 362.439,-225.221 370,-219 387.965,-204.218 386.519,-193.717 406,-181 412.63,-176.672 420.37,-173.181 427.855,-170.43"/>
<polygon fill="midnightblue" stroke="midnightblue" points="343.597,-233.624 336.963,-241.885 347.3,-239.564 343.597,-233.624"/>
</g>
<!-- Node21 -->
<g id="node21" class="node"><title>Node21</title>
<polygon fill="white" stroke="#bfbfbf" points="278.5,-38.5 278.5,-57.5 339.5,-57.5 339.5,-38.5 278.5,-38.5"/>
<text text-anchor="middle" x="309" y="-45.5" font-family="Helvetica,sans-Serif" font-size="10.00">Processor</text>
</g>
<!-- Node21&#45;&gt;Node16 -->
<g id="edge25" class="edge"><title>Node21&#45;&gt;Node16</title>
<path fill="none" stroke="midnightblue" d="M349.86,-48C374.365,-48 405.302,-48 427.975,-48"/>
<polygon fill="midnightblue" stroke="midnightblue" points="349.794,-44.5001 339.794,-48 349.794,-51.5001 349.794,-44.5001"/>
</g>
<!-- Node22 -->
<g id="node22" class="node"><title>Node22</title>
<polygon fill="white" stroke="#bfbfbf" points="249,-152.5 249,-171.5 369,-171.5 369,-152.5 249,-152.5"/>
<text text-anchor="middle" x="309" y="-159.5" font-family="Helvetica,sans-Serif" font-size="10.00">SingleComponentEffect</text>
</g>
<!-- Node22&#45;&gt;Node15 -->
<g id="edge26" class="edge"><title>Node22&#45;&gt;Node15</title>
<path fill="none" stroke="midnightblue" d="M379.715,-162C396.531,-162 413.675,-162 427.698,-162"/>
<polygon fill="midnightblue" stroke="midnightblue" points="379.317,-158.5 369.317,-162 379.317,-165.5 379.317,-158.5"/>
</g>
</g>
</svg>
