<?xml version="1.0" encoding="UTF-8" standalone="no"?>
<!DOCTYPE svg PUBLIC "-//W3C//DTD SVG 1.1//EN"
 "http://www.w3.org/Graphics/SVG/1.1/DTD/svg11.dtd">
<!-- Generated by graphviz version 7.0.5 (20221223.1930)
 -->
<!-- Title: Graphical Class Hierarchy Pages: 1 -->
<svg width="199pt" height="64pt"
 viewBox="0.00 0.00 199.00 64.00" xmlns="http://www.w3.org/2000/svg" xmlns:xlink="http://www.w3.org/1999/xlink">
<g id="graph0" class="graph" transform="scale(1 1) rotate(0) translate(4 60)">
<title>Graphical Class Hierarchy</title>
<!-- Node0 -->
<g id="node1" class="node">
<title>Node0</title>
<g id="a_node1"><a xlink:href="class_i_graphics.html" target="_top" xlink:title="The lowest level base class of an IGraphics context.">
<polygon fill="white" stroke="#666666" points="59,-37 0,-37 0,-18 59,-18 59,-37"/>
<text text-anchor="middle" x="29.5" y="-25" font-family="Helvetica,sans-Serif" font-size="10.00">IGraphics</text>
</a>
</g>
</g>
<!-- Node1 -->
<g id="node2" class="node">
<title>Node1</title>
<g id="a_node2"><a xlink:href="class_i_graphics_nano_v_g.html" target="_top" xlink:title="IGraphics draw class using NanoVG">
<polygon fill="white" stroke="#666666" points="191,-56 95,-56 95,-37 191,-37 191,-56"/>
<text text-anchor="middle" x="143" y="-44" font-family="Helvetica,sans-Serif" font-size="10.00">IGraphicsNanoVG</text>
</a>
</g>
</g>
<!-- Node0&#45;&gt;Node1 -->
<g id="edge1" class="edge">
<title>Node0&#45;&gt;Node1</title>
<path fill="none" stroke="#63b8ff" d="M70.38,-34.3C78.29,-35.64 86.66,-37.07 94.78,-38.45"/>
<polygon fill="#63b8ff" stroke="#63b8ff" points="71.15,-30.88 60.71,-32.65 69.98,-37.78 71.15,-30.88"/>
</g>
<!-- Node2 -->
<g id="node3" class="node">
<title>Node2</title>
<g id="a_node3"><a xlink:href="class_i_graphics_skia.html" target="_top" xlink:title="IGraphics draw class using Skia.">
<polygon fill="white" stroke="#666666" points="182,-19 104,-19 104,0 182,0 182,-19"/>
<text text-anchor="middle" x="143" y="-7" font-family="Helvetica,sans-Serif" font-size="10.00">IGraphicsSkia</text>
</a>
</g>
</g>
<!-- Node0&#45;&gt;Node2 -->
<g id="edge2" class="edge">
<title>Node0&#45;&gt;Node2</title>
<path fill="none" stroke="#63b8ff" d="M70.52,-21.04C81.33,-19.29 93,-17.41 103.71,-15.68"/>
<polygon fill="#63b8ff" stroke="#63b8ff" points="70.02,-17.57 60.71,-22.62 71.14,-24.48 70.02,-17.57"/>
</g>
</g>
</svg>
