<?xml version="1.0" encoding="UTF-8" standalone="no"?>
<!DOCTYPE svg PUBLIC "-//W3C//DTD SVG 1.1//EN"
 "http://www.w3.org/Graphics/SVG/1.1/DTD/svg11.dtd">
<!-- Generated by graphviz version 2.36.0 (20140111.2315)
 -->
<!-- Title: Graphical Class Hierarchy Pages: 1 -->
<svg width="254pt" height="104pt"
 viewBox="0.00 0.00 254.00 104.00" xmlns="http://www.w3.org/2000/svg" xmlns:xlink="http://www.w3.org/1999/xlink">
<g id="graph0" class="graph" transform="scale(1 1) rotate(0) translate(4 100)">
<title>Graphical Class Hierarchy</title>
<polygon fill="white" stroke="none" points="-4,4 -4,-100 250,-100 250,4 -4,4"/>
<!-- Node1 -->
<g id="node1" class="node"><title>Node1</title>
<g id="a_node1"><a xlink:href="struct_i_param_1_1_shape.html" target="_top" xlink:title="Base struct for parameter shaping. ">
<polygon fill="white" stroke="black" points="0,-38.5 0,-57.5 82,-57.5 82,-38.5 0,-38.5"/>
<text text-anchor="middle" x="41" y="-45.5" font-family="Helvetica,sans-Serif" font-size="10.00">IParam::Shape</text>
</a>
</g>
</g>
<!-- Node2 -->
<g id="node2" class="node"><title>Node2</title>
<g id="a_node2"><a xlink:href="struct_i_param_1_1_shape_exp.html" target="_top" xlink:title="Exponential parameter shaping. ">
<polygon fill="white" stroke="black" points="132.5,-76.5 132.5,-95.5 231.5,-95.5 231.5,-76.5 132.5,-76.5"/>
<text text-anchor="middle" x="182" y="-83.5" font-family="Helvetica,sans-Serif" font-size="10.00">IParam::ShapeExp</text>
</a>
</g>
</g>
<!-- Node1&#45;&gt;Node2 -->
<g id="edge1" class="edge"><title>Node1&#45;&gt;Node2</title>
<path fill="none" stroke="midnightblue" d="M86.7953,-60.2462C105.955,-65.484 127.994,-71.5091 145.936,-76.4141"/>
<polygon fill="midnightblue" stroke="midnightblue" points="87.6446,-56.85 77.0756,-57.589 85.7986,-63.6022 87.6446,-56.85"/>
</g>
<!-- Node3 -->
<g id="node3" class="node"><title>Node3</title>
<g id="a_node3"><a xlink:href="struct_i_param_1_1_shape_linear.html" target="_top" xlink:title="Linear parameter shaping. ">
<polygon fill="white" stroke="black" points="128,-38.5 128,-57.5 236,-57.5 236,-38.5 128,-38.5"/>
<text text-anchor="middle" x="182" y="-45.5" font-family="Helvetica,sans-Serif" font-size="10.00">IParam::ShapeLinear</text>
</a>
</g>
</g>
<!-- Node1&#45;&gt;Node3 -->
<g id="edge2" class="edge"><title>Node1&#45;&gt;Node3</title>
<path fill="none" stroke="midnightblue" d="M92.5317,-48C104.051,-48 116.324,-48 127.945,-48"/>
<polygon fill="midnightblue" stroke="midnightblue" points="92.2046,-44.5001 82.2046,-48 92.2045,-51.5001 92.2046,-44.5001"/>
</g>
<!-- Node4 -->
<g id="node4" class="node"><title>Node4</title>
<g id="a_node4"><a xlink:href="struct_i_param_1_1_shape_pow_curve.html" target="_top" xlink:title="PowCurve parameter shaping. ">
<polygon fill="white" stroke="black" points="118,-0.5 118,-19.5 246,-19.5 246,-0.5 118,-0.5"/>
<text text-anchor="middle" x="182" y="-7.5" font-family="Helvetica,sans-Serif" font-size="10.00">IParam::ShapePowCurve</text>
</a>
</g>
</g>
<!-- Node1&#45;&gt;Node4 -->
<g id="edge3" class="edge"><title>Node1&#45;&gt;Node4</title>
<path fill="none" stroke="midnightblue" d="M86.7953,-35.7538C105.955,-30.516 127.994,-24.4909 145.936,-19.5859"/>
<polygon fill="midnightblue" stroke="midnightblue" points="85.7986,-32.3978 77.0756,-38.411 87.6446,-39.15 85.7986,-32.3978"/>
</g>
</g>
</svg>
