<?xml version="1.0" encoding="UTF-8" standalone="no"?>
<!DOCTYPE svg PUBLIC "-//W3C//DTD SVG 1.1//EN"
 "http://www.w3.org/Graphics/SVG/1.1/DTD/svg11.dtd">
<!-- Generated by graphviz version 7.0.5 (20221223.1930)
 -->
<!-- Title: Graphical Class Hierarchy Pages: 1 -->
<svg width="770pt" height="647pt"
 viewBox="0.00 0.00 770.00 647.00" xmlns="http://www.w3.org/2000/svg" xmlns:xlink="http://www.w3.org/1999/xlink">
<g id="graph0" class="graph" transform="scale(1 1) rotate(0) translate(4 643)">
<title>Graphical Class Hierarchy</title>
<!-- Node0 -->
<g id="node1" class="node">
<title>Node0</title>
<g id="a_node1"><a xlink:title=" ">
<polygon fill="#e0e0e0" stroke="#999999" points="424,-639 302,-639 302,-620 424,-620 424,-639"/>
<text text-anchor="middle" x="363" y="-627" font-family="Helvetica,sans-Serif" font-size="10.00">AAX_CIPlugParameters</text>
</a>
</g>
</g>
<!-- Node1 -->
<g id="node2" class="node">
<title>Node1</title>
<g id="a_node2"><a xlink:href="class_i_plug_a_a_x.html" target="_top" xlink:title="AAX API base class for an IPlug plug&#45;in.">
<polygon fill="white" stroke="#666666" points="568.5,-639 509.5,-639 509.5,-620 568.5,-620 568.5,-639"/>
<text text-anchor="middle" x="539" y="-627" font-family="Helvetica,sans-Serif" font-size="10.00">IPlugAAX</text>
</a>
</g>
</g>
<!-- Node0&#45;&gt;Node1 -->
<g id="edge1" class="edge">
<title>Node0&#45;&gt;Node1</title>
<path fill="none" stroke="#63b8ff" d="M435.71,-629.5C461.61,-629.5 489.38,-629.5 509.44,-629.5"/>
<polygon fill="#63b8ff" stroke="#63b8ff" points="435.88,-626 425.88,-629.5 435.88,-633 435.88,-626"/>
</g>
<!-- Node18 -->
<g id="node3" class="node">
<title>Node18</title>
<g id="a_node3"><a xlink:title=" ">
<polygon fill="#e0e0e0" stroke="#999999" points="604.5,-602 473.5,-602 473.5,-583 604.5,-583 604.5,-602"/>
<text text-anchor="middle" x="539" y="-590" font-family="Helvetica,sans-Serif" font-size="10.00">Steinberg::Vst::AudioEffect</text>
</a>
</g>
</g>
<!-- Node17 -->
<g id="node4" class="node">
<title>Node17</title>
<g id="a_node4"><a xlink:href="class_i_plug_v_s_t3_processor.html" target="_top" xlink:title="VST3 Processor API&#45;base class for a distributed IPlug VST3 plug&#45;in.">
<polygon fill="white" stroke="#666666" points="762,-564 654,-564 654,-545 762,-545 762,-564"/>
<text text-anchor="middle" x="708" y="-552" font-family="Helvetica,sans-Serif" font-size="10.00">IPlugVST3Processor</text>
</a>
</g>
</g>
<!-- Node18&#45;&gt;Node17 -->
<g id="edge2" class="edge">
<title>Node18&#45;&gt;Node17</title>
<path fill="none" stroke="#63b8ff" d="M594.81,-580.03C616.98,-574.98 642.21,-569.24 663.13,-564.48"/>
<polygon fill="#63b8ff" stroke="#63b8ff" points="594.33,-576.55 585.35,-582.18 595.88,-583.37 594.33,-576.55"/>
</g>
<!-- Node13 -->
<g id="node5" class="node">
<title>Node13</title>
<g id="a_node5"><a xlink:title=" ">
<polygon fill="#e0e0e0" stroke="#999999" points="616.5,-280 461.5,-280 461.5,-261 616.5,-261 616.5,-280"/>
<text text-anchor="middle" x="539" y="-268" font-family="Helvetica,sans-Serif" font-size="10.00">Steinberg::Vst::EditControllerEx1</text>
</a>
</g>
</g>
<!-- Node12 -->
<g id="node6" class="node">
<title>Node12</title>
<g id="a_node6"><a xlink:href="class_i_plug_v_s_t3_controller.html" target="_top" xlink:title="VST3 Controller API&#45;base class for a distributed IPlug VST3 plug&#45;in.">
<polygon fill="white" stroke="#666666" points="760.5,-317 655.5,-317 655.5,-298 760.5,-298 760.5,-317"/>
<text text-anchor="middle" x="708" y="-305" font-family="Helvetica,sans-Serif" font-size="10.00">IPlugVST3Controller</text>
</a>
</g>
</g>
<!-- Node13&#45;&gt;Node12 -->
<g id="edge3" class="edge">
<title>Node13&#45;&gt;Node12</title>
<path fill="none" stroke="#63b8ff" d="M595.75,-282.85C617.33,-287.63 641.7,-293.03 662.12,-297.56"/>
<polygon fill="#63b8ff" stroke="#63b8ff" points="596.75,-279.49 586.23,-280.74 595.24,-286.32 596.75,-279.49"/>
</g>
<!-- Node23 -->
<g id="node7" class="node">
<title>Node23</title>
<g id="a_node7"><a xlink:title=" ">
<polygon fill="#e0e0e0" stroke="#999999" points="147,-166 0,-166 0,-147 147,-147 147,-166"/>
<text text-anchor="middle" x="73.5" y="-154" font-family="Helvetica,sans-Serif" font-size="10.00">EDITOR_DELEGATE_CLASS</text>
</a>
</g>
</g>
<!-- Node22 -->
<g id="node8" class="node">
<title>Node22</title>
<g id="a_node8"><a xlink:href="class_i_plugin_base.html" target="_top" xlink:title="Base class that contains plug&#45;in info and state manipulation methods.">
<polygon fill="white" stroke="#666666" points="259,-185 190,-185 190,-166 259,-166 259,-185"/>
<text text-anchor="middle" x="224.5" y="-173" font-family="Helvetica,sans-Serif" font-size="10.00">IPluginBase</text>
</a>
</g>
</g>
<!-- Node23&#45;&gt;Node22 -->
<g id="edge4" class="edge">
<title>Node23&#45;&gt;Node22</title>
<path fill="none" stroke="#63b8ff" d="M158.66,-167.23C169.55,-168.62 180.15,-169.97 189.53,-171.17"/>
<polygon fill="#63b8ff" stroke="#63b8ff" points="159.12,-163.76 148.76,-165.97 158.23,-170.71 159.12,-163.76"/>
</g>
<!-- Node24 -->
<g id="node18" class="node">
<title>Node24</title>
<g id="a_node18"><a xlink:href="class_reaper_ext_base.html" target="_top" xlink:title="Reaper extension base class interface.">
<polygon fill="white" stroke="#666666" points="266,-148 183,-148 183,-129 266,-129 266,-148"/>
<text text-anchor="middle" x="224.5" y="-136" font-family="Helvetica,sans-Serif" font-size="10.00">ReaperExtBase</text>
</a>
</g>
</g>
<!-- Node23&#45;&gt;Node24 -->
<g id="edge17" class="edge">
<title>Node23&#45;&gt;Node24</title>
<path fill="none" stroke="#63b8ff" d="M158.59,-146.34C166.86,-145.34 174.97,-144.36 182.5,-143.45"/>
<polygon fill="#63b8ff" stroke="#63b8ff" points="158.26,-142.86 148.76,-147.53 159.1,-149.8 158.26,-142.86"/>
</g>
<!-- Node2 -->
<g id="node9" class="node">
<title>Node2</title>
<g id="a_node9"><a xlink:href="class_i_plug_a_p_i_base.html" target="_top" xlink:title="The base class of an IPlug plug&#45;in, which interacts with the different plug&#45;in APIs.">
<polygon fill="white" stroke="#666666" points="402,-185 324,-185 324,-166 402,-166 402,-185"/>
<text text-anchor="middle" x="363" y="-173" font-family="Helvetica,sans-Serif" font-size="10.00">IPlugAPIBase</text>
</a>
</g>
</g>
<!-- Node22&#45;&gt;Node2 -->
<g id="edge5" class="edge">
<title>Node22&#45;&gt;Node2</title>
<path fill="none" stroke="#63b8ff" d="M270.73,-175.5C287.94,-175.5 307.35,-175.5 323.83,-175.5"/>
<polygon fill="#63b8ff" stroke="#63b8ff" points="270.76,-172 260.76,-175.5 270.76,-179 270.76,-172"/>
</g>
<!-- Node2&#45;&gt;Node1 -->
<g id="edge6" class="edge">
<title>Node2&#45;&gt;Node1</title>
<path fill="none" stroke="#63b8ff" d="M365.71,-196.61C372.53,-275.45 400.34,-551.24 460,-611.5 472.71,-624.34 492.63,-628.78 509.15,-630.04"/>
<polygon fill="#63b8ff" stroke="#63b8ff" points="369.22,-196.52 364.89,-186.85 362.24,-197.11 369.22,-196.52"/>
</g>
<!-- Node2&#45;&gt;Node17 -->
<g id="edge14" class="edge">
<title>Node2&#45;&gt;Node17</title>
<path fill="none" stroke="#63b8ff" d="M366.47,-196.71C375.13,-267.11 406.5,-491.03 460,-535.5 517.88,-583.61 612.05,-574.82 665.85,-564.45"/>
<polygon fill="#63b8ff" stroke="#63b8ff" points="369.96,-196.45 365.3,-186.94 363.01,-197.28 369.96,-196.45"/>
</g>
<!-- Node2&#45;&gt;Node12 -->
<g id="edge13" class="edge">
<title>Node2&#45;&gt;Node12</title>
<path fill="none" stroke="#63b8ff" d="M397.01,-189.84C415.34,-197.49 438.69,-206.69 460,-213.5 528.89,-235.53 551.32,-224.48 618,-252.5 646.8,-264.6 677.08,-285.27 693.84,-297.53"/>
<polygon fill="#63b8ff" stroke="#63b8ff" points="398.54,-186.69 387.97,-186.03 395.82,-193.14 398.54,-186.69"/>
</g>
<!-- Node3 -->
<g id="node10" class="node">
<title>Node3</title>
<g id="a_node10"><a xlink:href="class_i_plug_a_p_p.html" target="_top" xlink:title="Standalone application base class for an IPlug plug&#45;in.">
<polygon fill="white" stroke="#666666" points="568.5,-167 509.5,-167 509.5,-148 568.5,-148 568.5,-167"/>
<text text-anchor="middle" x="539" y="-155" font-family="Helvetica,sans-Serif" font-size="10.00">IPlugAPP</text>
</a>
</g>
</g>
<!-- Node2&#45;&gt;Node3 -->
<g id="edge7" class="edge">
<title>Node2&#45;&gt;Node3</title>
<path fill="none" stroke="#63b8ff" d="M413.6,-170.37C444.48,-167.17 483.13,-163.18 509.08,-160.49"/>
<polygon fill="#63b8ff" stroke="#63b8ff" points="413.28,-166.88 403.69,-171.39 414,-173.85 413.28,-166.88"/>
</g>
<!-- Node5 -->
<g id="node11" class="node">
<title>Node5</title>
<g id="a_node11"><a xlink:href="class_i_plug_a_u.html" target="_top" xlink:title="AudioUnit v2 API base class for an IPlug plug&#45;in.">
<polygon fill="white" stroke="#666666" points="565.5,-130 512.5,-130 512.5,-111 565.5,-111 565.5,-130"/>
<text text-anchor="middle" x="539" y="-118" font-family="Helvetica,sans-Serif" font-size="10.00">IPlugAU</text>
</a>
</g>
</g>
<!-- Node2&#45;&gt;Node5 -->
<g id="edge8" class="edge">
<title>Node2&#45;&gt;Node5</title>
<path fill="none" stroke="#63b8ff" d="M398.8,-161.3C416.88,-154.22 439.43,-145.84 460,-139.5 477.18,-134.21 496.85,-129.42 512.14,-125.98"/>
<polygon fill="#63b8ff" stroke="#63b8ff" points="397.6,-158.01 389.59,-164.95 400.18,-164.52 397.6,-158.01"/>
</g>
<!-- Node6 -->
<g id="node12" class="node">
<title>Node6</title>
<g id="a_node12"><a xlink:href="class_i_plug_a_uv3.html" target="_top" xlink:title="AudioUnit v3 API base class for an IPlug plug&#45;in.">
<polygon fill="white" stroke="#666666" points="571,-93 507,-93 507,-74 571,-74 571,-93"/>
<text text-anchor="middle" x="539" y="-81" font-family="Helvetica,sans-Serif" font-size="10.00">IPlugAUv3</text>
</a>
</g>
</g>
<!-- Node2&#45;&gt;Node6 -->
<g id="edge9" class="edge">
<title>Node2&#45;&gt;Node6</title>
<path fill="none" stroke="#63b8ff" d="M393.53,-159.93C403.59,-154.08 414.65,-147.01 424,-139.5 442.14,-124.94 439.81,-113.05 460,-101.5 474.23,-93.36 491.92,-88.9 506.85,-86.45"/>
<polygon fill="#63b8ff" stroke="#63b8ff" points="391.84,-156.87 384.84,-164.82 395.27,-162.97 391.84,-156.87"/>
</g>
<!-- Node7 -->
<g id="node13" class="node">
<title>Node7</title>
<g id="a_node13"><a xlink:href="class_i_plug_v_s_t2.html" target="_top" xlink:title="VST2.4 API base class for an IPlug plug&#45;in.">
<polygon fill="white" stroke="#666666" points="571,-56 507,-56 507,-37 571,-37 571,-56"/>
<text text-anchor="middle" x="539" y="-44" font-family="Helvetica,sans-Serif" font-size="10.00">IPlugVST2</text>
</a>
</g>
</g>
<!-- Node2&#45;&gt;Node7 -->
<g id="edge10" class="edge">
<title>Node2&#45;&gt;Node7</title>
<path fill="none" stroke="#63b8ff" d="M397.35,-160.11C406.81,-154.59 416.55,-147.68 424,-139.5 448.9,-112.17 431.13,-87.61 460,-64.5 473.13,-53.99 491.27,-49.4 506.76,-47.47"/>
<polygon fill="#63b8ff" stroke="#63b8ff" points="395.77,-156.98 388.64,-164.82 399.11,-163.14 395.77,-156.98"/>
</g>
<!-- Node10 -->
<g id="node15" class="node">
<title>Node10</title>
<g id="a_node15"><a xlink:href="class_i_plug_v_s_t3.html" target="_top" xlink:title="VST3 base class for a non&#45;distributed IPlug VST3 plug&#45;in.">
<polygon fill="white" stroke="#666666" points="740,-421 676,-421 676,-402 740,-402 740,-421"/>
<text text-anchor="middle" x="708" y="-409" font-family="Helvetica,sans-Serif" font-size="10.00">IPlugVST3</text>
</a>
</g>
</g>
<!-- Node2&#45;&gt;Node10 -->
<g id="edge12" class="edge">
<title>Node2&#45;&gt;Node10</title>
<path fill="none" stroke="#63b8ff" d="M363.59,-196.63C363.81,-251.21 372.9,-397 460,-459.5 534,-512.6 651.3,-447.37 692.29,-421.33"/>
<polygon fill="#63b8ff" stroke="#63b8ff" points="367.09,-196.89 363.66,-186.86 360.09,-196.84 367.09,-196.89"/>
</g>
<!-- Node19 -->
<g id="node16" class="node">
<title>Node19</title>
<g id="a_node16"><a xlink:href="class_i_plug_w_a_m.html" target="_top" xlink:title="WebAudioModule (WAM) API base class.">
<polygon fill="white" stroke="#666666" points="570.5,-19 507.5,-19 507.5,0 570.5,0 570.5,-19"/>
<text text-anchor="middle" x="539" y="-7" font-family="Helvetica,sans-Serif" font-size="10.00">IPlugWAM</text>
</a>
</g>
</g>
<!-- Node2&#45;&gt;Node19 -->
<g id="edge15" class="edge">
<title>Node2&#45;&gt;Node19</title>
<path fill="none" stroke="#63b8ff" d="M398.75,-160.32C408.01,-154.88 417.29,-147.96 424,-139.5 456.5,-98.54 421.5,-62.88 460,-27.5 472.69,-15.84 491.38,-11.25 507.29,-9.62"/>
<polygon fill="#63b8ff" stroke="#63b8ff" points="397.33,-157.11 390.17,-164.92 400.64,-163.28 397.33,-157.11"/>
</g>
<!-- Node21 -->
<g id="node17" class="node">
<title>Node21</title>
<g id="a_node17"><a xlink:href="class_i_plug_web.html" target="_top" xlink:title="This is used for the UI &quot;editor&quot; &#45; controller side of a WAM or remote editors that communicate with d...">
<polygon fill="white" stroke="#666666" points="568.5,-204 509.5,-204 509.5,-185 568.5,-185 568.5,-204"/>
<text text-anchor="middle" x="539" y="-192" font-family="Helvetica,sans-Serif" font-size="10.00">IPlugWeb</text>
</a>
</g>
</g>
<!-- Node2&#45;&gt;Node21 -->
<g id="edge16" class="edge">
<title>Node2&#45;&gt;Node21</title>
<path fill="none" stroke="#63b8ff" d="M413.6,-180.92C444.48,-184.29 483.13,-188.51 509.08,-191.34"/>
<polygon fill="#63b8ff" stroke="#63b8ff" points="414.01,-177.44 403.69,-179.83 413.25,-184.4 414.01,-177.44"/>
</g>
<!-- Node8 -->
<g id="node14" class="node">
<title>Node8</title>
<g id="a_node14"><a xlink:href="class_i_plug_reaper_v_s_t2.html" target="_top" xlink:title="Reaper specific VST2.4 API base class for an IPlug plug&#45;in.">
<polygon fill="white" stroke="#666666" points="755.5,-56 660.5,-56 660.5,-37 755.5,-37 755.5,-56"/>
<text text-anchor="middle" x="708" y="-44" font-family="Helvetica,sans-Serif" font-size="10.00">IPlugReaperVST2</text>
</a>
</g>
</g>
<!-- Node7&#45;&gt;Node8 -->
<g id="edge11" class="edge">
<title>Node7&#45;&gt;Node8</title>
<path fill="none" stroke="#63b8ff" d="M582.87,-46.5C606.55,-46.5 635.99,-46.5 660.26,-46.5"/>
<polygon fill="#63b8ff" stroke="#63b8ff" points="582.92,-43 572.92,-46.5 582.92,-50 582.92,-43"/>
</g>
<!-- Node11 -->
<g id="node19" class="node">
<title>Node11</title>
<g id="a_node19"><a xlink:title=" ">
<polygon fill="#e0e0e0" stroke="#999999" points="614,-402.5 464,-402.5 464,-372.5 614,-372.5 614,-402.5"/>
<text text-anchor="start" x="472" y="-390.5" font-family="Helvetica,sans-Serif" font-size="10.00">Steinberg::Vst::ChannelContext</text>
<text text-anchor="middle" x="539" y="-379.5" font-family="Helvetica,sans-Serif" font-size="10.00">::IInfoListener</text>
</a>
</g>
</g>
<!-- Node11&#45;&gt;Node12 -->
<g id="edge19" class="edge">
<title>Node11&#45;&gt;Node12</title>
<path fill="none" stroke="#63b8ff" d="M607.1,-368.13C610.82,-366.66 614.48,-365.11 618,-363.5 646.54,-350.41 676.91,-329.63 693.76,-317.4"/>
<polygon fill="#63b8ff" stroke="#63b8ff" points="606.06,-364.78 597.9,-371.54 608.49,-371.34 606.06,-364.78"/>
</g>
<!-- Node11&#45;&gt;Node10 -->
<g id="edge18" class="edge">
<title>Node11&#45;&gt;Node10</title>
<path fill="none" stroke="#63b8ff" d="M625.41,-399.77C643.39,-402.36 661.26,-404.93 675.67,-407"/>
<polygon fill="#63b8ff" stroke="#63b8ff" points="626.12,-396.34 615.72,-398.38 625.12,-403.27 626.12,-396.34"/>
</g>
<!-- Node14 -->
<g id="node20" class="node">
<title>Node14</title>
<g id="a_node20"><a xlink:title=" ">
<polygon fill="#e0e0e0" stroke="#999999" points="609,-354 469,-354 469,-335 609,-335 609,-354"/>
<text text-anchor="middle" x="539" y="-342" font-family="Helvetica,sans-Serif" font-size="10.00">Steinberg::Vst::IMidiMapping</text>
</a>
</g>
</g>
<!-- Node14&#45;&gt;Node12 -->
<g id="edge21" class="edge">
<title>Node14&#45;&gt;Node12</title>
<path fill="none" stroke="#63b8ff" d="M595.75,-332.15C617.33,-327.37 641.7,-321.97 662.12,-317.44"/>
<polygon fill="#63b8ff" stroke="#63b8ff" points="595.24,-328.68 586.23,-334.26 596.75,-335.51 595.24,-328.68"/>
</g>
<!-- Node14&#45;&gt;Node10 -->
<g id="edge20" class="edge">
<title>Node14&#45;&gt;Node10</title>
<path fill="none" stroke="#63b8ff" d="M600.21,-357.52C606.28,-359.32 612.31,-361.31 618,-363.5 645.04,-373.89 674.2,-390.83 691.51,-401.55"/>
<polygon fill="#63b8ff" stroke="#63b8ff" points="601.3,-354.19 590.73,-354.88 599.43,-360.93 601.3,-354.19"/>
</g>
<!-- Node4 -->
<g id="node21" class="node">
<title>Node4</title>
<g id="a_node21"><a xlink:href="class_i_plug_processor.html" target="_top" xlink:title="The base class for IPlug Audio Processing.">
<polygon fill="white" stroke="#666666" points="404.5,-130 321.5,-130 321.5,-111 404.5,-111 404.5,-130"/>
<text text-anchor="middle" x="363" y="-118" font-family="Helvetica,sans-Serif" font-size="10.00">IPlugProcessor</text>
</a>
</g>
</g>
<!-- Node4&#45;&gt;Node1 -->
<g id="edge22" class="edge">
<title>Node4&#45;&gt;Node1</title>
<path fill="none" stroke="#63b8ff" d="M400.77,-135.77C409.81,-141.29 418.47,-148.45 424,-157.5 476.78,-243.85 393.91,-534.85 460,-611.5 471.98,-625.39 492.34,-629.74 509.26,-630.7"/>
<polygon fill="#63b8ff" stroke="#63b8ff" points="402.73,-132.86 392.27,-131.15 399.38,-139 402.73,-132.86"/>
</g>
<!-- Node4&#45;&gt;Node3 -->
<g id="edge23" class="edge">
<title>Node4&#45;&gt;Node3</title>
<path fill="none" stroke="#63b8ff" d="M415.7,-131.49C446.24,-137.99 483.78,-145.97 509.15,-151.36"/>
<polygon fill="#63b8ff" stroke="#63b8ff" points="416.79,-128.15 406.28,-129.49 415.33,-134.99 416.79,-128.15"/>
</g>
<!-- Node4&#45;&gt;Node5 -->
<g id="edge24" class="edge">
<title>Node4&#45;&gt;Node5</title>
<path fill="none" stroke="#63b8ff" d="M416.09,-120.5C447.74,-120.5 486.8,-120.5 512.04,-120.5"/>
<polygon fill="#63b8ff" stroke="#63b8ff" points="416.31,-117 406.31,-120.5 416.31,-124 416.31,-117"/>
</g>
<!-- Node4&#45;&gt;Node6 -->
<g id="edge25" class="edge">
<title>Node4&#45;&gt;Node6</title>
<path fill="none" stroke="#63b8ff" d="M415.77,-109.49C445.33,-103.21 481.43,-95.53 506.7,-90.16"/>
<polygon fill="#63b8ff" stroke="#63b8ff" points="415.33,-106.01 406.28,-111.51 416.79,-112.85 415.33,-106.01"/>
</g>
<!-- Node4&#45;&gt;Node7 -->
<g id="edge26" class="edge">
<title>Node4&#45;&gt;Node7</title>
<path fill="none" stroke="#63b8ff" d="M387.45,-104.11C406.28,-91.63 433.82,-74.88 460,-64.5 474.86,-58.61 492.11,-54.38 506.6,-51.51"/>
<polygon fill="#63b8ff" stroke="#63b8ff" points="385.52,-101.19 379.2,-109.69 389.44,-106.99 385.52,-101.19"/>
</g>
<!-- Node4&#45;&gt;Node19 -->
<g id="edge30" class="edge">
<title>Node4&#45;&gt;Node19</title>
<path fill="none" stroke="#63b8ff" d="M378.25,-101.49C395.3,-80.14 425.86,-46.07 460,-27.5 474.53,-19.6 492.4,-15.15 507.38,-12.66"/>
<polygon fill="#63b8ff" stroke="#63b8ff" points="375.5,-99.32 372.13,-109.37 381.03,-103.62 375.5,-99.32"/>
</g>
<!-- Node9 -->
<g id="node22" class="node">
<title>Node9</title>
<g id="a_node22"><a xlink:href="class_i_plug_v_s_t3_processor_base.html" target="_top" xlink:title="Shared VST3 processor code.">
<polygon fill="white" stroke="#666666" points="604.5,-526 473.5,-526 473.5,-507 604.5,-507 604.5,-526"/>
<text text-anchor="middle" x="539" y="-514" font-family="Helvetica,sans-Serif" font-size="10.00">IPlugVST3ProcessorBase</text>
</a>
</g>
</g>
<!-- Node4&#45;&gt;Node9 -->
<g id="edge27" class="edge">
<title>Node4&#45;&gt;Node9</title>
<path fill="none" stroke="#63b8ff" d="M400.31,-135.78C409.42,-141.32 418.24,-148.49 424,-157.5 496.76,-271.42 391.76,-342.82 460,-459.5 472.79,-481.36 497.63,-497.26 515.85,-506.63"/>
<polygon fill="#63b8ff" stroke="#63b8ff" points="402.21,-132.83 391.75,-131.13 398.86,-138.98 402.21,-132.83"/>
</g>
<!-- Node9&#45;&gt;Node17 -->
<g id="edge29" class="edge">
<title>Node9&#45;&gt;Node17</title>
<path fill="none" stroke="#63b8ff" d="M594.81,-528.97C616.98,-534.02 642.21,-539.76 663.13,-544.52"/>
<polygon fill="#63b8ff" stroke="#63b8ff" points="595.88,-525.63 585.35,-526.82 594.33,-532.45 595.88,-525.63"/>
</g>
<!-- Node9&#45;&gt;Node10 -->
<g id="edge28" class="edge">
<title>Node9&#45;&gt;Node10</title>
<path fill="none" stroke="#63b8ff" d="M595.1,-502.91C603.02,-500 610.89,-496.55 618,-492.5 652.12,-473.04 684.12,-438.48 698.72,-421.49"/>
<polygon fill="#63b8ff" stroke="#63b8ff" points="594.11,-499.55 585.75,-506.06 596.35,-506.18 594.11,-499.55"/>
</g>
<!-- Node15 -->
<g id="node23" class="node">
<title>Node15</title>
<g id="a_node23"><a xlink:href="class_i_plug_v_s_t3_controller_base.html" target="_top" xlink:title="Shared VST3 controller code.">
<polygon fill="white" stroke="#666666" points="603,-317 475,-317 475,-298 603,-298 603,-317"/>
<text text-anchor="middle" x="539" y="-305" font-family="Helvetica,sans-Serif" font-size="10.00">IPlugVST3ControllerBase</text>
</a>
</g>
</g>
<!-- Node15&#45;&gt;Node12 -->
<g id="edge32" class="edge">
<title>Node15&#45;&gt;Node12</title>
<path fill="none" stroke="#63b8ff" d="M614.55,-307.5C628.28,-307.5 642.32,-307.5 655.19,-307.5"/>
<polygon fill="#63b8ff" stroke="#63b8ff" points="614.65,-304 604.65,-307.5 614.65,-311 614.65,-304"/>
</g>
<!-- Node15&#45;&gt;Node10 -->
<g id="edge31" class="edge">
<title>Node15&#45;&gt;Node10</title>
<path fill="none" stroke="#63b8ff" d="M607.12,-321.35C610.88,-322.89 614.53,-324.6 618,-326.5 653.8,-346.09 685.72,-383.76 699.62,-401.63"/>
<polygon fill="#63b8ff" stroke="#63b8ff" points="608.33,-318.07 597.73,-317.96 605.94,-324.65 608.33,-318.07"/>
</g>
<!-- Node20 -->
<g id="node24" class="node">
<title>Node20</title>
<g id="a_node24"><a xlink:title=" ">
<polygon fill="#e0e0e0" stroke="#999999" points="393.5,-19 332.5,-19 332.5,0 393.5,0 393.5,-19"/>
<text text-anchor="middle" x="363" y="-7" font-family="Helvetica,sans-Serif" font-size="10.00">Processor</text>
</a>
</g>
</g>
<!-- Node20&#45;&gt;Node19 -->
<g id="edge33" class="edge">
<title>Node20&#45;&gt;Node19</title>
<path fill="none" stroke="#63b8ff" d="M405.28,-9.5C436.49,-9.5 478.66,-9.5 507.02,-9.5"/>
<polygon fill="#63b8ff" stroke="#63b8ff" points="405.43,-6 395.43,-9.5 405.43,-13 405.43,-6"/>
</g>
<!-- Node16 -->
<g id="node25" class="node">
<title>Node16</title>
<g id="a_node25"><a xlink:title=" ">
<polygon fill="#e0e0e0" stroke="#999999" points="618,-450.5 460,-450.5 460,-420.5 618,-420.5 618,-450.5"/>
<text text-anchor="start" x="468" y="-438.5" font-family="Helvetica,sans-Serif" font-size="10.00">Steinberg::Vst::SingleComponent</text>
<text text-anchor="middle" x="539" y="-427.5" font-family="Helvetica,sans-Serif" font-size="10.00">Effect</text>
</a>
</g>
</g>
<!-- Node16&#45;&gt;Node10 -->
<g id="edge34" class="edge">
<title>Node16&#45;&gt;Node10</title>
<path fill="none" stroke="#63b8ff" d="M629.12,-422.69C645.83,-420.29 662.24,-417.93 675.65,-416.01"/>
<polygon fill="#63b8ff" stroke="#63b8ff" points="629.02,-419.17 619.62,-424.06 630.02,-426.1 629.02,-419.17"/>
</g>
</g>
</svg>
