<?xml version="1.0" encoding="UTF-8" standalone="no"?>
<!DOCTYPE svg PUBLIC "-//W3C//DTD SVG 1.1//EN"
 "http://www.w3.org/Graphics/SVG/1.1/DTD/svg11.dtd">
<!-- Generated by graphviz version 7.0.5 (20221223.1930)
 -->
<!-- Title: Graphical Class Hierarchy Pages: 1 -->
<svg width="196pt" height="64pt"
 viewBox="0.00 0.00 196.00 64.00" xmlns="http://www.w3.org/2000/svg" xmlns:xlink="http://www.w3.org/1999/xlink">
<g id="graph0" class="graph" transform="scale(1 1) rotate(0) translate(4 60)">
<title>Graphical Class Hierarchy</title>
<!-- Node0 -->
<g id="node1" class="node">
<title>Node0</title>
<g id="a_node1"><a xlink:href="class_o_s_c_interface.html" target="_top" xlink:title=" ">
<polygon fill="white" stroke="#666666" points="76,-37 0,-37 0,-18 76,-18 76,-37"/>
<text text-anchor="middle" x="38" y="-25" font-family="Helvetica,sans-Serif" font-size="10.00">OSCInterface</text>
</a>
</g>
</g>
<!-- Node1 -->
<g id="node2" class="node">
<title>Node1</title>
<g id="a_node2"><a xlink:href="class_o_s_c_receiver.html" target="_top" xlink:title=" ">
<polygon fill="white" stroke="#666666" points="188,-56 112,-56 112,-37 188,-37 188,-56"/>
<text text-anchor="middle" x="150" y="-44" font-family="Helvetica,sans-Serif" font-size="10.00">OSCReceiver</text>
</a>
</g>
</g>
<!-- Node0&#45;&gt;Node1 -->
<g id="edge1" class="edge">
<title>Node0&#45;&gt;Node1</title>
<path fill="none" stroke="#63b8ff" d="M87.54,-35.88C95.68,-37.29 104,-38.73 111.8,-40.07"/>
<polygon fill="#63b8ff" stroke="#63b8ff" points="88.18,-32.44 77.73,-34.19 86.99,-39.34 88.18,-32.44"/>
</g>
<!-- Node2 -->
<g id="node3" class="node">
<title>Node2</title>
<g id="a_node3"><a xlink:href="class_o_s_c_sender.html" target="_top" xlink:title=" ">
<polygon fill="white" stroke="#666666" points="184,-19 116,-19 116,0 184,0 184,-19"/>
<text text-anchor="middle" x="150" y="-7" font-family="Helvetica,sans-Serif" font-size="10.00">OSCSender</text>
</a>
</g>
</g>
<!-- Node0&#45;&gt;Node2 -->
<g id="edge2" class="edge">
<title>Node0&#45;&gt;Node2</title>
<path fill="none" stroke="#63b8ff" d="M87.35,-19.59C96.97,-18.01 106.88,-16.39 115.86,-14.92"/>
<polygon fill="#63b8ff" stroke="#63b8ff" points="87.04,-16.09 77.73,-21.16 88.17,-23 87.04,-16.09"/>
</g>
</g>
</svg>
