<?xml version="1.0" encoding="UTF-8" standalone="no"?>
<!DOCTYPE svg PUBLIC "-//W3C//DTD SVG 1.1//EN"
 "http://www.w3.org/Graphics/SVG/1.1/DTD/svg11.dtd">
<!-- Generated by graphviz version 2.36.0 (20140111.2315)
 -->
<!-- Title: Graphical Class Hierarchy Pages: 1 -->
<svg width="272pt" height="104pt"
 viewBox="0.00 0.00 272.00 104.00" xmlns="http://www.w3.org/2000/svg" xmlns:xlink="http://www.w3.org/1999/xlink">
<g id="graph0" class="graph" transform="scale(1 1) rotate(0) translate(4 100)">
<title>Graphical Class Hierarchy</title>
<polygon fill="white" stroke="none" points="-4,4 -4,-100 268,-100 268,4 -4,4"/>
<!-- Node1 -->
<g id="node1" class="node"><title>Node1</title>
<polygon fill="white" stroke="#bfbfbf" points="0,-38.5 0,-57.5 148,-57.5 148,-38.5 0,-38.5"/>
<text text-anchor="middle" x="74" y="-45.5" font-family="Helvetica,sans-Serif" font-size="10.00">IGRAPHICS_DRAW_CLASS</text>
</g>
<!-- Node2 -->
<g id="node2" class="node"><title>Node2</title>
<g id="a_node2"><a xlink:href="class_i_graphics_i_o_s.html" target="_top" xlink:title="IGraphics platform class for IOS. ">
<polygon fill="white" stroke="black" points="186,-76.5 186,-95.5 262,-95.5 262,-76.5 186,-76.5"/>
<text text-anchor="middle" x="224" y="-83.5" font-family="Helvetica,sans-Serif" font-size="10.00">IGraphicsIOS</text>
</a>
</g>
</g>
<!-- Node1&#45;&gt;Node2 -->
<g id="edge1" class="edge"><title>Node1&#45;&gt;Node2</title>
<path fill="none" stroke="midnightblue" d="M122.173,-60.1121C142.786,-65.4044 166.609,-71.5213 185.922,-76.4799"/>
<polygon fill="midnightblue" stroke="midnightblue" points="122.903,-56.6859 112.347,-57.589 121.162,-63.466 122.903,-56.6859"/>
</g>
<!-- Node3 -->
<g id="node3" class="node"><title>Node3</title>
<g id="a_node3"><a xlink:href="class_i_graphics_web.html" target="_top" xlink:title="IGraphics platform class for the web. ">
<polygon fill="white" stroke="black" points="184.5,-38.5 184.5,-57.5 263.5,-57.5 263.5,-38.5 184.5,-38.5"/>
<text text-anchor="middle" x="224" y="-45.5" font-family="Helvetica,sans-Serif" font-size="10.00">IGraphicsWeb</text>
</a>
</g>
</g>
<!-- Node1&#45;&gt;Node3 -->
<g id="edge2" class="edge"><title>Node1&#45;&gt;Node3</title>
<path fill="none" stroke="midnightblue" d="M158.386,-48C167.422,-48 176.269,-48 184.374,-48"/>
<polygon fill="midnightblue" stroke="midnightblue" points="158.133,-44.5001 148.133,-48 158.133,-51.5001 158.133,-44.5001"/>
</g>
<!-- Node4 -->
<g id="node4" class="node"><title>Node4</title>
<g id="a_node4"><a xlink:href="class_i_graphics_win.html" target="_top" xlink:title="IGraphics platform class for Windows. ">
<polygon fill="white" stroke="black" points="186,-0.5 186,-19.5 262,-19.5 262,-0.5 186,-0.5"/>
<text text-anchor="middle" x="224" y="-7.5" font-family="Helvetica,sans-Serif" font-size="10.00">IGraphicsWin</text>
</a>
</g>
</g>
<!-- Node1&#45;&gt;Node4 -->
<g id="edge3" class="edge"><title>Node1&#45;&gt;Node4</title>
<path fill="none" stroke="midnightblue" d="M122.173,-35.8879C142.786,-30.5956 166.609,-24.4787 185.922,-19.5201"/>
<polygon fill="midnightblue" stroke="midnightblue" points="121.162,-32.534 112.347,-38.411 122.903,-39.3141 121.162,-32.534"/>
</g>
</g>
</svg>
