<?xml version="1.0" encoding="UTF-8" standalone="no"?>
<!DOCTYPE svg PUBLIC "-//W3C//DTD SVG 1.1//EN"
 "http://www.w3.org/Graphics/SVG/1.1/DTD/svg11.dtd">
<!-- Generated by graphviz version 7.0.5 (20221223.1930)
 -->
<!-- Title: Graphical Class Hierarchy Pages: 1 -->
<svg width="239pt" height="101pt"
 viewBox="0.00 0.00 239.00 101.00" xmlns="http://www.w3.org/2000/svg" xmlns:xlink="http://www.w3.org/1999/xlink">
<g id="graph0" class="graph" transform="scale(1 1) rotate(0) translate(4 97)">
<title>Graphical Class Hierarchy</title>
<!-- Node0 -->
<g id="node1" class="node">
<title>Node0</title>
<g id="a_node1"><a xlink:href="class_a_p_i_bitmap.html" target="_top" xlink:title="A base class interface for a bitmap abstraction around the different drawing back end bitmap represen...">
<polygon fill="white" stroke="#666666" points="64,-56 0,-56 0,-37 64,-37 64,-56"/>
<text text-anchor="middle" x="32" y="-44" font-family="Helvetica,sans-Serif" font-size="10.00">APIBitmap</text>
</a>
</g>
</g>
<!-- Node1 -->
<g id="node2" class="node">
<title>Node1</title>
<g id="a_node2"><a xlink:href="class_i_graphics_canvas_1_1_bitmap.html" target="_top" xlink:title=" ">
<polygon fill="white" stroke="#666666" points="229,-93 102,-93 102,-74 229,-74 229,-93"/>
<text text-anchor="middle" x="165.5" y="-81" font-family="Helvetica,sans-Serif" font-size="10.00">IGraphicsCanvas::Bitmap</text>
</a>
</g>
</g>
<!-- Node0&#45;&gt;Node1 -->
<g id="edge1" class="edge">
<title>Node0&#45;&gt;Node1</title>
<path fill="none" stroke="#63b8ff" d="M75.26,-58.51C83.46,-60.84 92,-63.25 100,-65.5 109.29,-68.11 119.33,-70.92 128.67,-73.53"/>
<polygon fill="#63b8ff" stroke="#63b8ff" points="76.38,-55.19 65.81,-55.83 74.47,-61.93 76.38,-55.19"/>
</g>
<!-- Node2 -->
<g id="node3" class="node">
<title>Node2</title>
<g id="a_node3"><a xlink:href="class_i_graphics_nano_v_g_1_1_bitmap.html" target="_top" xlink:title=" ">
<polygon fill="white" stroke="#666666" points="231,-56 100,-56 100,-37 231,-37 231,-56"/>
<text text-anchor="middle" x="165.5" y="-44" font-family="Helvetica,sans-Serif" font-size="10.00">IGraphicsNanoVG::Bitmap</text>
</a>
</g>
</g>
<!-- Node0&#45;&gt;Node2 -->
<g id="edge2" class="edge">
<title>Node0&#45;&gt;Node2</title>
<path fill="none" stroke="#63b8ff" d="M75.99,-46.5C83.58,-46.5 91.64,-46.5 99.69,-46.5"/>
<polygon fill="#63b8ff" stroke="#63b8ff" points="76.01,-43 66.01,-46.5 76.01,-50 76.01,-43"/>
</g>
<!-- Node3 -->
<g id="node4" class="node">
<title>Node3</title>
<g id="a_node4"><a xlink:href="class_i_graphics_skia_1_1_bitmap.html" target="_top" xlink:title=" ">
<polygon fill="white" stroke="#666666" points="222,-19 109,-19 109,0 222,0 222,-19"/>
<text text-anchor="middle" x="165.5" y="-7" font-family="Helvetica,sans-Serif" font-size="10.00">IGraphicsSkia::Bitmap</text>
</a>
</g>
</g>
<!-- Node0&#45;&gt;Node3 -->
<g id="edge3" class="edge">
<title>Node0&#45;&gt;Node3</title>
<path fill="none" stroke="#63b8ff" d="M75.46,-34.55C92.78,-29.68 112.57,-24.11 129.09,-19.46"/>
<polygon fill="#63b8ff" stroke="#63b8ff" points="74.63,-31.15 65.95,-37.23 76.53,-37.89 74.63,-31.15"/>
</g>
</g>
</svg>
