<?xml version="1.0" encoding="UTF-8" standalone="no"?>
<!DOCTYPE svg PUBLIC "-//W3C//DTD SVG 1.1//EN"
 "http://www.w3.org/Graphics/SVG/1.1/DTD/svg11.dtd">
<!-- Generated by graphviz version 7.0.5 (20221223.1930)
 -->
<!-- Title: Graphical Class Hierarchy Pages: 1 -->
<svg width="239pt" height="64pt"
 viewBox="0.00 0.00 239.00 64.00" xmlns="http://www.w3.org/2000/svg" xmlns:xlink="http://www.w3.org/1999/xlink">
<g id="graph0" class="graph" transform="scale(1 1) rotate(0) translate(4 60)">
<title>Graphical Class Hierarchy</title>
<!-- Node0 -->
<g id="node1" class="node">
<title>Node0</title>
<g id="a_node1"><a xlink:href="class_a_p_i_bitmap.html" target="_top" xlink:title="A base class interface for a bitmap abstraction around the different drawing back end bitmap represen...">
<polygon fill="white" stroke="#666666" points="64,-37 0,-37 0,-18 64,-18 64,-37"/>
<text text-anchor="middle" x="32" y="-25" font-family="Helvetica,sans-Serif" font-size="10.00">APIBitmap</text>
</a>
</g>
</g>
<!-- Node1 -->
<g id="node2" class="node">
<title>Node1</title>
<g id="a_node2"><a xlink:href="class_i_graphics_nano_v_g_1_1_bitmap.html" target="_top" xlink:title=" ">
<polygon fill="white" stroke="#666666" points="231,-56 100,-56 100,-37 231,-37 231,-56"/>
<text text-anchor="middle" x="165.5" y="-44" font-family="Helvetica,sans-Serif" font-size="10.00">IGraphicsNanoVG::Bitmap</text>
</a>
</g>
</g>
<!-- Node0&#45;&gt;Node1 -->
<g id="edge1" class="edge">
<title>Node0&#45;&gt;Node1</title>
<path fill="none" stroke="#63b8ff" d="M75.72,-33.67C83.39,-34.78 91.55,-35.96 99.69,-37.14"/>
<polygon fill="#63b8ff" stroke="#63b8ff" points="76.39,-30.23 66,-32.27 75.39,-37.16 76.39,-30.23"/>
</g>
<!-- Node2 -->
<g id="node3" class="node">
<title>Node2</title>
<g id="a_node3"><a xlink:href="class_i_graphics_skia_1_1_bitmap.html" target="_top" xlink:title=" ">
<polygon fill="white" stroke="#666666" points="222,-19 109,-19 109,0 222,0 222,-19"/>
<text text-anchor="middle" x="165.5" y="-7" font-family="Helvetica,sans-Serif" font-size="10.00">IGraphicsSkia::Bitmap</text>
</a>
</g>
</g>
<!-- Node0&#45;&gt;Node2 -->
<g id="edge2" class="edge">
<title>Node0&#45;&gt;Node2</title>
<path fill="none" stroke="#63b8ff" d="M75.85,-21.63C86.3,-20.2 97.63,-18.65 108.58,-17.15"/>
<polygon fill="#63b8ff" stroke="#63b8ff" points="75.43,-18.16 66,-22.98 76.38,-25.09 75.43,-18.16"/>
</g>
</g>
</svg>
