<?xml version="1.0" encoding="UTF-8" standalone="no"?>
<!DOCTYPE svg PUBLIC "-//W3C//DTD SVG 1.1//EN"
 "http://www.w3.org/Graphics/SVG/1.1/DTD/svg11.dtd">
<!-- Generated by graphviz version 7.0.5 (20221223.1930)
 -->
<!-- Title: Graphical Class Hierarchy Pages: 1 -->
<svg width="181pt" height="64pt"
 viewBox="0.00 0.00 181.00 64.00" xmlns="http://www.w3.org/2000/svg" xmlns:xlink="http://www.w3.org/1999/xlink">
<g id="graph0" class="graph" transform="scale(1 1) rotate(0) translate(4 60)">
<title>Graphical Class Hierarchy</title>
<!-- Node0 -->
<g id="node1" class="node">
<title>Node0</title>
<g id="a_node1"><a xlink:href="struct_i_byte_getter.html" target="_top" xlink:title="A helper class for IByteChunk and IByteStream that avoids code duplication.">
<polygon fill="white" stroke="#666666" points="66,-37 0,-37 0,-18 66,-18 66,-37"/>
<text text-anchor="middle" x="33" y="-25" font-family="Helvetica,sans-Serif" font-size="10.00">IByteGetter</text>
</a>
</g>
</g>
<!-- Node1 -->
<g id="node2" class="node">
<title>Node1</title>
<g id="a_node2"><a xlink:href="class_i_byte_chunk.html" target="_top" xlink:title="Manages a block of memory, for plug&#45;in settings store/recall.">
<polygon fill="white" stroke="#666666" points="171,-56 104,-56 104,-37 171,-37 171,-56"/>
<text text-anchor="middle" x="137.5" y="-44" font-family="Helvetica,sans-Serif" font-size="10.00">IByteChunk</text>
</a>
</g>
</g>
<!-- Node0&#45;&gt;Node1 -->
<g id="edge1" class="edge">
<title>Node0&#45;&gt;Node1</title>
<path fill="none" stroke="#8b1a1a" d="M77.61,-35.58C86.31,-37.2 95.31,-38.86 103.57,-40.4"/>
<polygon fill="#8b1a1a" stroke="#8b1a1a" points="78.39,-32.17 67.92,-33.79 77.11,-39.05 78.39,-32.17"/>
</g>
<!-- Node2 -->
<g id="node3" class="node">
<title>Node2</title>
<g id="a_node3"><a xlink:href="class_i_byte_stream.html" target="_top" xlink:title="Manages a non&#45;owned block of memory, for receiving arbitrary message byte streams.">
<polygon fill="white" stroke="#666666" points="173,-19 102,-19 102,0 173,0 173,-19"/>
<text text-anchor="middle" x="137.5" y="-7" font-family="Helvetica,sans-Serif" font-size="10.00">IByteStream</text>
</a>
</g>
</g>
<!-- Node0&#45;&gt;Node2 -->
<g id="edge2" class="edge">
<title>Node0&#45;&gt;Node2</title>
<path fill="none" stroke="#8b1a1a" d="M77.6,-19.84C85.68,-18.42 94.02,-16.96 101.8,-15.59"/>
<polygon fill="#8b1a1a" stroke="#8b1a1a" points="77.17,-16.37 67.92,-21.54 78.38,-23.26 77.17,-16.37"/>
</g>
</g>
</svg>
