<?xml version="1.0" encoding="UTF-8" standalone="no"?>
<!DOCTYPE svg PUBLIC "-//W3C//DTD SVG 1.1//EN"
 "http://www.w3.org/Graphics/SVG/1.1/DTD/svg11.dtd">
<!-- Generated by graphviz version 7.0.5 (20221223.1930)
 -->
<!-- Title: IParam::Shape Pages: 1 -->
<svg width="373pt" height="82pt"
 viewBox="0.00 0.00 372.50 82.00" xmlns="http://www.w3.org/2000/svg" xmlns:xlink="http://www.w3.org/1999/xlink">
<g id="graph0" class="graph" transform="scale(1 1) rotate(0) translate(4 78)">
<title>IParam::Shape</title>
<!-- Node1 -->
<g id="node1" class="node">
<title>Node1</title>
<g id="a_node1"><a xlink:title="Base struct for parameter shaping.">
<polygon fill="#999999" stroke="#666666" points="208,-74 128,-74 128,-55 208,-55 208,-74"/>
<text text-anchor="middle" x="168" y="-62" font-family="Helvetica,sans-Serif" font-size="10.00">IParam::Shape</text>
</a>
</g>
</g>
<!-- Node2 -->
<g id="node2" class="node">
<title>Node2</title>
<g id="a_node2"><a xlink:href="struct_i_param_1_1_shape_exp.html" target="_top" xlink:title="Exponential parameter shaping.">
<polygon fill="white" stroke="#666666" points="96,-19 0,-19 0,0 96,0 96,-19"/>
<text text-anchor="middle" x="48" y="-7" font-family="Helvetica,sans-Serif" font-size="10.00">IParam::ShapeExp</text>
</a>
</g>
</g>
<!-- Node1&#45;&gt;Node2 -->
<g id="edge1" class="edge">
<title>Node1&#45;&gt;Node2</title>
<path fill="none" stroke="#63b8ff" d="M137.28,-49.93C115.51,-40.32 86.95,-27.7 68.06,-19.36"/>
<polygon fill="#63b8ff" stroke="#63b8ff" points="135.7,-53.06 146.26,-53.9 138.53,-46.66 135.7,-53.06"/>
</g>
<!-- Node3 -->
<g id="node3" class="node">
<title>Node3</title>
<g id="a_node3"><a xlink:href="struct_i_param_1_1_shape_linear.html" target="_top" xlink:title="Linear parameter shaping.">
<polygon fill="white" stroke="#666666" points="221.5,-19 114.5,-19 114.5,0 221.5,0 221.5,-19"/>
<text text-anchor="middle" x="168" y="-7" font-family="Helvetica,sans-Serif" font-size="10.00">IParam::ShapeLinear</text>
</a>
</g>
</g>
<!-- Node1&#45;&gt;Node3 -->
<g id="edge2" class="edge">
<title>Node1&#45;&gt;Node3</title>
<path fill="none" stroke="#63b8ff" d="M168,-43.35C168,-35.1 168,-25.97 168,-19.44"/>
<polygon fill="#63b8ff" stroke="#63b8ff" points="164.5,-43.23 168,-53.23 171.5,-43.23 164.5,-43.23"/>
</g>
<!-- Node4 -->
<g id="node4" class="node">
<title>Node4</title>
<g id="a_node4"><a xlink:href="struct_i_param_1_1_shape_pow_curve.html" target="_top" xlink:title="PowCurve parameter shaping.">
<polygon fill="white" stroke="#666666" points="364.5,-19 239.5,-19 239.5,0 364.5,0 364.5,-19"/>
<text text-anchor="middle" x="302" y="-7" font-family="Helvetica,sans-Serif" font-size="10.00">IParam::ShapePowCurve</text>
</a>
</g>
</g>
<!-- Node1&#45;&gt;Node4 -->
<g id="edge3" class="edge">
<title>Node1&#45;&gt;Node4</title>
<path fill="none" stroke="#63b8ff" d="M201.31,-50.32C225.73,-40.67 258.22,-27.82 279.6,-19.36"/>
<polygon fill="#63b8ff" stroke="#63b8ff" points="200.15,-47.02 192.14,-53.95 202.73,-53.53 200.15,-47.02"/>
</g>
</g>
</svg>
