<?xml version="1.0" encoding="UTF-8" standalone="no"?>
<!DOCTYPE svg PUBLIC "-//W3C//DTD SVG 1.1//EN"
 "http://www.w3.org/Graphics/SVG/1.1/DTD/svg11.dtd">
<!-- Generated by graphviz version 2.36.0 (20140111.2315)
 -->
<!-- Title: IParam::Shape Pages: 1 -->
<svg width="379pt" height="84pt"
 viewBox="0.00 0.00 379.00 84.00" xmlns="http://www.w3.org/2000/svg" xmlns:xlink="http://www.w3.org/1999/xlink">
<g id="graph0" class="graph" transform="scale(1 1) rotate(0) translate(4 80)">
<title>IParam::Shape</title>
<polygon fill="white" stroke="none" points="-4,4 -4,-80 375,-80 375,4 -4,4"/>
<!-- Node1 -->
<g id="node1" class="node"><title>Node1</title>
<polygon fill="#bfbfbf" stroke="black" points="130,-56.5 130,-75.5 212,-75.5 212,-56.5 130,-56.5"/>
<text text-anchor="middle" x="171" y="-63.5" font-family="Helvetica,sans-Serif" font-size="10.00">IParam::Shape</text>
</g>
<!-- Node2 -->
<g id="node2" class="node"><title>Node2</title>
<g id="a_node2"><a xlink:href="struct_i_param_1_1_shape_exp.html" target="_top" xlink:title="Exponential parameter shaping. ">
<polygon fill="white" stroke="black" points="-0.5,-0.5 -0.5,-19.5 98.5,-19.5 98.5,-0.5 -0.5,-0.5"/>
<text text-anchor="middle" x="49" y="-7.5" font-family="Helvetica,sans-Serif" font-size="10.00">IParam::ShapeExp</text>
</a>
</g>
</g>
<!-- Node1&#45;&gt;Node2 -->
<g id="edge1" class="edge"><title>Node1&#45;&gt;Node2</title>
<path fill="none" stroke="midnightblue" d="M142.461,-52.3678C119.614,-42.2553 88.1949,-28.3486 68.2408,-19.5164"/>
<polygon fill="midnightblue" stroke="midnightblue" points="141.108,-55.5965 151.669,-56.4435 143.941,-49.1955 141.108,-55.5965"/>
</g>
<!-- Node3 -->
<g id="node3" class="node"><title>Node3</title>
<g id="a_node3"><a xlink:href="struct_i_param_1_1_shape_linear.html" target="_top" xlink:title="Linear parameter shaping. ">
<polygon fill="white" stroke="black" points="117,-0.5 117,-19.5 225,-19.5 225,-0.5 117,-0.5"/>
<text text-anchor="middle" x="171" y="-7.5" font-family="Helvetica,sans-Serif" font-size="10.00">IParam::ShapeLinear</text>
</a>
</g>
</g>
<!-- Node1&#45;&gt;Node3 -->
<g id="edge2" class="edge"><title>Node1&#45;&gt;Node3</title>
<path fill="none" stroke="midnightblue" d="M171,-45.8045C171,-36.9102 171,-26.7798 171,-19.7511"/>
<polygon fill="midnightblue" stroke="midnightblue" points="167.5,-46.083 171,-56.083 174.5,-46.083 167.5,-46.083"/>
</g>
<!-- Node4 -->
<g id="node4" class="node"><title>Node4</title>
<g id="a_node4"><a xlink:href="struct_i_param_1_1_shape_pow_curve.html" target="_top" xlink:title="PowCurve parameter shaping. ">
<polygon fill="white" stroke="black" points="243,-0.5 243,-19.5 371,-19.5 371,-0.5 243,-0.5"/>
<text text-anchor="middle" x="307" y="-7.5" font-family="Helvetica,sans-Serif" font-size="10.00">IParam::ShapePowCurve</text>
</a>
</g>
</g>
<!-- Node1&#45;&gt;Node4 -->
<g id="edge3" class="edge"><title>Node1&#45;&gt;Node4</title>
<path fill="none" stroke="midnightblue" d="M202.135,-52.6377C227.657,-42.504 263.109,-28.4274 285.551,-19.5164"/>
<polygon fill="midnightblue" stroke="midnightblue" points="200.552,-49.5002 192.55,-56.4435 203.135,-56.0061 200.552,-49.5002"/>
</g>
</g>
</svg>
