<?xml version="1.0" encoding="UTF-8" standalone="no"?>
<!DOCTYPE svg PUBLIC "-//W3C//DTD SVG 1.1//EN"
 "http://www.w3.org/Graphics/SVG/1.1/DTD/svg11.dtd">
<!-- Generated by graphviz version 7.0.5 (20221223.1930)
 -->
<!-- Title: IByteGetter Pages: 1 -->
<svg width="164pt" height="82pt"
 viewBox="0.00 0.00 164.00 82.00" xmlns="http://www.w3.org/2000/svg" xmlns:xlink="http://www.w3.org/1999/xlink">
<g id="graph0" class="graph" transform="scale(1 1) rotate(0) translate(4 78)">
<title>IByteGetter</title>
<!-- Node1 -->
<g id="node1" class="node">
<title>Node1</title>
<g id="a_node1"><a xlink:title="A helper class for IByteChunk and IByteStream that avoids code duplication.">
<polygon fill="#999999" stroke="#666666" points="109.5,-74 43.5,-74 43.5,-55 109.5,-55 109.5,-74"/>
<text text-anchor="middle" x="76.5" y="-62" font-family="Helvetica,sans-Serif" font-size="10.00">IByteGetter</text>
</a>
</g>
</g>
<!-- Node2 -->
<g id="node2" class="node">
<title>Node2</title>
<g id="a_node2"><a xlink:href="class_i_byte_chunk.html" target="_top" xlink:title="Manages a block of memory, for plug&#45;in settings store/recall.">
<polygon fill="white" stroke="#666666" points="67,-19 0,-19 0,0 67,0 67,-19"/>
<text text-anchor="middle" x="33.5" y="-7" font-family="Helvetica,sans-Serif" font-size="10.00">IByteChunk</text>
</a>
</g>
</g>
<!-- Node1&#45;&gt;Node2 -->
<g id="edge1" class="edge">
<title>Node1&#45;&gt;Node2</title>
<path fill="none" stroke="#8b1a1a" d="M62.25,-45.93C55.05,-37.06 46.62,-26.67 40.75,-19.44"/>
<polygon fill="#8b1a1a" stroke="#8b1a1a" points="59.43,-48.01 68.45,-53.57 64.86,-43.6 59.43,-48.01"/>
</g>
<!-- Node3 -->
<g id="node3" class="node">
<title>Node3</title>
<g id="a_node3"><a xlink:href="class_i_byte_stream.html" target="_top" xlink:title="Manages a non&#45;owned block of memory, for receiving arbitrary message byte streams.">
<polygon fill="white" stroke="#666666" points="156,-19 85,-19 85,0 156,0 156,-19"/>
<text text-anchor="middle" x="120.5" y="-7" font-family="Helvetica,sans-Serif" font-size="10.00">IByteStream</text>
</a>
</g>
</g>
<!-- Node1&#45;&gt;Node3 -->
<g id="edge2" class="edge">
<title>Node1&#45;&gt;Node3</title>
<path fill="none" stroke="#8b1a1a" d="M91.08,-45.93C98.45,-37.06 107.08,-26.67 113.08,-19.44"/>
<polygon fill="#8b1a1a" stroke="#8b1a1a" points="88.43,-43.65 84.73,-53.58 93.81,-48.13 88.43,-43.65"/>
</g>
</g>
</svg>
