<?xml version="1.0" encoding="UTF-8" standalone="no"?>
<!DOCTYPE svg PUBLIC "-//W3C//DTD SVG 1.1//EN"
 "http://www.w3.org/Graphics/SVG/1.1/DTD/svg11.dtd">
<!-- Generated by graphviz version 2.36.0 (20140111.2315)
 -->
<!-- Title: IByteGetter Pages: 1 -->
<svg width="165pt" height="84pt"
 viewBox="0.00 0.00 165.00 84.00" xmlns="http://www.w3.org/2000/svg" xmlns:xlink="http://www.w3.org/1999/xlink">
<g id="graph0" class="graph" transform="scale(1 1) rotate(0) translate(4 80)">
<title>IByteGetter</title>
<polygon fill="white" stroke="none" points="-4,4 -4,-80 161,-80 161,4 -4,4"/>
<!-- Node1 -->
<g id="node1" class="node"><title>Node1</title>
<polygon fill="#bfbfbf" stroke="black" points="44.5,-56.5 44.5,-75.5 111.5,-75.5 111.5,-56.5 44.5,-56.5"/>
<text text-anchor="middle" x="78" y="-63.5" font-family="Helvetica,sans-Serif" font-size="10.00">IByteGetter</text>
</g>
<!-- Node2 -->
<g id="node2" class="node"><title>Node2</title>
<g id="a_node2"><a xlink:href="class_i_byte_chunk.html" target="_top" xlink:title="Manages a block of memory, for plug&#45;in settings store/recall. ">
<polygon fill="white" stroke="black" points="0,-0.5 0,-19.5 68,-19.5 68,-0.5 0,-0.5"/>
<text text-anchor="middle" x="34" y="-7.5" font-family="Helvetica,sans-Serif" font-size="10.00">IByteChunk</text>
</a>
</g>
</g>
<!-- Node1&#45;&gt;Node2 -->
<g id="edge1" class="edge"><title>Node1&#45;&gt;Node2</title>
<path fill="none" stroke="#8b1a1a" d="M64.2655,-48.144C56.5995,-38.7357 47.3667,-27.4046 41.1305,-19.7511"/>
<polygon fill="#8b1a1a" stroke="#8b1a1a" points="61.7042,-50.5415 70.7343,-56.083 67.1309,-46.1198 61.7042,-50.5415"/>
</g>
<!-- Node3 -->
<g id="node3" class="node"><title>Node3</title>
<g id="a_node3"><a xlink:href="class_i_byte_stream.html" target="_top" xlink:title="Manages a non&#45;owned block of memory, for receiving arbitrary message byte streams. ">
<polygon fill="white" stroke="black" points="86.5,-0.5 86.5,-19.5 157.5,-19.5 157.5,-0.5 86.5,-0.5"/>
<text text-anchor="middle" x="122" y="-7.5" font-family="Helvetica,sans-Serif" font-size="10.00">IByteStream</text>
</a>
</g>
</g>
<!-- Node1&#45;&gt;Node3 -->
<g id="edge2" class="edge"><title>Node1&#45;&gt;Node3</title>
<path fill="none" stroke="#8b1a1a" d="M91.7345,-48.144C99.4005,-38.7357 108.633,-27.4046 114.869,-19.7511"/>
<polygon fill="#8b1a1a" stroke="#8b1a1a" points="88.8691,-46.1198 85.2657,-56.083 94.2958,-50.5415 88.8691,-46.1198"/>
</g>
</g>
</svg>
